0
SECTION
2
HEADER
9
$ACADVER
1
AC1009
0
ENDSEC
0
SECTION
2
TABLES
0
TABLE
2
VPORT
70
1
0
VPORT
2
ACTIVE
70
0
10
0.0
20
0.0
11
0.0
21
0.0
12
0.0
22
0.0
13
0.0
23
0.0
14
0.0
24
0.0
15
0.0
25
0.0
16
0.0
26
0.0
36
0.0
17
0.0
27
0.0
37
0.0
40
0.0
41
0.0
42
0.0
43
0.0
44
0.0
50
0.0
51
0.0
71
0
72
1000
73
1
74
3
75
0
76
0
77
0
78
0
0
ENDTAB
0
ENDSEC
0
SECTION
2
ENTITIES
0
LINE
8
hole
62
5
39
2
10
26.858632
20
108.766158
11
27.430132
21
108.766158
0
LINE
8
hole
62
5
39
2
10
27.430132
20
108.766158
11
27.430132
21
109.337658
0
LINE
8
hole
62
5
39
2
10
27.430132
20
109.337658
11
26.858632
21
109.337658
0
LINE
8
hole
62
5
39
2
10
26.858632
20
109.337658
11
26.858632
21
108.766158
0
LINE
8
hole
62
5
39
2
10
190.673685
20
108.766158
11
191.245185
21
108.766158
0
LINE
8
hole
62
5
39
2
10
191.245185
20
108.766158
11
191.245185
21
109.337658
0
LINE
8
hole
62
5
39
2
10
191.245185
20
109.337658
11
190.673685
21
109.337658
0
LINE
8
hole
62
5
39
2
10
190.673685
20
109.337658
11
190.673685
21
108.766158
0
LINE
8
hole
62
5
39
2
10
108.766158
20
26.858632
11
109.337658
21
26.858632
0
LINE
8
hole
62
5
39
2
10
109.337658
20
26.858632
11
109.337658
21
27.430132
0
LINE
8
hole
62
5
39
2
10
109.337658
20
27.430132
11
108.766158
21
27.430132
0
LINE
8
hole
62
5
39
2
10
108.766158
20
27.430132
11
108.766158
21
26.858632
0
LINE
8
hole
62
5
39
2
10
108.766158
20
190.673685
11
109.337658
21
190.673685
0
LINE
8
hole
62
5
39
2
10
109.337658
20
190.673685
11
109.337658
21
191.245185
0
LINE
8
hole
62
5
39
2
10
109.337658
20
191.245185
11
108.766158
21
191.245185
0
LINE
8
hole
62
5
39
2
10
108.766158
20
191.245185
11
108.766158
21
190.673685
0
LINE
8
hole
62
5
39
2
10
113.276362
20
89.615538
11
109.522517
21
89.031268
0
LINE
8
hole
62
5
39
2
10
109.522517
20
89.031268
11
108.101908
21
89.184429
0
LINE
8
hole
62
5
39
2
10
108.101908
20
89.184429
11
104.324767
21
89.591656
0
LINE
8
hole
62
5
39
2
10
104.324767
20
89.591656
11
102.992206
21
90.107281
0
LINE
8
hole
62
5
39
2
10
102.992206
20
90.107281
11
99.449169
21
91.478234
0
LINE
8
hole
62
5
39
2
10
99.449169
20
91.478234
11
98.295462
21
92.321175
0
LINE
8
hole
62
5
39
2
10
98.295462
20
92.321175
11
95.227965
21
94.562399
0
LINE
8
hole
62
5
39
2
10
95.227965
20
94.562399
11
94.331740
21
95.675220
0
LINE
8
hole
62
5
39
2
10
94.331740
20
95.675220
11
91.948843
21
98.634008
0
LINE
8
hole
62
5
39
2
10
91.948843
20
98.634008
11
91.371182
21
99.940878
0
LINE
8
hole
62
5
39
2
10
91.371182
20
99.940878
11
89.835286
21
103.415607
0
LINE
8
hole
62
5
39
2
10
89.835286
20
103.415607
11
89.251016
21
107.169453
0
LINE
8
hole
62
5
39
2
10
89.251016
20
107.169453
11
89.031268
21
108.581300
0
LINE
8
hole
62
5
39
2
10
89.031268
20
108.581300
11
89.438495
21
112.358441
0
LINE
8
hole
62
5
39
2
10
89.438495
20
112.358441
11
89.591656
21
113.779050
0
LINE
8
hole
62
5
39
2
10
89.591656
20
113.779050
11
90.962609
21
117.322087
0
LINE
8
hole
62
5
39
2
10
90.962609
20
117.322087
11
91.478234
21
118.654648
0
LINE
8
hole
62
5
39
2
10
91.478234
20
118.654648
11
93.719459
21
121.722145
0
LINE
8
hole
62
5
39
2
10
93.719459
20
121.722145
11
94.562399
21
122.875852
0
LINE
8
hole
62
5
39
2
10
94.562399
20
122.875852
11
97.521187
21
125.258750
0
LINE
8
hole
62
5
39
2
10
97.521187
20
125.258750
11
98.634008
21
126.154974
0
LINE
8
hole
62
5
39
2
10
98.634008
20
126.154974
11
102.108737
21
127.690870
0
LINE
8
hole
62
5
39
2
10
102.108737
20
127.690870
11
103.415608
21
128.268531
0
LINE
8
hole
62
5
39
2
10
103.415608
20
128.268531
11
104.827455
21
128.488279
0
LINE
8
hole
62
5
39
2
10
104.827455
20
128.488279
11
108.581300
21
129.072549
0
LINE
8
hole
62
5
39
2
10
108.581300
20
129.072549
11
110.320629
21
128.885025
0
LINE
8
hole
62
5
39
2
10
110.320629
20
128.885025
11
113.779050
21
128.512161
0
LINE
8
hole
62
5
39
2
10
113.779050
20
128.512161
11
115.421964
21
127.876446
0
LINE
8
hole
62
5
39
2
10
115.421964
20
127.876446
11
118.654648
21
126.625583
0
LINE
8
hole
62
5
39
2
10
118.654648
20
126.625583
11
119.776316
21
125.806046
0
LINE
8
hole
62
5
39
2
10
119.776316
20
125.806046
11
122.575115
21
123.761141
0
LINE
8
hole
62
5
39
2
10
122.575115
20
123.761141
11
125.057678
21
120.832296
0
LINE
8
hole
62
5
39
2
10
125.057678
20
120.832296
11
126.122873
21
119.509650
0
LINE
8
hole
62
5
39
2
10
126.122873
20
119.509650
11
126.732635
21
118.162939
0
LINE
8
hole
62
5
39
2
10
126.732635
20
118.162939
11
128.268531
21
114.688209
0
LINE
8
hole
62
5
39
2
10
128.268531
20
114.688209
11
128.852801
21
110.934364
0
LINE
8
hole
62
5
39
2
10
128.852801
20
110.934364
11
129.072549
21
109.522517
0
LINE
8
hole
62
5
39
2
10
129.072549
20
109.522517
11
128.665322
21
105.745376
0
LINE
8
hole
62
5
39
2
10
128.665322
20
105.745376
11
128.512160
21
104.324767
0
LINE
8
hole
62
5
39
2
10
128.512160
20
104.324767
11
127.141208
21
100.781730
0
LINE
8
hole
62
5
39
2
10
127.141208
20
100.781730
11
126.625583
21
99.449169
0
LINE
8
hole
62
5
39
2
10
126.625583
20
99.449169
11
124.384358
21
96.381672
0
LINE
8
hole
62
5
39
2
10
124.384358
20
96.381672
11
123.541418
21
95.227965
0
LINE
8
hole
62
5
39
2
10
123.541418
20
95.227965
11
120.582630
21
92.845067
0
LINE
8
hole
62
5
39
2
10
120.582630
20
92.845067
11
119.469809
21
91.948843
0
LINE
8
hole
62
5
39
2
10
119.469809
20
91.948843
11
115.995079
21
90.412947
0
LINE
8
hole
62
5
39
2
10
115.995079
20
90.412947
11
114.688209
21
89.835286
0
LINE
8
hole
62
5
39
2
10
114.688209
20
89.835286
11
113.276362
21
89.615538
0
LINE
8
boundary
62
5
39
2
10
137.879590
20
10.765691
11
140.057723
21
11.498254
0
LINE
8
boundary
62
5
39
2
10
140.057723
20
11.498254
11
141.378213
21
11.942370
0
LINE
8
boundary
62
5
39
2
10
141.378213
20
11.942370
11
141.985505
21
12.375795
0
LINE
8
boundary
62
5
39
2
10
141.985505
20
12.375795
11
142.331989
21
12.880742
0
LINE
8
boundary
62
5
39
2
10
142.331989
20
12.880742
11
142.698073
21
13.778358
0
LINE
8
boundary
62
5
39
2
10
142.698073
20
13.778358
11
142.734814
21
14.763433
0
LINE
8
boundary
62
5
39
2
10
142.734814
20
14.763433
11
142.137610
21
16.564591
0
LINE
8
boundary
62
5
39
2
10
142.137610
20
16.564591
11
141.210382
21
18.909097
0
LINE
8
boundary
62
5
39
2
10
141.210382
20
18.909097
11
141.088815
21
19.443233
0
LINE
8
boundary
62
5
39
2
10
141.088815
20
19.443233
11
140.941780
21
20.301932
0
LINE
8
boundary
62
5
39
2
10
140.941780
20
20.301932
11
140.870613
21
21.159751
0
LINE
8
boundary
62
5
39
2
10
140.870613
20
21.159751
11
140.873221
21
22.012495
0
LINE
8
boundary
62
5
39
2
10
140.873221
20
22.012495
11
140.947947
21
22.855753
0
LINE
8
boundary
62
5
39
2
10
140.947947
20
22.855753
11
141.092790
21
23.685328
0
LINE
8
boundary
62
5
39
2
10
141.092790
20
23.685328
11
141.306282
21
24.496807
0
LINE
8
boundary
62
5
39
2
10
141.306282
20
24.496807
11
141.586238
21
25.286008
0
LINE
8
boundary
62
5
39
2
10
141.586238
20
25.286008
11
141.930610
21
26.048829
0
LINE
8
boundary
62
5
39
2
10
141.930610
20
26.048829
11
142.337765
21
26.780905
0
LINE
8
boundary
62
5
39
2
10
142.337765
20
26.780905
11
142.806058
21
27.477830
0
LINE
8
boundary
62
5
39
2
10
142.806058
20
27.477830
11
143.333095
21
28.135560
0
LINE
8
boundary
62
5
39
2
10
143.333095
20
28.135560
11
143.917195
21
28.749810
0
LINE
8
boundary
62
5
39
2
10
143.917195
20
28.749810
11
144.556935
21
29.316069
0
LINE
8
boundary
62
5
39
2
10
144.556935
20
29.316069
11
145.249921
21
29.830290
0
LINE
8
boundary
62
5
39
2
10
145.249921
20
29.830290
11
145.994098
21
30.288367
0
LINE
8
boundary
62
5
39
2
10
145.994098
20
30.288367
11
146.793845
21
30.649254
0
LINE
8
boundary
62
5
39
2
10
146.793845
20
30.649254
11
147.418952
21
30.858501
0
LINE
8
boundary
62
5
39
2
10
147.418952
20
30.858501
11
147.938394
21
31.007427
0
LINE
8
boundary
62
5
39
2
10
147.938394
20
31.007427
11
148.780603
21
31.171905
0
LINE
8
boundary
62
5
39
2
10
148.780603
20
31.171905
11
149.626623
21
31.262641
0
LINE
8
boundary
62
5
39
2
10
149.626623
20
31.262641
11
150.471896
21
31.280987
0
LINE
8
boundary
62
5
39
2
10
150.471896
20
31.280987
11
151.311767
21
31.228193
0
LINE
8
boundary
62
5
39
2
10
151.311767
20
31.228193
11
152.141653
21
31.105624
0
LINE
8
boundary
62
5
39
2
10
152.141653
20
31.105624
11
152.957555
21
30.914323
0
LINE
8
boundary
62
5
39
2
10
152.957555
20
30.914323
11
153.754257
21
30.655845
0
LINE
8
boundary
62
5
39
2
10
153.754257
20
30.655845
11
154.527821
21
30.331352
0
LINE
8
boundary
62
5
39
2
10
154.527821
20
30.331352
11
155.273498
21
29.941923
0
LINE
8
boundary
62
5
39
2
10
155.273498
20
29.941923
11
155.987397
21
29.488767
0
LINE
8
boundary
62
5
39
2
10
155.987397
20
29.488767
11
156.664227
21
28.973329
0
LINE
8
boundary
62
5
39
2
10
156.664227
20
28.973329
11
157.299531
21
28.397215
0
LINE
8
boundary
62
5
39
2
10
157.299531
20
28.397215
11
157.889738
21
27.760848
0
LINE
8
boundary
62
5
39
2
10
157.889738
20
27.760848
11
158.429685
21
27.065907
0
LINE
8
boundary
62
5
39
2
10
158.429685
20
27.065907
11
159.173435
21
25.730498
0
LINE
8
boundary
62
5
39
2
10
159.173435
20
25.730498
11
160.400243
21
23.527758
0
LINE
8
boundary
62
5
39
2
10
160.400243
20
23.527758
11
161.120181
21
22.818370
0
LINE
8
boundary
62
5
39
2
10
161.120181
20
22.818370
11
162.013951
21
22.410396
0
LINE
8
boundary
62
5
39
2
10
162.013951
20
22.410396
11
162.993825
21
22.327047
0
LINE
8
boundary
62
5
39
2
10
162.993825
20
22.327047
11
163.713850
21
22.522687
0
LINE
8
boundary
62
5
39
2
10
163.713850
20
22.522687
11
165.660715
21
23.743772
0
LINE
8
boundary
62
5
39
2
10
165.660715
20
23.743772
11
166.841000
21
24.484053
0
LINE
8
boundary
62
5
39
2
10
166.841000
20
24.484053
11
168.686025
21
25.854180
0
LINE
8
boundary
62
5
39
2
10
168.686025
20
25.854180
11
169.804569
21
26.684817
0
LINE
8
boundary
62
5
39
2
10
169.804569
20
26.684817
11
170.248567
21
27.284372
0
LINE
8
boundary
62
5
39
2
10
170.248567
20
27.284372
11
170.421705
21
27.871635
0
LINE
8
boundary
62
5
39
2
10
170.421705
20
27.871635
11
170.492457
21
28.838479
0
LINE
8
boundary
62
5
39
2
10
170.492457
20
28.838479
11
170.320951
21
29.559185
0
LINE
8
boundary
62
5
39
2
10
170.320951
20
29.559185
11
170.072266
21
30.137167
0
LINE
8
boundary
62
5
39
2
10
170.072266
20
30.137167
11
169.098431
21
31.315267
0
LINE
8
boundary
62
5
39
2
10
169.098431
20
31.315267
11
167.492101
21
33.258530
0
LINE
8
boundary
62
5
39
2
10
167.492101
20
33.258530
11
167.041529
21
34.014018
0
LINE
8
boundary
62
5
39
2
10
167.041529
20
34.014018
11
166.663438
21
34.794941
0
LINE
8
boundary
62
5
39
2
10
166.663438
20
34.794941
11
166.357620
21
35.596777
0
LINE
8
boundary
62
5
39
2
10
166.357620
20
35.596777
11
166.212002
21
36.105982
0
LINE
8
boundary
62
5
39
2
10
166.212002
20
36.105982
11
166.022701
21
36.930971
0
LINE
8
boundary
62
5
39
2
10
166.022701
20
36.930971
11
165.904468
21
37.764558
0
LINE
8
boundary
62
5
39
2
10
165.904468
20
37.764558
11
165.856474
21
38.602440
0
LINE
8
boundary
62
5
39
2
10
165.856474
20
38.602440
11
165.878849
21
39.439483
0
LINE
8
boundary
62
5
39
2
10
165.878849
20
39.439483
11
165.970676
21
40.271380
0
LINE
8
boundary
62
5
39
2
10
165.970676
20
40.271380
11
166.131757
21
41.093424
0
LINE
8
boundary
62
5
39
2
10
166.131757
20
41.093424
11
166.361870
21
41.900855
0
LINE
8
boundary
62
5
39
2
10
166.361870
20
41.900855
11
166.659722
21
42.689396
0
LINE
8
boundary
62
5
39
2
10
166.659722
20
42.689396
11
167.025681
21
43.453987
0
LINE
8
boundary
62
5
39
2
10
167.025681
20
43.453987
11
167.459031
21
44.190164
0
LINE
8
boundary
62
5
39
2
10
167.459031
20
44.190164
11
167.959188
21
44.893394
0
LINE
8
boundary
62
5
39
2
10
167.959188
20
44.893394
11
168.525687
21
45.558996
0
LINE
8
boundary
62
5
39
2
10
168.525687
20
45.558996
11
169.174577
21
46.149410
0
LINE
8
boundary
62
5
39
2
10
169.174577
20
46.149410
11
169.880511
21
46.660657
0
LINE
8
boundary
62
5
39
2
10
169.880511
20
46.660657
11
170.619519
21
47.103118
0
LINE
8
boundary
62
5
39
2
10
170.619519
20
47.103118
11
171.386356
21
47.476771
0
LINE
8
boundary
62
5
39
2
10
171.386356
20
47.476771
11
172.176300
21
47.781494
0
LINE
8
boundary
62
5
39
2
10
172.176300
20
47.781494
11
172.784903
21
47.965791
0
LINE
8
boundary
62
5
39
2
10
172.784903
20
47.965791
11
173.291920
21
48.096310
0
LINE
8
boundary
62
5
39
2
10
173.291920
20
48.096310
11
174.119191
21
48.236240
0
LINE
8
boundary
62
5
39
2
10
174.119191
20
48.236240
11
174.953986
21
48.306411
0
LINE
8
boundary
62
5
39
2
10
174.953986
20
48.306411
11
175.791699
21
48.306752
0
LINE
8
boundary
62
5
39
2
10
175.791699
20
48.306752
11
176.627724
21
48.237196
0
LINE
8
boundary
62
5
39
2
10
176.627724
20
48.237196
11
177.457284
21
48.097308
0
LINE
8
boundary
62
5
39
2
10
177.457284
20
48.097308
11
178.276372
21
47.886770
0
LINE
8
boundary
62
5
39
2
10
178.276372
20
47.886770
11
179.079064
21
47.605848
0
LINE
8
boundary
62
5
39
2
10
179.079064
20
47.605848
11
179.862019
21
47.254013
0
LINE
8
boundary
62
5
39
2
10
179.862019
20
47.254013
11
180.619865
21
46.831158
0
LINE
8
boundary
62
5
39
2
10
180.619865
20
46.831158
11
181.347989
21
46.337213
0
LINE
8
boundary
62
5
39
2
10
181.347989
20
46.337213
11
182.468059
21
45.296951
0
LINE
8
boundary
62
5
39
2
10
182.468059
20
45.296951
11
184.315602
21
43.581051
0
LINE
8
boundary
62
5
39
2
10
184.315602
20
43.581051
11
185.218858
21
43.129175
0
LINE
8
boundary
62
5
39
2
10
185.218858
20
43.129175
11
186.195882
21
43.016955
0
LINE
8
boundary
62
5
39
2
10
186.195882
20
43.016955
11
187.153348
21
43.240620
0
LINE
8
boundary
62
5
39
2
10
187.153348
20
43.240620
11
187.777479
21
43.649167
0
LINE
8
boundary
62
5
39
2
10
187.777479
20
43.649167
11
189.251789
21
45.412101
0
LINE
8
boundary
62
5
39
2
10
189.251789
20
45.412101
11
190.145588
21
46.480876
0
LINE
8
boundary
62
5
39
2
10
190.145588
20
46.480876
11
191.476983
21
48.354060
0
LINE
8
boundary
62
5
39
2
10
191.476983
20
48.354060
11
192.284139
21
49.489675
0
LINE
8
boundary
62
5
39
2
10
192.284139
20
49.489675
11
192.520868
21
50.197162
0
LINE
8
boundary
62
5
39
2
10
192.520868
20
50.197162
11
192.504331
21
50.809119
0
LINE
8
boundary
62
5
39
2
10
192.504331
20
50.809119
11
192.359979
21
51.525928
0
LINE
8
boundary
62
5
39
2
10
192.359979
20
51.525928
11
192.138408
21
52.096338
0
LINE
8
boundary
62
5
39
2
10
192.138408
20
52.096338
11
191.471703
21
52.855825
0
LINE
8
boundary
62
5
39
2
10
191.471703
20
52.855825
11
190.181374
21
53.675396
0
LINE
8
boundary
62
5
39
2
10
190.181374
20
53.675396
11
188.052990
21
55.027270
0
LINE
8
boundary
62
5
39
2
10
188.052990
20
55.027270
11
187.391177
21
55.606385
0
LINE
8
boundary
62
5
39
2
10
187.391177
20
55.606385
11
186.790609
21
56.232137
0
LINE
8
boundary
62
5
39
2
10
186.790609
20
56.232137
11
186.252016
21
56.900321
0
LINE
8
boundary
62
5
39
2
10
186.252016
20
56.900321
11
185.777157
21
57.605793
0
LINE
8
boundary
62
5
39
2
10
185.777157
20
57.605793
11
185.366090
21
58.344490
0
LINE
8
boundary
62
5
39
2
10
185.366090
20
58.344490
11
185.020640
21
59.111382
0
LINE
8
boundary
62
5
39
2
10
185.020640
20
59.111382
11
184.740999
21
59.902637
0
LINE
8
boundary
62
5
39
2
10
184.740999
20
59.902637
11
184.608884
21
60.407084
0
LINE
8
boundary
62
5
39
2
10
184.608884
20
60.407084
11
184.439182
21
61.226669
0
LINE
8
boundary
62
5
39
2
10
184.439182
20
61.226669
11
184.338472
21
62.058201
0
LINE
8
boundary
62
5
39
2
10
184.338472
20
62.058201
11
184.307641
21
62.897216
0
LINE
8
boundary
62
5
39
2
10
184.307641
20
62.897216
11
184.347303
21
63.739259
0
LINE
8
boundary
62
5
39
2
10
184.347303
20
63.739259
11
184.458845
21
64.579572
0
LINE
8
boundary
62
5
39
2
10
184.458845
20
64.579572
11
184.643409
21
65.413624
0
LINE
8
boundary
62
5
39
2
10
184.643409
20
65.413624
11
184.902010
21
66.236842
0
LINE
8
boundary
62
5
39
2
10
184.902010
20
66.236842
11
185.235139
21
67.044901
0
LINE
8
boundary
62
5
39
2
10
185.235139
20
67.044901
11
185.669921
21
67.806985
0
LINE
8
boundary
62
5
39
2
10
185.669921
20
67.806985
11
186.183461
21
68.511381
0
LINE
8
boundary
62
5
39
2
10
186.183461
20
68.511381
11
186.749363
21
69.160539
0
LINE
8
boundary
62
5
39
2
10
186.749363
20
69.160539
11
187.362819
21
69.752976
0
LINE
8
boundary
62
5
39
2
10
187.362819
20
69.752976
11
188.020126
21
70.286796
0
LINE
8
boundary
62
5
39
2
10
188.020126
20
70.286796
11
188.716232
21
70.760717
0
LINE
8
boundary
62
5
39
2
10
188.716232
20
70.760717
11
189.447323
21
71.172859
0
LINE
8
boundary
62
5
39
2
10
189.447323
20
71.172859
11
190.208928
21
71.521619
0
LINE
8
boundary
62
5
39
2
10
190.208928
20
71.521619
11
190.995974
21
71.805723
0
LINE
8
boundary
62
5
39
2
10
190.995974
20
71.805723
11
191.604750
21
71.976150
0
LINE
8
boundary
62
5
39
2
10
191.604750
20
71.976150
11
192.113358
21
72.095712
0
LINE
8
boundary
62
5
39
2
10
192.113358
20
72.095712
11
192.945868
21
72.218783
0
LINE
8
boundary
62
5
39
2
10
192.945868
20
72.218783
11
193.789533
21
72.271783
0
LINE
8
boundary
62
5
39
2
10
193.789533
20
72.271783
11
194.639571
21
72.252914
0
LINE
8
boundary
62
5
39
2
10
194.639571
20
72.252914
11
195.492653
21
72.160268
0
LINE
8
boundary
62
5
39
2
10
195.492653
20
72.160268
11
196.344123
21
71.992281
0
LINE
8
boundary
62
5
39
2
10
196.344123
20
71.992281
11
197.189357
21
71.747449
0
LINE
8
boundary
62
5
39
2
10
197.189357
20
71.747449
11
198.576034
21
71.104202
0
LINE
8
boundary
62
5
39
2
10
198.576034
20
71.104202
11
200.863343
21
70.043172
0
LINE
8
boundary
62
5
39
2
10
200.863343
20
70.043172
11
201.862654
21
69.892377
0
LINE
8
boundary
62
5
39
2
10
201.862654
20
69.892377
11
202.825957
21
70.087751
0
LINE
8
boundary
62
5
39
2
10
202.825957
20
70.087751
11
203.349878
21
70.404340
0
LINE
8
boundary
62
5
39
2
10
203.349878
20
70.404340
11
203.958597
21
70.958250
0
LINE
8
boundary
62
5
39
2
10
203.958597
20
70.958250
11
204.992357
21
73.309948
0
LINE
8
boundary
62
5
39
2
10
204.992357
20
73.309948
11
205.512085
21
74.602622
0
LINE
8
boundary
62
5
39
2
10
205.512085
20
74.602622
11
206.199391
21
76.795596
0
LINE
8
boundary
62
5
39
2
10
206.199391
20
76.795596
11
206.616070
21
78.125083
0
LINE
8
boundary
62
5
39
2
10
206.616070
20
78.125083
11
206.622774
21
78.871009
0
LINE
8
boundary
62
5
39
2
10
206.622774
20
78.871009
11
206.293840
21
79.797599
0
LINE
8
boundary
62
5
39
2
10
206.293840
20
79.797599
11
205.671668
21
80.559224
0
LINE
8
boundary
62
5
39
2
10
205.671668
20
80.559224
11
204.803495
21
81.075305
0
LINE
8
boundary
62
5
39
2
10
204.803495
20
81.075305
11
203.323042
21
81.456041
0
LINE
8
boundary
62
5
39
2
10
203.323042
20
81.456041
11
200.881051
21
82.084060
0
LINE
8
boundary
62
5
39
2
10
200.881051
20
82.084060
11
200.072294
21
82.430442
0
LINE
8
boundary
62
5
39
2
10
200.072294
20
82.430442
11
199.307895
21
82.839915
0
LINE
8
boundary
62
5
39
2
10
199.307895
20
82.839915
11
198.589055
21
83.309084
0
LINE
8
boundary
62
5
39
2
10
198.589055
20
83.309084
11
197.919265
21
83.833225
0
LINE
8
boundary
62
5
39
2
10
197.919265
20
83.833225
11
197.300332
21
84.408686
0
LINE
8
boundary
62
5
39
2
10
197.300332
20
84.408686
11
196.734603
21
85.031376
0
LINE
8
boundary
62
5
39
2
10
196.734603
20
85.031376
11
196.224489
21
85.697385
0
LINE
8
boundary
62
5
39
2
10
196.224489
20
85.697385
11
195.772231
21
86.402452
0
LINE
8
boundary
62
5
39
2
10
195.772231
20
86.402452
11
195.380346
21
87.142838
0
LINE
8
boundary
62
5
39
2
10
195.380346
20
87.142838
11
195.051110
21
87.914333
0
LINE
8
boundary
62
5
39
2
10
195.051110
20
87.914333
11
194.786970
21
88.713094
0
LINE
8
boundary
62
5
39
2
10
194.786970
20
88.713094
11
194.664430
21
89.224655
0
LINE
8
boundary
62
5
39
2
10
194.664430
20
89.224655
11
194.511030
21
90.058232
0
LINE
8
boundary
62
5
39
2
10
194.511030
20
90.058232
11
194.428883
21
90.908422
0
LINE
8
boundary
62
5
39
2
10
194.428883
20
90.908422
11
194.419998
21
91.771414
0
LINE
8
boundary
62
5
39
2
10
194.419998
20
91.771414
11
194.487185
21
92.642796
0
LINE
8
boundary
62
5
39
2
10
194.487185
20
92.642796
11
194.665460
21
93.501840
0
LINE
8
boundary
62
5
39
2
10
194.665460
20
93.501840
11
194.936155
21
94.330517
0
LINE
8
boundary
62
5
39
2
10
194.936155
20
94.330517
11
195.273540
21
95.122870
0
LINE
8
boundary
62
5
39
2
10
195.273540
20
95.122870
11
195.673973
21
95.875897
0
LINE
8
boundary
62
5
39
2
10
195.673973
20
95.875897
11
196.134047
21
96.586675
0
LINE
8
boundary
62
5
39
2
10
196.134047
20
96.586675
11
196.649810
21
97.252487
0
LINE
8
boundary
62
5
39
2
10
196.649810
20
97.252487
11
197.217599
21
97.870456
0
LINE
8
boundary
62
5
39
2
10
197.217599
20
97.870456
11
197.834143
21
98.437387
0
LINE
8
boundary
62
5
39
2
10
197.834143
20
98.437387
11
198.495130
21
98.950778
0
LINE
8
boundary
62
5
39
2
10
198.495130
20
98.950778
11
199.197473
21
99.407598
0
LINE
8
boundary
62
5
39
2
10
199.197473
20
99.407598
11
199.937222
21
99.804956
0
LINE
8
boundary
62
5
39
2
10
199.937222
20
99.804956
11
200.710878
21
100.139943
0
LINE
8
boundary
62
5
39
2
10
200.710878
20
100.139943
11
201.514702
21
100.409708
0
LINE
8
boundary
62
5
39
2
10
201.514702
20
100.409708
11
202.139369
21
100.568233
0
LINE
8
boundary
62
5
39
2
10
202.139369
20
100.568233
11
202.662624
21
100.677330
0
LINE
8
boundary
62
5
39
2
10
202.662624
20
100.677330
11
203.523993
21
100.780827
0
LINE
8
boundary
62
5
39
2
10
203.523993
20
100.780827
11
204.403622
21
100.809153
0
LINE
8
boundary
62
5
39
2
10
204.403622
20
100.809153
11
205.921090
21
100.625937
0
LINE
8
boundary
62
5
39
2
10
205.921090
20
100.625937
11
208.424135
21
100.323724
0
LINE
8
boundary
62
5
39
2
10
208.424135
20
100.323724
11
209.421196
21
100.489013
0
LINE
8
boundary
62
5
39
2
10
209.421196
20
100.489013
11
209.953723
21
100.790148
0
LINE
8
boundary
62
5
39
2
10
209.953723
20
100.790148
11
210.677274
21
101.435623
0
LINE
8
boundary
62
5
39
2
10
210.677274
20
101.435623
11
211.085027
21
102.150505
0
LINE
8
boundary
62
5
39
2
10
211.085027
20
102.150505
11
211.341444
21
104.706551
0
LINE
8
boundary
62
5
39
2
10
211.341444
20
104.706551
11
211.436317
21
106.096551
0
LINE
8
boundary
62
5
39
2
10
211.436317
20
106.096551
11
211.412371
21
108.394542
0
LINE
8
boundary
62
5
39
2
10
211.412371
20
108.394542
11
211.397854
21
109.787695
0
LINE
8
boundary
62
5
39
2
10
211.397854
20
109.787695
11
211.173586
21
110.499323
0
LINE
8
boundary
62
5
39
2
10
211.173586
20
110.499323
11
210.574172
21
111.278941
0
LINE
8
boundary
62
5
39
2
10
210.574172
20
111.278941
11
209.748070
21
111.810752
0
LINE
8
boundary
62
5
39
2
10
209.748070
20
111.810752
11
208.762199
21
112.033464
0
LINE
8
boundary
62
5
39
2
10
208.762199
20
112.033464
11
207.236624
21
111.938078
0
LINE
8
boundary
62
5
39
2
10
207.236624
20
111.938078
11
204.720204
21
111.780740
0
LINE
8
boundary
62
5
39
2
10
204.720204
20
111.780740
11
203.844000
21
111.860310
0
LINE
8
boundary
62
5
39
2
10
203.844000
20
111.860310
11
202.990462
21
112.013372
0
LINE
8
boundary
62
5
39
2
10
202.990462
20
112.013372
11
202.162041
21
112.237458
0
LINE
8
boundary
62
5
39
2
10
202.162041
20
112.237458
11
201.362871
21
112.529005
0
LINE
8
boundary
62
5
39
2
10
201.362871
20
112.529005
11
200.596582
21
112.884894
0
LINE
8
boundary
62
5
39
2
10
200.596582
20
112.884894
11
199.866204
21
113.302324
0
LINE
8
boundary
62
5
39
2
10
199.866204
20
113.302324
11
199.174671
21
113.778325
0
LINE
8
boundary
62
5
39
2
10
199.174671
20
113.778325
11
198.526812
21
114.309198
0
LINE
8
boundary
62
5
39
2
10
198.526812
20
114.309198
11
197.925630
21
114.892075
0
LINE
8
boundary
62
5
39
2
10
197.925630
20
114.892075
11
197.374097
21
115.524049
0
LINE
8
boundary
62
5
39
2
10
197.374097
20
115.524049
11
196.875929
21
116.202169
0
LINE
8
boundary
62
5
39
2
10
196.875929
20
116.202169
11
196.435134
21
116.922646
0
LINE
8
boundary
62
5
39
2
10
196.435134
20
116.922646
11
196.054203
21
117.683067
0
LINE
8
boundary
62
5
39
2
10
196.054203
20
117.683067
11
195.737397
21
118.480100
0
LINE
8
boundary
62
5
39
2
10
195.737397
20
118.480100
11
195.487691
21
119.310833
0
LINE
8
boundary
62
5
39
2
10
195.487691
20
119.310833
11
195.376196
21
119.846953
0
LINE
8
boundary
62
5
39
2
10
195.376196
20
119.846953
11
195.280270
21
120.719009
0
LINE
8
boundary
62
5
39
2
10
195.280270
20
120.719009
11
195.282041
21
121.590601
0
LINE
8
boundary
62
5
39
2
10
195.282041
20
121.590601
11
195.358012
21
122.448505
0
LINE
8
boundary
62
5
39
2
10
195.358012
20
122.448505
11
195.506075
21
123.288521
0
LINE
8
boundary
62
5
39
2
10
195.506075
20
123.288521
11
195.723898
21
124.106726
0
LINE
8
boundary
62
5
39
2
10
195.723898
20
124.106726
11
196.008635
21
124.899286
0
LINE
8
boundary
62
5
39
2
10
196.008635
20
124.899286
11
196.357881
21
125.662342
0
LINE
8
boundary
62
5
39
2
10
196.357881
20
125.662342
11
196.768670
21
126.392193
0
LINE
8
boundary
62
5
39
2
10
196.768670
20
126.392193
11
197.238670
21
127.084745
0
LINE
8
boundary
62
5
39
2
10
197.238670
20
127.084745
11
197.765581
21
127.736155
0
LINE
8
boundary
62
5
39
2
10
197.765581
20
127.736155
11
198.346548
21
128.342575
0
LINE
8
boundary
62
5
39
2
10
198.346548
20
128.342575
11
198.978779
21
128.900289
0
LINE
8
boundary
62
5
39
2
10
198.978779
20
128.900289
11
199.659821
21
129.405330
0
LINE
8
boundary
62
5
39
2
10
199.659821
20
129.405330
11
200.387464
21
129.853660
0
LINE
8
boundary
62
5
39
2
10
200.387464
20
129.853660
11
201.158757
21
130.241614
0
LINE
8
boundary
62
5
39
2
10
201.158757
20
130.241614
11
201.971409
21
130.565179
0
LINE
8
boundary
62
5
39
2
10
201.971409
20
130.565179
11
203.783739
21
130.972552
0
LINE
8
boundary
62
5
39
2
10
203.783739
20
130.972552
11
206.257650
21
131.458581
0
LINE
8
boundary
62
5
39
2
10
206.257650
20
131.458581
11
206.816131
21
131.748284
0
LINE
8
boundary
62
5
39
2
10
206.816131
20
131.748284
11
207.568217
21
132.374714
0
LINE
8
boundary
62
5
39
2
10
207.568217
20
132.374714
11
208.056706
21
133.212345
0
LINE
8
boundary
62
5
39
2
10
208.056706
20
133.212345
11
208.223744
21
134.018406
0
LINE
8
boundary
62
5
39
2
10
208.223744
20
134.018406
11
207.677619
21
136.528414
0
LINE
8
boundary
62
5
39
2
10
207.677619
20
136.528414
11
207.338126
21
137.879590
0
LINE
8
boundary
62
5
39
2
10
207.338126
20
137.879590
11
206.894010
21
139.200080
0
LINE
8
boundary
62
5
39
2
10
206.894010
20
139.200080
11
206.161447
21
141.378212
0
LINE
8
boundary
62
5
39
2
10
206.161447
20
141.378212
11
205.728022
21
141.985505
0
LINE
8
boundary
62
5
39
2
10
205.728022
20
141.985505
11
204.916951
21
142.542044
0
LINE
8
boundary
62
5
39
2
10
204.916951
20
142.542044
11
203.966868
21
142.792666
0
LINE
8
boundary
62
5
39
2
10
203.966868
20
142.792666
11
202.960579
21
142.699741
0
LINE
8
boundary
62
5
39
2
10
202.960579
20
142.699741
11
200.616074
21
141.772513
0
LINE
8
boundary
62
5
39
2
10
200.616074
20
141.772513
11
199.194720
21
141.210382
0
LINE
8
boundary
62
5
39
2
10
199.194720
20
141.210382
11
198.336763
21
141.015115
0
LINE
8
boundary
62
5
39
2
10
198.336763
20
141.015115
11
197.477615
21
140.897321
0
LINE
8
boundary
62
5
39
2
10
197.477615
20
140.897321
11
196.620602
21
140.854422
0
LINE
8
boundary
62
5
39
2
10
196.620602
20
140.854422
11
195.770446
21
140.884618
0
LINE
8
boundary
62
5
39
2
10
195.770446
20
140.884618
11
194.931371
21
140.986340
0
LINE
8
boundary
62
5
39
2
10
194.931371
20
140.986340
11
194.107555
21
141.157325
0
LINE
8
boundary
62
5
39
2
10
194.107555
20
141.157325
11
193.303555
21
141.396587
0
LINE
8
boundary
62
5
39
2
10
193.303555
20
141.396587
11
192.523326
21
141.701214
0
LINE
8
boundary
62
5
39
2
10
192.523326
20
141.701214
11
191.771059
21
142.069681
0
LINE
8
boundary
62
5
39
2
10
191.771059
20
142.069681
11
191.051223
21
142.500290
0
LINE
8
boundary
62
5
39
2
10
191.051223
20
142.500290
11
190.368189
21
142.991429
0
LINE
8
boundary
62
5
39
2
10
190.368189
20
142.991429
11
189.725799
21
143.540230
0
LINE
8
boundary
62
5
39
2
10
189.725799
20
143.540230
11
189.128608
21
144.145729
0
LINE
8
boundary
62
5
39
2
10
189.128608
20
144.145729
11
188.581103
21
144.806228
0
LINE
8
boundary
62
5
39
2
10
188.581103
20
144.806228
11
188.087059
21
145.518910
0
LINE
8
boundary
62
5
39
2
10
188.087059
20
145.518910
11
187.650787
21
146.282180
0
LINE
8
boundary
62
5
39
2
10
187.650787
20
146.282180
11
187.335602
21
147.104041
0
LINE
8
boundary
62
5
39
2
10
187.335602
20
147.104041
11
187.186676
21
147.623483
0
LINE
8
boundary
62
5
39
2
10
187.186676
20
147.623483
11
186.993991
21
148.462727
0
LINE
8
boundary
62
5
39
2
10
186.993991
20
148.462727
11
186.875422
21
149.307308
0
LINE
8
boundary
62
5
39
2
10
186.875422
20
149.307308
11
186.829754
21
150.152863
0
LINE
8
boundary
62
5
39
2
10
186.829754
20
150.152863
11
186.855698
21
150.994773
0
LINE
8
boundary
62
5
39
2
10
186.855698
20
150.994773
11
186.951931
21
151.828428
0
LINE
8
boundary
62
5
39
2
10
186.951931
20
151.828428
11
187.117290
21
152.649608
0
LINE
8
boundary
62
5
39
2
10
187.117290
20
152.649608
11
187.350414
21
153.453557
0
LINE
8
boundary
62
5
39
2
10
187.350414
20
153.453557
11
187.649991
21
154.235854
0
LINE
8
boundary
62
5
39
2
10
187.649991
20
154.235854
11
188.014911
21
154.992056
0
LINE
8
boundary
62
5
39
2
10
188.014911
20
154.992056
11
188.444015
21
155.717949
0
LINE
8
boundary
62
5
39
2
10
188.444015
20
155.717949
11
188.935945
21
156.408770
0
LINE
8
boundary
62
5
39
2
10
188.935945
20
156.408770
11
189.489158
21
157.059748
0
LINE
8
boundary
62
5
39
2
10
189.489158
20
157.059748
11
190.102784
21
157.666975
0
LINE
8
boundary
62
5
39
2
10
190.102784
20
157.666975
11
190.775618
21
158.225892
0
LINE
8
boundary
62
5
39
2
10
190.775618
20
158.225892
11
193.240651
21
159.656493
0
LINE
8
boundary
62
5
39
2
10
193.240651
20
159.656493
11
194.576059
21
160.400243
0
LINE
8
boundary
62
5
39
2
10
194.576059
20
160.400243
11
195.017702
21
160.848454
0
LINE
8
boundary
62
5
39
2
10
195.017702
20
160.848454
11
195.539439
21
161.676614
0
LINE
8
boundary
62
5
39
2
10
195.539439
20
161.676614
11
195.745312
21
162.623989
0
LINE
8
boundary
62
5
39
2
10
195.745312
20
162.623989
11
195.654971
21
163.442090
0
LINE
8
boundary
62
5
39
2
10
195.654971
20
163.442090
11
194.840849
21
164.894134
0
LINE
8
boundary
62
5
39
2
10
194.840849
20
164.894134
11
193.619764
21
166.841000
0
LINE
8
boundary
62
5
39
2
10
193.619764
20
166.841000
11
192.789126
21
167.959544
0
LINE
8
boundary
62
5
39
2
10
192.789126
20
167.959544
11
191.419000
21
169.804569
0
LINE
8
boundary
62
5
39
2
10
191.419000
20
169.804569
11
190.819445
21
170.248567
0
LINE
8
boundary
62
5
39
2
10
190.819445
20
170.248567
11
189.876155
21
170.526669
0
LINE
8
boundary
62
5
39
2
10
189.876155
20
170.526669
11
188.895032
21
170.471716
0
LINE
8
boundary
62
5
39
2
10
188.895032
20
170.471716
11
188.317050
21
170.223031
0
LINE
8
boundary
62
5
39
2
10
188.317050
20
170.223031
11
186.023387
21
168.465936
0
LINE
8
boundary
62
5
39
2
10
186.023387
20
168.465936
11
184.845287
21
167.492101
0
LINE
8
boundary
62
5
39
2
10
184.845287
20
167.492101
11
184.374944
21
167.211589
0
LINE
8
boundary
62
5
39
2
10
184.374944
20
167.211589
11
183.603620
21
166.806141
0
LINE
8
boundary
62
5
39
2
10
183.603620
20
166.806141
11
182.809677
21
166.473045
0
LINE
8
boundary
62
5
39
2
10
182.809677
20
166.473045
11
182.198335
21
166.269339
0
LINE
8
boundary
62
5
39
2
10
182.198335
20
166.269339
11
181.689129
21
166.123722
0
LINE
8
boundary
62
5
39
2
10
181.689129
20
166.123722
11
180.859850
21
165.961457
0
LINE
8
boundary
62
5
39
2
10
180.859850
20
165.961457
11
180.023652
21
165.869919
0
LINE
8
boundary
62
5
39
2
10
180.023652
20
165.869919
11
179.184749
21
165.848324
0
LINE
8
boundary
62
5
39
2
10
179.184749
20
165.848324
11
178.348833
21
165.897355
0
LINE
8
boundary
62
5
39
2
10
178.348833
20
165.897355
11
177.519372
21
166.015127
0
LINE
8
boundary
62
5
39
2
10
177.519372
20
166.015127
11
176.701825
21
166.202464
0
LINE
8
boundary
62
5
39
2
10
176.701825
20
166.202464
11
175.900526
21
166.458511
0
LINE
8
boundary
62
5
39
2
10
175.900526
20
166.458511
11
175.119719
21
166.781706
0
LINE
8
boundary
62
5
39
2
10
175.119719
20
166.781706
11
174.364959
21
167.173590
0
LINE
8
boundary
62
5
39
2
10
174.364959
20
167.173590
11
173.640049
21
167.632079
0
LINE
8
boundary
62
5
39
2
10
173.640049
20
167.632079
11
172.949963
21
168.157497
0
LINE
8
boundary
62
5
39
2
10
172.949963
20
168.157497
11
172.299203
21
168.748902
0
LINE
8
boundary
62
5
39
2
10
172.299203
20
168.748902
11
171.745375
21
169.432641
0
LINE
8
boundary
62
5
39
2
10
171.745375
20
169.432641
11
171.259943
21
170.152032
0
LINE
8
boundary
62
5
39
2
10
171.259943
20
170.152032
11
170.843532
21
170.902931
0
LINE
8
boundary
62
5
39
2
10
170.843532
20
170.902931
11
170.495802
21
171.679431
0
LINE
8
boundary
62
5
39
2
10
170.495802
20
171.679431
11
170.217152
21
172.477525
0
LINE
8
boundary
62
5
39
2
10
170.217152
20
172.477525
11
170.086633
21
172.984542
0
LINE
8
boundary
62
5
39
2
10
170.086633
20
172.984542
11
169.920390
21
173.806953
0
LINE
8
boundary
62
5
39
2
10
169.920390
20
173.806953
11
169.823890
21
174.638908
0
LINE
8
boundary
62
5
39
2
10
169.823890
20
174.638908
11
169.797193
21
175.475520
0
LINE
8
boundary
62
5
39
2
10
169.797193
20
175.475520
11
169.840368
21
176.312182
0
LINE
8
boundary
62
5
39
2
10
169.840368
20
176.312182
11
169.953710
21
177.144182
0
LINE
8
boundary
62
5
39
2
10
169.953710
20
177.144182
11
170.137583
21
177.967222
0
LINE
8
boundary
62
5
39
2
10
170.137583
20
177.967222
11
170.391940
21
178.776103
0
LINE
8
boundary
62
5
39
2
10
170.391940
20
178.776103
11
170.717010
21
179.566507
0
LINE
8
boundary
62
5
39
2
10
170.717010
20
179.566507
11
171.113060
21
180.333830
0
LINE
8
boundary
62
5
39
2
10
171.113060
20
180.333830
11
171.580173
21
181.073172
0
LINE
8
boundary
62
5
39
2
10
171.580173
20
181.073172
11
173.482504
21
183.195532
0
LINE
8
boundary
62
5
39
2
10
173.482504
20
183.195532
11
174.522765
21
184.315602
0
LINE
8
boundary
62
5
39
2
10
174.522765
20
184.315602
11
174.804090
21
184.877941
0
LINE
8
boundary
62
5
39
2
10
174.804090
20
184.877941
11
175.044507
21
185.827122
0
LINE
8
boundary
62
5
39
2
10
175.044507
20
185.827122
11
174.947615
21
186.791971
0
LINE
8
boundary
62
5
39
2
10
174.947615
20
186.791971
11
174.708998
21
187.388915
0
LINE
8
boundary
62
5
39
2
10
174.708998
20
187.388915
11
173.385874
21
188.671278
0
LINE
8
boundary
62
5
39
2
10
173.385874
20
188.671278
11
171.622941
21
190.145588
0
LINE
8
boundary
62
5
39
2
10
171.622941
20
190.145588
11
170.487326
21
190.952744
0
LINE
8
boundary
62
5
39
2
10
170.487326
20
190.952744
11
168.614142
21
192.284138
0
LINE
8
boundary
62
5
39
2
10
168.614142
20
192.284138
11
167.906655
21
192.520868
0
LINE
8
boundary
62
5
39
2
10
167.906655
20
192.520868
11
166.923699
21
192.494306
0
LINE
8
boundary
62
5
39
2
10
166.923699
20
192.494306
11
166.353289
21
192.272735
0
LINE
8
boundary
62
5
39
2
10
166.353289
20
192.272735
11
165.534646
21
191.723339
0
LINE
8
boundary
62
5
39
2
10
165.534646
20
191.723339
11
163.896118
21
189.343320
0
LINE
8
boundary
62
5
39
2
10
163.896118
20
189.343320
11
163.076547
21
188.052990
0
LINE
8
boundary
62
5
39
2
10
163.076547
20
188.052990
11
162.716008
21
187.640966
0
LINE
8
boundary
62
5
39
2
10
162.716008
20
187.640966
11
162.107858
21
187.017282
0
LINE
8
boundary
62
5
39
2
10
162.107858
20
187.017282
11
161.455689
21
186.455298
0
LINE
8
boundary
62
5
39
2
10
161.455689
20
186.455298
11
160.764291
21
185.956384
0
LINE
8
boundary
62
5
39
2
10
160.764291
20
185.956384
11
160.038135
21
185.521239
0
LINE
8
boundary
62
5
39
2
10
160.038135
20
185.521239
11
159.281884
21
185.151023
0
LINE
8
boundary
62
5
39
2
10
159.281884
20
185.151023
11
158.499824
21
184.846544
0
LINE
8
boundary
62
5
39
2
10
158.499824
20
184.846544
11
157.895359
21
184.660904
0
LINE
8
boundary
62
5
39
2
10
157.895359
20
184.660904
11
157.390912
21
184.528789
0
LINE
8
boundary
62
5
39
2
10
157.390912
20
184.528789
11
156.565679
21
184.384857
0
LINE
8
boundary
62
5
39
2
10
156.565679
20
184.384857
11
155.730328
21
184.310351
0
LINE
8
boundary
62
5
39
2
10
155.730328
20
184.310351
11
154.889092
21
184.305998
0
LINE
8
boundary
62
5
39
2
10
154.889092
20
184.305998
11
154.046560
21
184.372344
0
LINE
8
boundary
62
5
39
2
10
154.046560
20
184.372344
11
153.207592
21
184.511286
0
LINE
8
boundary
62
5
39
2
10
153.207592
20
184.511286
11
152.376520
21
184.723508
0
LINE
8
boundary
62
5
39
2
10
152.376520
20
184.723508
11
151.558063
21
185.010226
0
LINE
8
boundary
62
5
39
2
10
151.558063
20
185.010226
11
150.756308
21
185.371492
0
LINE
8
boundary
62
5
39
2
10
150.756308
20
185.371492
11
150.018275
21
185.850843
0
LINE
8
boundary
62
5
39
2
10
150.018275
20
185.850843
11
149.334271
21
186.385111
0
LINE
8
boundary
62
5
39
2
10
149.334271
20
186.385111
11
148.706239
21
186.970191
0
LINE
8
boundary
62
5
39
2
10
148.706239
20
186.970191
11
148.135382
21
187.600850
0
LINE
8
boundary
62
5
39
2
10
148.135382
20
187.600850
11
147.624015
21
188.274311
0
LINE
8
boundary
62
5
39
2
10
147.624015
20
188.274311
11
147.172794
21
188.984145
0
LINE
8
boundary
62
5
39
2
10
147.172794
20
188.984145
11
146.784344
21
189.728123
0
LINE
8
boundary
62
5
39
2
10
146.784344
20
189.728123
11
146.459647
21
190.500415
0
LINE
8
boundary
62
5
39
2
10
146.459647
20
190.500415
11
146.200151
21
191.296406
0
LINE
8
boundary
62
5
39
2
10
146.200151
20
191.296406
11
146.080590
21
191.805015
0
LINE
8
boundary
62
5
39
2
10
146.080590
20
191.805015
11
145.931485
21
192.631652
0
LINE
8
boundary
62
5
39
2
10
145.931485
20
192.631652
11
145.852038
21
193.471107
0
LINE
8
boundary
62
5
39
2
10
145.852038
20
193.471107
11
145.843781
21
194.318740
0
LINE
8
boundary
62
5
39
2
10
145.843781
20
194.318740
11
145.908581
21
195.170673
0
LINE
8
boundary
62
5
39
2
10
145.908581
20
195.170673
11
146.048132
21
196.022752
0
LINE
8
boundary
62
5
39
2
10
146.048132
20
196.022752
11
146.263960
21
196.870339
0
LINE
8
boundary
62
5
39
2
10
146.263960
20
196.870339
11
147.417397
21
199.476665
0
LINE
8
boundary
62
5
39
2
10
147.417397
20
199.476665
11
148.060645
21
200.863343
0
LINE
8
boundary
62
5
39
2
10
148.060645
20
200.863343
11
148.154525
21
201.485483
0
LINE
8
boundary
62
5
39
2
10
148.154525
20
201.485483
11
148.089806
21
202.462377
0
LINE
8
boundary
62
5
39
2
10
148.089806
20
202.462377
11
147.824134
21
203.143583
0
LINE
8
boundary
62
5
39
2
10
147.824134
20
203.143583
11
147.507544
21
203.667504
0
LINE
8
boundary
62
5
39
2
10
147.507544
20
203.667504
11
146.926119
21
204.135072
0
LINE
8
boundary
62
5
39
2
10
146.926119
20
204.135072
11
145.633445
21
204.654799
0
LINE
8
boundary
62
5
39
2
10
145.633445
20
204.654799
11
143.501194
21
205.512085
0
LINE
8
boundary
62
5
39
2
10
143.501194
20
205.512085
11
142.171707
21
205.928763
0
LINE
8
boundary
62
5
39
2
10
142.171707
20
205.928763
11
139.978733
21
206.616070
0
LINE
8
boundary
62
5
39
2
10
139.978733
20
206.616070
11
139.232808
21
206.622774
0
LINE
8
boundary
62
5
39
2
10
139.232808
20
206.622774
11
138.655942
21
206.417990
0
LINE
8
boundary
62
5
39
2
10
138.655942
20
206.417990
11
137.832054
21
205.906495
0
LINE
8
boundary
62
5
39
2
10
137.832054
20
205.906495
11
137.223297
21
205.131171
0
LINE
8
boundary
62
5
39
2
10
137.223297
20
205.131171
11
136.400492
21
202.361504
0
LINE
8
boundary
62
5
39
2
10
136.400492
20
202.361504
11
136.019756
21
200.881051
0
LINE
8
boundary
62
5
39
2
10
136.019756
20
200.881051
11
135.804110
21
200.377545
0
LINE
8
boundary
62
5
39
2
10
135.804110
20
200.377545
11
135.418450
21
199.596403
0
LINE
8
boundary
62
5
39
2
10
135.418450
20
199.596403
11
134.971812
21
198.860368
0
LINE
8
boundary
62
5
39
2
10
134.971812
20
198.860368
11
134.468419
21
198.172064
0
LINE
8
boundary
62
5
39
2
10
134.468419
20
198.172064
11
133.912328
21
197.533936
0
LINE
8
boundary
62
5
39
2
10
133.912328
20
197.533936
11
133.307463
21
196.948127
0
LINE
8
boundary
62
5
39
2
10
133.307463
20
196.948127
11
132.657804
21
196.417022
0
LINE
8
boundary
62
5
39
2
10
132.657804
20
196.417022
11
131.967479
21
195.942927
0
LINE
8
boundary
62
5
39
2
10
131.967479
20
195.942927
11
131.240424
21
195.528255
0
LINE
8
boundary
62
5
39
2
10
131.240424
20
195.528255
11
130.480670
21
195.175374
0
LINE
8
boundary
62
5
39
2
10
130.480670
20
195.175374
11
129.692200
21
194.886665
0
LINE
8
boundary
62
5
39
2
10
129.692200
20
194.886665
11
129.080590
21
194.712680
0
LINE
8
boundary
62
5
39
2
10
129.080590
20
194.712680
11
128.569029
21
194.590141
0
LINE
8
boundary
62
5
39
2
10
128.569029
20
194.590141
11
127.728247
21
194.463069
0
LINE
8
boundary
62
5
39
2
10
127.728247
20
194.463069
11
126.872354
21
194.408158
0
LINE
8
boundary
62
5
39
2
10
126.872354
20
194.408158
11
126.005058
21
194.427176
0
LINE
8
boundary
62
5
39
2
10
126.005058
20
194.427176
11
125.131199
21
194.523565
0
LINE
8
boundary
62
5
39
2
10
125.131199
20
194.523565
11
124.281137
21
194.751484
0
LINE
8
boundary
62
5
39
2
10
124.281137
20
194.751484
11
123.465423
21
195.048110
0
LINE
8
boundary
62
5
39
2
10
123.465423
20
195.048110
11
122.687233
21
195.410206
0
LINE
8
boundary
62
5
39
2
10
122.687233
20
195.410206
11
121.949462
21
195.833881
0
LINE
8
boundary
62
5
39
2
10
121.949462
20
195.833881
11
121.255047
21
196.316021
0
LINE
8
boundary
62
5
39
2
10
121.255047
20
196.316021
11
120.606576
21
196.852169
0
LINE
8
boundary
62
5
39
2
10
120.606576
20
196.852169
11
120.007099
21
197.439140
0
LINE
8
boundary
62
5
39
2
10
120.007099
20
197.439140
11
119.459900
21
198.073614
0
LINE
8
boundary
62
5
39
2
10
119.459900
20
198.073614
11
118.967004
21
198.750674
0
LINE
8
boundary
62
5
39
2
10
118.967004
20
198.750674
11
118.532056
21
199.468344
0
LINE
8
boundary
62
5
39
2
10
118.532056
20
199.468344
11
118.157486
21
200.221479
0
LINE
8
boundary
62
5
39
2
10
118.157486
20
200.221479
11
117.846497
21
201.007576
0
LINE
8
boundary
62
5
39
2
10
117.846497
20
201.007576
11
117.601724
21
201.822147
0
LINE
8
boundary
62
5
39
2
10
117.601724
20
201.822147
11
117.492627
21
202.345402
0
LINE
8
boundary
62
5
39
2
10
117.492627
20
202.345402
11
117.362053
21
203.198886
0
LINE
8
boundary
62
5
39
2
10
117.362053
20
203.198886
11
117.305355
21
204.071623
0
LINE
8
boundary
62
5
39
2
10
117.305355
20
204.071623
11
117.596877
21
206.906667
0
LINE
8
boundary
62
5
39
2
10
117.596877
20
206.906667
11
117.780093
21
208.424134
0
LINE
8
boundary
62
5
39
2
10
117.780093
20
208.424134
11
117.677189
21
209.044874
0
LINE
8
boundary
62
5
39
2
10
117.677189
20
209.044874
11
117.432242
21
209.744040
0
LINE
8
boundary
62
5
39
2
10
117.432242
20
209.744040
11
117.131107
21
210.276567
0
LINE
8
boundary
62
5
39
2
10
117.131107
20
210.276567
11
116.387554
21
210.920202
0
LINE
8
boundary
62
5
39
2
10
116.387554
20
210.920202
11
115.690053
21
211.184952
0
LINE
8
boundary
62
5
39
2
10
115.690053
20
211.184952
11
114.300054
21
211.279825
0
LINE
8
boundary
62
5
39
2
10
114.300054
20
211.279825
11
112.007266
21
211.436317
0
LINE
8
boundary
62
5
39
2
10
112.007266
20
211.436317
11
110.614113
21
211.421800
0
LINE
8
boundary
62
5
39
2
10
110.614113
20
211.421800
11
108.316122
21
211.397854
0
LINE
8
boundary
62
5
39
2
10
108.316122
20
211.397854
11
107.604493
21
211.173586
0
LINE
8
boundary
62
5
39
2
10
107.604493
20
211.173586
11
107.119128
21
210.800409
0
LINE
8
boundary
62
5
39
2
10
107.119128
20
210.800409
11
106.493787
21
210.059867
0
LINE
8
boundary
62
5
39
2
10
106.493787
20
210.059867
11
106.154411
21
209.134298
0
LINE
8
boundary
62
5
39
2
10
106.154411
20
209.134298
11
106.227690
21
206.245780
0
LINE
8
boundary
62
5
39
2
10
106.227690
20
206.245780
11
106.323076
21
204.720204
0
LINE
8
boundary
62
5
39
2
10
106.323076
20
204.720204
11
106.273539
21
204.174707
0
LINE
8
boundary
62
5
39
2
10
106.273539
20
204.174707
11
106.148215
21
203.312614
0
LINE
8
boundary
62
5
39
2
10
106.148215
20
203.312614
11
105.950936
21
202.474713
0
LINE
8
boundary
62
5
39
2
10
105.950936
20
202.474713
11
105.684851
21
201.664503
0
LINE
8
boundary
62
5
39
2
10
105.684851
20
201.664503
11
105.353247
21
200.885803
0
LINE
8
boundary
62
5
39
2
10
105.353247
20
200.885803
11
104.959044
21
200.141872
0
LINE
8
boundary
62
5
39
2
10
104.959044
20
200.141872
11
104.505149
21
199.435677
0
LINE
8
boundary
62
5
39
2
10
104.505149
20
199.435677
11
103.994987
21
198.771334
0
LINE
8
boundary
62
5
39
2
10
103.994987
20
198.771334
11
103.431738
21
198.152535
0
LINE
8
boundary
62
5
39
2
10
103.431738
20
198.152535
11
102.818294
21
197.582263
0
LINE
8
boundary
62
5
39
2
10
102.818294
20
197.582263
11
102.157592
21
197.063953
0
LINE
8
boundary
62
5
39
2
10
102.157592
20
197.063953
11
101.453101
21
196.601504
0
LINE
8
boundary
62
5
39
2
10
101.453101
20
196.601504
11
100.707756
21
196.197979
0
LINE
8
boundary
62
5
39
2
10
100.707756
20
196.197979
11
99.924542
21
195.856970
0
LINE
8
boundary
62
5
39
2
10
99.924542
20
195.856970
11
99.106529
21
195.581938
0
LINE
8
boundary
62
5
39
2
10
99.106529
20
195.581938
11
98.467962
21
195.420097
0
LINE
8
boundary
62
5
39
2
10
98.467962
20
195.420097
11
97.931842
21
195.308602
0
LINE
8
boundary
62
5
39
2
10
97.931842
20
195.308602
11
97.053169
21
195.263094
0
LINE
8
boundary
62
5
39
2
10
97.053169
20
195.263094
11
96.185870
21
195.293528
0
LINE
8
boundary
62
5
39
2
10
96.185870
20
195.293528
11
95.333662
21
195.397105
0
LINE
8
boundary
62
5
39
2
10
95.333662
20
195.397105
11
94.501037
21
195.572138
0
LINE
8
boundary
62
5
39
2
10
94.501037
20
195.572138
11
93.691575
21
195.815903
0
LINE
8
boundary
62
5
39
2
10
93.691575
20
195.815903
11
92.909261
21
196.125478
0
LINE
8
boundary
62
5
39
2
10
92.909261
20
196.125478
11
92.157880
21
196.498775
0
LINE
8
boundary
62
5
39
2
10
92.157880
20
196.498775
11
91.441083
21
196.932293
0
LINE
8
boundary
62
5
39
2
10
91.441083
20
196.932293
11
90.763228
21
197.424411
0
LINE
8
boundary
62
5
39
2
10
90.763228
20
197.424411
11
90.127850
21
197.972416
0
LINE
8
boundary
62
5
39
2
10
90.127850
20
197.972416
11
89.538986
21
198.573365
0
LINE
8
boundary
62
5
39
2
10
89.538986
20
198.573365
11
89.000158
21
199.224561
0
LINE
8
boundary
62
5
39
2
10
89.000158
20
199.224561
11
88.515598
21
199.923697
0
LINE
8
boundary
62
5
39
2
10
88.515598
20
199.923697
11
88.089232
21
200.668622
0
LINE
8
boundary
62
5
39
2
10
88.089232
20
200.668622
11
87.724566
21
201.455901
0
LINE
8
boundary
62
5
39
2
10
87.724566
20
201.455901
11
87.425920
21
202.283934
0
LINE
8
boundary
62
5
39
2
10
87.425920
20
202.283934
11
86.939890
21
204.757845
0
LINE
8
boundary
62
5
39
2
10
86.939890
20
204.757845
11
86.645235
21
206.257650
0
LINE
8
boundary
62
5
39
2
10
86.645235
20
206.257650
11
86.179901
21
207.154709
0
LINE
8
boundary
62
5
39
2
10
86.179901
20
207.154709
11
85.455806
21
207.818905
0
LINE
8
boundary
62
5
39
2
10
85.455806
20
207.818905
11
84.549344
21
208.200872
0
LINE
8
boundary
62
5
39
2
10
84.549344
20
208.200872
11
83.804152
21
208.237609
0
LINE
8
boundary
62
5
39
2
10
83.804152
20
208.237609
11
82.452976
21
207.898116
0
LINE
8
boundary
62
5
39
2
10
82.452976
20
207.898116
11
80.224227
21
207.338126
0
LINE
8
boundary
62
5
39
2
10
80.224227
20
207.338126
11
78.046094
21
206.605562
0
LINE
8
boundary
62
5
39
2
10
78.046094
20
206.605562
11
76.725604
21
206.161447
0
LINE
8
boundary
62
5
39
2
10
76.725604
20
206.161447
11
76.118312
21
205.728022
0
LINE
8
boundary
62
5
39
2
10
76.118312
20
205.728022
11
75.771828
21
205.223074
0
LINE
8
boundary
62
5
39
2
10
75.771828
20
205.223074
11
75.405743
21
204.325459
0
LINE
8
boundary
62
5
39
2
10
75.405743
20
204.325459
11
75.369003
21
203.340384
0
LINE
8
boundary
62
5
39
2
10
75.369003
20
203.340384
11
75.966206
21
201.539226
0
LINE
8
boundary
62
5
39
2
10
75.966206
20
201.539226
11
76.893435
21
199.194721
0
LINE
8
boundary
62
5
39
2
10
76.893435
20
199.194721
11
77.015002
21
198.660583
0
LINE
8
boundary
62
5
39
2
10
77.015002
20
198.660583
11
77.162037
21
197.801885
0
LINE
8
boundary
62
5
39
2
10
77.162037
20
197.801885
11
77.233203
21
196.944066
0
LINE
8
boundary
62
5
39
2
10
77.233203
20
196.944066
11
77.230596
21
196.091322
0
LINE
8
boundary
62
5
39
2
10
77.230596
20
196.091322
11
77.155870
21
195.248064
0
LINE
8
boundary
62
5
39
2
10
77.155870
20
195.248064
11
77.011027
21
194.418489
0
LINE
8
boundary
62
5
39
2
10
77.011027
20
194.418489
11
76.797535
21
193.607010
0
LINE
8
boundary
62
5
39
2
10
76.797535
20
193.607010
11
76.517579
21
192.817808
0
LINE
8
boundary
62
5
39
2
10
76.517579
20
192.817808
11
76.173207
21
192.054988
0
LINE
8
boundary
62
5
39
2
10
76.173207
20
192.054988
11
75.766052
21
191.322912
0
LINE
8
boundary
62
5
39
2
10
75.766052
20
191.322912
11
75.297759
21
190.625987
0
LINE
8
boundary
62
5
39
2
10
75.297759
20
190.625987
11
74.770722
21
189.968257
0
LINE
8
boundary
62
5
39
2
10
74.770722
20
189.968257
11
74.186622
21
189.354007
0
LINE
8
boundary
62
5
39
2
10
74.186622
20
189.354007
11
73.546882
21
188.787748
0
LINE
8
boundary
62
5
39
2
10
73.546882
20
188.787748
11
72.853895
21
188.273526
0
LINE
8
boundary
62
5
39
2
10
72.853895
20
188.273526
11
72.109719
21
187.815450
0
LINE
8
boundary
62
5
39
2
10
72.109719
20
187.815450
11
71.309972
21
187.454562
0
LINE
8
boundary
62
5
39
2
10
71.309972
20
187.454562
11
70.684865
21
187.245315
0
LINE
8
boundary
62
5
39
2
10
70.684865
20
187.245315
11
70.165423
21
187.096390
0
LINE
8
boundary
62
5
39
2
10
70.165423
20
187.096390
11
69.323213
21
186.931912
0
LINE
8
boundary
62
5
39
2
10
69.323213
20
186.931912
11
68.477194
21
186.841175
0
LINE
8
boundary
62
5
39
2
10
68.477194
20
186.841175
11
67.631921
21
186.822830
0
LINE
8
boundary
62
5
39
2
10
67.631921
20
186.822830
11
66.792050
21
186.875624
0
LINE
8
boundary
62
5
39
2
10
66.792050
20
186.875624
11
65.962164
21
186.998192
0
LINE
8
boundary
62
5
39
2
10
65.962164
20
186.998192
11
65.146261
21
187.189493
0
LINE
8
boundary
62
5
39
2
10
65.146261
20
187.189493
11
64.349559
21
187.447972
0
LINE
8
boundary
62
5
39
2
10
64.349559
20
187.447972
11
63.575996
21
187.772464
0
LINE
8
boundary
62
5
39
2
10
63.575996
20
187.772464
11
62.830319
21
188.161894
0
LINE
8
boundary
62
5
39
2
10
62.830319
20
188.161894
11
62.116419
21
188.615049
0
LINE
8
boundary
62
5
39
2
10
62.116419
20
188.615049
11
61.439590
21
189.130487
0
LINE
8
boundary
62
5
39
2
10
61.439590
20
189.130487
11
60.804286
21
189.706601
0
LINE
8
boundary
62
5
39
2
10
60.804286
20
189.706601
11
60.214079
21
190.342969
0
LINE
8
boundary
62
5
39
2
10
60.214079
20
190.342969
11
59.674132
21
191.037910
0
LINE
8
boundary
62
5
39
2
10
59.674132
20
191.037910
11
58.930382
21
192.373318
0
LINE
8
boundary
62
5
39
2
10
58.930382
20
192.373318
11
57.703574
21
194.576059
0
LINE
8
boundary
62
5
39
2
10
57.703574
20
194.576059
11
56.983635
21
195.285447
0
LINE
8
boundary
62
5
39
2
10
56.983635
20
195.285447
11
56.089866
21
195.693421
0
LINE
8
boundary
62
5
39
2
10
56.089866
20
195.693421
11
55.109992
21
195.776770
0
LINE
8
boundary
62
5
39
2
10
55.109992
20
195.776770
11
54.389967
21
195.581130
0
LINE
8
boundary
62
5
39
2
10
54.389967
20
195.581130
11
52.443101
21
194.360045
0
LINE
8
boundary
62
5
39
2
10
52.443101
20
194.360045
11
51.262817
21
193.619764
0
LINE
8
boundary
62
5
39
2
10
51.262817
20
193.619764
11
49.417792
21
192.249637
0
LINE
8
boundary
62
5
39
2
10
49.417792
20
192.249637
11
48.299248
21
191.418999
0
LINE
8
boundary
62
5
39
2
10
48.299248
20
191.418999
11
47.855250
21
190.819445
0
LINE
8
boundary
62
5
39
2
10
47.855250
20
190.819445
11
47.682112
21
190.232182
0
LINE
8
boundary
62
5
39
2
10
47.682112
20
190.232182
11
47.611360
21
189.265338
0
LINE
8
boundary
62
5
39
2
10
47.611360
20
189.265338
11
47.782866
21
188.544631
0
LINE
8
boundary
62
5
39
2
10
47.782866
20
188.544631
11
48.031551
21
187.966650
0
LINE
8
boundary
62
5
39
2
10
48.031551
20
187.966650
11
49.005386
21
186.788550
0
LINE
8
boundary
62
5
39
2
10
49.005386
20
186.788550
11
50.611716
21
184.845287
0
LINE
8
boundary
62
5
39
2
10
50.611716
20
184.845287
11
51.062288
21
184.089799
0
LINE
8
boundary
62
5
39
2
10
51.062288
20
184.089799
11
51.440379
21
183.308875
0
LINE
8
boundary
62
5
39
2
10
51.440379
20
183.308875
11
51.746197
21
182.507040
0
LINE
8
boundary
62
5
39
2
10
51.746197
20
182.507040
11
51.891815
21
181.997834
0
LINE
8
boundary
62
5
39
2
10
51.891815
20
181.997834
11
52.081116
21
181.172846
0
LINE
8
boundary
62
5
39
2
10
52.081116
20
181.172846
11
52.199348
21
180.339259
0
LINE
8
boundary
62
5
39
2
10
52.199348
20
180.339259
11
52.247343
21
179.501377
0
LINE
8
boundary
62
5
39
2
10
52.247343
20
179.501377
11
52.224968
21
178.664334
0
LINE
8
boundary
62
5
39
2
10
52.224968
20
178.664334
11
52.133141
21
177.832437
0
LINE
8
boundary
62
5
39
2
10
52.133141
20
177.832437
11
51.972060
21
177.010393
0
LINE
8
boundary
62
5
39
2
10
51.972060
20
177.010393
11
51.741946
21
176.202962
0
LINE
8
boundary
62
5
39
2
10
51.741946
20
176.202962
11
51.444095
21
175.414421
0
LINE
8
boundary
62
5
39
2
10
51.444095
20
175.414421
11
51.078136
21
174.649830
0
LINE
8
boundary
62
5
39
2
10
51.078136
20
174.649830
11
50.644786
21
173.913653
0
LINE
8
boundary
62
5
39
2
10
50.644786
20
173.913653
11
50.144629
21
173.210423
0
LINE
8
boundary
62
5
39
2
10
50.144629
20
173.210423
11
49.578129
21
172.544820
0
LINE
8
boundary
62
5
39
2
10
49.578129
20
172.544820
11
48.929240
21
171.954407
0
LINE
8
boundary
62
5
39
2
10
48.929240
20
171.954407
11
48.223306
21
171.443160
0
LINE
8
boundary
62
5
39
2
10
48.223306
20
171.443160
11
47.484298
21
171.000698
0
LINE
8
boundary
62
5
39
2
10
47.484298
20
171.000698
11
46.717461
21
170.627046
0
LINE
8
boundary
62
5
39
2
10
46.717461
20
170.627046
11
45.927517
21
170.322323
0
LINE
8
boundary
62
5
39
2
10
45.927517
20
170.322323
11
45.318913
21
170.138025
0
LINE
8
boundary
62
5
39
2
10
45.318913
20
170.138025
11
44.811897
21
170.007507
0
LINE
8
boundary
62
5
39
2
10
44.811897
20
170.007507
11
43.984626
21
169.867576
0
LINE
8
boundary
62
5
39
2
10
43.984626
20
169.867576
11
43.149830
21
169.797405
0
LINE
8
boundary
62
5
39
2
10
43.149830
20
169.797405
11
42.312118
21
169.797065
0
LINE
8
boundary
62
5
39
2
10
42.312118
20
169.797065
11
41.476092
21
169.866621
0
LINE
8
boundary
62
5
39
2
10
41.476092
20
169.866621
11
40.646533
21
170.006509
0
LINE
8
boundary
62
5
39
2
10
40.646533
20
170.006509
11
39.827445
21
170.217047
0
LINE
8
boundary
62
5
39
2
10
39.827445
20
170.217047
11
39.024753
21
170.497968
0
LINE
8
boundary
62
5
39
2
10
39.024753
20
170.497968
11
38.241798
21
170.849803
0
LINE
8
boundary
62
5
39
2
10
38.241798
20
170.849803
11
37.483951
21
171.272658
0
LINE
8
boundary
62
5
39
2
10
37.483951
20
171.272658
11
36.755828
21
171.766603
0
LINE
8
boundary
62
5
39
2
10
36.755828
20
171.766603
11
35.635758
21
172.806865
0
LINE
8
boundary
62
5
39
2
10
35.635758
20
172.806865
11
33.788215
21
174.522765
0
LINE
8
boundary
62
5
39
2
10
33.788215
20
174.522765
11
32.884959
21
174.974642
0
LINE
8
boundary
62
5
39
2
10
32.884959
20
174.974642
11
31.907935
21
175.086862
0
LINE
8
boundary
62
5
39
2
10
31.907935
20
175.086862
11
30.950468
21
174.863197
0
LINE
8
boundary
62
5
39
2
10
30.950468
20
174.863197
11
30.326337
21
174.454649
0
LINE
8
boundary
62
5
39
2
10
30.326337
20
174.454649
11
28.852027
21
172.691716
0
LINE
8
boundary
62
5
39
2
10
28.852027
20
172.691716
11
27.958229
21
171.622941
0
LINE
8
boundary
62
5
39
2
10
27.958229
20
171.622941
11
26.626834
21
169.749757
0
LINE
8
boundary
62
5
39
2
10
26.626834
20
169.749757
11
25.819678
21
168.614142
0
LINE
8
boundary
62
5
39
2
10
25.819678
20
168.614142
11
25.582949
21
167.906655
0
LINE
8
boundary
62
5
39
2
10
25.582949
20
167.906655
11
25.599486
21
167.294698
0
LINE
8
boundary
62
5
39
2
10
25.599486
20
167.294698
11
25.743838
21
166.577889
0
LINE
8
boundary
62
5
39
2
10
25.743838
20
166.577889
11
25.965408
21
166.007478
0
LINE
8
boundary
62
5
39
2
10
25.965408
20
166.007478
11
26.632114
21
165.247991
0
LINE
8
boundary
62
5
39
2
10
26.632114
20
165.247991
11
27.922443
21
164.428420
0
LINE
8
boundary
62
5
39
2
10
27.922443
20
164.428420
11
30.050827
21
163.076547
0
LINE
8
boundary
62
5
39
2
10
30.050827
20
163.076547
11
30.712640
21
162.497432
0
LINE
8
boundary
62
5
39
2
10
30.712640
20
162.497432
11
31.313208
21
161.871679
0
LINE
8
boundary
62
5
39
2
10
31.313208
20
161.871679
11
31.851801
21
161.203495
0
LINE
8
boundary
62
5
39
2
10
31.851801
20
161.203495
11
32.326660
21
160.498024
0
LINE
8
boundary
62
5
39
2
10
32.326660
20
160.498024
11
32.737727
21
159.759327
0
LINE
8
boundary
62
5
39
2
10
32.737727
20
159.759327
11
33.083177
21
158.992435
0
LINE
8
boundary
62
5
39
2
10
33.083177
20
158.992435
11
33.362818
21
158.201179
0
LINE
8
boundary
62
5
39
2
10
33.362818
20
158.201179
11
33.494933
21
157.696732
0
LINE
8
boundary
62
5
39
2
10
33.494933
20
157.696732
11
33.664635
21
156.877148
0
LINE
8
boundary
62
5
39
2
10
33.664635
20
156.877148
11
33.765345
21
156.045616
0
LINE
8
boundary
62
5
39
2
10
33.765345
20
156.045616
11
33.796176
21
155.206601
0
LINE
8
boundary
62
5
39
2
10
33.796176
20
155.206601
11
33.756514
21
154.364558
0
LINE
8
boundary
62
5
39
2
10
33.756514
20
154.364558
11
33.644972
21
153.524245
0
LINE
8
boundary
62
5
39
2
10
33.644972
20
153.524245
11
33.460408
21
152.690193
0
LINE
8
boundary
62
5
39
2
10
33.460408
20
152.690193
11
33.201807
21
151.866974
0
LINE
8
boundary
62
5
39
2
10
33.201807
20
151.866974
11
32.868678
21
151.058916
0
LINE
8
boundary
62
5
39
2
10
32.868678
20
151.058916
11
32.433896
21
150.296832
0
LINE
8
boundary
62
5
39
2
10
32.433896
20
150.296832
11
31.920355
21
149.592435
0
LINE
8
boundary
62
5
39
2
10
31.920355
20
149.592435
11
31.354454
21
148.943278
0
LINE
8
boundary
62
5
39
2
10
31.354454
20
148.943278
11
30.740998
21
148.350841
0
LINE
8
boundary
62
5
39
2
10
30.740998
20
148.350841
11
30.083691
21
147.817021
0
LINE
8
boundary
62
5
39
2
10
30.083691
20
147.817021
11
29.387585
21
147.343100
0
LINE
8
boundary
62
5
39
2
10
29.387585
20
147.343100
11
28.656494
21
146.930958
0
LINE
8
boundary
62
5
39
2
10
28.656494
20
146.930958
11
27.894889
21
146.582198
0
LINE
8
boundary
62
5
39
2
10
27.894889
20
146.582198
11
27.107842
21
146.298093
0
LINE
8
boundary
62
5
39
2
10
27.107842
20
146.298093
11
26.499067
21
146.127667
0
LINE
8
boundary
62
5
39
2
10
26.499067
20
146.127667
11
25.990459
21
146.008105
0
LINE
8
boundary
62
5
39
2
10
25.990459
20
146.008105
11
25.157949
21
145.885034
0
LINE
8
boundary
62
5
39
2
10
25.157949
20
145.885034
11
24.314283
21
145.832034
0
LINE
8
boundary
62
5
39
2
10
24.314283
20
145.832034
11
23.464246
21
145.850902
0
LINE
8
boundary
62
5
39
2
10
23.464246
20
145.850902
11
22.611164
21
145.943549
0
LINE
8
boundary
62
5
39
2
10
22.611164
20
145.943549
11
21.759694
21
146.111535
0
LINE
8
boundary
62
5
39
2
10
21.759694
20
146.111535
11
20.914460
21
146.356367
0
LINE
8
boundary
62
5
39
2
10
20.914460
20
146.356367
11
19.527782
21
146.999615
0
LINE
8
boundary
62
5
39
2
10
19.527782
20
146.999615
11
17.240474
21
148.060645
0
LINE
8
boundary
62
5
39
2
10
17.240474
20
148.060645
11
16.241163
21
148.211439
0
LINE
8
boundary
62
5
39
2
10
16.241163
20
148.211439
11
15.277859
21
148.016066
0
LINE
8
boundary
62
5
39
2
10
15.277859
20
148.016066
11
14.753939
21
147.699476
0
LINE
8
boundary
62
5
39
2
10
14.753939
20
147.699476
11
14.145220
21
147.145567
0
LINE
8
boundary
62
5
39
2
10
14.145220
20
147.145567
11
13.111460
21
144.793868
0
LINE
8
boundary
62
5
39
2
10
13.111460
20
144.793868
11
12.591732
21
143.501194
0
LINE
8
boundary
62
5
39
2
10
12.591732
20
143.501194
11
11.904426
21
141.308221
0
LINE
8
boundary
62
5
39
2
10
11.904426
20
141.308221
11
11.487747
21
139.978734
0
LINE
8
boundary
62
5
39
2
10
11.487747
20
139.978734
11
11.481042
21
139.232808
0
LINE
8
boundary
62
5
39
2
10
11.481042
20
139.232808
11
11.809977
21
138.306217
0
LINE
8
boundary
62
5
39
2
10
11.809977
20
138.306217
11
12.432149
21
137.544593
0
LINE
8
boundary
62
5
39
2
10
12.432149
20
137.544593
11
13.300322
21
137.028512
0
LINE
8
boundary
62
5
39
2
10
13.300322
20
137.028512
11
14.780775
21
136.647776
0
LINE
8
boundary
62
5
39
2
10
14.780775
20
136.647776
11
17.222766
21
136.019756
0
LINE
8
boundary
62
5
39
2
10
17.222766
20
136.019756
11
18.031522
21
135.673375
0
LINE
8
boundary
62
5
39
2
10
18.031522
20
135.673375
11
18.795922
21
135.263902
0
LINE
8
boundary
62
5
39
2
10
18.795922
20
135.263902
11
19.514762
21
134.794733
0
LINE
8
boundary
62
5
39
2
10
19.514762
20
134.794733
11
20.184552
21
134.270592
0
LINE
8
boundary
62
5
39
2
10
20.184552
20
134.270592
11
20.803485
21
133.695131
0
LINE
8
boundary
62
5
39
2
10
20.803485
20
133.695131
11
21.369214
21
133.072441
0
LINE
8
boundary
62
5
39
2
10
21.369214
20
133.072441
11
21.879327
21
132.406431
0
LINE
8
boundary
62
5
39
2
10
21.879327
20
132.406431
11
22.331586
21
131.701365
0
LINE
8
boundary
62
5
39
2
10
22.331586
20
131.701365
11
22.723471
21
130.960979
0
LINE
8
boundary
62
5
39
2
10
22.723471
20
130.960979
11
23.052707
21
130.189483
0
LINE
8
boundary
62
5
39
2
10
23.052707
20
130.189483
11
23.316847
21
129.390723
0
LINE
8
boundary
62
5
39
2
10
23.316847
20
129.390723
11
23.439386
21
128.879162
0
LINE
8
boundary
62
5
39
2
10
23.439386
20
128.879162
11
23.592786
21
128.045585
0
LINE
8
boundary
62
5
39
2
10
23.592786
20
128.045585
11
23.674933
21
127.195395
0
LINE
8
boundary
62
5
39
2
10
23.674933
20
127.195395
11
23.683819
21
126.332403
0
LINE
8
boundary
62
5
39
2
10
23.683819
20
126.332403
11
23.616632
21
125.461021
0
LINE
8
boundary
62
5
39
2
10
23.616632
20
125.461021
11
23.438357
21
124.601977
0
LINE
8
boundary
62
5
39
2
10
23.438357
20
124.601977
11
23.167662
21
123.773299
0
LINE
8
boundary
62
5
39
2
10
23.167662
20
123.773299
11
22.830277
21
122.980946
0
LINE
8
boundary
62
5
39
2
10
22.830277
20
122.980946
11
22.429844
21
122.227920
0
LINE
8
boundary
62
5
39
2
10
22.429844
20
122.227920
11
21.969770
21
121.517141
0
LINE
8
boundary
62
5
39
2
10
21.969770
20
121.517141
11
21.454006
21
120.851330
0
LINE
8
boundary
62
5
39
2
10
21.454006
20
120.851330
11
20.886218
21
120.233361
0
LINE
8
boundary
62
5
39
2
10
20.886218
20
120.233361
11
20.269674
21
119.666430
0
LINE
8
boundary
62
5
39
2
10
20.269674
20
119.666430
11
19.608687
21
119.153038
0
LINE
8
boundary
62
5
39
2
10
19.608687
20
119.153038
11
18.906344
21
118.696219
0
LINE
8
boundary
62
5
39
2
10
18.906344
20
118.696219
11
18.166595
21
118.298861
0
LINE
8
boundary
62
5
39
2
10
18.166595
20
118.298861
11
17.392938
21
117.963874
0
LINE
8
boundary
62
5
39
2
10
17.392938
20
117.963874
11
16.589114
21
117.694109
0
LINE
8
boundary
62
5
39
2
10
16.589114
20
117.694109
11
15.964448
21
117.535584
0
LINE
8
boundary
62
5
39
2
10
15.964448
20
117.535584
11
15.441193
21
117.426487
0
LINE
8
boundary
62
5
39
2
10
15.441193
20
117.426487
11
14.579824
21
117.322990
0
LINE
8
boundary
62
5
39
2
10
14.579824
20
117.322990
11
13.700195
21
117.294664
0
LINE
8
boundary
62
5
39
2
10
13.700195
20
117.294664
11
12.182727
21
117.477880
0
LINE
8
boundary
62
5
39
2
10
12.182727
20
117.477880
11
9.679682
21
117.780093
0
LINE
8
boundary
62
5
39
2
10
9.679682
20
117.780093
11
8.682621
21
117.614804
0
LINE
8
boundary
62
5
39
2
10
8.682621
20
117.614804
11
8.150093
21
117.313669
0
LINE
8
boundary
62
5
39
2
10
8.150093
20
117.313669
11
7.426542
21
116.668194
0
LINE
8
boundary
62
5
39
2
10
7.426542
20
116.668194
11
7.018790
21
115.953312
0
LINE
8
boundary
62
5
39
2
10
7.018790
20
115.953312
11
6.762373
21
113.397265
0
LINE
8
boundary
62
5
39
2
10
6.762373
20
113.397265
11
6.667500
21
112.007266
0
LINE
8
boundary
62
5
39
2
10
6.667500
20
112.007266
11
6.691446
21
109.709275
0
LINE
8
boundary
62
5
39
2
10
6.691446
20
109.709275
11
6.705963
21
108.316122
0
LINE
8
boundary
62
5
39
2
10
6.705963
20
108.316122
11
6.930231
21
107.604494
0
LINE
8
boundary
62
5
39
2
10
6.930231
20
107.604494
11
7.529645
21
106.824876
0
LINE
8
boundary
62
5
39
2
10
7.529645
20
106.824876
11
8.355746
21
106.293065
0
LINE
8
boundary
62
5
39
2
10
8.355746
20
106.293065
11
9.341617
21
106.070352
0
LINE
8
boundary
62
5
39
2
10
9.341617
20
106.070352
11
10.867193
21
106.165738
0
LINE
8
boundary
62
5
39
2
10
10.867193
20
106.165738
11
13.383613
21
106.323076
0
LINE
8
boundary
62
5
39
2
10
13.383613
20
106.323076
11
14.259817
21
106.243507
0
LINE
8
boundary
62
5
39
2
10
14.259817
20
106.243507
11
15.113355
21
106.090445
0
LINE
8
boundary
62
5
39
2
10
15.113355
20
106.090445
11
15.941776
21
105.866359
0
LINE
8
boundary
62
5
39
2
10
15.941776
20
105.866359
11
16.740946
21
105.574812
0
LINE
8
boundary
62
5
39
2
10
16.740946
20
105.574812
11
17.507235
21
105.218923
0
LINE
8
boundary
62
5
39
2
10
17.507235
20
105.218923
11
18.237612
21
104.801492
0
LINE
8
boundary
62
5
39
2
10
18.237612
20
104.801492
11
18.929146
21
104.325491
0
LINE
8
boundary
62
5
39
2
10
18.929146
20
104.325491
11
19.577005
21
103.794619
0
LINE
8
boundary
62
5
39
2
10
19.577005
20
103.794619
11
20.178187
21
103.211741
0
LINE
8
boundary
62
5
39
2
10
20.178187
20
103.211741
11
20.729720
21
102.579768
0
LINE
8
boundary
62
5
39
2
10
20.729720
20
102.579768
11
21.227888
21
101.901648
0
LINE
8
boundary
62
5
39
2
10
21.227888
20
101.901648
11
21.668683
21
101.181170
0
LINE
8
boundary
62
5
39
2
10
21.668683
20
101.181170
11
22.049613
21
100.420750
0
LINE
8
boundary
62
5
39
2
10
22.049613
20
100.420750
11
22.366420
21
99.623717
0
LINE
8
boundary
62
5
39
2
10
22.366420
20
99.623717
11
22.616126
21
98.792984
0
LINE
8
boundary
62
5
39
2
10
22.616126
20
98.792984
11
22.727621
21
98.256864
0
LINE
8
boundary
62
5
39
2
10
22.727621
20
98.256864
11
22.823547
21
97.384808
0
LINE
8
boundary
62
5
39
2
10
22.823547
20
97.384808
11
22.821776
21
96.513216
0
LINE
8
boundary
62
5
39
2
10
22.821776
20
96.513216
11
22.745805
21
95.655312
0
LINE
8
boundary
62
5
39
2
10
22.745805
20
95.655312
11
22.597742
21
94.815296
0
LINE
8
boundary
62
5
39
2
10
22.597742
20
94.815296
11
22.379918
21
93.997091
0
LINE
8
boundary
62
5
39
2
10
22.379918
20
93.997091
11
22.095182
21
93.204530
0
LINE
8
boundary
62
5
39
2
10
22.095182
20
93.204530
11
21.745936
21
92.441474
0
LINE
8
boundary
62
5
39
2
10
21.745936
20
92.441474
11
21.335147
21
91.711624
0
LINE
8
boundary
62
5
39
2
10
21.335147
20
91.711624
11
20.865147
21
91.019071
0
LINE
8
boundary
62
5
39
2
10
20.865147
20
91.019071
11
20.338236
21
90.367661
0
LINE
8
boundary
62
5
39
2
10
20.338236
20
90.367661
11
19.757269
21
89.761241
0
LINE
8
boundary
62
5
39
2
10
19.757269
20
89.761241
11
19.125038
21
89.203528
0
LINE
8
boundary
62
5
39
2
10
19.125038
20
89.203528
11
18.443996
21
88.698486
0
LINE
8
boundary
62
5
39
2
10
18.443996
20
88.698486
11
17.716353
21
88.250156
0
LINE
8
boundary
62
5
39
2
10
17.716353
20
88.250156
11
16.945059
21
87.862202
0
LINE
8
boundary
62
5
39
2
10
16.945059
20
87.862202
11
16.132408
21
87.538638
0
LINE
8
boundary
62
5
39
2
10
16.132408
20
87.538638
11
14.320078
21
87.131265
0
LINE
8
boundary
62
5
39
2
10
14.320078
20
87.131265
11
11.846168
21
86.645235
0
LINE
8
boundary
62
5
39
2
10
11.846168
20
86.645235
11
11.287686
21
86.355533
0
LINE
8
boundary
62
5
39
2
10
11.287686
20
86.355533
11
10.535600
21
85.729102
0
LINE
8
boundary
62
5
39
2
10
10.535600
20
85.729102
11
10.047111
21
84.891471
0
LINE
8
boundary
62
5
39
2
10
10.047111
20
84.891471
11
9.880073
21
84.085411
0
LINE
8
boundary
62
5
39
2
10
9.880073
20
84.085411
11
10.426198
21
81.575403
0
LINE
8
boundary
62
5
39
2
10
10.426198
20
81.575403
11
10.765691
21
80.224227
0
LINE
8
boundary
62
5
39
2
10
10.765691
20
80.224227
11
11.209806
21
78.903737
0
LINE
8
boundary
62
5
39
2
10
11.209806
20
78.903737
11
11.942369
21
76.725604
0
LINE
8
boundary
62
5
39
2
10
11.942369
20
76.725604
11
12.375795
21
76.118312
0
LINE
8
boundary
62
5
39
2
10
12.375795
20
76.118312
11
13.186866
21
75.561773
0
LINE
8
boundary
62
5
39
2
10
13.186866
20
75.561773
11
14.136949
21
75.311151
0
LINE
8
boundary
62
5
39
2
10
14.136949
20
75.311151
11
15.143238
21
75.404075
0
LINE
8
boundary
62
5
39
2
10
15.143238
20
75.404075
11
17.487743
21
76.331304
0
LINE
8
boundary
62
5
39
2
10
17.487743
20
76.331304
11
18.909097
21
76.893435
0
LINE
8
boundary
62
5
39
2
10
18.909097
20
76.893435
11
19.767054
21
77.088701
0
LINE
8
boundary
62
5
39
2
10
19.767054
20
77.088701
11
20.626202
21
77.206496
0
LINE
8
boundary
62
5
39
2
10
20.626202
20
77.206496
11
21.483215
21
77.249395
0
LINE
8
boundary
62
5
39
2
10
21.483215
20
77.249395
11
22.333371
21
77.219199
0
LINE
8
boundary
62
5
39
2
10
22.333371
20
77.219199
11
23.172446
21
77.117477
0
LINE
8
boundary
62
5
39
2
10
23.172446
20
77.117477
11
23.996262
21
76.946492
0
LINE
8
boundary
62
5
39
2
10
23.996262
20
76.946492
11
24.800262
21
76.707230
0
LINE
8
boundary
62
5
39
2
10
24.800262
20
76.707230
11
25.580491
21
76.402603
0
LINE
8
boundary
62
5
39
2
10
25.580491
20
76.402603
11
26.332758
21
76.034136
0
LINE
8
boundary
62
5
39
2
10
26.332758
20
76.034136
11
27.052594
21
75.603526
0
LINE
8
boundary
62
5
39
2
10
27.052594
20
75.603526
11
27.735628
21
75.112388
0
LINE
8
boundary
62
5
39
2
10
27.735628
20
75.112388
11
28.378017
21
74.563587
0
LINE
8
boundary
62
5
39
2
10
28.378017
20
74.563587
11
28.975209
21
73.958088
0
LINE
8
boundary
62
5
39
2
10
28.975209
20
73.958088
11
29.522714
21
73.297589
0
LINE
8
boundary
62
5
39
2
10
29.522714
20
73.297589
11
30.016758
21
72.584907
0
LINE
8
boundary
62
5
39
2
10
30.016758
20
72.584907
11
30.453030
21
71.821637
0
LINE
8
boundary
62
5
39
2
10
30.453030
20
71.821637
11
30.768215
21
70.999776
0
LINE
8
boundary
62
5
39
2
10
30.768215
20
70.999776
11
30.917141
21
70.480334
0
LINE
8
boundary
62
5
39
2
10
30.917141
20
70.480334
11
31.109826
21
69.641090
0
LINE
8
boundary
62
5
39
2
10
31.109826
20
69.641090
11
31.228394
21
68.796508
0
LINE
8
boundary
62
5
39
2
10
31.228394
20
68.796508
11
31.274063
21
67.950953
0
LINE
8
boundary
62
5
39
2
10
31.274063
20
67.950953
11
31.248119
21
67.109043
0
LINE
8
boundary
62
5
39
2
10
31.248119
20
67.109043
11
31.151886
21
66.275389
0
LINE
8
boundary
62
5
39
2
10
31.151886
20
66.275389
11
30.986527
21
65.454209
0
LINE
8
boundary
62
5
39
2
10
30.986527
20
65.454209
11
30.753403
21
64.650260
0
LINE
8
boundary
62
5
39
2
10
30.753403
20
64.650260
11
30.453826
21
63.867963
0
LINE
8
boundary
62
5
39
2
10
30.453826
20
63.867963
11
30.088906
21
63.111761
0
LINE
8
boundary
62
5
39
2
10
30.088906
20
63.111761
11
29.659802
21
62.385867
0
LINE
8
boundary
62
5
39
2
10
29.659802
20
62.385867
11
29.167872
21
61.695047
0
LINE
8
boundary
62
5
39
2
10
29.167872
20
61.695047
11
28.614659
21
61.044069
0
LINE
8
boundary
62
5
39
2
10
28.614659
20
61.044069
11
28.001033
21
60.436842
0
LINE
8
boundary
62
5
39
2
10
28.001033
20
60.436842
11
27.328199
21
59.877925
0
LINE
8
boundary
62
5
39
2
10
27.328199
20
59.877925
11
24.863166
21
58.447324
0
LINE
8
boundary
62
5
39
2
10
24.863166
20
58.447324
11
23.527758
21
57.703574
0
LINE
8
boundary
62
5
39
2
10
23.527758
20
57.703574
11
23.086115
21
57.255363
0
LINE
8
boundary
62
5
39
2
10
23.086115
20
57.255363
11
22.564378
21
56.427203
0
LINE
8
boundary
62
5
39
2
10
22.564378
20
56.427203
11
22.358505
21
55.479827
0
LINE
8
boundary
62
5
39
2
10
22.358505
20
55.479827
11
22.448846
21
54.661727
0
LINE
8
boundary
62
5
39
2
10
22.448846
20
54.661727
11
23.262968
21
53.209683
0
LINE
8
boundary
62
5
39
2
10
23.262968
20
53.209683
11
24.484053
21
51.262817
0
LINE
8
boundary
62
5
39
2
10
24.484053
20
51.262817
11
25.314691
21
50.144273
0
LINE
8
boundary
62
5
39
2
10
25.314691
20
50.144273
11
26.684817
21
48.299248
0
LINE
8
boundary
62
5
39
2
10
26.684817
20
48.299248
11
27.284372
21
47.855250
0
LINE
8
boundary
62
5
39
2
10
27.284372
20
47.855250
11
28.227662
21
47.577148
0
LINE
8
boundary
62
5
39
2
10
28.227662
20
47.577148
11
29.208785
21
47.632101
0
LINE
8
boundary
62
5
39
2
10
29.208785
20
47.632101
11
29.786767
21
47.880786
0
LINE
8
boundary
62
5
39
2
10
29.786767
20
47.880786
11
32.080430
21
49.637881
0
LINE
8
boundary
62
5
39
2
10
32.080430
20
49.637881
11
33.258530
21
50.611716
0
LINE
8
boundary
62
5
39
2
10
33.258530
20
50.611716
11
33.728873
21
50.892228
0
LINE
8
boundary
62
5
39
2
10
33.728873
20
50.892228
11
34.500196
21
51.297675
0
LINE
8
boundary
62
5
39
2
10
34.500196
20
51.297675
11
35.294139
21
51.630772
0
LINE
8
boundary
62
5
39
2
10
35.294139
20
51.630772
11
35.905482
21
51.834477
0
LINE
8
boundary
62
5
39
2
10
35.905482
20
51.834477
11
36.414688
21
51.980095
0
LINE
8
boundary
62
5
39
2
10
36.414688
20
51.980095
11
37.243966
21
52.142360
0
LINE
8
boundary
62
5
39
2
10
37.243966
20
52.142360
11
38.080165
21
52.233898
0
LINE
8
boundary
62
5
39
2
10
38.080165
20
52.233898
11
38.919068
21
52.255493
0
LINE
8
boundary
62
5
39
2
10
38.919068
20
52.255493
11
39.754984
21
52.206462
0
LINE
8
boundary
62
5
39
2
10
39.754984
20
52.206462
11
40.584444
21
52.088690
0
LINE
8
boundary
62
5
39
2
10
40.584444
20
52.088690
11
41.401991
21
51.901353
0
LINE
8
boundary
62
5
39
2
10
41.401991
20
51.901353
11
42.203291
21
51.645306
0
LINE
8
boundary
62
5
39
2
10
42.203291
20
51.645306
11
42.984097
21
51.322111
0
LINE
8
boundary
62
5
39
2
10
42.984097
20
51.322111
11
43.738857
21
50.930227
0
LINE
8
boundary
62
5
39
2
10
43.738857
20
50.930227
11
44.463768
21
50.471738
0
LINE
8
boundary
62
5
39
2
10
44.463768
20
50.471738
11
45.153853
21
49.946320
0
LINE
8
boundary
62
5
39
2
10
45.153853
20
49.946320
11
45.804614
21
49.354914
0
LINE
8
boundary
62
5
39
2
10
45.804614
20
49.354914
11
46.358442
21
48.671175
0
LINE
8
boundary
62
5
39
2
10
46.358442
20
48.671175
11
46.843874
21
47.951785
0
LINE
8
boundary
62
5
39
2
10
46.843874
20
47.951785
11
47.260285
21
47.200886
0
LINE
8
boundary
62
5
39
2
10
47.260285
20
47.200886
11
47.608015
21
46.424385
0
LINE
8
boundary
62
5
39
2
10
47.608015
20
46.424385
11
47.886665
21
45.626291
0
LINE
8
boundary
62
5
39
2
10
47.886665
20
45.626291
11
48.017183
21
45.119275
0
LINE
8
boundary
62
5
39
2
10
48.017183
20
45.119275
11
48.183426
21
44.296864
0
LINE
8
boundary
62
5
39
2
10
48.183426
20
44.296864
11
48.279927
21
43.464908
0
LINE
8
boundary
62
5
39
2
10
48.279927
20
43.464908
11
48.306624
21
42.628297
0
LINE
8
boundary
62
5
39
2
10
48.306624
20
42.628297
11
48.263449
21
41.791634
0
LINE
8
boundary
62
5
39
2
10
48.263449
20
41.791634
11
48.150106
21
40.959635
0
LINE
8
boundary
62
5
39
2
10
48.150106
20
40.959635
11
47.966234
21
40.136595
0
LINE
8
boundary
62
5
39
2
10
47.966234
20
40.136595
11
47.711877
21
39.327714
0
LINE
8
boundary
62
5
39
2
10
47.711877
20
39.327714
11
47.386807
21
38.537309
0
LINE
8
boundary
62
5
39
2
10
47.386807
20
38.537309
11
46.990757
21
37.769986
0
LINE
8
boundary
62
5
39
2
10
46.990757
20
37.769986
11
46.523644
21
37.030645
0
LINE
8
boundary
62
5
39
2
10
46.523644
20
37.030645
11
44.621313
21
34.908285
0
LINE
8
boundary
62
5
39
2
10
44.621313
20
34.908285
11
43.581052
21
33.788215
0
LINE
8
boundary
62
5
39
2
10
43.581052
20
33.788215
11
43.299727
21
33.225876
0
LINE
8
boundary
62
5
39
2
10
43.299727
20
33.225876
11
43.059310
21
32.276694
0
LINE
8
boundary
62
5
39
2
10
43.059310
20
32.276694
11
43.156202
21
31.311846
0
LINE
8
boundary
62
5
39
2
10
43.156202
20
31.311846
11
43.394819
21
30.714902
0
LINE
8
boundary
62
5
39
2
10
43.394819
20
30.714902
11
44.717943
21
29.432539
0
LINE
8
boundary
62
5
39
2
10
44.717943
20
29.432539
11
46.480876
21
27.958229
0
LINE
8
boundary
62
5
39
2
10
46.480876
20
27.958229
11
47.616491
21
27.151073
0
LINE
8
boundary
62
5
39
2
10
47.616491
20
27.151073
11
49.489675
21
25.819678
0
LINE
8
boundary
62
5
39
2
10
49.489675
20
25.819678
11
50.197162
21
25.582949
0
LINE
8
boundary
62
5
39
2
10
50.197162
20
25.582949
11
51.180118
21
25.609511
0
LINE
8
boundary
62
5
39
2
10
51.180118
20
25.609511
11
51.750528
21
25.831082
0
LINE
8
boundary
62
5
39
2
10
51.750528
20
25.831082
11
52.569171
21
26.380478
0
LINE
8
boundary
62
5
39
2
10
52.569171
20
26.380478
11
54.207699
21
28.760497
0
LINE
8
boundary
62
5
39
2
10
54.207699
20
28.760497
11
55.027270
21
30.050827
0
LINE
8
boundary
62
5
39
2
10
55.027270
20
30.050827
11
55.387809
21
30.462851
0
LINE
8
boundary
62
5
39
2
10
55.387809
20
30.462851
11
55.995959
21
31.086535
0
LINE
8
boundary
62
5
39
2
10
55.995959
20
31.086535
11
56.648128
21
31.648519
0
LINE
8
boundary
62
5
39
2
10
56.648128
20
31.648519
11
57.339526
21
32.147433
0
LINE
8
boundary
62
5
39
2
10
57.339526
20
32.147433
11
58.065682
21
32.582577
0
LINE
8
boundary
62
5
39
2
10
58.065682
20
32.582577
11
58.821932
21
32.952793
0
LINE
8
boundary
62
5
39
2
10
58.821932
20
32.952793
11
59.603993
21
33.257273
0
LINE
8
boundary
62
5
39
2
10
59.603993
20
33.257273
11
60.208458
21
33.442913
0
LINE
8
boundary
62
5
39
2
10
60.208458
20
33.442913
11
60.712905
21
33.575028
0
LINE
8
boundary
62
5
39
2
10
60.712905
20
33.575028
11
61.538138
21
33.718959
0
LINE
8
boundary
62
5
39
2
10
61.538138
20
33.718959
11
62.373489
21
33.793466
0
LINE
8
boundary
62
5
39
2
10
62.373489
20
33.793466
11
63.214724
21
33.797819
0
LINE
8
boundary
62
5
39
2
10
63.214724
20
33.797819
11
64.057257
21
33.731472
0
LINE
8
boundary
62
5
39
2
10
64.057257
20
33.731472
11
64.896224
21
33.592531
0
LINE
8
boundary
62
5
39
2
10
64.896224
20
33.592531
11
65.727297
21
33.380309
0
LINE
8
boundary
62
5
39
2
10
65.727297
20
33.380309
11
66.545754
21
33.093591
0
LINE
8
boundary
62
5
39
2
10
66.545754
20
33.093591
11
67.347509
21
32.732325
0
LINE
8
boundary
62
5
39
2
10
67.347509
20
32.732325
11
68.085542
21
32.252974
0
LINE
8
boundary
62
5
39
2
10
68.085542
20
32.252974
11
68.769546
21
31.718706
0
LINE
8
boundary
62
5
39
2
10
68.769546
20
31.718706
11
69.397578
21
31.133626
0
LINE
8
boundary
62
5
39
2
10
69.397578
20
31.133626
11
69.968435
21
30.502967
0
LINE
8
boundary
62
5
39
2
10
69.968435
20
30.502967
11
70.479801
21
29.829505
0
LINE
8
boundary
62
5
39
2
10
70.479801
20
29.829505
11
70.931022
21
29.119672
0
LINE
8
boundary
62
5
39
2
10
70.931022
20
29.119672
11
71.319472
21
28.375694
0
LINE
8
boundary
62
5
39
2
10
71.319472
20
28.375694
11
71.644170
21
27.603402
0
LINE
8
boundary
62
5
39
2
10
71.644170
20
27.603402
11
71.903665
21
26.807410
0
LINE
8
boundary
62
5
39
2
10
71.903665
20
26.807410
11
72.023228
21
26.298802
0
LINE
8
boundary
62
5
39
2
10
72.023228
20
26.298802
11
72.172332
21
25.472164
0
LINE
8
boundary
62
5
39
2
10
72.172332
20
25.472164
11
72.251779
21
24.632709
0
LINE
8
boundary
62
5
39
2
10
72.251779
20
24.632709
11
72.260036
21
23.785077
0
LINE
8
boundary
62
5
39
2
10
72.260036
20
23.785077
11
72.195236
21
22.933144
0
LINE
8
boundary
62
5
39
2
10
72.195236
20
22.933144
11
72.055685
21
22.081065
0
LINE
8
boundary
62
5
39
2
10
72.055685
20
22.081065
11
71.839857
21
21.233477
0
LINE
8
boundary
62
5
39
2
10
71.839857
20
21.233477
11
70.686420
21
18.627151
0
LINE
8
boundary
62
5
39
2
10
70.686420
20
18.627151
11
70.043172
21
17.240474
0
LINE
8
boundary
62
5
39
2
10
70.043172
20
17.240474
11
69.949292
21
16.618334
0
LINE
8
boundary
62
5
39
2
10
69.949292
20
16.618334
11
70.014011
21
15.641440
0
LINE
8
boundary
62
5
39
2
10
70.014011
20
15.641440
11
70.279683
21
14.960234
0
LINE
8
boundary
62
5
39
2
10
70.279683
20
14.960234
11
70.596273
21
14.436313
0
LINE
8
boundary
62
5
39
2
10
70.596273
20
14.436313
11
71.177698
21
13.968745
0
LINE
8
boundary
62
5
39
2
10
71.177698
20
13.968745
11
72.470372
21
13.449017
0
LINE
8
boundary
62
5
39
2
10
72.470372
20
13.449017
11
74.602622
21
12.591732
0
LINE
8
boundary
62
5
39
2
10
74.602622
20
12.591732
11
75.932109
21
12.175054
0
LINE
8
boundary
62
5
39
2
10
75.932109
20
12.175054
11
78.125083
21
11.487747
0
LINE
8
boundary
62
5
39
2
10
78.125083
20
11.487747
11
78.871009
21
11.481043
0
LINE
8
boundary
62
5
39
2
10
78.871009
20
11.481043
11
79.447875
21
11.685827
0
LINE
8
boundary
62
5
39
2
10
79.447875
20
11.685827
11
80.271763
21
12.197321
0
LINE
8
boundary
62
5
39
2
10
80.271763
20
12.197321
11
80.880520
21
12.972646
0
LINE
8
boundary
62
5
39
2
10
80.880520
20
12.972646
11
81.703324
21
15.742313
0
LINE
8
boundary
62
5
39
2
10
81.703324
20
15.742313
11
82.084060
21
17.222766
0
LINE
8
boundary
62
5
39
2
10
82.084060
20
17.222766
11
82.299707
21
17.726272
0
LINE
8
boundary
62
5
39
2
10
82.299707
20
17.726272
11
82.685367
21
18.507413
0
LINE
8
boundary
62
5
39
2
10
82.685367
20
18.507413
11
83.132005
21
19.243449
0
LINE
8
boundary
62
5
39
2
10
83.132005
20
19.243449
11
83.635398
21
19.931752
0
LINE
8
boundary
62
5
39
2
10
83.635398
20
19.931752
11
84.191489
21
20.569880
0
LINE
8
boundary
62
5
39
2
10
84.191489
20
20.569880
11
84.796353
21
21.155690
0
LINE
8
boundary
62
5
39
2
10
84.796353
20
21.155690
11
85.446013
21
21.686795
0
LINE
8
boundary
62
5
39
2
10
85.446013
20
21.686795
11
86.136337
21
22.160889
0
LINE
8
boundary
62
5
39
2
10
86.136337
20
22.160889
11
86.863393
21
22.575561
0
LINE
8
boundary
62
5
39
2
10
86.863393
20
22.575561
11
87.623146
21
22.928443
0
LINE
8
boundary
62
5
39
2
10
87.623146
20
22.928443
11
88.411617
21
23.217152
0
LINE
8
boundary
62
5
39
2
10
88.411617
20
23.217152
11
89.023227
21
23.391136
0
LINE
8
boundary
62
5
39
2
10
89.023227
20
23.391136
11
89.534788
21
23.513676
0
LINE
8
boundary
62
5
39
2
10
89.534788
20
23.513676
11
90.375569
21
23.640747
0
LINE
8
boundary
62
5
39
2
10
90.375569
20
23.640747
11
91.231462
21
23.695659
0
LINE
8
boundary
62
5
39
2
10
91.231462
20
23.695659
11
92.098759
21
23.676641
0
LINE
8
boundary
62
5
39
2
10
92.098759
20
23.676641
11
92.972617
21
23.580252
0
LINE
8
boundary
62
5
39
2
10
92.972617
20
23.580252
11
93.822679
21
23.352333
0
LINE
8
boundary
62
5
39
2
10
93.822679
20
23.352333
11
94.638393
21
23.055706
0
LINE
8
boundary
62
5
39
2
10
94.638393
20
23.055706
11
95.416584
21
22.693611
0
LINE
8
boundary
62
5
39
2
10
95.416584
20
22.693611
11
96.154355
21
22.269936
0
LINE
8
boundary
62
5
39
2
10
96.154355
20
22.269936
11
96.848769
21
21.787795
0
LINE
8
boundary
62
5
39
2
10
96.848769
20
21.787795
11
97.497241
21
21.251648
0
LINE
8
boundary
62
5
39
2
10
97.497241
20
21.251648
11
98.096718
21
20.664677
0
LINE
8
boundary
62
5
39
2
10
98.096718
20
20.664677
11
98.643917
21
20.030203
0
LINE
8
boundary
62
5
39
2
10
98.643917
20
20.030203
11
99.136812
21
19.353143
0
LINE
8
boundary
62
5
39
2
10
99.136812
20
19.353143
11
99.571761
21
18.635473
0
LINE
8
boundary
62
5
39
2
10
99.571761
20
18.635473
11
99.946331
21
17.882338
0
LINE
8
boundary
62
5
39
2
10
99.946331
20
17.882338
11
100.257319
21
17.096241
0
LINE
8
boundary
62
5
39
2
10
100.257319
20
17.096241
11
100.502093
21
16.281670
0
LINE
8
boundary
62
5
39
2
10
100.502093
20
16.281670
11
100.611190
21
15.758415
0
LINE
8
boundary
62
5
39
2
10
100.611190
20
15.758415
11
100.741764
21
14.904931
0
LINE
8
boundary
62
5
39
2
10
100.741764
20
14.904931
11
100.798461
21
14.032194
0
LINE
8
boundary
62
5
39
2
10
100.798461
20
14.032194
11
100.506940
21
11.197150
0
LINE
8
boundary
62
5
39
2
10
100.506940
20
11.197150
11
100.323724
21
9.679682
0
LINE
8
boundary
62
5
39
2
10
100.323724
20
9.679682
11
100.426628
21
9.058943
0
LINE
8
boundary
62
5
39
2
10
100.426628
20
9.058943
11
100.671575
21
8.359777
0
LINE
8
boundary
62
5
39
2
10
100.671575
20
8.359777
11
100.972710
21
7.827249
0
LINE
8
boundary
62
5
39
2
10
100.972710
20
7.827249
11
101.716263
21
7.183614
0
LINE
8
boundary
62
5
39
2
10
101.716263
20
7.183614
11
102.413764
21
6.918865
0
LINE
8
boundary
62
5
39
2
10
102.413764
20
6.918865
11
103.803763
21
6.823992
0
LINE
8
boundary
62
5
39
2
10
103.803763
20
6.823992
11
106.096551
21
6.667500
0
LINE
8
boundary
62
5
39
2
10
106.096551
20
6.667500
11
107.489704
21
6.682017
0
LINE
8
boundary
62
5
39
2
10
107.489704
20
6.682017
11
109.787695
21
6.705963
0
LINE
8
boundary
62
5
39
2
10
109.787695
20
6.705963
11
110.499323
21
6.930231
0
LINE
8
boundary
62
5
39
2
10
110.499323
20
6.930231
11
110.984689
21
7.303408
0
LINE
8
boundary
62
5
39
2
10
110.984689
20
7.303408
11
111.610030
21
8.043950
0
LINE
8
boundary
62
5
39
2
10
111.610030
20
8.043950
11
111.949406
21
8.969519
0
LINE
8
boundary
62
5
39
2
10
111.949406
20
8.969519
11
111.876127
21
11.858037
0
LINE
8
boundary
62
5
39
2
10
111.876127
20
11.858037
11
111.780741
21
13.383613
0
LINE
8
boundary
62
5
39
2
10
111.780741
20
13.383613
11
111.830278
21
13.929110
0
LINE
8
boundary
62
5
39
2
10
111.830278
20
13.929110
11
111.955602
21
14.791202
0
LINE
8
boundary
62
5
39
2
10
111.955602
20
14.791202
11
112.152881
21
15.629104
0
LINE
8
boundary
62
5
39
2
10
112.152881
20
15.629104
11
112.418966
21
16.439314
0
LINE
8
boundary
62
5
39
2
10
112.418966
20
16.439314
11
112.750570
21
17.218014
0
LINE
8
boundary
62
5
39
2
10
112.750570
20
17.218014
11
113.144773
21
17.961945
0
LINE
8
boundary
62
5
39
2
10
113.144773
20
17.961945
11
113.598668
21
18.668140
0
LINE
8
boundary
62
5
39
2
10
113.598668
20
18.668140
11
114.108830
21
19.332482
0
LINE
8
boundary
62
5
39
2
10
114.108830
20
19.332482
11
114.672079
21
19.951282
0
LINE
8
boundary
62
5
39
2
10
114.672079
20
19.951282
11
115.285523
21
20.521554
0
LINE
8
boundary
62
5
39
2
10
115.285523
20
20.521554
11
115.946225
21
21.039864
0
LINE
8
boundary
62
5
39
2
10
115.946225
20
21.039864
11
116.650716
21
21.502313
0
LINE
8
boundary
62
5
39
2
10
116.650716
20
21.502313
11
117.396060
21
21.905838
0
LINE
8
boundary
62
5
39
2
10
117.396060
20
21.905838
11
118.179275
21
22.246847
0
LINE
8
boundary
62
5
39
2
10
118.179275
20
22.246847
11
118.997288
21
22.521879
0
LINE
8
boundary
62
5
39
2
10
118.997288
20
22.521879
11
119.635855
21
22.683719
0
LINE
8
boundary
62
5
39
2
10
119.635855
20
22.683719
11
120.171975
21
22.795215
0
LINE
8
boundary
62
5
39
2
10
120.171975
20
22.795215
11
121.050647
21
22.840723
0
LINE
8
boundary
62
5
39
2
10
121.050647
20
22.840723
11
121.917946
21
22.810289
0
LINE
8
boundary
62
5
39
2
10
121.917946
20
22.810289
11
122.770155
21
22.706711
0
LINE
8
boundary
62
5
39
2
10
122.770155
20
22.706711
11
123.602779
21
22.531679
0
LINE
8
boundary
62
5
39
2
10
123.602779
20
22.531679
11
124.412242
21
22.287914
0
LINE
8
boundary
62
5
39
2
10
124.412242
20
22.287914
11
125.194556
21
21.978338
0
LINE
8
boundary
62
5
39
2
10
125.194556
20
21.978338
11
125.945937
21
21.605042
0
LINE
8
boundary
62
5
39
2
10
125.945937
20
21.605042
11
126.662734
21
21.171524
0
LINE
8
boundary
62
5
39
2
10
126.662734
20
21.171524
11
127.340589
21
20.679406
0
LINE
8
boundary
62
5
39
2
10
127.340589
20
20.679406
11
127.975967
21
20.131401
0
LINE
8
boundary
62
5
39
2
10
127.975967
20
20.131401
11
128.564831
21
19.530452
0
LINE
8
boundary
62
5
39
2
10
128.564831
20
19.530452
11
129.103659
21
18.879256
0
LINE
8
boundary
62
5
39
2
10
129.103659
20
18.879256
11
129.588219
21
18.180120
0
LINE
8
boundary
62
5
39
2
10
129.588219
20
18.180120
11
130.014585
21
17.435195
0
LINE
8
boundary
62
5
39
2
10
130.014585
20
17.435195
11
130.379251
21
16.647915
0
LINE
8
boundary
62
5
39
2
10
130.379251
20
16.647915
11
130.677897
21
15.819883
0
LINE
8
boundary
62
5
39
2
10
130.677897
20
15.819883
11
131.163927
21
13.345972
0
LINE
8
boundary
62
5
39
2
10
131.163927
20
13.345972
11
131.458581
21
11.846167
0
LINE
8
boundary
62
5
39
2
10
131.458581
20
11.846167
11
131.923915
21
10.949107
0
LINE
8
boundary
62
5
39
2
10
131.923915
20
10.949107
11
132.648011
21
10.284912
0
LINE
8
boundary
62
5
39
2
10
132.648011
20
10.284912
11
133.554472
21
9.902945
0
LINE
8
boundary
62
5
39
2
10
133.554472
20
9.902945
11
134.299665
21
9.866207
0
LINE
8
boundary
62
5
39
2
10
134.299665
20
9.866207
11
135.650840
21
10.205701
0
LINE
8
boundary
62
5
39
2
10
135.650840
20
10.205701
11
137.879590
21
10.765691
0
LINE
8
annotation
62
1
39
211
10
190.959435
20
109.051908
11
190.959435
21
110.480658
0
LINE
8
annotation
62
1
39
211
10
27.144382
20
109.051908
11
28.573132
21
109.051908
0
LINE
8
annotation
62
1
39
211
10
109.051908
20
190.959435
11
109.051908
21
192.388185
0
LINE
8
annotation
62
1
39
211
10
109.051908
20
190.959435
11
109.051908
21
192.388185
0
LINE
8
annotation
62
1
39
211
10
109.051908
20
192.388185
11
109.051908
21
190.959435
0
LINE
8
annotation
62
1
39
211
10
109.051908
20
190.959435
11
110.480658
21
190.959435
0
LINE
8
annotation
62
1
39
211
10
109.051908
20
27.144382
11
109.051908
21
25.715632
0
LINE
8
annotation
62
1
39
211
10
93.619443
20
142.305495
11
100.167974
21
142.305495
0
LINE
8
annotation
62
1
39
211
10
100.167974
20
142.305495
11
100.167974
21
142.305495
0
LINE
8
annotation
62
1
39
211
10
100.167974
20
142.305495
11
101.345743
21
142.411148
0
LINE
8
annotation
62
1
39
211
10
101.345743
20
142.411148
11
102.453983
21
142.715648
0
LINE
8
annotation
62
1
39
211
10
102.453983
20
142.715648
11
103.474261
21
143.200304
0
LINE
8
annotation
62
1
39
211
10
103.474261
20
143.200304
11
104.388144
21
143.846423
0
LINE
8
annotation
62
1
39
211
10
104.388144
20
143.846423
11
105.177201
21
144.635314
0
LINE
8
annotation
62
1
39
211
10
105.177201
20
144.635314
11
105.822998
21
145.548287
0
LINE
8
annotation
62
1
39
211
10
105.822998
20
145.548287
11
106.307103
21
146.566650
0
LINE
8
annotation
62
1
39
211
10
106.307103
20
146.566650
11
106.611083
21
147.671711
0
LINE
8
annotation
62
1
39
211
10
106.611083
20
147.671711
11
106.716505
21
148.844779
0
LINE
8
annotation
62
1
39
211
10
106.716505
20
148.844779
11
106.716505
21
152.123668
0
LINE
8
annotation
62
1
39
211
10
106.716505
20
152.123668
11
106.716505
21
152.123668
0
LINE
8
annotation
62
1
39
211
10
106.716505
20
152.123668
11
106.611083
21
153.296250
0
LINE
8
annotation
62
1
39
211
10
106.611083
20
153.296250
11
106.307103
21
154.401052
0
LINE
8
annotation
62
1
39
211
10
106.307103
20
154.401052
11
105.822998
21
155.419338
0
LINE
8
annotation
62
1
39
211
10
105.822998
20
155.419338
11
105.177201
21
156.332372
0
LINE
8
annotation
62
1
39
211
10
105.177201
20
156.332372
11
104.388144
21
157.121416
0
LINE
8
annotation
62
1
39
211
10
104.388144
20
157.121416
11
103.474261
21
157.767733
0
LINE
8
annotation
62
1
39
211
10
103.474261
20
157.767733
11
102.453983
21
158.252586
0
LINE
8
annotation
62
1
39
211
10
102.453983
20
158.252586
11
101.345743
21
158.557238
0
LINE
8
annotation
62
1
39
211
10
101.345743
20
158.557238
11
100.167974
21
158.662953
0
LINE
8
annotation
62
1
39
211
10
100.167974
20
158.662953
11
96.889085
21
158.662953
0
LINE
8
annotation
62
1
39
211
10
96.889085
20
158.662953
11
100.167974
21
158.662953
0
LINE
8
annotation
62
1
39
211
10
100.167974
20
158.662953
11
100.167974
21
158.662953
0
LINE
8
annotation
62
1
39
211
10
100.167974
20
158.662953
11
101.345743
21
158.768693
0
LINE
8
annotation
62
1
39
211
10
101.345743
20
158.768693
11
102.453983
21
159.073523
0
LINE
8
annotation
62
1
39
211
10
102.453983
20
159.073523
11
103.474261
21
159.558858
0
LINE
8
annotation
62
1
39
211
10
103.474261
20
159.558858
11
104.388144
21
160.206113
0
LINE
8
annotation
62
1
39
211
10
104.388144
20
160.206113
11
105.177201
21
160.996705
0
LINE
8
annotation
62
1
39
211
10
105.177201
20
160.996705
11
105.822998
21
161.912047
0
LINE
8
annotation
62
1
39
211
10
105.822998
20
161.912047
11
106.307103
21
162.933555
0
LINE
8
annotation
62
1
39
211
10
106.307103
20
162.933555
11
106.611083
21
164.042645
0
LINE
8
annotation
62
1
39
211
10
106.611083
20
164.042645
11
106.716505
21
165.220731
0
LINE
8
annotation
62
1
39
211
10
106.716505
20
165.220731
11
106.716505
21
165.220731
0
LINE
8
annotation
62
1
39
211
10
106.716505
20
165.220731
11
106.611083
21
166.393312
0
LINE
8
annotation
62
1
39
211
10
106.611083
20
166.393312
11
106.307103
21
167.498114
0
LINE
8
annotation
62
1
39
211
10
106.307103
20
167.498114
11
105.822998
21
168.516401
0
LINE
8
annotation
62
1
39
211
10
105.822998
20
168.516401
11
105.177201
21
169.429435
0
LINE
8
annotation
62
1
39
211
10
105.177201
20
169.429435
11
104.388144
21
170.218478
0
LINE
8
annotation
62
1
39
211
10
104.388144
20
170.218478
11
103.474261
21
170.864795
0
LINE
8
annotation
62
1
39
211
10
103.474261
20
170.864795
11
102.453983
21
171.349649
0
LINE
8
annotation
62
1
39
211
10
102.453983
20
171.349649
11
101.345743
21
171.654301
0
LINE
8
annotation
62
1
39
211
10
101.345743
20
171.654301
11
100.167974
21
171.760015
0
LINE
8
annotation
62
1
39
211
10
100.167974
20
171.760015
11
93.619443
21
171.760015
0
LINE
8
annotation
62
1
39
211
10
130.874416
20
142.304330
11
117.777353
21
142.304330
0
LINE
8
annotation
62
1
39
211
10
117.777353
20
142.304330
11
129.879468
21
161.787182
0
LINE
8
annotation
62
1
39
211
10
129.879468
20
161.787182
11
129.879468
21
161.787182
0
LINE
8
annotation
62
1
39
211
10
129.879468
20
161.787182
11
129.893936
21
161.805084
0
LINE
8
annotation
62
1
39
211
10
129.893936
20
161.805084
11
129.907810
21
161.823139
0
LINE
8
annotation
62
1
39
211
10
129.907810
20
161.823139
11
129.921181
21
161.841498
0
LINE
8
annotation
62
1
39
211
10
129.921181
20
161.841498
11
129.934142
21
161.860313
0
LINE
8
annotation
62
1
39
211
10
129.934142
20
161.860313
11
129.946783
21
161.879738
0
LINE
8
annotation
62
1
39
211
10
129.946783
20
161.879738
11
129.959196
21
161.899923
0
LINE
8
annotation
62
1
39
211
10
129.959196
20
161.899923
11
129.971471
21
161.921022
0
LINE
8
annotation
62
1
39
211
10
129.971471
20
161.921022
11
129.983701
21
161.943186
0
LINE
8
annotation
62
1
39
211
10
129.983701
20
161.943186
11
129.995977
21
161.966568
0
LINE
8
annotation
62
1
39
211
10
129.995977
20
161.966568
11
129.995977
21
161.966568
0
LINE
8
annotation
62
1
39
211
10
129.995977
20
161.966568
11
130.495671
21
163.039452
0
LINE
8
annotation
62
1
39
211
10
130.495671
20
163.039452
11
130.787583
21
164.151591
0
LINE
8
annotation
62
1
39
211
10
130.787583
20
164.151591
11
130.878868
21
165.277855
0
LINE
8
annotation
62
1
39
211
10
130.878868
20
165.277855
11
130.776680
21
166.393114
0
LINE
8
annotation
62
1
39
211
10
130.776680
20
166.393114
11
130.488172
21
167.472239
0
LINE
8
annotation
62
1
39
211
10
130.488172
20
167.472239
11
130.020498
21
168.490099
0
LINE
8
annotation
62
1
39
211
10
130.020498
20
168.490099
11
129.380812
21
169.421565
0
LINE
8
annotation
62
1
39
211
10
129.380812
20
169.421565
11
128.576268
21
170.241508
0
LINE
8
annotation
62
1
39
211
10
128.576268
20
170.241508
11
127.614020
21
170.924796
0
LINE
8
annotation
62
1
39
211
10
127.614020
20
170.924796
11
127.614020
21
170.924796
0
LINE
8
annotation
62
1
39
211
10
127.614020
20
170.924796
11
126.538153
21
171.417389
0
LINE
8
annotation
62
1
39
211
10
126.538153
20
171.417389
11
125.424309
21
171.704804
0
LINE
8
annotation
62
1
39
211
10
125.424309
20
171.704804
11
124.297391
21
171.793509
0
LINE
8
annotation
62
1
39
211
10
124.297391
20
171.793509
11
123.182299
21
171.689974
0
LINE
8
annotation
62
1
39
211
10
123.182299
20
171.689974
11
122.103936
21
171.400667
0
LINE
8
annotation
62
1
39
211
10
122.103936
20
171.400667
11
121.087202
21
170.932057
0
LINE
8
annotation
62
1
39
211
10
121.087202
20
170.932057
11
120.156999
21
170.290613
0
LINE
8
annotation
62
1
39
211
10
120.156999
20
170.290613
11
119.338229
21
169.482804
0
LINE
8
annotation
62
1
39
211
10
119.338229
20
169.482804
11
118.655792
21
168.515100
0
LINE
8
annotation
62
1
39
211
10
118.655792
20
168.515100
11
117.795847
21
166.865484
0
LINE
8
frame
62
5
39
2
10
0.000000
20
0.000000
11
215.900000
21
0.000000
0
LINE
8
frame
62
5
39
2
10
215.900000
20
0.000000
11
215.900000
21
279.400000
0
LINE
8
frame
62
5
39
2
10
215.900000
20
279.400000
11
0.000000
21
279.400000
0
LINE
8
frame
62
5
39
2
10
0.000000
20
279.400000
11
0.000000
21
0.000000
0
ENDSEC
0
EOF
