0
SECTION
2
HEADER
9
$ACADVER
1
AC1009
0
ENDSEC
0
SECTION
2
TABLES
0
TABLE
2
VPORT
70
1
0
VPORT
2
ACTIVE
70
0
10
0.0
20
0.0
11
0.0
21
0.0
12
0.0
22
0.0
13
0.0
23
0.0
14
0.0
24
0.0
15
0.0
25
0.0
16
0.0
26
0.0
36
0.0
17
0.0
27
0.0
37
0.0
40
0.0
41
0.0
42
0.0
43
0.0
44
0.0
50
0.0
51
0.0
71
0
72
1000
73
1
74
3
75
0
76
0
77
0
78
0
0
ENDTAB
0
ENDSEC
0
SECTION
2
ENTITIES
0
LINE
8
hole
62
5
39
2
10
18.445992
20
71.826782
11
19.017492
21
71.826782
0
LINE
8
hole
62
5
39
2
10
19.017492
20
71.826782
11
19.017492
21
72.398282
0
LINE
8
hole
62
5
39
2
10
19.017492
20
72.398282
11
18.445992
21
72.398282
0
LINE
8
hole
62
5
39
2
10
18.445992
20
72.398282
11
18.445992
21
71.826782
0
LINE
8
hole
62
5
39
2
10
71.826782
20
124.182808
11
72.398282
21
124.182808
0
LINE
8
hole
62
5
39
2
10
72.398282
20
124.182808
11
72.398282
21
124.754308
0
LINE
8
hole
62
5
39
2
10
72.398282
20
124.754308
11
71.826782
21
124.754308
0
LINE
8
hole
62
5
39
2
10
71.826782
20
124.754308
11
71.826782
21
124.182808
0
LINE
8
hole
62
5
39
2
10
71.826782
20
19.470756
11
72.398282
21
19.470756
0
LINE
8
hole
62
5
39
2
10
72.398282
20
19.470756
11
72.398282
21
20.042256
0
LINE
8
hole
62
5
39
2
10
72.398282
20
20.042256
11
71.826782
21
20.042256
0
LINE
8
hole
62
5
39
2
10
71.826782
20
20.042256
11
71.826782
21
19.470756
0
LINE
8
hole
62
5
39
2
10
125.207573
20
71.826782
11
125.779073
21
71.826782
0
LINE
8
hole
62
5
39
2
10
125.779073
20
71.826782
11
125.779073
21
72.398282
0
LINE
8
hole
62
5
39
2
10
125.779073
20
72.398282
11
125.207573
21
72.398282
0
LINE
8
hole
62
5
39
2
10
125.207573
20
72.398282
11
125.207573
21
71.826782
0
LINE
8
hole
62
5
39
2
10
73.934937
20
52.302293
11
72.583141
21
52.091892
0
LINE
8
hole
62
5
39
2
10
72.583141
20
52.091892
11
68.745576
21
52.505634
0
LINE
8
hole
62
5
39
2
10
68.745576
20
52.505634
11
67.385391
21
52.652280
0
LINE
8
hole
62
5
39
2
10
67.385391
20
52.652280
11
63.785675
21
54.045165
0
LINE
8
hole
62
5
39
2
10
63.785675
20
54.045165
11
62.509793
21
54.538858
0
LINE
8
hole
62
5
39
2
10
62.509793
20
54.538858
11
59.393225
21
56.815937
0
LINE
8
hole
62
5
39
2
10
59.393225
20
56.815937
11
58.288589
21
57.623023
0
LINE
8
hole
62
5
39
2
10
58.288589
20
57.623023
11
55.867571
21
60.629143
0
LINE
8
hole
62
5
39
2
10
55.867571
20
60.629143
11
55.009467
21
61.694632
0
LINE
8
hole
62
5
39
2
10
55.009467
20
61.694632
11
53.449001
21
65.224948
0
LINE
8
hole
62
5
39
2
10
53.449001
20
65.224948
11
52.895909
21
66.476232
0
LINE
8
hole
62
5
39
2
10
52.895909
20
66.476232
11
52.685508
21
67.828028
0
LINE
8
hole
62
5
39
2
10
52.685508
20
67.828028
11
52.091892
21
71.641924
0
LINE
8
hole
62
5
39
2
10
52.091892
20
71.641924
11
52.238538
21
73.002109
0
LINE
8
hole
62
5
39
2
10
52.238538
20
73.002109
11
52.652280
21
76.839674
0
LINE
8
hole
62
5
39
2
10
52.652280
20
76.839674
11
53.145974
21
78.115556
0
LINE
8
hole
62
5
39
2
10
53.145974
20
78.115556
11
54.538858
21
81.715272
0
LINE
8
hole
62
5
39
2
10
54.538858
20
81.715272
11
55.345945
21
82.819907
0
LINE
8
hole
62
5
39
2
10
55.345945
20
82.819907
11
57.623023
21
85.936476
0
LINE
8
hole
62
5
39
2
10
57.623023
20
85.936476
11
58.688512
21
86.794580
0
LINE
8
hole
62
5
39
2
10
58.688512
20
86.794580
11
61.694632
21
89.215598
0
LINE
8
hole
62
5
39
2
10
61.694632
20
89.215598
11
62.945916
21
89.768689
0
LINE
8
hole
62
5
39
2
10
62.945916
20
89.768689
11
66.476232
21
91.329155
0
LINE
8
hole
62
5
39
2
10
66.476232
20
91.329155
11
70.290128
21
91.922772
0
LINE
8
hole
62
5
39
2
10
70.290128
20
91.922772
11
71.641924
21
92.133173
0
LINE
8
hole
62
5
39
2
10
71.641924
20
92.133173
11
76.340462
21
91.626606
0
LINE
8
hole
62
5
39
2
10
76.340462
20
91.626606
11
77.777999
21
91.209692
0
LINE
8
hole
62
5
39
2
10
77.777999
20
91.209692
11
81.277761
21
89.855498
0
LINE
8
hole
62
5
39
2
10
81.277761
20
89.855498
11
84.745290
21
87.472349
0
LINE
8
hole
62
5
39
2
10
84.745290
20
87.472349
11
85.936475
21
86.602041
0
LINE
8
hole
62
5
39
2
10
85.936475
20
86.602041
11
89.128882
21
82.638057
0
LINE
8
hole
62
5
39
2
10
89.128882
20
82.638057
11
90.776064
21
79.000117
0
LINE
8
hole
62
5
39
2
10
90.776064
20
79.000117
11
91.329155
21
77.748833
0
LINE
8
hole
62
5
39
2
10
91.329155
20
77.748833
11
91.539556
21
76.397037
0
LINE
8
hole
62
5
39
2
10
91.539556
20
76.397037
11
92.133173
21
72.583141
0
LINE
8
hole
62
5
39
2
10
92.133173
20
72.583141
11
91.986526
21
71.222955
0
LINE
8
hole
62
5
39
2
10
91.986526
20
71.222955
11
91.572784
21
67.385391
0
LINE
8
hole
62
5
39
2
10
91.572784
20
67.385391
11
91.079091
21
66.109509
0
LINE
8
hole
62
5
39
2
10
91.079091
20
66.109509
11
89.686206
21
62.509793
0
LINE
8
hole
62
5
39
2
10
89.686206
20
62.509793
11
88.879119
21
61.405157
0
LINE
8
hole
62
5
39
2
10
88.879119
20
61.405157
11
86.602041
21
58.288589
0
LINE
8
hole
62
5
39
2
10
86.602041
20
58.288589
11
85.536553
21
57.430484
0
LINE
8
hole
62
5
39
2
10
85.536553
20
57.430484
11
82.530433
21
55.009467
0
LINE
8
hole
62
5
39
2
10
82.530433
20
55.009467
11
81.279149
21
54.456376
0
LINE
8
hole
62
5
39
2
10
81.279149
20
54.456376
11
77.748833
21
52.895910
0
LINE
8
hole
62
5
39
2
10
77.748833
20
52.895910
11
73.934937
21
52.302293
0
LINE
8
boundary
62
5
39
2
10
100.140737
20
12.942946
11
109.051878
21
18.056027
0
LINE
8
boundary
62
5
39
2
10
109.051878
20
18.056027
11
116.976865
21
24.438479
0
LINE
8
boundary
62
5
39
2
10
116.976865
20
24.438479
11
123.948281
21
32.116574
0
LINE
8
boundary
62
5
39
2
10
123.948281
20
32.116574
11
129.513151
21
40.635649
0
LINE
8
boundary
62
5
39
2
10
129.513151
20
40.635649
11
133.770705
21
50.092286
0
LINE
8
boundary
62
5
39
2
10
133.770705
20
50.092286
11
136.430645
21
59.914007
0
LINE
8
boundary
62
5
39
2
10
136.430645
20
59.914007
11
137.557564
21
70.223394
0
LINE
8
boundary
62
5
39
2
10
137.557564
20
70.223394
11
137.052218
21
80.386449
0
LINE
8
boundary
62
5
39
2
10
137.052218
20
80.386449
11
134.938185
21
90.539510
0
LINE
8
boundary
62
5
39
2
10
134.938185
20
90.539510
11
131.317078
21
100.048930
0
LINE
8
boundary
62
5
39
2
10
131.317078
20
100.048930
11
126.169038
21
109.051878
0
LINE
8
boundary
62
5
39
2
10
126.169038
20
109.051878
11
119.786586
21
116.976865
0
LINE
8
boundary
62
5
39
2
10
119.786586
20
116.976865
11
112.108491
21
123.948281
0
LINE
8
boundary
62
5
39
2
10
112.108491
20
123.948281
11
103.589415
21
129.513151
0
LINE
8
boundary
62
5
39
2
10
103.589415
20
129.513151
11
94.132779
21
133.770705
0
LINE
8
boundary
62
5
39
2
10
94.132779
20
133.770705
11
84.311058
21
136.430645
0
LINE
8
boundary
62
5
39
2
10
84.311058
20
136.430645
11
74.001671
21
137.557564
0
LINE
8
boundary
62
5
39
2
10
74.001671
20
137.557564
11
63.838615
21
137.052219
0
LINE
8
boundary
62
5
39
2
10
63.838615
20
137.052219
11
53.685555
21
134.938185
0
LINE
8
boundary
62
5
39
2
10
53.685555
20
134.938185
11
44.176135
21
131.317078
0
LINE
8
boundary
62
5
39
2
10
44.176135
20
131.317078
11
35.173187
21
126.169038
0
LINE
8
boundary
62
5
39
2
10
35.173187
20
126.169038
11
27.248200
21
119.786585
0
LINE
8
boundary
62
5
39
2
10
27.248200
20
119.786585
11
20.276784
21
112.108491
0
LINE
8
boundary
62
5
39
2
10
20.276784
20
112.108491
11
14.711913
21
103.589415
0
LINE
8
boundary
62
5
39
2
10
14.711913
20
103.589415
11
10.454360
21
94.132779
0
LINE
8
boundary
62
5
39
2
10
10.454360
20
94.132779
11
7.794419
21
84.311058
0
LINE
8
boundary
62
5
39
2
10
7.794419
20
84.311058
11
6.667500
21
74.001671
0
LINE
8
boundary
62
5
39
2
10
6.667500
20
74.001671
11
7.172846
21
63.838615
0
LINE
8
boundary
62
5
39
2
10
7.172846
20
63.838615
11
9.286879
21
53.685555
0
LINE
8
boundary
62
5
39
2
10
9.286879
20
53.685555
11
12.907986
21
44.176135
0
LINE
8
boundary
62
5
39
2
10
12.907986
20
44.176135
11
18.056026
21
35.173187
0
LINE
8
boundary
62
5
39
2
10
18.056026
20
35.173187
11
24.438479
21
27.248200
0
LINE
8
boundary
62
5
39
2
10
24.438479
20
27.248200
11
32.116574
21
20.276784
0
LINE
8
boundary
62
5
39
2
10
32.116574
20
20.276784
11
40.635649
21
14.711913
0
LINE
8
boundary
62
5
39
2
10
40.635649
20
14.711913
11
50.092285
21
10.454360
0
LINE
8
boundary
62
5
39
2
10
50.092285
20
10.454360
11
59.914007
21
7.794420
0
LINE
8
boundary
62
5
39
2
10
59.914007
20
7.794420
11
70.223393
21
6.667500
0
LINE
8
boundary
62
5
39
2
10
70.223393
20
6.667500
11
80.386450
21
7.172846
0
LINE
8
boundary
62
5
39
2
10
80.386450
20
7.172846
11
90.539510
21
9.286879
0
LINE
8
boundary
62
5
39
2
10
90.539510
20
9.286879
11
100.048929
21
12.907987
0
LINE
8
boundary
62
5
39
2
10
100.048929
20
12.907987
11
100.140737
21
12.942946
0
LINE
8
annotation
62
1
39
211
10
125.493323
20
72.112532
11
125.493323
21
73.541282
0
LINE
8
annotation
62
1
39
211
10
125.493323
20
72.112532
11
125.493323
21
73.541282
0
LINE
8
annotation
62
1
39
211
10
125.493323
20
73.541282
11
125.493323
21
72.112532
0
LINE
8
annotation
62
1
39
211
10
125.493323
20
72.112532
11
126.922073
21
72.112532
0
LINE
8
annotation
62
1
39
211
10
18.731742
20
72.112532
11
18.731742
21
70.683782
0
LINE
8
annotation
62
1
39
211
10
72.112532
20
124.468558
11
72.112532
21
125.897308
0
LINE
8
annotation
62
1
39
211
10
72.112532
20
124.468558
11
72.112532
21
125.897308
0
LINE
8
annotation
62
1
39
211
10
72.112532
20
125.897308
11
72.112532
21
124.468558
0
LINE
8
annotation
62
1
39
211
10
72.112532
20
124.468558
11
72.112532
21
123.039808
0
LINE
8
annotation
62
1
39
211
10
72.112532
20
19.756506
11
73.541282
21
19.756506
0
LINE
8
annotation
62
1
39
211
10
72.112532
20
19.756506
11
73.541282
21
19.756506
0
LINE
8
annotation
62
1
39
211
10
73.541282
20
19.756506
11
72.112532
21
19.756506
0
LINE
8
annotation
62
1
39
211
10
72.112532
20
19.756506
11
72.112532
21
18.327756
0
LINE
8
annotation
62
1
39
211
10
103.939210
20
62.376610
11
103.939210
21
85.939178
0
LINE
8
annotation
62
1
39
211
10
103.939210
20
85.939178
11
98.700949
21
80.699440
0
LINE
8
annotation
62
1
39
211
10
123.240912
20
62.376419
11
112.776212
21
62.376419
0
LINE
8
annotation
62
1
39
211
10
112.776212
20
62.376419
11
122.445938
21
77.943435
0
LINE
8
annotation
62
1
39
211
10
122.445938
20
77.943435
11
122.445938
21
77.943435
0
LINE
8
annotation
62
1
39
211
10
122.445938
20
77.943435
11
122.457498
21
77.957740
0
LINE
8
annotation
62
1
39
211
10
122.457498
20
77.957740
11
122.468583
21
77.972165
0
LINE
8
annotation
62
1
39
211
10
122.468583
20
77.972165
11
122.479267
21
77.986834
0
LINE
8
annotation
62
1
39
211
10
122.479267
20
77.986834
11
122.489623
21
78.001868
0
LINE
8
annotation
62
1
39
211
10
122.489623
20
78.001868
11
122.499723
21
78.017389
0
LINE
8
annotation
62
1
39
211
10
122.499723
20
78.017389
11
122.509641
21
78.033517
0
LINE
8
annotation
62
1
39
211
10
122.509641
20
78.033517
11
122.519449
21
78.050375
0
LINE
8
annotation
62
1
39
211
10
122.519449
20
78.050375
11
122.529221
21
78.068085
0
LINE
8
annotation
62
1
39
211
10
122.529221
20
78.068085
11
122.539030
21
78.086767
0
LINE
8
annotation
62
1
39
211
10
122.539030
20
78.086767
11
122.539030
21
78.086767
0
LINE
8
annotation
62
1
39
211
10
122.539030
20
78.086767
11
122.938290
21
78.944014
0
LINE
8
annotation
62
1
39
211
10
122.938290
20
78.944014
11
123.171532
21
79.832625
0
LINE
8
annotation
62
1
39
211
10
123.171532
20
79.832625
11
123.244470
21
80.732523
0
LINE
8
annotation
62
1
39
211
10
123.244470
20
80.732523
11
123.162820
21
81.623627
0
LINE
8
annotation
62
1
39
211
10
123.162820
20
81.623627
11
122.932299
21
82.485860
0
LINE
8
annotation
62
1
39
211
10
122.932299
20
82.485860
11
122.558622
21
83.299142
0
LINE
8
annotation
62
1
39
211
10
122.558622
20
83.299142
11
122.047506
21
84.043394
0
LINE
8
annotation
62
1
39
211
10
122.047506
20
84.043394
11
121.404667
21
84.698537
0
LINE
8
annotation
62
1
39
211
10
121.404667
20
84.698537
11
120.635820
21
85.244492
0
LINE
8
annotation
62
1
39
211
10
120.635820
20
85.244492
11
120.635820
21
85.244492
0
LINE
8
annotation
62
1
39
211
10
120.635820
20
85.244492
11
119.776190
21
85.638079
0
LINE
8
annotation
62
1
39
211
10
119.776190
20
85.638079
11
118.886216
21
85.867727
0
LINE
8
annotation
62
1
39
211
10
118.886216
20
85.867727
11
117.985796
21
85.938603
0
LINE
8
annotation
62
1
39
211
10
117.985796
20
85.938603
11
117.094825
21
85.855877
0
LINE
8
annotation
62
1
39
211
10
117.094825
20
85.855877
11
116.233200
21
85.624718
0
LINE
8
annotation
62
1
39
211
10
116.233200
20
85.624718
11
115.420818
21
85.250293
0
LINE
8
annotation
62
1
39
211
10
115.420818
20
85.250293
11
114.677576
21
84.737772
0
LINE
8
annotation
62
1
39
211
10
114.677576
20
84.737772
11
114.023369
21
84.092324
0
LINE
8
annotation
62
1
39
211
10
114.023369
20
84.092324
11
113.478095
21
83.319117
0
LINE
8
annotation
62
1
39
211
10
113.478095
20
83.319117
11
112.790989
21
82.001056
0
LINE
8
frame
62
5
39
2
10
0.000000
20
0.000000
11
215.900000
21
0.000000
0
LINE
8
frame
62
5
39
2
10
215.900000
20
0.000000
11
215.900000
21
279.400000
0
LINE
8
frame
62
5
39
2
10
215.900000
20
279.400000
11
0.000000
21
279.400000
0
LINE
8
frame
62
5
39
2
10
0.000000
20
279.400000
11
0.000000
21
0.000000
0
ENDSEC
0
EOF
