0
SECTION
2
HEADER
9
$ACADVER
1
AC1009
0
ENDSEC
0
SECTION
2
TABLES
0
TABLE
2
VPORT
70
1
0
VPORT
2
ACTIVE
70
0
10
0.0
20
0.0
11
0.0
21
0.0
12
0.0
22
0.0
13
0.0
23
0.0
14
0.0
24
0.0
15
0.0
25
0.0
16
0.0
26
0.0
36
0.0
17
0.0
27
0.0
37
0.0
40
0.0
41
0.0
42
0.0
43
0.0
44
0.0
50
0.0
51
0.0
71
0
72
1000
73
1
74
3
75
0
76
0
77
0
78
0
0
ENDTAB
0
ENDSEC
0
SECTION
2
ENTITIES
0
LINE
8
hole
62
5
39
2
10
186.012708
20
106.176726
11
186.584208
21
106.176726
0
LINE
8
hole
62
5
39
2
10
186.584208
20
106.176726
11
186.584208
21
106.748226
0
LINE
8
hole
62
5
39
2
10
186.584208
20
106.748226
11
186.012708
21
106.748226
0
LINE
8
hole
62
5
39
2
10
186.012708
20
106.748226
11
186.012708
21
106.176726
0
LINE
8
hole
62
5
39
2
10
26.340745
20
106.176726
11
26.912245
21
106.176726
0
LINE
8
hole
62
5
39
2
10
26.912245
20
106.176726
11
26.912245
21
106.748226
0
LINE
8
hole
62
5
39
2
10
26.912245
20
106.748226
11
26.340745
21
106.748226
0
LINE
8
hole
62
5
39
2
10
26.340745
20
106.748226
11
26.340745
21
106.176726
0
LINE
8
hole
62
5
39
2
10
99.754147
20
98.890342
11
99.211045
21
99.412008
0
LINE
8
hole
62
5
39
2
10
99.211045
20
99.412008
11
98.626364
21
100.064493
0
LINE
8
hole
62
5
39
2
10
98.626364
20
100.064493
11
98.136956
21
100.715783
0
LINE
8
hole
62
5
39
2
10
98.136956
20
100.715783
11
97.701530
21
101.404343
0
LINE
8
hole
62
5
39
2
10
97.701530
20
101.404343
11
97.322933
21
102.125711
0
LINE
8
hole
62
5
39
2
10
97.322933
20
102.125711
11
97.003601
21
102.875196
0
LINE
8
hole
62
5
39
2
10
97.003601
20
102.875196
11
96.745620
21
103.647954
0
LINE
8
hole
62
5
39
2
10
96.745620
20
103.647954
11
96.550651
21
104.438964
0
LINE
8
hole
62
5
39
2
10
96.550651
20
104.438964
11
96.419970
21
105.243098
0
LINE
8
hole
62
5
39
2
10
96.419970
20
105.243098
11
96.354417
21
106.055136
0
LINE
8
hole
62
5
39
2
10
96.354417
20
106.055136
11
96.354417
21
106.869817
0
LINE
8
hole
62
5
39
2
10
96.354417
20
106.869817
11
96.419970
21
107.681855
0
LINE
8
hole
62
5
39
2
10
96.419970
20
107.681855
11
96.550651
21
108.485989
0
LINE
8
hole
62
5
39
2
10
96.550651
20
108.485989
11
96.745620
21
109.276998
0
LINE
8
hole
62
5
39
2
10
96.745620
20
109.276998
11
97.003601
21
110.049757
0
LINE
8
hole
62
5
39
2
10
97.003601
20
110.049757
11
97.322933
21
110.799242
0
LINE
8
hole
62
5
39
2
10
97.322933
20
110.799242
11
97.701530
21
111.520610
0
LINE
8
hole
62
5
39
2
10
97.701530
20
111.520610
11
98.136955
21
112.209170
0
LINE
8
hole
62
5
39
2
10
98.136955
20
112.209170
11
98.626364
21
112.860460
0
LINE
8
hole
62
5
39
2
10
98.626364
20
112.860460
11
99.166604
21
113.470258
0
LINE
8
hole
62
5
39
2
10
99.166604
20
113.470258
11
99.709706
21
113.991924
0
LINE
8
hole
62
5
39
2
10
99.709706
20
113.991924
11
100.337472
21
114.510884
0
LINE
8
hole
62
5
39
2
10
100.337472
20
114.510884
11
101.004966
21
114.977637
0
LINE
8
hole
62
5
39
2
10
101.004966
20
114.977637
11
101.707848
21
115.389179
0
LINE
8
hole
62
5
39
2
10
101.707848
20
115.389179
11
102.441571
21
115.742818
0
LINE
8
hole
62
5
39
2
10
102.441571
20
115.742818
11
103.201365
21
116.036273
0
LINE
8
hole
62
5
39
2
10
103.201365
20
116.036273
11
103.982306
21
116.267636
0
LINE
8
hole
62
5
39
2
10
103.982306
20
116.267636
11
104.779338
21
116.435414
0
LINE
8
hole
62
5
39
2
10
104.779338
20
116.435414
11
105.587284
21
116.538508
0
LINE
8
hole
62
5
39
2
10
105.587284
20
116.538508
11
106.400906
21
116.576262
0
LINE
8
hole
62
5
39
2
10
106.400906
20
116.576262
11
107.214927
21
116.548417
0
LINE
8
hole
62
5
39
2
10
107.214927
20
116.548417
11
108.024068
21
116.455167
0
LINE
8
hole
62
5
39
2
10
108.024068
20
116.455167
11
108.823084
21
116.297106
0
LINE
8
hole
62
5
39
2
10
108.823084
20
116.297106
11
109.606784
21
116.075268
0
LINE
8
hole
62
5
39
2
10
109.606784
20
116.075268
11
110.370095
21
115.791085
0
LINE
8
hole
62
5
39
2
10
110.370095
20
115.791085
11
111.108068
21
115.446406
0
LINE
8
hole
62
5
39
2
10
111.108068
20
115.446406
11
111.815908
21
115.043452
0
LINE
8
hole
62
5
39
2
10
111.815908
20
115.043452
11
112.489036
21
114.584860
0
LINE
8
hole
62
5
39
2
10
112.489036
20
114.584860
11
113.123074
21
114.073583
0
LINE
8
hole
62
5
39
2
10
113.123074
20
114.073583
11
113.713909
21
113.512944
0
LINE
8
hole
62
5
39
2
10
113.713909
20
113.512944
11
114.298589
21
112.860460
0
LINE
8
hole
62
5
39
2
10
114.298589
20
112.860460
11
114.787998
21
112.209170
0
LINE
8
hole
62
5
39
2
10
114.787998
20
112.209170
11
115.223424
21
111.520610
0
LINE
8
hole
62
5
39
2
10
115.223424
20
111.520610
11
115.602020
21
110.799242
0
LINE
8
hole
62
5
39
2
10
115.602020
20
110.799242
11
115.921352
21
110.049757
0
LINE
8
hole
62
5
39
2
10
115.921352
20
110.049757
11
116.179333
21
109.276998
0
LINE
8
hole
62
5
39
2
10
116.179333
20
109.276998
11
116.374302
21
108.485989
0
LINE
8
hole
62
5
39
2
10
116.374302
20
108.485989
11
116.504983
21
107.681855
0
LINE
8
hole
62
5
39
2
10
116.504983
20
107.681855
11
116.570537
21
106.869816
0
LINE
8
hole
62
5
39
2
10
116.570537
20
106.869816
11
116.570537
21
106.055136
0
LINE
8
hole
62
5
39
2
10
116.570537
20
106.055136
11
116.504983
21
105.243098
0
LINE
8
hole
62
5
39
2
10
116.504983
20
105.243098
11
116.374302
21
104.438964
0
LINE
8
hole
62
5
39
2
10
116.374302
20
104.438964
11
116.179333
21
103.647955
0
LINE
8
hole
62
5
39
2
10
116.179333
20
103.647955
11
115.921352
21
102.875196
0
LINE
8
hole
62
5
39
2
10
115.921352
20
102.875196
11
115.602020
21
102.125710
0
LINE
8
hole
62
5
39
2
10
115.602020
20
102.125710
11
115.223424
21
101.404343
0
LINE
8
hole
62
5
39
2
10
115.223424
20
101.404343
11
114.787998
21
100.715783
0
LINE
8
hole
62
5
39
2
10
114.787998
20
100.715783
11
114.298589
21
100.064493
0
LINE
8
hole
62
5
39
2
10
114.298589
20
100.064493
11
113.758349
21
99.454695
0
LINE
8
hole
62
5
39
2
10
113.758349
20
99.454695
11
113.215247
21
98.933029
0
LINE
8
hole
62
5
39
2
10
113.215247
20
98.933029
11
112.587481
21
98.414069
0
LINE
8
hole
62
5
39
2
10
112.587481
20
98.414069
11
111.919987
21
97.947316
0
LINE
8
hole
62
5
39
2
10
111.919987
20
97.947316
11
111.217105
21
97.535774
0
LINE
8
hole
62
5
39
2
10
111.217105
20
97.535774
11
110.483383
21
97.182135
0
LINE
8
hole
62
5
39
2
10
110.483383
20
97.182135
11
109.723588
21
96.888680
0
LINE
8
hole
62
5
39
2
10
109.723588
20
96.888680
11
108.942648
21
96.657317
0
LINE
8
hole
62
5
39
2
10
108.942648
20
96.657317
11
108.145616
21
96.489539
0
LINE
8
hole
62
5
39
2
10
108.145616
20
96.489539
11
107.337670
21
96.386445
0
LINE
8
hole
62
5
39
2
10
107.337670
20
96.386445
11
106.524048
21
96.348691
0
LINE
8
hole
62
5
39
2
10
106.524048
20
96.348691
11
105.710027
21
96.376536
0
LINE
8
hole
62
5
39
2
10
105.710027
20
96.376536
11
104.900885
21
96.469786
0
LINE
8
hole
62
5
39
2
10
104.900885
20
96.469786
11
104.101869
21
96.627847
0
LINE
8
hole
62
5
39
2
10
104.101869
20
96.627847
11
103.318170
21
96.849685
0
LINE
8
hole
62
5
39
2
10
103.318170
20
96.849685
11
102.554859
21
97.133868
0
LINE
8
hole
62
5
39
2
10
102.554859
20
97.133868
11
101.816885
21
97.478547
0
LINE
8
hole
62
5
39
2
10
101.816885
20
97.478547
11
101.109045
21
97.881500
0
LINE
8
hole
62
5
39
2
10
101.109045
20
97.881500
11
100.435918
21
98.340093
0
LINE
8
hole
62
5
39
2
10
100.435918
20
98.340093
11
99.801879
21
98.851370
0
LINE
8
hole
62
5
39
2
10
99.801879
20
98.851370
11
99.754147
21
98.890342
0
LINE
8
boundary
62
5
39
2
10
31.803831
20
40.245458
11
32.300396
21
39.686623
0
LINE
8
boundary
62
5
39
2
10
32.300396
20
39.686623
11
32.676962
21
39.273837
0
LINE
8
boundary
62
5
39
2
10
32.676962
20
39.273837
11
33.180803
21
38.721559
0
LINE
8
boundary
62
5
39
2
10
33.180803
20
38.721559
11
33.562730
21
38.313781
0
LINE
8
boundary
62
5
39
2
10
33.562730
20
38.313781
11
34.073794
21
37.768182
0
LINE
8
boundary
62
5
39
2
10
34.073794
20
37.768182
11
34.591956
21
37.229263
0
LINE
8
boundary
62
5
39
2
10
34.591956
20
37.229263
11
34.979203
21
36.826502
0
LINE
8
boundary
62
5
39
2
10
34.979203
20
36.826502
11
35.504346
21
36.294441
0
LINE
8
boundary
62
5
39
2
10
35.504346
20
36.294441
11
35.896820
21
35.896820
0
LINE
8
boundary
62
5
39
2
10
35.896820
20
35.896820
11
36.294441
21
35.504346
0
LINE
8
boundary
62
5
39
2
10
36.294441
20
35.504346
11
36.826503
21
34.979202
0
LINE
8
boundary
62
5
39
2
10
36.826503
20
34.979202
11
37.229263
21
34.591956
0
LINE
8
boundary
62
5
39
2
10
37.229263
20
34.591956
11
37.768182
21
34.073794
0
LINE
8
boundary
62
5
39
2
10
37.768182
20
34.073794
11
38.313782
21
33.562729
0
LINE
8
boundary
62
5
39
2
10
38.313782
20
33.562729
11
38.721559
21
33.180803
0
LINE
8
boundary
62
5
39
2
10
38.721559
20
33.180803
11
39.273838
21
32.676961
0
LINE
8
boundary
62
5
39
2
10
39.273838
20
32.676961
11
39.686624
21
32.300396
0
LINE
8
boundary
62
5
39
2
10
39.686624
20
32.300396
11
40.245458
21
31.803830
0
LINE
8
boundary
62
5
39
2
10
40.245458
20
31.803830
11
40.663084
21
31.432671
0
LINE
8
boundary
62
5
39
2
10
40.663084
20
31.432671
11
41.085551
21
31.067047
0
LINE
8
boundary
62
5
39
2
10
41.085551
20
31.067047
11
41.650826
21
30.577825
0
LINE
8
boundary
62
5
39
2
10
41.650826
20
30.577825
11
42.222479
21
30.096002
0
LINE
8
boundary
62
5
39
2
10
42.222479
20
30.096002
11
42.649695
21
29.735955
0
LINE
8
boundary
62
5
39
2
10
42.649695
20
29.735955
11
43.081575
21
29.381490
0
LINE
8
boundary
62
5
39
2
10
43.081575
20
29.381490
11
43.659482
21
28.907249
0
LINE
8
boundary
62
5
39
2
10
43.659482
20
28.907249
11
44.095982
21
28.558493
0
LINE
8
boundary
62
5
39
2
10
44.095982
20
28.558493
11
44.680028
21
28.091834
0
LINE
8
boundary
62
5
39
2
10
44.680028
20
28.091834
11
45.270152
21
27.632816
0
LINE
8
boundary
62
5
39
2
10
45.270152
20
27.632816
11
45.711186
21
27.289812
0
LINE
8
boundary
62
5
39
2
10
45.711186
20
27.289812
11
46.307266
21
26.838615
0
LINE
8
boundary
62
5
39
2
10
46.307266
20
26.838615
11
46.752747
21
26.501411
0
LINE
8
boundary
62
5
39
2
10
46.752747
20
26.501411
11
47.202585
21
26.170049
0
LINE
8
boundary
62
5
39
2
10
47.202585
20
26.170049
11
47.804502
21
25.726676
0
LINE
8
boundary
62
5
39
2
10
47.804502
20
25.726676
11
48.258656
21
25.401242
0
LINE
8
boundary
62
5
39
2
10
48.258656
20
25.401242
11
48.866290
21
24.965809
0
LINE
8
boundary
62
5
39
2
10
48.866290
20
24.965809
11
49.479637
21
24.538316
0
LINE
8
boundary
62
5
39
2
10
49.479637
20
24.538316
11
49.938019
21
24.218850
0
LINE
8
boundary
62
5
39
2
10
49.938019
20
24.218850
11
50.400542
21
23.905401
0
LINE
8
boundary
62
5
39
2
10
50.400542
20
23.905401
11
51.019424
21
23.486034
0
LINE
8
boundary
62
5
39
2
10
51.019424
20
23.486034
11
51.485958
21
23.178688
0
LINE
8
boundary
62
5
39
2
10
51.485958
20
23.178688
11
52.110258
21
22.767441
0
LINE
8
boundary
62
5
39
2
10
52.110258
20
22.767441
11
52.739851
21
22.364379
0
LINE
8
boundary
62
5
39
2
10
52.739851
20
22.364379
11
53.210437
21
22.063134
0
LINE
8
boundary
62
5
39
2
10
53.210437
20
22.063134
11
53.845325
21
21.668317
0
LINE
8
boundary
62
5
39
2
10
53.845325
20
21.668317
11
54.319793
21
21.373265
0
LINE
8
boundary
62
5
39
2
10
54.319793
20
21.373265
11
54.798052
21
21.084488
0
LINE
8
boundary
62
5
39
2
10
54.798052
20
21.084488
11
55.437994
21
20.698090
0
LINE
8
boundary
62
5
39
2
10
55.437994
20
20.698090
11
56.082989
21
20.320059
0
LINE
8
boundary
62
5
39
2
10
56.082989
20
20.320059
11
56.565039
21
20.037516
0
LINE
8
boundary
62
5
39
2
10
56.565039
20
20.037516
11
57.214910
21
19.667963
0
LINE
8
boundary
62
5
39
2
10
57.214910
20
19.667963
11
57.700580
21
19.391783
0
LINE
8
boundary
62
5
39
2
10
57.700580
20
19.391783
11
58.355204
21
19.030777
0
LINE
8
boundary
62
5
39
2
10
58.355204
20
19.030777
11
58.844449
21
18.760959
0
LINE
8
boundary
62
5
39
2
10
58.844449
20
18.760959
11
59.337177
21
18.497593
0
LINE
8
boundary
62
5
39
2
10
59.337177
20
18.497593
11
59.996491
21
18.145192
0
LINE
8
boundary
62
5
39
2
10
59.996491
20
18.145192
11
60.492665
21
17.888278
0
LINE
8
boundary
62
5
39
2
10
60.492665
20
17.888278
11
61.156556
21
17.544543
0
LINE
8
boundary
62
5
39
2
10
61.156556
20
17.544543
11
61.655998
21
17.294170
0
LINE
8
boundary
62
5
39
2
10
61.655998
20
17.294170
11
62.324278
21
16.959095
0
LINE
8
boundary
62
5
39
2
10
62.324278
20
16.959095
11
62.996952
21
16.632870
0
LINE
8
boundary
62
5
39
2
10
62.996952
20
16.632870
11
63.499665
21
16.389033
0
LINE
8
boundary
62
5
39
2
10
63.499665
20
16.389033
11
64.176490
21
16.071587
0
LINE
8
boundary
62
5
39
2
10
64.176490
20
16.071587
11
64.682340
21
15.834377
0
LINE
8
boundary
62
5
39
2
10
64.682340
20
15.834377
11
65.191285
21
15.603789
0
LINE
8
boundary
62
5
39
2
10
65.191285
20
15.603789
11
65.872259
21
15.295249
0
LINE
8
boundary
62
5
39
2
10
65.872259
20
15.295249
11
66.384126
21
15.071335
0
LINE
8
boundary
62
5
39
2
10
66.384126
20
15.071335
11
67.069014
21
14.771763
0
LINE
8
boundary
62
5
39
2
10
67.069014
20
14.771763
11
67.757811
21
14.481154
0
LINE
8
boundary
62
5
39
2
10
67.757811
20
14.481154
11
68.272598
21
14.263992
0
LINE
8
boundary
62
5
39
2
10
68.272598
20
14.263992
11
68.965128
21
13.982404
0
LINE
8
boundary
62
5
39
2
10
68.965128
20
13.982404
11
69.482704
21
13.771955
0
LINE
8
boundary
62
5
39
2
10
69.482704
20
13.771955
11
70.002982
21
13.568307
0
LINE
8
boundary
62
5
39
2
10
70.002982
20
13.568307
11
70.699182
21
13.295871
0
LINE
8
boundary
62
5
39
2
10
70.699182
20
13.295871
11
71.222076
21
13.099067
0
LINE
8
boundary
62
5
39
2
10
71.222076
20
13.099067
11
71.921764
21
12.835715
0
LINE
8
boundary
62
5
39
2
10
71.921764
20
12.835715
11
72.624823
21
12.581565
0
LINE
8
boundary
62
5
39
2
10
72.624823
20
12.581565
11
73.150244
21
12.391647
0
LINE
8
boundary
62
5
39
2
10
73.150244
20
12.391647
11
73.856552
21
12.146704
0
LINE
8
boundary
62
5
39
2
10
73.856552
20
12.146704
11
74.384459
21
11.963631
0
LINE
8
boundary
62
5
39
2
10
74.384459
20
11.963631
11
74.914676
21
11.787532
0
LINE
8
boundary
62
5
39
2
10
74.914676
20
11.787532
11
75.624171
21
11.551854
0
LINE
8
boundary
62
5
39
2
10
75.624171
20
11.551854
11
76.156654
21
11.382640
0
LINE
8
boundary
62
5
39
2
10
76.156654
20
11.382640
11
76.869099
21
11.156292
0
LINE
8
boundary
62
5
39
2
10
76.869099
20
11.156292
11
77.584490
21
10.939267
0
LINE
8
boundary
62
5
39
2
10
77.584490
20
10.939267
11
78.119153
21
10.777116
0
LINE
8
boundary
62
5
39
2
10
78.119153
20
10.777116
11
78.655909
21
10.621938
0
LINE
8
boundary
62
5
39
2
10
78.655909
20
10.621938
11
79.374130
21
10.414304
0
LINE
8
boundary
62
5
39
2
10
79.374130
20
10.414304
11
80.094937
21
10.216106
0
LINE
8
boundary
62
5
39
2
10
80.094937
20
10.216106
11
80.633652
21
10.067947
0
LINE
8
boundary
62
5
39
2
10
80.633652
20
10.067947
11
81.174244
21
9.926894
0
LINE
8
boundary
62
5
39
2
10
81.174244
20
9.926894
11
81.897638
21
9.738153
0
LINE
8
boundary
62
5
39
2
10
81.897638
20
9.738153
11
82.440060
21
9.604162
0
LINE
8
boundary
62
5
39
2
10
82.440060
20
9.604162
11
83.165801
21
9.424864
0
LINE
8
boundary
62
5
39
2
10
83.165801
20
9.424864
11
83.893889
21
9.255128
0
LINE
8
boundary
62
5
39
2
10
83.893889
20
9.255128
11
84.438011
21
9.128282
0
LINE
8
boundary
62
5
39
2
10
84.438011
20
9.128282
11
84.983746
21
9.008544
0
LINE
8
boundary
62
5
39
2
10
84.983746
20
9.008544
11
85.713939
21
8.848318
0
LINE
8
boundary
62
5
39
2
10
85.713939
20
8.848318
11
86.446180
21
8.697658
0
LINE
8
boundary
62
5
39
2
10
86.446180
20
8.697658
11
86.993439
21
8.585065
0
LINE
8
boundary
62
5
39
2
10
86.993439
20
8.585065
11
87.727603
21
8.444035
0
LINE
8
boundary
62
5
39
2
10
87.727603
20
8.444035
11
88.276259
21
8.338594
0
LINE
8
boundary
62
5
39
2
10
88.276259
20
8.338594
11
88.826264
21
8.240386
0
LINE
8
boundary
62
5
39
2
10
88.826264
20
8.240386
11
89.562234
21
8.108981
0
LINE
8
boundary
62
5
39
2
10
89.562234
20
8.108981
11
90.113505
21
8.017971
0
LINE
8
boundary
62
5
39
2
10
90.113505
20
8.017971
11
90.851099
21
7.896191
0
LINE
8
boundary
62
5
39
2
10
90.851099
20
7.896191
11
91.590258
21
7.784037
0
LINE
8
boundary
62
5
39
2
10
91.590258
20
7.784037
11
92.142661
21
7.700258
0
LINE
8
boundary
62
5
39
2
10
92.142661
20
7.700258
11
92.696111
21
7.623713
0
LINE
8
boundary
62
5
39
2
10
92.696111
20
7.623713
11
93.436653
21
7.521311
0
LINE
8
boundary
62
5
39
2
10
93.436653
20
7.521311
11
94.178459
21
7.428591
0
LINE
8
boundary
62
5
39
2
10
94.178459
20
7.428591
11
94.732867
21
7.359287
0
LINE
8
boundary
62
5
39
2
10
94.732867
20
7.359287
11
95.475822
21
7.276256
0
LINE
8
boundary
62
5
39
2
10
95.475822
20
7.276256
11
96.031059
21
7.214225
0
LINE
8
boundary
62
5
39
2
10
96.031059
20
7.214225
11
96.775043
21
7.140939
0
LINE
8
boundary
62
5
39
2
10
96.775043
20
7.140939
11
97.331078
21
7.086152
0
LINE
8
boundary
62
5
39
2
10
97.331078
20
7.086152
11
97.887771
21
7.038681
0
LINE
8
boundary
62
5
39
2
10
97.887771
20
7.038681
11
98.632657
21
6.975147
0
LINE
8
boundary
62
5
39
2
10
98.632657
20
6.975147
11
99.378308
21
6.921414
0
LINE
8
boundary
62
5
39
2
10
99.378308
20
6.921414
11
99.935576
21
6.881225
0
LINE
8
boundary
62
5
39
2
10
99.935576
20
6.881225
11
100.681870
21
6.837185
0
LINE
8
boundary
62
5
39
2
10
100.681870
20
6.837185
11
101.239618
21
6.804274
0
LINE
8
boundary
62
5
39
2
10
101.239618
20
6.804274
11
101.986418
21
6.770042
0
LINE
8
boundary
62
5
39
2
10
101.986418
20
6.770042
11
102.544545
21
6.744455
0
LINE
8
boundary
62
5
39
2
10
102.544545
20
6.744455
11
103.102964
21
6.726191
0
LINE
8
boundary
62
5
39
2
10
103.102964
20
6.726191
11
103.850154
21
6.701760
0
LINE
8
boundary
62
5
39
2
10
103.850154
20
6.701760
11
104.408761
21
6.690777
0
LINE
8
boundary
62
5
39
2
10
104.408761
20
6.690777
11
105.156204
21
6.676098
0
LINE
8
boundary
62
5
39
2
10
105.156204
20
6.676098
11
105.903774
21
6.671161
0
LINE
8
boundary
62
5
39
2
10
105.903774
20
6.671161
11
106.462477
21
6.667500
0
LINE
8
boundary
62
5
39
2
10
106.462477
20
6.667500
11
107.021179
21
6.671161
0
LINE
8
boundary
62
5
39
2
10
107.021179
20
6.671161
11
107.768749
21
6.676098
0
LINE
8
boundary
62
5
39
2
10
107.768749
20
6.676098
11
108.516192
21
6.690777
0
LINE
8
boundary
62
5
39
2
10
108.516192
20
6.690777
11
109.074799
21
6.701760
0
LINE
8
boundary
62
5
39
2
10
109.074799
20
6.701760
11
109.821990
21
6.726191
0
LINE
8
boundary
62
5
39
2
10
109.821990
20
6.726191
11
110.380408
21
6.744456
0
LINE
8
boundary
62
5
39
2
10
110.380408
20
6.744456
11
110.938535
21
6.770041
0
LINE
8
boundary
62
5
39
2
10
110.938535
20
6.770041
11
111.685336
21
6.804274
0
LINE
8
boundary
62
5
39
2
10
111.685336
20
6.804274
11
112.243083
21
6.837184
0
LINE
8
boundary
62
5
39
2
10
112.243083
20
6.837184
11
112.989378
21
6.881225
0
LINE
8
boundary
62
5
39
2
10
112.989378
20
6.881225
11
113.546645
21
6.921414
0
LINE
8
boundary
62
5
39
2
10
113.546645
20
6.921414
11
114.292296
21
6.975147
0
LINE
8
boundary
62
5
39
2
10
114.292296
20
6.975147
11
115.037182
21
7.038681
0
LINE
8
boundary
62
5
39
2
10
115.037182
20
7.038681
11
115.593875
21
7.086152
0
LINE
8
boundary
62
5
39
2
10
115.593875
20
7.086152
11
116.149910
21
7.140939
0
LINE
8
boundary
62
5
39
2
10
116.149910
20
7.140939
11
116.893894
21
7.214225
0
LINE
8
boundary
62
5
39
2
10
116.893894
20
7.214225
11
117.449131
21
7.276256
0
LINE
8
boundary
62
5
39
2
10
117.449131
20
7.276256
11
118.192087
21
7.359287
0
LINE
8
boundary
62
5
39
2
10
118.192087
20
7.359287
11
118.746495
21
7.428591
0
LINE
8
boundary
62
5
39
2
10
118.746495
20
7.428591
11
119.488300
21
7.521311
0
LINE
8
boundary
62
5
39
2
10
119.488300
20
7.521311
11
120.228842
21
7.623713
0
LINE
8
boundary
62
5
39
2
10
120.228842
20
7.623713
11
120.782292
21
7.700257
0
LINE
8
boundary
62
5
39
2
10
120.782292
20
7.700257
11
121.334696
21
7.784037
0
LINE
8
boundary
62
5
39
2
10
121.334696
20
7.784037
11
122.073855
21
7.896191
0
LINE
8
boundary
62
5
39
2
10
122.073855
20
7.896191
11
122.811449
21
8.017971
0
LINE
8
boundary
62
5
39
2
10
122.811449
20
8.017971
11
123.362719
21
8.108981
0
LINE
8
boundary
62
5
39
2
10
123.362719
20
8.108981
11
124.098689
21
8.240387
0
LINE
8
boundary
62
5
39
2
10
124.098689
20
8.240387
11
124.648695
21
8.338594
0
LINE
8
boundary
62
5
39
2
10
124.648695
20
8.338594
11
125.197350
21
8.444035
0
LINE
8
boundary
62
5
39
2
10
125.197350
20
8.444035
11
125.931514
21
8.585065
0
LINE
8
boundary
62
5
39
2
10
125.931514
20
8.585065
11
126.478774
21
8.697658
0
LINE
8
boundary
62
5
39
2
10
126.478774
20
8.697658
11
127.211014
21
8.848318
0
LINE
8
boundary
62
5
39
2
10
127.211014
20
8.848318
11
127.941207
21
9.008543
0
LINE
8
boundary
62
5
39
2
10
127.941207
20
9.008543
11
128.486942
21
9.128282
0
LINE
8
boundary
62
5
39
2
10
128.486942
20
9.128282
11
129.031064
21
9.255129
0
LINE
8
boundary
62
5
39
2
10
129.031064
20
9.255129
11
129.759152
21
9.424864
0
LINE
8
boundary
62
5
39
2
10
129.759152
20
9.424864
11
130.484893
21
9.604162
0
LINE
8
boundary
62
5
39
2
10
130.484893
20
9.604162
11
131.027315
21
9.738153
0
LINE
8
boundary
62
5
39
2
10
131.027315
20
9.738153
11
131.750710
21
9.926894
0
LINE
8
boundary
62
5
39
2
10
131.750710
20
9.926894
11
132.291301
21
10.067947
0
LINE
8
boundary
62
5
39
2
10
132.291301
20
10.067947
11
132.830017
21
10.216105
0
LINE
8
boundary
62
5
39
2
10
132.830017
20
10.216105
11
133.550823
21
10.414304
0
LINE
8
boundary
62
5
39
2
10
133.550823
20
10.414304
11
134.269045
21
10.621938
0
LINE
8
boundary
62
5
39
2
10
134.269045
20
10.621938
11
134.805800
21
10.777116
0
LINE
8
boundary
62
5
39
2
10
134.805800
20
10.777116
11
135.340463
21
10.939267
0
LINE
8
boundary
62
5
39
2
10
135.340463
20
10.939267
11
136.055854
21
11.156292
0
LINE
8
boundary
62
5
39
2
10
136.055854
20
11.156292
11
136.768299
21
11.382640
0
LINE
8
boundary
62
5
39
2
10
136.768299
20
11.382640
11
137.300782
21
11.551853
0
LINE
8
boundary
62
5
39
2
10
137.300782
20
11.551853
11
138.010277
21
11.787533
0
LINE
8
boundary
62
5
39
2
10
138.010277
20
11.787533
11
138.540494
21
11.963630
0
LINE
8
boundary
62
5
39
2
10
138.540494
20
11.963630
11
139.068401
21
12.146704
0
LINE
8
boundary
62
5
39
2
10
139.068401
20
12.146704
11
139.774710
21
12.391647
0
LINE
8
boundary
62
5
39
2
10
139.774710
20
12.391647
11
140.300131
21
12.581565
0
LINE
8
boundary
62
5
39
2
10
140.300131
20
12.581565
11
141.003189
21
12.835715
0
LINE
8
boundary
62
5
39
2
10
141.003189
20
12.835715
11
141.702877
21
13.099066
0
LINE
8
boundary
62
5
39
2
10
141.702877
20
13.099066
11
142.225772
21
13.295871
0
LINE
8
boundary
62
5
39
2
10
142.225772
20
13.295871
11
142.921971
21
13.568307
0
LINE
8
boundary
62
5
39
2
10
142.921971
20
13.568307
11
143.442250
21
13.771955
0
LINE
8
boundary
62
5
39
2
10
143.442250
20
13.771955
11
143.959825
21
13.982404
0
LINE
8
boundary
62
5
39
2
10
143.959825
20
13.982404
11
144.652355
21
14.263991
0
LINE
8
boundary
62
5
39
2
10
144.652355
20
14.263991
11
145.167142
21
14.481154
0
LINE
8
boundary
62
5
39
2
10
145.167142
20
14.481154
11
145.855939
21
14.771763
0
LINE
8
boundary
62
5
39
2
10
145.855939
20
14.771763
11
146.540828
21
15.071334
0
LINE
8
boundary
62
5
39
2
10
146.540828
20
15.071334
11
147.052694
21
15.295249
0
LINE
8
boundary
62
5
39
2
10
147.052694
20
15.295249
11
147.733669
21
15.603789
0
LINE
8
boundary
62
5
39
2
10
147.733669
20
15.603789
11
148.242613
21
15.834377
0
LINE
8
boundary
62
5
39
2
10
148.242613
20
15.834377
11
148.748463
21
16.071587
0
LINE
8
boundary
62
5
39
2
10
148.748463
20
16.071587
11
149.425289
21
16.389032
0
LINE
8
boundary
62
5
39
2
10
149.425289
20
16.389032
11
149.928001
21
16.632870
0
LINE
8
boundary
62
5
39
2
10
149.928001
20
16.632870
11
150.600676
21
16.959095
0
LINE
8
boundary
62
5
39
2
10
150.600676
20
16.959095
11
151.268955
21
17.294170
0
LINE
8
boundary
62
5
39
2
10
151.268955
20
17.294170
11
151.768398
21
17.544543
0
LINE
8
boundary
62
5
39
2
10
151.768398
20
17.544543
11
152.432288
21
17.888278
0
LINE
8
boundary
62
5
39
2
10
152.432288
20
17.888278
11
152.928462
21
18.145192
0
LINE
8
boundary
62
5
39
2
10
152.928462
20
18.145192
11
153.587777
21
18.497594
0
LINE
8
boundary
62
5
39
2
10
153.587777
20
18.497594
11
154.080505
21
18.760959
0
LINE
8
boundary
62
5
39
2
10
154.080505
20
18.760959
11
154.569749
21
19.030777
0
LINE
8
boundary
62
5
39
2
10
154.569749
20
19.030777
11
155.224374
21
19.391782
0
LINE
8
boundary
62
5
39
2
10
155.224374
20
19.391782
11
155.710044
21
19.667963
0
LINE
8
boundary
62
5
39
2
10
155.710044
20
19.667963
11
156.359915
21
20.037516
0
LINE
8
boundary
62
5
39
2
10
156.359915
20
20.037516
11
156.841965
21
20.320060
0
LINE
8
boundary
62
5
39
2
10
156.841965
20
20.320060
11
157.486960
21
20.698089
0
LINE
8
boundary
62
5
39
2
10
157.486960
20
20.698089
11
158.126901
21
21.084488
0
LINE
8
boundary
62
5
39
2
10
158.126901
20
21.084488
11
158.605160
21
21.373265
0
LINE
8
boundary
62
5
39
2
10
158.605160
20
21.373265
11
159.079628
21
21.668317
0
LINE
8
boundary
62
5
39
2
10
159.079628
20
21.668317
11
159.714517
21
22.063134
0
LINE
8
boundary
62
5
39
2
10
159.714517
20
22.063134
11
160.185103
21
22.364379
0
LINE
8
boundary
62
5
39
2
10
160.185103
20
22.364379
11
160.814695
21
22.767441
0
LINE
8
boundary
62
5
39
2
10
160.814695
20
22.767441
11
161.438996
21
23.178688
0
LINE
8
boundary
62
5
39
2
10
161.438996
20
23.178688
11
161.905529
21
23.486034
0
LINE
8
boundary
62
5
39
2
10
161.905529
20
23.486034
11
162.524411
21
23.905401
0
LINE
8
boundary
62
5
39
2
10
162.524411
20
23.905401
11
162.986935
21
24.218850
0
LINE
8
boundary
62
5
39
2
10
162.986935
20
24.218850
11
163.445317
21
24.538316
0
LINE
8
boundary
62
5
39
2
10
163.445317
20
24.538316
11
164.058664
21
24.965809
0
LINE
8
boundary
62
5
39
2
10
164.058664
20
24.965809
11
164.666298
21
25.401242
0
LINE
8
boundary
62
5
39
2
10
164.666298
20
25.401242
11
165.120451
21
25.726676
0
LINE
8
boundary
62
5
39
2
10
165.120451
20
25.726676
11
165.722368
21
26.170049
0
LINE
8
boundary
62
5
39
2
10
165.722368
20
26.170049
11
166.172207
21
26.501411
0
LINE
8
boundary
62
5
39
2
10
166.172207
20
26.501411
11
166.617687
21
26.838615
0
LINE
8
boundary
62
5
39
2
10
166.617687
20
26.838615
11
167.213768
21
27.289812
0
LINE
8
boundary
62
5
39
2
10
167.213768
20
27.289812
11
167.654801
21
27.632816
0
LINE
8
boundary
62
5
39
2
10
167.654801
20
27.632816
11
168.244926
21
28.091834
0
LINE
8
boundary
62
5
39
2
10
168.244926
20
28.091834
11
168.828971
21
28.558493
0
LINE
8
boundary
62
5
39
2
10
168.828971
20
28.558493
11
169.265471
21
28.907249
0
LINE
8
boundary
62
5
39
2
10
169.265471
20
28.907249
11
169.843378
21
29.381490
0
LINE
8
boundary
62
5
39
2
10
169.843378
20
29.381490
11
170.275258
21
29.735955
0
LINE
8
boundary
62
5
39
2
10
170.275258
20
29.735955
11
170.702474
21
30.096002
0
LINE
8
boundary
62
5
39
2
10
170.702474
20
30.096002
11
171.274127
21
30.577825
0
LINE
8
boundary
62
5
39
2
10
171.274127
20
30.577825
11
171.839403
21
31.067047
0
LINE
8
boundary
62
5
39
2
10
171.839403
20
31.067047
11
172.261870
21
31.432671
0
LINE
8
boundary
62
5
39
2
10
172.261870
20
31.432671
11
172.679495
21
31.803830
0
LINE
8
boundary
62
5
39
2
10
172.679495
20
31.803830
11
173.238330
21
32.300396
0
LINE
8
boundary
62
5
39
2
10
173.238330
20
32.300396
11
173.651116
21
32.676961
0
LINE
8
boundary
62
5
39
2
10
173.651116
20
32.676961
11
174.203394
21
33.180803
0
LINE
8
boundary
62
5
39
2
10
174.203394
20
33.180803
11
174.611171
21
33.562729
0
LINE
8
boundary
62
5
39
2
10
174.611171
20
33.562729
11
175.156771
21
34.073794
0
LINE
8
boundary
62
5
39
2
10
175.156771
20
34.073794
11
175.695691
21
34.591956
0
LINE
8
boundary
62
5
39
2
10
175.695691
20
34.591956
11
176.098451
21
34.979202
0
LINE
8
boundary
62
5
39
2
10
176.098451
20
34.979202
11
176.630512
21
35.504346
0
LINE
8
boundary
62
5
39
2
10
176.630512
20
35.504346
11
177.028133
21
35.896820
0
LINE
8
boundary
62
5
39
2
10
177.028133
20
35.896820
11
177.420607
21
36.294441
0
LINE
8
boundary
62
5
39
2
10
177.420607
20
36.294441
11
177.945751
21
36.826502
0
LINE
8
boundary
62
5
39
2
10
177.945751
20
36.826502
11
178.332997
21
37.229262
0
LINE
8
boundary
62
5
39
2
10
178.332997
20
37.229262
11
178.851159
21
37.768182
0
LINE
8
boundary
62
5
39
2
10
178.851159
20
37.768182
11
179.362224
21
38.313782
0
LINE
8
boundary
62
5
39
2
10
179.362224
20
38.313782
11
179.744150
21
38.721559
0
LINE
8
boundary
62
5
39
2
10
179.744150
20
38.721559
11
180.247992
21
39.273837
0
LINE
8
boundary
62
5
39
2
10
180.247992
20
39.273837
11
180.624557
21
39.686623
0
LINE
8
boundary
62
5
39
2
10
180.624557
20
39.686623
11
181.121123
21
40.245458
0
LINE
8
boundary
62
5
39
2
10
181.121123
20
40.245458
11
181.492282
21
40.663083
0
LINE
8
boundary
62
5
39
2
10
181.492282
20
40.663083
11
181.857906
21
41.085550
0
LINE
8
boundary
62
5
39
2
10
181.857906
20
41.085550
11
182.347128
21
41.650826
0
LINE
8
boundary
62
5
39
2
10
182.347128
20
41.650826
11
182.828951
21
42.222478
0
LINE
8
boundary
62
5
39
2
10
182.828951
20
42.222478
11
183.188998
21
42.649695
0
LINE
8
boundary
62
5
39
2
10
183.188998
20
42.649695
11
183.543463
21
43.081575
0
LINE
8
boundary
62
5
39
2
10
183.543463
20
43.081575
11
184.017704
21
43.659482
0
LINE
8
boundary
62
5
39
2
10
184.017704
20
43.659482
11
184.366460
21
44.095982
0
LINE
8
boundary
62
5
39
2
10
184.366460
20
44.095982
11
184.833119
21
44.680028
0
LINE
8
boundary
62
5
39
2
10
184.833119
20
44.680028
11
185.292137
21
45.270152
0
LINE
8
boundary
62
5
39
2
10
185.292137
20
45.270152
11
185.635141
21
45.711185
0
LINE
8
boundary
62
5
39
2
10
185.635141
20
45.711185
11
186.086338
21
46.307266
0
LINE
8
boundary
62
5
39
2
10
186.086338
20
46.307266
11
186.423542
21
46.752746
0
LINE
8
boundary
62
5
39
2
10
186.423542
20
46.752746
11
186.754904
21
47.202585
0
LINE
8
boundary
62
5
39
2
10
186.754904
20
47.202585
11
187.198277
21
47.804502
0
LINE
8
boundary
62
5
39
2
10
187.198277
20
47.804502
11
187.523711
21
48.258655
0
LINE
8
boundary
62
5
39
2
10
187.523711
20
48.258655
11
187.959144
21
48.866289
0
LINE
8
boundary
62
5
39
2
10
187.959144
20
48.866289
11
188.386637
21
49.479637
0
LINE
8
boundary
62
5
39
2
10
188.386637
20
49.479637
11
188.706103
21
49.938019
0
LINE
8
boundary
62
5
39
2
10
188.706103
20
49.938019
11
189.019552
21
50.400542
0
LINE
8
boundary
62
5
39
2
10
189.019552
20
50.400542
11
189.438919
21
51.019424
0
LINE
8
boundary
62
5
39
2
10
189.438919
20
51.019424
11
189.746265
21
51.485957
0
LINE
8
boundary
62
5
39
2
10
189.746265
20
51.485957
11
190.157512
21
52.110258
0
LINE
8
boundary
62
5
39
2
10
190.157512
20
52.110258
11
190.560574
21
52.739850
0
LINE
8
boundary
62
5
39
2
10
190.560574
20
52.739850
11
190.861819
21
53.210436
0
LINE
8
boundary
62
5
39
2
10
190.861819
20
53.210436
11
191.256636
21
53.845325
0
LINE
8
boundary
62
5
39
2
10
191.256636
20
53.845325
11
191.551688
21
54.319793
0
LINE
8
boundary
62
5
39
2
10
191.551688
20
54.319793
11
191.840465
21
54.798052
0
LINE
8
boundary
62
5
39
2
10
191.840465
20
54.798052
11
192.226864
21
55.437994
0
LINE
8
boundary
62
5
39
2
10
192.226864
20
55.437994
11
192.604894
21
56.082989
0
LINE
8
boundary
62
5
39
2
10
192.604894
20
56.082989
11
192.887437
21
56.565038
0
LINE
8
boundary
62
5
39
2
10
192.887437
20
56.565038
11
193.256990
21
57.214909
0
LINE
8
boundary
62
5
39
2
10
193.256990
20
57.214909
11
193.533171
21
57.700579
0
LINE
8
boundary
62
5
39
2
10
193.533171
20
57.700579
11
193.894176
21
58.355204
0
LINE
8
boundary
62
5
39
2
10
193.894176
20
58.355204
11
194.163994
21
58.844448
0
LINE
8
boundary
62
5
39
2
10
194.163994
20
58.844448
11
194.427360
21
59.337177
0
LINE
8
boundary
62
5
39
2
10
194.427360
20
59.337177
11
194.779761
21
59.996491
0
LINE
8
boundary
62
5
39
2
10
194.779761
20
59.996491
11
195.036675
21
60.492665
0
LINE
8
boundary
62
5
39
2
10
195.036675
20
60.492665
11
195.380410
21
61.156555
0
LINE
8
boundary
62
5
39
2
10
195.380410
20
61.156555
11
195.630783
21
61.655997
0
LINE
8
boundary
62
5
39
2
10
195.630783
20
61.655997
11
195.965858
21
62.324277
0
LINE
8
boundary
62
5
39
2
10
195.965858
20
62.324277
11
196.292083
21
62.996952
0
LINE
8
boundary
62
5
39
2
10
196.292083
20
62.996952
11
196.535920
21
63.499665
0
LINE
8
boundary
62
5
39
2
10
196.535920
20
63.499665
11
196.853366
21
64.176490
0
LINE
8
boundary
62
5
39
2
10
196.853366
20
64.176490
11
197.090576
21
64.682340
0
LINE
8
boundary
62
5
39
2
10
197.090576
20
64.682340
11
197.321164
21
65.191285
0
LINE
8
boundary
62
5
39
2
10
197.321164
20
65.191285
11
197.629704
21
65.872259
0
LINE
8
boundary
62
5
39
2
10
197.629704
20
65.872259
11
197.853619
21
66.384125
0
LINE
8
boundary
62
5
39
2
10
197.853619
20
66.384125
11
198.153190
21
67.069014
0
LINE
8
boundary
62
5
39
2
10
198.153190
20
67.069014
11
198.443799
21
67.757811
0
LINE
8
boundary
62
5
39
2
10
198.443799
20
67.757811
11
198.660962
21
68.272598
0
LINE
8
boundary
62
5
39
2
10
198.660962
20
68.272598
11
198.942549
21
68.965128
0
LINE
8
boundary
62
5
39
2
10
198.942549
20
68.965128
11
199.152998
21
69.482703
0
LINE
8
boundary
62
5
39
2
10
199.152998
20
69.482703
11
199.356646
21
70.002982
0
LINE
8
boundary
62
5
39
2
10
199.356646
20
70.002982
11
199.629082
21
70.699182
0
LINE
8
boundary
62
5
39
2
10
199.629082
20
70.699182
11
199.825887
21
71.222075
0
LINE
8
boundary
62
5
39
2
10
199.825887
20
71.222075
11
200.089238
21
71.921764
0
LINE
8
boundary
62
5
39
2
10
200.089238
20
71.921764
11
200.343388
21
72.624822
0
LINE
8
boundary
62
5
39
2
10
200.343388
20
72.624822
11
200.533306
21
73.150243
0
LINE
8
boundary
62
5
39
2
10
200.533306
20
73.150243
11
200.778249
21
73.856552
0
LINE
8
boundary
62
5
39
2
10
200.778249
20
73.856552
11
200.961323
21
74.384459
0
LINE
8
boundary
62
5
39
2
10
200.961323
20
74.384459
11
201.137420
21
74.914676
0
LINE
8
boundary
62
5
39
2
10
201.137420
20
74.914676
11
201.373100
21
75.624171
0
LINE
8
boundary
62
5
39
2
10
201.373100
20
75.624171
11
201.542313
21
76.156654
0
LINE
8
boundary
62
5
39
2
10
201.542313
20
76.156654
11
201.768661
21
76.869099
0
LINE
8
boundary
62
5
39
2
10
201.768661
20
76.869099
11
201.985686
21
77.584490
0
LINE
8
boundary
62
5
39
2
10
201.985686
20
77.584490
11
202.147837
21
78.119153
0
LINE
8
boundary
62
5
39
2
10
202.147837
20
78.119153
11
202.303015
21
78.655908
0
LINE
8
boundary
62
5
39
2
10
202.303015
20
78.655908
11
202.510649
21
79.374130
0
LINE
8
boundary
62
5
39
2
10
202.510649
20
79.374130
11
202.708847
21
80.094936
0
LINE
8
boundary
62
5
39
2
10
202.708847
20
80.094936
11
202.857006
21
80.633652
0
LINE
8
boundary
62
5
39
2
10
202.857006
20
80.633652
11
202.998059
21
81.174244
0
LINE
8
boundary
62
5
39
2
10
202.998059
20
81.174244
11
203.186800
21
81.897638
0
LINE
8
boundary
62
5
39
2
10
203.186800
20
81.897638
11
203.320791
21
82.440060
0
LINE
8
boundary
62
5
39
2
10
203.320791
20
82.440060
11
203.500089
21
83.165801
0
LINE
8
boundary
62
5
39
2
10
203.500089
20
83.165801
11
203.669825
21
83.893889
0
LINE
8
boundary
62
5
39
2
10
203.669825
20
83.893889
11
203.796671
21
84.438011
0
LINE
8
boundary
62
5
39
2
10
203.796671
20
84.438011
11
203.916410
21
84.983746
0
LINE
8
boundary
62
5
39
2
10
203.916410
20
84.983746
11
204.076636
21
85.713939
0
LINE
8
boundary
62
5
39
2
10
204.076636
20
85.713939
11
204.227296
21
86.446179
0
LINE
8
boundary
62
5
39
2
10
204.227296
20
86.446179
11
204.339887
21
86.993439
0
LINE
8
boundary
62
5
39
2
10
204.339887
20
86.993439
11
204.480918
21
87.727603
0
LINE
8
boundary
62
5
39
2
10
204.480918
20
87.727603
11
204.586359
21
88.276258
0
LINE
8
boundary
62
5
39
2
10
204.586359
20
88.276258
11
204.684567
21
88.826264
0
LINE
8
boundary
62
5
39
2
10
204.684567
20
88.826264
11
204.815972
21
89.562234
0
LINE
8
boundary
62
5
39
2
10
204.815972
20
89.562234
11
204.906982
21
90.113504
0
LINE
8
boundary
62
5
39
2
10
204.906982
20
90.113504
11
205.028762
21
90.851099
0
LINE
8
boundary
62
5
39
2
10
205.028762
20
90.851099
11
205.140916
21
91.590257
0
LINE
8
boundary
62
5
39
2
10
205.140916
20
91.590257
11
205.224696
21
92.142661
0
LINE
8
boundary
62
5
39
2
10
205.224696
20
92.142661
11
205.301240
21
92.696111
0
LINE
8
boundary
62
5
39
2
10
205.301240
20
92.696111
11
205.403642
21
93.436653
0
LINE
8
boundary
62
5
39
2
10
205.403642
20
93.436653
11
205.496362
21
94.178458
0
LINE
8
boundary
62
5
39
2
10
205.496362
20
94.178458
11
205.565666
21
94.732867
0
LINE
8
boundary
62
5
39
2
10
205.565666
20
94.732867
11
205.648697
21
95.475822
0
LINE
8
boundary
62
5
39
2
10
205.648697
20
95.475822
11
205.710728
21
96.031059
0
LINE
8
boundary
62
5
39
2
10
205.710728
20
96.031059
11
205.784014
21
96.775043
0
LINE
8
boundary
62
5
39
2
10
205.784014
20
96.775043
11
205.838801
21
97.331078
0
LINE
8
boundary
62
5
39
2
10
205.838801
20
97.331078
11
205.886272
21
97.887771
0
LINE
8
boundary
62
5
39
2
10
205.886272
20
97.887771
11
205.949806
21
98.632657
0
LINE
8
boundary
62
5
39
2
10
205.949806
20
98.632657
11
206.003539
21
99.378307
0
LINE
8
boundary
62
5
39
2
10
206.003539
20
99.378307
11
206.043728
21
99.935576
0
LINE
8
boundary
62
5
39
2
10
206.043728
20
99.935576
11
206.087769
21
100.681870
0
LINE
8
boundary
62
5
39
2
10
206.087769
20
100.681870
11
206.120679
21
101.239617
0
LINE
8
boundary
62
5
39
2
10
206.120679
20
101.239617
11
206.154911
21
101.986417
0
LINE
8
boundary
62
5
39
2
10
206.154911
20
101.986417
11
206.180498
21
102.544545
0
LINE
8
boundary
62
5
39
2
10
206.180498
20
102.544545
11
206.198762
21
103.102963
0
LINE
8
boundary
62
5
39
2
10
206.198762
20
103.102963
11
206.223193
21
103.850154
0
LINE
8
boundary
62
5
39
2
10
206.223193
20
103.850154
11
206.234176
21
104.408760
0
LINE
8
boundary
62
5
39
2
10
206.234176
20
104.408760
11
206.248855
21
105.156204
0
LINE
8
boundary
62
5
39
2
10
206.248855
20
105.156204
11
206.253792
21
105.903774
0
LINE
8
boundary
62
5
39
2
10
206.253792
20
105.903774
11
206.257453
21
106.462476
0
LINE
8
boundary
62
5
39
2
10
206.257453
20
106.462476
11
206.253792
21
107.021179
0
LINE
8
boundary
62
5
39
2
10
206.253792
20
107.021179
11
206.248855
21
107.768748
0
LINE
8
boundary
62
5
39
2
10
206.248855
20
107.768748
11
206.234176
21
108.516192
0
LINE
8
boundary
62
5
39
2
10
206.234176
20
108.516192
11
206.223193
21
109.074799
0
LINE
8
boundary
62
5
39
2
10
206.223193
20
109.074799
11
206.198762
21
109.821989
0
LINE
8
boundary
62
5
39
2
10
206.198762
20
109.821989
11
206.180498
21
110.380408
0
LINE
8
boundary
62
5
39
2
10
206.180498
20
110.380408
11
206.154912
21
110.938535
0
LINE
8
boundary
62
5
39
2
10
206.154912
20
110.938535
11
206.120679
21
111.685336
0
LINE
8
boundary
62
5
39
2
10
206.120679
20
111.685336
11
206.087769
21
112.243083
0
LINE
8
boundary
62
5
39
2
10
206.087769
20
112.243083
11
206.043728
21
112.989377
0
LINE
8
boundary
62
5
39
2
10
206.043728
20
112.989377
11
206.003539
21
113.546645
0
LINE
8
boundary
62
5
39
2
10
206.003539
20
113.546645
11
205.949806
21
114.292296
0
LINE
8
boundary
62
5
39
2
10
205.949806
20
114.292296
11
205.886272
21
115.037182
0
LINE
8
boundary
62
5
39
2
10
205.886272
20
115.037182
11
205.838801
21
115.593875
0
LINE
8
boundary
62
5
39
2
10
205.838801
20
115.593875
11
205.784014
21
116.149910
0
LINE
8
boundary
62
5
39
2
10
205.784014
20
116.149910
11
205.710728
21
116.893894
0
LINE
8
boundary
62
5
39
2
10
205.710728
20
116.893894
11
205.648698
21
117.449131
0
LINE
8
boundary
62
5
39
2
10
205.648698
20
117.449131
11
205.565666
21
118.192086
0
LINE
8
boundary
62
5
39
2
10
205.565666
20
118.192086
11
205.496362
21
118.746494
0
LINE
8
boundary
62
5
39
2
10
205.496362
20
118.746494
11
205.403642
21
119.488300
0
LINE
8
boundary
62
5
39
2
10
205.403642
20
119.488300
11
205.301240
21
120.228842
0
LINE
8
boundary
62
5
39
2
10
205.301240
20
120.228842
11
205.224696
21
120.782292
0
LINE
8
boundary
62
5
39
2
10
205.224696
20
120.782292
11
205.140916
21
121.334696
0
LINE
8
boundary
62
5
39
2
10
205.140916
20
121.334696
11
205.028762
21
122.073854
0
LINE
8
boundary
62
5
39
2
10
205.028762
20
122.073854
11
204.906982
21
122.811448
0
LINE
8
boundary
62
5
39
2
10
204.906982
20
122.811448
11
204.815972
21
123.362719
0
LINE
8
boundary
62
5
39
2
10
204.815972
20
123.362719
11
204.684567
21
124.098688
0
LINE
8
boundary
62
5
39
2
10
204.684567
20
124.098688
11
204.586359
21
124.648694
0
LINE
8
boundary
62
5
39
2
10
204.586359
20
124.648694
11
204.480919
21
125.197350
0
LINE
8
boundary
62
5
39
2
10
204.480919
20
125.197350
11
204.339887
21
125.931514
0
LINE
8
boundary
62
5
39
2
10
204.339887
20
125.931514
11
204.227296
21
126.478773
0
LINE
8
boundary
62
5
39
2
10
204.227296
20
126.478773
11
204.076636
21
127.211014
0
LINE
8
boundary
62
5
39
2
10
204.076636
20
127.211014
11
203.916410
21
127.941207
0
LINE
8
boundary
62
5
39
2
10
203.916410
20
127.941207
11
203.796671
21
128.486942
0
LINE
8
boundary
62
5
39
2
10
203.796671
20
128.486942
11
203.669824
21
129.031064
0
LINE
8
boundary
62
5
39
2
10
203.669824
20
129.031064
11
203.500089
21
129.759152
0
LINE
8
boundary
62
5
39
2
10
203.500089
20
129.759152
11
203.320791
21
130.484893
0
LINE
8
boundary
62
5
39
2
10
203.320791
20
130.484893
11
203.186800
21
131.027315
0
LINE
8
boundary
62
5
39
2
10
203.186800
20
131.027315
11
202.998059
21
131.750710
0
LINE
8
boundary
62
5
39
2
10
202.998059
20
131.750710
11
202.857006
21
132.291301
0
LINE
8
boundary
62
5
39
2
10
202.857006
20
132.291301
11
202.708848
21
132.830016
0
LINE
8
boundary
62
5
39
2
10
202.708848
20
132.830016
11
202.510649
21
133.550823
0
LINE
8
boundary
62
5
39
2
10
202.510649
20
133.550823
11
202.303015
21
134.269045
0
LINE
8
boundary
62
5
39
2
10
202.303015
20
134.269045
11
202.147837
21
134.805800
0
LINE
8
boundary
62
5
39
2
10
202.147837
20
134.805800
11
201.985686
21
135.340463
0
LINE
8
boundary
62
5
39
2
10
201.985686
20
135.340463
11
201.768661
21
136.055854
0
LINE
8
boundary
62
5
39
2
10
201.768661
20
136.055854
11
201.542313
21
136.768299
0
LINE
8
boundary
62
5
39
2
10
201.542313
20
136.768299
11
201.373100
21
137.300782
0
LINE
8
boundary
62
5
39
2
10
201.373100
20
137.300782
11
201.137421
21
138.010277
0
LINE
8
boundary
62
5
39
2
10
201.137421
20
138.010277
11
200.961323
21
138.540494
0
LINE
8
boundary
62
5
39
2
10
200.961323
20
138.540494
11
200.778249
21
139.068401
0
LINE
8
boundary
62
5
39
2
10
200.778249
20
139.068401
11
200.533306
21
139.774709
0
LINE
8
boundary
62
5
39
2
10
200.533306
20
139.774709
11
200.343389
21
140.300131
0
LINE
8
boundary
62
5
39
2
10
200.343389
20
140.300131
11
200.089238
21
141.003189
0
LINE
8
boundary
62
5
39
2
10
200.089238
20
141.003189
11
199.825886
21
141.702877
0
LINE
8
boundary
62
5
39
2
10
199.825886
20
141.702877
11
199.629082
21
142.225771
0
LINE
8
boundary
62
5
39
2
10
199.629082
20
142.225771
11
199.356646
21
142.921971
0
LINE
8
boundary
62
5
39
2
10
199.356646
20
142.921971
11
199.152998
21
143.442249
0
LINE
8
boundary
62
5
39
2
10
199.152998
20
143.442249
11
198.942549
21
143.959825
0
LINE
8
boundary
62
5
39
2
10
198.942549
20
143.959825
11
198.660962
21
144.652355
0
LINE
8
boundary
62
5
39
2
10
198.660962
20
144.652355
11
198.443799
21
145.167142
0
LINE
8
boundary
62
5
39
2
10
198.443799
20
145.167142
11
198.153190
21
145.855939
0
LINE
8
boundary
62
5
39
2
10
198.153190
20
145.855939
11
197.853619
21
146.540827
0
LINE
8
boundary
62
5
39
2
10
197.853619
20
146.540827
11
197.629704
21
147.052694
0
LINE
8
boundary
62
5
39
2
10
197.629704
20
147.052694
11
197.321164
21
147.733668
0
LINE
8
boundary
62
5
39
2
10
197.321164
20
147.733668
11
197.090576
21
148.242613
0
LINE
8
boundary
62
5
39
2
10
197.090576
20
148.242613
11
196.853366
21
148.748463
0
LINE
8
boundary
62
5
39
2
10
196.853366
20
148.748463
11
196.535921
21
149.425288
0
LINE
8
boundary
62
5
39
2
10
196.535921
20
149.425288
11
196.292083
21
149.928001
0
LINE
8
boundary
62
5
39
2
10
196.292083
20
149.928001
11
195.965858
21
150.600676
0
LINE
8
boundary
62
5
39
2
10
195.965858
20
150.600676
11
195.630783
21
151.268955
0
LINE
8
boundary
62
5
39
2
10
195.630783
20
151.268955
11
195.380410
21
151.768398
0
LINE
8
boundary
62
5
39
2
10
195.380410
20
151.768398
11
195.036675
21
152.432288
0
LINE
8
boundary
62
5
39
2
10
195.036675
20
152.432288
11
194.779761
21
152.928462
0
LINE
8
boundary
62
5
39
2
10
194.779761
20
152.928462
11
194.427359
21
153.587776
0
LINE
8
boundary
62
5
39
2
10
194.427359
20
153.587776
11
194.163993
21
154.080505
0
LINE
8
boundary
62
5
39
2
10
194.163993
20
154.080505
11
193.894176
21
154.569749
0
LINE
8
boundary
62
5
39
2
10
193.894176
20
154.569749
11
193.533170
21
155.224373
0
LINE
8
boundary
62
5
39
2
10
193.533170
20
155.224373
11
193.256990
21
155.710043
0
LINE
8
boundary
62
5
39
2
10
193.256990
20
155.710043
11
192.887437
21
156.359914
0
LINE
8
boundary
62
5
39
2
10
192.887437
20
156.359914
11
192.604894
21
156.841964
0
LINE
8
boundary
62
5
39
2
10
192.604894
20
156.841964
11
192.226864
21
157.486959
0
LINE
8
boundary
62
5
39
2
10
192.226864
20
157.486959
11
191.840465
21
158.126901
0
LINE
8
boundary
62
5
39
2
10
191.840465
20
158.126901
11
191.551688
21
158.605160
0
LINE
8
boundary
62
5
39
2
10
191.551688
20
158.605160
11
191.256636
21
159.079628
0
LINE
8
boundary
62
5
39
2
10
191.256636
20
159.079628
11
190.861819
21
159.714517
0
LINE
8
boundary
62
5
39
2
10
190.861819
20
159.714517
11
190.560574
21
160.185102
0
LINE
8
boundary
62
5
39
2
10
190.560574
20
160.185102
11
190.157513
21
160.814695
0
LINE
8
boundary
62
5
39
2
10
190.157513
20
160.814695
11
189.746265
21
161.438995
0
LINE
8
boundary
62
5
39
2
10
189.746265
20
161.438995
11
189.438919
21
161.905529
0
LINE
8
boundary
62
5
39
2
10
189.438919
20
161.905529
11
189.019552
21
162.524411
0
LINE
8
boundary
62
5
39
2
10
189.019552
20
162.524411
11
188.706103
21
162.986934
0
LINE
8
boundary
62
5
39
2
10
188.706103
20
162.986934
11
188.386637
21
163.445316
0
LINE
8
boundary
62
5
39
2
10
188.386637
20
163.445316
11
187.959144
21
164.058664
0
LINE
8
boundary
62
5
39
2
10
187.959144
20
164.058664
11
187.523711
21
164.666297
0
LINE
8
boundary
62
5
39
2
10
187.523711
20
164.666297
11
187.198277
21
165.120451
0
LINE
8
boundary
62
5
39
2
10
187.198277
20
165.120451
11
186.754904
21
165.722368
0
LINE
8
boundary
62
5
39
2
10
186.754904
20
165.722368
11
186.423542
21
166.172206
0
LINE
8
boundary
62
5
39
2
10
186.423542
20
166.172206
11
186.086338
21
166.617687
0
LINE
8
boundary
62
5
39
2
10
186.086338
20
166.617687
11
185.635141
21
167.213767
0
LINE
8
boundary
62
5
39
2
10
185.635141
20
167.213767
11
185.292137
21
167.654801
0
LINE
8
boundary
62
5
39
2
10
185.292137
20
167.654801
11
184.833120
21
168.244925
0
LINE
8
boundary
62
5
39
2
10
184.833120
20
168.244925
11
184.366460
21
168.828971
0
LINE
8
boundary
62
5
39
2
10
184.366460
20
168.828971
11
184.017704
21
169.265471
0
LINE
8
boundary
62
5
39
2
10
184.017704
20
169.265471
11
183.543463
21
169.843378
0
LINE
8
boundary
62
5
39
2
10
183.543463
20
169.843378
11
183.188998
21
170.275258
0
LINE
8
boundary
62
5
39
2
10
183.188998
20
170.275258
11
182.828951
21
170.702474
0
LINE
8
boundary
62
5
39
2
10
182.828951
20
170.702474
11
182.347128
21
171.274127
0
LINE
8
boundary
62
5
39
2
10
182.347128
20
171.274127
11
181.857906
21
171.839402
0
LINE
8
boundary
62
5
39
2
10
181.857906
20
171.839402
11
181.492282
21
172.261869
0
LINE
8
boundary
62
5
39
2
10
181.492282
20
172.261869
11
181.121122
21
172.679494
0
LINE
8
boundary
62
5
39
2
10
181.121122
20
172.679494
11
180.624558
21
173.238329
0
LINE
8
boundary
62
5
39
2
10
180.624558
20
173.238329
11
180.247992
21
173.651116
0
LINE
8
boundary
62
5
39
2
10
180.247992
20
173.651116
11
179.744151
21
174.203394
0
LINE
8
boundary
62
5
39
2
10
179.744151
20
174.203394
11
179.362224
21
174.611171
0
LINE
8
boundary
62
5
39
2
10
179.362224
20
174.611171
11
178.851159
21
175.156770
0
LINE
8
boundary
62
5
39
2
10
178.851159
20
175.156770
11
178.332997
21
175.695690
0
LINE
8
boundary
62
5
39
2
10
178.332997
20
175.695690
11
177.945751
21
176.098450
0
LINE
8
boundary
62
5
39
2
10
177.945751
20
176.098450
11
177.420608
21
176.630512
0
LINE
8
boundary
62
5
39
2
10
177.420608
20
176.630512
11
177.028133
21
177.028133
0
LINE
8
boundary
62
5
39
2
10
177.028133
20
177.028133
11
176.630513
21
177.420607
0
LINE
8
boundary
62
5
39
2
10
176.630513
20
177.420607
11
176.098451
21
177.945750
0
LINE
8
boundary
62
5
39
2
10
176.098451
20
177.945750
11
175.695691
21
178.332997
0
LINE
8
boundary
62
5
39
2
10
175.695691
20
178.332997
11
175.156771
21
178.851159
0
LINE
8
boundary
62
5
39
2
10
175.156771
20
178.851159
11
174.611172
21
179.362224
0
LINE
8
boundary
62
5
39
2
10
174.611172
20
179.362224
11
174.203395
21
179.744150
0
LINE
8
boundary
62
5
39
2
10
174.203395
20
179.744150
11
173.651116
21
180.247991
0
LINE
8
boundary
62
5
39
2
10
173.651116
20
180.247991
11
173.238330
21
180.624557
0
LINE
8
boundary
62
5
39
2
10
173.238330
20
180.624557
11
172.679495
21
181.121122
0
LINE
8
boundary
62
5
39
2
10
172.679495
20
181.121122
11
172.261869
21
181.492282
0
LINE
8
boundary
62
5
39
2
10
172.261869
20
181.492282
11
171.839403
21
181.857906
0
LINE
8
boundary
62
5
39
2
10
171.839403
20
181.857906
11
171.274127
21
182.347128
0
LINE
8
boundary
62
5
39
2
10
171.274127
20
182.347128
11
170.702475
21
182.828950
0
LINE
8
boundary
62
5
39
2
10
170.702475
20
182.828950
11
170.275258
21
183.188997
0
LINE
8
boundary
62
5
39
2
10
170.275258
20
183.188997
11
169.843379
21
183.543463
0
LINE
8
boundary
62
5
39
2
10
169.843379
20
183.543463
11
169.265471
21
184.017704
0
LINE
8
boundary
62
5
39
2
10
169.265471
20
184.017704
11
168.828971
21
184.366460
0
LINE
8
boundary
62
5
39
2
10
168.828971
20
184.366460
11
168.244926
21
184.833119
0
LINE
8
boundary
62
5
39
2
10
168.244926
20
184.833119
11
167.654801
21
185.292137
0
LINE
8
boundary
62
5
39
2
10
167.654801
20
185.292137
11
167.213768
21
185.635141
0
LINE
8
boundary
62
5
39
2
10
167.213768
20
185.635141
11
166.617687
21
186.086338
0
LINE
8
boundary
62
5
39
2
10
166.617687
20
186.086338
11
166.172207
21
186.423541
0
LINE
8
boundary
62
5
39
2
10
166.172207
20
186.423541
11
165.722368
21
186.754904
0
LINE
8
boundary
62
5
39
2
10
165.722368
20
186.754904
11
165.120451
21
187.198276
0
LINE
8
boundary
62
5
39
2
10
165.120451
20
187.198276
11
164.666298
21
187.523711
0
LINE
8
boundary
62
5
39
2
10
164.666298
20
187.523711
11
164.058664
21
187.959144
0
LINE
8
boundary
62
5
39
2
10
164.058664
20
187.959144
11
163.445316
21
188.386637
0
LINE
8
boundary
62
5
39
2
10
163.445316
20
188.386637
11
162.986934
21
188.706103
0
LINE
8
boundary
62
5
39
2
10
162.986934
20
188.706103
11
162.524411
21
189.019552
0
LINE
8
boundary
62
5
39
2
10
162.524411
20
189.019552
11
161.905529
21
189.438919
0
LINE
8
boundary
62
5
39
2
10
161.905529
20
189.438919
11
161.438996
21
189.746265
0
LINE
8
boundary
62
5
39
2
10
161.438996
20
189.746265
11
160.814695
21
190.157512
0
LINE
8
boundary
62
5
39
2
10
160.814695
20
190.157512
11
160.185103
21
190.560574
0
LINE
8
boundary
62
5
39
2
10
160.185103
20
190.560574
11
159.714517
21
190.861819
0
LINE
8
boundary
62
5
39
2
10
159.714517
20
190.861819
11
159.079628
21
191.256636
0
LINE
8
boundary
62
5
39
2
10
159.079628
20
191.256636
11
158.605160
21
191.551688
0
LINE
8
boundary
62
5
39
2
10
158.605160
20
191.551688
11
158.126901
21
191.840465
0
LINE
8
boundary
62
5
39
2
10
158.126901
20
191.840465
11
157.486960
21
192.226863
0
LINE
8
boundary
62
5
39
2
10
157.486960
20
192.226863
11
156.841964
21
192.604894
0
LINE
8
boundary
62
5
39
2
10
156.841964
20
192.604894
11
156.359915
21
192.887437
0
LINE
8
boundary
62
5
39
2
10
156.359915
20
192.887437
11
155.710044
21
193.256990
0
LINE
8
boundary
62
5
39
2
10
155.710044
20
193.256990
11
155.224374
21
193.533170
0
LINE
8
boundary
62
5
39
2
10
155.224374
20
193.533170
11
154.569749
21
193.894175
0
LINE
8
boundary
62
5
39
2
10
154.569749
20
193.894175
11
154.080505
21
194.163994
0
LINE
8
boundary
62
5
39
2
10
154.080505
20
194.163994
11
153.587777
21
194.427359
0
LINE
8
boundary
62
5
39
2
10
153.587777
20
194.427359
11
152.928462
21
194.779761
0
LINE
8
boundary
62
5
39
2
10
152.928462
20
194.779761
11
152.432288
21
195.036675
0
LINE
8
boundary
62
5
39
2
10
152.432288
20
195.036675
11
151.768398
21
195.380410
0
LINE
8
boundary
62
5
39
2
10
151.768398
20
195.380410
11
151.268955
21
195.630783
0
LINE
8
boundary
62
5
39
2
10
151.268955
20
195.630783
11
150.600676
21
195.965857
0
LINE
8
boundary
62
5
39
2
10
150.600676
20
195.965857
11
149.928001
21
196.292083
0
LINE
8
boundary
62
5
39
2
10
149.928001
20
196.292083
11
149.425288
21
196.535920
0
LINE
8
boundary
62
5
39
2
10
149.425288
20
196.535920
11
148.748463
21
196.853366
0
LINE
8
boundary
62
5
39
2
10
148.748463
20
196.853366
11
148.242613
21
197.090576
0
LINE
8
boundary
62
5
39
2
10
148.242613
20
197.090576
11
147.733669
21
197.321164
0
LINE
8
boundary
62
5
39
2
10
147.733669
20
197.321164
11
147.052694
21
197.629704
0
LINE
8
boundary
62
5
39
2
10
147.052694
20
197.629704
11
146.540827
21
197.853618
0
LINE
8
boundary
62
5
39
2
10
146.540827
20
197.853618
11
145.855939
21
198.153190
0
LINE
8
boundary
62
5
39
2
10
145.855939
20
198.153190
11
145.167143
21
198.443799
0
LINE
8
boundary
62
5
39
2
10
145.167143
20
198.443799
11
144.652355
21
198.660961
0
LINE
8
boundary
62
5
39
2
10
144.652355
20
198.660961
11
143.959825
21
198.942549
0
LINE
8
boundary
62
5
39
2
10
143.959825
20
198.942549
11
143.442250
21
199.152998
0
LINE
8
boundary
62
5
39
2
10
143.442250
20
199.152998
11
142.921971
21
199.356646
0
LINE
8
boundary
62
5
39
2
10
142.921971
20
199.356646
11
142.225771
21
199.629082
0
LINE
8
boundary
62
5
39
2
10
142.225771
20
199.629082
11
141.702877
21
199.825886
0
LINE
8
boundary
62
5
39
2
10
141.702877
20
199.825886
11
141.003189
21
200.089237
0
LINE
8
boundary
62
5
39
2
10
141.003189
20
200.089237
11
140.300131
21
200.343388
0
LINE
8
boundary
62
5
39
2
10
140.300131
20
200.343388
11
139.774709
21
200.533306
0
LINE
8
boundary
62
5
39
2
10
139.774709
20
200.533306
11
139.068401
21
200.778248
0
LINE
8
boundary
62
5
39
2
10
139.068401
20
200.778248
11
138.540494
21
200.961322
0
LINE
8
boundary
62
5
39
2
10
138.540494
20
200.961322
11
138.010277
21
201.137420
0
LINE
8
boundary
62
5
39
2
10
138.010277
20
201.137420
11
137.300782
21
201.373099
0
LINE
8
boundary
62
5
39
2
10
137.300782
20
201.373099
11
136.768299
21
201.542313
0
LINE
8
boundary
62
5
39
2
10
136.768299
20
201.542313
11
136.055854
21
201.768661
0
LINE
8
boundary
62
5
39
2
10
136.055854
20
201.768661
11
135.340463
21
201.985686
0
LINE
8
boundary
62
5
39
2
10
135.340463
20
201.985686
11
134.805800
21
202.147837
0
LINE
8
boundary
62
5
39
2
10
134.805800
20
202.147837
11
134.269045
21
202.303015
0
LINE
8
boundary
62
5
39
2
10
134.269045
20
202.303015
11
133.550823
21
202.510649
0
LINE
8
boundary
62
5
39
2
10
133.550823
20
202.510649
11
132.830017
21
202.708847
0
LINE
8
boundary
62
5
39
2
10
132.830017
20
202.708847
11
132.291301
21
202.857006
0
LINE
8
boundary
62
5
39
2
10
132.291301
20
202.857006
11
131.750710
21
202.998059
0
LINE
8
boundary
62
5
39
2
10
131.750710
20
202.998059
11
131.027315
21
203.186800
0
LINE
8
boundary
62
5
39
2
10
131.027315
20
203.186800
11
130.484894
21
203.320790
0
LINE
8
boundary
62
5
39
2
10
130.484894
20
203.320790
11
129.759152
21
203.500088
0
LINE
8
boundary
62
5
39
2
10
129.759152
20
203.500088
11
129.031064
21
203.669824
0
LINE
8
boundary
62
5
39
2
10
129.031064
20
203.669824
11
128.486942
21
203.796671
0
LINE
8
boundary
62
5
39
2
10
128.486942
20
203.796671
11
127.941207
21
203.916409
0
LINE
8
boundary
62
5
39
2
10
127.941207
20
203.916409
11
127.211014
21
204.076635
0
LINE
8
boundary
62
5
39
2
10
127.211014
20
204.076635
11
126.478774
21
204.227295
0
LINE
8
boundary
62
5
39
2
10
126.478774
20
204.227295
11
125.931514
21
204.339887
0
LINE
8
boundary
62
5
39
2
10
125.931514
20
204.339887
11
125.197350
21
204.480918
0
LINE
8
boundary
62
5
39
2
10
125.197350
20
204.480918
11
124.648695
21
204.586358
0
LINE
8
boundary
62
5
39
2
10
124.648695
20
204.586358
11
124.098689
21
204.684566
0
LINE
8
boundary
62
5
39
2
10
124.098689
20
204.684566
11
123.362719
21
204.815971
0
LINE
8
boundary
62
5
39
2
10
123.362719
20
204.815971
11
122.811449
21
204.906982
0
LINE
8
boundary
62
5
39
2
10
122.811449
20
204.906982
11
122.073855
21
205.028761
0
LINE
8
boundary
62
5
39
2
10
122.073855
20
205.028761
11
121.334696
21
205.140915
0
LINE
8
boundary
62
5
39
2
10
121.334696
20
205.140915
11
120.782292
21
205.224695
0
LINE
8
boundary
62
5
39
2
10
120.782292
20
205.224695
11
120.228842
21
205.301240
0
LINE
8
boundary
62
5
39
2
10
120.228842
20
205.301240
11
119.488300
21
205.403642
0
LINE
8
boundary
62
5
39
2
10
119.488300
20
205.403642
11
118.746495
21
205.496362
0
LINE
8
boundary
62
5
39
2
10
118.746495
20
205.496362
11
118.192086
21
205.565666
0
LINE
8
boundary
62
5
39
2
10
118.192086
20
205.565666
11
117.449131
21
205.648697
0
LINE
8
boundary
62
5
39
2
10
117.449131
20
205.648697
11
116.893895
21
205.710727
0
LINE
8
boundary
62
5
39
2
10
116.893895
20
205.710727
11
116.149910
21
205.784014
0
LINE
8
boundary
62
5
39
2
10
116.149910
20
205.784014
11
115.593875
21
205.838801
0
LINE
8
boundary
62
5
39
2
10
115.593875
20
205.838801
11
115.037182
21
205.886272
0
LINE
8
boundary
62
5
39
2
10
115.037182
20
205.886272
11
114.292296
21
205.949806
0
LINE
8
boundary
62
5
39
2
10
114.292296
20
205.949806
11
113.546645
21
206.003539
0
LINE
8
boundary
62
5
39
2
10
113.546645
20
206.003539
11
112.989377
21
206.043728
0
LINE
8
boundary
62
5
39
2
10
112.989377
20
206.043728
11
112.243083
21
206.087769
0
LINE
8
boundary
62
5
39
2
10
112.243083
20
206.087769
11
111.685336
21
206.120679
0
LINE
8
boundary
62
5
39
2
10
111.685336
20
206.120679
11
110.938535
21
206.154911
0
LINE
8
boundary
62
5
39
2
10
110.938535
20
206.154911
11
110.380409
21
206.180497
0
LINE
8
boundary
62
5
39
2
10
110.380409
20
206.180497
11
109.821990
21
206.198762
0
LINE
8
boundary
62
5
39
2
10
109.821990
20
206.198762
11
109.074799
21
206.223193
0
LINE
8
boundary
62
5
39
2
10
109.074799
20
206.223193
11
108.516192
21
206.234175
0
LINE
8
boundary
62
5
39
2
10
108.516192
20
206.234175
11
107.768749
21
206.248855
0
LINE
8
boundary
62
5
39
2
10
107.768749
20
206.248855
11
107.021179
21
206.253792
0
LINE
8
boundary
62
5
39
2
10
107.021179
20
206.253792
11
106.462477
21
206.257453
0
LINE
8
boundary
62
5
39
2
10
106.462477
20
206.257453
11
105.903774
21
206.253792
0
LINE
8
boundary
62
5
39
2
10
105.903774
20
206.253792
11
105.156204
21
206.248855
0
LINE
8
boundary
62
5
39
2
10
105.156204
20
206.248855
11
104.408761
21
206.234176
0
LINE
8
boundary
62
5
39
2
10
104.408761
20
206.234176
11
103.850154
21
206.223193
0
LINE
8
boundary
62
5
39
2
10
103.850154
20
206.223193
11
103.102964
21
206.198762
0
LINE
8
boundary
62
5
39
2
10
103.102964
20
206.198762
11
102.544545
21
206.180497
0
LINE
8
boundary
62
5
39
2
10
102.544545
20
206.180497
11
101.986418
21
206.154911
0
LINE
8
boundary
62
5
39
2
10
101.986418
20
206.154911
11
101.239618
21
206.120679
0
LINE
8
boundary
62
5
39
2
10
101.239618
20
206.120679
11
100.681870
21
206.087768
0
LINE
8
boundary
62
5
39
2
10
100.681870
20
206.087768
11
99.935576
21
206.043728
0
LINE
8
boundary
62
5
39
2
10
99.935576
20
206.043728
11
99.378308
21
206.003539
0
LINE
8
boundary
62
5
39
2
10
99.378308
20
206.003539
11
98.632657
21
205.949806
0
LINE
8
boundary
62
5
39
2
10
98.632657
20
205.949806
11
97.887771
21
205.886272
0
LINE
8
boundary
62
5
39
2
10
97.887771
20
205.886272
11
97.331079
21
205.838801
0
LINE
8
boundary
62
5
39
2
10
97.331079
20
205.838801
11
96.775043
21
205.784014
0
LINE
8
boundary
62
5
39
2
10
96.775043
20
205.784014
11
96.031059
21
205.710728
0
LINE
8
boundary
62
5
39
2
10
96.031059
20
205.710728
11
95.475822
21
205.648697
0
LINE
8
boundary
62
5
39
2
10
95.475822
20
205.648697
11
94.732867
21
205.565666
0
LINE
8
boundary
62
5
39
2
10
94.732867
20
205.565666
11
94.178459
21
205.496362
0
LINE
8
boundary
62
5
39
2
10
94.178459
20
205.496362
11
93.436653
21
205.403642
0
LINE
8
boundary
62
5
39
2
10
93.436653
20
205.403642
11
92.696111
21
205.301240
0
LINE
8
boundary
62
5
39
2
10
92.696111
20
205.301240
11
92.142661
21
205.224695
0
LINE
8
boundary
62
5
39
2
10
92.142661
20
205.224695
11
91.590257
21
205.140916
0
LINE
8
boundary
62
5
39
2
10
91.590257
20
205.140916
11
90.851099
21
205.028761
0
LINE
8
boundary
62
5
39
2
10
90.851099
20
205.028761
11
90.113505
21
204.906982
0
LINE
8
boundary
62
5
39
2
10
90.113505
20
204.906982
11
89.562235
21
204.815971
0
LINE
8
boundary
62
5
39
2
10
89.562235
20
204.815971
11
88.826265
21
204.684566
0
LINE
8
boundary
62
5
39
2
10
88.826265
20
204.684566
11
88.276258
21
204.586358
0
LINE
8
boundary
62
5
39
2
10
88.276258
20
204.586358
11
87.727603
21
204.480918
0
LINE
8
boundary
62
5
39
2
10
87.727603
20
204.480918
11
86.993439
21
204.339887
0
LINE
8
boundary
62
5
39
2
10
86.993439
20
204.339887
11
86.446180
21
204.227295
0
LINE
8
boundary
62
5
39
2
10
86.446180
20
204.227295
11
85.713939
21
204.076635
0
LINE
8
boundary
62
5
39
2
10
85.713939
20
204.076635
11
84.983746
21
203.916409
0
LINE
8
boundary
62
5
39
2
10
84.983746
20
203.916409
11
84.438011
21
203.796671
0
LINE
8
boundary
62
5
39
2
10
84.438011
20
203.796671
11
83.893889
21
203.669824
0
LINE
8
boundary
62
5
39
2
10
83.893889
20
203.669824
11
83.165801
21
203.500089
0
LINE
8
boundary
62
5
39
2
10
83.165801
20
203.500089
11
82.440060
21
203.320790
0
LINE
8
boundary
62
5
39
2
10
82.440060
20
203.320790
11
81.897638
21
203.186800
0
LINE
8
boundary
62
5
39
2
10
81.897638
20
203.186800
11
81.174244
21
202.998059
0
LINE
8
boundary
62
5
39
2
10
81.174244
20
202.998059
11
80.633652
21
202.857006
0
LINE
8
boundary
62
5
39
2
10
80.633652
20
202.857006
11
80.094936
21
202.708847
0
LINE
8
boundary
62
5
39
2
10
80.094936
20
202.708847
11
79.374130
21
202.510649
0
LINE
8
boundary
62
5
39
2
10
79.374130
20
202.510649
11
78.655909
21
202.303015
0
LINE
8
boundary
62
5
39
2
10
78.655909
20
202.303015
11
78.119153
21
202.147837
0
LINE
8
boundary
62
5
39
2
10
78.119153
20
202.147837
11
77.584490
21
201.985686
0
LINE
8
boundary
62
5
39
2
10
77.584490
20
201.985686
11
76.869099
21
201.768661
0
LINE
8
boundary
62
5
39
2
10
76.869099
20
201.768661
11
76.156654
21
201.542313
0
LINE
8
boundary
62
5
39
2
10
76.156654
20
201.542313
11
75.624171
21
201.373099
0
LINE
8
boundary
62
5
39
2
10
75.624171
20
201.373099
11
74.914676
21
201.137420
0
LINE
8
boundary
62
5
39
2
10
74.914676
20
201.137420
11
74.384459
21
200.961322
0
LINE
8
boundary
62
5
39
2
10
74.384459
20
200.961322
11
73.856552
21
200.778248
0
LINE
8
boundary
62
5
39
2
10
73.856552
20
200.778248
11
73.150244
21
200.533306
0
LINE
8
boundary
62
5
39
2
10
73.150244
20
200.533306
11
72.624822
21
200.343388
0
LINE
8
boundary
62
5
39
2
10
72.624822
20
200.343388
11
71.921764
21
200.089237
0
LINE
8
boundary
62
5
39
2
10
71.921764
20
200.089237
11
71.222076
21
199.825886
0
LINE
8
boundary
62
5
39
2
10
71.222076
20
199.825886
11
70.699182
21
199.629082
0
LINE
8
boundary
62
5
39
2
10
70.699182
20
199.629082
11
70.002982
21
199.356646
0
LINE
8
boundary
62
5
39
2
10
70.002982
20
199.356646
11
69.482704
21
199.152997
0
LINE
8
boundary
62
5
39
2
10
69.482704
20
199.152997
11
68.965128
21
198.942549
0
LINE
8
boundary
62
5
39
2
10
68.965128
20
198.942549
11
68.272598
21
198.660961
0
LINE
8
boundary
62
5
39
2
10
68.272598
20
198.660961
11
67.757811
21
198.443799
0
LINE
8
boundary
62
5
39
2
10
67.757811
20
198.443799
11
67.069014
21
198.153190
0
LINE
8
boundary
62
5
39
2
10
67.069014
20
198.153190
11
66.384126
21
197.853618
0
LINE
8
boundary
62
5
39
2
10
66.384126
20
197.853618
11
65.872259
21
197.629704
0
LINE
8
boundary
62
5
39
2
10
65.872259
20
197.629704
11
65.191285
21
197.321164
0
LINE
8
boundary
62
5
39
2
10
65.191285
20
197.321164
11
64.682340
21
197.090576
0
LINE
8
boundary
62
5
39
2
10
64.682340
20
197.090576
11
64.176490
21
196.853366
0
LINE
8
boundary
62
5
39
2
10
64.176490
20
196.853366
11
63.499665
21
196.535920
0
LINE
8
boundary
62
5
39
2
10
63.499665
20
196.535920
11
62.996952
21
196.292083
0
LINE
8
boundary
62
5
39
2
10
62.996952
20
196.292083
11
62.324278
21
195.965857
0
LINE
8
boundary
62
5
39
2
10
62.324278
20
195.965857
11
61.655998
21
195.630783
0
LINE
8
boundary
62
5
39
2
10
61.655998
20
195.630783
11
61.156555
21
195.380410
0
LINE
8
boundary
62
5
39
2
10
61.156555
20
195.380410
11
60.492666
21
195.036675
0
LINE
8
boundary
62
5
39
2
10
60.492666
20
195.036675
11
59.996491
21
194.779761
0
LINE
8
boundary
62
5
39
2
10
59.996491
20
194.779761
11
59.337177
21
194.427359
0
LINE
8
boundary
62
5
39
2
10
59.337177
20
194.427359
11
58.844448
21
194.163994
0
LINE
8
boundary
62
5
39
2
10
58.844448
20
194.163994
11
58.355204
21
193.894175
0
LINE
8
boundary
62
5
39
2
10
58.355204
20
193.894175
11
57.700580
21
193.533170
0
LINE
8
boundary
62
5
39
2
10
57.700580
20
193.533170
11
57.214910
21
193.256990
0
LINE
8
boundary
62
5
39
2
10
57.214910
20
193.256990
11
56.565039
21
192.887437
0
LINE
8
boundary
62
5
39
2
10
56.565039
20
192.887437
11
56.082989
21
192.604893
0
LINE
8
boundary
62
5
39
2
10
56.082989
20
192.604893
11
55.437994
21
192.226863
0
LINE
8
boundary
62
5
39
2
10
55.437994
20
192.226863
11
54.798052
21
191.840464
0
LINE
8
boundary
62
5
39
2
10
54.798052
20
191.840464
11
54.319793
21
191.551688
0
LINE
8
boundary
62
5
39
2
10
54.319793
20
191.551688
11
53.845325
21
191.256635
0
LINE
8
boundary
62
5
39
2
10
53.845325
20
191.256635
11
53.210436
21
190.861819
0
LINE
8
boundary
62
5
39
2
10
53.210436
20
190.861819
11
52.739851
21
190.560574
0
LINE
8
boundary
62
5
39
2
10
52.739851
20
190.560574
11
52.110258
21
190.157512
0
LINE
8
boundary
62
5
39
2
10
52.110258
20
190.157512
11
51.485957
21
189.746264
0
LINE
8
boundary
62
5
39
2
10
51.485957
20
189.746264
11
51.019424
21
189.438919
0
LINE
8
boundary
62
5
39
2
10
51.019424
20
189.438919
11
50.400543
21
189.019552
0
LINE
8
boundary
62
5
39
2
10
50.400543
20
189.019552
11
49.938019
21
188.706103
0
LINE
8
boundary
62
5
39
2
10
49.938019
20
188.706103
11
49.479637
21
188.386637
0
LINE
8
boundary
62
5
39
2
10
49.479637
20
188.386637
11
48.866289
21
187.959144
0
LINE
8
boundary
62
5
39
2
10
48.866289
20
187.959144
11
48.258656
21
187.523711
0
LINE
8
boundary
62
5
39
2
10
48.258656
20
187.523711
11
47.804502
21
187.198276
0
LINE
8
boundary
62
5
39
2
10
47.804502
20
187.198276
11
47.202585
21
186.754904
0
LINE
8
boundary
62
5
39
2
10
47.202585
20
186.754904
11
46.752747
21
186.423541
0
LINE
8
boundary
62
5
39
2
10
46.752747
20
186.423541
11
46.307266
21
186.086338
0
LINE
8
boundary
62
5
39
2
10
46.307266
20
186.086338
11
45.711186
21
185.635141
0
LINE
8
boundary
62
5
39
2
10
45.711186
20
185.635141
11
45.270152
21
185.292137
0
LINE
8
boundary
62
5
39
2
10
45.270152
20
185.292137
11
44.680028
21
184.833119
0
LINE
8
boundary
62
5
39
2
10
44.680028
20
184.833119
11
44.095982
21
184.366460
0
LINE
8
boundary
62
5
39
2
10
44.095982
20
184.366460
11
43.659482
21
184.017704
0
LINE
8
boundary
62
5
39
2
10
43.659482
20
184.017704
11
43.081575
21
183.543463
0
LINE
8
boundary
62
5
39
2
10
43.081575
20
183.543463
11
42.649695
21
183.188998
0
LINE
8
boundary
62
5
39
2
10
42.649695
20
183.188998
11
42.222479
21
182.828951
0
LINE
8
boundary
62
5
39
2
10
42.222479
20
182.828951
11
41.650826
21
182.347128
0
LINE
8
boundary
62
5
39
2
10
41.650826
20
182.347128
11
41.085550
21
181.857906
0
LINE
8
boundary
62
5
39
2
10
41.085550
20
181.857906
11
40.663084
21
181.492282
0
LINE
8
boundary
62
5
39
2
10
40.663084
20
181.492282
11
40.245459
21
181.121122
0
LINE
8
boundary
62
5
39
2
10
40.245459
20
181.121122
11
39.686624
21
180.624557
0
LINE
8
boundary
62
5
39
2
10
39.686624
20
180.624557
11
39.273837
21
180.247992
0
LINE
8
boundary
62
5
39
2
10
39.273837
20
180.247992
11
38.721559
21
179.744150
0
LINE
8
boundary
62
5
39
2
10
38.721559
20
179.744150
11
38.313782
21
179.362224
0
LINE
8
boundary
62
5
39
2
10
38.313782
20
179.362224
11
37.768183
21
178.851159
0
LINE
8
boundary
62
5
39
2
10
37.768183
20
178.851159
11
37.229263
21
178.332997
0
LINE
8
boundary
62
5
39
2
10
37.229263
20
178.332997
11
36.826503
21
177.945751
0
LINE
8
boundary
62
5
39
2
10
36.826503
20
177.945751
11
36.294441
21
177.420607
0
LINE
8
boundary
62
5
39
2
10
36.294441
20
177.420607
11
35.896820
21
177.028133
0
LINE
8
boundary
62
5
39
2
10
35.896820
20
177.028133
11
35.504346
21
176.630512
0
LINE
8
boundary
62
5
39
2
10
35.504346
20
176.630512
11
34.979202
21
176.098451
0
LINE
8
boundary
62
5
39
2
10
34.979202
20
176.098451
11
34.591957
21
175.695690
0
LINE
8
boundary
62
5
39
2
10
34.591957
20
175.695690
11
34.073794
21
175.156771
0
LINE
8
boundary
62
5
39
2
10
34.073794
20
175.156771
11
33.562729
21
174.611171
0
LINE
8
boundary
62
5
39
2
10
33.562729
20
174.611171
11
33.180803
21
174.203394
0
LINE
8
boundary
62
5
39
2
10
33.180803
20
174.203394
11
32.676962
21
173.651116
0
LINE
8
boundary
62
5
39
2
10
32.676962
20
173.651116
11
32.300396
21
173.238329
0
LINE
8
boundary
62
5
39
2
10
32.300396
20
173.238329
11
31.803831
21
172.679495
0
LINE
8
boundary
62
5
39
2
10
31.803831
20
172.679495
11
31.432671
21
172.261869
0
LINE
8
boundary
62
5
39
2
10
31.432671
20
172.261869
11
31.067047
21
171.839403
0
LINE
8
boundary
62
5
39
2
10
31.067047
20
171.839403
11
30.577825
21
171.274127
0
LINE
8
boundary
62
5
39
2
10
30.577825
20
171.274127
11
30.096003
21
170.702475
0
LINE
8
boundary
62
5
39
2
10
30.096003
20
170.702475
11
29.735956
21
170.275258
0
LINE
8
boundary
62
5
39
2
10
29.735956
20
170.275258
11
29.381490
21
169.843378
0
LINE
8
boundary
62
5
39
2
10
29.381490
20
169.843378
11
28.907249
21
169.265471
0
LINE
8
boundary
62
5
39
2
10
28.907249
20
169.265471
11
28.558493
21
168.828971
0
LINE
8
boundary
62
5
39
2
10
28.558493
20
168.828971
11
28.091834
21
168.244926
0
LINE
8
boundary
62
5
39
2
10
28.091834
20
168.244926
11
27.632816
21
167.654801
0
LINE
8
boundary
62
5
39
2
10
27.632816
20
167.654801
11
27.289812
21
167.213767
0
LINE
8
boundary
62
5
39
2
10
27.289812
20
167.213767
11
26.838615
21
166.617687
0
LINE
8
boundary
62
5
39
2
10
26.838615
20
166.617687
11
26.501412
21
166.172206
0
LINE
8
boundary
62
5
39
2
10
26.501412
20
166.172206
11
26.170050
21
165.722368
0
LINE
8
boundary
62
5
39
2
10
26.170050
20
165.722368
11
25.726677
21
165.120451
0
LINE
8
boundary
62
5
39
2
10
25.726677
20
165.120451
11
25.401242
21
164.666297
0
LINE
8
boundary
62
5
39
2
10
25.401242
20
164.666297
11
24.965809
21
164.058664
0
LINE
8
boundary
62
5
39
2
10
24.965809
20
164.058664
11
24.538316
21
163.445316
0
LINE
8
boundary
62
5
39
2
10
24.538316
20
163.445316
11
24.218850
21
162.986934
0
LINE
8
boundary
62
5
39
2
10
24.218850
20
162.986934
11
23.905401
21
162.524411
0
LINE
8
boundary
62
5
39
2
10
23.905401
20
162.524411
11
23.486035
21
161.905529
0
LINE
8
boundary
62
5
39
2
10
23.486035
20
161.905529
11
23.178688
21
161.438996
0
LINE
8
boundary
62
5
39
2
10
23.178688
20
161.438996
11
22.767441
21
160.814695
0
LINE
8
boundary
62
5
39
2
10
22.767441
20
160.814695
11
22.364379
21
160.185102
0
LINE
8
boundary
62
5
39
2
10
22.364379
20
160.185102
11
22.063134
21
159.714517
0
LINE
8
boundary
62
5
39
2
10
22.063134
20
159.714517
11
21.668318
21
159.079628
0
LINE
8
boundary
62
5
39
2
10
21.668318
20
159.079628
11
21.373265
21
158.605160
0
LINE
8
boundary
62
5
39
2
10
21.373265
20
158.605160
11
21.084489
21
158.126901
0
LINE
8
boundary
62
5
39
2
10
21.084489
20
158.126901
11
20.698090
21
157.486959
0
LINE
8
boundary
62
5
39
2
10
20.698090
20
157.486959
11
20.320060
21
156.841964
0
LINE
8
boundary
62
5
39
2
10
20.320060
20
156.841964
11
20.037516
21
156.359914
0
LINE
8
boundary
62
5
39
2
10
20.037516
20
156.359914
11
19.667964
21
155.710043
0
LINE
8
boundary
62
5
39
2
10
19.667964
20
155.710043
11
19.391783
21
155.224373
0
LINE
8
boundary
62
5
39
2
10
19.391783
20
155.224373
11
19.030777
21
154.569749
0
LINE
8
boundary
62
5
39
2
10
19.030777
20
154.569749
11
18.760960
21
154.080505
0
LINE
8
boundary
62
5
39
2
10
18.760960
20
154.080505
11
18.497594
21
153.587776
0
LINE
8
boundary
62
5
39
2
10
18.497594
20
153.587776
11
18.145192
21
152.928462
0
LINE
8
boundary
62
5
39
2
10
18.145192
20
152.928462
11
17.888278
21
152.432287
0
LINE
8
boundary
62
5
39
2
10
17.888278
20
152.432287
11
17.544543
21
151.768397
0
LINE
8
boundary
62
5
39
2
10
17.544543
20
151.768397
11
17.294170
21
151.268955
0
LINE
8
boundary
62
5
39
2
10
17.294170
20
151.268955
11
16.959096
21
150.600676
0
LINE
8
boundary
62
5
39
2
10
16.959096
20
150.600676
11
16.632870
21
149.928001
0
LINE
8
boundary
62
5
39
2
10
16.632870
20
149.928001
11
16.389033
21
149.425288
0
LINE
8
boundary
62
5
39
2
10
16.389033
20
149.425288
11
16.071587
21
148.748463
0
LINE
8
boundary
62
5
39
2
10
16.071587
20
148.748463
11
15.834377
21
148.242613
0
LINE
8
boundary
62
5
39
2
10
15.834377
20
148.242613
11
15.603789
21
147.733668
0
LINE
8
boundary
62
5
39
2
10
15.603789
20
147.733668
11
15.295249
21
147.052694
0
LINE
8
boundary
62
5
39
2
10
15.295249
20
147.052694
11
15.071335
21
146.540827
0
LINE
8
boundary
62
5
39
2
10
15.071335
20
146.540827
11
14.771763
21
145.855939
0
LINE
8
boundary
62
5
39
2
10
14.771763
20
145.855939
11
14.481154
21
145.167142
0
LINE
8
boundary
62
5
39
2
10
14.481154
20
145.167142
11
14.263992
21
144.652355
0
LINE
8
boundary
62
5
39
2
10
14.263992
20
144.652355
11
13.982404
21
143.959825
0
LINE
8
boundary
62
5
39
2
10
13.982404
20
143.959825
11
13.771956
21
143.442250
0
LINE
8
boundary
62
5
39
2
10
13.771956
20
143.442250
11
13.568308
21
142.921971
0
LINE
8
boundary
62
5
39
2
10
13.568308
20
142.921971
11
13.295871
21
142.225771
0
LINE
8
boundary
62
5
39
2
10
13.295871
20
142.225771
11
13.099067
21
141.702877
0
LINE
8
boundary
62
5
39
2
10
13.099067
20
141.702877
11
12.835716
21
141.003189
0
LINE
8
boundary
62
5
39
2
10
12.835716
20
141.003189
11
12.581565
21
140.300131
0
LINE
8
boundary
62
5
39
2
10
12.581565
20
140.300131
11
12.391648
21
139.774709
0
LINE
8
boundary
62
5
39
2
10
12.391648
20
139.774709
11
12.146705
21
139.068401
0
LINE
8
boundary
62
5
39
2
10
12.146705
20
139.068401
11
11.963631
21
138.540494
0
LINE
8
boundary
62
5
39
2
10
11.963631
20
138.540494
11
11.787533
21
138.010277
0
LINE
8
boundary
62
5
39
2
10
11.787533
20
138.010277
11
11.551854
21
137.300782
0
LINE
8
boundary
62
5
39
2
10
11.551854
20
137.300782
11
11.382640
21
136.768299
0
LINE
8
boundary
62
5
39
2
10
11.382640
20
136.768299
11
11.156292
21
136.055854
0
LINE
8
boundary
62
5
39
2
10
11.156292
20
136.055854
11
10.939267
21
135.340463
0
LINE
8
boundary
62
5
39
2
10
10.939267
20
135.340463
11
10.777116
21
134.805800
0
LINE
8
boundary
62
5
39
2
10
10.777116
20
134.805800
11
10.621938
21
134.269045
0
LINE
8
boundary
62
5
39
2
10
10.621938
20
134.269045
11
10.414304
21
133.550823
0
LINE
8
boundary
62
5
39
2
10
10.414304
20
133.550823
11
10.216106
21
132.830017
0
LINE
8
boundary
62
5
39
2
10
10.216106
20
132.830017
11
10.067947
21
132.291301
0
LINE
8
boundary
62
5
39
2
10
10.067947
20
132.291301
11
9.926894
21
131.750709
0
LINE
8
boundary
62
5
39
2
10
9.926894
20
131.750709
11
9.738153
21
131.027315
0
LINE
8
boundary
62
5
39
2
10
9.738153
20
131.027315
11
9.604163
21
130.484893
0
LINE
8
boundary
62
5
39
2
10
9.604163
20
130.484893
11
9.424865
21
129.759152
0
LINE
8
boundary
62
5
39
2
10
9.424865
20
129.759152
11
9.255129
21
129.031064
0
LINE
8
boundary
62
5
39
2
10
9.255129
20
129.031064
11
9.128282
21
128.486942
0
LINE
8
boundary
62
5
39
2
10
9.128282
20
128.486942
11
9.008544
21
127.941207
0
LINE
8
boundary
62
5
39
2
10
9.008544
20
127.941207
11
8.848318
21
127.211014
0
LINE
8
boundary
62
5
39
2
10
8.848318
20
127.211014
11
8.697658
21
126.478774
0
LINE
8
boundary
62
5
39
2
10
8.697658
20
126.478774
11
8.585066
21
125.931514
0
LINE
8
boundary
62
5
39
2
10
8.585066
20
125.931514
11
8.444035
21
125.197350
0
LINE
8
boundary
62
5
39
2
10
8.444035
20
125.197350
11
8.338594
21
124.648694
0
LINE
8
boundary
62
5
39
2
10
8.338594
20
124.648694
11
8.240387
21
124.098688
0
LINE
8
boundary
62
5
39
2
10
8.240387
20
124.098688
11
8.108982
21
123.362719
0
LINE
8
boundary
62
5
39
2
10
8.108982
20
123.362719
11
8.017971
21
122.811448
0
LINE
8
boundary
62
5
39
2
10
8.017971
20
122.811448
11
7.896192
21
122.073854
0
LINE
8
boundary
62
5
39
2
10
7.896192
20
122.073854
11
7.784037
21
121.334696
0
LINE
8
boundary
62
5
39
2
10
7.784037
20
121.334696
11
7.700258
21
120.782292
0
LINE
8
boundary
62
5
39
2
10
7.700258
20
120.782292
11
7.623713
21
120.228842
0
LINE
8
boundary
62
5
39
2
10
7.623713
20
120.228842
11
7.521311
21
119.488300
0
LINE
8
boundary
62
5
39
2
10
7.521311
20
119.488300
11
7.428591
21
118.746494
0
LINE
8
boundary
62
5
39
2
10
7.428591
20
118.746494
11
7.359287
21
118.192086
0
LINE
8
boundary
62
5
39
2
10
7.359287
20
118.192086
11
7.276256
21
117.449131
0
LINE
8
boundary
62
5
39
2
10
7.276256
20
117.449131
11
7.214225
21
116.893894
0
LINE
8
boundary
62
5
39
2
10
7.214225
20
116.893894
11
7.140939
21
116.149909
0
LINE
8
boundary
62
5
39
2
10
7.140939
20
116.149909
11
7.086152
21
115.593875
0
LINE
8
boundary
62
5
39
2
10
7.086152
20
115.593875
11
7.038681
21
115.037182
0
LINE
8
boundary
62
5
39
2
10
7.038681
20
115.037182
11
6.975148
21
114.292296
0
LINE
8
boundary
62
5
39
2
10
6.975148
20
114.292296
11
6.921414
21
113.546645
0
LINE
8
boundary
62
5
39
2
10
6.921414
20
113.546645
11
6.881225
21
112.989377
0
LINE
8
boundary
62
5
39
2
10
6.881225
20
112.989377
11
6.837185
21
112.243083
0
LINE
8
boundary
62
5
39
2
10
6.837185
20
112.243083
11
6.804274
21
111.685335
0
LINE
8
boundary
62
5
39
2
10
6.804274
20
111.685335
11
6.770042
21
110.938535
0
LINE
8
boundary
62
5
39
2
10
6.770042
20
110.938535
11
6.744456
21
110.380408
0
LINE
8
boundary
62
5
39
2
10
6.744456
20
110.380408
11
6.726191
21
109.821989
0
LINE
8
boundary
62
5
39
2
10
6.726191
20
109.821989
11
6.701761
21
109.074799
0
LINE
8
boundary
62
5
39
2
10
6.701761
20
109.074799
11
6.690778
21
108.516192
0
LINE
8
boundary
62
5
39
2
10
6.690778
20
108.516192
11
6.676099
21
107.768749
0
LINE
8
boundary
62
5
39
2
10
6.676099
20
107.768749
11
6.671161
21
107.021178
0
LINE
8
boundary
62
5
39
2
10
6.671161
20
107.021178
11
6.667500
21
106.462477
0
LINE
8
boundary
62
5
39
2
10
6.667500
20
106.462477
11
6.671161
21
105.903774
0
LINE
8
boundary
62
5
39
2
10
6.671161
20
105.903774
11
6.676098
21
105.156204
0
LINE
8
boundary
62
5
39
2
10
6.676098
20
105.156204
11
6.690777
21
104.408761
0
LINE
8
boundary
62
5
39
2
10
6.690777
20
104.408761
11
6.701761
21
103.850154
0
LINE
8
boundary
62
5
39
2
10
6.701761
20
103.850154
11
6.726192
21
103.102964
0
LINE
8
boundary
62
5
39
2
10
6.726192
20
103.102964
11
6.744456
21
102.544545
0
LINE
8
boundary
62
5
39
2
10
6.744456
20
102.544545
11
6.770042
21
101.986417
0
LINE
8
boundary
62
5
39
2
10
6.770042
20
101.986417
11
6.804274
21
101.239617
0
LINE
8
boundary
62
5
39
2
10
6.804274
20
101.239617
11
6.837185
21
100.681870
0
LINE
8
boundary
62
5
39
2
10
6.837185
20
100.681870
11
6.881225
21
99.935575
0
LINE
8
boundary
62
5
39
2
10
6.881225
20
99.935575
11
6.921415
21
99.378308
0
LINE
8
boundary
62
5
39
2
10
6.921415
20
99.378308
11
6.975147
21
98.632657
0
LINE
8
boundary
62
5
39
2
10
6.975147
20
98.632657
11
7.038681
21
97.887771
0
LINE
8
boundary
62
5
39
2
10
7.038681
20
97.887771
11
7.086152
21
97.331078
0
LINE
8
boundary
62
5
39
2
10
7.086152
20
97.331078
11
7.140939
21
96.775043
0
LINE
8
boundary
62
5
39
2
10
7.140939
20
96.775043
11
7.214225
21
96.031058
0
LINE
8
boundary
62
5
39
2
10
7.214225
20
96.031058
11
7.276256
21
95.475822
0
LINE
8
boundary
62
5
39
2
10
7.276256
20
95.475822
11
7.359287
21
94.732867
0
LINE
8
boundary
62
5
39
2
10
7.359287
20
94.732867
11
7.428591
21
94.178459
0
LINE
8
boundary
62
5
39
2
10
7.428591
20
94.178459
11
7.521311
21
93.436653
0
LINE
8
boundary
62
5
39
2
10
7.521311
20
93.436653
11
7.623713
21
92.696111
0
LINE
8
boundary
62
5
39
2
10
7.623713
20
92.696111
11
7.700258
21
92.142661
0
LINE
8
boundary
62
5
39
2
10
7.700258
20
92.142661
11
7.784038
21
91.590257
0
LINE
8
boundary
62
5
39
2
10
7.784038
20
91.590257
11
7.896192
21
90.851099
0
LINE
8
boundary
62
5
39
2
10
7.896192
20
90.851099
11
8.017971
21
90.113504
0
LINE
8
boundary
62
5
39
2
10
8.017971
20
90.113504
11
8.108982
21
89.562234
0
LINE
8
boundary
62
5
39
2
10
8.108982
20
89.562234
11
8.240387
21
88.826264
0
LINE
8
boundary
62
5
39
2
10
8.240387
20
88.826264
11
8.338594
21
88.276258
0
LINE
8
boundary
62
5
39
2
10
8.338594
20
88.276258
11
8.444035
21
87.727603
0
LINE
8
boundary
62
5
39
2
10
8.444035
20
87.727603
11
8.585066
21
86.993439
0
LINE
8
boundary
62
5
39
2
10
8.585066
20
86.993439
11
8.697658
21
86.446179
0
LINE
8
boundary
62
5
39
2
10
8.697658
20
86.446179
11
8.848318
21
85.713939
0
LINE
8
boundary
62
5
39
2
10
8.848318
20
85.713939
11
9.008544
21
84.983746
0
LINE
8
boundary
62
5
39
2
10
9.008544
20
84.983746
11
9.128282
21
84.438011
0
LINE
8
boundary
62
5
39
2
10
9.128282
20
84.438011
11
9.255129
21
83.893889
0
LINE
8
boundary
62
5
39
2
10
9.255129
20
83.893889
11
9.424865
21
83.165801
0
LINE
8
boundary
62
5
39
2
10
9.424865
20
83.165801
11
9.604163
21
82.440060
0
LINE
8
boundary
62
5
39
2
10
9.604163
20
82.440060
11
9.738153
21
81.897638
0
LINE
8
boundary
62
5
39
2
10
9.738153
20
81.897638
11
9.926894
21
81.174243
0
LINE
8
boundary
62
5
39
2
10
9.926894
20
81.174243
11
10.067947
21
80.633652
0
LINE
8
boundary
62
5
39
2
10
10.067947
20
80.633652
11
10.216106
21
80.094936
0
LINE
8
boundary
62
5
39
2
10
10.216106
20
80.094936
11
10.414304
21
79.374130
0
LINE
8
boundary
62
5
39
2
10
10.414304
20
79.374130
11
10.621938
21
78.655908
0
LINE
8
boundary
62
5
39
2
10
10.621938
20
78.655908
11
10.777116
21
78.119153
0
LINE
8
boundary
62
5
39
2
10
10.777116
20
78.119153
11
10.939267
21
77.584490
0
LINE
8
boundary
62
5
39
2
10
10.939267
20
77.584490
11
11.156292
21
76.869099
0
LINE
8
boundary
62
5
39
2
10
11.156292
20
76.869099
11
11.382640
21
76.156654
0
LINE
8
boundary
62
5
39
2
10
11.382640
20
76.156654
11
11.551854
21
75.624171
0
LINE
8
boundary
62
5
39
2
10
11.551854
20
75.624171
11
11.787533
21
74.914676
0
LINE
8
boundary
62
5
39
2
10
11.787533
20
74.914676
11
11.963631
21
74.384459
0
LINE
8
boundary
62
5
39
2
10
11.963631
20
74.384459
11
12.146705
21
73.856552
0
LINE
8
boundary
62
5
39
2
10
12.146705
20
73.856552
11
12.391648
21
73.150244
0
LINE
8
boundary
62
5
39
2
10
12.391648
20
73.150244
11
12.581565
21
72.624822
0
LINE
8
boundary
62
5
39
2
10
12.581565
20
72.624822
11
12.835716
21
71.921764
0
LINE
8
boundary
62
5
39
2
10
12.835716
20
71.921764
11
13.099067
21
71.222076
0
LINE
8
boundary
62
5
39
2
10
13.099067
20
71.222076
11
13.295871
21
70.699182
0
LINE
8
boundary
62
5
39
2
10
13.295871
20
70.699182
11
13.568307
21
70.002982
0
LINE
8
boundary
62
5
39
2
10
13.568307
20
70.002982
11
13.771956
21
69.482703
0
LINE
8
boundary
62
5
39
2
10
13.771956
20
69.482703
11
13.982404
21
68.965128
0
LINE
8
boundary
62
5
39
2
10
13.982404
20
68.965128
11
14.263992
21
68.272598
0
LINE
8
boundary
62
5
39
2
10
14.263992
20
68.272598
11
14.481154
21
67.757811
0
LINE
8
boundary
62
5
39
2
10
14.481154
20
67.757811
11
14.771763
21
67.069014
0
LINE
8
boundary
62
5
39
2
10
14.771763
20
67.069014
11
15.071335
21
66.384125
0
LINE
8
boundary
62
5
39
2
10
15.071335
20
66.384125
11
15.295249
21
65.872259
0
LINE
8
boundary
62
5
39
2
10
15.295249
20
65.872259
11
15.603789
21
65.191285
0
LINE
8
boundary
62
5
39
2
10
15.603789
20
65.191285
11
15.834377
21
64.682340
0
LINE
8
boundary
62
5
39
2
10
15.834377
20
64.682340
11
16.071587
21
64.176490
0
LINE
8
boundary
62
5
39
2
10
16.071587
20
64.176490
11
16.389033
21
63.499665
0
LINE
8
boundary
62
5
39
2
10
16.389033
20
63.499665
11
16.632870
21
62.996952
0
LINE
8
boundary
62
5
39
2
10
16.632870
20
62.996952
11
16.959096
21
62.324277
0
LINE
8
boundary
62
5
39
2
10
16.959096
20
62.324277
11
17.294170
21
61.655998
0
LINE
8
boundary
62
5
39
2
10
17.294170
20
61.655998
11
17.544544
21
61.156555
0
LINE
8
boundary
62
5
39
2
10
17.544544
20
61.156555
11
17.888278
21
60.492665
0
LINE
8
boundary
62
5
39
2
10
17.888278
20
60.492665
11
18.145192
21
59.996491
0
LINE
8
boundary
62
5
39
2
10
18.145192
20
59.996491
11
18.497594
21
59.337176
0
LINE
8
boundary
62
5
39
2
10
18.497594
20
59.337176
11
18.760960
21
58.844448
0
LINE
8
boundary
62
5
39
2
10
18.760960
20
58.844448
11
19.030778
21
58.355204
0
LINE
8
boundary
62
5
39
2
10
19.030778
20
58.355204
11
19.391783
21
57.700579
0
LINE
8
boundary
62
5
39
2
10
19.391783
20
57.700579
11
19.667964
21
57.214909
0
LINE
8
boundary
62
5
39
2
10
19.667964
20
57.214909
11
20.037516
21
56.565038
0
LINE
8
boundary
62
5
39
2
10
20.037516
20
56.565038
11
20.320060
21
56.082989
0
LINE
8
boundary
62
5
39
2
10
20.320060
20
56.082989
11
20.698090
21
55.437994
0
LINE
8
boundary
62
5
39
2
10
20.698090
20
55.437994
11
21.084489
21
54.798052
0
LINE
8
boundary
62
5
39
2
10
21.084489
20
54.798052
11
21.373265
21
54.319793
0
LINE
8
boundary
62
5
39
2
10
21.373265
20
54.319793
11
21.668318
21
53.845325
0
LINE
8
boundary
62
5
39
2
10
21.668318
20
53.845325
11
22.063134
21
53.210436
0
LINE
8
boundary
62
5
39
2
10
22.063134
20
53.210436
11
22.364379
21
52.739850
0
LINE
8
boundary
62
5
39
2
10
22.364379
20
52.739850
11
22.767441
21
52.110258
0
LINE
8
boundary
62
5
39
2
10
22.767441
20
52.110258
11
23.178689
21
51.485957
0
LINE
8
boundary
62
5
39
2
10
23.178689
20
51.485957
11
23.486035
21
51.019424
0
LINE
8
boundary
62
5
39
2
10
23.486035
20
51.019424
11
23.905401
21
50.400542
0
LINE
8
boundary
62
5
39
2
10
23.905401
20
50.400542
11
24.218850
21
49.938018
0
LINE
8
boundary
62
5
39
2
10
24.218850
20
49.938018
11
24.538317
21
49.479637
0
LINE
8
boundary
62
5
39
2
10
24.538317
20
49.479637
11
24.965809
21
48.866289
0
LINE
8
boundary
62
5
39
2
10
24.965809
20
48.866289
11
25.401242
21
48.258655
0
LINE
8
boundary
62
5
39
2
10
25.401242
20
48.258655
11
25.726677
21
47.804502
0
LINE
8
boundary
62
5
39
2
10
25.726677
20
47.804502
11
26.170049
21
47.202585
0
LINE
8
boundary
62
5
39
2
10
26.170049
20
47.202585
11
26.501412
21
46.752746
0
LINE
8
boundary
62
5
39
2
10
26.501412
20
46.752746
11
26.838615
21
46.307266
0
LINE
8
boundary
62
5
39
2
10
26.838615
20
46.307266
11
27.289812
21
45.711185
0
LINE
8
boundary
62
5
39
2
10
27.289812
20
45.711185
11
27.632816
21
45.270152
0
LINE
8
boundary
62
5
39
2
10
27.632816
20
45.270152
11
28.091834
21
44.680027
0
LINE
8
boundary
62
5
39
2
10
28.091834
20
44.680027
11
28.558493
21
44.095982
0
LINE
8
boundary
62
5
39
2
10
28.558493
20
44.095982
11
28.907249
21
43.659482
0
LINE
8
boundary
62
5
39
2
10
28.907249
20
43.659482
11
29.381491
21
43.081575
0
LINE
8
boundary
62
5
39
2
10
29.381491
20
43.081575
11
29.735956
21
42.649695
0
LINE
8
boundary
62
5
39
2
10
29.735956
20
42.649695
11
30.096003
21
42.222478
0
LINE
8
boundary
62
5
39
2
10
30.096003
20
42.222478
11
30.577826
21
41.650826
0
LINE
8
boundary
62
5
39
2
10
30.577826
20
41.650826
11
31.067047
21
41.085550
0
LINE
8
boundary
62
5
39
2
10
31.067047
20
41.085550
11
31.432671
21
40.663084
0
LINE
8
boundary
62
5
39
2
10
31.432671
20
40.663084
11
31.803831
21
40.245458
0
LINE
8
annotation
62
1
39
211
10
186.298458
20
106.462476
11
186.298458
21
107.891226
0
LINE
8
annotation
62
1
39
211
10
26.626495
20
106.462476
11
28.055245
21
106.462476
0
LINE
8
annotation
62
1
39
211
10
144.907779
20
56.634852
11
144.907779
21
150.052291
0
LINE
8
annotation
62
1
39
211
10
144.907779
20
150.052291
11
124.139886
21
129.278540
0
LINE
8
hole
62
5
39
2
10
10.334829
20
212.235977
11
9.747286
21
212.800330
0
LINE
8
hole
62
5
39
2
10
9.747286
20
212.800330
11
9.298854
21
213.306498
0
LINE
8
hole
62
5
39
2
10
9.298854
20
213.306498
11
8.800807
21
213.950737
0
LINE
8
hole
62
5
39
2
10
8.800807
20
213.950737
11
8.356208
21
214.632963
0
LINE
8
hole
62
5
39
2
10
8.356208
20
214.632963
11
7.967954
21
215.348755
0
LINE
8
hole
62
5
39
2
10
7.967954
20
215.348755
11
7.638550
21
216.093463
0
LINE
8
hole
62
5
39
2
10
7.638550
20
216.093463
11
7.370143
21
216.862266
0
LINE
8
hole
62
5
39
2
10
7.370143
20
216.862266
11
7.164466
21
217.650174
0
LINE
8
hole
62
5
39
2
10
7.164466
20
217.650174
11
7.022860
21
218.452077
0
LINE
8
hole
62
5
39
2
10
7.022860
20
218.452077
11
6.946238
21
219.262773
0
LINE
8
hole
62
5
39
2
10
6.946238
20
219.262773
11
6.935098
21
220.077004
0
LINE
8
hole
62
5
39
2
10
6.935098
20
220.077004
11
6.989512
21
220.889491
0
LINE
8
hole
62
5
39
2
10
6.989512
20
220.889491
11
7.109125
21
221.694969
0
LINE
8
hole
62
5
39
2
10
7.109125
20
221.694969
11
7.293169
21
222.488208
0
LINE
8
hole
62
5
39
2
10
7.293169
20
222.488208
11
7.540441
21
223.264068
0
LINE
8
hole
62
5
39
2
10
7.540441
20
223.264068
11
7.849347
21
224.017509
0
LINE
8
hole
62
5
39
2
10
7.849347
20
224.017509
11
8.217872
21
224.743655
0
LINE
8
hole
62
5
39
2
10
8.217872
20
224.743655
11
8.643640
21
225.437790
0
LINE
8
hole
62
5
39
2
10
8.643640
20
225.437790
11
9.123875
21
226.095414
0
LINE
8
hole
62
5
39
2
10
9.123875
20
226.095414
11
9.655477
21
226.712263
0
LINE
8
hole
62
5
39
2
10
9.655477
20
226.712263
11
10.334829
21
227.380245
0
LINE
8
hole
62
5
39
2
10
10.334829
20
227.380245
11
10.965886
21
227.895491
0
LINE
8
hole
62
5
39
2
10
10.965886
20
227.895491
11
11.636361
21
228.358276
0
LINE
8
hole
62
5
39
2
10
11.636361
20
228.358276
11
12.341895
21
228.765624
0
LINE
8
hole
62
5
39
2
10
12.341895
20
228.765624
11
13.077924
21
229.114869
0
LINE
8
hole
62
5
39
2
10
13.077924
20
229.114869
11
13.839663
21
229.403758
0
LINE
8
hole
62
5
39
2
10
13.839663
20
229.403758
11
14.622175
21
229.630415
0
LINE
8
hole
62
5
39
2
10
14.622175
20
229.630415
11
15.420395
21
229.793375
0
LINE
8
hole
62
5
39
2
10
15.420395
20
229.793375
11
16.229137
21
229.891570
0
LINE
8
hole
62
5
39
2
10
16.229137
20
229.891570
11
17.043158
21
229.924378
0
LINE
8
hole
62
5
39
2
10
17.043158
20
229.924378
11
17.857179
21
229.891570
0
LINE
8
hole
62
5
39
2
10
17.857179
20
229.891570
11
18.665921
21
229.793375
0
LINE
8
hole
62
5
39
2
10
18.665921
20
229.793375
11
19.464142
21
229.630415
0
LINE
8
hole
62
5
39
2
10
19.464142
20
229.630415
11
20.246653
21
229.403758
0
LINE
8
hole
62
5
39
2
10
20.246653
20
229.403758
11
21.008392
21
229.114869
0
LINE
8
hole
62
5
39
2
10
21.008392
20
229.114869
11
21.744421
21
228.765624
0
LINE
8
hole
62
5
39
2
10
21.744421
20
228.765624
11
22.449955
21
228.358276
0
LINE
8
hole
62
5
39
2
10
22.449955
20
228.358276
11
23.120430
21
227.895491
0
LINE
8
hole
62
5
39
2
10
23.120430
20
227.895491
11
23.751488
21
227.380245
0
LINE
8
hole
62
5
39
2
10
23.751488
20
227.380245
11
24.339031
21
226.815893
0
LINE
8
hole
62
5
39
2
10
24.339031
20
226.815893
11
24.787462
21
226.309724
0
LINE
8
hole
62
5
39
2
10
24.787462
20
226.309724
11
25.285509
21
225.665485
0
LINE
8
hole
62
5
39
2
10
25.285509
20
225.665485
11
25.730109
21
224.983259
0
LINE
8
hole
62
5
39
2
10
25.730109
20
224.983259
11
26.118363
21
224.267467
0
LINE
8
hole
62
5
39
2
10
26.118363
20
224.267467
11
26.447766
21
223.522759
0
LINE
8
hole
62
5
39
2
10
26.447766
20
223.522759
11
26.716173
21
222.753956
0
LINE
8
hole
62
5
39
2
10
26.716173
20
222.753956
11
26.921850
21
221.966049
0
LINE
8
hole
62
5
39
2
10
26.921850
20
221.966049
11
27.063457
21
221.164145
0
LINE
8
hole
62
5
39
2
10
27.063457
20
221.164145
11
27.140078
21
220.353450
0
LINE
8
hole
62
5
39
2
10
27.140078
20
220.353450
11
27.151218
21
219.539218
0
LINE
8
hole
62
5
39
2
10
27.151218
20
219.539218
11
27.096805
21
218.726731
0
LINE
8
hole
62
5
39
2
10
27.096805
20
218.726731
11
26.977192
21
217.921253
0
LINE
8
hole
62
5
39
2
10
26.977192
20
217.921253
11
26.793148
21
217.128014
0
LINE
8
hole
62
5
39
2
10
26.793148
20
217.128014
11
26.545875
21
216.352154
0
LINE
8
hole
62
5
39
2
10
26.545875
20
216.352154
11
26.236969
21
215.598713
0
LINE
8
hole
62
5
39
2
10
26.236969
20
215.598713
11
25.868444
21
214.872567
0
LINE
8
hole
62
5
39
2
10
25.868444
20
214.872567
11
25.442676
21
214.178432
0
LINE
8
hole
62
5
39
2
10
25.442676
20
214.178432
11
24.962441
21
213.520808
0
LINE
8
hole
62
5
39
2
10
24.962441
20
213.520808
11
24.430839
21
212.903959
0
LINE
8
hole
62
5
39
2
10
24.430839
20
212.903959
11
23.751488
21
212.235977
0
LINE
8
hole
62
5
39
2
10
23.751488
20
212.235977
11
23.120430
21
211.720732
0
LINE
8
hole
62
5
39
2
10
23.120430
20
211.720732
11
22.449955
21
211.257946
0
LINE
8
hole
62
5
39
2
10
22.449955
20
211.257946
11
21.744421
21
210.850598
0
LINE
8
hole
62
5
39
2
10
21.744421
20
210.850598
11
21.008392
21
210.501353
0
LINE
8
hole
62
5
39
2
10
21.008392
20
210.501353
11
20.246653
21
210.212464
0
LINE
8
hole
62
5
39
2
10
20.246653
20
210.212464
11
19.464142
21
209.985808
0
LINE
8
hole
62
5
39
2
10
19.464142
20
209.985808
11
18.665921
21
209.822847
0
LINE
8
hole
62
5
39
2
10
18.665921
20
209.822847
11
17.857179
21
209.724652
0
LINE
8
hole
62
5
39
2
10
17.857179
20
209.724652
11
17.043158
21
209.691844
0
LINE
8
hole
62
5
39
2
10
17.043158
20
209.691844
11
16.229137
21
209.724652
0
LINE
8
hole
62
5
39
2
10
16.229137
20
209.724652
11
15.420395
21
209.822847
0
LINE
8
hole
62
5
39
2
10
15.420395
20
209.822847
11
14.622175
21
209.985808
0
LINE
8
hole
62
5
39
2
10
14.622175
20
209.985808
11
13.839663
21
210.212464
0
LINE
8
hole
62
5
39
2
10
13.839663
20
210.212464
11
13.077924
21
210.501353
0
LINE
8
hole
62
5
39
2
10
13.077924
20
210.501353
11
12.341895
21
210.850598
0
LINE
8
hole
62
5
39
2
10
12.341895
20
210.850598
11
11.636361
21
211.257946
0
LINE
8
hole
62
5
39
2
10
11.636361
20
211.257946
11
10.965886
21
211.720732
0
LINE
8
hole
62
5
39
2
10
10.965886
20
211.720732
11
10.334829
21
212.235977
0
LINE
8
boundary
62
5
39
2
10
9.706457
20
212.471410
11
10.674270
21
211.644825
0
LINE
8
boundary
62
5
39
2
10
10.674270
20
211.644825
11
12.029704
21
210.749020
0
LINE
8
boundary
62
5
39
2
10
12.029704
20
210.749020
11
13.508579
21
210.076276
0
LINE
8
boundary
62
5
39
2
10
13.508579
20
210.076276
11
15.074494
21
209.643160
0
LINE
8
boundary
62
5
39
2
10
15.074494
20
209.643160
11
16.688878
21
209.460336
0
LINE
8
boundary
62
5
39
2
10
16.688878
20
209.460336
11
18.311984
21
209.532315
0
LINE
8
boundary
62
5
39
2
10
18.311984
20
209.532315
11
19.903855
21
209.857318
0
LINE
8
boundary
62
5
39
2
10
19.903855
20
209.857318
11
21.425279
21
210.427340
0
LINE
8
boundary
62
5
39
2
10
21.425279
20
210.427340
11
22.838806
21
211.228345
0
LINE
8
boundary
62
5
39
2
10
22.838806
20
211.228345
11
24.109628
21
212.240612
0
LINE
8
boundary
62
5
39
2
10
24.109628
20
212.240612
11
24.610657
21
212.741642
0
LINE
8
boundary
62
5
39
2
10
24.610657
20
212.741642
11
25.437242
21
213.709455
0
LINE
8
boundary
62
5
39
2
10
25.437242
20
213.709455
11
26.287932
21
215.097666
0
LINE
8
boundary
62
5
39
2
10
26.287932
20
215.097666
11
26.910990
21
216.601856
0
LINE
8
boundary
62
5
39
2
10
26.910990
20
216.601856
11
27.291071
21
218.185005
0
LINE
8
boundary
62
5
39
2
10
27.291071
20
218.185005
11
27.418816
21
219.808111
0
LINE
8
boundary
62
5
39
2
10
27.418816
20
219.808111
11
27.291071
21
221.431217
0
LINE
8
boundary
62
5
39
2
10
27.291071
20
221.431217
11
26.910990
21
223.014366
0
LINE
8
boundary
62
5
39
2
10
26.910990
20
223.014366
11
26.287932
21
224.518556
0
LINE
8
boundary
62
5
39
2
10
26.287932
20
224.518556
11
25.437242
21
225.906768
0
LINE
8
boundary
62
5
39
2
10
25.437242
20
225.906768
11
24.379859
21
227.144812
0
LINE
8
boundary
62
5
39
2
10
24.379859
20
227.144812
11
23.412046
21
227.971397
0
LINE
8
boundary
62
5
39
2
10
23.412046
20
227.971397
11
22.056612
21
228.867203
0
LINE
8
boundary
62
5
39
2
10
22.056612
20
228.867203
11
20.577737
21
229.539946
0
LINE
8
boundary
62
5
39
2
10
20.577737
20
229.539946
11
19.011822
21
229.973062
0
LINE
8
boundary
62
5
39
2
10
19.011822
20
229.973062
11
17.397438
21
230.155886
0
LINE
8
boundary
62
5
39
2
10
17.397438
20
230.155886
11
15.774332
21
230.083907
0
LINE
8
boundary
62
5
39
2
10
15.774332
20
230.083907
11
14.182462
21
229.758904
0
LINE
8
boundary
62
5
39
2
10
14.182462
20
229.758904
11
12.661037
21
229.188882
0
LINE
8
boundary
62
5
39
2
10
12.661037
20
229.188882
11
11.247511
21
228.387878
0
LINE
8
boundary
62
5
39
2
10
11.247511
20
228.387878
11
9.976689
21
227.375610
0
LINE
8
boundary
62
5
39
2
10
9.976689
20
227.375610
11
9.475659
21
226.874581
0
LINE
8
boundary
62
5
39
2
10
9.475659
20
226.874581
11
8.649074
21
225.906768
0
LINE
8
boundary
62
5
39
2
10
8.649074
20
225.906768
11
7.798384
21
224.518556
0
LINE
8
boundary
62
5
39
2
10
7.798384
20
224.518556
11
7.175326
21
223.014366
0
LINE
8
boundary
62
5
39
2
10
7.175326
20
223.014366
11
6.795245
21
221.431217
0
LINE
8
boundary
62
5
39
2
10
6.795245
20
221.431217
11
6.667500
21
219.808111
0
LINE
8
boundary
62
5
39
2
10
6.667500
20
219.808111
11
6.795246
21
218.185005
0
LINE
8
boundary
62
5
39
2
10
6.795246
20
218.185005
11
7.175326
21
216.601856
0
LINE
8
boundary
62
5
39
2
10
7.175326
20
216.601856
11
7.798384
21
215.097666
0
LINE
8
boundary
62
5
39
2
10
7.798384
20
215.097666
11
8.649074
21
213.709455
0
LINE
8
boundary
62
5
39
2
10
8.649074
20
213.709455
11
9.706457
21
212.471410
0
LINE
8
annotation
62
1
39
211
10
6.868166
20
220.768604
11
6.909643
21
220.768604
0
LINE
8
annotation
62
1
39
211
10
6.909643
20
220.768604
11
6.909643
21
220.768604
0
LINE
8
annotation
62
1
39
211
10
6.909643
20
220.768604
11
6.917087
21
220.769273
0
LINE
8
annotation
62
1
39
211
10
6.917087
20
220.769273
11
6.924098
21
220.771203
0
LINE
8
annotation
62
1
39
211
10
6.924098
20
220.771203
11
6.930558
21
220.774275
0
LINE
8
annotation
62
1
39
211
10
6.930558
20
220.774275
11
6.936348
21
220.778373
0
LINE
8
annotation
62
1
39
211
10
6.936348
20
220.778373
11
6.941351
21
220.783379
0
LINE
8
annotation
62
1
39
211
10
6.941351
20
220.783379
11
6.945447
21
220.789174
0
LINE
8
annotation
62
1
39
211
10
6.945447
20
220.789174
11
6.948520
21
220.795643
0
LINE
8
annotation
62
1
39
211
10
6.948520
20
220.795643
11
6.950450
21
220.802666
0
LINE
8
annotation
62
1
39
211
10
6.950450
20
220.802666
11
6.951120
21
220.810128
0
LINE
8
annotation
62
1
39
211
10
6.951120
20
220.810128
11
6.951120
21
220.830790
0
LINE
8
annotation
62
1
39
211
10
6.951120
20
220.830790
11
6.951120
21
220.830790
0
LINE
8
annotation
62
1
39
211
10
6.951120
20
220.830790
11
6.950450
21
220.838248
0
LINE
8
annotation
62
1
39
211
10
6.950450
20
220.838248
11
6.948521
21
220.845262
0
LINE
8
annotation
62
1
39
211
10
6.948521
20
220.845262
11
6.945450
21
220.851716
0
LINE
8
annotation
62
1
39
211
10
6.945450
20
220.851716
11
6.941355
21
220.857495
0
LINE
8
annotation
62
1
39
211
10
6.941355
20
220.857495
11
6.936353
21
220.862483
0
LINE
8
annotation
62
1
39
211
10
6.936353
20
220.862483
11
6.930563
21
220.866564
0
LINE
8
annotation
62
1
39
211
10
6.930563
20
220.866564
11
6.924103
21
220.869623
0
LINE
8
annotation
62
1
39
211
10
6.924103
20
220.869623
11
6.917090
21
220.871543
0
LINE
8
annotation
62
1
39
211
10
6.917090
20
220.871543
11
6.909643
21
220.872208
0
LINE
8
annotation
62
1
39
211
10
6.909643
20
220.872208
11
6.868166
21
220.872208
0
LINE
8
annotation
62
1
39
211
10
6.868166
20
220.872208
11
6.868166
21
220.955385
0
LINE
8
annotation
62
1
39
211
10
6.868166
20
220.955385
11
6.951120
21
220.955385
0
LINE
8
frame
62
5
39
2
10
0.000000
20
0.000000
11
215.900000
21
0.000000
0
LINE
8
frame
62
5
39
2
10
215.900000
20
0.000000
11
215.900000
21
279.400000
0
LINE
8
frame
62
5
39
2
10
215.900000
20
279.400000
11
0.000000
21
279.400000
0
LINE
8
frame
62
5
39
2
10
0.000000
20
279.400000
11
0.000000
21
0.000000
0
ENDSEC
0
EOF
