0
SECTION
2
HEADER
9
$ACADVER
1
AC1009
0
ENDSEC
0
SECTION
2
TABLES
0
TABLE
2
VPORT
70
1
0
VPORT
2
ACTIVE
70
0
10
0.0
20
0.0
11
0.0
21
0.0
12
0.0
22
0.0
13
0.0
23
0.0
14
0.0
24
0.0
15
0.0
25
0.0
16
0.0
26
0.0
36
0.0
17
0.0
27
0.0
37
0.0
40
0.0
41
0.0
42
0.0
43
0.0
44
0.0
50
0.0
51
0.0
71
0
72
1000
73
1
74
3
75
0
76
0
77
0
78
0
0
ENDTAB
0
ENDSEC
0
SECTION
2
ENTITIES
0
LINE
8
hole
62
5
39
2
10
104.845507
20
183.616513
11
105.417007
21
183.616513
0
LINE
8
hole
62
5
39
2
10
105.417007
20
183.616513
11
105.417007
21
184.188013
0
LINE
8
hole
62
5
39
2
10
105.417007
20
184.188013
11
104.845507
21
184.188013
0
LINE
8
hole
62
5
39
2
10
104.845507
20
184.188013
11
104.845507
21
183.616513
0
LINE
8
hole
62
5
39
2
10
183.616513
20
104.845507
11
184.188013
21
104.845507
0
LINE
8
hole
62
5
39
2
10
184.188013
20
104.845507
11
184.188013
21
105.417007
0
LINE
8
hole
62
5
39
2
10
184.188013
20
105.417007
11
183.616513
21
105.417007
0
LINE
8
hole
62
5
39
2
10
183.616513
20
105.417007
11
183.616513
21
104.845507
0
LINE
8
hole
62
5
39
2
10
26.074501
20
104.845507
11
26.646001
21
104.845507
0
LINE
8
hole
62
5
39
2
10
26.646001
20
104.845507
11
26.646001
21
105.417007
0
LINE
8
hole
62
5
39
2
10
26.646001
20
105.417007
11
26.074501
21
105.417007
0
LINE
8
hole
62
5
39
2
10
26.074501
20
105.417007
11
26.074501
21
104.845507
0
LINE
8
hole
62
5
39
2
10
104.845507
20
26.074501
11
105.417007
21
26.074501
0
LINE
8
hole
62
5
39
2
10
105.417007
20
26.074501
11
105.417007
21
26.646001
0
LINE
8
hole
62
5
39
2
10
105.417007
20
26.646001
11
104.845507
21
26.646001
0
LINE
8
hole
62
5
39
2
10
104.845507
20
26.646001
11
104.845507
21
26.074501
0
LINE
8
hole
62
5
39
2
10
98.422928
20
97.559123
11
97.835385
21
98.123476
0
LINE
8
hole
62
5
39
2
10
97.835385
20
98.123476
11
97.295145
21
98.733274
0
LINE
8
hole
62
5
39
2
10
97.295145
20
98.733274
11
96.805736
21
99.384564
0
LINE
8
hole
62
5
39
2
10
96.805736
20
99.384564
11
96.370310
21
100.073124
0
LINE
8
hole
62
5
39
2
10
96.370310
20
100.073124
11
95.991714
21
100.794491
0
LINE
8
hole
62
5
39
2
10
95.991714
20
100.794491
11
95.672382
21
101.543977
0
LINE
8
hole
62
5
39
2
10
95.672382
20
101.543977
11
95.414401
21
102.316736
0
LINE
8
hole
62
5
39
2
10
95.414401
20
102.316736
11
95.219432
21
103.107744
0
LINE
8
hole
62
5
39
2
10
95.219432
20
103.107744
11
95.088751
21
103.911879
0
LINE
8
hole
62
5
39
2
10
95.088751
20
103.911879
11
95.023197
21
104.723918
0
LINE
8
hole
62
5
39
2
10
95.023197
20
104.723918
11
95.023197
21
105.538597
0
LINE
8
hole
62
5
39
2
10
95.023197
20
105.538597
11
95.088751
21
106.350636
0
LINE
8
hole
62
5
39
2
10
95.088751
20
106.350636
11
95.219432
21
107.154770
0
LINE
8
hole
62
5
39
2
10
95.219432
20
107.154770
11
95.414401
21
107.945779
0
LINE
8
hole
62
5
39
2
10
95.414401
20
107.945779
11
95.672382
21
108.718538
0
LINE
8
hole
62
5
39
2
10
95.672382
20
108.718538
11
95.991714
21
109.468023
0
LINE
8
hole
62
5
39
2
10
95.991714
20
109.468023
11
96.370310
21
110.189391
0
LINE
8
hole
62
5
39
2
10
96.370310
20
110.189391
11
96.805736
21
110.877951
0
LINE
8
hole
62
5
39
2
10
96.805736
20
110.877951
11
97.295145
21
111.529241
0
LINE
8
hole
62
5
39
2
10
97.295145
20
111.529241
11
97.835385
21
112.139039
0
LINE
8
hole
62
5
39
2
10
97.835385
20
112.139039
11
98.422928
21
112.703392
0
LINE
8
hole
62
5
39
2
10
98.422928
20
112.703392
11
99.053985
21
113.218637
0
LINE
8
hole
62
5
39
2
10
99.053985
20
113.218637
11
99.724460
21
113.681422
0
LINE
8
hole
62
5
39
2
10
99.724460
20
113.681422
11
100.429994
21
114.088771
0
LINE
8
hole
62
5
39
2
10
100.429994
20
114.088771
11
101.166023
21
114.438015
0
LINE
8
hole
62
5
39
2
10
101.166023
20
114.438015
11
101.927762
21
114.726905
0
LINE
8
hole
62
5
39
2
10
101.927762
20
114.726905
11
102.710274
21
114.953561
0
LINE
8
hole
62
5
39
2
10
102.710274
20
114.953561
11
103.508494
21
115.116521
0
LINE
8
hole
62
5
39
2
10
103.508494
20
115.116521
11
104.317236
21
115.214716
0
LINE
8
hole
62
5
39
2
10
104.317236
20
115.214716
11
105.131257
21
115.247525
0
LINE
8
hole
62
5
39
2
10
105.131257
20
115.247525
11
105.945279
21
115.214717
0
LINE
8
hole
62
5
39
2
10
105.945279
20
115.214717
11
106.754021
21
115.116521
0
LINE
8
hole
62
5
39
2
10
106.754021
20
115.116521
11
107.552241
21
114.953561
0
LINE
8
hole
62
5
39
2
10
107.552241
20
114.953561
11
108.334752
21
114.726905
0
LINE
8
hole
62
5
39
2
10
108.334752
20
114.726905
11
109.096491
21
114.438015
0
LINE
8
hole
62
5
39
2
10
109.096491
20
114.438015
11
109.832520
21
114.088771
0
LINE
8
hole
62
5
39
2
10
109.832520
20
114.088771
11
110.538054
21
113.681422
0
LINE
8
hole
62
5
39
2
10
110.538054
20
113.681422
11
111.208529
21
113.218637
0
LINE
8
hole
62
5
39
2
10
111.208529
20
113.218637
11
111.839587
21
112.703392
0
LINE
8
hole
62
5
39
2
10
111.839587
20
112.703392
11
112.427130
21
112.139039
0
LINE
8
hole
62
5
39
2
10
112.427130
20
112.139039
11
112.967370
21
111.529241
0
LINE
8
hole
62
5
39
2
10
112.967370
20
111.529241
11
113.456779
21
110.877951
0
LINE
8
hole
62
5
39
2
10
113.456779
20
110.877951
11
113.892204
21
110.189391
0
LINE
8
hole
62
5
39
2
10
113.892204
20
110.189391
11
114.270801
21
109.468024
0
LINE
8
hole
62
5
39
2
10
114.270801
20
109.468024
11
114.590133
21
108.718538
0
LINE
8
hole
62
5
39
2
10
114.590133
20
108.718538
11
114.848114
21
107.945779
0
LINE
8
hole
62
5
39
2
10
114.848114
20
107.945779
11
115.043083
21
107.154770
0
LINE
8
hole
62
5
39
2
10
115.043083
20
107.154770
11
115.173764
21
106.350636
0
LINE
8
hole
62
5
39
2
10
115.173764
20
106.350636
11
115.239317
21
105.538598
0
LINE
8
hole
62
5
39
2
10
115.239317
20
105.538598
11
115.239317
21
104.723917
0
LINE
8
hole
62
5
39
2
10
115.239317
20
104.723917
11
115.173764
21
103.911879
0
LINE
8
hole
62
5
39
2
10
115.173764
20
103.911879
11
115.043083
21
103.107744
0
LINE
8
hole
62
5
39
2
10
115.043083
20
103.107744
11
114.848114
21
102.316735
0
LINE
8
hole
62
5
39
2
10
114.848114
20
102.316735
11
114.590133
21
101.543977
0
LINE
8
hole
62
5
39
2
10
114.590133
20
101.543977
11
114.270800
21
100.794492
0
LINE
8
hole
62
5
39
2
10
114.270800
20
100.794492
11
113.892204
21
100.073124
0
LINE
8
hole
62
5
39
2
10
113.892204
20
100.073124
11
113.456779
21
99.384564
0
LINE
8
hole
62
5
39
2
10
113.456779
20
99.384564
11
112.967370
21
98.733274
0
LINE
8
hole
62
5
39
2
10
112.967370
20
98.733274
11
112.427130
21
98.123476
0
LINE
8
hole
62
5
39
2
10
112.427130
20
98.123476
11
111.839587
21
97.559123
0
LINE
8
hole
62
5
39
2
10
111.839587
20
97.559123
11
111.208530
21
97.043878
0
LINE
8
hole
62
5
39
2
10
111.208530
20
97.043878
11
110.538054
21
96.581093
0
LINE
8
hole
62
5
39
2
10
110.538054
20
96.581093
11
109.832520
21
96.173744
0
LINE
8
hole
62
5
39
2
10
109.832520
20
96.173744
11
109.096492
21
95.824500
0
LINE
8
hole
62
5
39
2
10
109.096492
20
95.824500
11
108.334752
21
95.535610
0
LINE
8
hole
62
5
39
2
10
108.334752
20
95.535610
11
107.552241
21
95.308954
0
LINE
8
hole
62
5
39
2
10
107.552241
20
95.308954
11
106.754021
21
95.145994
0
LINE
8
hole
62
5
39
2
10
106.754021
20
95.145994
11
105.945279
21
95.047799
0
LINE
8
hole
62
5
39
2
10
105.945279
20
95.047799
11
105.131257
21
95.014990
0
LINE
8
hole
62
5
39
2
10
105.131257
20
95.014990
11
104.317236
21
95.047798
0
LINE
8
hole
62
5
39
2
10
104.317236
20
95.047798
11
103.508494
21
95.145994
0
LINE
8
hole
62
5
39
2
10
103.508494
20
95.145994
11
102.710274
21
95.308954
0
LINE
8
hole
62
5
39
2
10
102.710274
20
95.308954
11
101.927762
21
95.535610
0
LINE
8
hole
62
5
39
2
10
101.927762
20
95.535610
11
101.166023
21
95.824500
0
LINE
8
hole
62
5
39
2
10
101.166023
20
95.824500
11
100.429994
21
96.173744
0
LINE
8
hole
62
5
39
2
10
100.429994
20
96.173744
11
99.724461
21
96.581093
0
LINE
8
hole
62
5
39
2
10
99.724461
20
96.581093
11
99.053985
21
97.043878
0
LINE
8
hole
62
5
39
2
10
99.053985
20
97.043878
11
98.422928
21
97.559123
0
LINE
8
boundary
62
5
39
2
10
33.333048
20
37.719360
11
33.691117
21
37.337122
0
LINE
8
boundary
62
5
39
2
10
33.691117
20
37.337122
11
34.054158
21
36.959552
0
LINE
8
boundary
62
5
39
2
10
34.054158
20
36.959552
11
34.633223
21
36.899685
0
LINE
8
boundary
62
5
39
2
10
34.633223
20
36.899685
11
35.108121
21
37.313050
0
LINE
8
boundary
62
5
39
2
10
35.108121
20
37.313050
11
35.599091
21
37.533221
0
LINE
8
boundary
62
5
39
2
10
35.599091
20
37.533221
11
36.129498
21
37.571095
0
LINE
8
boundary
62
5
39
2
10
36.129498
20
37.571095
11
36.651910
21
37.431332
0
LINE
8
boundary
62
5
39
2
10
36.651910
20
37.431332
11
37.118609
21
37.118403
0
LINE
8
boundary
62
5
39
2
10
37.118609
20
37.118403
11
37.407421
21
36.699060
0
LINE
8
boundary
62
5
39
2
10
37.407421
20
36.699060
11
37.563723
21
36.180394
0
LINE
8
boundary
62
5
39
2
10
37.563723
20
36.180394
11
37.542975
21
35.649140
0
LINE
8
boundary
62
5
39
2
10
37.542975
20
35.649140
11
37.340639
21
35.152634
0
LINE
8
boundary
62
5
39
2
10
37.340639
20
35.152634
11
36.899684
21
34.633223
0
LINE
8
boundary
62
5
39
2
10
36.899684
20
34.633223
11
36.925381
21
34.102280
0
LINE
8
boundary
62
5
39
2
10
36.925381
20
34.102280
11
37.337121
21
33.691117
0
LINE
8
boundary
62
5
39
2
10
37.337121
20
33.691117
11
37.719359
21
33.333048
0
LINE
8
boundary
62
5
39
2
10
37.719359
20
33.333048
11
38.300816
21
33.303586
0
LINE
8
boundary
62
5
39
2
10
38.300816
20
33.303586
11
38.753399
21
33.741229
0
LINE
8
boundary
62
5
39
2
10
38.753399
20
33.741229
11
39.232234
21
33.986818
0
LINE
8
boundary
62
5
39
2
10
39.232234
20
33.986818
11
39.759939
21
34.052396
0
LINE
8
boundary
62
5
39
2
10
39.759939
20
34.052396
11
40.288892
21
33.940127
0
LINE
8
boundary
62
5
39
2
10
40.288892
20
33.940127
11
40.771359
21
33.652105
0
LINE
8
boundary
62
5
39
2
10
40.771359
20
33.652105
11
41.081682
21
33.248403
0
LINE
8
boundary
62
5
39
2
10
41.081682
20
33.248403
11
41.264908
21
32.738664
0
LINE
8
boundary
62
5
39
2
10
41.264908
20
32.738664
11
41.272032
21
32.207041
0
LINE
8
boundary
62
5
39
2
10
41.272032
20
32.207041
11
41.095947
21
31.700651
0
LINE
8
boundary
62
5
39
2
10
41.095947
20
31.700651
11
40.682751
21
31.158835
0
LINE
8
boundary
62
5
39
2
10
40.682751
20
31.158835
11
40.736250
21
30.630008
0
LINE
8
boundary
62
5
39
2
10
40.736250
20
30.630008
11
41.168852
21
30.241001
0
LINE
8
boundary
62
5
39
2
10
41.168852
20
30.241001
11
41.569349
21
29.903382
0
LINE
8
boundary
62
5
39
2
10
41.569349
20
29.903382
11
42.151526
21
29.904418
0
LINE
8
boundary
62
5
39
2
10
42.151526
20
29.904418
11
42.580666
21
30.365097
0
LINE
8
boundary
62
5
39
2
10
42.580666
20
30.365097
11
43.045912
21
30.635381
0
LINE
8
boundary
62
5
39
2
10
43.045912
20
30.635381
11
43.569469
21
30.728550
0
LINE
8
boundary
62
5
39
2
10
43.569469
20
30.728550
11
44.103605
21
30.644095
0
LINE
8
boundary
62
5
39
2
10
44.103605
20
30.644095
11
44.600499
21
30.381696
0
LINE
8
boundary
62
5
39
2
10
44.600499
20
30.381696
11
44.931578
21
29.994827
0
LINE
8
boundary
62
5
39
2
10
44.931578
20
29.994827
11
45.141194
21
29.495361
0
LINE
8
boundary
62
5
39
2
10
45.141194
20
29.495361
11
45.176057
21
28.964794
0
LINE
8
boundary
62
5
39
2
10
45.176057
20
28.964794
11
45.026734
21
28.449918
0
LINE
8
boundary
62
5
39
2
10
45.026734
20
28.449918
11
44.642520
21
27.887280
0
LINE
8
boundary
62
5
39
2
10
44.642520
20
27.887280
11
44.723560
21
27.361872
0
LINE
8
boundary
62
5
39
2
10
44.723560
20
27.361872
11
45.176032
21
26.996013
0
LINE
8
boundary
62
5
39
2
10
45.176032
20
26.996013
11
45.593655
21
26.679972
0
LINE
8
boundary
62
5
39
2
10
45.593655
20
26.679972
11
46.174900
21
26.711413
0
LINE
8
boundary
62
5
39
2
10
46.174900
20
26.711413
11
46.579344
21
27.193979
0
LINE
8
boundary
62
5
39
2
10
46.579344
20
27.193979
11
47.029856
21
27.488232
0
LINE
8
boundary
62
5
39
2
10
47.029856
20
27.488232
11
47.547805
21
27.608597
0
LINE
8
boundary
62
5
39
2
10
47.547805
20
27.608597
11
48.085575
21
27.552248
0
LINE
8
boundary
62
5
39
2
10
48.085575
20
27.552248
11
48.595543
21
27.316203
0
LINE
8
boundary
62
5
39
2
10
48.595543
20
27.316203
11
48.946356
21
26.947198
0
LINE
8
boundary
62
5
39
2
10
48.946356
20
26.947198
11
49.181865
21
26.459354
0
LINE
8
boundary
62
5
39
2
10
49.181865
20
26.459354
11
49.244500
21
25.931422
0
LINE
8
boundary
62
5
39
2
10
49.244500
20
25.931422
11
49.122312
21
25.409396
0
LINE
8
boundary
62
5
39
2
10
49.122312
20
25.409396
11
48.768092
21
24.827396
0
LINE
8
boundary
62
5
39
2
10
48.768092
20
24.827396
11
48.876545
21
24.307007
0
LINE
8
boundary
62
5
39
2
10
48.876545
20
24.307007
11
49.347465
21
23.965281
0
LINE
8
boundary
62
5
39
2
10
49.347465
20
23.965281
11
49.781063
21
23.671446
0
LINE
8
boundary
62
5
39
2
10
49.781063
20
23.671446
11
50.359922
21
23.733391
0
LINE
8
boundary
62
5
39
2
10
50.359922
20
23.733391
11
50.738526
21
24.236395
0
LINE
8
boundary
62
5
39
2
10
50.738526
20
24.236395
11
51.172959
21
24.553890
0
LINE
8
boundary
62
5
39
2
10
51.172959
20
24.553890
11
51.683956
21
24.701228
0
LINE
8
boundary
62
5
39
2
10
51.683956
20
24.701228
11
52.223906
21
24.673111
0
LINE
8
boundary
62
5
39
2
10
52.223906
20
24.673111
11
52.745598
21
24.464046
0
LINE
8
boundary
62
5
39
2
10
52.745598
20
24.464046
11
53.115216
21
24.113871
0
LINE
8
boundary
62
5
39
2
10
53.115216
20
24.113871
11
53.375906
21
23.639043
0
LINE
8
boundary
62
5
39
2
10
53.375906
20
23.639043
11
53.466086
21
23.115030
0
LINE
8
boundary
62
5
39
2
10
53.466086
20
23.115030
11
53.371369
21
22.587385
0
LINE
8
boundary
62
5
39
2
10
53.371369
20
22.587385
11
53.048051
21
21.987580
0
LINE
8
boundary
62
5
39
2
10
53.048051
20
21.987580
11
53.227025
21
21.433623
0
LINE
8
boundary
62
5
39
2
10
53.227025
20
21.433623
11
53.671832
21
21.157011
0
LINE
8
boundary
62
5
39
2
10
53.671832
20
21.157011
11
54.120163
21
20.886303
0
LINE
8
boundary
62
5
39
2
10
54.120163
20
20.886303
11
54.694976
21
20.978339
0
LINE
8
boundary
62
5
39
2
10
54.694976
20
20.978339
11
55.046814
21
21.500546
0
LINE
8
boundary
62
5
39
2
10
55.046814
20
21.500546
11
55.464019
21
21.840351
0
LINE
8
boundary
62
5
39
2
10
55.464019
20
21.840351
11
55.966511
21
22.014250
0
LINE
8
boundary
62
5
39
2
10
55.966511
20
22.014250
11
56.507293
21
22.014353
0
LINE
8
boundary
62
5
39
2
10
56.507293
20
22.014353
11
57.039150
21
21.832878
0
LINE
8
boundary
62
5
39
2
10
57.039150
20
21.832878
11
57.426627
21
21.502611
0
LINE
8
boundary
62
5
39
2
10
57.426627
20
21.502611
11
57.711847
21
21.042061
0
LINE
8
boundary
62
5
39
2
10
57.711847
20
21.042061
11
57.829260
21
20.523486
0
LINE
8
boundary
62
5
39
2
10
57.829260
20
20.523486
11
57.762364
21
19.991607
0
LINE
8
boundary
62
5
39
2
10
57.762364
20
19.991607
11
57.470879
21
19.375712
0
LINE
8
boundary
62
5
39
2
10
57.470879
20
19.375712
11
57.678600
21
18.831825
0
LINE
8
boundary
62
5
39
2
10
57.678600
20
18.831825
11
58.137205
21
18.578964
0
LINE
8
boundary
62
5
39
2
10
58.137205
20
18.578964
11
58.599126
21
18.332026
0
LINE
8
boundary
62
5
39
2
10
58.599126
20
18.332026
11
59.168335
21
18.454045
0
LINE
8
boundary
62
5
39
2
10
59.168335
20
18.454045
11
59.492264
21
18.993995
0
LINE
8
boundary
62
5
39
2
10
59.492264
20
18.993995
11
59.891207
21
19.355067
0
LINE
8
boundary
62
5
39
2
10
59.891207
20
19.355067
11
60.383946
21
19.555007
0
LINE
8
boundary
62
5
39
2
10
60.383946
20
19.555007
11
60.923896
21
19.583536
0
LINE
8
boundary
62
5
39
2
10
60.923896
20
19.583536
11
61.464573
21
19.430087
0
LINE
8
boundary
62
5
39
2
10
61.464573
20
19.430087
11
61.868771
21
19.120531
0
LINE
8
boundary
62
5
39
2
10
61.868771
20
19.120531
11
62.177668
21
18.675574
0
LINE
8
boundary
62
5
39
2
10
62.177668
20
18.675574
11
62.322167
21
18.163823
0
LINE
8
boundary
62
5
39
2
10
62.322167
20
18.163823
11
62.283144
21
17.629194
0
LINE
8
boundary
62
5
39
2
10
62.283144
20
17.629194
11
62.024238
21
16.998858
0
LINE
8
boundary
62
5
39
2
10
62.024238
20
16.998858
11
62.260176
21
16.466690
0
LINE
8
boundary
62
5
39
2
10
62.260176
20
16.466690
11
62.731441
21
16.238119
0
LINE
8
boundary
62
5
39
2
10
62.731441
20
16.238119
11
63.205610
21
16.015767
0
LINE
8
boundary
62
5
39
2
10
63.205610
20
16.015767
11
63.767658
21
16.167356
0
LINE
8
boundary
62
5
39
2
10
63.767658
20
16.167356
11
64.062946
21
16.723488
0
LINE
8
boundary
62
5
39
2
10
64.062946
20
16.723488
11
64.442389
21
17.104999
0
LINE
8
boundary
62
5
39
2
10
64.442389
20
17.104999
11
64.924024
21
17.330464
0
LINE
8
boundary
62
5
39
2
10
64.924024
20
17.330464
11
65.461692
21
17.387116
0
LINE
8
boundary
62
5
39
2
10
65.461692
20
17.387116
11
66.009629
21
17.262299
0
LINE
8
boundary
62
5
39
2
10
66.009629
20
17.262299
11
66.468652
21
16.938573
0
LINE
8
boundary
62
5
39
2
10
66.468652
20
16.938573
11
66.786144
21
16.501032
0
LINE
8
boundary
62
5
39
2
10
66.786144
20
16.501032
11
66.940844
21
15.992319
0
LINE
8
boundary
62
5
39
2
10
66.940844
20
15.992319
11
66.911485
21
15.455172
0
LINE
8
boundary
62
5
39
2
10
66.911485
20
15.455172
11
66.695876
21
14.863657
0
LINE
8
boundary
62
5
39
2
10
66.695876
20
14.863657
11
66.959311
21
14.344454
0
LINE
8
boundary
62
5
39
2
10
66.959311
20
14.344454
11
67.441779
21
14.140887
0
LINE
8
boundary
62
5
39
2
10
67.441779
20
14.140887
11
67.926948
21
13.943643
0
LINE
8
boundary
62
5
39
2
10
67.926948
20
13.943643
11
68.439915
21
14.079618
0
LINE
8
boundary
62
5
39
2
10
68.439915
20
14.079618
11
68.746109
21
14.695256
0
LINE
8
boundary
62
5
39
2
10
68.746109
20
14.695256
11
69.105101
21
15.096067
0
LINE
8
boundary
62
5
39
2
10
69.105101
20
15.096067
11
69.574189
21
15.346428
0
LINE
8
boundary
62
5
39
2
10
69.574189
20
15.346428
11
70.108222
21
15.431203
0
LINE
8
boundary
62
5
39
2
10
70.108222
20
15.431203
11
70.661974
21
15.335225
0
LINE
8
boundary
62
5
39
2
10
70.661974
20
15.335225
11
71.137281
21
15.035994
0
LINE
8
boundary
62
5
39
2
10
71.137281
20
15.035994
11
71.477186
21
14.615671
0
LINE
8
boundary
62
5
39
2
10
71.477186
20
14.615671
11
71.658343
21
14.115774
0
LINE
8
boundary
62
5
39
2
10
71.658343
20
14.115774
11
71.657204
21
13.577798
0
LINE
8
boundary
62
5
39
2
10
71.657204
20
13.577798
11
71.472725
21
12.975800
0
LINE
8
boundary
62
5
39
2
10
71.472725
20
12.975800
11
71.763036
21
12.471131
0
LINE
8
boundary
62
5
39
2
10
71.763036
20
12.471131
11
72.255569
21
12.293083
0
LINE
8
boundary
62
5
39
2
10
72.255569
20
12.293083
11
72.750385
21
12.121467
0
LINE
8
boundary
62
5
39
2
10
72.750385
20
12.121467
11
73.255497
21
12.284166
0
LINE
8
boundary
62
5
39
2
10
73.255497
20
12.284166
11
73.529077
21
12.914896
0
LINE
8
boundary
62
5
39
2
10
73.529077
20
12.914896
11
73.866596
21
13.334069
0
LINE
8
boundary
62
5
39
2
10
73.866596
20
13.334069
11
74.321882
21
13.608616
0
LINE
8
boundary
62
5
39
2
10
74.321882
20
13.608616
11
74.850832
21
13.721188
0
LINE
8
boundary
62
5
39
2
10
74.850832
20
13.721188
11
75.408732
21
13.654265
0
LINE
8
boundary
62
5
39
2
10
75.408732
20
13.654265
11
75.899085
21
13.380347
0
LINE
8
boundary
62
5
39
2
10
75.899085
20
13.380347
11
76.260572
21
12.978398
0
LINE
8
boundary
62
5
39
2
10
76.260572
20
12.978398
11
76.467567
21
12.488663
0
LINE
8
boundary
62
5
39
2
10
76.467567
20
12.488663
11
76.494648
21
11.951311
0
LINE
8
boundary
62
5
39
2
10
76.494648
20
11.951311
11
76.341917
21
11.340495
0
LINE
8
boundary
62
5
39
2
10
76.341917
20
11.340495
11
76.658168
21
10.851801
0
LINE
8
boundary
62
5
39
2
10
76.658168
20
10.851801
11
77.159312
21
10.699691
0
LINE
8
boundary
62
5
39
2
10
77.159312
20
10.699691
11
77.662534
21
10.554224
0
LINE
8
boundary
62
5
39
2
10
77.662534
20
10.554224
11
78.158416
21
10.743098
0
LINE
8
boundary
62
5
39
2
10
78.158416
20
10.743098
11
78.398581
21
11.387391
0
LINE
8
boundary
62
5
39
2
10
78.398581
20
11.387391
11
78.713690
21
11.823587
0
LINE
8
boundary
62
5
39
2
10
78.713690
20
11.823587
11
79.154034
21
12.121576
0
LINE
8
boundary
62
5
39
2
10
79.154034
20
12.121576
11
79.676343
21
12.261744
0
LINE
8
boundary
62
5
39
2
10
79.676343
20
12.261744
11
80.237043
21
12.224083
0
LINE
8
boundary
62
5
39
2
10
80.237043
20
12.224083
11
80.740990
21
11.976206
0
LINE
8
boundary
62
5
39
2
10
80.740990
20
11.976206
11
81.123022
21
11.593762
0
LINE
8
boundary
62
5
39
2
10
81.123022
20
11.593762
11
81.355436
21
11.115551
0
LINE
8
boundary
62
5
39
2
10
81.355436
20
11.115551
11
81.410530
21
10.580373
0
LINE
8
boundary
62
5
39
2
10
81.410530
20
10.580373
11
81.289966
21
9.962399
0
LINE
8
boundary
62
5
39
2
10
81.289966
20
9.962399
11
81.631429
21
9.490832
0
LINE
8
boundary
62
5
39
2
10
81.631429
20
9.490832
11
82.139836
21
9.365179
0
LINE
8
boundary
62
5
39
2
10
82.139836
20
9.365179
11
82.649904
21
9.246273
0
LINE
8
boundary
62
5
39
2
10
82.649904
20
9.246273
11
83.135227
21
9.460855
0
LINE
8
boundary
62
5
39
2
10
83.135227
20
9.460855
11
83.341337
21
10.116787
0
LINE
8
boundary
62
5
39
2
10
83.341337
20
10.116787
11
83.633204
21
10.568855
0
LINE
8
boundary
62
5
39
2
10
83.633204
20
10.568855
11
84.057465
21
10.889469
0
LINE
8
boundary
62
5
39
2
10
84.057465
20
10.889469
11
84.571682
21
11.056822
0
LINE
8
boundary
62
5
39
2
10
84.571682
20
11.056822
11
85.133524
21
11.048525
0
LINE
8
boundary
62
5
39
2
10
85.133524
20
11.048525
11
85.649817
21
10.827415
0
LINE
8
boundary
62
5
39
2
10
85.649817
20
10.827415
11
86.051252
21
10.465409
0
LINE
8
boundary
62
5
39
2
10
86.051252
20
10.465409
11
86.308465
21
10.000067
0
LINE
8
boundary
62
5
39
2
10
86.308465
20
10.000067
11
86.391469
21
9.468516
0
LINE
8
boundary
62
5
39
2
10
86.391469
20
9.468516
11
86.303485
21
8.845044
0
LINE
8
boundary
62
5
39
2
10
86.303485
20
8.845044
11
86.669018
21
8.391941
0
LINE
8
boundary
62
5
39
2
10
86.669018
20
8.391941
11
87.183340
21
8.293164
0
LINE
8
boundary
62
5
39
2
10
87.183340
20
8.293164
11
87.699011
21
8.201133
0
LINE
8
boundary
62
5
39
2
10
87.699011
20
8.201133
11
88.172399
21
8.440755
0
LINE
8
boundary
62
5
39
2
10
88.172399
20
8.440755
11
88.343960
21
9.106620
0
LINE
8
boundary
62
5
39
2
10
88.343960
20
9.106620
11
88.611756
21
9.573312
0
LINE
8
boundary
62
5
39
2
10
88.611756
20
9.573312
11
89.018587
21
9.915703
0
LINE
8
boundary
62
5
39
2
10
89.018587
20
9.915703
11
89.523258
21
10.109732
0
LINE
8
boundary
62
5
39
2
10
89.523258
20
10.109732
11
90.084892
21
10.130903
0
LINE
8
boundary
62
5
39
2
10
90.084892
20
10.130903
11
90.611977
21
9.937086
0
LINE
8
boundary
62
5
39
2
10
90.611977
20
9.937086
11
91.031879
21
9.596555
0
LINE
8
boundary
62
5
39
2
10
91.031879
20
9.596555
11
91.312956
21
9.145316
0
LINE
8
boundary
62
5
39
2
10
91.312956
20
9.145316
11
91.423664
21
8.618750
0
LINE
8
boundary
62
5
39
2
10
91.423664
20
8.618750
11
91.368467
21
7.991650
0
LINE
8
boundary
62
5
39
2
10
91.368467
20
7.991650
11
91.757242
21
7.558361
0
LINE
8
boundary
62
5
39
2
10
91.757242
20
7.558361
11
92.276128
21
7.486564
0
LINE
8
boundary
62
5
39
2
10
92.276128
20
7.486564
11
92.795845
21
7.421609
0
LINE
8
boundary
62
5
39
2
10
92.795845
20
7.421609
11
93.256030
21
7.685727
0
LINE
8
boundary
62
5
39
2
10
93.256030
20
7.685727
11
93.392445
21
8.359572
0
LINE
8
boundary
62
5
39
2
10
93.392445
20
8.359572
11
93.635443
21
8.839751
0
LINE
8
boundary
62
5
39
2
10
93.635443
20
8.839751
11
94.023803
21
9.203004
0
LINE
8
boundary
62
5
39
2
10
94.023803
20
9.203004
11
94.517686
21
9.423073
0
LINE
8
boundary
62
5
39
2
10
94.517686
20
9.423073
11
95.077421
21
9.473603
0
LINE
8
boundary
62
5
39
2
10
95.077421
20
9.473603
11
95.613935
21
9.307588
0
LINE
8
boundary
62
5
39
2
10
95.613935
20
9.307588
11
96.051104
21
8.989579
0
LINE
8
boundary
62
5
39
2
10
96.051104
20
8.989579
11
96.355453
21
8.553589
0
LINE
8
boundary
62
5
39
2
10
96.355453
20
8.553589
11
96.493574
21
8.033666
0
LINE
8
boundary
62
5
39
2
10
96.493574
20
8.033666
11
96.471234
21
7.404489
0
LINE
8
boundary
62
5
39
2
10
96.471234
20
7.404489
11
96.882194
21
6.992056
0
LINE
8
boundary
62
5
39
2
10
96.882194
20
6.992056
11
97.404038
21
6.947546
0
LINE
8
boundary
62
5
39
2
10
97.404038
20
6.947546
11
97.926431
21
6.909879
0
LINE
8
boundary
62
5
39
2
10
97.926431
20
6.909879
11
98.372218
21
7.197760
0
LINE
8
boundary
62
5
39
2
10
98.372218
20
7.197760
11
98.473187
21
7.877825
0
LINE
8
boundary
62
5
39
2
10
98.473187
20
7.877825
11
98.690744
21
8.370049
0
LINE
8
boundary
62
5
39
2
10
98.690744
20
8.370049
11
99.059547
21
8.753111
0
LINE
8
boundary
62
5
39
2
10
99.059547
20
8.753111
11
99.541247
21
8.998705
0
LINE
8
boundary
62
5
39
2
10
99.541247
20
8.998705
11
100.097528
21
9.078490
0
LINE
8
boundary
62
5
39
2
10
100.097528
20
9.078490
11
100.642001
21
8.940811
0
LINE
8
boundary
62
5
39
2
10
100.642001
20
8.940811
11
101.095209
21
8.646146
0
LINE
8
boundary
62
5
39
2
10
101.095209
20
8.646146
11
101.421960
21
8.226653
0
LINE
8
boundary
62
5
39
2
10
101.421960
20
8.226653
11
101.587109
21
7.714717
0
LINE
8
boundary
62
5
39
2
10
101.587109
20
7.714717
11
101.597734
21
7.085123
0
LINE
8
boundary
62
5
39
2
10
101.597734
20
7.085123
11
102.029704
21
6.694897
0
LINE
8
boundary
62
5
39
2
10
102.029704
20
6.694897
11
102.553165
21
6.677777
0
LINE
8
boundary
62
5
39
2
10
102.553165
20
6.677777
11
103.076815
21
6.667500
0
LINE
8
boundary
62
5
39
2
10
103.076815
20
6.667500
11
103.506919
21
6.978228
0
LINE
8
boundary
62
5
39
2
10
103.506919
20
6.978228
11
103.572170
21
7.662740
0
LINE
8
boundary
62
5
39
2
10
103.572170
20
7.662740
11
103.763663
21
8.165543
0
LINE
8
boundary
62
5
39
2
10
103.763663
20
8.165543
11
104.111904
21
8.567390
0
LINE
8
boundary
62
5
39
2
10
104.111904
20
8.567390
11
104.580099
21
8.837989
0
LINE
8
boundary
62
5
39
2
10
104.580099
20
8.837989
11
105.131441
21
8.946721
0
LINE
8
boundary
62
5
39
2
10
105.131441
20
8.946721
11
105.682366
21
8.837783
0
LINE
8
boundary
62
5
39
2
10
105.682366
20
8.837783
11
106.150377
21
8.567184
0
LINE
8
boundary
62
5
39
2
10
106.150377
20
8.567184
11
106.498634
21
8.165338
0
LINE
8
boundary
62
5
39
2
10
106.498634
20
8.165338
11
106.690345
21
7.662740
0
LINE
8
boundary
62
5
39
2
10
106.690345
20
7.662740
11
106.733913
21
7.034599
0
LINE
8
boundary
62
5
39
2
10
106.733913
20
7.034599
11
107.185721
21
6.667500
0
LINE
8
boundary
62
5
39
2
10
107.185721
20
6.667500
11
107.709349
21
6.677777
0
LINE
8
boundary
62
5
39
2
10
107.709349
20
6.677777
11
108.232822
21
6.694897
0
LINE
8
boundary
62
5
39
2
10
108.232822
20
6.694897
11
108.646080
21
7.027727
0
LINE
8
boundary
62
5
39
2
10
108.646080
20
7.027727
11
108.675406
21
7.714717
0
LINE
8
boundary
62
5
39
2
10
108.675406
20
7.714717
11
108.840327
21
8.226865
0
LINE
8
boundary
62
5
39
2
10
108.840327
20
8.226865
11
109.167056
21
8.646455
0
LINE
8
boundary
62
5
39
2
10
109.167056
20
8.646455
11
109.620452
21
8.941017
0
LINE
8
boundary
62
5
39
2
10
109.620452
20
8.941017
11
110.165350
21
9.078605
0
LINE
8
boundary
62
5
39
2
10
110.165350
20
9.078605
11
110.721226
21
8.998499
0
LINE
8
boundary
62
5
39
2
10
110.721226
20
8.998499
11
111.202750
21
8.752802
0
LINE
8
boundary
62
5
39
2
10
111.202750
20
8.752802
11
111.571564
21
8.369837
0
LINE
8
boundary
62
5
39
2
10
111.571564
20
8.369837
11
111.789327
21
7.877825
0
LINE
8
boundary
62
5
39
2
10
111.789327
20
7.877825
11
111.865693
21
7.252899
0
LINE
8
boundary
62
5
39
2
10
111.865693
20
7.252899
11
112.336105
21
6.909879
0
LINE
8
boundary
62
5
39
2
10
112.336105
20
6.909879
11
112.858477
21
6.947546
0
LINE
8
boundary
62
5
39
2
10
112.858477
20
6.947546
11
113.380341
21
6.992056
0
LINE
8
boundary
62
5
39
2
10
113.380341
20
6.992056
11
113.775607
21
7.346138
0
LINE
8
boundary
62
5
39
2
10
113.775607
20
7.346138
11
113.768941
21
8.033665
0
LINE
8
boundary
62
5
39
2
10
113.768941
20
8.033665
11
113.906823
21
8.553795
0
LINE
8
boundary
62
5
39
2
10
113.906823
20
8.553795
11
114.211151
21
8.989887
0
LINE
8
boundary
62
5
39
2
10
114.211151
20
8.989887
11
114.648506
21
9.307794
0
LINE
8
boundary
62
5
39
2
10
114.648506
20
9.307794
11
115.185457
21
9.473706
0
LINE
8
boundary
62
5
39
2
10
115.185457
20
9.473706
11
115.744726
21
9.422861
0
LINE
8
boundary
62
5
39
2
10
115.744726
20
9.422861
11
116.238503
21
9.202695
0
LINE
8
boundary
62
5
39
2
10
116.238503
20
9.202695
11
116.626864
21
8.839545
0
LINE
8
boundary
62
5
39
2
10
116.626864
20
8.839545
11
116.870070
21
8.359572
0
LINE
8
boundary
62
5
39
2
10
116.870070
20
8.359572
11
116.979015
21
7.739516
0
LINE
8
boundary
62
5
39
2
10
116.979015
20
7.739516
11
117.466774
21
7.421609
0
LINE
8
boundary
62
5
39
2
10
117.466774
20
7.421609
11
117.986387
21
7.486563
0
LINE
8
boundary
62
5
39
2
10
117.986387
20
7.486563
11
118.505273
21
7.558362
0
LINE
8
boundary
62
5
39
2
10
118.505273
20
7.558362
11
118.881443
21
7.932587
0
LINE
8
boundary
62
5
39
2
10
118.881443
20
7.932587
11
118.838851
21
8.618750
0
LINE
8
boundary
62
5
39
2
10
118.838851
20
8.618750
11
118.949249
21
9.145419
0
LINE
8
boundary
62
5
39
2
10
118.949249
20
9.145419
11
119.230324
21
9.596863
0
LINE
8
boundary
62
5
39
2
10
119.230324
20
9.596863
11
119.650435
21
9.937292
0
LINE
8
boundary
62
5
39
2
10
119.650435
20
9.937292
11
120.178037
21
10.131006
0
LINE
8
boundary
62
5
39
2
10
120.178037
20
10.131006
11
120.739257
21
10.109526
0
LINE
8
boundary
62
5
39
2
10
120.739257
20
10.109526
11
121.243825
21
9.915497
0
LINE
8
boundary
62
5
39
2
10
121.243825
20
9.915497
11
121.650654
21
9.573106
0
LINE
8
boundary
62
5
39
2
10
121.650654
20
9.573106
11
121.918555
21
9.106620
0
LINE
8
boundary
62
5
39
2
10
121.918555
20
9.106620
11
122.059871
21
8.493001
0
LINE
8
boundary
62
5
39
2
10
122.059871
20
8.493001
11
122.563610
21
8.201134
0
LINE
8
boundary
62
5
39
2
10
122.563610
20
8.201134
11
123.079175
21
8.293164
0
LINE
8
boundary
62
5
39
2
10
123.079175
20
8.293164
11
123.593496
21
8.391941
0
LINE
8
boundary
62
5
39
2
10
123.593496
20
8.391941
11
123.949556
21
8.785386
0
LINE
8
boundary
62
5
39
2
10
123.949556
20
8.785386
11
123.871046
21
9.468516
0
LINE
8
boundary
62
5
39
2
10
123.871046
20
9.468516
11
123.953843
21
10.000170
0
LINE
8
boundary
62
5
39
2
10
123.953843
20
10.000170
11
124.210952
21
10.465621
0
LINE
8
boundary
62
5
39
2
10
124.210952
20
10.465621
11
124.612697
21
10.827627
0
LINE
8
boundary
62
5
39
2
10
124.612697
20
10.827627
11
125.129301
21
11.048628
0
LINE
8
boundary
62
5
39
2
10
125.129301
20
11.048628
11
125.690832
21
11.056513
0
LINE
8
boundary
62
5
39
2
10
125.690832
20
11.056513
11
126.204945
21
10.889251
0
LINE
8
boundary
62
5
39
2
10
126.204945
20
10.889251
11
126.629102
21
10.568649
0
LINE
8
boundary
62
5
39
2
10
126.629102
20
10.568649
11
126.921178
21
10.116787
0
LINE
8
boundary
62
5
39
2
10
126.921178
20
10.116787
11
127.094347
21
9.511476
0
LINE
8
boundary
62
5
39
2
10
127.094347
20
9.511476
11
127.612611
21
9.246273
0
LINE
8
boundary
62
5
39
2
10
127.612611
20
9.246273
11
128.122679
21
9.365180
0
LINE
8
boundary
62
5
39
2
10
128.122679
20
9.365180
11
128.631086
21
9.490832
0
LINE
8
boundary
62
5
39
2
10
128.631086
20
9.490832
11
128.966166
21
9.902344
0
LINE
8
boundary
62
5
39
2
10
128.966166
20
9.902344
11
128.851984
21
10.580373
0
LINE
8
boundary
62
5
39
2
10
128.851984
20
10.580373
11
128.906871
21
11.115654
0
LINE
8
boundary
62
5
39
2
10
128.906871
20
11.115654
11
129.139182
21
11.593968
0
LINE
8
boundary
62
5
39
2
10
129.139182
20
11.593968
11
129.521420
21
11.976424
0
LINE
8
boundary
62
5
39
2
10
129.521420
20
11.976424
11
130.025782
21
12.224192
0
LINE
8
boundary
62
5
39
2
10
130.025782
20
12.224192
11
130.586172
21
12.261539
0
LINE
8
boundary
62
5
39
2
10
130.586172
20
12.261539
11
131.108275
21
12.121261
0
LINE
8
boundary
62
5
39
2
10
131.108275
20
12.121261
11
131.548616
21
11.823272
0
LINE
8
boundary
62
5
39
2
10
131.548616
20
11.823272
11
131.863934
21
11.387391
0
LINE
8
boundary
62
5
39
2
10
131.863934
20
11.387391
11
132.068542
21
10.791934
0
LINE
8
boundary
62
5
39
2
10
132.068542
20
10.791934
11
132.599981
21
10.554224
0
LINE
8
boundary
62
5
39
2
10
132.599981
20
10.554224
11
133.103203
21
10.699691
0
LINE
8
boundary
62
5
39
2
10
133.103203
20
10.699691
11
133.604347
21
10.851801
0
LINE
8
boundary
62
5
39
2
10
133.604347
20
10.851801
11
133.917386
21
11.280206
0
LINE
8
boundary
62
5
39
2
10
133.917386
20
11.280206
11
133.767866
21
11.951310
0
LINE
8
boundary
62
5
39
2
10
133.767866
20
11.951310
11
133.794636
21
12.488765
0
LINE
8
boundary
62
5
39
2
10
133.794636
20
12.488765
11
134.001630
21
12.978604
0
LINE
8
boundary
62
5
39
2
10
134.001630
20
12.978604
11
134.363327
21
13.380553
0
LINE
8
boundary
62
5
39
2
10
134.363327
20
13.380553
11
134.854095
21
13.654368
0
LINE
8
boundary
62
5
39
2
10
134.854095
20
13.654368
11
135.411683
21
13.720982
0
LINE
8
boundary
62
5
39
2
10
135.411683
20
13.720982
11
135.940426
21
13.608307
0
LINE
8
boundary
62
5
39
2
10
135.940426
20
13.608307
11
136.395816
21
13.333760
0
LINE
8
boundary
62
5
39
2
10
136.395816
20
13.333760
11
136.733438
21
12.914896
0
LINE
8
boundary
62
5
39
2
10
136.733438
20
12.914896
11
136.968964
21
12.331059
0
LINE
8
boundary
62
5
39
2
10
136.968964
20
12.331059
11
137.512130
21
12.121467
0
LINE
8
boundary
62
5
39
2
10
137.512130
20
12.121467
11
138.006946
21
12.293083
0
LINE
8
boundary
62
5
39
2
10
138.006946
20
12.293083
11
138.499581
21
12.471131
0
LINE
8
boundary
62
5
39
2
10
138.499581
20
12.471131
11
138.789711
21
12.915390
0
LINE
8
boundary
62
5
39
2
10
138.789711
20
12.915390
11
138.605310
21
13.577798
0
LINE
8
boundary
62
5
39
2
10
138.605310
20
13.577798
11
138.603857
21
14.115877
0
LINE
8
boundary
62
5
39
2
10
138.603857
20
14.115877
11
138.785014
21
14.615883
0
LINE
8
boundary
62
5
39
2
10
138.785014
20
14.615883
11
139.125131
21
15.036199
0
LINE
8
boundary
62
5
39
2
10
139.125131
20
15.036199
11
139.600853
21
15.335327
0
LINE
8
boundary
62
5
39
2
10
139.600853
20
15.335327
11
140.154292
21
15.430998
0
LINE
8
boundary
62
5
39
2
10
140.154292
20
15.430998
11
140.688120
21
15.346119
0
LINE
8
boundary
62
5
39
2
10
140.688120
20
15.346119
11
141.157304
21
15.095862
0
LINE
8
boundary
62
5
39
2
10
141.157304
20
15.095862
11
141.516406
21
14.695256
0
LINE
8
boundary
62
5
39
2
10
141.516406
20
14.695256
11
141.782127
21
14.124488
0
LINE
8
boundary
62
5
39
2
10
141.782127
20
14.124488
11
142.335567
21
13.943643
0
LINE
8
boundary
62
5
39
2
10
142.335567
20
13.943643
11
142.820736
21
14.140887
0
LINE
8
boundary
62
5
39
2
10
142.820736
20
14.140887
11
143.303307
21
14.344454
0
LINE
8
boundary
62
5
39
2
10
143.303307
20
14.344454
11
143.569770
21
14.803323
0
LINE
8
boundary
62
5
39
2
10
143.569770
20
14.803323
11
143.351030
21
15.455172
0
LINE
8
boundary
62
5
39
2
10
143.351030
20
15.455172
11
143.321359
21
15.992421
0
LINE
8
boundary
62
5
39
2
10
143.321359
20
15.992421
11
143.476061
21
16.501245
0
LINE
8
boundary
62
5
39
2
10
143.476061
20
16.501245
11
143.793762
21
16.938785
0
LINE
8
boundary
62
5
39
2
10
143.793762
20
16.938785
11
144.253197
21
17.262402
0
LINE
8
boundary
62
5
39
2
10
144.253197
20
17.262402
11
144.800823
21
17.386910
0
LINE
8
boundary
62
5
39
2
10
144.800823
20
17.386910
11
145.338387
21
17.330052
0
LINE
8
boundary
62
5
39
2
10
145.338387
20
17.330052
11
145.820022
21
17.104690
0
LINE
8
boundary
62
5
39
2
10
145.820022
20
17.104690
11
146.199569
21
16.723487
0
LINE
8
boundary
62
5
39
2
10
146.199569
20
16.723487
11
146.494857
21
16.167356
0
LINE
8
boundary
62
5
39
2
10
146.494857
20
16.167356
11
147.056905
21
16.015767
0
LINE
8
boundary
62
5
39
2
10
147.056905
20
16.015767
11
147.531074
21
16.238119
0
LINE
8
boundary
62
5
39
2
10
147.531074
20
16.238119
11
148.002338
21
16.466690
0
LINE
8
boundary
62
5
39
2
10
148.002338
20
16.466690
11
148.244541
21
16.938805
0
LINE
8
boundary
62
5
39
2
10
148.244541
20
16.938805
11
147.991856
21
17.578335
0
LINE
8
boundary
62
5
39
2
10
147.991856
20
17.578335
11
147.934168
21
18.113307
0
LINE
8
boundary
62
5
39
2
10
147.934168
20
18.113307
11
148.062100
21
18.629494
0
LINE
8
boundary
62
5
39
2
10
148.062100
20
18.629494
11
148.356456
21
19.083015
0
LINE
8
boundary
62
5
39
2
10
148.356456
20
19.083015
11
148.798250
21
19.430293
0
LINE
8
boundary
62
5
39
2
10
148.798250
20
19.430293
11
149.338618
21
19.583330
0
LINE
8
boundary
62
5
39
2
10
149.338618
20
19.583330
11
149.878459
21
19.554692
0
LINE
8
boundary
62
5
39
2
10
149.878459
20
19.554692
11
150.371204
21
19.354758
0
LINE
8
boundary
62
5
39
2
10
150.371204
20
19.354758
11
150.770250
21
18.993995
0
LINE
8
boundary
62
5
39
2
10
150.770250
20
18.993995
11
151.094180
21
18.454044
0
LINE
8
boundary
62
5
39
2
10
151.094180
20
18.454044
11
151.663389
21
18.332025
0
LINE
8
boundary
62
5
39
2
10
151.663389
20
18.332025
11
152.125309
21
18.578964
0
LINE
8
boundary
62
5
39
2
10
152.125309
20
18.578964
11
152.583915
21
18.831928
0
LINE
8
boundary
62
5
39
2
10
152.583915
20
18.831928
11
152.801030
21
19.316056
0
LINE
8
boundary
62
5
39
2
10
152.801030
20
19.316056
11
152.515332
21
19.941502
0
LINE
8
boundary
62
5
39
2
10
152.515332
20
19.941502
11
152.429733
21
20.472732
0
LINE
8
boundary
62
5
39
2
10
152.429733
20
20.472732
11
152.530375
21
20.994836
0
LINE
8
boundary
62
5
39
2
10
152.530375
20
20.994836
11
152.800562
21
21.463194
0
LINE
8
boundary
62
5
39
2
10
152.800562
20
21.463194
11
153.223680
21
21.833084
0
LINE
8
boundary
62
5
39
2
10
153.223680
20
21.833084
11
153.755330
21
22.014135
0
LINE
8
boundary
62
5
39
2
10
153.755330
20
22.014135
11
154.295901
21
22.013826
0
LINE
8
boundary
62
5
39
2
10
154.295901
20
22.013826
11
154.798393
21
21.840042
0
LINE
8
boundary
62
5
39
2
10
154.798393
20
21.840042
11
155.215700
21
21.500546
0
LINE
8
boundary
62
5
39
2
10
155.215700
20
21.500546
11
155.567538
21
20.978339
0
LINE
8
boundary
62
5
39
2
10
155.567538
20
20.978339
11
156.142351
21
20.886303
0
LINE
8
boundary
62
5
39
2
10
156.142351
20
20.886303
11
156.590683
21
21.157011
0
LINE
8
boundary
62
5
39
2
10
156.590683
20
21.157011
11
157.035490
21
21.433623
0
LINE
8
boundary
62
5
39
2
10
157.035490
20
21.433623
11
157.226952
21
21.928517
0
LINE
8
boundary
62
5
39
2
10
157.226952
20
21.928517
11
156.908905
21
22.538116
0
LINE
8
boundary
62
5
39
2
10
156.908905
20
22.538116
11
156.795606
21
23.064156
0
LINE
8
boundary
62
5
39
2
10
156.795606
20
23.064156
11
156.868749
21
23.590825
0
LINE
8
boundary
62
5
39
2
10
156.868749
20
23.590825
11
157.114137
21
24.072669
0
LINE
8
boundary
62
5
39
2
10
157.114137
20
24.072669
11
157.517231
21
24.464252
0
LINE
8
boundary
62
5
39
2
10
157.517231
20
24.464252
11
158.038711
21
24.672900
0
LINE
8
boundary
62
5
39
2
10
158.038711
20
24.672900
11
158.578558
21
24.700811
0
LINE
8
boundary
62
5
39
2
10
158.578558
20
24.700811
11
159.089452
21
24.553581
0
LINE
8
boundary
62
5
39
2
10
159.089452
20
24.553581
11
159.523989
21
24.236395
0
LINE
8
boundary
62
5
39
2
10
159.523989
20
24.236395
11
159.902593
21
23.733392
0
LINE
8
boundary
62
5
39
2
10
159.902593
20
23.733392
11
160.481452
21
23.671549
0
LINE
8
boundary
62
5
39
2
10
160.481452
20
23.671549
11
160.915050
21
23.965282
0
LINE
8
boundary
62
5
39
2
10
160.915050
20
23.965282
11
161.344705
21
24.264833
0
LINE
8
boundary
62
5
39
2
10
161.344705
20
24.264833
11
161.510003
21
24.769048
0
LINE
8
boundary
62
5
39
2
10
161.510003
20
24.769048
11
161.160535
21
25.361115
0
LINE
8
boundary
62
5
39
2
10
161.160535
20
25.361115
11
161.019846
21
25.880523
0
LINE
8
boundary
62
5
39
2
10
161.019846
20
25.880523
11
161.065391
21
26.410311
0
LINE
8
boundary
62
5
39
2
10
161.065391
20
26.410311
11
161.285152
21
26.904395
0
LINE
8
boundary
62
5
39
2
10
161.285152
20
26.904395
11
161.667287
21
27.316415
0
LINE
8
boundary
62
5
39
2
10
161.667287
20
27.316415
11
162.177043
21
27.552042
0
LINE
8
boundary
62
5
39
2
10
162.177043
20
27.552042
11
162.714710
21
27.608276
0
LINE
8
boundary
62
5
39
2
10
162.714710
20
27.608276
11
163.232556
21
27.487923
0
LINE
8
boundary
62
5
39
2
10
163.232556
20
27.487923
11
163.683170
21
27.193979
0
LINE
8
boundary
62
5
39
2
10
163.683170
20
27.193979
11
164.087615
21
26.711413
0
LINE
8
boundary
62
5
39
2
10
164.087615
20
26.711413
11
164.668963
21
26.679971
0
LINE
8
boundary
62
5
39
2
10
164.668963
20
26.679971
11
165.086482
21
26.996013
0
LINE
8
boundary
62
5
39
2
10
165.086482
20
26.996013
11
165.499950
21
27.317618
0
LINE
8
boundary
62
5
39
2
10
165.499950
20
27.317618
11
165.638626
21
27.829804
0
LINE
8
boundary
62
5
39
2
10
165.638626
20
27.829804
11
165.258613
21
28.402747
0
LINE
8
boundary
62
5
39
2
10
165.258613
20
28.402747
11
165.090939
21
28.914156
0
LINE
8
boundary
62
5
39
2
10
165.090939
20
28.914156
11
165.108683
21
29.445603
0
LINE
8
boundary
62
5
39
2
10
165.108683
20
29.445603
11
165.302294
21
29.950478
0
LINE
8
boundary
62
5
39
2
10
165.302294
20
29.950478
11
165.662331
21
30.382004
0
LINE
8
boundary
62
5
39
2
10
165.662331
20
30.382004
11
166.159012
21
30.643992
0
LINE
8
boundary
62
5
39
2
10
166.159012
20
30.643992
11
166.693046
21
30.728241
0
LINE
8
boundary
62
5
39
2
10
166.693046
20
30.728241
11
167.216500
21
30.635175
0
LINE
8
boundary
62
5
39
2
10
167.216500
20
30.635175
11
167.681848
21
30.365097
0
LINE
8
boundary
62
5
39
2
10
167.681848
20
30.365097
11
168.110989
21
29.904417
0
LINE
8
boundary
62
5
39
2
10
168.110989
20
29.904417
11
168.693166
21
29.903382
0
LINE
8
boundary
62
5
39
2
10
168.693166
20
29.903382
11
169.093663
21
30.241001
0
LINE
8
boundary
62
5
39
2
10
169.093663
20
30.241001
11
169.489599
21
30.583706
0
LINE
8
boundary
62
5
39
2
10
169.489599
20
30.583706
11
169.601368
21
31.102467
0
LINE
8
boundary
62
5
39
2
10
169.601368
20
31.102467
11
169.191815
21
31.654789
0
LINE
8
boundary
62
5
39
2
10
169.191815
20
31.654789
11
168.997690
21
32.156660
0
LINE
8
boundary
62
5
39
2
10
168.997690
20
32.156660
11
168.987522
21
32.688308
0
LINE
8
boundary
62
5
39
2
10
168.987522
20
32.688308
11
169.154463
21
33.202630
0
LINE
8
boundary
62
5
39
2
10
169.154463
20
33.202630
11
169.491361
21
33.652311
0
LINE
8
boundary
62
5
39
2
10
169.491361
20
33.652311
11
169.973726
21
33.940024
0
LINE
8
boundary
62
5
39
2
10
169.973726
20
33.940024
11
170.502576
21
34.052087
0
LINE
8
boundary
62
5
39
2
10
170.502576
20
34.052087
11
171.030281
21
33.986508
0
LINE
8
boundary
62
5
39
2
10
171.030281
20
33.986508
11
171.509116
21
33.741229
0
LINE
8
boundary
62
5
39
2
10
171.509116
20
33.741229
11
171.961699
21
33.303586
0
LINE
8
boundary
62
5
39
2
10
171.961699
20
33.303586
11
172.543155
21
33.333048
0
LINE
8
boundary
62
5
39
2
10
172.543155
20
33.333048
11
172.925393
21
33.691117
0
LINE
8
boundary
62
5
39
2
10
172.925393
20
33.691117
11
173.302962
21
34.054158
0
LINE
8
boundary
62
5
39
2
10
173.302962
20
34.054158
11
173.387366
21
34.578044
0
LINE
8
boundary
62
5
39
2
10
173.387366
20
34.578044
11
172.949465
21
35.108121
0
LINE
8
boundary
62
5
39
2
10
172.949465
20
35.108121
11
172.729293
21
35.599092
0
LINE
8
boundary
62
5
39
2
10
172.729293
20
35.599092
11
172.691420
21
36.129498
0
LINE
8
boundary
62
5
39
2
10
172.691420
20
36.129498
11
172.831182
21
36.651910
0
LINE
8
boundary
62
5
39
2
10
172.831182
20
36.651910
11
173.144112
21
37.118609
0
LINE
8
boundary
62
5
39
2
10
173.144112
20
37.118609
11
173.610708
21
37.431126
0
LINE
8
boundary
62
5
39
2
10
173.610708
20
37.431126
11
174.133017
21
37.570780
0
LINE
8
boundary
62
5
39
2
10
174.133017
20
37.570780
11
174.663320
21
37.532907
0
LINE
8
boundary
62
5
39
2
10
174.663320
20
37.532907
11
175.154394
21
37.313050
0
LINE
8
boundary
62
5
39
2
10
175.154394
20
37.313050
11
175.629292
21
36.899685
0
LINE
8
boundary
62
5
39
2
10
175.629292
20
36.899685
11
176.208357
21
36.959552
0
LINE
8
boundary
62
5
39
2
10
176.208357
20
36.959552
11
176.571398
21
37.337122
0
LINE
8
boundary
62
5
39
2
10
176.571398
20
37.337122
11
176.929467
21
37.719360
0
LINE
8
boundary
62
5
39
2
10
176.929467
20
37.719360
11
176.986280
21
38.246984
0
LINE
8
boundary
62
5
39
2
10
176.986280
20
38.246984
11
176.521286
21
38.753399
0
LINE
8
boundary
62
5
39
2
10
176.521286
20
38.753399
11
176.275698
21
39.232234
0
LINE
8
boundary
62
5
39
2
10
176.275698
20
39.232234
11
176.210119
21
39.759939
0
LINE
8
boundary
62
5
39
2
10
176.210119
20
39.759939
11
176.322388
21
40.288891
0
LINE
8
boundary
62
5
39
2
10
176.322388
20
40.288891
11
176.610409
21
40.771360
0
LINE
8
boundary
62
5
39
2
10
176.610409
20
40.771360
11
177.060091
21
41.107846
0
LINE
8
boundary
62
5
39
2
10
177.060091
20
41.107846
11
177.574310
21
41.274581
0
LINE
8
boundary
62
5
39
2
10
177.574310
20
41.274581
11
178.105855
21
41.264619
0
LINE
8
boundary
62
5
39
2
10
178.105855
20
41.264619
11
178.607726
21
41.070699
0
LINE
8
boundary
62
5
39
2
10
178.607726
20
41.070699
11
179.103680
21
40.682751
0
LINE
8
boundary
62
5
39
2
10
179.103680
20
40.682751
11
179.678809
21
40.772916
0
LINE
8
boundary
62
5
39
2
10
179.678809
20
40.772916
11
180.021514
21
41.168852
0
LINE
8
boundary
62
5
39
2
10
180.021514
20
41.168852
11
180.359133
21
41.569349
0
LINE
8
boundary
62
5
39
2
10
180.359133
20
41.569349
11
180.388264
21
42.099202
0
LINE
8
boundary
62
5
39
2
10
180.388264
20
42.099202
11
179.897418
21
42.580667
0
LINE
8
boundary
62
5
39
2
10
179.897418
20
42.580667
11
179.627134
21
43.045912
0
LINE
8
boundary
62
5
39
2
10
179.627134
20
43.045912
11
179.533965
21
43.569469
0
LINE
8
boundary
62
5
39
2
10
179.533965
20
43.569469
11
179.618420
21
44.103605
0
LINE
8
boundary
62
5
39
2
10
179.618420
20
44.103605
11
179.880819
21
44.600499
0
LINE
8
boundary
62
5
39
2
10
179.880819
20
44.600499
11
180.312243
21
44.960118
0
LINE
8
boundary
62
5
39
2
10
180.312243
20
44.960118
11
180.817020
21
45.153523
0
LINE
8
boundary
62
5
39
2
10
180.817020
20
45.153523
11
181.348462
21
45.171260
0
LINE
8
boundary
62
5
39
2
10
181.348462
20
45.171260
11
181.859768
21
45.003902
0
LINE
8
boundary
62
5
39
2
10
181.859768
20
45.003902
11
182.375234
21
44.642520
0
LINE
8
boundary
62
5
39
2
10
182.375234
20
44.642520
11
182.944961
21
44.762565
0
LINE
8
boundary
62
5
39
2
10
182.944961
20
44.762565
11
183.266502
21
45.176033
0
LINE
8
boundary
62
5
39
2
10
183.266502
20
45.176033
11
183.582543
21
45.593655
0
LINE
8
boundary
62
5
39
2
10
183.582543
20
45.593655
11
183.583963
21
46.124240
0
LINE
8
boundary
62
5
39
2
10
183.583963
20
46.124240
11
183.068536
21
46.579344
0
LINE
8
boundary
62
5
39
2
10
183.068536
20
46.579344
11
182.774283
21
47.029856
0
LINE
8
boundary
62
5
39
2
10
182.774283
20
47.029856
11
182.653918
21
47.547805
0
LINE
8
boundary
62
5
39
2
10
182.653918
20
47.547805
11
182.710267
21
48.085575
0
LINE
8
boundary
62
5
39
2
10
182.710267
20
48.085575
11
182.946312
21
48.595543
0
LINE
8
boundary
62
5
39
2
10
182.946312
20
48.595543
11
183.358326
21
48.977157
0
LINE
8
boundary
62
5
39
2
10
183.358326
20
48.977157
11
183.852312
21
49.196808
0
LINE
8
boundary
62
5
39
2
10
183.852312
20
49.196808
11
184.381992
21
49.242360
0
LINE
8
boundary
62
5
39
2
10
184.381992
20
49.242360
11
184.901401
21
49.101980
0
LINE
8
boundary
62
5
39
2
10
184.901401
20
49.101980
11
185.435119
21
48.768092
0
LINE
8
boundary
62
5
39
2
10
185.435119
20
48.768092
11
185.997682
21
48.917810
0
LINE
8
boundary
62
5
39
2
10
185.997682
20
48.917810
11
186.297233
21
49.347465
0
LINE
8
boundary
62
5
39
2
10
186.297233
20
49.347465
11
186.591068
21
49.781063
0
LINE
8
boundary
62
5
39
2
10
186.591068
20
49.781063
11
186.564602
21
50.311048
0
LINE
8
boundary
62
5
39
2
10
186.564602
20
50.311048
11
186.026120
21
50.738526
0
LINE
8
boundary
62
5
39
2
10
186.026120
20
50.738526
11
185.708624
21
51.172959
0
LINE
8
boundary
62
5
39
2
10
185.708624
20
51.172959
11
185.561286
21
51.683956
0
LINE
8
boundary
62
5
39
2
10
185.561286
20
51.683956
11
185.589403
21
52.223907
0
LINE
8
boundary
62
5
39
2
10
185.589403
20
52.223907
11
185.798469
21
52.745598
0
LINE
8
boundary
62
5
39
2
10
185.798469
20
52.745598
11
186.189948
21
53.148275
0
LINE
8
boundary
62
5
39
2
10
186.189948
20
53.148275
11
186.671792
21
53.393348
0
LINE
8
boundary
62
5
39
2
10
186.671792
20
53.393348
11
187.198462
21
53.466600
0
LINE
8
boundary
62
5
39
2
10
187.198462
20
53.466600
11
187.724399
21
53.353610
0
LINE
8
boundary
62
5
39
2
10
187.724399
20
53.353610
11
188.274935
21
53.048051
0
LINE
8
boundary
62
5
39
2
10
188.274935
20
53.048051
11
188.788895
21
53.183622
0
LINE
8
boundary
62
5
39
2
10
188.788895
20
53.183622
11
189.105504
21
53.671832
0
LINE
8
boundary
62
5
39
2
10
189.105504
20
53.671832
11
189.376212
21
54.120163
0
LINE
8
boundary
62
5
39
2
10
189.376212
20
54.120163
11
189.322109
21
54.648004
0
LINE
8
boundary
62
5
39
2
10
189.322109
20
54.648004
11
188.761969
21
55.046815
0
LINE
8
boundary
62
5
39
2
10
188.761969
20
55.046815
11
188.422164
21
55.464019
0
LINE
8
boundary
62
5
39
2
10
188.422164
20
55.464019
11
188.248265
21
55.966511
0
LINE
8
boundary
62
5
39
2
10
188.248265
20
55.966511
11
188.248162
21
56.507293
0
LINE
8
boundary
62
5
39
2
10
188.248162
20
56.507293
11
188.429637
21
57.039150
0
LINE
8
boundary
62
5
39
2
10
188.429637
20
57.039150
11
188.799424
21
57.461747
0
LINE
8
boundary
62
5
39
2
10
188.799424
20
57.461747
11
189.267782
21
57.731825
0
LINE
8
boundary
62
5
39
2
10
189.267782
20
57.731825
11
189.789886
21
57.832470
0
LINE
8
boundary
62
5
39
2
10
189.789886
20
57.832470
11
190.321013
21
57.747183
0
LINE
8
boundary
62
5
39
2
10
190.321013
20
57.747183
11
190.886803
21
57.470879
0
LINE
8
boundary
62
5
39
2
10
190.886803
20
57.470879
11
191.392994
21
57.633134
0
LINE
8
boundary
62
5
39
2
10
191.392994
20
57.633134
11
191.683551
21
58.137205
0
LINE
8
boundary
62
5
39
2
10
191.683551
20
58.137205
11
191.930489
21
58.599126
0
LINE
8
boundary
62
5
39
2
10
191.930489
20
58.599126
11
191.848824
21
59.123424
0
LINE
8
boundary
62
5
39
2
10
191.848824
20
59.123424
11
191.268520
21
59.492264
0
LINE
8
boundary
62
5
39
2
10
191.268520
20
59.492264
11
190.907447
21
59.891207
0
LINE
8
boundary
62
5
39
2
10
190.907447
20
59.891207
11
190.707508
21
60.383946
0
LINE
8
boundary
62
5
39
2
10
190.707508
20
60.383946
11
190.678979
21
60.923896
0
LINE
8
boundary
62
5
39
2
10
190.678979
20
60.923896
11
190.832428
21
61.464573
0
LINE
8
boundary
62
5
39
2
10
190.832428
20
61.464573
11
191.179602
21
61.905953
0
LINE
8
boundary
62
5
39
2
10
191.179602
20
61.905953
11
191.633118
21
62.200103
0
LINE
8
boundary
62
5
39
2
10
191.633118
20
62.200103
11
192.149311
21
62.328032
0
LINE
8
boundary
62
5
39
2
10
192.149311
20
62.328032
11
192.684180
21
62.270659
0
LINE
8
boundary
62
5
39
2
10
192.684180
20
62.270659
11
193.263656
21
62.024238
0
LINE
8
boundary
62
5
39
2
10
193.263656
20
62.024238
11
193.760624
21
62.212808
0
LINE
8
boundary
62
5
39
2
10
193.760624
20
62.212808
11
194.024396
21
62.731441
0
LINE
8
boundary
62
5
39
2
10
194.024396
20
62.731441
11
194.246748
21
63.205610
0
LINE
8
boundary
62
5
39
2
10
194.246748
20
63.205610
11
194.137812
21
63.724926
0
LINE
8
boundary
62
5
39
2
10
194.137812
20
63.724926
11
193.539027
21
64.062946
0
LINE
8
boundary
62
5
39
2
10
193.539027
20
64.062946
11
193.157516
21
64.442389
0
LINE
8
boundary
62
5
39
2
10
193.157516
20
64.442389
11
192.932051
21
64.924025
0
LINE
8
boundary
62
5
39
2
10
192.932051
20
64.924025
11
192.875399
21
65.461692
0
LINE
8
boundary
62
5
39
2
10
192.875399
20
65.461692
11
193.000216
21
66.009630
0
LINE
8
boundary
62
5
39
2
10
193.000216
20
66.009630
11
193.288304
21
66.429567
0
LINE
8
boundary
62
5
39
2
10
193.288304
20
66.429567
11
193.688707
21
66.746005
0
LINE
8
boundary
62
5
39
2
10
193.688707
20
66.746005
11
194.188896
21
66.927059
0
LINE
8
boundary
62
5
39
2
10
194.188896
20
66.927059
11
194.724118
21
66.927448
0
LINE
8
boundary
62
5
39
2
10
194.724118
20
66.927448
11
195.398858
21
66.695876
0
LINE
8
boundary
62
5
39
2
10
195.398858
20
66.695876
11
195.885356
21
66.910097
0
LINE
8
boundary
62
5
39
2
10
195.885356
20
66.910097
11
196.121628
21
67.441779
0
LINE
8
boundary
62
5
39
2
10
196.121628
20
67.441779
11
196.318872
21
67.926948
0
LINE
8
boundary
62
5
39
2
10
196.318872
20
67.926948
11
196.138027
21
68.480388
0
LINE
8
boundary
62
5
39
2
10
196.138027
20
68.480388
11
195.567258
21
68.746109
0
LINE
8
boundary
62
5
39
2
10
195.567258
20
68.746109
11
195.166447
21
69.105101
0
LINE
8
boundary
62
5
39
2
10
195.166447
20
69.105101
11
194.916087
21
69.574189
0
LINE
8
boundary
62
5
39
2
10
194.916087
20
69.574189
11
194.831311
21
70.108223
0
LINE
8
boundary
62
5
39
2
10
194.831311
20
70.108223
11
194.927290
21
70.661974
0
LINE
8
boundary
62
5
39
2
10
194.927290
20
70.661974
11
195.192988
21
71.096372
0
LINE
8
boundary
62
5
39
2
10
195.192988
20
71.096372
11
195.576314
21
71.433328
0
LINE
8
boundary
62
5
39
2
10
195.576314
20
71.433328
11
196.066275
21
71.640328
0
LINE
8
boundary
62
5
39
2
10
196.066275
20
71.640328
11
196.600789
21
71.668748
0
LINE
8
boundary
62
5
39
2
10
196.600789
20
71.668748
11
197.286715
21
71.472726
0
LINE
8
boundary
62
5
39
2
10
197.286715
20
71.472726
11
197.761298
21
71.712155
0
LINE
8
boundary
62
5
39
2
10
197.761298
20
71.712155
11
197.969432
21
72.255569
0
LINE
8
boundary
62
5
39
2
10
197.969432
20
72.255569
11
198.141048
21
72.750385
0
LINE
8
boundary
62
5
39
2
10
198.141048
20
72.750385
11
197.931455
21
73.293551
0
LINE
8
boundary
62
5
39
2
10
197.931455
20
73.293551
11
197.347619
21
73.529077
0
LINE
8
boundary
62
5
39
2
10
197.347619
20
73.529077
11
196.928446
21
73.866596
0
LINE
8
boundary
62
5
39
2
10
196.928446
20
73.866596
11
196.653899
21
74.321883
0
LINE
8
boundary
62
5
39
2
10
196.653899
20
74.321883
11
196.541327
21
74.850832
0
LINE
8
boundary
62
5
39
2
10
196.541327
20
74.850832
11
196.608250
21
75.408732
0
LINE
8
boundary
62
5
39
2
10
196.608250
20
75.408732
11
196.850812
21
75.856473
0
LINE
8
boundary
62
5
39
2
10
196.850812
20
75.856473
11
197.215960
21
76.213063
0
LINE
8
boundary
62
5
39
2
10
197.215960
20
76.213063
11
197.694472
21
76.445446
0
LINE
8
boundary
62
5
39
2
10
197.694472
20
76.445446
11
198.226760
21
76.501766
0
LINE
8
boundary
62
5
39
2
10
198.226760
20
76.501766
11
198.922020
21
76.341917
0
LINE
8
boundary
62
5
39
2
10
198.922020
20
76.341917
11
199.383362
21
76.605884
0
LINE
8
boundary
62
5
39
2
10
199.383362
20
76.605884
11
199.562824
21
77.159313
0
LINE
8
boundary
62
5
39
2
10
199.562824
20
77.159313
11
199.708291
21
77.662534
0
LINE
8
boundary
62
5
39
2
10
199.708291
20
77.662534
11
199.470581
21
78.193973
0
LINE
8
boundary
62
5
39
2
10
199.470581
20
78.193973
11
198.875123
21
78.398581
0
LINE
8
boundary
62
5
39
2
10
198.875123
20
78.398581
11
198.438928
21
78.713690
0
LINE
8
boundary
62
5
39
2
10
198.438928
20
78.713690
11
198.140939
21
79.154034
0
LINE
8
boundary
62
5
39
2
10
198.140939
20
79.154034
11
198.000771
21
79.676343
0
LINE
8
boundary
62
5
39
2
10
198.000771
20
79.676343
11
198.038432
21
80.237043
0
LINE
8
boundary
62
5
39
2
10
198.038432
20
80.237043
11
198.257211
21
80.696832
0
LINE
8
boundary
62
5
39
2
10
198.257211
20
80.696832
11
198.603222
21
81.071984
0
LINE
8
boundary
62
5
39
2
10
198.603222
20
81.071984
11
199.068866
21
81.329149
0
LINE
8
boundary
62
5
39
2
10
199.068866
20
81.329149
11
199.597507
21
81.413224
0
LINE
8
boundary
62
5
39
2
10
199.597507
20
81.413224
11
200.300115
21
81.289966
0
LINE
8
boundary
62
5
39
2
10
200.300115
20
81.289966
11
200.747069
21
81.577757
0
LINE
8
boundary
62
5
39
2
10
200.747069
20
81.577757
11
200.897335
21
82.139836
0
LINE
8
boundary
62
5
39
2
10
200.897335
20
82.139836
11
201.016242
21
82.649903
0
LINE
8
boundary
62
5
39
2
10
201.016242
20
82.649903
11
200.751038
21
83.168168
0
LINE
8
boundary
62
5
39
2
10
200.751038
20
83.168168
11
200.145728
21
83.341337
0
LINE
8
boundary
62
5
39
2
10
200.145728
20
83.341337
11
199.693660
21
83.633204
0
LINE
8
boundary
62
5
39
2
10
199.693660
20
83.633204
11
199.373046
21
84.057465
0
LINE
8
boundary
62
5
39
2
10
199.373046
20
84.057465
11
199.205693
21
84.571682
0
LINE
8
boundary
62
5
39
2
10
199.205693
20
84.571682
11
199.213990
21
85.133524
0
LINE
8
boundary
62
5
39
2
10
199.213990
20
85.133524
11
199.408381
21
85.604153
0
LINE
8
boundary
62
5
39
2
10
199.408381
20
85.604153
11
199.734273
21
85.996880
0
LINE
8
boundary
62
5
39
2
10
199.734273
20
85.996880
11
200.185829
21
86.278073
0
LINE
8
boundary
62
5
39
2
10
200.185829
20
86.278073
11
200.709364
21
86.389739
0
LINE
8
boundary
62
5
39
2
10
200.709364
20
86.389739
11
201.417471
21
86.303485
0
LINE
8
boundary
62
5
39
2
10
201.417471
20
86.303485
11
201.848773
21
86.614158
0
LINE
8
boundary
62
5
39
2
10
201.848773
20
86.614158
11
201.969351
21
87.183340
0
LINE
8
boundary
62
5
39
2
10
201.969351
20
87.183340
11
202.061381
21
87.699011
0
LINE
8
boundary
62
5
39
2
10
202.061381
20
87.699011
11
201.769514
21
88.202644
0
LINE
8
boundary
62
5
39
2
10
201.769514
20
88.202644
11
201.155895
21
88.343960
0
LINE
8
boundary
62
5
39
2
10
201.155895
20
88.343960
11
200.689202
21
88.611757
0
LINE
8
boundary
62
5
39
2
10
200.689202
20
88.611757
11
200.346812
21
89.018587
0
LINE
8
boundary
62
5
39
2
10
200.346812
20
89.018587
11
200.152783
21
89.523258
0
LINE
8
boundary
62
5
39
2
10
200.152783
20
89.523258
11
200.131612
21
90.084892
0
LINE
8
boundary
62
5
39
2
10
200.131612
20
90.084892
11
200.301132
21
90.565004
0
LINE
8
boundary
62
5
39
2
10
200.301132
20
90.565004
11
200.606077
21
90.974301
0
LINE
8
boundary
62
5
39
2
10
200.606077
20
90.974301
11
201.042245
21
91.278653
0
LINE
8
boundary
62
5
39
2
10
201.042245
20
91.278653
11
201.559257
21
91.417509
0
LINE
8
boundary
62
5
39
2
10
201.559257
20
91.417509
11
202.270865
21
91.368466
0
LINE
8
boundary
62
5
39
2
10
202.270865
20
91.368466
11
202.685286
21
91.701311
0
LINE
8
boundary
62
5
39
2
10
202.685286
20
91.701311
11
202.775951
21
92.276128
0
LINE
8
boundary
62
5
39
2
10
202.775951
20
92.276128
11
202.840906
21
92.795845
0
LINE
8
boundary
62
5
39
2
10
202.840906
20
92.795845
11
202.522999
21
93.283500
0
LINE
8
boundary
62
5
39
2
10
202.522999
20
93.283500
11
201.902943
21
93.392445
0
LINE
8
boundary
62
5
39
2
10
201.902943
20
93.392445
11
201.422764
21
93.635443
0
LINE
8
boundary
62
5
39
2
10
201.422764
20
93.635443
11
201.059510
21
94.023804
0
LINE
8
boundary
62
5
39
2
10
201.059510
20
94.023804
11
200.839442
21
94.517686
0
LINE
8
boundary
62
5
39
2
10
200.839442
20
94.517686
11
200.788912
21
95.077421
0
LINE
8
boundary
62
5
39
2
10
200.788912
20
95.077421
11
200.933084
21
95.565754
0
LINE
8
boundary
62
5
39
2
10
200.933084
20
95.565754
11
201.237816
21
96.013605
0
LINE
8
boundary
62
5
39
2
10
201.237816
20
96.013605
11
201.708926
21
96.355453
0
LINE
8
boundary
62
5
39
2
10
201.708926
20
96.355453
11
202.228849
21
96.493574
0
LINE
8
boundary
62
5
39
2
10
202.228849
20
96.493574
11
202.858026
21
96.471235
0
LINE
8
boundary
62
5
39
2
10
202.858026
20
96.471235
11
203.254523
21
96.825339
0
LINE
8
boundary
62
5
39
2
10
203.254523
20
96.825339
11
203.314969
21
97.404038
0
LINE
8
boundary
62
5
39
2
10
203.314969
20
97.404038
11
203.352636
21
97.926432
0
LINE
8
boundary
62
5
39
2
10
203.352636
20
97.926432
11
203.009615
21
98.396822
0
LINE
8
boundary
62
5
39
2
10
203.009615
20
98.396822
11
202.384690
21
98.473187
0
LINE
8
boundary
62
5
39
2
10
202.384690
20
98.473187
11
201.892466
21
98.690744
0
LINE
8
boundary
62
5
39
2
10
201.892466
20
98.690744
11
201.509404
21
99.059547
0
LINE
8
boundary
62
5
39
2
10
201.509404
20
99.059547
11
201.263810
21
99.541247
0
LINE
8
boundary
62
5
39
2
10
201.263810
20
99.541247
11
201.184025
21
100.097528
0
LINE
8
boundary
62
5
39
2
10
201.184025
20
100.097528
11
201.302441
21
100.592745
0
LINE
8
boundary
62
5
39
2
10
201.302441
20
100.592745
11
201.583273
21
101.055927
0
LINE
8
boundary
62
5
39
2
10
201.583273
20
101.055927
11
202.035862
21
101.421960
0
LINE
8
boundary
62
5
39
2
10
202.035862
20
101.421960
11
202.547798
21
101.587109
0
LINE
8
boundary
62
5
39
2
10
202.547798
20
101.587109
11
203.177393
21
101.597734
0
LINE
8
boundary
62
5
39
2
10
203.177393
20
101.597734
11
203.554694
21
101.972101
0
LINE
8
boundary
62
5
39
2
10
203.554694
20
101.972101
11
203.584738
21
102.553166
0
LINE
8
boundary
62
5
39
2
10
203.584738
20
102.553166
11
203.595015
21
103.076815
0
LINE
8
boundary
62
5
39
2
10
203.595015
20
103.076815
11
203.227916
21
103.528602
0
LINE
8
boundary
62
5
39
2
10
203.227916
20
103.528602
11
202.599775
21
103.572169
0
LINE
8
boundary
62
5
39
2
10
202.599775
20
103.572169
11
202.096971
21
103.763663
0
LINE
8
boundary
62
5
39
2
10
202.096971
20
103.763663
11
201.695124
21
104.111904
0
LINE
8
boundary
62
5
39
2
10
201.695124
20
104.111904
11
201.424526
21
104.580099
0
LINE
8
boundary
62
5
39
2
10
201.424526
20
104.580099
11
201.315793
21
105.131441
0
LINE
8
boundary
62
5
39
2
10
201.315793
20
105.131441
11
201.408083
21
105.632170
0
LINE
8
boundary
62
5
39
2
10
201.408083
20
105.632170
11
201.664333
21
106.109416
0
LINE
8
boundary
62
5
39
2
10
201.664333
20
106.109416
11
202.097177
21
106.498635
0
LINE
8
boundary
62
5
39
2
10
202.097177
20
106.498635
11
202.599775
21
106.690345
0
LINE
8
boundary
62
5
39
2
10
202.599775
20
106.690345
11
203.227916
21
106.733913
0
LINE
8
boundary
62
5
39
2
10
203.227916
20
106.733913
11
203.585143
21
107.127514
0
LINE
8
boundary
62
5
39
2
10
203.585143
20
107.127514
11
203.584738
21
107.709349
0
LINE
8
boundary
62
5
39
2
10
203.584738
20
107.709349
11
203.567618
21
108.232822
0
LINE
8
boundary
62
5
39
2
10
203.567618
20
108.232822
11
203.177393
21
108.664781
0
LINE
8
boundary
62
5
39
2
10
203.177393
20
108.664781
11
202.547798
21
108.675406
0
LINE
8
boundary
62
5
39
2
10
202.547798
20
108.675406
11
202.035650
21
108.840327
0
LINE
8
boundary
62
5
39
2
10
202.035650
20
108.840327
11
201.616060
21
109.167057
0
LINE
8
boundary
62
5
39
2
10
201.616060
20
109.167057
11
201.321498
21
109.620452
0
LINE
8
boundary
62
5
39
2
10
201.321498
20
109.620452
11
201.183910
21
110.165350
0
LINE
8
boundary
62
5
39
2
10
201.183910
20
110.165350
11
201.249982
21
110.670227
0
LINE
8
boundary
62
5
39
2
10
201.249982
20
110.670227
11
201.480893
21
111.160225
0
LINE
8
boundary
62
5
39
2
10
201.480893
20
111.160225
11
201.892678
21
111.571563
0
LINE
8
boundary
62
5
39
2
10
201.892678
20
111.571563
11
202.384690
21
111.789327
0
LINE
8
boundary
62
5
39
2
10
202.384690
20
111.789327
11
203.009615
21
111.865693
0
LINE
8
boundary
62
5
39
2
10
203.009615
20
111.865693
11
203.345778
21
112.277457
0
LINE
8
boundary
62
5
39
2
10
203.345778
20
112.277457
11
203.314969
21
112.858477
0
LINE
8
boundary
62
5
39
2
10
203.314969
20
112.858477
11
203.270458
21
113.380341
0
LINE
8
boundary
62
5
39
2
10
203.270458
20
113.380341
11
202.858026
21
113.791280
0
LINE
8
boundary
62
5
39
2
10
202.858026
20
113.791280
11
202.228849
21
113.768941
0
LINE
8
boundary
62
5
39
2
10
202.228849
20
113.768941
11
201.708720
21
113.906823
0
LINE
8
boundary
62
5
39
2
10
201.708720
20
113.906823
11
201.272627
21
114.211152
0
LINE
8
boundary
62
5
39
2
10
201.272627
20
114.211152
11
200.954720
21
114.648507
0
LINE
8
boundary
62
5
39
2
10
200.954720
20
114.648507
11
200.788809
21
115.185457
0
LINE
8
boundary
62
5
39
2
10
200.788809
20
115.185457
11
200.828354
21
115.693076
0
LINE
8
boundary
62
5
39
2
10
200.828354
20
115.693076
11
201.033301
21
116.194504
0
LINE
8
boundary
62
5
39
2
10
201.033301
20
116.194504
11
201.422969
21
116.626864
0
LINE
8
boundary
62
5
39
2
10
201.422969
20
116.626864
11
201.902942
21
116.870070
0
LINE
8
boundary
62
5
39
2
10
201.902942
20
116.870070
11
202.522999
21
116.979015
0
LINE
8
boundary
62
5
39
2
10
202.522999
20
116.979015
11
202.837140
21
117.407766
0
LINE
8
boundary
62
5
39
2
10
202.837140
20
117.407766
11
202.775951
21
117.986387
0
LINE
8
boundary
62
5
39
2
10
202.775951
20
117.986387
11
202.704153
21
118.505273
0
LINE
8
boundary
62
5
39
2
10
202.704153
20
118.505273
11
202.270865
21
118.894048
0
LINE
8
boundary
62
5
39
2
10
202.270865
20
118.894048
11
201.643765
21
118.838851
0
LINE
8
boundary
62
5
39
2
10
201.643765
20
118.838851
11
201.117096
21
118.949249
0
LINE
8
boundary
62
5
39
2
10
201.117096
20
118.949249
11
200.665651
21
119.230324
0
LINE
8
boundary
62
5
39
2
10
200.665651
20
119.230324
11
200.325223
21
119.650435
0
LINE
8
boundary
62
5
39
2
10
200.325223
20
119.650435
11
200.131509
21
120.178038
0
LINE
8
boundary
62
5
39
2
10
200.131509
20
120.178038
11
200.144426
21
120.687052
0
LINE
8
boundary
62
5
39
2
10
200.144426
20
120.687052
11
200.322836
21
121.198517
0
LINE
8
boundary
62
5
39
2
10
200.322836
20
121.198517
11
200.689408
21
121.650654
0
LINE
8
boundary
62
5
39
2
10
200.689408
20
121.650654
11
201.155895
21
121.918555
0
LINE
8
boundary
62
5
39
2
10
201.155895
20
121.918555
11
201.769515
21
122.059871
0
LINE
8
boundary
62
5
39
2
10
201.769515
20
122.059871
11
202.060747
21
122.504482
0
LINE
8
boundary
62
5
39
2
10
202.060747
20
122.504482
11
201.969351
21
123.079175
0
LINE
8
boundary
62
5
39
2
10
201.969351
20
123.079175
11
201.870574
21
123.593496
0
LINE
8
boundary
62
5
39
2
10
201.870574
20
123.593496
11
201.417471
21
123.959030
0
LINE
8
boundary
62
5
39
2
10
201.417471
20
123.959030
11
200.793999
21
123.871046
0
LINE
8
boundary
62
5
39
2
10
200.793999
20
123.871046
11
200.262345
21
123.953843
0
LINE
8
boundary
62
5
39
2
10
200.262345
20
123.953843
11
199.796894
21
124.210952
0
LINE
8
boundary
62
5
39
2
10
199.796894
20
124.210952
11
199.434888
21
124.612698
0
LINE
8
boundary
62
5
39
2
10
199.434888
20
124.612698
11
199.213887
21
125.129301
0
LINE
8
boundary
62
5
39
2
10
199.213887
20
125.129301
11
199.200135
21
125.638271
0
LINE
8
boundary
62
5
39
2
10
199.200135
20
125.638271
11
199.351500
21
126.158409
0
LINE
8
boundary
62
5
39
2
10
199.351500
20
126.158409
11
199.658232
21
126.592673
0
LINE
8
boundary
62
5
39
2
10
199.658232
20
126.592673
11
200.145728
21
126.921178
0
LINE
8
boundary
62
5
39
2
10
200.145728
20
126.921178
11
200.751039
21
127.094347
0
LINE
8
boundary
62
5
39
2
10
200.751039
20
127.094347
11
201.018662
21
127.553629
0
LINE
8
boundary
62
5
39
2
10
201.018662
20
127.553629
11
200.897335
21
128.122679
0
LINE
8
boundary
62
5
39
2
10
200.897335
20
128.122679
11
200.771683
21
128.631086
0
LINE
8
boundary
62
5
39
2
10
200.771683
20
128.631086
11
200.300115
21
128.972548
0
LINE
8
boundary
62
5
39
2
10
200.300115
20
128.972548
11
199.682142
21
128.851984
0
LINE
8
boundary
62
5
39
2
10
199.682142
20
128.851984
11
199.146861
21
128.906871
0
LINE
8
boundary
62
5
39
2
10
199.146861
20
128.906871
11
198.668547
21
129.139182
0
LINE
8
boundary
62
5
39
2
10
198.668547
20
129.139182
11
198.286091
21
129.521420
0
LINE
8
boundary
62
5
39
2
10
198.286091
20
129.521420
11
198.038323
21
130.025782
0
LINE
8
boundary
62
5
39
2
10
198.038323
20
130.025782
11
197.997883
21
130.533373
0
LINE
8
boundary
62
5
39
2
10
197.997883
20
130.533373
11
198.121907
21
131.060708
0
LINE
8
boundary
62
5
39
2
10
198.121907
20
131.060708
11
198.405550
21
131.510404
0
LINE
8
boundary
62
5
39
2
10
198.405550
20
131.510404
11
198.875123
21
131.863934
0
LINE
8
boundary
62
5
39
2
10
198.875123
20
131.863934
11
199.470582
21
132.068543
0
LINE
8
boundary
62
5
39
2
10
199.470582
20
132.068543
11
199.713802
21
132.541236
0
LINE
8
boundary
62
5
39
2
10
199.713802
20
132.541236
11
199.562824
21
133.103202
0
LINE
8
boundary
62
5
39
2
10
199.562824
20
133.103202
11
199.410713
21
133.604347
0
LINE
8
boundary
62
5
39
2
10
199.410713
20
133.604347
11
198.922020
21
133.920598
0
LINE
8
boundary
62
5
39
2
10
198.922020
20
133.920598
11
198.311205
21
133.767866
0
LINE
8
boundary
62
5
39
2
10
198.311205
20
133.767866
11
197.773749
21
133.794636
0
LINE
8
boundary
62
5
39
2
10
197.773749
20
133.794636
11
197.283911
21
134.001631
0
LINE
8
boundary
62
5
39
2
10
197.283911
20
134.001631
11
196.881962
21
134.363327
0
LINE
8
boundary
62
5
39
2
10
196.881962
20
134.363327
11
196.608147
21
134.854095
0
LINE
8
boundary
62
5
39
2
10
196.608147
20
134.854095
11
196.541216
21
135.358804
0
LINE
8
boundary
62
5
39
2
10
196.541216
20
135.358804
11
196.637404
21
135.891908
0
LINE
8
boundary
62
5
39
2
10
196.637404
20
135.891908
11
196.897121
21
136.355858
0
LINE
8
boundary
62
5
39
2
10
196.897121
20
136.355858
11
197.347619
21
136.733438
0
LINE
8
boundary
62
5
39
2
10
197.347619
20
136.733438
11
197.931455
21
136.968964
0
LINE
8
boundary
62
5
39
2
10
197.931455
20
136.968964
11
198.149610
21
137.453741
0
LINE
8
boundary
62
5
39
2
10
198.149610
20
137.453741
11
197.969432
21
138.006946
0
LINE
8
boundary
62
5
39
2
10
197.969432
20
138.006946
11
197.791384
21
138.499582
0
LINE
8
boundary
62
5
39
2
10
197.791384
20
138.499582
11
197.286715
21
138.789789
0
LINE
8
boundary
62
5
39
2
10
197.286715
20
138.789789
11
196.684717
21
138.605311
0
LINE
8
boundary
62
5
39
2
10
196.684717
20
138.605311
11
196.146638
21
138.603857
0
LINE
8
boundary
62
5
39
2
10
196.146638
20
138.603857
11
195.646632
21
138.785014
0
LINE
8
boundary
62
5
39
2
10
195.646632
20
138.785014
11
195.226315
21
139.125131
0
LINE
8
boundary
62
5
39
2
10
195.226315
20
139.125131
11
194.927187
21
139.600853
0
LINE
8
boundary
62
5
39
2
10
194.927187
20
139.600853
11
194.833937
21
140.101454
0
LINE
8
boundary
62
5
39
2
10
194.833937
20
140.101454
11
194.902124
21
140.638808
0
LINE
8
boundary
62
5
39
2
10
194.902124
20
140.638808
11
195.137165
21
141.115764
0
LINE
8
boundary
62
5
39
2
10
195.137165
20
141.115764
11
195.567259
21
141.516406
0
LINE
8
boundary
62
5
39
2
10
195.567259
20
141.516406
11
196.138027
21
141.782127
0
LINE
8
boundary
62
5
39
2
10
196.138027
20
141.782127
11
196.330486
21
142.277694
0
LINE
8
boundary
62
5
39
2
10
196.330486
20
142.277694
11
196.121628
21
142.820736
0
LINE
8
boundary
62
5
39
2
10
196.121628
20
142.820736
11
195.918061
21
143.303307
0
LINE
8
boundary
62
5
39
2
10
195.918061
20
143.303307
11
195.398858
21
143.566639
0
LINE
8
boundary
62
5
39
2
10
195.398858
20
143.566639
11
194.807343
21
143.351029
0
LINE
8
boundary
62
5
39
2
10
194.807343
20
143.351029
11
194.270093
21
143.321359
0
LINE
8
boundary
62
5
39
2
10
194.270093
20
143.321359
11
193.761270
21
143.476061
0
LINE
8
boundary
62
5
39
2
10
193.761270
20
143.476061
11
193.323730
21
143.793762
0
LINE
8
boundary
62
5
39
2
10
193.323730
20
143.793762
11
193.000113
21
144.253197
0
LINE
8
boundary
62
5
39
2
10
193.000113
20
144.253197
11
192.880796
21
144.748181
0
LINE
8
boundary
62
5
39
2
10
192.880796
20
144.748181
11
192.920812
21
145.288362
0
LINE
8
boundary
62
5
39
2
10
192.920812
20
145.288362
11
193.130513
21
145.776974
0
LINE
8
boundary
62
5
39
2
10
193.130513
20
145.776974
11
193.539027
21
146.199569
0
LINE
8
boundary
62
5
39
2
10
193.539027
20
146.199569
11
194.095158
21
146.494857
0
LINE
8
boundary
62
5
39
2
10
194.095158
20
146.494857
11
194.261416
21
146.999746
0
LINE
8
boundary
62
5
39
2
10
194.261416
20
146.999746
11
194.024396
21
147.531074
0
LINE
8
boundary
62
5
39
2
10
194.024396
20
147.531074
11
193.795825
21
148.002339
0
LINE
8
boundary
62
5
39
2
10
193.795825
20
148.002339
11
193.263657
21
148.238277
0
LINE
8
boundary
62
5
39
2
10
193.263657
20
148.238277
11
192.684180
21
147.991856
0
LINE
8
boundary
62
5
39
2
10
192.684180
20
147.991856
11
192.149208
21
147.934168
0
LINE
8
boundary
62
5
39
2
10
192.149208
20
147.934168
11
191.633021
21
148.062101
0
LINE
8
boundary
62
5
39
2
10
191.633021
20
148.062101
11
191.179500
21
148.356456
0
LINE
8
boundary
62
5
39
2
10
191.179500
20
148.356456
11
190.832222
21
148.798251
0
LINE
8
boundary
62
5
39
2
10
190.832222
20
148.798251
11
190.687153
21
149.286334
0
LINE
8
boundary
62
5
39
2
10
190.687153
20
149.286334
11
190.698823
21
149.827881
0
LINE
8
boundary
62
5
39
2
10
190.698823
20
149.827881
11
190.882747
21
150.326808
0
LINE
8
boundary
62
5
39
2
10
190.882747
20
150.326808
11
191.268520
21
150.770250
0
LINE
8
boundary
62
5
39
2
10
191.268520
20
150.770250
11
191.808470
21
151.094180
0
LINE
8
boundary
62
5
39
2
10
191.808470
20
151.094180
11
191.948086
21
151.607060
0
LINE
8
boundary
62
5
39
2
10
191.948086
20
151.607060
11
191.683550
21
152.125309
0
LINE
8
boundary
62
5
39
2
10
191.683550
20
152.125309
11
191.430626
21
152.583914
0
LINE
8
boundary
62
5
39
2
10
191.430626
20
152.583914
11
190.886803
21
152.791636
0
LINE
8
boundary
62
5
39
2
10
190.886803
20
152.791636
11
190.321013
21
152.515332
0
LINE
8
boundary
62
5
39
2
10
190.321013
20
152.515332
11
189.789783
21
152.429733
0
LINE
8
boundary
62
5
39
2
10
189.789783
20
152.429733
11
189.267679
21
152.530375
0
LINE
8
boundary
62
5
39
2
10
189.267679
20
152.530375
11
188.799322
21
152.800562
0
LINE
8
boundary
62
5
39
2
10
188.799322
20
152.800562
11
188.429431
21
153.223680
0
LINE
8
boundary
62
5
39
2
10
188.429431
20
153.223680
11
188.259039
21
153.703520
0
LINE
8
boundary
62
5
39
2
10
188.259039
20
153.703520
11
188.242306
21
154.244925
0
LINE
8
boundary
62
5
39
2
10
188.242306
20
154.244925
11
188.399839
21
154.752729
0
LINE
8
boundary
62
5
39
2
10
188.399839
20
154.752729
11
188.761969
21
155.215700
0
LINE
8
boundary
62
5
39
2
10
188.761969
20
155.215700
11
189.284176
21
155.567538
0
LINE
8
boundary
62
5
39
2
10
189.284176
20
155.567538
11
189.396743
21
156.087016
0
LINE
8
boundary
62
5
39
2
10
189.396743
20
156.087016
11
189.105504
21
156.590683
0
LINE
8
boundary
62
5
39
2
10
189.105504
20
156.590683
11
188.828892
21
157.035490
0
LINE
8
boundary
62
5
39
2
10
188.828892
20
157.035490
11
188.274935
21
157.214464
0
LINE
8
boundary
62
5
39
2
10
188.274935
20
157.214464
11
187.724399
21
156.908905
0
LINE
8
boundary
62
5
39
2
10
187.724399
20
156.908905
11
187.198359
21
156.795606
0
LINE
8
boundary
62
5
39
2
10
187.198359
20
156.795606
11
186.671689
21
156.868749
0
LINE
8
boundary
62
5
39
2
10
186.671689
20
156.868749
11
186.189845
21
157.114137
0
LINE
8
boundary
62
5
39
2
10
186.189845
20
157.114137
11
185.798263
21
157.517231
0
LINE
8
boundary
62
5
39
2
10
185.798263
20
157.517231
11
185.603013
21
157.987537
0
LINE
8
boundary
62
5
39
2
10
185.603013
20
157.987537
11
185.558016
21
158.527304
0
LINE
8
boundary
62
5
39
2
10
185.558016
20
158.527304
11
185.688715
21
159.042679
0
LINE
8
boundary
62
5
39
2
10
185.688715
20
159.042679
11
185.989848
21
159.486211
0
LINE
8
boundary
62
5
39
2
10
185.989848
20
159.486211
11
186.529123
21
159.902593
0
LINE
8
boundary
62
5
39
2
10
186.529123
20
159.902593
11
186.614458
21
160.427266
0
LINE
8
boundary
62
5
39
2
10
186.614458
20
160.427266
11
186.297233
21
160.915050
0
LINE
8
boundary
62
5
39
2
10
186.297233
20
160.915050
11
185.997682
21
161.344705
0
LINE
8
boundary
62
5
39
2
10
185.997682
20
161.344705
11
185.435119
21
161.494423
0
LINE
8
boundary
62
5
39
2
10
185.435119
20
161.494423
11
184.901400
21
161.160535
0
LINE
8
boundary
62
5
39
2
10
184.901400
20
161.160535
11
184.381992
21
161.019846
0
LINE
8
boundary
62
5
39
2
10
184.381992
20
161.019846
11
183.852203
21
161.065392
0
LINE
8
boundary
62
5
39
2
10
183.852203
20
161.065392
11
183.358120
21
161.285152
0
LINE
8
boundary
62
5
39
2
10
183.358120
20
161.285152
11
182.946099
21
161.667287
0
LINE
8
boundary
62
5
39
2
10
182.946099
20
161.667287
11
182.726485
21
162.126621
0
LINE
8
boundary
62
5
39
2
10
182.726485
20
162.126621
11
182.653246
21
162.663337
0
LINE
8
boundary
62
5
39
2
10
182.653246
20
162.663337
11
182.756833
21
163.184792
0
LINE
8
boundary
62
5
39
2
10
182.756833
20
163.184792
11
183.034326
21
163.643532
0
LINE
8
boundary
62
5
39
2
10
183.034326
20
163.643532
11
183.551101
21
164.087615
0
LINE
8
boundary
62
5
39
2
10
183.551101
20
164.087615
11
183.608747
21
164.615981
0
LINE
8
boundary
62
5
39
2
10
183.608747
20
164.615981
11
183.266501
21
165.086482
0
LINE
8
boundary
62
5
39
2
10
183.266501
20
165.086482
11
182.944858
21
165.499950
0
LINE
8
boundary
62
5
39
2
10
182.944858
20
165.499950
11
182.375235
21
165.619995
0
LINE
8
boundary
62
5
39
2
10
182.375235
20
165.619995
11
181.859768
21
165.258613
0
LINE
8
boundary
62
5
39
2
10
181.859768
20
165.258613
11
181.348359
21
165.090939
0
LINE
8
boundary
62
5
39
2
10
181.348359
20
165.090939
11
180.816911
21
165.108683
0
LINE
8
boundary
62
5
39
2
10
180.816911
20
165.108683
11
180.312037
21
165.302294
0
LINE
8
boundary
62
5
39
2
10
180.312037
20
165.302294
11
179.880510
21
165.662331
0
LINE
8
boundary
62
5
39
2
10
179.880510
20
165.662331
11
179.637193
21
166.109544
0
LINE
8
boundary
62
5
39
2
10
179.637193
20
166.109544
11
179.535979
21
166.641713
0
LINE
8
boundary
62
5
39
2
10
179.535979
20
166.641713
11
179.612119
21
167.167862
0
LINE
8
boundary
62
5
39
2
10
179.612119
20
167.167862
11
179.865273
21
167.640465
0
LINE
8
boundary
62
5
39
2
10
179.865273
20
167.640465
11
180.358097
21
168.110989
0
LINE
8
boundary
62
5
39
2
10
180.358097
20
168.110989
11
180.388073
21
168.641712
0
LINE
8
boundary
62
5
39
2
10
180.388073
20
168.641712
11
180.021514
21
169.093663
0
LINE
8
boundary
62
5
39
2
10
180.021514
20
169.093663
11
179.678809
21
169.489599
0
LINE
8
boundary
62
5
39
2
10
179.678809
20
169.489599
11
179.103680
21
169.579764
0
LINE
8
boundary
62
5
39
2
10
179.103680
20
169.579764
11
178.607726
21
169.191815
0
LINE
8
boundary
62
5
39
2
10
178.607726
20
169.191815
11
178.105855
21
168.997690
0
LINE
8
boundary
62
5
39
2
10
178.105855
20
168.997690
11
177.574207
21
168.987522
0
LINE
8
boundary
62
5
39
2
10
177.574207
20
168.987522
11
177.059885
21
169.154463
0
LINE
8
boundary
62
5
39
2
10
177.059885
20
169.154463
11
176.610203
21
169.491361
0
LINE
8
boundary
62
5
39
2
10
176.610203
20
169.491361
11
176.343737
21
169.925287
0
LINE
8
boundary
62
5
39
2
10
176.343737
20
169.925287
11
176.214828
21
170.451402
0
LINE
8
boundary
62
5
39
2
10
176.214828
20
170.451402
11
176.263323
21
170.980891
0
LINE
8
boundary
62
5
39
2
10
176.263323
20
170.980891
11
176.491357
21
171.466109
0
LINE
8
boundary
62
5
39
2
10
176.491357
20
171.466109
11
176.958929
21
171.961698
0
LINE
8
boundary
62
5
39
2
10
176.958929
20
171.961698
11
176.961057
21
172.493289
0
LINE
8
boundary
62
5
39
2
10
176.961057
20
172.493289
11
176.571398
21
172.925393
0
LINE
8
boundary
62
5
39
2
10
176.571398
20
172.925393
11
176.208357
21
173.302963
0
LINE
8
boundary
62
5
39
2
10
176.208357
20
173.302963
11
175.629292
21
173.362830
0
LINE
8
boundary
62
5
39
2
10
175.629292
20
173.362830
11
175.154394
21
172.949465
0
LINE
8
boundary
62
5
39
2
10
175.154394
20
172.949465
11
174.663423
21
172.729293
0
LINE
8
boundary
62
5
39
2
10
174.663423
20
172.729293
11
174.133017
21
172.691420
0
LINE
8
boundary
62
5
39
2
10
174.133017
20
172.691420
11
173.610605
21
172.831183
0
LINE
8
boundary
62
5
39
2
10
173.610605
20
172.831183
11
173.143906
21
173.144112
0
LINE
8
boundary
62
5
39
2
10
173.143906
20
173.144112
11
172.855093
21
173.563455
0
LINE
8
boundary
62
5
39
2
10
172.855093
20
173.563455
11
172.698791
21
174.082121
0
LINE
8
boundary
62
5
39
2
10
172.698791
20
174.082121
11
172.719540
21
174.613375
0
LINE
8
boundary
62
5
39
2
10
172.719540
20
174.613375
11
172.921876
21
175.109881
0
LINE
8
boundary
62
5
39
2
10
172.921876
20
175.109881
11
173.362830
21
175.629292
0
LINE
8
boundary
62
5
39
2
10
173.362830
20
175.629292
11
173.337134
21
176.160235
0
LINE
8
boundary
62
5
39
2
10
173.337134
20
176.160235
11
172.925393
21
176.571398
0
LINE
8
boundary
62
5
39
2
10
172.925393
20
176.571398
11
172.543155
21
176.929467
0
LINE
8
boundary
62
5
39
2
10
172.543155
20
176.929467
11
171.961698
21
176.958928
0
LINE
8
boundary
62
5
39
2
10
171.961698
20
176.958928
11
171.509116
21
176.521286
0
LINE
8
boundary
62
5
39
2
10
171.509116
20
176.521286
11
171.030281
21
176.275698
0
LINE
8
boundary
62
5
39
2
10
171.030281
20
176.275698
11
170.502576
21
176.210119
0
LINE
8
boundary
62
5
39
2
10
170.502576
20
176.210119
11
169.973624
21
176.322388
0
LINE
8
boundary
62
5
39
2
10
169.973624
20
176.322388
11
169.491155
21
176.610410
0
LINE
8
boundary
62
5
39
2
10
169.491155
20
176.610410
11
169.180833
21
177.014112
0
LINE
8
boundary
62
5
39
2
10
169.180833
20
177.014112
11
168.997607
21
177.523851
0
LINE
8
boundary
62
5
39
2
10
168.997607
20
177.523851
11
168.990483
21
178.055474
0
LINE
8
boundary
62
5
39
2
10
168.990483
20
178.055474
11
169.166567
21
178.561864
0
LINE
8
boundary
62
5
39
2
10
169.166567
20
178.561864
11
169.579764
21
179.103680
0
LINE
8
boundary
62
5
39
2
10
169.579764
20
179.103680
11
169.526264
21
179.632507
0
LINE
8
boundary
62
5
39
2
10
169.526264
20
179.632507
11
169.093662
21
180.021514
0
LINE
8
boundary
62
5
39
2
10
169.093662
20
180.021514
11
168.693166
21
180.359133
0
LINE
8
boundary
62
5
39
2
10
168.693166
20
180.359133
11
168.110989
21
180.358097
0
LINE
8
boundary
62
5
39
2
10
168.110989
20
180.358097
11
167.681848
21
179.897418
0
LINE
8
boundary
62
5
39
2
10
167.681848
20
179.897418
11
167.216603
21
179.627134
0
LINE
8
boundary
62
5
39
2
10
167.216603
20
179.627134
11
166.693046
21
179.533965
0
LINE
8
boundary
62
5
39
2
10
166.693046
20
179.533965
11
166.158910
21
179.618420
0
LINE
8
boundary
62
5
39
2
10
166.158910
20
179.618420
11
165.662016
21
179.880819
0
LINE
8
boundary
62
5
39
2
10
165.662016
20
179.880819
11
165.330937
21
180.267688
0
LINE
8
boundary
62
5
39
2
10
165.330937
20
180.267688
11
165.121321
21
180.767154
0
LINE
8
boundary
62
5
39
2
10
165.121321
20
180.767154
11
165.086458
21
181.297721
0
LINE
8
boundary
62
5
39
2
10
165.086458
20
181.297721
11
165.235781
21
181.812597
0
LINE
8
boundary
62
5
39
2
10
165.235781
20
181.812597
11
165.619995
21
182.375234
0
LINE
8
boundary
62
5
39
2
10
165.619995
20
182.375234
11
165.538955
21
182.900642
0
LINE
8
boundary
62
5
39
2
10
165.538955
20
182.900642
11
165.086482
21
183.266502
0
LINE
8
boundary
62
5
39
2
10
165.086482
20
183.266502
11
164.668860
21
183.582543
0
LINE
8
boundary
62
5
39
2
10
164.668860
20
183.582543
11
164.087615
21
183.551101
0
LINE
8
boundary
62
5
39
2
10
164.087615
20
183.551101
11
163.683170
21
183.068536
0
LINE
8
boundary
62
5
39
2
10
163.683170
20
183.068536
11
163.232659
21
182.774283
0
LINE
8
boundary
62
5
39
2
10
163.232659
20
182.774283
11
162.714710
21
182.653918
0
LINE
8
boundary
62
5
39
2
10
162.714710
20
182.653918
11
162.176940
21
182.710267
0
LINE
8
boundary
62
5
39
2
10
162.176940
20
182.710267
11
161.666972
21
182.946311
0
LINE
8
boundary
62
5
39
2
10
161.666972
20
182.946311
11
161.316158
21
183.315317
0
LINE
8
boundary
62
5
39
2
10
161.316158
20
183.315317
11
161.080650
21
183.803161
0
LINE
8
boundary
62
5
39
2
10
161.080650
20
183.803161
11
161.018015
21
184.331093
0
LINE
8
boundary
62
5
39
2
10
161.018015
20
184.331093
11
161.140203
21
184.853119
0
LINE
8
boundary
62
5
39
2
10
161.140203
20
184.853119
11
161.494423
21
185.435119
0
LINE
8
boundary
62
5
39
2
10
161.494423
20
185.435119
11
161.385970
21
185.955508
0
LINE
8
boundary
62
5
39
2
10
161.385970
20
185.955508
11
160.915050
21
186.297233
0
LINE
8
boundary
62
5
39
2
10
160.915050
20
186.297233
11
160.481452
21
186.591069
0
LINE
8
boundary
62
5
39
2
10
160.481452
20
186.591069
11
159.902593
21
186.529123
0
LINE
8
boundary
62
5
39
2
10
159.902593
20
186.529123
11
159.523989
21
186.026120
0
LINE
8
boundary
62
5
39
2
10
159.523989
20
186.026120
11
159.089555
21
185.708625
0
LINE
8
boundary
62
5
39
2
10
159.089555
20
185.708625
11
158.578558
21
185.561286
0
LINE
8
boundary
62
5
39
2
10
158.578558
20
185.561286
11
158.038608
21
185.589403
0
LINE
8
boundary
62
5
39
2
10
158.038608
20
185.589403
11
157.516916
21
185.798469
0
LINE
8
boundary
62
5
39
2
10
157.516916
20
185.798469
11
157.147299
21
186.148644
0
LINE
8
boundary
62
5
39
2
10
157.147299
20
186.148644
11
156.886608
21
186.623471
0
LINE
8
boundary
62
5
39
2
10
156.886608
20
186.623471
11
156.796429
21
187.147485
0
LINE
8
boundary
62
5
39
2
10
156.796429
20
187.147485
11
156.891146
21
187.675129
0
LINE
8
boundary
62
5
39
2
10
156.891146
20
187.675129
11
157.214464
21
188.274935
0
LINE
8
boundary
62
5
39
2
10
157.214464
20
188.274935
11
157.035490
21
188.828892
0
LINE
8
boundary
62
5
39
2
10
157.035490
20
188.828892
11
156.590683
21
189.105504
0
LINE
8
boundary
62
5
39
2
10
156.590683
20
189.105504
11
156.142352
21
189.376212
0
LINE
8
boundary
62
5
39
2
10
156.142352
20
189.376212
11
155.567538
21
189.284176
0
LINE
8
boundary
62
5
39
2
10
155.567538
20
189.284176
11
155.215700
21
188.761969
0
LINE
8
boundary
62
5
39
2
10
155.215700
20
188.761969
11
154.798496
21
188.422164
0
LINE
8
boundary
62
5
39
2
10
154.798496
20
188.422164
11
154.296004
21
188.248265
0
LINE
8
boundary
62
5
39
2
10
154.296004
20
188.248265
11
153.755221
21
188.248162
0
LINE
8
boundary
62
5
39
2
10
153.755221
20
188.248162
11
153.223365
21
188.429637
0
LINE
8
boundary
62
5
39
2
10
153.223365
20
188.429637
11
152.835888
21
188.759904
0
LINE
8
boundary
62
5
39
2
10
152.835888
20
188.759904
11
152.550667
21
189.220454
0
LINE
8
boundary
62
5
39
2
10
152.550667
20
189.220454
11
152.433255
21
189.739029
0
LINE
8
boundary
62
5
39
2
10
152.433255
20
189.739029
11
152.500150
21
190.270908
0
LINE
8
boundary
62
5
39
2
10
152.500150
20
190.270908
11
152.791636
21
190.886803
0
LINE
8
boundary
62
5
39
2
10
152.791636
20
190.886803
11
152.583914
21
191.430690
0
LINE
8
boundary
62
5
39
2
10
152.583914
20
191.430690
11
152.125309
21
191.683551
0
LINE
8
boundary
62
5
39
2
10
152.125309
20
191.683551
11
151.663389
21
191.930490
0
LINE
8
boundary
62
5
39
2
10
151.663389
20
191.930490
11
151.094180
21
191.808471
0
LINE
8
boundary
62
5
39
2
10
151.094180
20
191.808471
11
150.770250
21
191.268520
0
LINE
8
boundary
62
5
39
2
10
150.770250
20
191.268520
11
150.371307
21
190.907447
0
LINE
8
boundary
62
5
39
2
10
150.371307
20
190.907447
11
149.878568
21
190.707508
0
LINE
8
boundary
62
5
39
2
10
149.878568
20
190.707508
11
149.338618
21
190.678979
0
LINE
8
boundary
62
5
39
2
10
149.338618
20
190.678979
11
148.797942
21
190.832428
0
LINE
8
boundary
62
5
39
2
10
148.797942
20
190.832428
11
148.393743
21
191.141984
0
LINE
8
boundary
62
5
39
2
10
148.393743
20
191.141984
11
148.084847
21
191.586941
0
LINE
8
boundary
62
5
39
2
10
148.084847
20
191.586941
11
147.940348
21
192.098692
0
LINE
8
boundary
62
5
39
2
10
147.940348
20
192.098692
11
147.979371
21
192.633321
0
LINE
8
boundary
62
5
39
2
10
147.979371
20
192.633321
11
148.238277
21
193.263656
0
LINE
8
boundary
62
5
39
2
10
148.238277
20
193.263656
11
148.002338
21
193.795825
0
LINE
8
boundary
62
5
39
2
10
148.002338
20
193.795825
11
147.531074
21
194.024396
0
LINE
8
boundary
62
5
39
2
10
147.531074
20
194.024396
11
147.056905
21
194.246748
0
LINE
8
boundary
62
5
39
2
10
147.056905
20
194.246748
11
146.494857
21
194.095159
0
LINE
8
boundary
62
5
39
2
10
146.494857
20
194.095159
11
146.199569
21
193.539027
0
LINE
8
boundary
62
5
39
2
10
146.199569
20
193.539027
11
145.820125
21
193.157516
0
LINE
8
boundary
62
5
39
2
10
145.820125
20
193.157516
11
145.338490
21
192.932051
0
LINE
8
boundary
62
5
39
2
10
145.338490
20
192.932051
11
144.800823
21
192.875399
0
LINE
8
boundary
62
5
39
2
10
144.800823
20
192.875399
11
144.252885
21
193.000216
0
LINE
8
boundary
62
5
39
2
10
144.252885
20
193.000216
11
143.793862
21
193.323943
0
LINE
8
boundary
62
5
39
2
10
143.793862
20
193.323943
11
143.476370
21
193.761482
0
LINE
8
boundary
62
5
39
2
10
143.476370
20
193.761482
11
143.321671
21
194.270196
0
LINE
8
boundary
62
5
39
2
10
143.321671
20
194.270196
11
143.351030
21
194.807343
0
LINE
8
boundary
62
5
39
2
10
143.351030
20
194.807343
11
143.566638
21
195.398858
0
LINE
8
boundary
62
5
39
2
10
143.566638
20
195.398858
11
143.303204
21
195.918061
0
LINE
8
boundary
62
5
39
2
10
143.303204
20
195.918061
11
142.820736
21
196.121628
0
LINE
8
boundary
62
5
39
2
10
142.820736
20
196.121628
11
142.335567
21
196.318872
0
LINE
8
boundary
62
5
39
2
10
142.335567
20
196.318872
11
141.822600
21
196.182896
0
LINE
8
boundary
62
5
39
2
10
141.822600
20
196.182896
11
141.516406
21
195.567259
0
LINE
8
boundary
62
5
39
2
10
141.516406
20
195.567259
11
141.157414
21
195.166447
0
LINE
8
boundary
62
5
39
2
10
141.157414
20
195.166447
11
140.688326
21
194.916087
0
LINE
8
boundary
62
5
39
2
10
140.688326
20
194.916087
11
140.154292
21
194.831311
0
LINE
8
boundary
62
5
39
2
10
140.154292
20
194.831311
11
139.600541
21
194.927291
0
LINE
8
boundary
62
5
39
2
10
139.600541
20
194.927291
11
139.125234
21
195.226521
0
LINE
8
boundary
62
5
39
2
10
139.125234
20
195.226521
11
138.785329
21
195.646845
0
LINE
8
boundary
62
5
39
2
10
138.785329
20
195.646845
11
138.604172
21
196.146741
0
LINE
8
boundary
62
5
39
2
10
138.604172
20
196.146741
11
138.605310
21
196.684717
0
LINE
8
boundary
62
5
39
2
10
138.605310
20
196.684717
11
138.789789
21
197.286715
0
LINE
8
boundary
62
5
39
2
10
138.789789
20
197.286715
11
138.499479
21
197.791384
0
LINE
8
boundary
62
5
39
2
10
138.499479
20
197.791384
11
138.006946
21
197.969432
0
LINE
8
boundary
62
5
39
2
10
138.006946
20
197.969432
11
137.512130
21
198.141048
0
LINE
8
boundary
62
5
39
2
10
137.512130
20
198.141048
11
137.007018
21
197.978349
0
LINE
8
boundary
62
5
39
2
10
137.007018
20
197.978349
11
136.733438
21
197.347619
0
LINE
8
boundary
62
5
39
2
10
136.733438
20
197.347619
11
136.395919
21
196.928446
0
LINE
8
boundary
62
5
39
2
10
136.395919
20
196.928446
11
135.940632
21
196.653899
0
LINE
8
boundary
62
5
39
2
10
135.940632
20
196.653899
11
135.411682
21
196.541327
0
LINE
8
boundary
62
5
39
2
10
135.411682
20
196.541327
11
134.853783
21
196.608250
0
LINE
8
boundary
62
5
39
2
10
134.853783
20
196.608250
11
134.363430
21
196.882167
0
LINE
8
boundary
62
5
39
2
10
134.363430
20
196.882167
11
134.001942
21
197.284117
0
LINE
8
boundary
62
5
39
2
10
134.001942
20
197.284117
11
133.794948
21
197.773853
0
LINE
8
boundary
62
5
39
2
10
133.794948
20
197.773853
11
133.767866
21
198.311204
0
LINE
8
boundary
62
5
39
2
10
133.767866
20
198.311204
11
133.920597
21
198.922020
0
LINE
8
boundary
62
5
39
2
10
133.920597
20
198.922020
11
133.604347
21
199.410713
0
LINE
8
boundary
62
5
39
2
10
133.604347
20
199.410713
11
133.103202
21
199.562824
0
LINE
8
boundary
62
5
39
2
10
133.103202
20
199.562824
11
132.599981
21
199.708291
0
LINE
8
boundary
62
5
39
2
10
132.599981
20
199.708291
11
132.104099
21
199.519416
0
LINE
8
boundary
62
5
39
2
10
132.104099
20
199.519416
11
131.863934
21
198.875124
0
LINE
8
boundary
62
5
39
2
10
131.863934
20
198.875124
11
131.548825
21
198.438928
0
LINE
8
boundary
62
5
39
2
10
131.548825
20
198.438928
11
131.108481
21
198.140939
0
LINE
8
boundary
62
5
39
2
10
131.108481
20
198.140939
11
130.586172
21
198.000770
0
LINE
8
boundary
62
5
39
2
10
130.586172
20
198.000770
11
130.025471
21
198.038432
0
LINE
8
boundary
62
5
39
2
10
130.025471
20
198.038432
11
129.521524
21
198.286309
0
LINE
8
boundary
62
5
39
2
10
129.521524
20
198.286309
11
129.139493
21
198.668753
0
LINE
8
boundary
62
5
39
2
10
129.139493
20
198.668753
11
128.907079
21
199.146964
0
LINE
8
boundary
62
5
39
2
10
128.907079
20
199.146964
11
128.851984
21
199.682142
0
LINE
8
boundary
62
5
39
2
10
128.851984
20
199.682142
11
128.972548
21
200.300115
0
LINE
8
boundary
62
5
39
2
10
128.972548
20
200.300115
11
128.631086
21
200.771683
0
LINE
8
boundary
62
5
39
2
10
128.631086
20
200.771683
11
128.122679
21
200.897336
0
LINE
8
boundary
62
5
39
2
10
128.122679
20
200.897336
11
127.612611
21
201.016242
0
LINE
8
boundary
62
5
39
2
10
127.612611
20
201.016242
11
127.127287
21
200.801659
0
LINE
8
boundary
62
5
39
2
10
127.127287
20
200.801659
11
126.921178
21
200.145728
0
LINE
8
boundary
62
5
39
2
10
126.921178
20
200.145728
11
126.629311
21
199.693660
0
LINE
8
boundary
62
5
39
2
10
126.629311
20
199.693660
11
126.205050
21
199.373046
0
LINE
8
boundary
62
5
39
2
10
126.205050
20
199.373046
11
125.690833
21
199.205693
0
LINE
8
boundary
62
5
39
2
10
125.690833
20
199.205693
11
125.128991
21
199.213990
0
LINE
8
boundary
62
5
39
2
10
125.128991
20
199.213990
11
124.612697
21
199.435100
0
LINE
8
boundary
62
5
39
2
10
124.612697
20
199.435100
11
124.211262
21
199.797106
0
LINE
8
boundary
62
5
39
2
10
124.211262
20
199.797106
11
123.954050
21
200.262448
0
LINE
8
boundary
62
5
39
2
10
123.954050
20
200.262448
11
123.871046
21
200.793999
0
LINE
8
boundary
62
5
39
2
10
123.871046
20
200.793999
11
123.959029
21
201.417471
0
LINE
8
boundary
62
5
39
2
10
123.959029
20
201.417471
11
123.593496
21
201.870574
0
LINE
8
boundary
62
5
39
2
10
123.593496
20
201.870574
11
123.079175
21
201.969351
0
LINE
8
boundary
62
5
39
2
10
123.079175
20
201.969351
11
122.563504
21
202.061381
0
LINE
8
boundary
62
5
39
2
10
122.563504
20
202.061381
11
122.090115
21
201.821760
0
LINE
8
boundary
62
5
39
2
10
122.090115
20
201.821760
11
121.918555
21
201.155895
0
LINE
8
boundary
62
5
39
2
10
121.918555
20
201.155895
11
121.650758
21
200.689203
0
LINE
8
boundary
62
5
39
2
10
121.650758
20
200.689203
11
121.243928
21
200.346812
0
LINE
8
boundary
62
5
39
2
10
121.243928
20
200.346812
11
120.739257
21
200.152783
0
LINE
8
boundary
62
5
39
2
10
120.739257
20
200.152783
11
120.177623
21
200.131612
0
LINE
8
boundary
62
5
39
2
10
120.177623
20
200.131612
11
119.650538
21
200.325429
0
LINE
8
boundary
62
5
39
2
10
119.650538
20
200.325429
11
119.230636
21
200.665960
0
LINE
8
boundary
62
5
39
2
10
119.230636
20
200.665960
11
118.949559
21
201.117199
0
LINE
8
boundary
62
5
39
2
10
118.949559
20
201.117199
11
118.838851
21
201.643765
0
LINE
8
boundary
62
5
39
2
10
118.838851
20
201.643765
11
118.894048
21
202.270865
0
LINE
8
boundary
62
5
39
2
10
118.894048
20
202.270865
11
118.505273
21
202.704153
0
LINE
8
boundary
62
5
39
2
10
118.505273
20
202.704153
11
117.986387
21
202.775952
0
LINE
8
boundary
62
5
39
2
10
117.986387
20
202.775952
11
117.466670
21
202.840906
0
LINE
8
boundary
62
5
39
2
10
117.466670
20
202.840906
11
117.006484
21
202.576787
0
LINE
8
boundary
62
5
39
2
10
117.006484
20
202.576787
11
116.870070
21
201.902943
0
LINE
8
boundary
62
5
39
2
10
116.870070
20
201.902943
11
116.627072
21
201.422763
0
LINE
8
boundary
62
5
39
2
10
116.627072
20
201.422763
11
116.238711
21
201.059511
0
LINE
8
boundary
62
5
39
2
10
116.238711
20
201.059511
11
115.744829
21
200.839442
0
LINE
8
boundary
62
5
39
2
10
115.744829
20
200.839442
11
115.185093
21
200.788912
0
LINE
8
boundary
62
5
39
2
10
115.185093
20
200.788912
11
114.648579
21
200.954927
0
LINE
8
boundary
62
5
39
2
10
114.648579
20
200.954927
11
114.211411
21
201.272936
0
LINE
8
boundary
62
5
39
2
10
114.211411
20
201.272936
11
113.907061
21
201.708926
0
LINE
8
boundary
62
5
39
2
10
113.907061
20
201.708926
11
113.768941
21
202.228849
0
LINE
8
boundary
62
5
39
2
10
113.768941
20
202.228849
11
113.791280
21
202.858026
0
LINE
8
boundary
62
5
39
2
10
113.791280
20
202.858026
11
113.380321
21
203.270458
0
LINE
8
boundary
62
5
39
2
10
113.380321
20
203.270458
11
112.858477
21
203.314969
0
LINE
8
boundary
62
5
39
2
10
112.858477
20
203.314969
11
112.336083
21
203.352636
0
LINE
8
boundary
62
5
39
2
10
112.336083
20
203.352636
11
111.890297
21
203.064755
0
LINE
8
boundary
62
5
39
2
10
111.890297
20
203.064755
11
111.789327
21
202.384690
0
LINE
8
boundary
62
5
39
2
10
111.789327
20
202.384690
11
111.571771
21
201.892466
0
LINE
8
boundary
62
5
39
2
10
111.571771
20
201.892466
11
111.202968
21
201.509405
0
LINE
8
boundary
62
5
39
2
10
111.202968
20
201.509405
11
110.721268
21
201.263810
0
LINE
8
boundary
62
5
39
2
10
110.721268
20
201.263810
11
110.164987
21
201.184025
0
LINE
8
boundary
62
5
39
2
10
110.164987
20
201.184025
11
109.620514
21
201.321704
0
LINE
8
boundary
62
5
39
2
10
109.620514
20
201.321704
11
109.167306
21
201.616369
0
LINE
8
boundary
62
5
39
2
10
109.167306
20
201.616369
11
108.840555
21
202.035862
0
LINE
8
boundary
62
5
39
2
10
108.840555
20
202.035862
11
108.675406
21
202.547798
0
LINE
8
boundary
62
5
39
2
10
108.675406
20
202.547798
11
108.664781
21
203.177393
0
LINE
8
boundary
62
5
39
2
10
108.664781
20
203.177393
11
108.232811
21
203.567618
0
LINE
8
boundary
62
5
39
2
10
108.232811
20
203.567618
11
107.709349
21
203.584738
0
LINE
8
boundary
62
5
39
2
10
107.709349
20
203.584738
11
107.185700
21
203.595015
0
LINE
8
boundary
62
5
39
2
10
107.185700
20
203.595015
11
106.755595
21
203.284286
0
LINE
8
boundary
62
5
39
2
10
106.755595
20
203.284286
11
106.690345
21
202.599775
0
LINE
8
boundary
62
5
39
2
10
106.690345
20
202.599775
11
106.498852
21
202.096972
0
LINE
8
boundary
62
5
39
2
10
106.498852
20
202.096972
11
106.150611
21
201.695125
0
LINE
8
boundary
62
5
39
2
10
106.150611
20
201.695125
11
105.682415
21
201.424526
0
LINE
8
boundary
62
5
39
2
10
105.682415
20
201.424526
11
105.131074
21
201.315793
0
LINE
8
boundary
62
5
39
2
10
105.131074
20
201.315793
11
104.580149
21
201.424732
0
LINE
8
boundary
62
5
39
2
10
104.580149
20
201.424732
11
104.112137
21
201.695330
0
LINE
8
boundary
62
5
39
2
10
104.112137
20
201.695330
11
103.763880
21
202.097177
0
LINE
8
boundary
62
5
39
2
10
103.763880
20
202.097177
11
103.572169
21
202.599775
0
LINE
8
boundary
62
5
39
2
10
103.572169
20
202.599775
11
103.528602
21
203.227916
0
LINE
8
boundary
62
5
39
2
10
103.528602
20
203.227916
11
103.076794
21
203.595015
0
LINE
8
boundary
62
5
39
2
10
103.076794
20
203.595015
11
102.553166
21
203.584738
0
LINE
8
boundary
62
5
39
2
10
102.553166
20
203.584738
11
102.029693
21
203.567618
0
LINE
8
boundary
62
5
39
2
10
102.029693
20
203.567618
11
101.616435
21
203.234788
0
LINE
8
boundary
62
5
39
2
10
101.616435
20
203.234788
11
101.587109
21
202.547798
0
LINE
8
boundary
62
5
39
2
10
101.587109
20
202.547798
11
101.422188
21
202.035650
0
LINE
8
boundary
62
5
39
2
10
101.422188
20
202.035650
11
101.095458
21
201.616060
0
LINE
8
boundary
62
5
39
2
10
101.095458
20
201.616060
11
100.642063
21
201.321498
0
LINE
8
boundary
62
5
39
2
10
100.642063
20
201.321498
11
100.097164
21
201.183909
0
LINE
8
boundary
62
5
39
2
10
100.097164
20
201.183909
11
99.541288
21
201.264016
0
LINE
8
boundary
62
5
39
2
10
99.541288
20
201.264016
11
99.059765
21
201.509713
0
LINE
8
boundary
62
5
39
2
10
99.059765
20
201.509713
11
98.690951
21
201.892678
0
LINE
8
boundary
62
5
39
2
10
98.690951
20
201.892678
11
98.473187
21
202.384690
0
LINE
8
boundary
62
5
39
2
10
98.473187
20
202.384690
11
98.396822
21
203.009616
0
LINE
8
boundary
62
5
39
2
10
98.396822
20
203.009616
11
97.926410
21
203.352636
0
LINE
8
boundary
62
5
39
2
10
97.926410
20
203.352636
11
97.404038
21
203.314969
0
LINE
8
boundary
62
5
39
2
10
97.404038
20
203.314969
11
96.882174
21
203.270458
0
LINE
8
boundary
62
5
39
2
10
96.882174
20
203.270458
11
96.486908
21
202.916377
0
LINE
8
boundary
62
5
39
2
10
96.486908
20
202.916377
11
96.493574
21
202.228849
0
LINE
8
boundary
62
5
39
2
10
96.493574
20
202.228849
11
96.355692
21
201.708720
0
LINE
8
boundary
62
5
39
2
10
96.355692
20
201.708720
11
96.051363
21
201.272627
0
LINE
8
boundary
62
5
39
2
10
96.051363
20
201.272627
11
95.614008
21
200.954721
0
LINE
8
boundary
62
5
39
2
10
95.614008
20
200.954721
11
95.077058
21
200.788809
0
LINE
8
boundary
62
5
39
2
10
95.077058
20
200.788809
11
94.517788
21
200.839653
0
LINE
8
boundary
62
5
39
2
10
94.517788
20
200.839653
11
94.024011
21
201.059820
0
LINE
8
boundary
62
5
39
2
10
94.024011
20
201.059820
11
93.635650
21
201.422969
0
LINE
8
boundary
62
5
39
2
10
93.635650
20
201.422969
11
93.392445
21
201.902943
0
LINE
8
boundary
62
5
39
2
10
93.392445
20
201.902943
11
93.283500
21
202.522999
0
LINE
8
boundary
62
5
39
2
10
93.283500
20
202.522999
11
92.795741
21
202.840906
0
LINE
8
boundary
62
5
39
2
10
92.795741
20
202.840906
11
92.276128
21
202.775951
0
LINE
8
boundary
62
5
39
2
10
92.276128
20
202.775951
11
91.757242
21
202.704154
0
LINE
8
boundary
62
5
39
2
10
91.757242
20
202.704154
11
91.381071
21
202.329928
0
LINE
8
boundary
62
5
39
2
10
91.381071
20
202.329928
11
91.423664
21
201.643765
0
LINE
8
boundary
62
5
39
2
10
91.423664
20
201.643765
11
91.313266
21
201.117095
0
LINE
8
boundary
62
5
39
2
10
91.313266
20
201.117095
11
91.032191
21
200.665652
0
LINE
8
boundary
62
5
39
2
10
91.032191
20
200.665652
11
90.612079
21
200.325223
0
LINE
8
boundary
62
5
39
2
10
90.612079
20
200.325223
11
90.084477
21
200.131509
0
LINE
8
boundary
62
5
39
2
10
90.084477
20
200.131509
11
89.523257
21
200.152989
0
LINE
8
boundary
62
5
39
2
10
89.523257
20
200.152989
11
89.018690
21
200.347018
0
LINE
8
boundary
62
5
39
2
10
89.018690
20
200.347018
11
88.611861
21
200.689408
0
LINE
8
boundary
62
5
39
2
10
88.611861
20
200.689408
11
88.343960
21
201.155895
0
LINE
8
boundary
62
5
39
2
10
88.343960
20
201.155895
11
88.202644
21
201.769514
0
LINE
8
boundary
62
5
39
2
10
88.202644
20
201.769514
11
87.698905
21
202.061381
0
LINE
8
boundary
62
5
39
2
10
87.698905
20
202.061381
11
87.183340
21
201.969351
0
LINE
8
boundary
62
5
39
2
10
87.183340
20
201.969351
11
86.669018
21
201.870574
0
LINE
8
boundary
62
5
39
2
10
86.669018
20
201.870574
11
86.312959
21
201.477129
0
LINE
8
boundary
62
5
39
2
10
86.312959
20
201.477129
11
86.391469
21
200.793999
0
LINE
8
boundary
62
5
39
2
10
86.391469
20
200.793999
11
86.308672
21
200.262345
0
LINE
8
boundary
62
5
39
2
10
86.308672
20
200.262345
11
86.051563
21
199.796894
0
LINE
8
boundary
62
5
39
2
10
86.051563
20
199.796894
11
85.649817
21
199.434888
0
LINE
8
boundary
62
5
39
2
10
85.649817
20
199.434888
11
85.133214
21
199.213887
0
LINE
8
boundary
62
5
39
2
10
85.133214
20
199.213887
11
84.571682
21
199.206002
0
LINE
8
boundary
62
5
39
2
10
84.571682
20
199.206002
11
84.057570
21
199.373264
0
LINE
8
boundary
62
5
39
2
10
84.057570
20
199.373264
11
83.633413
21
199.693866
0
LINE
8
boundary
62
5
39
2
10
83.633413
20
199.693866
11
83.341337
21
200.145728
0
LINE
8
boundary
62
5
39
2
10
83.341337
20
200.145728
11
83.168168
21
200.751039
0
LINE
8
boundary
62
5
39
2
10
83.168168
20
200.751039
11
82.649903
21
201.016242
0
LINE
8
boundary
62
5
39
2
10
82.649903
20
201.016242
11
82.139836
21
200.897335
0
LINE
8
boundary
62
5
39
2
10
82.139836
20
200.897335
11
81.631429
21
200.771683
0
LINE
8
boundary
62
5
39
2
10
81.631429
20
200.771683
11
81.296348
21
200.360171
0
LINE
8
boundary
62
5
39
2
10
81.296348
20
200.360171
11
81.410530
21
199.682142
0
LINE
8
boundary
62
5
39
2
10
81.410530
20
199.682142
11
81.355643
21
199.146861
0
LINE
8
boundary
62
5
39
2
10
81.355643
20
199.146861
11
81.123333
21
198.668547
0
LINE
8
boundary
62
5
39
2
10
81.123333
20
198.668547
11
80.741095
21
198.286091
0
LINE
8
boundary
62
5
39
2
10
80.741095
20
198.286091
11
80.236733
21
198.038323
0
LINE
8
boundary
62
5
39
2
10
80.236733
20
198.038323
11
79.676343
21
198.000976
0
LINE
8
boundary
62
5
39
2
10
79.676343
20
198.000976
11
79.154240
21
198.141254
0
LINE
8
boundary
62
5
39
2
10
79.154240
20
198.141254
11
78.713899
21
198.439243
0
LINE
8
boundary
62
5
39
2
10
78.713899
20
198.439243
11
78.398581
21
198.875124
0
LINE
8
boundary
62
5
39
2
10
78.398581
20
198.875124
11
78.193972
21
199.470581
0
LINE
8
boundary
62
5
39
2
10
78.193972
20
199.470581
11
77.662534
21
199.708291
0
LINE
8
boundary
62
5
39
2
10
77.662534
20
199.708291
11
77.159312
21
199.562824
0
LINE
8
boundary
62
5
39
2
10
77.159312
20
199.562824
11
76.658168
21
199.410713
0
LINE
8
boundary
62
5
39
2
10
76.658168
20
199.410713
11
76.345128
21
198.982309
0
LINE
8
boundary
62
5
39
2
10
76.345128
20
198.982309
11
76.494648
21
198.311204
0
LINE
8
boundary
62
5
39
2
10
76.494648
20
198.311204
11
76.467879
21
197.773749
0
LINE
8
boundary
62
5
39
2
10
76.467879
20
197.773749
11
76.260884
21
197.283911
0
LINE
8
boundary
62
5
39
2
10
76.260884
20
197.283911
11
75.899188
21
196.881962
0
LINE
8
boundary
62
5
39
2
10
75.899188
20
196.881962
11
75.408420
21
196.608147
0
LINE
8
boundary
62
5
39
2
10
75.408420
20
196.608147
11
74.850832
21
196.541533
0
LINE
8
boundary
62
5
39
2
10
74.850832
20
196.541533
11
74.322089
21
196.654208
0
LINE
8
boundary
62
5
39
2
10
74.322089
20
196.654208
11
73.866699
21
196.928755
0
LINE
8
boundary
62
5
39
2
10
73.866699
20
196.928755
11
73.529077
21
197.347619
0
LINE
8
boundary
62
5
39
2
10
73.529077
20
197.347619
11
73.293551
21
197.931455
0
LINE
8
boundary
62
5
39
2
10
73.293551
20
197.931455
11
72.750385
21
198.141048
0
LINE
8
boundary
62
5
39
2
10
72.750385
20
198.141048
11
72.255569
21
197.969432
0
LINE
8
boundary
62
5
39
2
10
72.255569
20
197.969432
11
71.762933
21
197.791384
0
LINE
8
boundary
62
5
39
2
10
71.762933
20
197.791384
11
71.472804
21
197.347125
0
LINE
8
boundary
62
5
39
2
10
71.472804
20
197.347125
11
71.657204
21
196.684717
0
LINE
8
boundary
62
5
39
2
10
71.657204
20
196.684717
11
71.658658
21
196.146638
0
LINE
8
boundary
62
5
39
2
10
71.658658
20
196.146638
11
71.477501
21
195.646632
0
LINE
8
boundary
62
5
39
2
10
71.477501
20
195.646632
11
71.137384
21
195.226315
0
LINE
8
boundary
62
5
39
2
10
71.137384
20
195.226315
11
70.661662
21
194.927187
0
LINE
8
boundary
62
5
39
2
10
70.661662
20
194.927187
11
70.108223
21
194.831518
0
LINE
8
boundary
62
5
39
2
10
70.108223
20
194.831518
11
69.574395
21
194.916396
0
LINE
8
boundary
62
5
39
2
10
69.574395
20
194.916396
11
69.105210
21
195.166653
0
LINE
8
boundary
62
5
39
2
10
69.105210
20
195.166653
11
68.746109
21
195.567259
0
LINE
8
boundary
62
5
39
2
10
68.746109
20
195.567259
11
68.480388
21
196.138027
0
LINE
8
boundary
62
5
39
2
10
68.480388
20
196.138027
11
67.926948
21
196.318872
0
LINE
8
boundary
62
5
39
2
10
67.926948
20
196.318872
11
67.441779
21
196.121628
0
LINE
8
boundary
62
5
39
2
10
67.441779
20
196.121628
11
66.959208
21
195.918061
0
LINE
8
boundary
62
5
39
2
10
66.959208
20
195.918061
11
66.692745
21
195.459191
0
LINE
8
boundary
62
5
39
2
10
66.692745
20
195.459191
11
66.911485
21
194.807343
0
LINE
8
boundary
62
5
39
2
10
66.911485
20
194.807343
11
66.941156
21
194.270093
0
LINE
8
boundary
62
5
39
2
10
66.941156
20
194.270093
11
66.786453
21
193.761270
0
LINE
8
boundary
62
5
39
2
10
66.786453
20
193.761270
11
66.468752
21
193.323730
0
LINE
8
boundary
62
5
39
2
10
66.468752
20
193.323730
11
66.009318
21
193.000113
0
LINE
8
boundary
62
5
39
2
10
66.009318
20
193.000113
11
65.461692
21
192.875605
0
LINE
8
boundary
62
5
39
2
10
65.461692
20
192.875605
11
64.924127
21
192.932463
0
LINE
8
boundary
62
5
39
2
10
64.924127
20
192.932463
11
64.442492
21
193.157825
0
LINE
8
boundary
62
5
39
2
10
64.442492
20
193.157825
11
64.062946
21
193.539027
0
LINE
8
boundary
62
5
39
2
10
64.062946
20
193.539027
11
63.767657
21
194.095159
0
LINE
8
boundary
62
5
39
2
10
63.767657
20
194.095159
11
63.205610
21
194.246748
0
LINE
8
boundary
62
5
39
2
10
63.205610
20
194.246748
11
62.731441
21
194.024396
0
LINE
8
boundary
62
5
39
2
10
62.731441
20
194.024396
11
62.260176
21
193.795825
0
LINE
8
boundary
62
5
39
2
10
62.260176
20
193.795825
11
62.017974
21
193.323710
0
LINE
8
boundary
62
5
39
2
10
62.017974
20
193.323710
11
62.270659
21
192.684180
0
LINE
8
boundary
62
5
39
2
10
62.270659
20
192.684180
11
62.328347
21
192.149208
0
LINE
8
boundary
62
5
39
2
10
62.328347
20
192.149208
11
62.200414
21
191.633021
0
LINE
8
boundary
62
5
39
2
10
62.200414
20
191.633021
11
61.906058
21
191.179500
0
LINE
8
boundary
62
5
39
2
10
61.906058
20
191.179500
11
61.464264
21
190.832222
0
LINE
8
boundary
62
5
39
2
10
61.464264
20
190.832222
11
60.923896
21
190.679185
0
LINE
8
boundary
62
5
39
2
10
60.923896
20
190.679185
11
60.384055
21
190.707823
0
LINE
8
boundary
62
5
39
2
10
60.384055
20
190.707823
11
59.891311
21
190.907756
0
LINE
8
boundary
62
5
39
2
10
59.891311
20
190.907756
11
59.492264
21
191.268520
0
LINE
8
boundary
62
5
39
2
10
59.492264
20
191.268520
11
59.168335
21
191.808470
0
LINE
8
boundary
62
5
39
2
10
59.168335
20
191.808470
11
58.599126
21
191.930490
0
LINE
8
boundary
62
5
39
2
10
58.599126
20
191.930490
11
58.137205
21
191.683551
0
LINE
8
boundary
62
5
39
2
10
58.137205
20
191.683551
11
57.678600
21
191.430586
0
LINE
8
boundary
62
5
39
2
10
57.678600
20
191.430586
11
57.461485
21
190.946458
0
LINE
8
boundary
62
5
39
2
10
57.461485
20
190.946458
11
57.747183
21
190.321013
0
LINE
8
boundary
62
5
39
2
10
57.747183
20
190.321013
11
57.832782
21
189.789783
0
LINE
8
boundary
62
5
39
2
10
57.832782
20
189.789783
11
57.732140
21
189.267679
0
LINE
8
boundary
62
5
39
2
10
57.732140
20
189.267679
11
57.461953
21
188.799321
0
LINE
8
boundary
62
5
39
2
10
57.461953
20
188.799321
11
57.038835
21
188.429431
0
LINE
8
boundary
62
5
39
2
10
57.038835
20
188.429431
11
56.507184
21
188.248380
0
LINE
8
boundary
62
5
39
2
10
56.507184
20
188.248380
11
55.966614
21
188.248689
0
LINE
8
boundary
62
5
39
2
10
55.966614
20
188.248689
11
55.464122
21
188.422473
0
LINE
8
boundary
62
5
39
2
10
55.464122
20
188.422473
11
55.046815
21
188.761969
0
LINE
8
boundary
62
5
39
2
10
55.046815
20
188.761969
11
54.694977
21
189.284175
0
LINE
8
boundary
62
5
39
2
10
54.694977
20
189.284175
11
54.120163
21
189.376212
0
LINE
8
boundary
62
5
39
2
10
54.120163
20
189.376212
11
53.671832
21
189.105504
0
LINE
8
boundary
62
5
39
2
10
53.671832
20
189.105504
11
53.227025
21
188.828892
0
LINE
8
boundary
62
5
39
2
10
53.227025
20
188.828892
11
53.035562
21
188.333998
0
LINE
8
boundary
62
5
39
2
10
53.035562
20
188.333998
11
53.353610
21
187.724399
0
LINE
8
boundary
62
5
39
2
10
53.353610
20
187.724399
11
53.466909
21
187.198359
0
LINE
8
boundary
62
5
39
2
10
53.466909
20
187.198359
11
53.393766
21
186.671690
0
LINE
8
boundary
62
5
39
2
10
53.393766
20
186.671690
11
53.148378
21
186.189845
0
LINE
8
boundary
62
5
39
2
10
53.148378
20
186.189845
11
52.745283
21
185.798263
0
LINE
8
boundary
62
5
39
2
10
52.745283
20
185.798263
11
52.223804
21
185.589616
0
LINE
8
boundary
62
5
39
2
10
52.223804
20
185.589616
11
51.683956
21
185.561704
0
LINE
8
boundary
62
5
39
2
10
51.683956
20
185.561704
11
51.173062
21
185.708934
0
LINE
8
boundary
62
5
39
2
10
51.173062
20
185.708934
11
50.738526
21
186.026120
0
LINE
8
boundary
62
5
39
2
10
50.738526
20
186.026120
11
50.359922
21
186.529124
0
LINE
8
boundary
62
5
39
2
10
50.359922
20
186.529124
11
49.781063
21
186.590965
0
LINE
8
boundary
62
5
39
2
10
49.781063
20
186.590965
11
49.347465
21
186.297234
0
LINE
8
boundary
62
5
39
2
10
49.347465
20
186.297234
11
48.917810
21
185.997682
0
LINE
8
boundary
62
5
39
2
10
48.917810
20
185.997682
11
48.752512
21
185.493467
0
LINE
8
boundary
62
5
39
2
10
48.752512
20
185.493467
11
49.101980
21
184.901400
0
LINE
8
boundary
62
5
39
2
10
49.101980
20
184.901400
11
49.242669
21
184.381992
0
LINE
8
boundary
62
5
39
2
10
49.242669
20
184.381992
11
49.197123
21
183.852203
0
LINE
8
boundary
62
5
39
2
10
49.197123
20
183.852203
11
48.977363
21
183.358120
0
LINE
8
boundary
62
5
39
2
10
48.977363
20
183.358120
11
48.595228
21
182.946099
0
LINE
8
boundary
62
5
39
2
10
48.595228
20
182.946099
11
48.085472
21
182.710473
0
LINE
8
boundary
62
5
39
2
10
48.085472
20
182.710473
11
47.547805
21
182.654239
0
LINE
8
boundary
62
5
39
2
10
47.547805
20
182.654239
11
47.029959
21
182.774592
0
LINE
8
boundary
62
5
39
2
10
47.029959
20
182.774592
11
46.579344
21
183.068536
0
LINE
8
boundary
62
5
39
2
10
46.579344
20
183.068536
11
46.174900
21
183.551101
0
LINE
8
boundary
62
5
39
2
10
46.174900
20
183.551101
11
45.593552
21
183.582543
0
LINE
8
boundary
62
5
39
2
10
45.593552
20
183.582543
11
45.176033
21
183.266501
0
LINE
8
boundary
62
5
39
2
10
45.176033
20
183.266501
11
44.762564
21
182.944897
0
LINE
8
boundary
62
5
39
2
10
44.762564
20
182.944897
11
44.623889
21
182.432711
0
LINE
8
boundary
62
5
39
2
10
44.623889
20
182.432711
11
45.003902
21
181.859768
0
LINE
8
boundary
62
5
39
2
10
45.003902
20
181.859768
11
45.171575
21
181.348359
0
LINE
8
boundary
62
5
39
2
10
45.171575
20
181.348359
11
45.153832
21
180.816911
0
LINE
8
boundary
62
5
39
2
10
45.153832
20
180.816911
11
44.960221
21
180.312037
0
LINE
8
boundary
62
5
39
2
10
44.960221
20
180.312037
11
44.600183
21
179.880510
0
LINE
8
boundary
62
5
39
2
10
44.600183
20
179.880510
11
44.103502
21
179.618523
0
LINE
8
boundary
62
5
39
2
10
44.103502
20
179.618523
11
43.569469
21
179.534274
0
LINE
8
boundary
62
5
39
2
10
43.569469
20
179.534274
11
43.046015
21
179.627340
0
LINE
8
boundary
62
5
39
2
10
43.046015
20
179.627340
11
42.580667
21
179.897418
0
LINE
8
boundary
62
5
39
2
10
42.580667
20
179.897418
11
42.151526
21
180.358097
0
LINE
8
boundary
62
5
39
2
10
42.151526
20
180.358097
11
41.569349
21
180.359133
0
LINE
8
boundary
62
5
39
2
10
41.569349
20
180.359133
11
41.168852
21
180.021514
0
LINE
8
boundary
62
5
39
2
10
41.168852
20
180.021514
11
40.772916
21
179.678809
0
LINE
8
boundary
62
5
39
2
10
40.772916
20
179.678809
11
40.661147
21
179.160048
0
LINE
8
boundary
62
5
39
2
10
40.661147
20
179.160048
11
41.070699
21
178.607726
0
LINE
8
boundary
62
5
39
2
10
41.070699
20
178.607726
11
41.264825
21
178.105855
0
LINE
8
boundary
62
5
39
2
10
41.264825
20
178.105855
11
41.274993
21
177.574207
0
LINE
8
boundary
62
5
39
2
10
41.274993
20
177.574207
11
41.108051
21
177.059886
0
LINE
8
boundary
62
5
39
2
10
41.108051
20
177.059886
11
40.771154
21
176.610204
0
LINE
8
boundary
62
5
39
2
10
40.771154
20
176.610204
11
40.288788
21
176.322491
0
LINE
8
boundary
62
5
39
2
10
40.288788
20
176.322491
11
39.759939
21
176.210428
0
LINE
8
boundary
62
5
39
2
10
39.759939
20
176.210428
11
39.232234
21
176.276006
0
LINE
8
boundary
62
5
39
2
10
39.232234
20
176.276006
11
38.753399
21
176.521286
0
LINE
8
boundary
62
5
39
2
10
38.753399
20
176.521286
11
38.300816
21
176.958928
0
LINE
8
boundary
62
5
39
2
10
38.300816
20
176.958928
11
37.719359
21
176.929467
0
LINE
8
boundary
62
5
39
2
10
37.719359
20
176.929467
11
37.337121
21
176.571398
0
LINE
8
boundary
62
5
39
2
10
37.337121
20
176.571398
11
36.959553
21
176.208357
0
LINE
8
boundary
62
5
39
2
10
36.959553
20
176.208357
11
36.875149
21
175.684471
0
LINE
8
boundary
62
5
39
2
10
36.875149
20
175.684471
11
37.313050
21
175.154394
0
LINE
8
boundary
62
5
39
2
10
37.313050
20
175.154394
11
37.533221
21
174.663423
0
LINE
8
boundary
62
5
39
2
10
37.533221
20
174.663423
11
37.571094
21
174.133017
0
LINE
8
boundary
62
5
39
2
10
37.571094
20
174.133017
11
37.431332
21
173.610604
0
LINE
8
boundary
62
5
39
2
10
37.431332
20
173.610604
11
37.118403
21
173.143906
0
LINE
8
boundary
62
5
39
2
10
37.118403
20
173.143906
11
36.651807
21
172.831389
0
LINE
8
boundary
62
5
39
2
10
36.651807
20
172.831389
11
36.129498
21
172.691735
0
LINE
8
boundary
62
5
39
2
10
36.129498
20
172.691735
11
35.599195
21
172.729608
0
LINE
8
boundary
62
5
39
2
10
35.599195
20
172.729608
11
35.108121
21
172.949465
0
LINE
8
boundary
62
5
39
2
10
35.108121
20
172.949465
11
34.633223
21
173.362830
0
LINE
8
boundary
62
5
39
2
10
34.633223
20
173.362830
11
34.054158
21
173.302962
0
LINE
8
boundary
62
5
39
2
10
34.054158
20
173.302962
11
33.691117
21
172.925394
0
LINE
8
boundary
62
5
39
2
10
33.691117
20
172.925394
11
33.333048
21
172.543155
0
LINE
8
boundary
62
5
39
2
10
33.333048
20
172.543155
11
33.276235
21
172.015531
0
LINE
8
boundary
62
5
39
2
10
33.276235
20
172.015531
11
33.741229
21
171.509116
0
LINE
8
boundary
62
5
39
2
10
33.741229
20
171.509116
11
33.986817
21
171.030281
0
LINE
8
boundary
62
5
39
2
10
33.986817
20
171.030281
11
34.052396
21
170.502576
0
LINE
8
boundary
62
5
39
2
10
34.052396
20
170.502576
11
33.940127
21
169.973624
0
LINE
8
boundary
62
5
39
2
10
33.940127
20
169.973624
11
33.652105
21
169.491155
0
LINE
8
boundary
62
5
39
2
10
33.652105
20
169.491155
11
33.202424
21
169.154669
0
LINE
8
boundary
62
5
39
2
10
33.202424
20
169.154669
11
32.688205
21
168.987934
0
LINE
8
boundary
62
5
39
2
10
32.688205
20
168.987934
11
32.156660
21
168.997896
0
LINE
8
boundary
62
5
39
2
10
32.156660
20
168.997896
11
31.654789
21
169.191815
0
LINE
8
boundary
62
5
39
2
10
31.654789
20
169.191815
11
31.158835
21
169.579764
0
LINE
8
boundary
62
5
39
2
10
31.158835
20
169.579764
11
30.583706
21
169.489599
0
LINE
8
boundary
62
5
39
2
10
30.583706
20
169.489599
11
30.241000
21
169.093662
0
LINE
8
boundary
62
5
39
2
10
30.241000
20
169.093662
11
29.903382
21
168.693166
0
LINE
8
boundary
62
5
39
2
10
29.903382
20
168.693166
11
29.874251
21
168.163313
0
LINE
8
boundary
62
5
39
2
10
29.874251
20
168.163313
11
30.365097
21
167.681848
0
LINE
8
boundary
62
5
39
2
10
30.365097
20
167.681848
11
30.635380
21
167.216603
0
LINE
8
boundary
62
5
39
2
10
30.635380
20
167.216603
11
30.728550
21
166.693046
0
LINE
8
boundary
62
5
39
2
10
30.728550
20
166.693046
11
30.644095
21
166.158909
0
LINE
8
boundary
62
5
39
2
10
30.644095
20
166.158909
11
30.381696
21
165.662017
0
LINE
8
boundary
62
5
39
2
10
30.381696
20
165.662017
11
29.950272
21
165.302397
0
LINE
8
boundary
62
5
39
2
10
29.950272
20
165.302397
11
29.445494
21
165.108992
0
LINE
8
boundary
62
5
39
2
10
29.445494
20
165.108992
11
28.914053
21
165.091254
0
LINE
8
boundary
62
5
39
2
10
28.914053
20
165.091254
11
28.402747
21
165.258613
0
LINE
8
boundary
62
5
39
2
10
28.402747
20
165.258613
11
27.887280
21
165.619995
0
LINE
8
boundary
62
5
39
2
10
27.887280
20
165.619995
11
27.317554
21
165.499950
0
LINE
8
boundary
62
5
39
2
10
27.317554
20
165.499950
11
26.996013
21
165.086482
0
LINE
8
boundary
62
5
39
2
10
26.996013
20
165.086482
11
26.679971
21
164.668860
0
LINE
8
boundary
62
5
39
2
10
26.679971
20
164.668860
11
26.678552
21
164.138276
0
LINE
8
boundary
62
5
39
2
10
26.678552
20
164.138276
11
27.193979
21
163.683170
0
LINE
8
boundary
62
5
39
2
10
27.193979
20
163.683170
11
27.488231
21
163.232659
0
LINE
8
boundary
62
5
39
2
10
27.488231
20
163.232659
11
27.608597
21
162.714710
0
LINE
8
boundary
62
5
39
2
10
27.608597
20
162.714710
11
27.552248
21
162.176940
0
LINE
8
boundary
62
5
39
2
10
27.552248
20
162.176940
11
27.316203
21
161.666972
0
LINE
8
boundary
62
5
39
2
10
27.316203
20
161.666972
11
26.904189
21
161.285358
0
LINE
8
boundary
62
5
39
2
10
26.904189
20
161.285358
11
26.410202
21
161.065707
0
LINE
8
boundary
62
5
39
2
10
26.410202
20
161.065707
11
25.880523
21
161.020155
0
LINE
8
boundary
62
5
39
2
10
25.880523
20
161.020155
11
25.361114
21
161.160535
0
LINE
8
boundary
62
5
39
2
10
25.361114
20
161.160535
11
24.827396
21
161.494423
0
LINE
8
boundary
62
5
39
2
10
24.827396
20
161.494423
11
24.264833
21
161.344705
0
LINE
8
boundary
62
5
39
2
10
24.264833
20
161.344705
11
23.965281
21
160.915050
0
LINE
8
boundary
62
5
39
2
10
23.965281
20
160.915050
11
23.671447
21
160.481452
0
LINE
8
boundary
62
5
39
2
10
23.671447
20
160.481452
11
23.697913
21
159.951467
0
LINE
8
boundary
62
5
39
2
10
23.697913
20
159.951467
11
24.236395
21
159.523989
0
LINE
8
boundary
62
5
39
2
10
24.236395
20
159.523989
11
24.553890
21
159.089555
0
LINE
8
boundary
62
5
39
2
10
24.553890
20
159.089555
11
24.701229
21
158.578558
0
LINE
8
boundary
62
5
39
2
10
24.701229
20
158.578558
11
24.673111
21
158.038608
0
LINE
8
boundary
62
5
39
2
10
24.673111
20
158.038608
11
24.464046
21
157.516916
0
LINE
8
boundary
62
5
39
2
10
24.464046
20
157.516916
11
24.072566
21
157.114240
0
LINE
8
boundary
62
5
39
2
10
24.072566
20
157.114240
11
23.590722
21
156.869167
0
LINE
8
boundary
62
5
39
2
10
23.590722
20
156.869167
11
23.064052
21
156.795915
0
LINE
8
boundary
62
5
39
2
10
23.064052
20
156.795915
11
22.538116
21
156.908905
0
LINE
8
boundary
62
5
39
2
10
22.538116
20
156.908905
11
21.987580
21
157.214464
0
LINE
8
boundary
62
5
39
2
10
21.987580
20
157.214464
11
21.473620
21
157.078893
0
LINE
8
boundary
62
5
39
2
10
21.473620
20
157.078893
11
21.157011
21
156.590683
0
LINE
8
boundary
62
5
39
2
10
21.157011
20
156.590683
11
20.886303
21
156.142352
0
LINE
8
boundary
62
5
39
2
10
20.886303
20
156.142352
11
20.940406
21
155.614511
0
LINE
8
boundary
62
5
39
2
10
20.940406
20
155.614511
11
21.500546
21
155.215700
0
LINE
8
boundary
62
5
39
2
10
21.500546
20
155.215700
11
21.840350
21
154.798496
0
LINE
8
boundary
62
5
39
2
10
21.840350
20
154.798496
11
22.014250
21
154.296004
0
LINE
8
boundary
62
5
39
2
10
22.014250
20
154.296004
11
22.014353
21
153.755222
0
LINE
8
boundary
62
5
39
2
10
22.014353
20
153.755222
11
21.832878
21
153.223365
0
LINE
8
boundary
62
5
39
2
10
21.832878
20
153.223365
11
21.463091
21
152.800768
0
LINE
8
boundary
62
5
39
2
10
21.463091
20
152.800768
11
20.994732
21
152.530690
0
LINE
8
boundary
62
5
39
2
10
20.994732
20
152.530690
11
20.472629
21
152.430045
0
LINE
8
boundary
62
5
39
2
10
20.472629
20
152.430045
11
19.941502
21
152.515332
0
LINE
8
boundary
62
5
39
2
10
19.941502
20
152.515332
11
19.375712
21
152.791636
0
LINE
8
boundary
62
5
39
2
10
19.375712
20
152.791636
11
18.869521
21
152.629381
0
LINE
8
boundary
62
5
39
2
10
18.869521
20
152.629381
11
18.578964
21
152.125309
0
LINE
8
boundary
62
5
39
2
10
18.578964
20
152.125309
11
18.332026
21
151.663389
0
LINE
8
boundary
62
5
39
2
10
18.332026
20
151.663389
11
18.413691
21
151.139091
0
LINE
8
boundary
62
5
39
2
10
18.413691
20
151.139091
11
18.993994
21
150.770250
0
LINE
8
boundary
62
5
39
2
10
18.993994
20
150.770250
11
19.355067
21
150.371307
0
LINE
8
boundary
62
5
39
2
10
19.355067
20
150.371307
11
19.555007
21
149.878568
0
LINE
8
boundary
62
5
39
2
10
19.555007
20
149.878568
11
19.583536
21
149.338618
0
LINE
8
boundary
62
5
39
2
10
19.583536
20
149.338618
11
19.430087
21
148.797942
0
LINE
8
boundary
62
5
39
2
10
19.430087
20
148.797942
11
19.082912
21
148.356562
0
LINE
8
boundary
62
5
39
2
10
19.082912
20
148.356562
11
18.629397
21
148.062413
0
LINE
8
boundary
62
5
39
2
10
18.629397
20
148.062413
11
18.113204
21
147.934483
0
LINE
8
boundary
62
5
39
2
10
18.113204
20
147.934483
11
17.578335
21
147.991856
0
LINE
8
boundary
62
5
39
2
10
17.578335
20
147.991856
11
16.998858
21
148.238277
0
LINE
8
boundary
62
5
39
2
10
16.998858
20
148.238277
11
16.501891
21
148.049707
0
LINE
8
boundary
62
5
39
2
10
16.501891
20
148.049707
11
16.238119
21
147.531074
0
LINE
8
boundary
62
5
39
2
10
16.238119
20
147.531074
11
16.015767
21
147.056905
0
LINE
8
boundary
62
5
39
2
10
16.015767
20
147.056905
11
16.124703
21
146.537589
0
LINE
8
boundary
62
5
39
2
10
16.124703
20
146.537589
11
16.723488
21
146.199569
0
LINE
8
boundary
62
5
39
2
10
16.723488
20
146.199569
11
17.104999
21
145.820126
0
LINE
8
boundary
62
5
39
2
10
17.104999
20
145.820126
11
17.330463
21
145.338490
0
LINE
8
boundary
62
5
39
2
10
17.330463
20
145.338490
11
17.387116
21
144.800823
0
LINE
8
boundary
62
5
39
2
10
17.387116
20
144.800823
11
17.262299
21
144.252885
0
LINE
8
boundary
62
5
39
2
10
17.262299
20
144.252885
11
16.974211
21
143.832948
0
LINE
8
boundary
62
5
39
2
10
16.974211
20
143.832948
11
16.573808
21
143.516510
0
LINE
8
boundary
62
5
39
2
10
16.573808
20
143.516510
11
16.073619
21
143.335455
0
LINE
8
boundary
62
5
39
2
10
16.073619
20
143.335455
11
15.538396
21
143.335067
0
LINE
8
boundary
62
5
39
2
10
15.538396
20
143.335067
11
14.863657
21
143.566638
0
LINE
8
boundary
62
5
39
2
10
14.863657
20
143.566638
11
14.377158
21
143.352418
0
LINE
8
boundary
62
5
39
2
10
14.377158
20
143.352418
11
14.140887
21
142.820736
0
LINE
8
boundary
62
5
39
2
10
14.140887
20
142.820736
11
13.943643
21
142.335567
0
LINE
8
boundary
62
5
39
2
10
13.943643
20
142.335567
11
14.124488
21
141.782127
0
LINE
8
boundary
62
5
39
2
10
14.124488
20
141.782127
11
14.695256
21
141.516406
0
LINE
8
boundary
62
5
39
2
10
14.695256
20
141.516406
11
15.096068
21
141.157414
0
LINE
8
boundary
62
5
39
2
10
15.096068
20
141.157414
11
15.346428
21
140.688326
0
LINE
8
boundary
62
5
39
2
10
15.346428
20
140.688326
11
15.431203
21
140.154292
0
LINE
8
boundary
62
5
39
2
10
15.431203
20
140.154292
11
15.335224
21
139.600541
0
LINE
8
boundary
62
5
39
2
10
15.335224
20
139.600541
11
15.069527
21
139.166142
0
LINE
8
boundary
62
5
39
2
10
15.069527
20
139.166142
11
14.686201
21
138.829187
0
LINE
8
boundary
62
5
39
2
10
14.686201
20
138.829187
11
14.196240
21
138.622187
0
LINE
8
boundary
62
5
39
2
10
14.196240
20
138.622187
11
13.661725
21
138.593767
0
LINE
8
boundary
62
5
39
2
10
13.661725
20
138.593767
11
12.975800
21
138.789789
0
LINE
8
boundary
62
5
39
2
10
12.975800
20
138.789789
11
12.501217
21
138.550360
0
LINE
8
boundary
62
5
39
2
10
12.501217
20
138.550360
11
12.293083
21
138.006946
0
LINE
8
boundary
62
5
39
2
10
12.293083
20
138.006946
11
12.121467
21
137.512130
0
LINE
8
boundary
62
5
39
2
10
12.121467
20
137.512130
11
12.331060
21
136.968964
0
LINE
8
boundary
62
5
39
2
10
12.331060
20
136.968964
11
12.914896
21
136.733438
0
LINE
8
boundary
62
5
39
2
10
12.914896
20
136.733438
11
13.334069
21
136.395919
0
LINE
8
boundary
62
5
39
2
10
13.334069
20
136.395919
11
13.608616
21
135.940632
0
LINE
8
boundary
62
5
39
2
10
13.608616
20
135.940632
11
13.721188
21
135.411683
0
LINE
8
boundary
62
5
39
2
10
13.721188
20
135.411683
11
13.654265
21
134.853783
0
LINE
8
boundary
62
5
39
2
10
13.654265
20
134.853783
11
13.411703
21
134.406042
0
LINE
8
boundary
62
5
39
2
10
13.411703
20
134.406042
11
13.046555
21
134.049452
0
LINE
8
boundary
62
5
39
2
10
13.046555
20
134.049452
11
12.568043
21
133.817069
0
LINE
8
boundary
62
5
39
2
10
12.568043
20
133.817069
11
12.035755
21
133.760749
0
LINE
8
boundary
62
5
39
2
10
12.035755
20
133.760749
11
11.340495
21
133.920598
0
LINE
8
boundary
62
5
39
2
10
11.340495
20
133.920598
11
10.879152
21
133.656631
0
LINE
8
boundary
62
5
39
2
10
10.879152
20
133.656631
11
10.699691
21
133.103203
0
LINE
8
boundary
62
5
39
2
10
10.699691
20
133.103203
11
10.554224
21
132.599981
0
LINE
8
boundary
62
5
39
2
10
10.554224
20
132.599981
11
10.791933
21
132.068543
0
LINE
8
boundary
62
5
39
2
10
10.791933
20
132.068543
11
11.387391
21
131.863934
0
LINE
8
boundary
62
5
39
2
10
11.387391
20
131.863934
11
11.823587
21
131.548825
0
LINE
8
boundary
62
5
39
2
10
11.823587
20
131.548825
11
12.121576
21
131.108481
0
LINE
8
boundary
62
5
39
2
10
12.121576
20
131.108481
11
12.261744
21
130.586172
0
LINE
8
boundary
62
5
39
2
10
12.261744
20
130.586172
11
12.224083
21
130.025471
0
LINE
8
boundary
62
5
39
2
10
12.224083
20
130.025471
11
12.005303
21
129.565683
0
LINE
8
boundary
62
5
39
2
10
12.005303
20
129.565683
11
11.659293
21
129.190530
0
LINE
8
boundary
62
5
39
2
10
11.659293
20
129.190530
11
11.193648
21
128.933366
0
LINE
8
boundary
62
5
39
2
10
11.193648
20
128.933366
11
10.665008
21
128.849291
0
LINE
8
boundary
62
5
39
2
10
10.665008
20
128.849291
11
9.962399
21
128.972548
0
LINE
8
boundary
62
5
39
2
10
9.962399
20
128.972548
11
9.515446
21
128.684758
0
LINE
8
boundary
62
5
39
2
10
9.515446
20
128.684758
11
9.365179
21
128.122679
0
LINE
8
boundary
62
5
39
2
10
9.365179
20
128.122679
11
9.246273
21
127.612611
0
LINE
8
boundary
62
5
39
2
10
9.246273
20
127.612611
11
9.511476
21
127.094347
0
LINE
8
boundary
62
5
39
2
10
9.511476
20
127.094347
11
10.116787
21
126.921178
0
LINE
8
boundary
62
5
39
2
10
10.116787
20
126.921178
11
10.568855
21
126.629311
0
LINE
8
boundary
62
5
39
2
10
10.568855
20
126.629311
11
10.889469
21
126.205050
0
LINE
8
boundary
62
5
39
2
10
10.889469
20
126.205050
11
11.056822
21
125.690833
0
LINE
8
boundary
62
5
39
2
10
11.056822
20
125.690833
11
11.048525
21
125.128991
0
LINE
8
boundary
62
5
39
2
10
11.048525
20
125.128991
11
10.854134
21
124.658362
0
LINE
8
boundary
62
5
39
2
10
10.854134
20
124.658362
11
10.528241
21
124.265635
0
LINE
8
boundary
62
5
39
2
10
10.528241
20
124.265635
11
10.076686
21
123.984442
0
LINE
8
boundary
62
5
39
2
10
10.076686
20
123.984442
11
9.553151
21
123.872776
0
LINE
8
boundary
62
5
39
2
10
9.553151
20
123.872776
11
8.845044
21
123.959030
0
LINE
8
boundary
62
5
39
2
10
8.845044
20
123.959030
11
8.413741
21
123.648357
0
LINE
8
boundary
62
5
39
2
10
8.413741
20
123.648357
11
8.293164
21
123.079175
0
LINE
8
boundary
62
5
39
2
10
8.293164
20
123.079175
11
8.201133
21
122.563504
0
LINE
8
boundary
62
5
39
2
10
8.201133
20
122.563504
11
8.493000
21
122.059871
0
LINE
8
boundary
62
5
39
2
10
8.493000
20
122.059871
11
9.106619
21
121.918555
0
LINE
8
boundary
62
5
39
2
10
9.106619
20
121.918555
11
9.573312
21
121.650758
0
LINE
8
boundary
62
5
39
2
10
9.573312
20
121.650758
11
9.915703
21
121.243928
0
LINE
8
boundary
62
5
39
2
10
9.915703
20
121.243928
11
10.109732
21
120.739257
0
LINE
8
boundary
62
5
39
2
10
10.109732
20
120.739257
11
10.130903
21
120.177623
0
LINE
8
boundary
62
5
39
2
10
10.130903
20
120.177623
11
9.961383
21
119.697511
0
LINE
8
boundary
62
5
39
2
10
9.961383
20
119.697511
11
9.656438
21
119.288214
0
LINE
8
boundary
62
5
39
2
10
9.656438
20
119.288214
11
9.220270
21
118.983862
0
LINE
8
boundary
62
5
39
2
10
9.220270
20
118.983862
11
8.703257
21
118.845006
0
LINE
8
boundary
62
5
39
2
10
8.703257
20
118.845006
11
7.991650
21
118.894048
0
LINE
8
boundary
62
5
39
2
10
7.991650
20
118.894048
11
7.577228
21
118.561204
0
LINE
8
boundary
62
5
39
2
10
7.577228
20
118.561204
11
7.486563
21
117.986387
0
LINE
8
boundary
62
5
39
2
10
7.486563
20
117.986387
11
7.421609
21
117.466670
0
LINE
8
boundary
62
5
39
2
10
7.421609
20
117.466670
11
7.739516
21
116.979015
0
LINE
8
boundary
62
5
39
2
10
7.739516
20
116.979015
11
8.359572
21
116.870070
0
LINE
8
boundary
62
5
39
2
10
8.359572
20
116.870070
11
8.839751
21
116.627072
0
LINE
8
boundary
62
5
39
2
10
8.839751
20
116.627072
11
9.203004
21
116.238712
0
LINE
8
boundary
62
5
39
2
10
9.203004
20
116.238712
11
9.423073
21
115.744829
0
LINE
8
boundary
62
5
39
2
10
9.423073
20
115.744829
11
9.473603
21
115.185094
0
LINE
8
boundary
62
5
39
2
10
9.473603
20
115.185094
11
9.329431
21
114.696761
0
LINE
8
boundary
62
5
39
2
10
9.329431
20
114.696761
11
9.024698
21
114.248910
0
LINE
8
boundary
62
5
39
2
10
9.024698
20
114.248910
11
8.553589
21
113.907062
0
LINE
8
boundary
62
5
39
2
10
8.553589
20
113.907062
11
8.033665
21
113.768941
0
LINE
8
boundary
62
5
39
2
10
8.033665
20
113.768941
11
7.404489
21
113.791280
0
LINE
8
boundary
62
5
39
2
10
7.404489
20
113.791280
11
7.007992
21
113.437176
0
LINE
8
boundary
62
5
39
2
10
7.007992
20
113.437176
11
6.947546
21
112.858477
0
LINE
8
boundary
62
5
39
2
10
6.947546
20
112.858477
11
6.909879
21
112.336084
0
LINE
8
boundary
62
5
39
2
10
6.909879
20
112.336084
11
7.252899
21
111.865693
0
LINE
8
boundary
62
5
39
2
10
7.252899
20
111.865693
11
7.877825
21
111.789327
0
LINE
8
boundary
62
5
39
2
10
7.877825
20
111.789327
11
8.370049
21
111.571771
0
LINE
8
boundary
62
5
39
2
10
8.370049
20
111.571771
11
8.753111
21
111.202968
0
LINE
8
boundary
62
5
39
2
10
8.753111
20
111.202968
11
8.998705
21
110.721268
0
LINE
8
boundary
62
5
39
2
10
8.998705
20
110.721268
11
9.078490
21
110.164987
0
LINE
8
boundary
62
5
39
2
10
9.078490
20
110.164987
11
8.960074
21
109.669770
0
LINE
8
boundary
62
5
39
2
10
8.960074
20
109.669770
11
8.679242
21
109.206588
0
LINE
8
boundary
62
5
39
2
10
8.679242
20
109.206588
11
8.226653
21
108.840555
0
LINE
8
boundary
62
5
39
2
10
8.226653
20
108.840555
11
7.714717
21
108.675406
0
LINE
8
boundary
62
5
39
2
10
7.714717
20
108.675406
11
7.085122
21
108.664781
0
LINE
8
boundary
62
5
39
2
10
7.085122
20
108.664781
11
6.707820
21
108.290413
0
LINE
8
boundary
62
5
39
2
10
6.707820
20
108.290413
11
6.677777
21
107.709349
0
LINE
8
boundary
62
5
39
2
10
6.677777
20
107.709349
11
6.667500
21
107.185700
0
LINE
8
boundary
62
5
39
2
10
6.667500
20
107.185700
11
7.034599
21
106.733913
0
LINE
8
boundary
62
5
39
2
10
7.034599
20
106.733913
11
7.662740
21
106.690345
0
LINE
8
boundary
62
5
39
2
10
7.662740
20
106.690345
11
8.165543
21
106.498852
0
LINE
8
boundary
62
5
39
2
10
8.165543
20
106.498852
11
8.567390
21
106.150611
0
LINE
8
boundary
62
5
39
2
10
8.567390
20
106.150611
11
8.837989
21
105.682416
0
LINE
8
boundary
62
5
39
2
10
8.837989
20
105.682416
11
8.946721
21
105.131074
0
LINE
8
boundary
62
5
39
2
10
8.946721
20
105.131074
11
8.854432
21
104.630345
0
LINE
8
boundary
62
5
39
2
10
8.854432
20
104.630345
11
8.598182
21
104.153099
0
LINE
8
boundary
62
5
39
2
10
8.598182
20
104.153099
11
8.165337
21
103.763880
0
LINE
8
boundary
62
5
39
2
10
8.165337
20
103.763880
11
7.662740
21
103.572169
0
LINE
8
boundary
62
5
39
2
10
7.662740
20
103.572169
11
7.034598
21
103.528602
0
LINE
8
boundary
62
5
39
2
10
7.034598
20
103.528602
11
6.677372
21
103.135001
0
LINE
8
boundary
62
5
39
2
10
6.677372
20
103.135001
11
6.677777
21
102.553165
0
LINE
8
boundary
62
5
39
2
10
6.677777
20
102.553165
11
6.694897
21
102.029693
0
LINE
8
boundary
62
5
39
2
10
6.694897
20
102.029693
11
7.085122
21
101.597734
0
LINE
8
boundary
62
5
39
2
10
7.085122
20
101.597734
11
7.714717
21
101.587109
0
LINE
8
boundary
62
5
39
2
10
7.714717
20
101.587109
11
8.226864
21
101.422188
0
LINE
8
boundary
62
5
39
2
10
8.226864
20
101.422188
11
8.646455
21
101.095458
0
LINE
8
boundary
62
5
39
2
10
8.646455
20
101.095458
11
8.941017
21
100.642063
0
LINE
8
boundary
62
5
39
2
10
8.941017
20
100.642063
11
9.078605
21
100.097164
0
LINE
8
boundary
62
5
39
2
10
9.078605
20
100.097164
11
9.012533
21
99.592288
0
LINE
8
boundary
62
5
39
2
10
9.012533
20
99.592288
11
8.781622
21
99.102290
0
LINE
8
boundary
62
5
39
2
10
8.781622
20
99.102290
11
8.369837
21
98.690951
0
LINE
8
boundary
62
5
39
2
10
8.369837
20
98.690951
11
7.877825
21
98.473187
0
LINE
8
boundary
62
5
39
2
10
7.877825
20
98.473187
11
7.252899
21
98.396822
0
LINE
8
boundary
62
5
39
2
10
7.252899
20
98.396822
11
6.916736
21
97.985058
0
LINE
8
boundary
62
5
39
2
10
6.916736
20
97.985058
11
6.947546
21
97.404038
0
LINE
8
boundary
62
5
39
2
10
6.947546
20
97.404038
11
6.992056
21
96.882173
0
LINE
8
boundary
62
5
39
2
10
6.992056
20
96.882173
11
7.404489
21
96.471235
0
LINE
8
boundary
62
5
39
2
10
7.404489
20
96.471235
11
8.033665
21
96.493574
0
LINE
8
boundary
62
5
39
2
10
8.033665
20
96.493574
11
8.553795
21
96.355692
0
LINE
8
boundary
62
5
39
2
10
8.553795
20
96.355692
11
8.989888
21
96.051364
0
LINE
8
boundary
62
5
39
2
10
8.989888
20
96.051364
11
9.307794
21
95.614008
0
LINE
8
boundary
62
5
39
2
10
9.307794
20
95.614008
11
9.473706
21
95.077058
0
LINE
8
boundary
62
5
39
2
10
9.473706
20
95.077058
11
9.434161
21
94.569438
0
LINE
8
boundary
62
5
39
2
10
9.434161
20
94.569438
11
9.229214
21
94.068011
0
LINE
8
boundary
62
5
39
2
10
9.229214
20
94.068011
11
8.839545
21
93.635650
0
LINE
8
boundary
62
5
39
2
10
8.839545
20
93.635650
11
8.359572
21
93.392445
0
LINE
8
boundary
62
5
39
2
10
8.359572
20
93.392445
11
7.739515
21
93.283500
0
LINE
8
boundary
62
5
39
2
10
7.739515
20
93.283500
11
7.425375
21
92.854749
0
LINE
8
boundary
62
5
39
2
10
7.425375
20
92.854749
11
7.486564
21
92.276128
0
LINE
8
boundary
62
5
39
2
10
7.486564
20
92.276128
11
7.558361
21
91.757242
0
LINE
8
boundary
62
5
39
2
10
7.558361
20
91.757242
11
7.991650
21
91.368466
0
LINE
8
boundary
62
5
39
2
10
7.991650
20
91.368466
11
8.618750
21
91.423664
0
LINE
8
boundary
62
5
39
2
10
8.618750
20
91.423664
11
9.145419
21
91.313266
0
LINE
8
boundary
62
5
39
2
10
9.145419
20
91.313266
11
9.596863
21
91.032191
0
LINE
8
boundary
62
5
39
2
10
9.596863
20
91.032191
11
9.937292
21
90.612080
0
LINE
8
boundary
62
5
39
2
10
9.937292
20
90.612080
11
10.131006
21
90.084477
0
LINE
8
boundary
62
5
39
2
10
10.131006
20
90.084477
11
10.118088
21
89.575463
0
LINE
8
boundary
62
5
39
2
10
10.118088
20
89.575463
11
9.939678
21
89.063998
0
LINE
8
boundary
62
5
39
2
10
9.939678
20
89.063998
11
9.573106
21
88.611861
0
LINE
8
boundary
62
5
39
2
10
9.573106
20
88.611861
11
9.106620
21
88.343960
0
LINE
8
boundary
62
5
39
2
10
9.106620
20
88.343960
11
8.493000
21
88.202644
0
LINE
8
boundary
62
5
39
2
10
8.493000
20
88.202644
11
8.201767
21
87.758033
0
LINE
8
boundary
62
5
39
2
10
8.201767
20
87.758033
11
8.293164
21
87.183340
0
LINE
8
boundary
62
5
39
2
10
8.293164
20
87.183340
11
8.391940
21
86.669019
0
LINE
8
boundary
62
5
39
2
10
8.391940
20
86.669019
11
8.845044
21
86.303485
0
LINE
8
boundary
62
5
39
2
10
8.845044
20
86.303485
11
9.468516
21
86.391469
0
LINE
8
boundary
62
5
39
2
10
9.468516
20
86.391469
11
10.000169
21
86.308672
0
LINE
8
boundary
62
5
39
2
10
10.000169
20
86.308672
11
10.465621
21
86.051563
0
LINE
8
boundary
62
5
39
2
10
10.465621
20
86.051563
11
10.827627
21
85.649817
0
LINE
8
boundary
62
5
39
2
10
10.827627
20
85.649817
11
11.048628
21
85.133214
0
LINE
8
boundary
62
5
39
2
10
11.048628
20
85.133214
11
11.062380
21
84.624244
0
LINE
8
boundary
62
5
39
2
10
11.062380
20
84.624244
11
10.911014
21
84.104106
0
LINE
8
boundary
62
5
39
2
10
10.911014
20
84.104106
11
10.604283
21
83.669841
0
LINE
8
boundary
62
5
39
2
10
10.604283
20
83.669841
11
10.116787
21
83.341337
0
LINE
8
boundary
62
5
39
2
10
10.116787
20
83.341337
11
9.511476
21
83.168168
0
LINE
8
boundary
62
5
39
2
10
9.511476
20
83.168168
11
9.243853
21
82.708886
0
LINE
8
boundary
62
5
39
2
10
9.243853
20
82.708886
11
9.365179
21
82.139836
0
LINE
8
boundary
62
5
39
2
10
9.365179
20
82.139836
11
9.490832
21
81.631429
0
LINE
8
boundary
62
5
39
2
10
9.490832
20
81.631429
11
9.962400
21
81.289966
0
LINE
8
boundary
62
5
39
2
10
9.962400
20
81.289966
11
10.580373
21
81.410531
0
LINE
8
boundary
62
5
39
2
10
10.580373
20
81.410531
11
11.115654
21
81.355644
0
LINE
8
boundary
62
5
39
2
10
11.115654
20
81.355644
11
11.593968
21
81.123333
0
LINE
8
boundary
62
5
39
2
10
11.593968
20
81.123333
11
11.976424
21
80.741095
0
LINE
8
boundary
62
5
39
2
10
11.976424
20
80.741095
11
12.224192
21
80.236733
0
LINE
8
boundary
62
5
39
2
10
12.224192
20
80.236733
11
12.264632
21
79.729142
0
LINE
8
boundary
62
5
39
2
10
12.264632
20
79.729142
11
12.140607
21
79.201806
0
LINE
8
boundary
62
5
39
2
10
12.140607
20
79.201806
11
11.856964
21
78.752111
0
LINE
8
boundary
62
5
39
2
10
11.856964
20
78.752111
11
11.387391
21
78.398581
0
LINE
8
boundary
62
5
39
2
10
11.387391
20
78.398581
11
10.791934
21
78.193972
0
LINE
8
boundary
62
5
39
2
10
10.791934
20
78.193972
11
10.548713
21
77.721279
0
LINE
8
boundary
62
5
39
2
10
10.548713
20
77.721279
11
10.699691
21
77.159312
0
LINE
8
boundary
62
5
39
2
10
10.699691
20
77.159312
11
10.851801
21
76.658168
0
LINE
8
boundary
62
5
39
2
10
10.851801
20
76.658168
11
11.340495
21
76.341917
0
LINE
8
boundary
62
5
39
2
10
11.340495
20
76.341917
11
11.951310
21
76.494648
0
LINE
8
boundary
62
5
39
2
10
11.951310
20
76.494648
11
12.488765
21
76.467879
0
LINE
8
boundary
62
5
39
2
10
12.488765
20
76.467879
11
12.978603
21
76.260884
0
LINE
8
boundary
62
5
39
2
10
12.978603
20
76.260884
11
13.380553
21
75.899188
0
LINE
8
boundary
62
5
39
2
10
13.380553
20
75.899188
11
13.654368
21
75.408420
0
LINE
8
boundary
62
5
39
2
10
13.654368
20
75.408420
11
13.721299
21
74.903711
0
LINE
8
boundary
62
5
39
2
10
13.721299
20
74.903711
11
13.625111
21
74.370606
0
LINE
8
boundary
62
5
39
2
10
13.625111
20
74.370606
11
13.365393
21
73.906657
0
LINE
8
boundary
62
5
39
2
10
13.365393
20
73.906657
11
12.914896
21
73.529077
0
LINE
8
boundary
62
5
39
2
10
12.914896
20
73.529077
11
12.331059
21
73.293551
0
LINE
8
boundary
62
5
39
2
10
12.331059
20
73.293551
11
12.112905
21
72.808774
0
LINE
8
boundary
62
5
39
2
10
12.112905
20
72.808774
11
12.293083
21
72.255569
0
LINE
8
boundary
62
5
39
2
10
12.293083
20
72.255569
11
12.471131
21
71.762933
0
LINE
8
boundary
62
5
39
2
10
12.471131
20
71.762933
11
12.975800
21
71.472726
0
LINE
8
boundary
62
5
39
2
10
12.975800
20
71.472726
11
13.577798
21
71.657205
0
LINE
8
boundary
62
5
39
2
10
13.577798
20
71.657205
11
14.115876
21
71.658658
0
LINE
8
boundary
62
5
39
2
10
14.115876
20
71.658658
11
14.615882
21
71.477501
0
LINE
8
boundary
62
5
39
2
10
14.615882
20
71.477501
11
15.036199
21
71.137384
0
LINE
8
boundary
62
5
39
2
10
15.036199
20
71.137384
11
15.335327
21
70.661662
0
LINE
8
boundary
62
5
39
2
10
15.335327
20
70.661662
11
15.428577
21
70.161061
0
LINE
8
boundary
62
5
39
2
10
15.428577
20
70.161061
11
15.360391
21
69.623707
0
LINE
8
boundary
62
5
39
2
10
15.360391
20
69.623707
11
15.125350
21
69.146751
0
LINE
8
boundary
62
5
39
2
10
15.125350
20
69.146751
11
14.695256
21
68.746109
0
LINE
8
boundary
62
5
39
2
10
14.695256
20
68.746109
11
14.124488
21
68.480388
0
LINE
8
boundary
62
5
39
2
10
14.124488
20
68.480388
11
13.932029
21
67.984821
0
LINE
8
boundary
62
5
39
2
10
13.932029
20
67.984821
11
14.140887
21
67.441779
0
LINE
8
boundary
62
5
39
2
10
14.140887
20
67.441779
11
14.344454
21
66.959208
0
LINE
8
boundary
62
5
39
2
10
14.344454
20
66.959208
11
14.863657
21
66.695876
0
LINE
8
boundary
62
5
39
2
10
14.863657
20
66.695876
11
15.455172
21
66.911485
0
LINE
8
boundary
62
5
39
2
10
15.455172
20
66.911485
11
15.992422
21
66.941156
0
LINE
8
boundary
62
5
39
2
10
15.992422
20
66.941156
11
16.501244
21
66.786454
0
LINE
8
boundary
62
5
39
2
10
16.501244
20
66.786454
11
16.938784
21
66.468752
0
LINE
8
boundary
62
5
39
2
10
16.938784
20
66.468752
11
17.262402
21
66.009318
0
LINE
8
boundary
62
5
39
2
10
17.262402
20
66.009318
11
17.381718
21
65.514334
0
LINE
8
boundary
62
5
39
2
10
17.381718
20
65.514334
11
17.341703
21
64.974153
0
LINE
8
boundary
62
5
39
2
10
17.341703
20
64.974153
11
17.132002
21
64.485541
0
LINE
8
boundary
62
5
39
2
10
17.132002
20
64.485541
11
16.723488
21
64.062946
0
LINE
8
boundary
62
5
39
2
10
16.723488
20
64.062946
11
16.167356
21
63.767658
0
LINE
8
boundary
62
5
39
2
10
16.167356
20
63.767658
11
16.001098
21
63.262769
0
LINE
8
boundary
62
5
39
2
10
16.001098
20
63.262769
11
16.238119
21
62.731441
0
LINE
8
boundary
62
5
39
2
10
16.238119
20
62.731441
11
16.466690
21
62.260176
0
LINE
8
boundary
62
5
39
2
10
16.466690
20
62.260176
11
16.998858
21
62.024238
0
LINE
8
boundary
62
5
39
2
10
16.998858
20
62.024238
11
17.578335
21
62.270659
0
LINE
8
boundary
62
5
39
2
10
17.578335
20
62.270659
11
18.113307
21
62.328347
0
LINE
8
boundary
62
5
39
2
10
18.113307
20
62.328347
11
18.629494
21
62.200414
0
LINE
8
boundary
62
5
39
2
10
18.629494
20
62.200414
11
19.083015
21
61.906058
0
LINE
8
boundary
62
5
39
2
10
19.083015
20
61.906058
11
19.430293
21
61.464264
0
LINE
8
boundary
62
5
39
2
10
19.430293
20
61.464264
11
19.575362
21
60.976181
0
LINE
8
boundary
62
5
39
2
10
19.575362
20
60.976181
11
19.563692
21
60.434634
0
LINE
8
boundary
62
5
39
2
10
19.563692
20
60.434634
11
19.379768
21
59.935707
0
LINE
8
boundary
62
5
39
2
10
19.379768
20
59.935707
11
18.993994
21
59.492265
0
LINE
8
boundary
62
5
39
2
10
18.993994
20
59.492265
11
18.454045
21
59.168335
0
LINE
8
boundary
62
5
39
2
10
18.454045
20
59.168335
11
18.314429
21
58.655455
0
LINE
8
boundary
62
5
39
2
10
18.314429
20
58.655455
11
18.578964
21
58.137206
0
LINE
8
boundary
62
5
39
2
10
18.578964
20
58.137206
11
18.831889
21
57.678600
0
LINE
8
boundary
62
5
39
2
10
18.831889
20
57.678600
11
19.375712
21
57.470879
0
LINE
8
boundary
62
5
39
2
10
19.375712
20
57.470879
11
19.941502
21
57.747183
0
LINE
8
boundary
62
5
39
2
10
19.941502
20
57.747183
11
20.472732
21
57.832782
0
LINE
8
boundary
62
5
39
2
10
20.472732
20
57.832782
11
20.994835
21
57.732140
0
LINE
8
boundary
62
5
39
2
10
20.994835
20
57.732140
11
21.463193
21
57.461953
0
LINE
8
boundary
62
5
39
2
10
21.463193
20
57.461953
11
21.833083
21
57.038835
0
LINE
8
boundary
62
5
39
2
10
21.833083
20
57.038835
11
22.003476
21
56.558995
0
LINE
8
boundary
62
5
39
2
10
22.003476
20
56.558995
11
22.020209
21
56.017590
0
LINE
8
boundary
62
5
39
2
10
22.020209
20
56.017590
11
21.862675
21
55.509786
0
LINE
8
boundary
62
5
39
2
10
21.862675
20
55.509786
11
21.500546
21
55.046814
0
LINE
8
boundary
62
5
39
2
10
21.500546
20
55.046814
11
20.978339
21
54.694977
0
LINE
8
boundary
62
5
39
2
10
20.978339
20
54.694977
11
20.865772
21
54.175499
0
LINE
8
boundary
62
5
39
2
10
20.865772
20
54.175499
11
21.157010
21
53.671832
0
LINE
8
boundary
62
5
39
2
10
21.157010
20
53.671832
11
21.433623
21
53.227025
0
LINE
8
boundary
62
5
39
2
10
21.433623
20
53.227025
11
21.987580
21
53.048051
0
LINE
8
boundary
62
5
39
2
10
21.987580
20
53.048051
11
22.538115
21
53.353610
0
LINE
8
boundary
62
5
39
2
10
22.538115
20
53.353610
11
23.064156
21
53.466909
0
LINE
8
boundary
62
5
39
2
10
23.064156
20
53.466909
11
23.590825
21
53.393766
0
LINE
8
boundary
62
5
39
2
10
23.590825
20
53.393766
11
24.072670
21
53.148378
0
LINE
8
boundary
62
5
39
2
10
24.072670
20
53.148378
11
24.464252
21
52.745283
0
LINE
8
boundary
62
5
39
2
10
24.464252
20
52.745283
11
24.659501
21
52.274977
0
LINE
8
boundary
62
5
39
2
10
24.659501
20
52.274977
11
24.704498
21
51.735212
0
LINE
8
boundary
62
5
39
2
10
24.704498
20
51.735212
11
24.573800
21
51.219836
0
LINE
8
boundary
62
5
39
2
10
24.573800
20
51.219836
11
24.272667
21
50.776304
0
LINE
8
boundary
62
5
39
2
10
24.272667
20
50.776304
11
23.733391
21
50.359922
0
LINE
8
boundary
62
5
39
2
10
23.733391
20
50.359922
11
23.648056
21
49.835249
0
LINE
8
boundary
62
5
39
2
10
23.648056
20
49.835249
11
23.965281
21
49.347465
0
LINE
8
boundary
62
5
39
2
10
23.965281
20
49.347465
11
24.264833
21
48.917810
0
LINE
8
boundary
62
5
39
2
10
24.264833
20
48.917810
11
24.827396
21
48.768092
0
LINE
8
boundary
62
5
39
2
10
24.827396
20
48.768092
11
25.361114
21
49.101980
0
LINE
8
boundary
62
5
39
2
10
25.361114
20
49.101980
11
25.880523
21
49.242669
0
LINE
8
boundary
62
5
39
2
10
25.880523
20
49.242669
11
26.410312
21
49.197123
0
LINE
8
boundary
62
5
39
2
10
26.410312
20
49.197123
11
26.904395
21
48.977363
0
LINE
8
boundary
62
5
39
2
10
26.904395
20
48.977363
11
27.316415
21
48.595228
0
LINE
8
boundary
62
5
39
2
10
27.316415
20
48.595228
11
27.536029
21
48.135894
0
LINE
8
boundary
62
5
39
2
10
27.536029
20
48.135894
11
27.609269
21
47.599178
0
LINE
8
boundary
62
5
39
2
10
27.609269
20
47.599178
11
27.505681
21
47.077723
0
LINE
8
boundary
62
5
39
2
10
27.505681
20
47.077723
11
27.228189
21
46.618983
0
LINE
8
boundary
62
5
39
2
10
27.228189
20
46.618983
11
26.711414
21
46.174900
0
LINE
8
boundary
62
5
39
2
10
26.711414
20
46.174900
11
26.653768
21
45.646534
0
LINE
8
boundary
62
5
39
2
10
26.653768
20
45.646534
11
26.996013
21
45.176033
0
LINE
8
boundary
62
5
39
2
10
26.996013
20
45.176033
11
27.317657
21
44.762565
0
LINE
8
boundary
62
5
39
2
10
27.317657
20
44.762565
11
27.887280
21
44.642520
0
LINE
8
boundary
62
5
39
2
10
27.887280
20
44.642520
11
28.402747
21
45.003902
0
LINE
8
boundary
62
5
39
2
10
28.402747
20
45.003902
11
28.914156
21
45.171576
0
LINE
8
boundary
62
5
39
2
10
28.914156
20
45.171576
11
29.445603
21
45.153832
0
LINE
8
boundary
62
5
39
2
10
29.445603
20
45.153832
11
29.950478
21
44.960221
0
LINE
8
boundary
62
5
39
2
10
29.950478
20
44.960221
11
30.382005
21
44.600183
0
LINE
8
boundary
62
5
39
2
10
30.382005
20
44.600183
11
30.625321
21
44.152971
0
LINE
8
boundary
62
5
39
2
10
30.625321
20
44.152971
11
30.726536
21
43.620802
0
LINE
8
boundary
62
5
39
2
10
30.726536
20
43.620802
11
30.650396
21
43.094653
0
LINE
8
boundary
62
5
39
2
10
30.650396
20
43.094653
11
30.397241
21
42.622049
0
LINE
8
boundary
62
5
39
2
10
30.397241
20
42.622049
11
29.904417
21
42.151526
0
LINE
8
boundary
62
5
39
2
10
29.904417
20
42.151526
11
29.874441
21
41.620803
0
LINE
8
boundary
62
5
39
2
10
29.874441
20
41.620803
11
30.241001
21
41.168852
0
LINE
8
boundary
62
5
39
2
10
30.241001
20
41.168852
11
30.583706
21
40.772916
0
LINE
8
boundary
62
5
39
2
10
30.583706
20
40.772916
11
31.158835
21
40.682751
0
LINE
8
boundary
62
5
39
2
10
31.158835
20
40.682751
11
31.654789
21
41.070699
0
LINE
8
boundary
62
5
39
2
10
31.654789
20
41.070699
11
32.156660
21
41.264825
0
LINE
8
boundary
62
5
39
2
10
32.156660
20
41.264825
11
32.688307
21
41.274993
0
LINE
8
boundary
62
5
39
2
10
32.688307
20
41.274993
11
33.202629
21
41.108052
0
LINE
8
boundary
62
5
39
2
10
33.202629
20
41.108052
11
33.652311
21
40.771154
0
LINE
8
boundary
62
5
39
2
10
33.652311
20
40.771154
11
33.918778
21
40.337228
0
LINE
8
boundary
62
5
39
2
10
33.918778
20
40.337228
11
34.047687
21
39.811113
0
LINE
8
boundary
62
5
39
2
10
34.047687
20
39.811113
11
33.999191
21
39.281624
0
LINE
8
boundary
62
5
39
2
10
33.999191
20
39.281624
11
33.771158
21
38.796406
0
LINE
8
boundary
62
5
39
2
10
33.771158
20
38.796406
11
33.303586
21
38.300816
0
LINE
8
boundary
62
5
39
2
10
33.303586
20
38.300816
11
33.301458
21
37.769226
0
LINE
8
boundary
62
5
39
2
10
33.301458
20
37.769226
11
33.333048
21
37.719360
0
LINE
8
annotation
62
1
39
211
10
105.131257
20
183.902263
11
105.131257
21
185.331013
0
LINE
8
annotation
62
1
39
211
10
105.131257
20
183.902263
11
105.131257
21
185.331013
0
LINE
8
annotation
62
1
39
211
10
105.131257
20
185.331013
11
105.131257
21
183.902263
0
LINE
8
annotation
62
1
39
211
10
105.131257
20
183.902263
11
106.560007
21
183.902263
0
LINE
8
annotation
62
1
39
211
10
105.131257
20
26.360251
11
105.131257
21
24.931502
0
LINE
8
annotation
62
1
39
211
10
183.902263
20
105.131257
11
183.902263
21
106.560007
0
LINE
8
annotation
62
1
39
211
10
183.902263
20
105.131257
11
183.902263
21
106.560007
0
LINE
8
annotation
62
1
39
211
10
183.902263
20
106.560007
11
183.902263
21
105.131257
0
LINE
8
annotation
62
1
39
211
10
183.902263
20
105.131257
11
183.902263
21
103.702507
0
LINE
8
annotation
62
1
39
211
10
26.360251
20
105.131257
11
27.789001
21
105.131257
0
LINE
8
annotation
62
1
39
211
10
26.360251
20
105.131257
11
27.789001
21
105.131257
0
LINE
8
annotation
62
1
39
211
10
27.789001
20
105.131257
11
26.360251
21
105.131257
0
LINE
8
annotation
62
1
39
211
10
26.360251
20
105.131257
11
26.360251
21
103.702507
0
LINE
8
annotation
62
1
39
211
10
121.652922
20
69.215456
11
138.971777
21
69.215456
0
LINE
8
annotation
62
1
39
211
10
138.971777
20
69.215456
11
138.971777
21
69.215456
0
LINE
8
annotation
62
1
39
211
10
138.971777
20
69.215456
11
142.086614
21
69.494877
0
LINE
8
annotation
62
1
39
211
10
142.086614
20
69.494877
11
145.017568
21
70.300187
0
LINE
8
annotation
62
1
39
211
10
145.017568
20
70.300187
11
147.715890
21
71.581951
0
LINE
8
annotation
62
1
39
211
10
147.715890
20
71.581951
11
150.132832
21
73.290738
0
LINE
8
annotation
62
1
39
211
10
150.132832
20
73.290738
11
152.219644
21
75.377114
0
LINE
8
annotation
62
1
39
211
10
152.219644
20
75.377114
11
153.927578
21
77.791647
0
LINE
8
annotation
62
1
39
211
10
153.927578
20
77.791647
11
155.207887
21
80.484903
0
LINE
8
annotation
62
1
39
211
10
155.207887
20
80.484903
11
156.011821
21
83.407451
0
LINE
8
annotation
62
1
39
211
10
156.011821
20
83.407451
11
156.290632
21
86.509856
0
LINE
8
annotation
62
1
39
211
10
156.290632
20
86.509856
11
156.290632
21
95.181511
0
LINE
8
annotation
62
1
39
211
10
156.290632
20
95.181511
11
156.290632
21
95.181511
0
LINE
8
annotation
62
1
39
211
10
156.290632
20
95.181511
11
156.011821
21
98.282629
0
LINE
8
annotation
62
1
39
211
10
156.011821
20
98.282629
11
155.207887
21
101.204492
0
LINE
8
annotation
62
1
39
211
10
155.207887
20
101.204492
11
153.927578
21
103.897547
0
LINE
8
annotation
62
1
39
211
10
153.927578
20
103.897547
11
152.219644
21
106.312241
0
LINE
8
annotation
62
1
39
211
10
152.219644
20
106.312241
11
150.132832
21
108.399019
0
LINE
8
annotation
62
1
39
211
10
150.132832
20
108.399019
11
147.715890
21
110.108329
0
LINE
8
annotation
62
1
39
211
10
147.715890
20
110.108329
11
145.017568
21
111.390617
0
LINE
8
annotation
62
1
39
211
10
145.017568
20
111.390617
11
142.086614
21
112.196329
0
LINE
8
annotation
62
1
39
211
10
142.086614
20
112.196329
11
138.971777
21
112.475912
0
LINE
8
annotation
62
1
39
211
10
138.971777
20
112.475912
11
130.300122
21
112.475912
0
LINE
8
annotation
62
1
39
211
10
130.300122
20
112.475912
11
138.971777
21
112.475912
0
LINE
8
annotation
62
1
39
211
10
138.971777
20
112.475912
11
138.971777
21
112.475912
0
LINE
8
annotation
62
1
39
211
10
138.971777
20
112.475912
11
142.086614
21
112.755561
0
LINE
8
annotation
62
1
39
211
10
142.086614
20
112.755561
11
145.017568
21
113.561743
0
LINE
8
annotation
62
1
39
211
10
145.017568
20
113.561743
11
147.715890
21
114.845305
0
LINE
8
annotation
62
1
39
211
10
147.715890
20
114.845305
11
150.132832
21
116.557098
0
LINE
8
annotation
62
1
39
211
10
150.132832
20
116.557098
11
152.219644
21
118.647969
0
LINE
8
annotation
62
1
39
211
10
152.219644
20
118.647969
11
153.927578
21
121.068768
0
LINE
8
annotation
62
1
39
211
10
153.927578
20
121.068768
11
155.207887
21
123.770344
0
LINE
8
annotation
62
1
39
211
10
155.207887
20
123.770344
11
156.011821
21
126.703545
0
LINE
8
annotation
62
1
39
211
10
156.011821
20
126.703545
11
156.290632
21
129.819222
0
LINE
8
annotation
62
1
39
211
10
156.290632
20
129.819222
11
156.290632
21
129.819222
0
LINE
8
annotation
62
1
39
211
10
156.290632
20
129.819222
11
156.011821
21
132.920339
0
LINE
8
annotation
62
1
39
211
10
156.011821
20
132.920339
11
155.207887
21
135.842202
0
LINE
8
annotation
62
1
39
211
10
155.207887
20
135.842202
11
153.927578
21
138.535257
0
LINE
8
annotation
62
1
39
211
10
153.927578
20
138.535257
11
152.219644
21
140.949951
0
LINE
8
annotation
62
1
39
211
10
152.219644
20
140.949951
11
150.132832
21
143.036730
0
LINE
8
annotation
62
1
39
211
10
150.132832
20
143.036730
11
147.715890
21
144.746040
0
LINE
8
annotation
62
1
39
211
10
147.715890
20
144.746040
11
145.017568
21
146.028328
0
LINE
8
annotation
62
1
39
211
10
145.017568
20
146.028328
11
142.086614
21
146.834040
0
LINE
8
annotation
62
1
39
211
10
142.086614
20
146.834040
11
138.971777
21
147.113622
0
LINE
8
annotation
62
1
39
211
10
138.971777
20
147.113622
11
121.652922
21
147.113622
0
LINE
8
frame
62
5
39
2
10
0.000000
20
0.000000
11
215.900000
21
0.000000
0
LINE
8
frame
62
5
39
2
10
215.900000
20
0.000000
11
215.900000
21
279.400000
0
LINE
8
frame
62
5
39
2
10
215.900000
20
279.400000
11
0.000000
21
279.400000
0
LINE
8
frame
62
5
39
2
10
0.000000
20
279.400000
11
0.000000
21
0.000000
0
ENDSEC
0
EOF
