0
SECTION
2
HEADER
9
$ACADVER
1
AC1009
0
ENDSEC
0
SECTION
2
TABLES
0
TABLE
2
VPORT
70
1
0
VPORT
2
ACTIVE
70
0
10
0.0
20
0.0
11
0.0
21
0.0
12
0.0
22
0.0
13
0.0
23
0.0
14
0.0
24
0.0
15
0.0
25
0.0
16
0.0
26
0.0
36
0.0
17
0.0
27
0.0
37
0.0
40
0.0
41
0.0
42
0.0
43
0.0
44
0.0
50
0.0
51
0.0
71
0
72
1000
73
1
74
3
75
0
76
0
77
0
78
0
0
ENDTAB
0
ENDSEC
0
SECTION
2
ENTITIES
0
LINE
8
hole
62
5
39
2
10
184.681488
20
104.845508
11
185.252988
21
104.845508
0
LINE
8
hole
62
5
39
2
10
185.252988
20
104.845508
11
185.252988
21
105.417008
0
LINE
8
hole
62
5
39
2
10
185.252988
20
105.417008
11
184.681488
21
105.417008
0
LINE
8
hole
62
5
39
2
10
184.681488
20
105.417008
11
184.681488
21
104.845508
0
LINE
8
hole
62
5
39
2
10
104.845507
20
183.616513
11
105.417007
21
183.616513
0
LINE
8
hole
62
5
39
2
10
105.417007
20
183.616513
11
105.417007
21
184.188013
0
LINE
8
hole
62
5
39
2
10
105.417007
20
184.188013
11
104.845507
21
184.188013
0
LINE
8
hole
62
5
39
2
10
104.845507
20
184.188013
11
104.845507
21
183.616513
0
LINE
8
hole
62
5
39
2
10
104.845507
20
26.074501
11
105.417007
21
26.074501
0
LINE
8
hole
62
5
39
2
10
105.417007
20
26.074501
11
105.417007
21
26.646001
0
LINE
8
hole
62
5
39
2
10
105.417007
20
26.646001
11
104.845507
21
26.646001
0
LINE
8
hole
62
5
39
2
10
104.845507
20
26.646001
11
104.845507
21
26.074501
0
LINE
8
hole
62
5
39
2
10
25.009526
20
104.845508
11
25.581026
21
104.845508
0
LINE
8
hole
62
5
39
2
10
25.581026
20
104.845508
11
25.581026
21
105.417008
0
LINE
8
hole
62
5
39
2
10
25.581026
20
105.417008
11
25.009526
21
105.417008
0
LINE
8
hole
62
5
39
2
10
25.009526
20
105.417008
11
25.009526
21
104.845508
0
LINE
8
hole
62
5
39
2
10
98.422928
20
97.559123
11
97.990639
21
97.974349
0
LINE
8
hole
62
5
39
2
10
97.990639
20
97.974349
11
97.295145
21
98.733274
0
LINE
8
hole
62
5
39
2
10
97.295145
20
98.733274
11
96.805736
21
99.384564
0
LINE
8
hole
62
5
39
2
10
96.805736
20
99.384564
11
96.370310
21
100.073124
0
LINE
8
hole
62
5
39
2
10
96.370310
20
100.073124
11
95.991714
21
100.794491
0
LINE
8
hole
62
5
39
2
10
95.991714
20
100.794491
11
95.672382
21
101.543977
0
LINE
8
hole
62
5
39
2
10
95.672382
20
101.543977
11
95.414401
21
102.316736
0
LINE
8
hole
62
5
39
2
10
95.414401
20
102.316736
11
95.219432
21
103.107744
0
LINE
8
hole
62
5
39
2
10
95.219432
20
103.107744
11
95.088751
21
103.911879
0
LINE
8
hole
62
5
39
2
10
95.088751
20
103.911879
11
95.023197
21
104.723918
0
LINE
8
hole
62
5
39
2
10
95.023197
20
104.723918
11
95.023197
21
105.538597
0
LINE
8
hole
62
5
39
2
10
95.023197
20
105.538597
11
95.088751
21
106.350636
0
LINE
8
hole
62
5
39
2
10
95.088751
20
106.350636
11
95.219432
21
107.154770
0
LINE
8
hole
62
5
39
2
10
95.219432
20
107.154770
11
95.414401
21
107.945779
0
LINE
8
hole
62
5
39
2
10
95.414401
20
107.945779
11
95.672382
21
108.718538
0
LINE
8
hole
62
5
39
2
10
95.672382
20
108.718538
11
95.991714
21
109.468023
0
LINE
8
hole
62
5
39
2
10
95.991714
20
109.468023
11
96.370310
21
110.189391
0
LINE
8
hole
62
5
39
2
10
96.370310
20
110.189391
11
96.805736
21
110.877951
0
LINE
8
hole
62
5
39
2
10
96.805736
20
110.877951
11
97.295145
21
111.529241
0
LINE
8
hole
62
5
39
2
10
97.295145
20
111.529241
11
97.835385
21
112.139039
0
LINE
8
hole
62
5
39
2
10
97.835385
20
112.139039
11
98.267674
21
112.554265
0
LINE
8
hole
62
5
39
2
10
98.267674
20
112.554265
11
98.887233
21
113.082487
0
LINE
8
hole
62
5
39
2
10
98.887233
20
113.082487
11
99.547292
21
113.559134
0
LINE
8
hole
62
5
39
2
10
99.547292
20
113.559134
11
100.243562
21
113.981132
0
LINE
8
hole
62
5
39
2
10
100.243562
20
113.981132
11
100.971533
21
114.345729
0
LINE
8
hole
62
5
39
2
10
100.971533
20
114.345729
11
101.726478
21
114.650567
0
LINE
8
hole
62
5
39
2
10
101.726478
20
114.650567
11
102.503500
21
114.893669
0
LINE
8
hole
62
5
39
2
10
102.503500
20
114.893669
11
103.297570
21
115.073460
0
LINE
8
hole
62
5
39
2
10
103.297570
20
115.073460
11
104.103531
21
115.188769
0
LINE
8
hole
62
5
39
2
10
104.103531
20
115.188769
11
104.916158
21
115.238855
0
LINE
8
hole
62
5
39
2
10
104.916158
20
115.238855
11
105.730179
21
115.223386
0
LINE
8
hole
62
5
39
2
10
105.730179
20
115.223386
11
106.540316
21
115.142469
0
LINE
8
hole
62
5
39
2
10
106.540316
20
115.142469
11
107.341316
21
114.996622
0
LINE
8
hole
62
5
39
2
10
107.341316
20
114.996622
11
108.127979
21
114.786797
0
LINE
8
hole
62
5
39
2
10
108.127979
20
114.786797
11
108.895207
21
114.514352
0
LINE
8
hole
62
5
39
2
10
108.895207
20
114.514352
11
109.638030
21
114.181056
0
LINE
8
hole
62
5
39
2
10
109.638030
20
114.181056
11
110.351622
21
113.789061
0
LINE
8
hole
62
5
39
2
10
110.351622
20
113.789061
11
111.031361
21
113.340925
0
LINE
8
hole
62
5
39
2
10
111.031361
20
113.340925
11
111.672834
21
112.839542
0
LINE
8
hole
62
5
39
2
10
111.672834
20
112.839542
11
112.271876
21
112.288165
0
LINE
8
hole
62
5
39
2
10
112.271876
20
112.288165
11
112.967370
21
111.529241
0
LINE
8
hole
62
5
39
2
10
112.967370
20
111.529241
11
113.456779
21
110.877951
0
LINE
8
hole
62
5
39
2
10
113.456779
20
110.877951
11
113.892204
21
110.189391
0
LINE
8
hole
62
5
39
2
10
113.892204
20
110.189391
11
114.270801
21
109.468024
0
LINE
8
hole
62
5
39
2
10
114.270801
20
109.468024
11
114.590133
21
108.718538
0
LINE
8
hole
62
5
39
2
10
114.590133
20
108.718538
11
114.848114
21
107.945779
0
LINE
8
hole
62
5
39
2
10
114.848114
20
107.945779
11
115.043083
21
107.154770
0
LINE
8
hole
62
5
39
2
10
115.043083
20
107.154770
11
115.173764
21
106.350636
0
LINE
8
hole
62
5
39
2
10
115.173764
20
106.350636
11
115.239317
21
105.538598
0
LINE
8
hole
62
5
39
2
10
115.239317
20
105.538598
11
115.239317
21
104.723917
0
LINE
8
hole
62
5
39
2
10
115.239317
20
104.723917
11
115.173764
21
103.911879
0
LINE
8
hole
62
5
39
2
10
115.173764
20
103.911879
11
115.043083
21
103.107744
0
LINE
8
hole
62
5
39
2
10
115.043083
20
103.107744
11
114.848114
21
102.316735
0
LINE
8
hole
62
5
39
2
10
114.848114
20
102.316735
11
114.590133
21
101.543977
0
LINE
8
hole
62
5
39
2
10
114.590133
20
101.543977
11
114.270800
21
100.794492
0
LINE
8
hole
62
5
39
2
10
114.270800
20
100.794492
11
113.892204
21
100.073124
0
LINE
8
hole
62
5
39
2
10
113.892204
20
100.073124
11
113.456779
21
99.384564
0
LINE
8
hole
62
5
39
2
10
113.456779
20
99.384564
11
112.967370
21
98.733274
0
LINE
8
hole
62
5
39
2
10
112.967370
20
98.733274
11
112.427130
21
98.123476
0
LINE
8
hole
62
5
39
2
10
112.427130
20
98.123476
11
111.994841
21
97.708250
0
LINE
8
hole
62
5
39
2
10
111.994841
20
97.708250
11
111.375282
21
97.180028
0
LINE
8
hole
62
5
39
2
10
111.375282
20
97.180028
11
110.715223
21
96.703381
0
LINE
8
hole
62
5
39
2
10
110.715223
20
96.703381
11
110.018953
21
96.281383
0
LINE
8
hole
62
5
39
2
10
110.018953
20
96.281383
11
109.290982
21
95.916785
0
LINE
8
hole
62
5
39
2
10
109.290982
20
95.916785
11
108.536037
21
95.611947
0
LINE
8
hole
62
5
39
2
10
108.536037
20
95.611947
11
107.759014
21
95.368846
0
LINE
8
hole
62
5
39
2
10
107.759014
20
95.368846
11
106.964945
21
95.189055
0
LINE
8
hole
62
5
39
2
10
106.964945
20
95.189055
11
106.158983
21
95.073746
0
LINE
8
hole
62
5
39
2
10
106.158983
20
95.073746
11
105.346357
21
95.023660
0
LINE
8
hole
62
5
39
2
10
105.346357
20
95.023660
11
104.532336
21
95.039129
0
LINE
8
hole
62
5
39
2
10
104.532336
20
95.039129
11
103.722199
21
95.120046
0
LINE
8
hole
62
5
39
2
10
103.722199
20
95.120046
11
102.921198
21
95.265893
0
LINE
8
hole
62
5
39
2
10
102.921198
20
95.265893
11
102.134536
21
95.475718
0
LINE
8
hole
62
5
39
2
10
102.134536
20
95.475718
11
101.367308
21
95.748163
0
LINE
8
hole
62
5
39
2
10
101.367308
20
95.748163
11
100.624485
21
96.081459
0
LINE
8
hole
62
5
39
2
10
100.624485
20
96.081459
11
99.910893
21
96.473454
0
LINE
8
hole
62
5
39
2
10
99.910893
20
96.473454
11
99.231154
21
96.921590
0
LINE
8
hole
62
5
39
2
10
99.231154
20
96.921590
11
98.589681
21
97.422973
0
LINE
8
hole
62
5
39
2
10
98.589681
20
97.422973
11
98.422928
21
97.559123
0
LINE
8
boundary
62
5
39
2
10
33.333048
20
37.719360
11
33.691117
21
37.337122
0
LINE
8
boundary
62
5
39
2
10
33.691117
20
37.337122
11
34.054158
21
36.959552
0
LINE
8
boundary
62
5
39
2
10
34.054158
20
36.959552
11
34.596181
21
36.883214
0
LINE
8
boundary
62
5
39
2
10
34.596181
20
36.883214
11
35.108121
21
37.313050
0
LINE
8
boundary
62
5
39
2
10
35.108121
20
37.313050
11
35.599091
21
37.533221
0
LINE
8
boundary
62
5
39
2
10
35.599091
20
37.533221
11
36.129498
21
37.571095
0
LINE
8
boundary
62
5
39
2
10
36.129498
20
37.571095
11
36.651910
21
37.431332
0
LINE
8
boundary
62
5
39
2
10
36.651910
20
37.431332
11
37.090696
21
37.142563
0
LINE
8
boundary
62
5
39
2
10
37.090696
20
37.142563
11
37.431126
21
36.651807
0
LINE
8
boundary
62
5
39
2
10
37.431126
20
36.651807
11
37.570780
21
36.129498
0
LINE
8
boundary
62
5
39
2
10
37.570780
20
36.129498
11
37.532906
21
35.599195
0
LINE
8
boundary
62
5
39
2
10
37.532906
20
35.599195
11
37.313049
21
35.108121
0
LINE
8
boundary
62
5
39
2
10
37.313049
20
35.108121
11
36.899684
21
34.633223
0
LINE
8
boundary
62
5
39
2
10
36.899684
20
34.633223
11
36.959553
21
34.054158
0
LINE
8
boundary
62
5
39
2
10
36.959553
20
34.054158
11
37.337121
21
33.691117
0
LINE
8
boundary
62
5
39
2
10
37.337121
20
33.691117
11
37.719359
21
33.333048
0
LINE
8
boundary
62
5
39
2
10
37.719359
20
33.333048
11
38.264678
21
33.285225
0
LINE
8
boundary
62
5
39
2
10
38.264678
20
33.285225
11
38.753399
21
33.741229
0
LINE
8
boundary
62
5
39
2
10
38.753399
20
33.741229
11
39.232234
21
33.986818
0
LINE
8
boundary
62
5
39
2
10
39.232234
20
33.986818
11
39.759939
21
34.052396
0
LINE
8
boundary
62
5
39
2
10
39.759939
20
34.052396
11
40.288892
21
33.940127
0
LINE
8
boundary
62
5
39
2
10
40.288892
20
33.940127
11
40.742221
21
33.674776
0
LINE
8
boundary
62
5
39
2
10
40.742221
20
33.674776
11
41.107846
21
33.202424
0
LINE
8
boundary
62
5
39
2
10
41.107846
20
33.202424
11
41.274581
21
32.688205
0
LINE
8
boundary
62
5
39
2
10
41.274581
20
32.688205
11
41.264619
21
32.156660
0
LINE
8
boundary
62
5
39
2
10
41.264619
20
32.156660
11
41.070699
21
31.654789
0
LINE
8
boundary
62
5
39
2
10
41.070699
20
31.654789
11
40.682751
21
31.158835
0
LINE
8
boundary
62
5
39
2
10
40.682751
20
31.158835
11
40.772916
21
30.583706
0
LINE
8
boundary
62
5
39
2
10
40.772916
20
30.583706
11
41.168852
21
30.241001
0
LINE
8
boundary
62
5
39
2
10
41.168852
20
30.241001
11
41.569349
21
29.903382
0
LINE
8
boundary
62
5
39
2
10
41.569349
20
29.903382
11
42.116401
21
29.884166
0
LINE
8
boundary
62
5
39
2
10
42.116401
20
29.884166
11
42.580666
21
30.365097
0
LINE
8
boundary
62
5
39
2
10
42.580666
20
30.365097
11
43.045912
21
30.635381
0
LINE
8
boundary
62
5
39
2
10
43.045912
20
30.635381
11
43.569469
21
30.728550
0
LINE
8
boundary
62
5
39
2
10
43.569469
20
30.728550
11
44.103605
21
30.644095
0
LINE
8
boundary
62
5
39
2
10
44.103605
20
30.644095
11
44.570216
21
30.402824
0
LINE
8
boundary
62
5
39
2
10
44.570216
20
30.402824
11
44.960118
21
29.950272
0
LINE
8
boundary
62
5
39
2
10
44.960118
20
29.950272
11
45.153523
21
29.445494
0
LINE
8
boundary
62
5
39
2
10
45.153523
20
29.445494
11
45.171261
21
28.914053
0
LINE
8
boundary
62
5
39
2
10
45.171261
20
28.914053
11
45.003901
21
28.402747
0
LINE
8
boundary
62
5
39
2
10
45.003901
20
28.402747
11
44.642520
21
27.887280
0
LINE
8
boundary
62
5
39
2
10
44.642520
20
27.887280
11
44.762565
21
27.317554
0
LINE
8
boundary
62
5
39
2
10
44.762565
20
27.317554
11
45.176032
21
26.996013
0
LINE
8
boundary
62
5
39
2
10
45.176032
20
26.996013
11
45.593655
21
26.679972
0
LINE
8
boundary
62
5
39
2
10
45.593655
20
26.679972
11
46.140891
21
26.689353
0
LINE
8
boundary
62
5
39
2
10
46.140891
20
26.689353
11
46.579344
21
27.193979
0
LINE
8
boundary
62
5
39
2
10
46.579344
20
27.193979
11
47.029856
21
27.488232
0
LINE
8
boundary
62
5
39
2
10
47.029856
20
27.488232
11
47.547805
21
27.608597
0
LINE
8
boundary
62
5
39
2
10
47.547805
20
27.608597
11
48.085575
21
27.552248
0
LINE
8
boundary
62
5
39
2
10
48.085575
20
27.552248
11
48.564195
21
27.335709
0
LINE
8
boundary
62
5
39
2
10
48.564195
20
27.335709
11
48.977157
21
26.904189
0
LINE
8
boundary
62
5
39
2
10
48.977157
20
26.904189
11
49.196808
21
26.410203
0
LINE
8
boundary
62
5
39
2
10
49.196808
20
26.410203
11
49.242360
21
25.880523
0
LINE
8
boundary
62
5
39
2
10
49.242360
20
25.880523
11
49.101980
21
25.361114
0
LINE
8
boundary
62
5
39
2
10
49.101980
20
25.361114
11
48.768092
21
24.827396
0
LINE
8
boundary
62
5
39
2
10
48.768092
20
24.827396
11
48.917810
21
24.264833
0
LINE
8
boundary
62
5
39
2
10
48.917810
20
24.264833
11
49.347465
21
23.965281
0
LINE
8
boundary
62
5
39
2
10
49.347465
20
23.965281
11
49.781063
21
23.671446
0
LINE
8
boundary
62
5
39
2
10
49.781063
20
23.671446
11
50.327112
21
23.709574
0
LINE
8
boundary
62
5
39
2
10
50.327112
20
23.709574
11
50.738526
21
24.236395
0
LINE
8
boundary
62
5
39
2
10
50.738526
20
24.236395
11
51.172959
21
24.553890
0
LINE
8
boundary
62
5
39
2
10
51.172959
20
24.553890
11
51.683956
21
24.701228
0
LINE
8
boundary
62
5
39
2
10
51.683956
20
24.701228
11
52.223906
21
24.673111
0
LINE
8
boundary
62
5
39
2
10
52.223906
20
24.673111
11
52.713241
21
24.481873
0
LINE
8
boundary
62
5
39
2
10
52.713241
20
24.481873
11
53.148275
21
24.072566
0
LINE
8
boundary
62
5
39
2
10
53.148275
20
24.072566
11
53.393348
21
23.590722
0
LINE
8
boundary
62
5
39
2
10
53.393348
20
23.590722
11
53.466600
21
23.064053
0
LINE
8
boundary
62
5
39
2
10
53.466600
20
23.064053
11
53.353610
21
22.538116
0
LINE
8
boundary
62
5
39
2
10
53.353610
20
22.538116
11
53.048051
21
21.987580
0
LINE
8
boundary
62
5
39
2
10
53.048051
20
21.987580
11
53.197888
21
21.460473
0
LINE
8
boundary
62
5
39
2
10
53.197888
20
21.460473
11
53.671832
21
21.157011
0
LINE
8
boundary
62
5
39
2
10
53.671832
20
21.157011
11
54.120163
21
20.886303
0
LINE
8
boundary
62
5
39
2
10
54.120163
20
20.886303
11
54.663444
21
20.952874
0
LINE
8
boundary
62
5
39
2
10
54.663444
20
20.952874
11
55.046814
21
21.500546
0
LINE
8
boundary
62
5
39
2
10
55.046814
20
21.500546
11
55.464019
21
21.840351
0
LINE
8
boundary
62
5
39
2
10
55.464019
20
21.840351
11
55.966511
21
22.014250
0
LINE
8
boundary
62
5
39
2
10
55.966511
20
22.014250
11
56.507293
21
22.014353
0
LINE
8
boundary
62
5
39
2
10
56.507293
20
22.014353
11
57.005913
21
21.849004
0
LINE
8
boundary
62
5
39
2
10
57.005913
20
21.849004
11
57.461747
21
21.463090
0
LINE
8
boundary
62
5
39
2
10
57.461747
20
21.463090
11
57.731825
21
20.994732
0
LINE
8
boundary
62
5
39
2
10
57.731825
20
20.994732
11
57.832470
21
20.472629
0
LINE
8
boundary
62
5
39
2
10
57.832470
20
20.472629
11
57.747182
21
19.941502
0
LINE
8
boundary
62
5
39
2
10
57.747182
20
19.941502
11
57.470879
21
19.375712
0
LINE
8
boundary
62
5
39
2
10
57.470879
20
19.375712
11
57.648079
21
18.857207
0
LINE
8
boundary
62
5
39
2
10
57.648079
20
18.857207
11
58.137205
21
18.578964
0
LINE
8
boundary
62
5
39
2
10
58.137205
20
18.578964
11
58.599126
21
18.332026
0
LINE
8
boundary
62
5
39
2
10
58.599126
20
18.332026
11
59.138186
21
18.426955
0
LINE
8
boundary
62
5
39
2
10
59.138186
20
18.426955
11
59.492264
21
18.993995
0
LINE
8
boundary
62
5
39
2
10
59.492264
20
18.993995
11
59.891207
21
19.355067
0
LINE
8
boundary
62
5
39
2
10
59.891207
20
19.355067
11
60.383946
21
19.555007
0
LINE
8
boundary
62
5
39
2
10
60.383946
20
19.555007
11
60.923896
21
19.583536
0
LINE
8
boundary
62
5
39
2
10
60.923896
20
19.583536
11
61.430539
21
19.444457
0
LINE
8
boundary
62
5
39
2
10
61.430539
20
19.444457
11
61.905953
21
19.082912
0
LINE
8
boundary
62
5
39
2
10
61.905953
20
19.082912
11
62.200102
21
18.629397
0
LINE
8
boundary
62
5
39
2
10
62.200102
20
18.629397
11
62.328032
21
18.113204
0
LINE
8
boundary
62
5
39
2
10
62.328032
20
18.113204
11
62.270659
21
17.578335
0
LINE
8
boundary
62
5
39
2
10
62.270659
20
17.578335
11
62.024238
21
16.998858
0
LINE
8
boundary
62
5
39
2
10
62.024238
20
16.998858
11
62.228378
21
16.490321
0
LINE
8
boundary
62
5
39
2
10
62.228378
20
16.490321
11
62.731441
21
16.238119
0
LINE
8
boundary
62
5
39
2
10
62.731441
20
16.238119
11
63.205610
21
16.015767
0
LINE
8
boundary
62
5
39
2
10
63.205610
20
16.015767
11
63.738971
21
16.138723
0
LINE
8
boundary
62
5
39
2
10
63.738971
20
16.138723
11
64.062946
21
16.723488
0
LINE
8
boundary
62
5
39
2
10
64.062946
20
16.723488
11
64.442389
21
17.104999
0
LINE
8
boundary
62
5
39
2
10
64.442389
20
17.104999
11
64.924024
21
17.330464
0
LINE
8
boundary
62
5
39
2
10
64.924024
20
17.330464
11
65.461692
21
17.387116
0
LINE
8
boundary
62
5
39
2
10
65.461692
20
17.387116
11
65.974903
21
17.274831
0
LINE
8
boundary
62
5
39
2
10
65.974903
20
17.274831
11
66.442414
21
16.962497
0
LINE
8
boundary
62
5
39
2
10
66.442414
20
16.962497
11
66.786144
21
16.501032
0
LINE
8
boundary
62
5
39
2
10
66.786144
20
16.501032
11
66.940844
21
15.992319
0
LINE
8
boundary
62
5
39
2
10
66.940844
20
15.992319
11
66.911485
21
15.455172
0
LINE
8
boundary
62
5
39
2
10
66.911485
20
15.455172
11
66.695876
21
14.863657
0
LINE
8
boundary
62
5
39
2
10
66.695876
20
14.863657
11
66.926239
21
14.366409
0
LINE
8
boundary
62
5
39
2
10
66.926239
20
14.366409
11
67.441779
21
14.140887
0
LINE
8
boundary
62
5
39
2
10
67.441779
20
14.140887
11
67.926948
21
13.943643
0
LINE
8
boundary
62
5
39
2
10
67.926948
20
13.943643
11
68.480388
21
14.124488
0
LINE
8
boundary
62
5
39
2
10
68.480388
20
14.124488
11
68.746109
21
14.695256
0
LINE
8
boundary
62
5
39
2
10
68.746109
20
14.695256
11
69.105101
21
15.096067
0
LINE
8
boundary
62
5
39
2
10
69.105101
20
15.096067
11
69.574189
21
15.346428
0
LINE
8
boundary
62
5
39
2
10
69.574189
20
15.346428
11
70.108222
21
15.431203
0
LINE
8
boundary
62
5
39
2
10
70.108222
20
15.431203
11
70.626635
21
15.345922
0
LINE
8
boundary
62
5
39
2
10
70.626635
20
15.345922
11
71.109819
21
15.058504
0
LINE
8
boundary
62
5
39
2
10
71.109819
20
15.058504
11
71.477186
21
14.615671
0
LINE
8
boundary
62
5
39
2
10
71.477186
20
14.615671
11
71.658343
21
14.115774
0
LINE
8
boundary
62
5
39
2
10
71.658343
20
14.115774
11
71.657204
21
13.577798
0
LINE
8
boundary
62
5
39
2
10
71.657204
20
13.577798
11
71.472725
21
12.975800
0
LINE
8
boundary
62
5
39
2
10
71.472725
20
12.975800
11
71.728845
21
12.491328
0
LINE
8
boundary
62
5
39
2
10
71.728845
20
12.491328
11
72.255569
21
12.293083
0
LINE
8
boundary
62
5
39
2
10
72.255569
20
12.293083
11
72.750385
21
12.121467
0
LINE
8
boundary
62
5
39
2
10
72.750385
20
12.121467
11
73.293551
21
12.331059
0
LINE
8
boundary
62
5
39
2
10
73.293551
20
12.331059
11
73.529077
21
12.914896
0
LINE
8
boundary
62
5
39
2
10
73.529077
20
12.914896
11
73.866596
21
13.334069
0
LINE
8
boundary
62
5
39
2
10
73.866596
20
13.334069
11
74.321882
21
13.608616
0
LINE
8
boundary
62
5
39
2
10
74.321882
20
13.608616
11
74.850832
21
13.721188
0
LINE
8
boundary
62
5
39
2
10
74.850832
20
13.721188
11
75.372888
21
13.663127
0
LINE
8
boundary
62
5
39
2
10
75.372888
20
13.663127
11
75.870479
21
13.401397
0
LINE
8
boundary
62
5
39
2
10
75.870479
20
13.401397
11
76.260572
21
12.978398
0
LINE
8
boundary
62
5
39
2
10
76.260572
20
12.978398
11
76.467567
21
12.488663
0
LINE
8
boundary
62
5
39
2
10
76.467567
20
12.488663
11
76.494648
21
11.951311
0
LINE
8
boundary
62
5
39
2
10
76.494648
20
11.951311
11
76.341917
21
11.340495
0
LINE
8
boundary
62
5
39
2
10
76.341917
20
11.340495
11
76.623069
21
10.870162
0
LINE
8
boundary
62
5
39
2
10
76.623069
20
10.870162
11
77.159312
21
10.699691
0
LINE
8
boundary
62
5
39
2
10
77.159312
20
10.699691
11
77.662534
21
10.554224
0
LINE
8
boundary
62
5
39
2
10
77.662534
20
10.554224
11
78.193972
21
10.791934
0
LINE
8
boundary
62
5
39
2
10
78.193972
20
10.791934
11
78.398581
21
11.387391
0
LINE
8
boundary
62
5
39
2
10
78.398581
20
11.387391
11
78.713690
21
11.823587
0
LINE
8
boundary
62
5
39
2
10
78.713690
20
11.823587
11
79.154034
21
12.121576
0
LINE
8
boundary
62
5
39
2
10
79.154034
20
12.121576
11
79.676343
21
12.261744
0
LINE
8
boundary
62
5
39
2
10
79.676343
20
12.261744
11
80.200774
21
12.231057
0
LINE
8
boundary
62
5
39
2
10
80.200774
20
12.231057
11
80.711346
21
11.995740
0
LINE
8
boundary
62
5
39
2
10
80.711346
20
11.995740
11
81.123022
21
11.593762
0
LINE
8
boundary
62
5
39
2
10
81.123022
20
11.593762
11
81.355436
21
11.115551
0
LINE
8
boundary
62
5
39
2
10
81.355436
20
11.115551
11
81.410530
21
10.580373
0
LINE
8
boundary
62
5
39
2
10
81.410530
20
10.580373
11
81.289966
21
9.962399
0
LINE
8
boundary
62
5
39
2
10
81.289966
20
9.962399
11
81.595399
21
9.507355
0
LINE
8
boundary
62
5
39
2
10
81.595399
20
9.507355
11
82.139836
21
9.365179
0
LINE
8
boundary
62
5
39
2
10
82.139836
20
9.365179
11
82.649904
21
9.246273
0
LINE
8
boundary
62
5
39
2
10
82.649904
20
9.246273
11
83.168167
21
9.511476
0
LINE
8
boundary
62
5
39
2
10
83.168167
20
9.511476
11
83.341337
21
10.116787
0
LINE
8
boundary
62
5
39
2
10
83.341337
20
10.116787
11
83.633204
21
10.568855
0
LINE
8
boundary
62
5
39
2
10
83.633204
20
10.568855
11
84.057465
21
10.889469
0
LINE
8
boundary
62
5
39
2
10
84.057465
20
10.889469
11
84.571682
21
11.056822
0
LINE
8
boundary
62
5
39
2
10
84.571682
20
11.056822
11
85.096962
21
11.053580
0
LINE
8
boundary
62
5
39
2
10
85.096962
20
11.053580
11
85.619162
21
10.845351
0
LINE
8
boundary
62
5
39
2
10
85.619162
20
10.845351
11
86.051252
21
10.465409
0
LINE
8
boundary
62
5
39
2
10
86.051252
20
10.465409
11
86.308465
21
10.000067
0
LINE
8
boundary
62
5
39
2
10
86.308465
20
10.000067
11
86.391469
21
9.468516
0
LINE
8
boundary
62
5
39
2
10
86.391469
20
9.468516
11
86.303485
21
8.845044
0
LINE
8
boundary
62
5
39
2
10
86.303485
20
8.845044
11
86.632190
21
8.406576
0
LINE
8
boundary
62
5
39
2
10
86.632190
20
8.406576
11
87.183340
21
8.293164
0
LINE
8
boundary
62
5
39
2
10
87.183340
20
8.293164
11
87.699011
21
8.201133
0
LINE
8
boundary
62
5
39
2
10
87.699011
20
8.201133
11
88.202644
21
8.493001
0
LINE
8
boundary
62
5
39
2
10
88.202644
20
8.493001
11
88.343960
21
9.106620
0
LINE
8
boundary
62
5
39
2
10
88.343960
20
9.106620
11
88.611756
21
9.573312
0
LINE
8
boundary
62
5
39
2
10
88.611756
20
9.573312
11
89.018587
21
9.915703
0
LINE
8
boundary
62
5
39
2
10
89.018587
20
9.915703
11
89.523258
21
10.109732
0
LINE
8
boundary
62
5
39
2
10
89.523258
20
10.109732
11
90.048091
21
10.134042
0
LINE
8
boundary
62
5
39
2
10
90.048091
20
10.134042
11
90.580444
21
9.953397
0
LINE
8
boundary
62
5
39
2
10
90.580444
20
9.953397
11
91.031879
21
9.596555
0
LINE
8
boundary
62
5
39
2
10
91.031879
20
9.596555
11
91.312956
21
9.145316
0
LINE
8
boundary
62
5
39
2
10
91.312956
20
9.145316
11
91.423664
21
8.618750
0
LINE
8
boundary
62
5
39
2
10
91.423664
20
8.618750
11
91.368467
21
7.991650
0
LINE
8
boundary
62
5
39
2
10
91.368467
20
7.991650
11
91.719695
21
7.571027
0
LINE
8
boundary
62
5
39
2
10
91.719695
20
7.571027
11
92.276128
21
7.486564
0
LINE
8
boundary
62
5
39
2
10
92.276128
20
7.486564
11
92.795845
21
7.421609
0
LINE
8
boundary
62
5
39
2
10
92.795845
20
7.421609
11
93.283500
21
7.739516
0
LINE
8
boundary
62
5
39
2
10
93.283500
20
7.739516
11
93.392445
21
8.359572
0
LINE
8
boundary
62
5
39
2
10
93.392445
20
8.359572
11
93.635443
21
8.839751
0
LINE
8
boundary
62
5
39
2
10
93.635443
20
8.839751
11
94.023803
21
9.203004
0
LINE
8
boundary
62
5
39
2
10
94.023803
20
9.203004
11
94.517686
21
9.423073
0
LINE
8
boundary
62
5
39
2
10
94.517686
20
9.423073
11
95.040513
21
9.474800
0
LINE
8
boundary
62
5
39
2
10
95.040513
20
9.474800
11
95.581591
21
9.322251
0
LINE
8
boundary
62
5
39
2
10
95.581591
20
9.322251
11
96.025930
21
9.013155
0
LINE
8
boundary
62
5
39
2
10
96.025930
20
9.013155
11
96.355453
21
8.553589
0
LINE
8
boundary
62
5
39
2
10
96.355453
20
8.553589
11
96.493574
21
8.033666
0
LINE
8
boundary
62
5
39
2
10
96.493574
20
8.033666
11
96.471234
21
7.404489
0
LINE
8
boundary
62
5
39
2
10
96.471234
20
7.404489
11
96.844020
21
7.002754
0
LINE
8
boundary
62
5
39
2
10
96.844020
20
7.002754
11
97.404038
21
6.947546
0
LINE
8
boundary
62
5
39
2
10
97.404038
20
6.947546
11
97.926431
21
6.909879
0
LINE
8
boundary
62
5
39
2
10
97.926431
20
6.909879
11
98.396822
21
7.252899
0
LINE
8
boundary
62
5
39
2
10
98.396822
20
7.252899
11
98.473187
21
7.877825
0
LINE
8
boundary
62
5
39
2
10
98.473187
20
7.877825
11
98.690744
21
8.370049
0
LINE
8
boundary
62
5
39
2
10
98.690744
20
8.370049
11
99.059547
21
8.753111
0
LINE
8
boundary
62
5
39
2
10
99.059547
20
8.753111
11
99.541247
21
8.998705
0
LINE
8
boundary
62
5
39
2
10
99.541247
20
8.998705
11
100.060609
21
9.077774
0
LINE
8
boundary
62
5
39
2
10
100.060609
20
9.077774
11
100.608935
21
8.953742
0
LINE
8
boundary
62
5
39
2
10
100.608935
20
8.953742
11
101.068839
21
8.668364
0
LINE
8
boundary
62
5
39
2
10
101.068839
20
8.668364
11
101.421960
21
8.226653
0
LINE
8
boundary
62
5
39
2
10
101.421960
20
8.226653
11
101.587109
21
7.714717
0
LINE
8
boundary
62
5
39
2
10
101.587109
20
7.714717
11
101.597734
21
7.085123
0
LINE
8
boundary
62
5
39
2
10
101.597734
20
7.085123
11
101.991031
21
6.703572
0
LINE
8
boundary
62
5
39
2
10
101.991031
20
6.703572
11
102.553165
21
6.677777
0
LINE
8
boundary
62
5
39
2
10
102.553165
20
6.677777
11
103.076815
21
6.667500
0
LINE
8
boundary
62
5
39
2
10
103.076815
20
6.667500
11
103.528602
21
7.034599
0
LINE
8
boundary
62
5
39
2
10
103.528602
20
7.034599
11
103.572170
21
7.662740
0
LINE
8
boundary
62
5
39
2
10
103.572170
20
7.662740
11
103.763663
21
8.165543
0
LINE
8
boundary
62
5
39
2
10
103.763663
20
8.165543
11
104.111904
21
8.567390
0
LINE
8
boundary
62
5
39
2
10
104.111904
20
8.567390
11
104.580099
21
8.837989
0
LINE
8
boundary
62
5
39
2
10
104.580099
20
8.837989
11
105.094610
21
8.944063
0
LINE
8
boundary
62
5
39
2
10
105.094610
20
8.944063
11
105.648669
21
8.848959
0
LINE
8
boundary
62
5
39
2
10
105.648669
20
8.848959
11
106.122880
21
8.587993
0
LINE
8
boundary
62
5
39
2
10
106.122880
20
8.587993
11
106.498634
21
8.165338
0
LINE
8
boundary
62
5
39
2
10
106.498634
20
8.165338
11
106.690345
21
7.662740
0
LINE
8
boundary
62
5
39
2
10
106.690345
20
7.662740
11
106.733913
21
7.034599
0
LINE
8
boundary
62
5
39
2
10
106.733913
20
7.034599
11
107.146639
21
6.674127
0
LINE
8
boundary
62
5
39
2
10
107.146639
20
6.674127
11
107.709349
21
6.677777
0
LINE
8
boundary
62
5
39
2
10
107.709349
20
6.677777
11
108.232822
21
6.694897
0
LINE
8
boundary
62
5
39
2
10
108.232822
20
6.694897
11
108.664781
21
7.085122
0
LINE
8
boundary
62
5
39
2
10
108.664781
20
7.085122
11
108.675406
21
7.714717
0
LINE
8
boundary
62
5
39
2
10
108.675406
20
7.714717
11
108.840327
21
8.226865
0
LINE
8
boundary
62
5
39
2
10
108.840327
20
8.226865
11
109.167056
21
8.646455
0
LINE
8
boundary
62
5
39
2
10
109.167056
20
8.646455
11
109.620452
21
8.941017
0
LINE
8
boundary
62
5
39
2
10
109.620452
20
8.941017
11
110.128708
21
9.074000
0
LINE
8
boundary
62
5
39
2
10
110.128708
20
9.074000
11
110.686990
21
9.007920
0
LINE
8
boundary
62
5
39
2
10
110.686990
20
9.007920
11
111.174203
21
8.772149
0
LINE
8
boundary
62
5
39
2
10
111.174203
20
8.772149
11
111.571564
21
8.369837
0
LINE
8
boundary
62
5
39
2
10
111.571564
20
8.369837
11
111.789327
21
7.877825
0
LINE
8
boundary
62
5
39
2
10
111.789327
20
7.877825
11
111.865693
21
7.252899
0
LINE
8
boundary
62
5
39
2
10
111.865693
20
7.252899
11
112.296727
21
6.914482
0
LINE
8
boundary
62
5
39
2
10
112.296727
20
6.914482
11
112.858477
21
6.947546
0
LINE
8
boundary
62
5
39
2
10
112.858477
20
6.947546
11
113.380341
21
6.992056
0
LINE
8
boundary
62
5
39
2
10
113.380341
20
6.992056
11
113.791280
21
7.404489
0
LINE
8
boundary
62
5
39
2
10
113.791280
20
7.404489
11
113.768941
21
8.033665
0
LINE
8
boundary
62
5
39
2
10
113.768941
20
8.033665
11
113.906823
21
8.553795
0
LINE
8
boundary
62
5
39
2
10
113.906823
20
8.553795
11
114.211151
21
8.989887
0
LINE
8
boundary
62
5
39
2
10
114.211151
20
8.989887
11
114.648506
21
9.307794
0
LINE
8
boundary
62
5
39
2
10
114.648506
20
9.307794
11
115.149108
21
9.467188
0
LINE
8
boundary
62
5
39
2
10
115.149108
20
9.467188
11
115.710054
21
9.430447
0
LINE
8
boundary
62
5
39
2
10
115.710054
20
9.430447
11
116.208966
21
9.220497
0
LINE
8
boundary
62
5
39
2
10
116.208966
20
9.220497
11
116.626864
21
8.839545
0
LINE
8
boundary
62
5
39
2
10
116.626864
20
8.839545
11
116.870070
21
8.359572
0
LINE
8
boundary
62
5
39
2
10
116.870070
20
8.359572
11
116.979015
21
7.739516
0
LINE
8
boundary
62
5
39
2
10
116.979015
20
7.739516
11
117.427127
21
7.424137
0
LINE
8
boundary
62
5
39
2
10
117.427127
20
7.424137
11
117.986387
21
7.486563
0
LINE
8
boundary
62
5
39
2
10
117.986387
20
7.486563
11
118.505273
21
7.558362
0
LINE
8
boundary
62
5
39
2
10
118.505273
20
7.558362
11
118.894048
21
7.991650
0
LINE
8
boundary
62
5
39
2
10
118.894048
20
7.991650
11
118.838851
21
8.618750
0
LINE
8
boundary
62
5
39
2
10
118.838851
20
8.618750
11
118.949249
21
9.145419
0
LINE
8
boundary
62
5
39
2
10
118.949249
20
9.145419
11
119.230324
21
9.596863
0
LINE
8
boundary
62
5
39
2
10
119.230324
20
9.596863
11
119.650435
21
9.937292
0
LINE
8
boundary
62
5
39
2
10
119.650435
20
9.937292
11
120.142061
21
10.122596
0
LINE
8
boundary
62
5
39
2
10
120.142061
20
10.122596
11
120.704211
21
10.115274
0
LINE
8
boundary
62
5
39
2
10
120.704211
20
10.115274
11
121.213409
21
9.931730
0
LINE
8
boundary
62
5
39
2
10
121.213409
20
9.931730
11
121.650654
21
9.573106
0
LINE
8
boundary
62
5
39
2
10
121.650654
20
9.573106
11
121.918555
21
9.106620
0
LINE
8
boundary
62
5
39
2
10
121.918555
20
9.106620
11
122.059871
21
8.493001
0
LINE
8
boundary
62
5
39
2
10
122.059871
20
8.493001
11
122.523882
21
8.201559
0
LINE
8
boundary
62
5
39
2
10
122.523882
20
8.201559
11
123.079175
21
8.293164
0
LINE
8
boundary
62
5
39
2
10
123.079175
20
8.293164
11
123.593496
21
8.391941
0
LINE
8
boundary
62
5
39
2
10
123.593496
20
8.391941
11
123.959030
21
8.845044
0
LINE
8
boundary
62
5
39
2
10
123.959030
20
8.845044
11
123.871046
21
9.468516
0
LINE
8
boundary
62
5
39
2
10
123.871046
20
9.468516
11
123.953843
21
10.000170
0
LINE
8
boundary
62
5
39
2
10
123.953843
20
10.000170
11
124.210952
21
10.465621
0
LINE
8
boundary
62
5
39
2
10
124.210952
20
10.465621
11
124.612697
21
10.827627
0
LINE
8
boundary
62
5
39
2
10
124.612697
20
10.827627
11
125.093830
21
11.038357
0
LINE
8
boundary
62
5
39
2
10
125.093830
20
11.038357
11
125.655547
21
11.060451
0
LINE
8
boundary
62
5
39
2
10
125.655547
20
11.060451
11
126.173705
21
10.903861
0
LINE
8
boundary
62
5
39
2
10
126.173705
20
10.903861
11
126.604647
21
10.592570
0
LINE
8
boundary
62
5
39
2
10
126.604647
20
10.592570
11
126.921178
21
10.116787
0
LINE
8
boundary
62
5
39
2
10
126.921178
20
10.116787
11
127.094347
21
9.511476
0
LINE
8
boundary
62
5
39
2
10
127.094347
20
9.511476
11
127.573016
21
9.244649
0
LINE
8
boundary
62
5
39
2
10
127.573016
20
9.244649
11
128.122679
21
9.365180
0
LINE
8
boundary
62
5
39
2
10
128.122679
20
9.365180
11
128.631086
21
9.490832
0
LINE
8
boundary
62
5
39
2
10
128.631086
20
9.490832
11
128.972548
21
9.962399
0
LINE
8
boundary
62
5
39
2
10
128.972548
20
9.962399
11
128.851984
21
10.580373
0
LINE
8
boundary
62
5
39
2
10
128.851984
20
10.580373
11
128.906871
21
11.115654
0
LINE
8
boundary
62
5
39
2
10
128.906871
20
11.115654
11
129.139182
21
11.593968
0
LINE
8
boundary
62
5
39
2
10
129.139182
20
11.593968
11
129.521420
21
11.976424
0
LINE
8
boundary
62
5
39
2
10
129.521420
20
11.976424
11
129.990896
21
12.212084
0
LINE
8
boundary
62
5
39
2
10
129.990896
20
12.212084
11
130.550727
21
12.263615
0
LINE
8
boundary
62
5
39
2
10
130.550727
20
12.263615
11
131.076343
21
12.134248
0
LINE
8
boundary
62
5
39
2
10
131.076343
20
12.134248
11
131.522964
21
11.845890
0
LINE
8
boundary
62
5
39
2
10
131.522964
20
11.845890
11
131.863934
21
11.387391
0
LINE
8
boundary
62
5
39
2
10
131.863934
20
11.387391
11
132.068542
21
10.791934
0
LINE
8
boundary
62
5
39
2
10
132.068542
20
10.791934
11
132.560545
21
10.550524
0
LINE
8
boundary
62
5
39
2
10
132.560545
20
10.550524
11
133.103203
21
10.699691
0
LINE
8
boundary
62
5
39
2
10
133.103203
20
10.699691
11
133.604347
21
10.851801
0
LINE
8
boundary
62
5
39
2
10
133.604347
20
10.851801
11
133.920597
21
11.340495
0
LINE
8
boundary
62
5
39
2
10
133.920597
20
11.340495
11
133.767866
21
11.951310
0
LINE
8
boundary
62
5
39
2
10
133.767866
20
11.951310
11
133.794636
21
12.488765
0
LINE
8
boundary
62
5
39
2
10
133.794636
20
12.488765
11
134.001630
21
12.978604
0
LINE
8
boundary
62
5
39
2
10
134.001630
20
12.978604
11
134.363327
21
13.380553
0
LINE
8
boundary
62
5
39
2
10
134.363327
20
13.380553
11
134.819874
21
13.640450
0
LINE
8
boundary
62
5
39
2
10
134.819874
20
13.640450
11
135.376184
21
13.721195
0
LINE
8
boundary
62
5
39
2
10
135.376184
20
13.721195
11
135.907856
21
13.619588
0
LINE
8
boundary
62
5
39
2
10
135.907856
20
13.619588
11
136.368992
21
13.354996
0
LINE
8
boundary
62
5
39
2
10
136.368992
20
13.354996
11
136.733438
21
12.914896
0
LINE
8
boundary
62
5
39
2
10
136.733438
20
12.914896
11
136.968964
21
12.331059
0
LINE
8
boundary
62
5
39
2
10
136.968964
20
12.331059
11
137.472933
21
12.115719
0
LINE
8
boundary
62
5
39
2
10
137.472933
20
12.115719
11
138.006946
21
12.293083
0
LINE
8
boundary
62
5
39
2
10
138.006946
20
12.293083
11
138.499581
21
12.471131
0
LINE
8
boundary
62
5
39
2
10
138.499581
20
12.471131
11
138.789789
21
12.975800
0
LINE
8
boundary
62
5
39
2
10
138.789789
20
12.975800
11
138.605310
21
13.577798
0
LINE
8
boundary
62
5
39
2
10
138.605310
20
13.577798
11
138.603857
21
14.115877
0
LINE
8
boundary
62
5
39
2
10
138.603857
20
14.115877
11
138.785014
21
14.615883
0
LINE
8
boundary
62
5
39
2
10
138.785014
20
14.615883
11
139.125131
21
15.036199
0
LINE
8
boundary
62
5
39
2
10
139.125131
20
15.036199
11
139.567431
21
15.319655
0
LINE
8
boundary
62
5
39
2
10
139.567431
20
15.319655
11
140.118821
21
15.429373
0
LINE
8
boundary
62
5
39
2
10
140.118821
20
15.429373
11
140.655017
21
15.355700
0
LINE
8
boundary
62
5
39
2
10
140.655017
20
15.355700
11
141.129418
21
15.115658
0
LINE
8
boundary
62
5
39
2
10
141.129418
20
15.115658
11
141.516406
21
14.695256
0
LINE
8
boundary
62
5
39
2
10
141.516406
20
14.695256
11
141.782127
21
14.124488
0
LINE
8
boundary
62
5
39
2
10
141.782127
20
14.124488
11
142.296716
21
13.935846
0
LINE
8
boundary
62
5
39
2
10
142.296716
20
13.935846
11
142.820736
21
14.140887
0
LINE
8
boundary
62
5
39
2
10
142.820736
20
14.140887
11
143.303307
21
14.344454
0
LINE
8
boundary
62
5
39
2
10
143.303307
20
14.344454
11
143.566638
21
14.863657
0
LINE
8
boundary
62
5
39
2
10
143.566638
20
14.863657
11
143.351030
21
15.455172
0
LINE
8
boundary
62
5
39
2
10
143.351030
20
15.455172
11
143.321359
21
15.992421
0
LINE
8
boundary
62
5
39
2
10
143.321359
20
15.992421
11
143.476061
21
16.501245
0
LINE
8
boundary
62
5
39
2
10
143.476061
20
16.501245
11
143.793762
21
16.938785
0
LINE
8
boundary
62
5
39
2
10
143.793762
20
16.938785
11
144.220626
21
17.245000
0
LINE
8
boundary
62
5
39
2
10
144.220626
20
17.245000
11
144.765484
21
17.383425
0
LINE
8
boundary
62
5
39
2
10
144.765484
20
17.383425
11
145.304805
21
17.337873
0
LINE
8
boundary
62
5
39
2
10
145.304805
20
17.337873
11
145.791124
21
17.123025
0
LINE
8
boundary
62
5
39
2
10
145.791124
20
17.123025
11
146.199569
21
16.723487
0
LINE
8
boundary
62
5
39
2
10
146.199569
20
16.723487
11
146.494857
21
16.167356
0
LINE
8
boundary
62
5
39
2
10
146.494857
20
16.167356
11
147.018534
21
16.005920
0
LINE
8
boundary
62
5
39
2
10
147.018534
20
16.005920
11
147.531074
21
16.238119
0
LINE
8
boundary
62
5
39
2
10
147.531074
20
16.238119
11
148.002338
21
16.466690
0
LINE
8
boundary
62
5
39
2
10
148.002338
20
16.466690
11
148.238277
21
16.998859
0
LINE
8
boundary
62
5
39
2
10
148.238277
20
16.998859
11
147.991856
21
17.578335
0
LINE
8
boundary
62
5
39
2
10
147.991856
20
17.578335
11
147.934168
21
18.113307
0
LINE
8
boundary
62
5
39
2
10
147.934168
20
18.113307
11
148.062100
21
18.629494
0
LINE
8
boundary
62
5
39
2
10
148.062100
20
18.629494
11
148.356456
21
19.083015
0
LINE
8
boundary
62
5
39
2
10
148.356456
20
19.083015
11
148.766639
21
19.411213
0
LINE
8
boundary
62
5
39
2
10
148.766639
20
19.411213
11
149.303520
21
19.577981
0
LINE
8
boundary
62
5
39
2
10
149.303520
20
19.577981
11
149.844506
21
19.560734
0
LINE
8
boundary
62
5
39
2
10
149.844506
20
19.560734
11
150.341401
21
19.371548
0
LINE
8
boundary
62
5
39
2
10
150.341401
20
19.371548
11
150.770250
21
18.993995
0
LINE
8
boundary
62
5
39
2
10
150.770250
20
18.993995
11
151.094180
21
18.454044
0
LINE
8
boundary
62
5
39
2
10
151.094180
20
18.454044
11
151.625575
21
18.320212
0
LINE
8
boundary
62
5
39
2
10
151.625575
20
18.320212
11
152.125309
21
18.578964
0
LINE
8
boundary
62
5
39
2
10
152.125309
20
18.578964
11
152.583915
21
18.831928
0
LINE
8
boundary
62
5
39
2
10
152.583915
20
18.831928
11
152.791636
21
19.375712
0
LINE
8
boundary
62
5
39
2
10
152.791636
20
19.375712
11
152.515332
21
19.941502
0
LINE
8
boundary
62
5
39
2
10
152.515332
20
19.941502
11
152.429733
21
20.472732
0
LINE
8
boundary
62
5
39
2
10
152.429733
20
20.472732
11
152.530375
21
20.994836
0
LINE
8
boundary
62
5
39
2
10
152.530375
20
20.994836
11
152.800562
21
21.463194
0
LINE
8
boundary
62
5
39
2
10
152.800562
20
21.463194
11
153.193105
21
21.812356
0
LINE
8
boundary
62
5
39
2
10
153.193105
20
21.812356
11
153.720550
21
22.006980
0
LINE
8
boundary
62
5
39
2
10
153.720550
20
22.006980
11
154.261680
21
22.018111
0
LINE
8
boundary
62
5
39
2
10
154.261680
20
22.018111
11
154.767738
21
21.855236
0
LINE
8
boundary
62
5
39
2
10
154.767738
20
21.855236
11
155.215700
21
21.500546
0
LINE
8
boundary
62
5
39
2
10
155.215700
20
21.500546
11
155.567538
21
20.978339
0
LINE
8
boundary
62
5
39
2
10
155.567538
20
20.978339
11
156.105204
21
20.872521
0
LINE
8
boundary
62
5
39
2
10
156.105204
20
20.872521
11
156.590683
21
21.157011
0
LINE
8
boundary
62
5
39
2
10
156.590683
20
21.157011
11
157.035490
21
21.433623
0
LINE
8
boundary
62
5
39
2
10
157.035490
20
21.433623
11
157.214464
21
21.987580
0
LINE
8
boundary
62
5
39
2
10
157.214464
20
21.987580
11
156.908905
21
22.538116
0
LINE
8
boundary
62
5
39
2
10
156.908905
20
22.538116
11
156.795606
21
23.064156
0
LINE
8
boundary
62
5
39
2
10
156.795606
20
23.064156
11
156.868749
21
23.590825
0
LINE
8
boundary
62
5
39
2
10
156.868749
20
23.590825
11
157.114137
21
24.072669
0
LINE
8
boundary
62
5
39
2
10
157.114137
20
24.072669
11
157.487800
21
24.441952
0
LINE
8
boundary
62
5
39
2
10
157.487800
20
24.441952
11
158.004358
21
24.663905
0
LINE
8
boundary
62
5
39
2
10
158.004358
20
24.663905
11
158.544150
21
24.703286
0
LINE
8
boundary
62
5
39
2
10
158.544150
20
24.703286
11
159.058053
21
24.567154
0
LINE
8
boundary
62
5
39
2
10
159.058053
20
24.567154
11
159.498628
21
24.260745
0
LINE
8
boundary
62
5
39
2
10
159.498628
20
24.260745
11
159.902593
21
23.733392
0
LINE
8
boundary
62
5
39
2
10
159.902593
20
23.733392
11
160.445076
21
23.655744
0
LINE
8
boundary
62
5
39
2
10
160.445076
20
23.655744
11
160.915050
21
23.965282
0
LINE
8
boundary
62
5
39
2
10
160.915050
20
23.965282
11
161.344705
21
24.264833
0
LINE
8
boundary
62
5
39
2
10
161.344705
20
24.264833
11
161.494423
21
24.827396
0
LINE
8
boundary
62
5
39
2
10
161.494423
20
24.827396
11
161.160535
21
25.361115
0
LINE
8
boundary
62
5
39
2
10
161.160535
20
25.361115
11
161.019846
21
25.880523
0
LINE
8
boundary
62
5
39
2
10
161.019846
20
25.880523
11
161.065391
21
26.410311
0
LINE
8
boundary
62
5
39
2
10
161.065391
20
26.410311
11
161.285152
21
26.904395
0
LINE
8
boundary
62
5
39
2
10
161.285152
20
26.904395
11
161.639053
21
27.292626
0
LINE
8
boundary
62
5
39
2
10
161.639053
20
27.292626
11
162.143194
21
27.541293
0
LINE
8
boundary
62
5
39
2
10
162.143194
20
27.541293
11
162.680223
21
27.608943
0
LINE
8
boundary
62
5
39
2
10
162.680223
20
27.608943
11
163.200492
21
27.499844
0
LINE
8
boundary
62
5
39
2
10
163.200492
20
27.499844
11
163.656561
21
27.216945
0
LINE
8
boundary
62
5
39
2
10
163.656561
20
27.216945
11
164.087615
21
26.711413
0
LINE
8
boundary
62
5
39
2
10
164.087615
20
26.711413
11
164.633362
21
26.662381
0
LINE
8
boundary
62
5
39
2
10
164.633362
20
26.662381
11
165.086482
21
26.996013
0
LINE
8
boundary
62
5
39
2
10
165.086482
20
26.996013
11
165.499950
21
27.317580
0
LINE
8
boundary
62
5
39
2
10
165.499950
20
27.317580
11
165.619995
21
27.887280
0
LINE
8
boundary
62
5
39
2
10
165.619995
20
27.887280
11
165.258613
21
28.402747
0
LINE
8
boundary
62
5
39
2
10
165.258613
20
28.402747
11
165.090939
21
28.914156
0
LINE
8
boundary
62
5
39
2
10
165.090939
20
28.914156
11
165.108683
21
29.445603
0
LINE
8
boundary
62
5
39
2
10
165.108683
20
29.445603
11
165.302294
21
29.950478
0
LINE
8
boundary
62
5
39
2
10
165.302294
20
29.950478
11
165.635375
21
30.356751
0
LINE
8
boundary
62
5
39
2
10
165.635375
20
30.356751
11
166.125803
21
30.631459
0
LINE
8
boundary
62
5
39
2
10
166.125803
20
30.631459
11
166.658585
21
30.727096
0
LINE
8
boundary
62
5
39
2
10
166.658585
20
30.727096
11
167.183849
21
30.645393
0
LINE
8
boundary
62
5
39
2
10
167.183849
20
30.645393
11
167.654068
21
30.386676
0
LINE
8
boundary
62
5
39
2
10
167.654068
20
30.386676
11
168.110989
21
29.904417
0
LINE
8
boundary
62
5
39
2
10
168.110989
20
29.904417
11
168.658625
21
29.883954
0
LINE
8
boundary
62
5
39
2
10
168.658625
20
29.883954
11
169.093663
21
30.241001
0
LINE
8
boundary
62
5
39
2
10
169.093663
20
30.241001
11
169.489599
21
30.583706
0
LINE
8
boundary
62
5
39
2
10
169.489599
20
30.583706
11
169.579764
21
31.158835
0
LINE
8
boundary
62
5
39
2
10
169.579764
20
31.158835
11
169.191815
21
31.654789
0
LINE
8
boundary
62
5
39
2
10
169.191815
20
31.654789
11
168.997690
21
32.156660
0
LINE
8
boundary
62
5
39
2
10
168.997690
20
32.156660
11
168.987522
21
32.688308
0
LINE
8
boundary
62
5
39
2
10
168.987522
20
32.688308
11
169.154463
21
33.202630
0
LINE
8
boundary
62
5
39
2
10
169.154463
20
33.202630
11
169.491361
21
33.652311
0
LINE
8
boundary
62
5
39
2
10
169.491361
20
33.652311
11
169.941209
21
33.925761
0
LINE
8
boundary
62
5
39
2
10
169.941209
20
33.925761
11
170.468223
21
34.049133
0
LINE
8
boundary
62
5
39
2
10
170.468223
20
34.049133
11
170.997125
21
33.995023
0
LINE
8
boundary
62
5
39
2
10
170.997125
20
33.995023
11
171.480245
21
33.761320
0
LINE
8
boundary
62
5
39
2
10
171.480245
20
33.761320
11
171.961699
21
33.303586
0
LINE
8
boundary
62
5
39
2
10
171.961699
20
33.303586
11
172.509679
21
33.311842
0
LINE
8
boundary
62
5
39
2
10
172.509679
20
33.311842
11
172.925393
21
33.691117
0
LINE
8
boundary
62
5
39
2
10
172.925393
20
33.691117
11
173.302962
21
34.054158
0
LINE
8
boundary
62
5
39
2
10
173.302962
20
34.054158
11
173.362830
21
34.633223
0
LINE
8
boundary
62
5
39
2
10
173.362830
20
34.633223
11
172.949465
21
35.108121
0
LINE
8
boundary
62
5
39
2
10
172.949465
20
35.108121
11
172.729293
21
35.599092
0
LINE
8
boundary
62
5
39
2
10
172.729293
20
35.599092
11
172.691420
21
36.129498
0
LINE
8
boundary
62
5
39
2
10
172.691420
20
36.129498
11
172.831182
21
36.651910
0
LINE
8
boundary
62
5
39
2
10
172.831182
20
36.651910
11
173.144112
21
37.118609
0
LINE
8
boundary
62
5
39
2
10
173.144112
20
37.118609
11
173.578987
21
37.415213
0
LINE
8
boundary
62
5
39
2
10
173.578987
20
37.415213
11
174.098850
21
37.566043
0
LINE
8
boundary
62
5
39
2
10
174.098850
20
37.566043
11
174.629792
21
37.539666
0
LINE
8
boundary
62
5
39
2
10
174.629792
20
37.539666
11
175.124511
21
37.331571
0
LINE
8
boundary
62
5
39
2
10
175.124511
20
37.331571
11
175.629292
21
36.899685
0
LINE
8
boundary
62
5
39
2
10
175.629292
20
36.899685
11
176.176052
21
36.936613
0
LINE
8
boundary
62
5
39
2
10
176.176052
20
36.936613
11
176.571398
21
37.337122
0
LINE
8
boundary
62
5
39
2
10
176.571398
20
37.337122
11
176.929467
21
37.719360
0
LINE
8
boundary
62
5
39
2
10
176.929467
20
37.719360
11
176.958929
21
38.300816
0
LINE
8
boundary
62
5
39
2
10
176.958929
20
38.300816
11
176.521286
21
38.753399
0
LINE
8
boundary
62
5
39
2
10
176.521286
20
38.753399
11
176.275698
21
39.232234
0
LINE
8
boundary
62
5
39
2
10
176.275698
20
39.232234
11
176.210119
21
39.759939
0
LINE
8
boundary
62
5
39
2
10
176.210119
20
39.759939
11
176.322388
21
40.288891
0
LINE
8
boundary
62
5
39
2
10
176.322388
20
40.288891
11
176.610409
21
40.771360
0
LINE
8
boundary
62
5
39
2
10
176.610409
20
40.771360
11
177.029224
21
41.090282
0
LINE
8
boundary
62
5
39
2
10
177.029224
20
41.090282
11
177.540437
21
41.268088
0
LINE
8
boundary
62
5
39
2
10
177.540437
20
41.268088
11
178.072034
21
41.269595
0
LINE
8
boundary
62
5
39
2
10
178.072034
20
41.269595
11
178.576938
21
41.087649
0
LINE
8
boundary
62
5
39
2
10
178.576938
20
41.087649
11
179.103680
21
40.682751
0
LINE
8
boundary
62
5
39
2
10
179.103680
20
40.682751
11
179.647726
21
40.748302
0
LINE
8
boundary
62
5
39
2
10
179.647726
20
40.748302
11
180.021514
21
41.168852
0
LINE
8
boundary
62
5
39
2
10
180.021514
20
41.168852
11
180.359133
21
41.569349
0
LINE
8
boundary
62
5
39
2
10
180.359133
20
41.569349
11
180.358097
21
42.151526
0
LINE
8
boundary
62
5
39
2
10
180.358097
20
42.151526
11
179.897418
21
42.580667
0
LINE
8
boundary
62
5
39
2
10
179.897418
20
42.580667
11
179.627134
21
43.045912
0
LINE
8
boundary
62
5
39
2
10
179.627134
20
43.045912
11
179.533965
21
43.569469
0
LINE
8
boundary
62
5
39
2
10
179.533965
20
43.569469
11
179.618420
21
44.103605
0
LINE
8
boundary
62
5
39
2
10
179.618420
20
44.103605
11
179.880819
21
44.600499
0
LINE
8
boundary
62
5
39
2
10
179.880819
20
44.600499
11
180.282333
21
44.940959
0
LINE
8
boundary
62
5
39
2
10
180.282333
20
44.940959
11
180.783544
21
45.145247
0
LINE
8
boundary
62
5
39
2
10
180.783544
20
45.145247
11
181.314399
21
45.174480
0
LINE
8
boundary
62
5
39
2
10
181.314399
20
45.174480
11
181.828102
21
45.019229
0
LINE
8
boundary
62
5
39
2
10
181.828102
20
45.019229
11
182.375234
21
44.642520
0
LINE
8
boundary
62
5
39
2
10
182.375234
20
44.642520
11
182.915133
21
44.736381
0
LINE
8
boundary
62
5
39
2
10
182.915133
20
44.736381
11
183.266502
21
45.176033
0
LINE
8
boundary
62
5
39
2
10
183.266502
20
45.176033
11
183.582543
21
45.593655
0
LINE
8
boundary
62
5
39
2
10
183.582543
20
45.593655
11
183.551101
21
46.174900
0
LINE
8
boundary
62
5
39
2
10
183.551101
20
46.174900
11
183.068536
21
46.579344
0
LINE
8
boundary
62
5
39
2
10
183.068536
20
46.579344
11
182.774283
21
47.029856
0
LINE
8
boundary
62
5
39
2
10
182.774283
20
47.029856
11
182.653918
21
47.547805
0
LINE
8
boundary
62
5
39
2
10
182.653918
20
47.547805
11
182.710267
21
48.085575
0
LINE
8
boundary
62
5
39
2
10
182.710267
20
48.085575
11
182.946312
21
48.595543
0
LINE
8
boundary
62
5
39
2
10
182.946312
20
48.595543
11
183.329454
21
48.956481
0
LINE
8
boundary
62
5
39
2
10
183.329454
20
48.956481
11
183.819316
21
49.186777
0
LINE
8
boundary
62
5
39
2
10
183.819316
20
49.186777
11
184.347823
21
49.243797
0
LINE
8
boundary
62
5
39
2
10
184.347823
20
49.243797
11
184.868988
21
49.115629
0
LINE
8
boundary
62
5
39
2
10
184.868988
20
49.115629
11
185.435119
21
48.768092
0
LINE
8
boundary
62
5
39
2
10
185.435119
20
48.768092
11
185.969370
21
48.890109
0
LINE
8
boundary
62
5
39
2
10
185.969370
20
48.890109
11
186.297233
21
49.347465
0
LINE
8
boundary
62
5
39
2
10
186.297233
20
49.347465
11
186.591068
21
49.781063
0
LINE
8
boundary
62
5
39
2
10
186.591068
20
49.781063
11
186.529123
21
50.359922
0
LINE
8
boundary
62
5
39
2
10
186.529123
20
50.359922
11
186.026120
21
50.738526
0
LINE
8
boundary
62
5
39
2
10
186.026120
20
50.738526
11
185.708624
21
51.172959
0
LINE
8
boundary
62
5
39
2
10
185.708624
20
51.172959
11
185.561286
21
51.683956
0
LINE
8
boundary
62
5
39
2
10
185.561286
20
51.683956
11
185.589403
21
52.223907
0
LINE
8
boundary
62
5
39
2
10
185.589403
20
52.223907
11
185.798469
21
52.745598
0
LINE
8
boundary
62
5
39
2
10
185.798469
20
52.745598
11
186.162220
21
53.126082
0
LINE
8
boundary
62
5
39
2
10
186.162220
20
53.126082
11
186.639354
21
53.381640
0
LINE
8
boundary
62
5
39
2
10
186.639354
20
53.381640
11
187.164241
21
53.466255
0
LINE
8
boundary
62
5
39
2
10
187.164241
20
53.466255
11
187.691324
21
53.365532
0
LINE
8
boundary
62
5
39
2
10
187.691324
20
53.365532
11
188.274935
21
53.048051
0
LINE
8
boundary
62
5
39
2
10
188.274935
20
53.048051
11
188.828892
21
53.227025
0
LINE
8
boundary
62
5
39
2
10
188.828892
20
53.227025
11
189.105504
21
53.671832
0
LINE
8
boundary
62
5
39
2
10
189.105504
20
53.671832
11
189.376212
21
54.120163
0
LINE
8
boundary
62
5
39
2
10
189.376212
20
54.120163
11
189.284175
21
54.694977
0
LINE
8
boundary
62
5
39
2
10
189.284175
20
54.694977
11
188.761969
21
55.046815
0
LINE
8
boundary
62
5
39
2
10
188.761969
20
55.046815
11
188.422164
21
55.464019
0
LINE
8
boundary
62
5
39
2
10
188.422164
20
55.464019
11
188.248265
21
55.966511
0
LINE
8
boundary
62
5
39
2
10
188.248265
20
55.966511
11
188.248162
21
56.507293
0
LINE
8
boundary
62
5
39
2
10
188.248162
20
56.507293
11
188.429637
21
57.039150
0
LINE
8
boundary
62
5
39
2
10
188.429637
20
57.039150
11
188.772894
21
57.438171
0
LINE
8
boundary
62
5
39
2
10
188.772894
20
57.438171
11
189.236010
21
57.718414
0
LINE
8
boundary
62
5
39
2
10
189.236010
20
57.718414
11
189.755745
21
57.830315
0
LINE
8
boundary
62
5
39
2
10
189.755745
20
57.830315
11
190.287377
21
57.757374
0
LINE
8
boundary
62
5
39
2
10
190.287377
20
57.757374
11
190.886803
21
57.470879
0
LINE
8
boundary
62
5
39
2
10
190.886803
20
57.470879
11
191.430690
21
57.678600
0
LINE
8
boundary
62
5
39
2
10
191.430690
20
57.678600
11
191.683551
21
58.137205
0
LINE
8
boundary
62
5
39
2
10
191.683551
20
58.137205
11
191.930489
21
58.599126
0
LINE
8
boundary
62
5
39
2
10
191.930489
20
58.599126
11
191.808470
21
59.168335
0
LINE
8
boundary
62
5
39
2
10
191.808470
20
59.168335
11
191.268520
21
59.492264
0
LINE
8
boundary
62
5
39
2
10
191.268520
20
59.492264
11
190.907447
21
59.891207
0
LINE
8
boundary
62
5
39
2
10
190.907447
20
59.891207
11
190.707508
21
60.383946
0
LINE
8
boundary
62
5
39
2
10
190.707508
20
60.383946
11
190.678979
21
60.923896
0
LINE
8
boundary
62
5
39
2
10
190.678979
20
60.923896
11
190.832428
21
61.464573
0
LINE
8
boundary
62
5
39
2
10
190.832428
20
61.464573
11
191.154349
21
61.880992
0
LINE
8
boundary
62
5
39
2
10
191.154349
20
61.880992
11
191.602119
21
62.185042
0
LINE
8
boundary
62
5
39
2
10
191.602119
20
62.185042
11
192.115330
21
62.324095
0
LINE
8
boundary
62
5
39
2
10
192.115330
20
62.324095
11
192.650038
21
62.279040
0
LINE
8
boundary
62
5
39
2
10
192.650038
20
62.279040
11
193.263656
21
62.024238
0
LINE
8
boundary
62
5
39
2
10
193.263656
20
62.024238
11
193.795825
21
62.260176
0
LINE
8
boundary
62
5
39
2
10
193.795825
20
62.260176
11
194.024396
21
62.731441
0
LINE
8
boundary
62
5
39
2
10
194.024396
20
62.731441
11
194.246748
21
63.205610
0
LINE
8
boundary
62
5
39
2
10
194.246748
20
63.205610
11
194.095158
21
63.767657
0
LINE
8
boundary
62
5
39
2
10
194.095158
20
63.767657
11
193.539027
21
64.062946
0
LINE
8
boundary
62
5
39
2
10
193.539027
20
64.062946
11
193.157516
21
64.442389
0
LINE
8
boundary
62
5
39
2
10
193.157516
20
64.442389
11
192.932051
21
64.924025
0
LINE
8
boundary
62
5
39
2
10
192.932051
20
64.924025
11
192.875399
21
65.461692
0
LINE
8
boundary
62
5
39
2
10
192.875399
20
65.461692
11
193.000216
21
66.009630
0
LINE
8
boundary
62
5
39
2
10
193.000216
20
66.009630
11
193.323942
21
66.468653
0
LINE
8
boundary
62
5
39
2
10
193.323942
20
66.468653
11
193.761482
21
66.786145
0
LINE
8
boundary
62
5
39
2
10
193.761482
20
66.786145
11
194.270196
21
66.940844
0
LINE
8
boundary
62
5
39
2
10
194.270196
20
66.940844
11
194.807343
21
66.911485
0
LINE
8
boundary
62
5
39
2
10
194.807343
20
66.911485
11
195.398858
21
66.695876
0
LINE
8
boundary
62
5
39
2
10
195.398858
20
66.695876
11
195.918061
21
66.959311
0
LINE
8
boundary
62
5
39
2
10
195.918061
20
66.959311
11
196.121628
21
67.441779
0
LINE
8
boundary
62
5
39
2
10
196.121628
20
67.441779
11
196.318872
21
67.926948
0
LINE
8
boundary
62
5
39
2
10
196.318872
20
67.926948
11
196.168148
21
68.453218
0
LINE
8
boundary
62
5
39
2
10
196.168148
20
68.453218
11
195.567258
21
68.746109
0
LINE
8
boundary
62
5
39
2
10
195.567258
20
68.746109
11
195.166447
21
69.105101
0
LINE
8
boundary
62
5
39
2
10
195.166447
20
69.105101
11
194.916087
21
69.574189
0
LINE
8
boundary
62
5
39
2
10
194.916087
20
69.574189
11
194.831311
21
70.108223
0
LINE
8
boundary
62
5
39
2
10
194.831311
20
70.108223
11
194.927290
21
70.661974
0
LINE
8
boundary
62
5
39
2
10
194.927290
20
70.661974
11
195.226521
21
71.137281
0
LINE
8
boundary
62
5
39
2
10
195.226521
20
71.137281
11
195.646844
21
71.477186
0
LINE
8
boundary
62
5
39
2
10
195.646844
20
71.477186
11
196.146741
21
71.658343
0
LINE
8
boundary
62
5
39
2
10
196.146741
20
71.658343
11
196.684717
21
71.657205
0
LINE
8
boundary
62
5
39
2
10
196.684717
20
71.657205
11
197.286715
21
71.472726
0
LINE
8
boundary
62
5
39
2
10
197.286715
20
71.472726
11
197.791384
21
71.763036
0
LINE
8
boundary
62
5
39
2
10
197.791384
20
71.763036
11
197.969432
21
72.255569
0
LINE
8
boundary
62
5
39
2
10
197.969432
20
72.255569
11
198.141048
21
72.750385
0
LINE
8
boundary
62
5
39
2
10
198.141048
20
72.750385
11
197.962935
21
73.268005
0
LINE
8
boundary
62
5
39
2
10
197.962935
20
73.268005
11
197.347619
21
73.529077
0
LINE
8
boundary
62
5
39
2
10
197.347619
20
73.529077
11
196.928446
21
73.866596
0
LINE
8
boundary
62
5
39
2
10
196.928446
20
73.866596
11
196.653899
21
74.321883
0
LINE
8
boundary
62
5
39
2
10
196.653899
20
74.321883
11
196.541327
21
74.850832
0
LINE
8
boundary
62
5
39
2
10
196.541327
20
74.850832
11
196.608250
21
75.408732
0
LINE
8
boundary
62
5
39
2
10
196.608250
20
75.408732
11
196.882167
21
75.899085
0
LINE
8
boundary
62
5
39
2
10
196.882167
20
75.899085
11
197.284117
21
76.260572
0
LINE
8
boundary
62
5
39
2
10
197.284117
20
76.260572
11
197.773852
21
76.467567
0
LINE
8
boundary
62
5
39
2
10
197.773852
20
76.467567
11
198.311204
21
76.494648
0
LINE
8
boundary
62
5
39
2
10
198.311204
20
76.494648
11
198.922020
21
76.341917
0
LINE
8
boundary
62
5
39
2
10
198.922020
20
76.341917
11
199.410713
21
76.658168
0
LINE
8
boundary
62
5
39
2
10
199.410713
20
76.658168
11
199.562824
21
77.159313
0
LINE
8
boundary
62
5
39
2
10
199.562824
20
77.159313
11
199.708291
21
77.662534
0
LINE
8
boundary
62
5
39
2
10
199.708291
20
77.662534
11
199.503364
21
78.170103
0
LINE
8
boundary
62
5
39
2
10
199.503364
20
78.170103
11
198.875123
21
78.398581
0
LINE
8
boundary
62
5
39
2
10
198.875123
20
78.398581
11
198.438928
21
78.713690
0
LINE
8
boundary
62
5
39
2
10
198.438928
20
78.713690
11
198.140939
21
79.154034
0
LINE
8
boundary
62
5
39
2
10
198.140939
20
79.154034
11
198.000771
21
79.676343
0
LINE
8
boundary
62
5
39
2
10
198.000771
20
79.676343
11
198.038432
21
80.237043
0
LINE
8
boundary
62
5
39
2
10
198.038432
20
80.237043
11
198.286309
21
80.740990
0
LINE
8
boundary
62
5
39
2
10
198.286309
20
80.740990
11
198.668753
21
81.123022
0
LINE
8
boundary
62
5
39
2
10
198.668753
20
81.123022
11
199.146964
21
81.355436
0
LINE
8
boundary
62
5
39
2
10
199.146964
20
81.355436
11
199.682142
21
81.410531
0
LINE
8
boundary
62
5
39
2
10
199.682142
20
81.410531
11
200.300115
21
81.289966
0
LINE
8
boundary
62
5
39
2
10
200.300115
20
81.289966
11
200.771683
21
81.631429
0
LINE
8
boundary
62
5
39
2
10
200.771683
20
81.631429
11
200.897335
21
82.139836
0
LINE
8
boundary
62
5
39
2
10
200.897335
20
82.139836
11
201.016242
21
82.649903
0
LINE
8
boundary
62
5
39
2
10
201.016242
20
82.649903
11
200.785021
21
83.146055
0
LINE
8
boundary
62
5
39
2
10
200.785021
20
83.146055
11
200.145728
21
83.341337
0
LINE
8
boundary
62
5
39
2
10
200.145728
20
83.341337
11
199.693660
21
83.633204
0
LINE
8
boundary
62
5
39
2
10
199.693660
20
83.633204
11
199.373046
21
84.057465
0
LINE
8
boundary
62
5
39
2
10
199.373046
20
84.057465
11
199.205693
21
84.571682
0
LINE
8
boundary
62
5
39
2
10
199.205693
20
84.571682
11
199.213990
21
85.133524
0
LINE
8
boundary
62
5
39
2
10
199.213990
20
85.133524
11
199.435100
21
85.649817
0
LINE
8
boundary
62
5
39
2
10
199.435100
20
85.649817
11
199.797106
21
86.051252
0
LINE
8
boundary
62
5
39
2
10
199.797106
20
86.051252
11
200.262448
21
86.308465
0
LINE
8
boundary
62
5
39
2
10
200.262448
20
86.308465
11
200.793999
21
86.391469
0
LINE
8
boundary
62
5
39
2
10
200.793999
20
86.391469
11
201.417471
21
86.303485
0
LINE
8
boundary
62
5
39
2
10
201.417471
20
86.303485
11
201.870574
21
86.669018
0
LINE
8
boundary
62
5
39
2
10
201.870574
20
86.669018
11
201.969351
21
87.183340
0
LINE
8
boundary
62
5
39
2
10
201.969351
20
87.183340
11
202.061381
21
87.699011
0
LINE
8
boundary
62
5
39
2
10
202.061381
20
87.699011
11
201.804587
21
88.182341
0
LINE
8
boundary
62
5
39
2
10
201.804587
20
88.182341
11
201.155895
21
88.343960
0
LINE
8
boundary
62
5
39
2
10
201.155895
20
88.343960
11
200.689202
21
88.611757
0
LINE
8
boundary
62
5
39
2
10
200.689202
20
88.611757
11
200.346812
21
89.018587
0
LINE
8
boundary
62
5
39
2
10
200.346812
20
89.018587
11
200.152783
21
89.523258
0
LINE
8
boundary
62
5
39
2
10
200.152783
20
89.523258
11
200.131612
21
90.084892
0
LINE
8
boundary
62
5
39
2
10
200.131612
20
90.084892
11
200.325429
21
90.611976
0
LINE
8
boundary
62
5
39
2
10
200.325429
20
90.611976
11
200.665960
21
91.031879
0
LINE
8
boundary
62
5
39
2
10
200.665960
20
91.031879
11
201.117198
21
91.312956
0
LINE
8
boundary
62
5
39
2
10
201.117198
20
91.312956
11
201.643765
21
91.423664
0
LINE
8
boundary
62
5
39
2
10
201.643765
20
91.423664
11
202.270865
21
91.368466
0
LINE
8
boundary
62
5
39
2
10
202.270865
20
91.368466
11
202.704154
21
91.757242
0
LINE
8
boundary
62
5
39
2
10
202.704154
20
91.757242
11
202.775951
21
92.276128
0
LINE
8
boundary
62
5
39
2
10
202.775951
20
92.276128
11
202.840906
21
92.795845
0
LINE
8
boundary
62
5
39
2
10
202.840906
20
92.795845
11
202.559108
21
93.265060
0
LINE
8
boundary
62
5
39
2
10
202.559108
20
93.265060
11
201.902943
21
93.392445
0
LINE
8
boundary
62
5
39
2
10
201.902943
20
93.392445
11
201.422764
21
93.635443
0
LINE
8
boundary
62
5
39
2
10
201.422764
20
93.635443
11
201.059510
21
94.023804
0
LINE
8
boundary
62
5
39
2
10
201.059510
20
94.023804
11
200.839442
21
94.517686
0
LINE
8
boundary
62
5
39
2
10
200.839442
20
94.517686
11
200.788912
21
95.077421
0
LINE
8
boundary
62
5
39
2
10
200.788912
20
95.077421
11
200.954926
21
95.613936
0
LINE
8
boundary
62
5
39
2
10
200.954926
20
95.613936
11
201.272936
21
96.051104
0
LINE
8
boundary
62
5
39
2
10
201.272936
20
96.051104
11
201.708926
21
96.355453
0
LINE
8
boundary
62
5
39
2
10
201.708926
20
96.355453
11
202.228849
21
96.493574
0
LINE
8
boundary
62
5
39
2
10
202.228849
20
96.493574
11
202.858026
21
96.471235
0
LINE
8
boundary
62
5
39
2
10
202.858026
20
96.471235
11
203.270459
21
96.882194
0
LINE
8
boundary
62
5
39
2
10
203.270459
20
96.882194
11
203.314969
21
97.404038
0
LINE
8
boundary
62
5
39
2
10
203.314969
20
97.404038
11
203.352636
21
97.926432
0
LINE
8
boundary
62
5
39
2
10
203.352636
20
97.926432
11
203.046631
21
98.380305
0
LINE
8
boundary
62
5
39
2
10
203.046631
20
98.380305
11
202.384690
21
98.473187
0
LINE
8
boundary
62
5
39
2
10
202.384690
20
98.473187
11
201.892466
21
98.690744
0
LINE
8
boundary
62
5
39
2
10
201.892466
20
98.690744
11
201.509404
21
99.059547
0
LINE
8
boundary
62
5
39
2
10
201.509404
20
99.059547
11
201.263810
21
99.541247
0
LINE
8
boundary
62
5
39
2
10
201.263810
20
99.541247
11
201.184025
21
100.097528
0
LINE
8
boundary
62
5
39
2
10
201.184025
20
100.097528
11
201.321704
21
100.642001
0
LINE
8
boundary
62
5
39
2
10
201.321704
20
100.642001
11
201.616368
21
101.095209
0
LINE
8
boundary
62
5
39
2
10
201.616368
20
101.095209
11
202.035862
21
101.421960
0
LINE
8
boundary
62
5
39
2
10
202.035862
20
101.421960
11
202.547798
21
101.587109
0
LINE
8
boundary
62
5
39
2
10
202.547798
20
101.587109
11
203.177393
21
101.597734
0
LINE
8
boundary
62
5
39
2
10
203.177393
20
101.597734
11
203.567618
21
102.029704
0
LINE
8
boundary
62
5
39
2
10
203.567618
20
102.029704
11
203.584738
21
102.553166
0
LINE
8
boundary
62
5
39
2
10
203.584738
20
102.553166
11
203.595015
21
103.076815
0
LINE
8
boundary
62
5
39
2
10
203.595015
20
103.076815
11
203.265758
21
103.514047
0
LINE
8
boundary
62
5
39
2
10
203.265758
20
103.514047
11
202.599775
21
103.572169
0
LINE
8
boundary
62
5
39
2
10
202.599775
20
103.572169
11
202.096971
21
103.763663
0
LINE
8
boundary
62
5
39
2
10
202.096971
20
103.763663
11
201.695124
21
104.111904
0
LINE
8
boundary
62
5
39
2
10
201.695124
20
104.111904
11
201.424526
21
104.580099
0
LINE
8
boundary
62
5
39
2
10
201.424526
20
104.580099
11
201.315793
21
105.131441
0
LINE
8
boundary
62
5
39
2
10
201.315793
20
105.131441
11
201.424732
21
105.682366
0
LINE
8
boundary
62
5
39
2
10
201.424732
20
105.682366
11
201.695330
21
106.150378
0
LINE
8
boundary
62
5
39
2
10
201.695330
20
106.150378
11
202.097177
21
106.498635
0
LINE
8
boundary
62
5
39
2
10
202.097177
20
106.498635
11
202.599775
21
106.690345
0
LINE
8
boundary
62
5
39
2
10
202.599775
20
106.690345
11
203.227916
21
106.733913
0
LINE
8
boundary
62
5
39
2
10
203.227916
20
106.733913
11
203.595015
21
107.185721
0
LINE
8
boundary
62
5
39
2
10
203.595015
20
107.185721
11
203.584738
21
107.709349
0
LINE
8
boundary
62
5
39
2
10
203.584738
20
107.709349
11
203.567618
21
108.232822
0
LINE
8
boundary
62
5
39
2
10
203.567618
20
108.232822
11
203.215922
21
108.652226
0
LINE
8
boundary
62
5
39
2
10
203.215922
20
108.652226
11
202.547798
21
108.675406
0
LINE
8
boundary
62
5
39
2
10
202.547798
20
108.675406
11
202.035650
21
108.840327
0
LINE
8
boundary
62
5
39
2
10
202.035650
20
108.840327
11
201.616060
21
109.167057
0
LINE
8
boundary
62
5
39
2
10
201.616060
20
109.167057
11
201.321498
21
109.620452
0
LINE
8
boundary
62
5
39
2
10
201.321498
20
109.620452
11
201.183910
21
110.165350
0
LINE
8
boundary
62
5
39
2
10
201.183910
20
110.165350
11
201.264016
21
110.721226
0
LINE
8
boundary
62
5
39
2
10
201.264016
20
110.721226
11
201.509713
21
111.202750
0
LINE
8
boundary
62
5
39
2
10
201.509713
20
111.202750
11
201.892678
21
111.571563
0
LINE
8
boundary
62
5
39
2
10
201.892678
20
111.571563
11
202.384690
21
111.789327
0
LINE
8
boundary
62
5
39
2
10
202.384690
20
111.789327
11
203.009615
21
111.865693
0
LINE
8
boundary
62
5
39
2
10
203.009615
20
111.865693
11
203.352636
21
112.336105
0
LINE
8
boundary
62
5
39
2
10
203.352636
20
112.336105
11
203.314969
21
112.858477
0
LINE
8
boundary
62
5
39
2
10
203.314969
20
112.858477
11
203.270458
21
113.380341
0
LINE
8
boundary
62
5
39
2
10
203.270458
20
113.380341
11
202.897197
21
113.780759
0
LINE
8
boundary
62
5
39
2
10
202.897197
20
113.780759
11
202.228849
21
113.768941
0
LINE
8
boundary
62
5
39
2
10
202.228849
20
113.768941
11
201.708720
21
113.906823
0
LINE
8
boundary
62
5
39
2
10
201.708720
20
113.906823
11
201.272627
21
114.211152
0
LINE
8
boundary
62
5
39
2
10
201.272627
20
114.211152
11
200.954720
21
114.648507
0
LINE
8
boundary
62
5
39
2
10
200.954720
20
114.648507
11
200.788809
21
115.185457
0
LINE
8
boundary
62
5
39
2
10
200.788809
20
115.185457
11
200.839654
21
115.744727
0
LINE
8
boundary
62
5
39
2
10
200.839654
20
115.744727
11
201.059819
21
116.238503
0
LINE
8
boundary
62
5
39
2
10
201.059819
20
116.238503
11
201.422969
21
116.626864
0
LINE
8
boundary
62
5
39
2
10
201.422969
20
116.626864
11
201.902942
21
116.870070
0
LINE
8
boundary
62
5
39
2
10
201.902942
20
116.870070
11
202.522999
21
116.979015
0
LINE
8
boundary
62
5
39
2
10
202.522999
20
116.979015
11
202.840906
21
117.466774
0
LINE
8
boundary
62
5
39
2
10
202.840906
20
117.466774
11
202.775951
21
117.986387
0
LINE
8
boundary
62
5
39
2
10
202.775951
20
117.986387
11
202.704153
21
118.505273
0
LINE
8
boundary
62
5
39
2
10
202.704153
20
118.505273
11
202.310514
21
118.885587
0
LINE
8
boundary
62
5
39
2
10
202.310514
20
118.885587
11
201.643765
21
118.838851
0
LINE
8
boundary
62
5
39
2
10
201.643765
20
118.838851
11
201.117096
21
118.949249
0
LINE
8
boundary
62
5
39
2
10
201.117096
20
118.949249
11
200.665651
21
119.230324
0
LINE
8
boundary
62
5
39
2
10
200.665651
20
119.230324
11
200.325223
21
119.650435
0
LINE
8
boundary
62
5
39
2
10
200.325223
20
119.650435
11
200.131509
21
120.178038
0
LINE
8
boundary
62
5
39
2
10
200.131509
20
120.178038
11
200.152989
21
120.739257
0
LINE
8
boundary
62
5
39
2
10
200.152989
20
120.739257
11
200.347018
21
121.243825
0
LINE
8
boundary
62
5
39
2
10
200.347018
20
121.243825
11
200.689408
21
121.650654
0
LINE
8
boundary
62
5
39
2
10
200.689408
20
121.650654
11
201.155895
21
121.918555
0
LINE
8
boundary
62
5
39
2
10
201.155895
20
121.918555
11
201.769515
21
122.059871
0
LINE
8
boundary
62
5
39
2
10
201.769515
20
122.059871
11
202.061381
21
122.563610
0
LINE
8
boundary
62
5
39
2
10
202.061381
20
122.563610
11
201.969351
21
123.079175
0
LINE
8
boundary
62
5
39
2
10
201.969351
20
123.079175
11
201.870574
21
123.593496
0
LINE
8
boundary
62
5
39
2
10
201.870574
20
123.593496
11
201.457520
21
123.952670
0
LINE
8
boundary
62
5
39
2
10
201.457520
20
123.952670
11
200.793999
21
123.871046
0
LINE
8
boundary
62
5
39
2
10
200.793999
20
123.871046
11
200.262345
21
123.953843
0
LINE
8
boundary
62
5
39
2
10
200.262345
20
123.953843
11
199.796894
21
124.210952
0
LINE
8
boundary
62
5
39
2
10
199.796894
20
124.210952
11
199.434888
21
124.612698
0
LINE
8
boundary
62
5
39
2
10
199.434888
20
124.612698
11
199.213887
21
125.129301
0
LINE
8
boundary
62
5
39
2
10
199.213887
20
125.129301
11
199.206002
21
125.690833
0
LINE
8
boundary
62
5
39
2
10
199.206002
20
125.690833
11
199.373264
21
126.204945
0
LINE
8
boundary
62
5
39
2
10
199.373264
20
126.204945
11
199.693866
21
126.629102
0
LINE
8
boundary
62
5
39
2
10
199.693866
20
126.629102
11
200.145728
21
126.921178
0
LINE
8
boundary
62
5
39
2
10
200.145728
20
126.921178
11
200.751039
21
127.094347
0
LINE
8
boundary
62
5
39
2
10
200.751039
20
127.094347
11
201.016242
21
127.612611
0
LINE
8
boundary
62
5
39
2
10
201.016242
20
127.612611
11
200.897335
21
128.122679
0
LINE
8
boundary
62
5
39
2
10
200.897335
20
128.122679
11
200.771683
21
128.631086
0
LINE
8
boundary
62
5
39
2
10
200.771683
20
128.631086
11
200.340431
21
128.968264
0
LINE
8
boundary
62
5
39
2
10
200.340431
20
128.968264
11
199.682142
21
128.851984
0
LINE
8
boundary
62
5
39
2
10
199.682142
20
128.851984
11
199.146861
21
128.906871
0
LINE
8
boundary
62
5
39
2
10
199.146861
20
128.906871
11
198.668547
21
129.139182
0
LINE
8
boundary
62
5
39
2
10
198.668547
20
129.139182
11
198.286091
21
129.521420
0
LINE
8
boundary
62
5
39
2
10
198.286091
20
129.521420
11
198.038323
21
130.025782
0
LINE
8
boundary
62
5
39
2
10
198.038323
20
130.025782
11
198.000976
21
130.586172
0
LINE
8
boundary
62
5
39
2
10
198.000976
20
130.586172
11
198.141254
21
131.108275
0
LINE
8
boundary
62
5
39
2
10
198.141254
20
131.108275
11
198.439243
21
131.548616
0
LINE
8
boundary
62
5
39
2
10
198.439243
20
131.548616
11
198.875123
21
131.863934
0
LINE
8
boundary
62
5
39
2
10
198.875123
20
131.863934
11
199.470582
21
132.068543
0
LINE
8
boundary
62
5
39
2
10
199.470582
20
132.068543
11
199.708291
21
132.599981
0
LINE
8
boundary
62
5
39
2
10
199.708291
20
132.599981
11
199.562824
21
133.103202
0
LINE
8
boundary
62
5
39
2
10
199.562824
20
133.103202
11
199.410713
21
133.604347
0
LINE
8
boundary
62
5
39
2
10
199.410713
20
133.604347
11
198.962493
21
133.918442
0
LINE
8
boundary
62
5
39
2
10
198.962493
20
133.918442
11
198.311205
21
133.767866
0
LINE
8
boundary
62
5
39
2
10
198.311205
20
133.767866
11
197.773749
21
133.794636
0
LINE
8
boundary
62
5
39
2
10
197.773749
20
133.794636
11
197.283911
21
134.001631
0
LINE
8
boundary
62
5
39
2
10
197.283911
20
134.001631
11
196.881962
21
134.363327
0
LINE
8
boundary
62
5
39
2
10
196.881962
20
134.363327
11
196.608147
21
134.854095
0
LINE
8
boundary
62
5
39
2
10
196.608147
20
134.854095
11
196.541533
21
135.411683
0
LINE
8
boundary
62
5
39
2
10
196.541533
20
135.411683
11
196.654208
21
135.940426
0
LINE
8
boundary
62
5
39
2
10
196.654208
20
135.940426
11
196.928755
21
136.395816
0
LINE
8
boundary
62
5
39
2
10
196.928755
20
136.395816
11
197.347619
21
136.733438
0
LINE
8
boundary
62
5
39
2
10
197.347619
20
136.733438
11
197.931455
21
136.968964
0
LINE
8
boundary
62
5
39
2
10
197.931455
20
136.968964
11
198.141048
21
137.512130
0
LINE
8
boundary
62
5
39
2
10
198.141048
20
137.512130
11
197.969432
21
138.006946
0
LINE
8
boundary
62
5
39
2
10
197.969432
20
138.006946
11
197.791384
21
138.499582
0
LINE
8
boundary
62
5
39
2
10
197.791384
20
138.499582
11
197.327268
21
138.789736
0
LINE
8
boundary
62
5
39
2
10
197.327268
20
138.789736
11
196.684717
21
138.605311
0
LINE
8
boundary
62
5
39
2
10
196.684717
20
138.605311
11
196.146638
21
138.603857
0
LINE
8
boundary
62
5
39
2
10
196.146638
20
138.603857
11
195.646632
21
138.785014
0
LINE
8
boundary
62
5
39
2
10
195.646632
20
138.785014
11
195.226315
21
139.125131
0
LINE
8
boundary
62
5
39
2
10
195.226315
20
139.125131
11
194.927187
21
139.600853
0
LINE
8
boundary
62
5
39
2
10
194.927187
20
139.600853
11
194.831518
21
140.154292
0
LINE
8
boundary
62
5
39
2
10
194.831518
20
140.154292
11
194.916396
21
140.688120
0
LINE
8
boundary
62
5
39
2
10
194.916396
20
140.688120
11
195.166653
21
141.157305
0
LINE
8
boundary
62
5
39
2
10
195.166653
20
141.157305
11
195.567259
21
141.516406
0
LINE
8
boundary
62
5
39
2
10
195.567259
20
141.516406
11
196.138027
21
141.782127
0
LINE
8
boundary
62
5
39
2
10
196.138027
20
141.782127
11
196.318872
21
142.335567
0
LINE
8
boundary
62
5
39
2
10
196.318872
20
142.335567
11
196.121628
21
142.820736
0
LINE
8
boundary
62
5
39
2
10
196.121628
20
142.820736
11
195.918061
21
143.303307
0
LINE
8
boundary
62
5
39
2
10
195.918061
20
143.303307
11
195.439360
21
143.568741
0
LINE
8
boundary
62
5
39
2
10
195.439360
20
143.568741
11
194.807343
21
143.351029
0
LINE
8
boundary
62
5
39
2
10
194.807343
20
143.351029
11
194.270093
21
143.321359
0
LINE
8
boundary
62
5
39
2
10
194.270093
20
143.321359
11
193.761270
21
143.476061
0
LINE
8
boundary
62
5
39
2
10
193.761270
20
143.476061
11
193.323730
21
143.793762
0
LINE
8
boundary
62
5
39
2
10
193.323730
20
143.793762
11
193.000113
21
144.253197
0
LINE
8
boundary
62
5
39
2
10
193.000113
20
144.253197
11
192.875605
21
144.800823
0
LINE
8
boundary
62
5
39
2
10
192.875605
20
144.800823
11
192.932463
21
145.338387
0
LINE
8
boundary
62
5
39
2
10
192.932463
20
145.338387
11
193.157825
21
145.820023
0
LINE
8
boundary
62
5
39
2
10
193.157825
20
145.820023
11
193.539027
21
146.199569
0
LINE
8
boundary
62
5
39
2
10
193.539027
20
146.199569
11
194.095158
21
146.494857
0
LINE
8
boundary
62
5
39
2
10
194.095158
20
146.494857
11
194.246748
21
147.056905
0
LINE
8
boundary
62
5
39
2
10
194.246748
20
147.056905
11
194.024396
21
147.531074
0
LINE
8
boundary
62
5
39
2
10
194.024396
20
147.531074
11
193.795825
21
148.002339
0
LINE
8
boundary
62
5
39
2
10
193.795825
20
148.002339
11
193.303971
21
148.242482
0
LINE
8
boundary
62
5
39
2
10
193.303971
20
148.242482
11
192.684180
21
147.991856
0
LINE
8
boundary
62
5
39
2
10
192.684180
20
147.991856
11
192.149208
21
147.934168
0
LINE
8
boundary
62
5
39
2
10
192.149208
20
147.934168
11
191.633021
21
148.062101
0
LINE
8
boundary
62
5
39
2
10
191.633021
20
148.062101
11
191.179500
21
148.356456
0
LINE
8
boundary
62
5
39
2
10
191.179500
20
148.356456
11
190.832222
21
148.798251
0
LINE
8
boundary
62
5
39
2
10
190.832222
20
148.798251
11
190.679185
21
149.338618
0
LINE
8
boundary
62
5
39
2
10
190.679185
20
149.338618
11
190.707823
21
149.878460
0
LINE
8
boundary
62
5
39
2
10
190.707823
20
149.878460
11
190.907756
21
150.371204
0
LINE
8
boundary
62
5
39
2
10
190.907756
20
150.371204
11
191.268520
21
150.770250
0
LINE
8
boundary
62
5
39
2
10
191.268520
20
150.770250
11
191.808470
21
151.094180
0
LINE
8
boundary
62
5
39
2
10
191.808470
20
151.094180
11
191.930489
21
151.663389
0
LINE
8
boundary
62
5
39
2
10
191.930489
20
151.663389
11
191.683550
21
152.125309
0
LINE
8
boundary
62
5
39
2
10
191.683550
20
152.125309
11
191.430663
21
152.583914
0
LINE
8
boundary
62
5
39
2
10
191.430663
20
152.583914
11
190.926850
21
152.797942
0
LINE
8
boundary
62
5
39
2
10
190.926850
20
152.797942
11
190.321013
21
152.515332
0
LINE
8
boundary
62
5
39
2
10
190.321013
20
152.515332
11
189.789783
21
152.429733
0
LINE
8
boundary
62
5
39
2
10
189.789783
20
152.429733
11
189.267679
21
152.530375
0
LINE
8
boundary
62
5
39
2
10
189.267679
20
152.530375
11
188.799322
21
152.800562
0
LINE
8
boundary
62
5
39
2
10
188.799322
20
152.800562
11
188.429431
21
153.223680
0
LINE
8
boundary
62
5
39
2
10
188.429431
20
153.223680
11
188.248380
21
153.755331
0
LINE
8
boundary
62
5
39
2
10
188.248380
20
153.755331
11
188.248689
21
154.295901
0
LINE
8
boundary
62
5
39
2
10
188.248689
20
154.295901
11
188.422473
21
154.798393
0
LINE
8
boundary
62
5
39
2
10
188.422473
20
154.798393
11
188.761969
21
155.215700
0
LINE
8
boundary
62
5
39
2
10
188.761969
20
155.215700
11
189.284176
21
155.567538
0
LINE
8
boundary
62
5
39
2
10
189.284176
20
155.567538
11
189.376212
21
156.142352
0
LINE
8
boundary
62
5
39
2
10
189.376212
20
156.142352
11
189.105504
21
156.590683
0
LINE
8
boundary
62
5
39
2
10
189.105504
20
156.590683
11
188.828892
21
157.035490
0
LINE
8
boundary
62
5
39
2
10
188.828892
20
157.035490
11
188.314584
21
157.222848
0
LINE
8
boundary
62
5
39
2
10
188.314584
20
157.222848
11
187.724399
21
156.908905
0
LINE
8
boundary
62
5
39
2
10
187.724399
20
156.908905
11
187.198359
21
156.795606
0
LINE
8
boundary
62
5
39
2
10
187.198359
20
156.795606
11
186.671689
21
156.868749
0
LINE
8
boundary
62
5
39
2
10
186.671689
20
156.868749
11
186.189845
21
157.114137
0
LINE
8
boundary
62
5
39
2
10
186.189845
20
157.114137
11
185.798263
21
157.517231
0
LINE
8
boundary
62
5
39
2
10
185.798263
20
157.517231
11
185.589616
21
158.038711
0
LINE
8
boundary
62
5
39
2
10
185.589616
20
158.038711
11
185.561704
21
158.578558
0
LINE
8
boundary
62
5
39
2
10
185.561704
20
158.578558
11
185.708933
21
159.089452
0
LINE
8
boundary
62
5
39
2
10
185.708933
20
159.089452
11
186.026120
21
159.523989
0
LINE
8
boundary
62
5
39
2
10
186.026120
20
159.523989
11
186.529123
21
159.902593
0
LINE
8
boundary
62
5
39
2
10
186.529123
20
159.902593
11
186.590965
21
160.481452
0
LINE
8
boundary
62
5
39
2
10
186.590965
20
160.481452
11
186.297233
21
160.915050
0
LINE
8
boundary
62
5
39
2
10
186.297233
20
160.915050
11
185.997682
21
161.344705
0
LINE
8
boundary
62
5
39
2
10
185.997682
20
161.344705
11
185.474289
21
161.504882
0
LINE
8
boundary
62
5
39
2
10
185.474289
20
161.504882
11
184.901400
21
161.160535
0
LINE
8
boundary
62
5
39
2
10
184.901400
20
161.160535
11
184.381992
21
161.019846
0
LINE
8
boundary
62
5
39
2
10
184.381992
20
161.019846
11
183.852203
21
161.065392
0
LINE
8
boundary
62
5
39
2
10
183.852203
20
161.065392
11
183.358120
21
161.285152
0
LINE
8
boundary
62
5
39
2
10
183.358120
20
161.285152
11
182.946099
21
161.667287
0
LINE
8
boundary
62
5
39
2
10
182.946099
20
161.667287
11
182.710473
21
162.177043
0
LINE
8
boundary
62
5
39
2
10
182.710473
20
162.177043
11
182.654239
21
162.714710
0
LINE
8
boundary
62
5
39
2
10
182.654239
20
162.714710
11
182.774592
21
163.232556
0
LINE
8
boundary
62
5
39
2
10
182.774592
20
163.232556
11
183.068536
21
163.683170
0
LINE
8
boundary
62
5
39
2
10
183.068536
20
163.683170
11
183.551101
21
164.087615
0
LINE
8
boundary
62
5
39
2
10
183.551101
20
164.087615
11
183.582543
21
164.668963
0
LINE
8
boundary
62
5
39
2
10
183.582543
20
164.668963
11
183.266501
21
165.086482
0
LINE
8
boundary
62
5
39
2
10
183.266501
20
165.086482
11
182.944858
21
165.499950
0
LINE
8
boundary
62
5
39
2
10
182.944858
20
165.499950
11
182.413819
21
165.632502
0
LINE
8
boundary
62
5
39
2
10
182.413819
20
165.632502
11
181.859768
21
165.258613
0
LINE
8
boundary
62
5
39
2
10
181.859768
20
165.258613
11
181.348359
21
165.090939
0
LINE
8
boundary
62
5
39
2
10
181.348359
20
165.090939
11
180.816911
21
165.108683
0
LINE
8
boundary
62
5
39
2
10
180.816911
20
165.108683
11
180.312037
21
165.302294
0
LINE
8
boundary
62
5
39
2
10
180.312037
20
165.302294
11
179.880510
21
165.662331
0
LINE
8
boundary
62
5
39
2
10
179.880510
20
165.662331
11
179.618523
21
166.159012
0
LINE
8
boundary
62
5
39
2
10
179.618523
20
166.159012
11
179.534274
21
166.693046
0
LINE
8
boundary
62
5
39
2
10
179.534274
20
166.693046
11
179.627340
21
167.216500
0
LINE
8
boundary
62
5
39
2
10
179.627340
20
167.216500
11
179.897418
21
167.681848
0
LINE
8
boundary
62
5
39
2
10
179.897418
20
167.681848
11
180.358097
21
168.110989
0
LINE
8
boundary
62
5
39
2
10
180.358097
20
168.110989
11
180.359133
21
168.693166
0
LINE
8
boundary
62
5
39
2
10
180.359133
20
168.693166
11
180.021514
21
169.093663
0
LINE
8
boundary
62
5
39
2
10
180.021514
20
169.093663
11
179.678809
21
169.489599
0
LINE
8
boundary
62
5
39
2
10
179.678809
20
169.489599
11
179.141520
21
169.594267
0
LINE
8
boundary
62
5
39
2
10
179.141520
20
169.594267
11
178.607726
21
169.191815
0
LINE
8
boundary
62
5
39
2
10
178.607726
20
169.191815
11
178.105855
21
168.997690
0
LINE
8
boundary
62
5
39
2
10
178.105855
20
168.997690
11
177.574207
21
168.987522
0
LINE
8
boundary
62
5
39
2
10
177.574207
20
168.987522
11
177.059885
21
169.154463
0
LINE
8
boundary
62
5
39
2
10
177.059885
20
169.154463
11
176.636813
21
169.465789
0
LINE
8
boundary
62
5
39
2
10
176.636813
20
169.465789
11
176.322491
21
169.973727
0
LINE
8
boundary
62
5
39
2
10
176.322491
20
169.973727
11
176.210428
21
170.502576
0
LINE
8
boundary
62
5
39
2
10
176.210428
20
170.502576
11
176.276006
21
171.030281
0
LINE
8
boundary
62
5
39
2
10
176.276006
20
171.030281
11
176.521286
21
171.509116
0
LINE
8
boundary
62
5
39
2
10
176.521286
20
171.509116
11
176.958929
21
171.961698
0
LINE
8
boundary
62
5
39
2
10
176.958929
20
171.961698
11
176.929467
21
172.543155
0
LINE
8
boundary
62
5
39
2
10
176.929467
20
172.543155
11
176.571398
21
172.925393
0
LINE
8
boundary
62
5
39
2
10
176.571398
20
172.925393
11
176.208357
21
173.302963
0
LINE
8
boundary
62
5
39
2
10
176.208357
20
173.302963
11
175.666334
21
173.379301
0
LINE
8
boundary
62
5
39
2
10
175.666334
20
173.379301
11
175.154394
21
172.949465
0
LINE
8
boundary
62
5
39
2
10
175.154394
20
172.949465
11
174.663423
21
172.729293
0
LINE
8
boundary
62
5
39
2
10
174.663423
20
172.729293
11
174.133017
21
172.691420
0
LINE
8
boundary
62
5
39
2
10
174.133017
20
172.691420
11
173.610605
21
172.831183
0
LINE
8
boundary
62
5
39
2
10
173.610605
20
172.831183
11
173.171818
21
173.119952
0
LINE
8
boundary
62
5
39
2
10
173.171818
20
173.119952
11
172.831389
21
173.610708
0
LINE
8
boundary
62
5
39
2
10
172.831389
20
173.610708
11
172.691735
21
174.133017
0
LINE
8
boundary
62
5
39
2
10
172.691735
20
174.133017
11
172.729608
21
174.663320
0
LINE
8
boundary
62
5
39
2
10
172.729608
20
174.663320
11
172.949465
21
175.154394
0
LINE
8
boundary
62
5
39
2
10
172.949465
20
175.154394
11
173.362830
21
175.629292
0
LINE
8
boundary
62
5
39
2
10
173.362830
20
175.629292
11
173.302962
21
176.208357
0
LINE
8
boundary
62
5
39
2
10
173.302962
20
176.208357
11
172.925393
21
176.571398
0
LINE
8
boundary
62
5
39
2
10
172.925393
20
176.571398
11
172.543155
21
176.929467
0
LINE
8
boundary
62
5
39
2
10
172.543155
20
176.929467
11
171.997836
21
176.977290
0
LINE
8
boundary
62
5
39
2
10
171.997836
20
176.977290
11
171.509116
21
176.521286
0
LINE
8
boundary
62
5
39
2
10
171.509116
20
176.521286
11
171.030281
21
176.275698
0
LINE
8
boundary
62
5
39
2
10
171.030281
20
176.275698
11
170.502576
21
176.210119
0
LINE
8
boundary
62
5
39
2
10
170.502576
20
176.210119
11
169.973624
21
176.322388
0
LINE
8
boundary
62
5
39
2
10
169.973624
20
176.322388
11
169.520293
21
176.587739
0
LINE
8
boundary
62
5
39
2
10
169.520293
20
176.587739
11
169.154669
21
177.060091
0
LINE
8
boundary
62
5
39
2
10
169.154669
20
177.060091
11
168.987934
21
177.574310
0
LINE
8
boundary
62
5
39
2
10
168.987934
20
177.574310
11
168.997896
21
178.105855
0
LINE
8
boundary
62
5
39
2
10
168.997896
20
178.105855
11
169.191815
21
178.607726
0
LINE
8
boundary
62
5
39
2
10
169.191815
20
178.607726
11
169.579764
21
179.103680
0
LINE
8
boundary
62
5
39
2
10
169.579764
20
179.103680
11
169.489599
21
179.678809
0
LINE
8
boundary
62
5
39
2
10
169.489599
20
179.678809
11
169.093662
21
180.021514
0
LINE
8
boundary
62
5
39
2
10
169.093662
20
180.021514
11
168.693166
21
180.359133
0
LINE
8
boundary
62
5
39
2
10
168.693166
20
180.359133
11
168.146114
21
180.378349
0
LINE
8
boundary
62
5
39
2
10
168.146114
20
180.378349
11
167.681848
21
179.897418
0
LINE
8
boundary
62
5
39
2
10
167.681848
20
179.897418
11
167.216603
21
179.627134
0
LINE
8
boundary
62
5
39
2
10
167.216603
20
179.627134
11
166.693046
21
179.533965
0
LINE
8
boundary
62
5
39
2
10
166.693046
20
179.533965
11
166.158910
21
179.618420
0
LINE
8
boundary
62
5
39
2
10
166.158910
20
179.618420
11
165.692299
21
179.859690
0
LINE
8
boundary
62
5
39
2
10
165.692299
20
179.859690
11
165.302397
21
180.312242
0
LINE
8
boundary
62
5
39
2
10
165.302397
20
180.312242
11
165.108992
21
180.817020
0
LINE
8
boundary
62
5
39
2
10
165.108992
20
180.817020
11
165.091254
21
181.348462
0
LINE
8
boundary
62
5
39
2
10
165.091254
20
181.348462
11
165.258613
21
181.859768
0
LINE
8
boundary
62
5
39
2
10
165.258613
20
181.859768
11
165.619995
21
182.375234
0
LINE
8
boundary
62
5
39
2
10
165.619995
20
182.375234
11
165.499950
21
182.944961
0
LINE
8
boundary
62
5
39
2
10
165.499950
20
182.944961
11
165.086482
21
183.266502
0
LINE
8
boundary
62
5
39
2
10
165.086482
20
183.266502
11
164.668860
21
183.582543
0
LINE
8
boundary
62
5
39
2
10
164.668860
20
183.582543
11
164.121624
21
183.573162
0
LINE
8
boundary
62
5
39
2
10
164.121624
20
183.573162
11
163.683170
21
183.068536
0
LINE
8
boundary
62
5
39
2
10
163.683170
20
183.068536
11
163.232659
21
182.774283
0
LINE
8
boundary
62
5
39
2
10
163.232659
20
182.774283
11
162.714710
21
182.653918
0
LINE
8
boundary
62
5
39
2
10
162.714710
20
182.653918
11
162.176940
21
182.710267
0
LINE
8
boundary
62
5
39
2
10
162.176940
20
182.710267
11
161.698320
21
182.926806
0
LINE
8
boundary
62
5
39
2
10
161.698320
20
182.926806
11
161.285357
21
183.358326
0
LINE
8
boundary
62
5
39
2
10
161.285357
20
183.358326
11
161.065707
21
183.852312
0
LINE
8
boundary
62
5
39
2
10
161.065707
20
183.852312
11
161.020155
21
184.381992
0
LINE
8
boundary
62
5
39
2
10
161.020155
20
184.381992
11
161.160535
21
184.901400
0
LINE
8
boundary
62
5
39
2
10
161.160535
20
184.901400
11
161.494423
21
185.435119
0
LINE
8
boundary
62
5
39
2
10
161.494423
20
185.435119
11
161.344705
21
185.997682
0
LINE
8
boundary
62
5
39
2
10
161.344705
20
185.997682
11
160.915050
21
186.297233
0
LINE
8
boundary
62
5
39
2
10
160.915050
20
186.297233
11
160.481452
21
186.591069
0
LINE
8
boundary
62
5
39
2
10
160.481452
20
186.591069
11
159.935403
21
186.552940
0
LINE
8
boundary
62
5
39
2
10
159.935403
20
186.552940
11
159.523989
21
186.026120
0
LINE
8
boundary
62
5
39
2
10
159.523989
20
186.026120
11
159.089555
21
185.708625
0
LINE
8
boundary
62
5
39
2
10
159.089555
20
185.708625
11
158.578558
21
185.561286
0
LINE
8
boundary
62
5
39
2
10
158.578558
20
185.561286
11
158.038608
21
185.589403
0
LINE
8
boundary
62
5
39
2
10
158.038608
20
185.589403
11
157.549274
21
185.780642
0
LINE
8
boundary
62
5
39
2
10
157.549274
20
185.780642
11
157.114240
21
186.189948
0
LINE
8
boundary
62
5
39
2
10
157.114240
20
186.189948
11
156.869167
21
186.671793
0
LINE
8
boundary
62
5
39
2
10
156.869167
20
186.671793
11
156.795915
21
187.198462
0
LINE
8
boundary
62
5
39
2
10
156.795915
20
187.198462
11
156.908905
21
187.724399
0
LINE
8
boundary
62
5
39
2
10
156.908905
20
187.724399
11
157.214464
21
188.274935
0
LINE
8
boundary
62
5
39
2
10
157.214464
20
188.274935
11
157.064626
21
188.802042
0
LINE
8
boundary
62
5
39
2
10
157.064626
20
188.802042
11
156.590683
21
189.105504
0
LINE
8
boundary
62
5
39
2
10
156.590683
20
189.105504
11
156.142352
21
189.376212
0
LINE
8
boundary
62
5
39
2
10
156.142352
20
189.376212
11
155.599071
21
189.309640
0
LINE
8
boundary
62
5
39
2
10
155.599071
20
189.309640
11
155.215700
21
188.761969
0
LINE
8
boundary
62
5
39
2
10
155.215700
20
188.761969
11
154.798496
21
188.422164
0
LINE
8
boundary
62
5
39
2
10
154.798496
20
188.422164
11
154.296004
21
188.248265
0
LINE
8
boundary
62
5
39
2
10
154.296004
20
188.248265
11
153.755221
21
188.248162
0
LINE
8
boundary
62
5
39
2
10
153.755221
20
188.248162
11
153.256602
21
188.413511
0
LINE
8
boundary
62
5
39
2
10
153.256602
20
188.413511
11
152.800768
21
188.799425
0
LINE
8
boundary
62
5
39
2
10
152.800768
20
188.799425
11
152.530690
21
189.267783
0
LINE
8
boundary
62
5
39
2
10
152.530690
20
189.267783
11
152.430045
21
189.789886
0
LINE
8
boundary
62
5
39
2
10
152.430045
20
189.789886
11
152.515332
21
190.321013
0
LINE
8
boundary
62
5
39
2
10
152.515332
20
190.321013
11
152.791636
21
190.886803
0
LINE
8
boundary
62
5
39
2
10
152.791636
20
190.886803
11
152.614436
21
191.405308
0
LINE
8
boundary
62
5
39
2
10
152.614436
20
191.405308
11
152.125309
21
191.683551
0
LINE
8
boundary
62
5
39
2
10
152.125309
20
191.683551
11
151.663389
21
191.930490
0
LINE
8
boundary
62
5
39
2
10
151.663389
20
191.930490
11
151.124329
21
191.835560
0
LINE
8
boundary
62
5
39
2
10
151.124329
20
191.835560
11
150.770250
21
191.268520
0
LINE
8
boundary
62
5
39
2
10
150.770250
20
191.268520
11
150.371307
21
190.907447
0
LINE
8
boundary
62
5
39
2
10
150.371307
20
190.907447
11
149.878568
21
190.707508
0
LINE
8
boundary
62
5
39
2
10
149.878568
20
190.707508
11
149.338618
21
190.678979
0
LINE
8
boundary
62
5
39
2
10
149.338618
20
190.678979
11
148.831976
21
190.818058
0
LINE
8
boundary
62
5
39
2
10
148.831976
20
190.818058
11
148.356562
21
191.179603
0
LINE
8
boundary
62
5
39
2
10
148.356562
20
191.179603
11
148.062412
21
191.633118
0
LINE
8
boundary
62
5
39
2
10
148.062412
20
191.633118
11
147.934483
21
192.149311
0
LINE
8
boundary
62
5
39
2
10
147.934483
20
192.149311
11
147.991856
21
192.684180
0
LINE
8
boundary
62
5
39
2
10
147.991856
20
192.684180
11
148.238277
21
193.263656
0
LINE
8
boundary
62
5
39
2
10
148.238277
20
193.263656
11
148.034137
21
193.772194
0
LINE
8
boundary
62
5
39
2
10
148.034137
20
193.772194
11
147.531074
21
194.024396
0
LINE
8
boundary
62
5
39
2
10
147.531074
20
194.024396
11
147.056905
21
194.246748
0
LINE
8
boundary
62
5
39
2
10
147.056905
20
194.246748
11
146.523543
21
194.123792
0
LINE
8
boundary
62
5
39
2
10
146.523543
20
194.123792
11
146.199569
21
193.539027
0
LINE
8
boundary
62
5
39
2
10
146.199569
20
193.539027
11
145.820125
21
193.157516
0
LINE
8
boundary
62
5
39
2
10
145.820125
20
193.157516
11
145.338490
21
192.932051
0
LINE
8
boundary
62
5
39
2
10
145.338490
20
192.932051
11
144.800823
21
192.875399
0
LINE
8
boundary
62
5
39
2
10
144.800823
20
192.875399
11
144.287611
21
192.987684
0
LINE
8
boundary
62
5
39
2
10
144.287611
20
192.987684
11
143.820101
21
193.300018
0
LINE
8
boundary
62
5
39
2
10
143.820101
20
193.300018
11
143.476370
21
193.761482
0
LINE
8
boundary
62
5
39
2
10
143.476370
20
193.761482
11
143.321671
21
194.270196
0
LINE
8
boundary
62
5
39
2
10
143.321671
20
194.270196
11
143.351030
21
194.807343
0
LINE
8
boundary
62
5
39
2
10
143.351030
20
194.807343
11
143.566638
21
195.398858
0
LINE
8
boundary
62
5
39
2
10
143.566638
20
195.398858
11
143.336275
21
195.896106
0
LINE
8
boundary
62
5
39
2
10
143.336275
20
195.896106
11
142.820736
21
196.121628
0
LINE
8
boundary
62
5
39
2
10
142.820736
20
196.121628
11
142.335567
21
196.318872
0
LINE
8
boundary
62
5
39
2
10
142.335567
20
196.318872
11
141.782127
21
196.138027
0
LINE
8
boundary
62
5
39
2
10
141.782127
20
196.138027
11
141.516406
21
195.567259
0
LINE
8
boundary
62
5
39
2
10
141.516406
20
195.567259
11
141.157414
21
195.166447
0
LINE
8
boundary
62
5
39
2
10
141.157414
20
195.166447
11
140.688326
21
194.916087
0
LINE
8
boundary
62
5
39
2
10
140.688326
20
194.916087
11
140.154292
21
194.831311
0
LINE
8
boundary
62
5
39
2
10
140.154292
20
194.831311
11
139.635880
21
194.916593
0
LINE
8
boundary
62
5
39
2
10
139.635880
20
194.916593
11
139.152696
21
195.204010
0
LINE
8
boundary
62
5
39
2
10
139.152696
20
195.204010
11
138.785329
21
195.646845
0
LINE
8
boundary
62
5
39
2
10
138.785329
20
195.646845
11
138.604172
21
196.146741
0
LINE
8
boundary
62
5
39
2
10
138.604172
20
196.146741
11
138.605310
21
196.684717
0
LINE
8
boundary
62
5
39
2
10
138.605310
20
196.684717
11
138.789789
21
197.286715
0
LINE
8
boundary
62
5
39
2
10
138.789789
20
197.286715
11
138.533669
21
197.771187
0
LINE
8
boundary
62
5
39
2
10
138.533669
20
197.771187
11
138.006946
21
197.969432
0
LINE
8
boundary
62
5
39
2
10
138.006946
20
197.969432
11
137.512130
21
198.141048
0
LINE
8
boundary
62
5
39
2
10
137.512130
20
198.141048
11
136.968964
21
197.931456
0
LINE
8
boundary
62
5
39
2
10
136.968964
20
197.931456
11
136.733438
21
197.347619
0
LINE
8
boundary
62
5
39
2
10
136.733438
20
197.347619
11
136.395919
21
196.928446
0
LINE
8
boundary
62
5
39
2
10
136.395919
20
196.928446
11
135.940632
21
196.653899
0
LINE
8
boundary
62
5
39
2
10
135.940632
20
196.653899
11
135.411682
21
196.541327
0
LINE
8
boundary
62
5
39
2
10
135.411682
20
196.541327
11
134.889627
21
196.599388
0
LINE
8
boundary
62
5
39
2
10
134.889627
20
196.599388
11
134.392036
21
196.861118
0
LINE
8
boundary
62
5
39
2
10
134.392036
20
196.861118
11
134.001942
21
197.284117
0
LINE
8
boundary
62
5
39
2
10
134.001942
20
197.284117
11
133.794948
21
197.773853
0
LINE
8
boundary
62
5
39
2
10
133.794948
20
197.773853
11
133.767866
21
198.311204
0
LINE
8
boundary
62
5
39
2
10
133.767866
20
198.311204
11
133.920597
21
198.922020
0
LINE
8
boundary
62
5
39
2
10
133.920597
20
198.922020
11
133.639446
21
199.392353
0
LINE
8
boundary
62
5
39
2
10
133.639446
20
199.392353
11
133.103202
21
199.562824
0
LINE
8
boundary
62
5
39
2
10
133.103202
20
199.562824
11
132.599981
21
199.708291
0
LINE
8
boundary
62
5
39
2
10
132.599981
20
199.708291
11
132.068542
21
199.470582
0
LINE
8
boundary
62
5
39
2
10
132.068542
20
199.470582
11
131.863934
21
198.875124
0
LINE
8
boundary
62
5
39
2
10
131.863934
20
198.875124
11
131.548825
21
198.438928
0
LINE
8
boundary
62
5
39
2
10
131.548825
20
198.438928
11
131.108481
21
198.140939
0
LINE
8
boundary
62
5
39
2
10
131.108481
20
198.140939
11
130.586172
21
198.000770
0
LINE
8
boundary
62
5
39
2
10
130.586172
20
198.000770
11
130.061741
21
198.031458
0
LINE
8
boundary
62
5
39
2
10
130.061741
20
198.031458
11
129.551169
21
198.266776
0
LINE
8
boundary
62
5
39
2
10
129.551169
20
198.266776
11
129.139493
21
198.668753
0
LINE
8
boundary
62
5
39
2
10
129.139493
20
198.668753
11
128.907079
21
199.146964
0
LINE
8
boundary
62
5
39
2
10
128.907079
20
199.146964
11
128.851984
21
199.682142
0
LINE
8
boundary
62
5
39
2
10
128.851984
20
199.682142
11
128.972548
21
200.300115
0
LINE
8
boundary
62
5
39
2
10
128.972548
20
200.300115
11
128.667116
21
200.755159
0
LINE
8
boundary
62
5
39
2
10
128.667116
20
200.755159
11
128.122679
21
200.897336
0
LINE
8
boundary
62
5
39
2
10
128.122679
20
200.897336
11
127.612611
21
201.016242
0
LINE
8
boundary
62
5
39
2
10
127.612611
20
201.016242
11
127.094347
21
200.751039
0
LINE
8
boundary
62
5
39
2
10
127.094347
20
200.751039
11
126.921178
21
200.145728
0
LINE
8
boundary
62
5
39
2
10
126.921178
20
200.145728
11
126.629311
21
199.693660
0
LINE
8
boundary
62
5
39
2
10
126.629311
20
199.693660
11
126.205050
21
199.373046
0
LINE
8
boundary
62
5
39
2
10
126.205050
20
199.373046
11
125.690833
21
199.205693
0
LINE
8
boundary
62
5
39
2
10
125.690833
20
199.205693
11
125.165553
21
199.208934
0
LINE
8
boundary
62
5
39
2
10
125.165553
20
199.208934
11
124.643352
21
199.417163
0
LINE
8
boundary
62
5
39
2
10
124.643352
20
199.417163
11
124.211262
21
199.797106
0
LINE
8
boundary
62
5
39
2
10
124.211262
20
199.797106
11
123.954050
21
200.262448
0
LINE
8
boundary
62
5
39
2
10
123.954050
20
200.262448
11
123.871046
21
200.793999
0
LINE
8
boundary
62
5
39
2
10
123.871046
20
200.793999
11
123.959029
21
201.417471
0
LINE
8
boundary
62
5
39
2
10
123.959029
20
201.417471
11
123.630325
21
201.855939
0
LINE
8
boundary
62
5
39
2
10
123.630325
20
201.855939
11
123.079175
21
201.969351
0
LINE
8
boundary
62
5
39
2
10
123.079175
20
201.969351
11
122.563504
21
202.061381
0
LINE
8
boundary
62
5
39
2
10
122.563504
20
202.061381
11
122.059871
21
201.769514
0
LINE
8
boundary
62
5
39
2
10
122.059871
20
201.769514
11
121.918555
21
201.155895
0
LINE
8
boundary
62
5
39
2
10
121.918555
20
201.155895
11
121.650758
21
200.689203
0
LINE
8
boundary
62
5
39
2
10
121.650758
20
200.689203
11
121.243928
21
200.346812
0
LINE
8
boundary
62
5
39
2
10
121.243928
20
200.346812
11
120.739257
21
200.152783
0
LINE
8
boundary
62
5
39
2
10
120.739257
20
200.152783
11
120.214424
21
200.128473
0
LINE
8
boundary
62
5
39
2
10
120.214424
20
200.128473
11
119.682071
21
200.309118
0
LINE
8
boundary
62
5
39
2
10
119.682071
20
200.309118
11
119.230636
21
200.665960
0
LINE
8
boundary
62
5
39
2
10
119.230636
20
200.665960
11
118.949559
21
201.117199
0
LINE
8
boundary
62
5
39
2
10
118.949559
20
201.117199
11
118.838851
21
201.643765
0
LINE
8
boundary
62
5
39
2
10
118.838851
20
201.643765
11
118.894048
21
202.270865
0
LINE
8
boundary
62
5
39
2
10
118.894048
20
202.270865
11
118.542820
21
202.691488
0
LINE
8
boundary
62
5
39
2
10
118.542820
20
202.691488
11
117.986387
21
202.775952
0
LINE
8
boundary
62
5
39
2
10
117.986387
20
202.775952
11
117.466670
21
202.840906
0
LINE
8
boundary
62
5
39
2
10
117.466670
20
202.840906
11
116.979015
21
202.522999
0
LINE
8
boundary
62
5
39
2
10
116.979015
20
202.522999
11
116.870070
21
201.902943
0
LINE
8
boundary
62
5
39
2
10
116.870070
20
201.902943
11
116.627072
21
201.422763
0
LINE
8
boundary
62
5
39
2
10
116.627072
20
201.422763
11
116.238711
21
201.059511
0
LINE
8
boundary
62
5
39
2
10
116.238711
20
201.059511
11
115.744829
21
200.839442
0
LINE
8
boundary
62
5
39
2
10
115.744829
20
200.839442
11
115.222002
21
200.787714
0
LINE
8
boundary
62
5
39
2
10
115.222002
20
200.787714
11
114.680924
21
200.940263
0
LINE
8
boundary
62
5
39
2
10
114.680924
20
200.940263
11
114.236584
21
201.249360
0
LINE
8
boundary
62
5
39
2
10
114.236584
20
201.249360
11
113.907061
21
201.708926
0
LINE
8
boundary
62
5
39
2
10
113.907061
20
201.708926
11
113.768941
21
202.228849
0
LINE
8
boundary
62
5
39
2
10
113.768941
20
202.228849
11
113.791280
21
202.858026
0
LINE
8
boundary
62
5
39
2
10
113.791280
20
202.858026
11
113.418495
21
203.259761
0
LINE
8
boundary
62
5
39
2
10
113.418495
20
203.259761
11
112.858477
21
203.314969
0
LINE
8
boundary
62
5
39
2
10
112.858477
20
203.314969
11
112.336083
21
203.352636
0
LINE
8
boundary
62
5
39
2
10
112.336083
20
203.352636
11
111.865693
21
203.009616
0
LINE
8
boundary
62
5
39
2
10
111.865693
20
203.009616
11
111.789327
21
202.384690
0
LINE
8
boundary
62
5
39
2
10
111.789327
20
202.384690
11
111.571771
21
201.892466
0
LINE
8
boundary
62
5
39
2
10
111.571771
20
201.892466
11
111.202968
21
201.509405
0
LINE
8
boundary
62
5
39
2
10
111.202968
20
201.509405
11
110.721268
21
201.263810
0
LINE
8
boundary
62
5
39
2
10
110.721268
20
201.263810
11
110.201906
21
201.184741
0
LINE
8
boundary
62
5
39
2
10
110.201906
20
201.184741
11
109.653580
21
201.308773
0
LINE
8
boundary
62
5
39
2
10
109.653580
20
201.308773
11
109.193676
21
201.594151
0
LINE
8
boundary
62
5
39
2
10
109.193676
20
201.594151
11
108.840555
21
202.035862
0
LINE
8
boundary
62
5
39
2
10
108.840555
20
202.035862
11
108.675406
21
202.547798
0
LINE
8
boundary
62
5
39
2
10
108.675406
20
202.547798
11
108.664781
21
203.177393
0
LINE
8
boundary
62
5
39
2
10
108.664781
20
203.177393
11
108.271484
21
203.558943
0
LINE
8
boundary
62
5
39
2
10
108.271484
20
203.558943
11
107.709349
21
203.584738
0
LINE
8
boundary
62
5
39
2
10
107.709349
20
203.584738
11
107.185700
21
203.595015
0
LINE
8
boundary
62
5
39
2
10
107.185700
20
203.595015
11
106.733913
21
203.227916
0
LINE
8
boundary
62
5
39
2
10
106.733913
20
203.227916
11
106.690345
21
202.599775
0
LINE
8
boundary
62
5
39
2
10
106.690345
20
202.599775
11
106.498852
21
202.096972
0
LINE
8
boundary
62
5
39
2
10
106.498852
20
202.096972
11
106.150611
21
201.695125
0
LINE
8
boundary
62
5
39
2
10
106.150611
20
201.695125
11
105.682415
21
201.424526
0
LINE
8
boundary
62
5
39
2
10
105.682415
20
201.424526
11
105.167904
21
201.318452
0
LINE
8
boundary
62
5
39
2
10
105.167904
20
201.318452
11
104.613846
21
201.413556
0
LINE
8
boundary
62
5
39
2
10
104.613846
20
201.413556
11
104.139636
21
201.674522
0
LINE
8
boundary
62
5
39
2
10
104.139636
20
201.674522
11
103.763880
21
202.097177
0
LINE
8
boundary
62
5
39
2
10
103.763880
20
202.097177
11
103.572169
21
202.599775
0
LINE
8
boundary
62
5
39
2
10
103.572169
20
202.599775
11
103.528602
21
203.227916
0
LINE
8
boundary
62
5
39
2
10
103.528602
20
203.227916
11
103.115876
21
203.588388
0
LINE
8
boundary
62
5
39
2
10
103.115876
20
203.588388
11
102.553166
21
203.584738
0
LINE
8
boundary
62
5
39
2
10
102.553166
20
203.584738
11
102.029693
21
203.567618
0
LINE
8
boundary
62
5
39
2
10
102.029693
20
203.567618
11
101.597733
21
203.177393
0
LINE
8
boundary
62
5
39
2
10
101.597733
20
203.177393
11
101.587109
21
202.547798
0
LINE
8
boundary
62
5
39
2
10
101.587109
20
202.547798
11
101.422188
21
202.035650
0
LINE
8
boundary
62
5
39
2
10
101.422188
20
202.035650
11
101.095458
21
201.616060
0
LINE
8
boundary
62
5
39
2
10
101.095458
20
201.616060
11
100.642063
21
201.321498
0
LINE
8
boundary
62
5
39
2
10
100.642063
20
201.321498
11
100.133806
21
201.188514
0
LINE
8
boundary
62
5
39
2
10
100.133806
20
201.188514
11
99.575525
21
201.254595
0
LINE
8
boundary
62
5
39
2
10
99.575525
20
201.254595
11
99.088312
21
201.490366
0
LINE
8
boundary
62
5
39
2
10
99.088312
20
201.490366
11
98.690951
21
201.892678
0
LINE
8
boundary
62
5
39
2
10
98.690951
20
201.892678
11
98.473187
21
202.384690
0
LINE
8
boundary
62
5
39
2
10
98.473187
20
202.384690
11
98.396822
21
203.009616
0
LINE
8
boundary
62
5
39
2
10
98.396822
20
203.009616
11
97.965788
21
203.348033
0
LINE
8
boundary
62
5
39
2
10
97.965788
20
203.348033
11
97.404038
21
203.314969
0
LINE
8
boundary
62
5
39
2
10
97.404038
20
203.314969
11
96.882174
21
203.270458
0
LINE
8
boundary
62
5
39
2
10
96.882174
20
203.270458
11
96.471234
21
202.858026
0
LINE
8
boundary
62
5
39
2
10
96.471234
20
202.858026
11
96.493574
21
202.228849
0
LINE
8
boundary
62
5
39
2
10
96.493574
20
202.228849
11
96.355692
21
201.708720
0
LINE
8
boundary
62
5
39
2
10
96.355692
20
201.708720
11
96.051363
21
201.272627
0
LINE
8
boundary
62
5
39
2
10
96.051363
20
201.272627
11
95.614008
21
200.954721
0
LINE
8
boundary
62
5
39
2
10
95.614008
20
200.954721
11
95.113407
21
200.795327
0
LINE
8
boundary
62
5
39
2
10
95.113407
20
200.795327
11
94.552461
21
200.832068
0
LINE
8
boundary
62
5
39
2
10
94.552461
20
200.832068
11
94.053549
21
201.042018
0
LINE
8
boundary
62
5
39
2
10
94.053549
20
201.042018
11
93.635650
21
201.422969
0
LINE
8
boundary
62
5
39
2
10
93.635650
20
201.422969
11
93.392445
21
201.902943
0
LINE
8
boundary
62
5
39
2
10
93.392445
20
201.902943
11
93.283500
21
202.522999
0
LINE
8
boundary
62
5
39
2
10
93.283500
20
202.522999
11
92.835387
21
202.838378
0
LINE
8
boundary
62
5
39
2
10
92.835387
20
202.838378
11
92.276128
21
202.775951
0
LINE
8
boundary
62
5
39
2
10
92.276128
20
202.775951
11
91.757242
21
202.704154
0
LINE
8
boundary
62
5
39
2
10
91.757242
20
202.704154
11
91.368466
21
202.270865
0
LINE
8
boundary
62
5
39
2
10
91.368466
20
202.270865
11
91.423664
21
201.643765
0
LINE
8
boundary
62
5
39
2
10
91.423664
20
201.643765
11
91.313266
21
201.117095
0
LINE
8
boundary
62
5
39
2
10
91.313266
20
201.117095
11
91.032191
21
200.665652
0
LINE
8
boundary
62
5
39
2
10
91.032191
20
200.665652
11
90.612079
21
200.325223
0
LINE
8
boundary
62
5
39
2
10
90.612079
20
200.325223
11
90.120454
21
200.139919
0
LINE
8
boundary
62
5
39
2
10
90.120454
20
200.139919
11
89.558303
21
200.147241
0
LINE
8
boundary
62
5
39
2
10
89.558303
20
200.147241
11
89.049105
21
200.330784
0
LINE
8
boundary
62
5
39
2
10
89.049105
20
200.330784
11
88.611861
21
200.689408
0
LINE
8
boundary
62
5
39
2
10
88.611861
20
200.689408
11
88.343960
21
201.155895
0
LINE
8
boundary
62
5
39
2
10
88.343960
20
201.155895
11
88.202644
21
201.769514
0
LINE
8
boundary
62
5
39
2
10
88.202644
20
201.769514
11
87.738633
21
202.060956
0
LINE
8
boundary
62
5
39
2
10
87.738633
20
202.060956
11
87.183340
21
201.969351
0
LINE
8
boundary
62
5
39
2
10
87.183340
20
201.969351
11
86.669018
21
201.870574
0
LINE
8
boundary
62
5
39
2
10
86.669018
20
201.870574
11
86.303485
21
201.417471
0
LINE
8
boundary
62
5
39
2
10
86.303485
20
201.417471
11
86.391469
21
200.793999
0
LINE
8
boundary
62
5
39
2
10
86.391469
20
200.793999
11
86.308672
21
200.262345
0
LINE
8
boundary
62
5
39
2
10
86.308672
20
200.262345
11
86.051563
21
199.796894
0
LINE
8
boundary
62
5
39
2
10
86.051563
20
199.796894
11
85.649817
21
199.434888
0
LINE
8
boundary
62
5
39
2
10
85.649817
20
199.434888
11
85.168685
21
199.224158
0
LINE
8
boundary
62
5
39
2
10
85.168685
20
199.224158
11
84.606968
21
199.202063
0
LINE
8
boundary
62
5
39
2
10
84.606968
20
199.202063
11
84.088809
21
199.358654
0
LINE
8
boundary
62
5
39
2
10
84.088809
20
199.358654
11
83.657868
21
199.669945
0
LINE
8
boundary
62
5
39
2
10
83.657868
20
199.669945
11
83.341337
21
200.145728
0
LINE
8
boundary
62
5
39
2
10
83.341337
20
200.145728
11
83.168168
21
200.751039
0
LINE
8
boundary
62
5
39
2
10
83.168168
20
200.751039
11
82.689499
21
201.017866
0
LINE
8
boundary
62
5
39
2
10
82.689499
20
201.017866
11
82.139836
21
200.897335
0
LINE
8
boundary
62
5
39
2
10
82.139836
20
200.897335
11
81.631429
21
200.771683
0
LINE
8
boundary
62
5
39
2
10
81.631429
20
200.771683
11
81.289967
21
200.300115
0
LINE
8
boundary
62
5
39
2
10
81.289967
20
200.300115
11
81.410530
21
199.682142
0
LINE
8
boundary
62
5
39
2
10
81.410530
20
199.682142
11
81.355643
21
199.146861
0
LINE
8
boundary
62
5
39
2
10
81.355643
20
199.146861
11
81.123333
21
198.668547
0
LINE
8
boundary
62
5
39
2
10
81.123333
20
198.668547
11
80.741095
21
198.286091
0
LINE
8
boundary
62
5
39
2
10
80.741095
20
198.286091
11
80.271619
21
198.050431
0
LINE
8
boundary
62
5
39
2
10
80.271619
20
198.050431
11
79.711788
21
197.998900
0
LINE
8
boundary
62
5
39
2
10
79.711788
20
197.998900
11
79.186172
21
198.128266
0
LINE
8
boundary
62
5
39
2
10
79.186172
20
198.128266
11
78.739551
21
198.416625
0
LINE
8
boundary
62
5
39
2
10
78.739551
20
198.416625
11
78.398581
21
198.875124
0
LINE
8
boundary
62
5
39
2
10
78.398581
20
198.875124
11
78.193972
21
199.470581
0
LINE
8
boundary
62
5
39
2
10
78.193972
20
199.470581
11
77.701969
21
199.711991
0
LINE
8
boundary
62
5
39
2
10
77.701969
20
199.711991
11
77.159312
21
199.562824
0
LINE
8
boundary
62
5
39
2
10
77.159312
20
199.562824
11
76.658168
21
199.410713
0
LINE
8
boundary
62
5
39
2
10
76.658168
20
199.410713
11
76.341917
21
198.922020
0
LINE
8
boundary
62
5
39
2
10
76.341917
20
198.922020
11
76.494648
21
198.311204
0
LINE
8
boundary
62
5
39
2
10
76.494648
20
198.311204
11
76.467879
21
197.773749
0
LINE
8
boundary
62
5
39
2
10
76.467879
20
197.773749
11
76.260884
21
197.283911
0
LINE
8
boundary
62
5
39
2
10
76.260884
20
197.283911
11
75.899188
21
196.881962
0
LINE
8
boundary
62
5
39
2
10
75.899188
20
196.881962
11
75.442640
21
196.622065
0
LINE
8
boundary
62
5
39
2
10
75.442640
20
196.622065
11
74.886330
21
196.541320
0
LINE
8
boundary
62
5
39
2
10
74.886330
20
196.541320
11
74.354659
21
196.642927
0
LINE
8
boundary
62
5
39
2
10
74.354659
20
196.642927
11
73.893523
21
196.907519
0
LINE
8
boundary
62
5
39
2
10
73.893523
20
196.907519
11
73.529077
21
197.347619
0
LINE
8
boundary
62
5
39
2
10
73.529077
20
197.347619
11
73.293551
21
197.931455
0
LINE
8
boundary
62
5
39
2
10
73.293551
20
197.931455
11
72.789582
21
198.146796
0
LINE
8
boundary
62
5
39
2
10
72.789582
20
198.146796
11
72.255569
21
197.969432
0
LINE
8
boundary
62
5
39
2
10
72.255569
20
197.969432
11
71.762933
21
197.791384
0
LINE
8
boundary
62
5
39
2
10
71.762933
20
197.791384
11
71.472726
21
197.286715
0
LINE
8
boundary
62
5
39
2
10
71.472726
20
197.286715
11
71.657204
21
196.684717
0
LINE
8
boundary
62
5
39
2
10
71.657204
20
196.684717
11
71.658658
21
196.146638
0
LINE
8
boundary
62
5
39
2
10
71.658658
20
196.146638
11
71.477501
21
195.646632
0
LINE
8
boundary
62
5
39
2
10
71.477501
20
195.646632
11
71.137384
21
195.226315
0
LINE
8
boundary
62
5
39
2
10
71.137384
20
195.226315
11
70.695084
21
194.942860
0
LINE
8
boundary
62
5
39
2
10
70.695084
20
194.942860
11
70.143693
21
194.833142
0
LINE
8
boundary
62
5
39
2
10
70.143693
20
194.833142
11
69.607498
21
194.906815
0
LINE
8
boundary
62
5
39
2
10
69.607498
20
194.906815
11
69.133096
21
195.146857
0
LINE
8
boundary
62
5
39
2
10
69.133096
20
195.146857
11
68.746109
21
195.567259
0
LINE
8
boundary
62
5
39
2
10
68.746109
20
195.567259
11
68.480388
21
196.138027
0
LINE
8
boundary
62
5
39
2
10
68.480388
20
196.138027
11
67.965798
21
196.326669
0
LINE
8
boundary
62
5
39
2
10
67.965798
20
196.326669
11
67.441779
21
196.121628
0
LINE
8
boundary
62
5
39
2
10
67.441779
20
196.121628
11
66.959208
21
195.918061
0
LINE
8
boundary
62
5
39
2
10
66.959208
20
195.918061
11
66.695876
21
195.398858
0
LINE
8
boundary
62
5
39
2
10
66.695876
20
195.398858
11
66.911485
21
194.807343
0
LINE
8
boundary
62
5
39
2
10
66.911485
20
194.807343
11
66.941156
21
194.270093
0
LINE
8
boundary
62
5
39
2
10
66.941156
20
194.270093
11
66.786453
21
193.761270
0
LINE
8
boundary
62
5
39
2
10
66.786453
20
193.761270
11
66.468752
21
193.323730
0
LINE
8
boundary
62
5
39
2
10
66.468752
20
193.323730
11
66.041889
21
193.017515
0
LINE
8
boundary
62
5
39
2
10
66.041889
20
193.017515
11
65.497030
21
192.879090
0
LINE
8
boundary
62
5
39
2
10
65.497030
20
192.879090
11
64.957710
21
192.924642
0
LINE
8
boundary
62
5
39
2
10
64.957710
20
192.924642
11
64.471391
21
193.139490
0
LINE
8
boundary
62
5
39
2
10
64.471391
20
193.139490
11
64.062946
21
193.539027
0
LINE
8
boundary
62
5
39
2
10
64.062946
20
193.539027
11
63.767657
21
194.095159
0
LINE
8
boundary
62
5
39
2
10
63.767657
20
194.095159
11
63.243981
21
194.256595
0
LINE
8
boundary
62
5
39
2
10
63.243981
20
194.256595
11
62.731441
21
194.024396
0
LINE
8
boundary
62
5
39
2
10
62.731441
20
194.024396
11
62.260176
21
193.795825
0
LINE
8
boundary
62
5
39
2
10
62.260176
20
193.795825
11
62.024238
21
193.263656
0
LINE
8
boundary
62
5
39
2
10
62.024238
20
193.263656
11
62.270659
21
192.684180
0
LINE
8
boundary
62
5
39
2
10
62.270659
20
192.684180
11
62.328347
21
192.149208
0
LINE
8
boundary
62
5
39
2
10
62.328347
20
192.149208
11
62.200414
21
191.633021
0
LINE
8
boundary
62
5
39
2
10
62.200414
20
191.633021
11
61.906058
21
191.179500
0
LINE
8
boundary
62
5
39
2
10
61.906058
20
191.179500
11
61.495876
21
190.851302
0
LINE
8
boundary
62
5
39
2
10
61.495876
20
190.851302
11
60.958995
21
190.684534
0
LINE
8
boundary
62
5
39
2
10
60.958995
20
190.684534
11
60.418009
21
190.701781
0
LINE
8
boundary
62
5
39
2
10
60.418009
20
190.701781
11
59.921114
21
190.890967
0
LINE
8
boundary
62
5
39
2
10
59.921114
20
190.890967
11
59.492264
21
191.268520
0
LINE
8
boundary
62
5
39
2
10
59.492264
20
191.268520
11
59.168335
21
191.808470
0
LINE
8
boundary
62
5
39
2
10
59.168335
20
191.808470
11
58.636940
21
191.942302
0
LINE
8
boundary
62
5
39
2
10
58.636940
20
191.942302
11
58.137205
21
191.683551
0
LINE
8
boundary
62
5
39
2
10
58.137205
20
191.683551
11
57.678600
21
191.430586
0
LINE
8
boundary
62
5
39
2
10
57.678600
20
191.430586
11
57.470879
21
190.886803
0
LINE
8
boundary
62
5
39
2
10
57.470879
20
190.886803
11
57.747183
21
190.321013
0
LINE
8
boundary
62
5
39
2
10
57.747183
20
190.321013
11
57.832782
21
189.789783
0
LINE
8
boundary
62
5
39
2
10
57.832782
20
189.789783
11
57.732140
21
189.267679
0
LINE
8
boundary
62
5
39
2
10
57.732140
20
189.267679
11
57.461953
21
188.799321
0
LINE
8
boundary
62
5
39
2
10
57.461953
20
188.799321
11
57.069410
21
188.450159
0
LINE
8
boundary
62
5
39
2
10
57.069410
20
188.450159
11
56.541965
21
188.255535
0
LINE
8
boundary
62
5
39
2
10
56.541965
20
188.255535
11
56.000834
21
188.244404
0
LINE
8
boundary
62
5
39
2
10
56.000834
20
188.244404
11
55.494777
21
188.407279
0
LINE
8
boundary
62
5
39
2
10
55.494777
20
188.407279
11
55.046815
21
188.761969
0
LINE
8
boundary
62
5
39
2
10
55.046815
20
188.761969
11
54.694977
21
189.284175
0
LINE
8
boundary
62
5
39
2
10
54.694977
20
189.284175
11
54.157311
21
189.389994
0
LINE
8
boundary
62
5
39
2
10
54.157311
20
189.389994
11
53.671832
21
189.105504
0
LINE
8
boundary
62
5
39
2
10
53.671832
20
189.105504
11
53.227025
21
188.828892
0
LINE
8
boundary
62
5
39
2
10
53.227025
20
188.828892
11
53.048051
21
188.274935
0
LINE
8
boundary
62
5
39
2
10
53.048051
20
188.274935
11
53.353610
21
187.724399
0
LINE
8
boundary
62
5
39
2
10
53.353610
20
187.724399
11
53.466909
21
187.198359
0
LINE
8
boundary
62
5
39
2
10
53.466909
20
187.198359
11
53.393766
21
186.671690
0
LINE
8
boundary
62
5
39
2
10
53.393766
20
186.671690
11
53.148378
21
186.189845
0
LINE
8
boundary
62
5
39
2
10
53.148378
20
186.189845
11
52.774715
21
185.820563
0
LINE
8
boundary
62
5
39
2
10
52.774715
20
185.820563
11
52.258157
21
185.598610
0
LINE
8
boundary
62
5
39
2
10
52.258157
20
185.598610
11
51.718364
21
185.559228
0
LINE
8
boundary
62
5
39
2
10
51.718364
20
185.559228
11
51.204462
21
185.695361
0
LINE
8
boundary
62
5
39
2
10
51.204462
20
185.695361
11
50.763887
21
186.001770
0
LINE
8
boundary
62
5
39
2
10
50.763887
20
186.001770
11
50.359922
21
186.529124
0
LINE
8
boundary
62
5
39
2
10
50.359922
20
186.529124
11
49.817438
21
186.606770
0
LINE
8
boundary
62
5
39
2
10
49.817438
20
186.606770
11
49.347465
21
186.297234
0
LINE
8
boundary
62
5
39
2
10
49.347465
20
186.297234
11
48.917810
21
185.997682
0
LINE
8
boundary
62
5
39
2
10
48.917810
20
185.997682
11
48.768092
21
185.435119
0
LINE
8
boundary
62
5
39
2
10
48.768092
20
185.435119
11
49.101980
21
184.901400
0
LINE
8
boundary
62
5
39
2
10
49.101980
20
184.901400
11
49.242669
21
184.381992
0
LINE
8
boundary
62
5
39
2
10
49.242669
20
184.381992
11
49.197123
21
183.852203
0
LINE
8
boundary
62
5
39
2
10
49.197123
20
183.852203
11
48.977363
21
183.358120
0
LINE
8
boundary
62
5
39
2
10
48.977363
20
183.358120
11
48.623462
21
182.969889
0
LINE
8
boundary
62
5
39
2
10
48.623462
20
182.969889
11
48.119321
21
182.721222
0
LINE
8
boundary
62
5
39
2
10
48.119321
20
182.721222
11
47.582292
21
182.653572
0
LINE
8
boundary
62
5
39
2
10
47.582292
20
182.653572
11
47.062023
21
182.762671
0
LINE
8
boundary
62
5
39
2
10
47.062023
20
182.762671
11
46.605954
21
183.045570
0
LINE
8
boundary
62
5
39
2
10
46.605954
20
183.045570
11
46.174900
21
183.551101
0
LINE
8
boundary
62
5
39
2
10
46.174900
20
183.551101
11
45.629153
21
183.600134
0
LINE
8
boundary
62
5
39
2
10
45.629153
20
183.600134
11
45.176033
21
183.266501
0
LINE
8
boundary
62
5
39
2
10
45.176033
20
183.266501
11
44.762564
21
182.944935
0
LINE
8
boundary
62
5
39
2
10
44.762564
20
182.944935
11
44.642520
21
182.375234
0
LINE
8
boundary
62
5
39
2
10
44.642520
20
182.375234
11
45.003902
21
181.859768
0
LINE
8
boundary
62
5
39
2
10
45.003902
20
181.859768
11
45.171575
21
181.348359
0
LINE
8
boundary
62
5
39
2
10
45.171575
20
181.348359
11
45.153832
21
180.816911
0
LINE
8
boundary
62
5
39
2
10
45.153832
20
180.816911
11
44.960221
21
180.312037
0
LINE
8
boundary
62
5
39
2
10
44.960221
20
180.312037
11
44.627139
21
179.905764
0
LINE
8
boundary
62
5
39
2
10
44.627139
20
179.905764
11
44.136711
21
179.631057
0
LINE
8
boundary
62
5
39
2
10
44.136711
20
179.631057
11
43.603929
21
179.535419
0
LINE
8
boundary
62
5
39
2
10
43.603929
20
179.535419
11
43.078666
21
179.617122
0
LINE
8
boundary
62
5
39
2
10
43.078666
20
179.617122
11
42.608447
21
179.875839
0
LINE
8
boundary
62
5
39
2
10
42.608447
20
179.875839
11
42.151526
21
180.358097
0
LINE
8
boundary
62
5
39
2
10
42.151526
20
180.358097
11
41.603890
21
180.378561
0
LINE
8
boundary
62
5
39
2
10
41.603890
20
180.378561
11
41.168852
21
180.021514
0
LINE
8
boundary
62
5
39
2
10
41.168852
20
180.021514
11
40.772916
21
179.678809
0
LINE
8
boundary
62
5
39
2
10
40.772916
20
179.678809
11
40.682751
21
179.103680
0
LINE
8
boundary
62
5
39
2
10
40.682751
20
179.103680
11
41.070699
21
178.607726
0
LINE
8
boundary
62
5
39
2
10
41.070699
20
178.607726
11
41.264825
21
178.105855
0
LINE
8
boundary
62
5
39
2
10
41.264825
20
178.105855
11
41.274993
21
177.574207
0
LINE
8
boundary
62
5
39
2
10
41.274993
20
177.574207
11
41.108051
21
177.059886
0
LINE
8
boundary
62
5
39
2
10
41.108051
20
177.059886
11
40.771154
21
176.610204
0
LINE
8
boundary
62
5
39
2
10
40.771154
20
176.610204
11
40.321306
21
176.336753
0
LINE
8
boundary
62
5
39
2
10
40.321306
20
176.336753
11
39.794292
21
176.213382
0
LINE
8
boundary
62
5
39
2
10
39.794292
20
176.213382
11
39.265390
21
176.267492
0
LINE
8
boundary
62
5
39
2
10
39.265390
20
176.267492
11
38.782270
21
176.501195
0
LINE
8
boundary
62
5
39
2
10
38.782270
20
176.501195
11
38.300816
21
176.958928
0
LINE
8
boundary
62
5
39
2
10
38.300816
20
176.958928
11
37.752835
21
176.950673
0
LINE
8
boundary
62
5
39
2
10
37.752835
20
176.950673
11
37.337121
21
176.571398
0
LINE
8
boundary
62
5
39
2
10
37.337121
20
176.571398
11
36.959553
21
176.208357
0
LINE
8
boundary
62
5
39
2
10
36.959553
20
176.208357
11
36.899685
21
175.629292
0
LINE
8
boundary
62
5
39
2
10
36.899685
20
175.629292
11
37.313050
21
175.154394
0
LINE
8
boundary
62
5
39
2
10
37.313050
20
175.154394
11
37.533221
21
174.663423
0
LINE
8
boundary
62
5
39
2
10
37.533221
20
174.663423
11
37.571094
21
174.133017
0
LINE
8
boundary
62
5
39
2
10
37.571094
20
174.133017
11
37.431332
21
173.610604
0
LINE
8
boundary
62
5
39
2
10
37.431332
20
173.610604
11
37.118403
21
173.143906
0
LINE
8
boundary
62
5
39
2
10
37.118403
20
173.143906
11
36.683528
21
172.847302
0
LINE
8
boundary
62
5
39
2
10
36.683528
20
172.847302
11
36.163665
21
172.696472
0
LINE
8
boundary
62
5
39
2
10
36.163665
20
172.696472
11
35.632723
21
172.722849
0
LINE
8
boundary
62
5
39
2
10
35.632723
20
172.722849
11
35.138003
21
172.930944
0
LINE
8
boundary
62
5
39
2
10
35.138003
20
172.930944
11
34.633223
21
173.362830
0
LINE
8
boundary
62
5
39
2
10
34.633223
20
173.362830
11
34.086463
21
173.325902
0
LINE
8
boundary
62
5
39
2
10
34.086463
20
173.325902
11
33.691117
21
172.925394
0
LINE
8
boundary
62
5
39
2
10
33.691117
20
172.925394
11
33.333048
21
172.543155
0
LINE
8
boundary
62
5
39
2
10
33.333048
20
172.543155
11
33.303586
21
171.961699
0
LINE
8
boundary
62
5
39
2
10
33.303586
20
171.961699
11
33.741229
21
171.509116
0
LINE
8
boundary
62
5
39
2
10
33.741229
20
171.509116
11
33.986817
21
171.030281
0
LINE
8
boundary
62
5
39
2
10
33.986817
20
171.030281
11
34.052396
21
170.502576
0
LINE
8
boundary
62
5
39
2
10
34.052396
20
170.502576
11
33.940127
21
169.973624
0
LINE
8
boundary
62
5
39
2
10
33.940127
20
169.973624
11
33.652105
21
169.491155
0
LINE
8
boundary
62
5
39
2
10
33.652105
20
169.491155
11
33.233290
21
169.172233
0
LINE
8
boundary
62
5
39
2
10
33.233290
20
169.172233
11
32.722078
21
168.994427
0
LINE
8
boundary
62
5
39
2
10
32.722078
20
168.994427
11
32.190481
21
168.992919
0
LINE
8
boundary
62
5
39
2
10
32.190481
20
168.992919
11
31.685576
21
169.174867
0
LINE
8
boundary
62
5
39
2
10
31.685576
20
169.174867
11
31.158835
21
169.579764
0
LINE
8
boundary
62
5
39
2
10
31.158835
20
169.579764
11
30.614789
21
169.514213
0
LINE
8
boundary
62
5
39
2
10
30.614789
20
169.514213
11
30.241000
21
169.093662
0
LINE
8
boundary
62
5
39
2
10
30.241000
20
169.093662
11
29.903382
21
168.693166
0
LINE
8
boundary
62
5
39
2
10
29.903382
20
168.693166
11
29.904417
21
168.110989
0
LINE
8
boundary
62
5
39
2
10
29.904417
20
168.110989
11
30.365097
21
167.681848
0
LINE
8
boundary
62
5
39
2
10
30.365097
20
167.681848
11
30.635380
21
167.216603
0
LINE
8
boundary
62
5
39
2
10
30.635380
20
167.216603
11
30.728550
21
166.693046
0
LINE
8
boundary
62
5
39
2
10
30.728550
20
166.693046
11
30.644095
21
166.158909
0
LINE
8
boundary
62
5
39
2
10
30.644095
20
166.158909
11
30.381696
21
165.662017
0
LINE
8
boundary
62
5
39
2
10
30.381696
20
165.662017
11
29.980182
21
165.321556
0
LINE
8
boundary
62
5
39
2
10
29.980182
20
165.321556
11
29.478970
21
165.117268
0
LINE
8
boundary
62
5
39
2
10
29.478970
20
165.117268
11
28.948116
21
165.088035
0
LINE
8
boundary
62
5
39
2
10
28.948116
20
165.088035
11
28.434413
21
165.243285
0
LINE
8
boundary
62
5
39
2
10
28.434413
20
165.243285
11
27.887280
21
165.619995
0
LINE
8
boundary
62
5
39
2
10
27.887280
20
165.619995
11
27.347382
21
165.526134
0
LINE
8
boundary
62
5
39
2
10
27.347382
20
165.526134
11
26.996013
21
165.086482
0
LINE
8
boundary
62
5
39
2
10
26.996013
20
165.086482
11
26.679971
21
164.668860
0
LINE
8
boundary
62
5
39
2
10
26.679971
20
164.668860
11
26.711413
21
164.087615
0
LINE
8
boundary
62
5
39
2
10
26.711413
20
164.087615
11
27.193979
21
163.683170
0
LINE
8
boundary
62
5
39
2
10
27.193979
20
163.683170
11
27.488231
21
163.232659
0
LINE
8
boundary
62
5
39
2
10
27.488231
20
163.232659
11
27.608597
21
162.714710
0
LINE
8
boundary
62
5
39
2
10
27.608597
20
162.714710
11
27.552248
21
162.176940
0
LINE
8
boundary
62
5
39
2
10
27.552248
20
162.176940
11
27.316203
21
161.666972
0
LINE
8
boundary
62
5
39
2
10
27.316203
20
161.666972
11
26.933061
21
161.306034
0
LINE
8
boundary
62
5
39
2
10
26.933061
20
161.306034
11
26.443198
21
161.075738
0
LINE
8
boundary
62
5
39
2
10
26.443198
20
161.075738
11
25.914692
21
161.018718
0
LINE
8
boundary
62
5
39
2
10
25.914692
20
161.018718
11
25.393526
21
161.146886
0
LINE
8
boundary
62
5
39
2
10
25.393526
20
161.146886
11
24.827396
21
161.494423
0
LINE
8
boundary
62
5
39
2
10
24.827396
20
161.494423
11
24.293145
21
161.372406
0
LINE
8
boundary
62
5
39
2
10
24.293145
20
161.372406
11
23.965281
21
160.915050
0
LINE
8
boundary
62
5
39
2
10
23.965281
20
160.915050
11
23.671447
21
160.481452
0
LINE
8
boundary
62
5
39
2
10
23.671447
20
160.481452
11
23.733391
21
159.902593
0
LINE
8
boundary
62
5
39
2
10
23.733391
20
159.902593
11
24.236395
21
159.523989
0
LINE
8
boundary
62
5
39
2
10
24.236395
20
159.523989
11
24.553890
21
159.089555
0
LINE
8
boundary
62
5
39
2
10
24.553890
20
159.089555
11
24.701229
21
158.578558
0
LINE
8
boundary
62
5
39
2
10
24.701229
20
158.578558
11
24.673111
21
158.038608
0
LINE
8
boundary
62
5
39
2
10
24.673111
20
158.038608
11
24.464046
21
157.516916
0
LINE
8
boundary
62
5
39
2
10
24.464046
20
157.516916
11
24.100294
21
157.136433
0
LINE
8
boundary
62
5
39
2
10
24.100294
20
157.136433
11
23.623161
21
156.880875
0
LINE
8
boundary
62
5
39
2
10
23.623161
20
156.880875
11
23.098274
21
156.796260
0
LINE
8
boundary
62
5
39
2
10
23.098274
20
156.796260
11
22.571191
21
156.896983
0
LINE
8
boundary
62
5
39
2
10
22.571191
20
156.896983
11
21.987580
21
157.214464
0
LINE
8
boundary
62
5
39
2
10
21.987580
20
157.214464
11
21.433623
21
157.035490
0
LINE
8
boundary
62
5
39
2
10
21.433623
20
157.035490
11
21.157011
21
156.590683
0
LINE
8
boundary
62
5
39
2
10
21.157011
20
156.590683
11
20.886303
21
156.142352
0
LINE
8
boundary
62
5
39
2
10
20.886303
20
156.142352
11
20.978339
21
155.567538
0
LINE
8
boundary
62
5
39
2
10
20.978339
20
155.567538
11
21.500546
21
155.215700
0
LINE
8
boundary
62
5
39
2
10
21.500546
20
155.215700
11
21.840350
21
154.798496
0
LINE
8
boundary
62
5
39
2
10
21.840350
20
154.798496
11
22.014250
21
154.296004
0
LINE
8
boundary
62
5
39
2
10
22.014250
20
154.296004
11
22.014353
21
153.755222
0
LINE
8
boundary
62
5
39
2
10
22.014353
20
153.755222
11
21.832878
21
153.223365
0
LINE
8
boundary
62
5
39
2
10
21.832878
20
153.223365
11
21.489621
21
152.824344
0
LINE
8
boundary
62
5
39
2
10
21.489621
20
152.824344
11
21.026505
21
152.544101
0
LINE
8
boundary
62
5
39
2
10
21.026505
20
152.544101
11
20.506770
21
152.432200
0
LINE
8
boundary
62
5
39
2
10
20.506770
20
152.432200
11
19.975138
21
152.505141
0
LINE
8
boundary
62
5
39
2
10
19.975138
20
152.505141
11
19.375712
21
152.791636
0
LINE
8
boundary
62
5
39
2
10
19.375712
20
152.791636
11
18.831825
21
152.583915
0
LINE
8
boundary
62
5
39
2
10
18.831825
20
152.583915
11
18.578964
21
152.125309
0
LINE
8
boundary
62
5
39
2
10
18.578964
20
152.125309
11
18.332026
21
151.663389
0
LINE
8
boundary
62
5
39
2
10
18.332026
20
151.663389
11
18.454045
21
151.094180
0
LINE
8
boundary
62
5
39
2
10
18.454045
20
151.094180
11
18.993994
21
150.770250
0
LINE
8
boundary
62
5
39
2
10
18.993994
20
150.770250
11
19.355067
21
150.371307
0
LINE
8
boundary
62
5
39
2
10
19.355067
20
150.371307
11
19.555007
21
149.878568
0
LINE
8
boundary
62
5
39
2
10
19.555007
20
149.878568
11
19.583536
21
149.338618
0
LINE
8
boundary
62
5
39
2
10
19.583536
20
149.338618
11
19.430087
21
148.797942
0
LINE
8
boundary
62
5
39
2
10
19.430087
20
148.797942
11
19.108166
21
148.381522
0
LINE
8
boundary
62
5
39
2
10
19.108166
20
148.381522
11
18.660396
21
148.077473
0
LINE
8
boundary
62
5
39
2
10
18.660396
20
148.077473
11
18.147185
21
147.938420
0
LINE
8
boundary
62
5
39
2
10
18.147185
20
147.938420
11
17.612477
21
147.983475
0
LINE
8
boundary
62
5
39
2
10
17.612477
20
147.983475
11
16.998858
21
148.238277
0
LINE
8
boundary
62
5
39
2
10
16.998858
20
148.238277
11
16.466690
21
148.002338
0
LINE
8
boundary
62
5
39
2
10
16.466690
20
148.002338
11
16.238119
21
147.531074
0
LINE
8
boundary
62
5
39
2
10
16.238119
20
147.531074
11
16.015767
21
147.056905
0
LINE
8
boundary
62
5
39
2
10
16.015767
20
147.056905
11
16.167356
21
146.494857
0
LINE
8
boundary
62
5
39
2
10
16.167356
20
146.494857
11
16.723488
21
146.199569
0
LINE
8
boundary
62
5
39
2
10
16.723488
20
146.199569
11
17.104999
21
145.820126
0
LINE
8
boundary
62
5
39
2
10
17.104999
20
145.820126
11
17.330463
21
145.338490
0
LINE
8
boundary
62
5
39
2
10
17.330463
20
145.338490
11
17.387116
21
144.800823
0
LINE
8
boundary
62
5
39
2
10
17.387116
20
144.800823
11
17.262299
21
144.252885
0
LINE
8
boundary
62
5
39
2
10
17.262299
20
144.252885
11
16.938572
21
143.793862
0
LINE
8
boundary
62
5
39
2
10
16.938572
20
143.793862
11
16.501033
21
143.476370
0
LINE
8
boundary
62
5
39
2
10
16.501033
20
143.476370
11
15.992319
21
143.321671
0
LINE
8
boundary
62
5
39
2
10
15.992319
20
143.321671
11
15.455172
21
143.351030
0
LINE
8
boundary
62
5
39
2
10
15.455172
20
143.351030
11
14.863657
21
143.566638
0
LINE
8
boundary
62
5
39
2
10
14.863657
20
143.566638
11
14.344454
21
143.303204
0
LINE
8
boundary
62
5
39
2
10
14.344454
20
143.303204
11
14.140887
21
142.820736
0
LINE
8
boundary
62
5
39
2
10
14.140887
20
142.820736
11
13.943643
21
142.335567
0
LINE
8
boundary
62
5
39
2
10
13.943643
20
142.335567
11
14.094367
21
141.809296
0
LINE
8
boundary
62
5
39
2
10
14.094367
20
141.809296
11
14.695256
21
141.516406
0
LINE
8
boundary
62
5
39
2
10
14.695256
20
141.516406
11
15.096068
21
141.157414
0
LINE
8
boundary
62
5
39
2
10
15.096068
20
141.157414
11
15.346428
21
140.688326
0
LINE
8
boundary
62
5
39
2
10
15.346428
20
140.688326
11
15.431203
21
140.154292
0
LINE
8
boundary
62
5
39
2
10
15.431203
20
140.154292
11
15.335224
21
139.600541
0
LINE
8
boundary
62
5
39
2
10
15.335224
20
139.600541
11
15.035993
21
139.125234
0
LINE
8
boundary
62
5
39
2
10
15.035993
20
139.125234
11
14.615670
21
138.785329
0
LINE
8
boundary
62
5
39
2
10
14.615670
20
138.785329
11
14.115774
21
138.604172
0
LINE
8
boundary
62
5
39
2
10
14.115774
20
138.604172
11
13.577798
21
138.605310
0
LINE
8
boundary
62
5
39
2
10
13.577798
20
138.605310
11
12.975800
21
138.789789
0
LINE
8
boundary
62
5
39
2
10
12.975800
20
138.789789
11
12.471131
21
138.499479
0
LINE
8
boundary
62
5
39
2
10
12.471131
20
138.499479
11
12.293083
21
138.006946
0
LINE
8
boundary
62
5
39
2
10
12.293083
20
138.006946
11
12.121467
21
137.512130
0
LINE
8
boundary
62
5
39
2
10
12.121467
20
137.512130
11
12.299579
21
136.994510
0
LINE
8
boundary
62
5
39
2
10
12.299579
20
136.994510
11
12.914896
21
136.733438
0
LINE
8
boundary
62
5
39
2
10
12.914896
20
136.733438
11
13.334069
21
136.395919
0
LINE
8
boundary
62
5
39
2
10
13.334069
20
136.395919
11
13.608616
21
135.940632
0
LINE
8
boundary
62
5
39
2
10
13.608616
20
135.940632
11
13.721188
21
135.411683
0
LINE
8
boundary
62
5
39
2
10
13.721188
20
135.411683
11
13.654265
21
134.853783
0
LINE
8
boundary
62
5
39
2
10
13.654265
20
134.853783
11
13.380347
21
134.363430
0
LINE
8
boundary
62
5
39
2
10
13.380347
20
134.363430
11
12.978397
21
134.001943
0
LINE
8
boundary
62
5
39
2
10
12.978397
20
134.001943
11
12.488662
21
133.794948
0
LINE
8
boundary
62
5
39
2
10
12.488662
20
133.794948
11
11.951310
21
133.767866
0
LINE
8
boundary
62
5
39
2
10
11.951310
20
133.767866
11
11.340495
21
133.920598
0
LINE
8
boundary
62
5
39
2
10
11.340495
20
133.920598
11
10.851801
21
133.604347
0
LINE
8
boundary
62
5
39
2
10
10.851801
20
133.604347
11
10.699691
21
133.103203
0
LINE
8
boundary
62
5
39
2
10
10.699691
20
133.103203
11
10.554224
21
132.599981
0
LINE
8
boundary
62
5
39
2
10
10.554224
20
132.599981
11
10.759150
21
132.092412
0
LINE
8
boundary
62
5
39
2
10
10.759150
20
132.092412
11
11.387391
21
131.863934
0
LINE
8
boundary
62
5
39
2
10
11.387391
20
131.863934
11
11.823587
21
131.548825
0
LINE
8
boundary
62
5
39
2
10
11.823587
20
131.548825
11
12.121576
21
131.108481
0
LINE
8
boundary
62
5
39
2
10
12.121576
20
131.108481
11
12.261744
21
130.586172
0
LINE
8
boundary
62
5
39
2
10
12.261744
20
130.586172
11
12.224083
21
130.025471
0
LINE
8
boundary
62
5
39
2
10
12.224083
20
130.025471
11
11.976206
21
129.521525
0
LINE
8
boundary
62
5
39
2
10
11.976206
20
129.521525
11
11.593762
21
129.139493
0
LINE
8
boundary
62
5
39
2
10
11.593762
20
129.139493
11
11.115551
21
128.907079
0
LINE
8
boundary
62
5
39
2
10
11.115551
20
128.907079
11
10.580373
21
128.851984
0
LINE
8
boundary
62
5
39
2
10
10.580373
20
128.851984
11
9.962399
21
128.972548
0
LINE
8
boundary
62
5
39
2
10
9.962399
20
128.972548
11
9.490832
21
128.631086
0
LINE
8
boundary
62
5
39
2
10
9.490832
20
128.631086
11
9.365179
21
128.122679
0
LINE
8
boundary
62
5
39
2
10
9.365179
20
128.122679
11
9.246273
21
127.612611
0
LINE
8
boundary
62
5
39
2
10
9.246273
20
127.612611
11
9.477494
21
127.116460
0
LINE
8
boundary
62
5
39
2
10
9.477494
20
127.116460
11
10.116787
21
126.921178
0
LINE
8
boundary
62
5
39
2
10
10.116787
20
126.921178
11
10.568855
21
126.629311
0
LINE
8
boundary
62
5
39
2
10
10.568855
20
126.629311
11
10.889469
21
126.205050
0
LINE
8
boundary
62
5
39
2
10
10.889469
20
126.205050
11
11.056822
21
125.690833
0
LINE
8
boundary
62
5
39
2
10
11.056822
20
125.690833
11
11.048525
21
125.128991
0
LINE
8
boundary
62
5
39
2
10
11.048525
20
125.128991
11
10.827414
21
124.612697
0
LINE
8
boundary
62
5
39
2
10
10.827414
20
124.612697
11
10.465409
21
124.211263
0
LINE
8
boundary
62
5
39
2
10
10.465409
20
124.211263
11
10.000067
21
123.954050
0
LINE
8
boundary
62
5
39
2
10
10.000067
20
123.954050
11
9.468516
21
123.871046
0
LINE
8
boundary
62
5
39
2
10
9.468516
20
123.871046
11
8.845044
21
123.959030
0
LINE
8
boundary
62
5
39
2
10
8.845044
20
123.959030
11
8.391940
21
123.593496
0
LINE
8
boundary
62
5
39
2
10
8.391940
20
123.593496
11
8.293164
21
123.079175
0
LINE
8
boundary
62
5
39
2
10
8.293164
20
123.079175
11
8.201133
21
122.563504
0
LINE
8
boundary
62
5
39
2
10
8.201133
20
122.563504
11
8.457928
21
122.080174
0
LINE
8
boundary
62
5
39
2
10
8.457928
20
122.080174
11
9.106619
21
121.918555
0
LINE
8
boundary
62
5
39
2
10
9.106619
20
121.918555
11
9.573312
21
121.650758
0
LINE
8
boundary
62
5
39
2
10
9.573312
20
121.650758
11
9.915703
21
121.243928
0
LINE
8
boundary
62
5
39
2
10
9.915703
20
121.243928
11
10.109732
21
120.739257
0
LINE
8
boundary
62
5
39
2
10
10.109732
20
120.739257
11
10.130903
21
120.177623
0
LINE
8
boundary
62
5
39
2
10
10.130903
20
120.177623
11
9.937086
21
119.650538
0
LINE
8
boundary
62
5
39
2
10
9.937086
20
119.650538
11
9.596554
21
119.230636
0
LINE
8
boundary
62
5
39
2
10
9.596554
20
119.230636
11
9.145316
21
118.949559
0
LINE
8
boundary
62
5
39
2
10
9.145316
20
118.949559
11
8.618750
21
118.838851
0
LINE
8
boundary
62
5
39
2
10
8.618750
20
118.838851
11
7.991650
21
118.894048
0
LINE
8
boundary
62
5
39
2
10
7.991650
20
118.894048
11
7.558361
21
118.505273
0
LINE
8
boundary
62
5
39
2
10
7.558361
20
118.505273
11
7.486563
21
117.986387
0
LINE
8
boundary
62
5
39
2
10
7.486563
20
117.986387
11
7.421609
21
117.466670
0
LINE
8
boundary
62
5
39
2
10
7.421609
20
117.466670
11
7.703407
21
116.997455
0
LINE
8
boundary
62
5
39
2
10
7.703407
20
116.997455
11
8.359572
21
116.870070
0
LINE
8
boundary
62
5
39
2
10
8.359572
20
116.870070
11
8.839751
21
116.627072
0
LINE
8
boundary
62
5
39
2
10
8.839751
20
116.627072
11
9.203004
21
116.238712
0
LINE
8
boundary
62
5
39
2
10
9.203004
20
116.238712
11
9.423073
21
115.744829
0
LINE
8
boundary
62
5
39
2
10
9.423073
20
115.744829
11
9.473603
21
115.185094
0
LINE
8
boundary
62
5
39
2
10
9.473603
20
115.185094
11
9.307588
21
114.648579
0
LINE
8
boundary
62
5
39
2
10
9.307588
20
114.648579
11
8.989579
21
114.211411
0
LINE
8
boundary
62
5
39
2
10
8.989579
20
114.211411
11
8.553589
21
113.907062
0
LINE
8
boundary
62
5
39
2
10
8.553589
20
113.907062
11
8.033665
21
113.768941
0
LINE
8
boundary
62
5
39
2
10
8.033665
20
113.768941
11
7.404489
21
113.791280
0
LINE
8
boundary
62
5
39
2
10
7.404489
20
113.791280
11
6.992056
21
113.380321
0
LINE
8
boundary
62
5
39
2
10
6.992056
20
113.380321
11
6.947546
21
112.858477
0
LINE
8
boundary
62
5
39
2
10
6.947546
20
112.858477
11
6.909879
21
112.336084
0
LINE
8
boundary
62
5
39
2
10
6.909879
20
112.336084
11
7.215884
21
111.882210
0
LINE
8
boundary
62
5
39
2
10
7.215884
20
111.882210
11
7.877825
21
111.789327
0
LINE
8
boundary
62
5
39
2
10
7.877825
20
111.789327
11
8.370049
21
111.571771
0
LINE
8
boundary
62
5
39
2
10
8.370049
20
111.571771
11
8.753111
21
111.202968
0
LINE
8
boundary
62
5
39
2
10
8.753111
20
111.202968
11
8.998705
21
110.721268
0
LINE
8
boundary
62
5
39
2
10
8.998705
20
110.721268
11
9.078490
21
110.164987
0
LINE
8
boundary
62
5
39
2
10
9.078490
20
110.164987
11
8.940811
21
109.620514
0
LINE
8
boundary
62
5
39
2
10
8.940811
20
109.620514
11
8.646146
21
109.167306
0
LINE
8
boundary
62
5
39
2
10
8.646146
20
109.167306
11
8.226653
21
108.840555
0
LINE
8
boundary
62
5
39
2
10
8.226653
20
108.840555
11
7.714717
21
108.675406
0
LINE
8
boundary
62
5
39
2
10
7.714717
20
108.675406
11
7.085122
21
108.664781
0
LINE
8
boundary
62
5
39
2
10
7.085122
20
108.664781
11
6.694897
21
108.232811
0
LINE
8
boundary
62
5
39
2
10
6.694897
20
108.232811
11
6.677777
21
107.709349
0
LINE
8
boundary
62
5
39
2
10
6.677777
20
107.709349
11
6.667500
21
107.185700
0
LINE
8
boundary
62
5
39
2
10
6.667500
20
107.185700
11
6.996757
21
106.748468
0
LINE
8
boundary
62
5
39
2
10
6.996757
20
106.748468
11
7.662740
21
106.690345
0
LINE
8
boundary
62
5
39
2
10
7.662740
20
106.690345
11
8.165543
21
106.498852
0
LINE
8
boundary
62
5
39
2
10
8.165543
20
106.498852
11
8.567390
21
106.150611
0
LINE
8
boundary
62
5
39
2
10
8.567390
20
106.150611
11
8.837989
21
105.682416
0
LINE
8
boundary
62
5
39
2
10
8.837989
20
105.682416
11
8.946721
21
105.131074
0
LINE
8
boundary
62
5
39
2
10
8.946721
20
105.131074
11
8.837783
21
104.580149
0
LINE
8
boundary
62
5
39
2
10
8.837783
20
104.580149
11
8.567184
21
104.112137
0
LINE
8
boundary
62
5
39
2
10
8.567184
20
104.112137
11
8.165337
21
103.763880
0
LINE
8
boundary
62
5
39
2
10
8.165337
20
103.763880
11
7.662740
21
103.572169
0
LINE
8
boundary
62
5
39
2
10
7.662740
20
103.572169
11
7.034598
21
103.528602
0
LINE
8
boundary
62
5
39
2
10
7.034598
20
103.528602
11
6.667500
21
103.076794
0
LINE
8
boundary
62
5
39
2
10
6.667500
20
103.076794
11
6.677777
21
102.553165
0
LINE
8
boundary
62
5
39
2
10
6.677777
20
102.553165
11
6.694897
21
102.029693
0
LINE
8
boundary
62
5
39
2
10
6.694897
20
102.029693
11
7.046593
21
101.610288
0
LINE
8
boundary
62
5
39
2
10
7.046593
20
101.610288
11
7.714717
21
101.587109
0
LINE
8
boundary
62
5
39
2
10
7.714717
20
101.587109
11
8.226864
21
101.422188
0
LINE
8
boundary
62
5
39
2
10
8.226864
20
101.422188
11
8.646455
21
101.095458
0
LINE
8
boundary
62
5
39
2
10
8.646455
20
101.095458
11
8.941017
21
100.642063
0
LINE
8
boundary
62
5
39
2
10
8.941017
20
100.642063
11
9.078605
21
100.097164
0
LINE
8
boundary
62
5
39
2
10
9.078605
20
100.097164
11
8.998499
21
99.541288
0
LINE
8
boundary
62
5
39
2
10
8.998499
20
99.541288
11
8.752802
21
99.059765
0
LINE
8
boundary
62
5
39
2
10
8.752802
20
99.059765
11
8.369837
21
98.690951
0
LINE
8
boundary
62
5
39
2
10
8.369837
20
98.690951
11
7.877825
21
98.473187
0
LINE
8
boundary
62
5
39
2
10
7.877825
20
98.473187
11
7.252899
21
98.396822
0
LINE
8
boundary
62
5
39
2
10
7.252899
20
98.396822
11
6.909879
21
97.926410
0
LINE
8
boundary
62
5
39
2
10
6.909879
20
97.926410
11
6.947546
21
97.404038
0
LINE
8
boundary
62
5
39
2
10
6.947546
20
97.404038
11
6.992056
21
96.882173
0
LINE
8
boundary
62
5
39
2
10
6.992056
20
96.882173
11
7.365318
21
96.481756
0
LINE
8
boundary
62
5
39
2
10
7.365318
20
96.481756
11
8.033665
21
96.493574
0
LINE
8
boundary
62
5
39
2
10
8.033665
20
96.493574
11
8.553795
21
96.355692
0
LINE
8
boundary
62
5
39
2
10
8.553795
20
96.355692
11
8.989888
21
96.051364
0
LINE
8
boundary
62
5
39
2
10
8.989888
20
96.051364
11
9.307794
21
95.614008
0
LINE
8
boundary
62
5
39
2
10
9.307794
20
95.614008
11
9.473706
21
95.077058
0
LINE
8
boundary
62
5
39
2
10
9.473706
20
95.077058
11
9.422861
21
94.517788
0
LINE
8
boundary
62
5
39
2
10
9.422861
20
94.517788
11
9.202695
21
94.024012
0
LINE
8
boundary
62
5
39
2
10
9.202695
20
94.024012
11
8.839545
21
93.635650
0
LINE
8
boundary
62
5
39
2
10
8.839545
20
93.635650
11
8.359572
21
93.392445
0
LINE
8
boundary
62
5
39
2
10
8.359572
20
93.392445
11
7.739515
21
93.283500
0
LINE
8
boundary
62
5
39
2
10
7.739515
20
93.283500
11
7.421608
21
92.795741
0
LINE
8
boundary
62
5
39
2
10
7.421608
20
92.795741
11
7.486564
21
92.276128
0
LINE
8
boundary
62
5
39
2
10
7.486564
20
92.276128
11
7.558361
21
91.757242
0
LINE
8
boundary
62
5
39
2
10
7.558361
20
91.757242
11
7.952001
21
91.376928
0
LINE
8
boundary
62
5
39
2
10
7.952001
20
91.376928
11
8.618750
21
91.423664
0
LINE
8
boundary
62
5
39
2
10
8.618750
20
91.423664
11
9.145419
21
91.313266
0
LINE
8
boundary
62
5
39
2
10
9.145419
20
91.313266
11
9.596863
21
91.032191
0
LINE
8
boundary
62
5
39
2
10
9.596863
20
91.032191
11
9.937292
21
90.612080
0
LINE
8
boundary
62
5
39
2
10
9.937292
20
90.612080
11
10.131006
21
90.084477
0
LINE
8
boundary
62
5
39
2
10
10.131006
20
90.084477
11
10.109526
21
89.523258
0
LINE
8
boundary
62
5
39
2
10
10.109526
20
89.523258
11
9.915497
21
89.018690
0
LINE
8
boundary
62
5
39
2
10
9.915497
20
89.018690
11
9.573106
21
88.611861
0
LINE
8
boundary
62
5
39
2
10
9.573106
20
88.611861
11
9.106620
21
88.343960
0
LINE
8
boundary
62
5
39
2
10
9.106620
20
88.343960
11
8.493000
21
88.202644
0
LINE
8
boundary
62
5
39
2
10
8.493000
20
88.202644
11
8.201133
21
87.698905
0
LINE
8
boundary
62
5
39
2
10
8.201133
20
87.698905
11
8.293164
21
87.183340
0
LINE
8
boundary
62
5
39
2
10
8.293164
20
87.183340
11
8.391940
21
86.669019
0
LINE
8
boundary
62
5
39
2
10
8.391940
20
86.669019
11
8.804995
21
86.309845
0
LINE
8
boundary
62
5
39
2
10
8.804995
20
86.309845
11
9.468516
21
86.391469
0
LINE
8
boundary
62
5
39
2
10
9.468516
20
86.391469
11
10.000169
21
86.308672
0
LINE
8
boundary
62
5
39
2
10
10.000169
20
86.308672
11
10.465621
21
86.051563
0
LINE
8
boundary
62
5
39
2
10
10.465621
20
86.051563
11
10.827627
21
85.649817
0
LINE
8
boundary
62
5
39
2
10
10.827627
20
85.649817
11
11.048628
21
85.133214
0
LINE
8
boundary
62
5
39
2
10
11.048628
20
85.133214
11
11.056513
21
84.571682
0
LINE
8
boundary
62
5
39
2
10
11.056513
20
84.571682
11
10.889251
21
84.057570
0
LINE
8
boundary
62
5
39
2
10
10.889251
20
84.057570
11
10.568649
21
83.633413
0
LINE
8
boundary
62
5
39
2
10
10.568649
20
83.633413
11
10.116787
21
83.341337
0
LINE
8
boundary
62
5
39
2
10
10.116787
20
83.341337
11
9.511476
21
83.168168
0
LINE
8
boundary
62
5
39
2
10
9.511476
20
83.168168
11
9.246273
21
82.649903
0
LINE
8
boundary
62
5
39
2
10
9.246273
20
82.649903
11
9.365179
21
82.139836
0
LINE
8
boundary
62
5
39
2
10
9.365179
20
82.139836
11
9.490832
21
81.631429
0
LINE
8
boundary
62
5
39
2
10
9.490832
20
81.631429
11
9.922084
21
81.294251
0
LINE
8
boundary
62
5
39
2
10
9.922084
20
81.294251
11
10.580373
21
81.410531
0
LINE
8
boundary
62
5
39
2
10
10.580373
20
81.410531
11
11.115654
21
81.355644
0
LINE
8
boundary
62
5
39
2
10
11.115654
20
81.355644
11
11.593968
21
81.123333
0
LINE
8
boundary
62
5
39
2
10
11.593968
20
81.123333
11
11.976424
21
80.741095
0
LINE
8
boundary
62
5
39
2
10
11.976424
20
80.741095
11
12.224192
21
80.236733
0
LINE
8
boundary
62
5
39
2
10
12.224192
20
80.236733
11
12.261539
21
79.676343
0
LINE
8
boundary
62
5
39
2
10
12.261539
20
79.676343
11
12.121261
21
79.154240
0
LINE
8
boundary
62
5
39
2
10
12.121261
20
79.154240
11
11.823272
21
78.713899
0
LINE
8
boundary
62
5
39
2
10
11.823272
20
78.713899
11
11.387391
21
78.398581
0
LINE
8
boundary
62
5
39
2
10
11.387391
20
78.398581
11
10.791934
21
78.193972
0
LINE
8
boundary
62
5
39
2
10
10.791934
20
78.193972
11
10.554224
21
77.662534
0
LINE
8
boundary
62
5
39
2
10
10.554224
20
77.662534
11
10.699691
21
77.159312
0
LINE
8
boundary
62
5
39
2
10
10.699691
20
77.159312
11
10.851801
21
76.658168
0
LINE
8
boundary
62
5
39
2
10
10.851801
20
76.658168
11
11.300022
21
76.344073
0
LINE
8
boundary
62
5
39
2
10
11.300022
20
76.344073
11
11.951310
21
76.494648
0
LINE
8
boundary
62
5
39
2
10
11.951310
20
76.494648
11
12.488765
21
76.467879
0
LINE
8
boundary
62
5
39
2
10
12.488765
20
76.467879
11
12.978603
21
76.260884
0
LINE
8
boundary
62
5
39
2
10
12.978603
20
76.260884
11
13.380553
21
75.899188
0
LINE
8
boundary
62
5
39
2
10
13.380553
20
75.899188
11
13.654368
21
75.408420
0
LINE
8
boundary
62
5
39
2
10
13.654368
20
75.408420
11
13.720982
21
74.850832
0
LINE
8
boundary
62
5
39
2
10
13.720982
20
74.850832
11
13.608307
21
74.322088
0
LINE
8
boundary
62
5
39
2
10
13.608307
20
74.322088
11
13.333760
21
73.866699
0
LINE
8
boundary
62
5
39
2
10
13.333760
20
73.866699
11
12.914896
21
73.529077
0
LINE
8
boundary
62
5
39
2
10
12.914896
20
73.529077
11
12.331059
21
73.293551
0
LINE
8
boundary
62
5
39
2
10
12.331059
20
73.293551
11
12.121467
21
72.750385
0
LINE
8
boundary
62
5
39
2
10
12.121467
20
72.750385
11
12.293083
21
72.255569
0
LINE
8
boundary
62
5
39
2
10
12.293083
20
72.255569
11
12.471131
21
71.762933
0
LINE
8
boundary
62
5
39
2
10
12.471131
20
71.762933
11
12.935246
21
71.472779
0
LINE
8
boundary
62
5
39
2
10
12.935246
20
71.472779
11
13.577798
21
71.657205
0
LINE
8
boundary
62
5
39
2
10
13.577798
20
71.657205
11
14.115876
21
71.658658
0
LINE
8
boundary
62
5
39
2
10
14.115876
20
71.658658
11
14.615882
21
71.477501
0
LINE
8
boundary
62
5
39
2
10
14.615882
20
71.477501
11
15.036199
21
71.137384
0
LINE
8
boundary
62
5
39
2
10
15.036199
20
71.137384
11
15.335327
21
70.661662
0
LINE
8
boundary
62
5
39
2
10
15.335327
20
70.661662
11
15.430997
21
70.108223
0
LINE
8
boundary
62
5
39
2
10
15.430997
20
70.108223
11
15.346119
21
69.574395
0
LINE
8
boundary
62
5
39
2
10
15.346119
20
69.574395
11
15.095862
21
69.105210
0
LINE
8
boundary
62
5
39
2
10
15.095862
20
69.105210
11
14.695256
21
68.746109
0
LINE
8
boundary
62
5
39
2
10
14.695256
20
68.746109
11
14.124488
21
68.480388
0
LINE
8
boundary
62
5
39
2
10
14.124488
20
68.480388
11
13.943643
21
67.926948
0
LINE
8
boundary
62
5
39
2
10
13.943643
20
67.926948
11
14.140887
21
67.441779
0
LINE
8
boundary
62
5
39
2
10
14.140887
20
67.441779
11
14.344454
21
66.959208
0
LINE
8
boundary
62
5
39
2
10
14.344454
20
66.959208
11
14.823155
21
66.693774
0
LINE
8
boundary
62
5
39
2
10
14.823155
20
66.693774
11
15.455172
21
66.911485
0
LINE
8
boundary
62
5
39
2
10
15.455172
20
66.911485
11
15.992422
21
66.941156
0
LINE
8
boundary
62
5
39
2
10
15.992422
20
66.941156
11
16.501244
21
66.786454
0
LINE
8
boundary
62
5
39
2
10
16.501244
20
66.786454
11
16.938784
21
66.468752
0
LINE
8
boundary
62
5
39
2
10
16.938784
20
66.468752
11
17.262402
21
66.009318
0
LINE
8
boundary
62
5
39
2
10
17.262402
20
66.009318
11
17.386910
21
65.461692
0
LINE
8
boundary
62
5
39
2
10
17.386910
20
65.461692
11
17.330052
21
64.924128
0
LINE
8
boundary
62
5
39
2
10
17.330052
20
64.924128
11
17.104690
21
64.442492
0
LINE
8
boundary
62
5
39
2
10
17.104690
20
64.442492
11
16.723488
21
64.062946
0
LINE
8
boundary
62
5
39
2
10
16.723488
20
64.062946
11
16.167356
21
63.767658
0
LINE
8
boundary
62
5
39
2
10
16.167356
20
63.767658
11
16.015767
21
63.205610
0
LINE
8
boundary
62
5
39
2
10
16.015767
20
63.205610
11
16.238119
21
62.731441
0
LINE
8
boundary
62
5
39
2
10
16.238119
20
62.731441
11
16.466690
21
62.260176
0
LINE
8
boundary
62
5
39
2
10
16.466690
20
62.260176
11
16.958544
21
62.020033
0
LINE
8
boundary
62
5
39
2
10
16.958544
20
62.020033
11
17.578335
21
62.270659
0
LINE
8
boundary
62
5
39
2
10
17.578335
20
62.270659
11
18.113307
21
62.328347
0
LINE
8
boundary
62
5
39
2
10
18.113307
20
62.328347
11
18.629494
21
62.200414
0
LINE
8
boundary
62
5
39
2
10
18.629494
20
62.200414
11
19.083015
21
61.906058
0
LINE
8
boundary
62
5
39
2
10
19.083015
20
61.906058
11
19.430293
21
61.464264
0
LINE
8
boundary
62
5
39
2
10
19.430293
20
61.464264
11
19.583330
21
60.923896
0
LINE
8
boundary
62
5
39
2
10
19.583330
20
60.923896
11
19.554692
21
60.384055
0
LINE
8
boundary
62
5
39
2
10
19.554692
20
60.384055
11
19.354758
21
59.891311
0
LINE
8
boundary
62
5
39
2
10
19.354758
20
59.891311
11
18.993994
21
59.492265
0
LINE
8
boundary
62
5
39
2
10
18.993994
20
59.492265
11
18.454045
21
59.168335
0
LINE
8
boundary
62
5
39
2
10
18.454045
20
59.168335
11
18.332026
21
58.599126
0
LINE
8
boundary
62
5
39
2
10
18.332026
20
58.599126
11
18.578964
21
58.137206
0
LINE
8
boundary
62
5
39
2
10
18.578964
20
58.137206
11
18.831852
21
57.678600
0
LINE
8
boundary
62
5
39
2
10
18.831852
20
57.678600
11
19.335664
21
57.464573
0
LINE
8
boundary
62
5
39
2
10
19.335664
20
57.464573
11
19.941502
21
57.747183
0
LINE
8
boundary
62
5
39
2
10
19.941502
20
57.747183
11
20.472732
21
57.832782
0
LINE
8
boundary
62
5
39
2
10
20.472732
20
57.832782
11
20.994835
21
57.732140
0
LINE
8
boundary
62
5
39
2
10
20.994835
20
57.732140
11
21.463193
21
57.461953
0
LINE
8
boundary
62
5
39
2
10
21.463193
20
57.461953
11
21.833083
21
57.038835
0
LINE
8
boundary
62
5
39
2
10
21.833083
20
57.038835
11
22.014135
21
56.507184
0
LINE
8
boundary
62
5
39
2
10
22.014135
20
56.507184
11
22.013826
21
55.966614
0
LINE
8
boundary
62
5
39
2
10
22.013826
20
55.966614
11
21.840042
21
55.464122
0
LINE
8
boundary
62
5
39
2
10
21.840042
20
55.464122
11
21.500546
21
55.046814
0
LINE
8
boundary
62
5
39
2
10
21.500546
20
55.046814
11
20.978339
21
54.694977
0
LINE
8
boundary
62
5
39
2
10
20.978339
20
54.694977
11
20.886303
21
54.120163
0
LINE
8
boundary
62
5
39
2
10
20.886303
20
54.120163
11
21.157010
21
53.671832
0
LINE
8
boundary
62
5
39
2
10
21.157010
20
53.671832
11
21.433623
21
53.227025
0
LINE
8
boundary
62
5
39
2
10
21.433623
20
53.227025
11
21.947931
21
53.039667
0
LINE
8
boundary
62
5
39
2
10
21.947931
20
53.039667
11
22.538115
21
53.353610
0
LINE
8
boundary
62
5
39
2
10
22.538115
20
53.353610
11
23.064156
21
53.466909
0
LINE
8
boundary
62
5
39
2
10
23.064156
20
53.466909
11
23.590825
21
53.393766
0
LINE
8
boundary
62
5
39
2
10
23.590825
20
53.393766
11
24.072670
21
53.148378
0
LINE
8
boundary
62
5
39
2
10
24.072670
20
53.148378
11
24.464252
21
52.745283
0
LINE
8
boundary
62
5
39
2
10
24.464252
20
52.745283
11
24.672899
21
52.223804
0
LINE
8
boundary
62
5
39
2
10
24.672899
20
52.223804
11
24.700811
21
51.683957
0
LINE
8
boundary
62
5
39
2
10
24.700811
20
51.683957
11
24.553581
21
51.173062
0
LINE
8
boundary
62
5
39
2
10
24.553581
20
51.173062
11
24.236395
21
50.738526
0
LINE
8
boundary
62
5
39
2
10
24.236395
20
50.738526
11
23.733391
21
50.359922
0
LINE
8
boundary
62
5
39
2
10
23.733391
20
50.359922
11
23.671549
21
49.781063
0
LINE
8
boundary
62
5
39
2
10
23.671549
20
49.781063
11
23.965281
21
49.347465
0
LINE
8
boundary
62
5
39
2
10
23.965281
20
49.347465
11
24.264833
21
48.917810
0
LINE
8
boundary
62
5
39
2
10
24.264833
20
48.917810
11
24.788226
21
48.757633
0
LINE
8
boundary
62
5
39
2
10
24.788226
20
48.757633
11
25.361114
21
49.101980
0
LINE
8
boundary
62
5
39
2
10
25.361114
20
49.101980
11
25.880523
21
49.242669
0
LINE
8
boundary
62
5
39
2
10
25.880523
20
49.242669
11
26.410312
21
49.197123
0
LINE
8
boundary
62
5
39
2
10
26.410312
20
49.197123
11
26.904395
21
48.977363
0
LINE
8
boundary
62
5
39
2
10
26.904395
20
48.977363
11
27.316415
21
48.595228
0
LINE
8
boundary
62
5
39
2
10
27.316415
20
48.595228
11
27.552042
21
48.085472
0
LINE
8
boundary
62
5
39
2
10
27.552042
20
48.085472
11
27.608276
21
47.547805
0
LINE
8
boundary
62
5
39
2
10
27.608276
20
47.547805
11
27.487923
21
47.029959
0
LINE
8
boundary
62
5
39
2
10
27.487923
20
47.029959
11
27.193979
21
46.579345
0
LINE
8
boundary
62
5
39
2
10
27.193979
20
46.579345
11
26.711414
21
46.174900
0
LINE
8
boundary
62
5
39
2
10
26.711414
20
46.174900
11
26.679972
21
45.593552
0
LINE
8
boundary
62
5
39
2
10
26.679972
20
45.593552
11
26.996013
21
45.176033
0
LINE
8
boundary
62
5
39
2
10
26.996013
20
45.176033
11
27.317657
21
44.762565
0
LINE
8
boundary
62
5
39
2
10
27.317657
20
44.762565
11
27.848696
21
44.630013
0
LINE
8
boundary
62
5
39
2
10
27.848696
20
44.630013
11
28.402747
21
45.003902
0
LINE
8
boundary
62
5
39
2
10
28.402747
20
45.003902
11
28.914156
21
45.171576
0
LINE
8
boundary
62
5
39
2
10
28.914156
20
45.171576
11
29.445603
21
45.153832
0
LINE
8
boundary
62
5
39
2
10
29.445603
20
45.153832
11
29.950478
21
44.960221
0
LINE
8
boundary
62
5
39
2
10
29.950478
20
44.960221
11
30.382005
21
44.600183
0
LINE
8
boundary
62
5
39
2
10
30.382005
20
44.600183
11
30.643992
21
44.103503
0
LINE
8
boundary
62
5
39
2
10
30.643992
20
44.103503
11
30.728241
21
43.569469
0
LINE
8
boundary
62
5
39
2
10
30.728241
20
43.569469
11
30.635175
21
43.046015
0
LINE
8
boundary
62
5
39
2
10
30.635175
20
43.046015
11
30.365097
21
42.580666
0
LINE
8
boundary
62
5
39
2
10
30.365097
20
42.580666
11
29.904417
21
42.151526
0
LINE
8
boundary
62
5
39
2
10
29.904417
20
42.151526
11
29.903382
21
41.569349
0
LINE
8
boundary
62
5
39
2
10
29.903382
20
41.569349
11
30.241001
21
41.168852
0
LINE
8
boundary
62
5
39
2
10
30.241001
20
41.168852
11
30.583706
21
40.772916
0
LINE
8
boundary
62
5
39
2
10
30.583706
20
40.772916
11
31.120994
21
40.668248
0
LINE
8
boundary
62
5
39
2
10
31.120994
20
40.668248
11
31.654789
21
41.070699
0
LINE
8
boundary
62
5
39
2
10
31.654789
20
41.070699
11
32.156660
21
41.264825
0
LINE
8
boundary
62
5
39
2
10
32.156660
20
41.264825
11
32.688307
21
41.274993
0
LINE
8
boundary
62
5
39
2
10
32.688307
20
41.274993
11
33.202629
21
41.108052
0
LINE
8
boundary
62
5
39
2
10
33.202629
20
41.108052
11
33.625702
21
40.796726
0
LINE
8
boundary
62
5
39
2
10
33.625702
20
40.796726
11
33.940024
21
40.288789
0
LINE
8
boundary
62
5
39
2
10
33.940024
20
40.288789
11
34.052087
21
39.759939
0
LINE
8
boundary
62
5
39
2
10
34.052087
20
39.759939
11
33.986508
21
39.232234
0
LINE
8
boundary
62
5
39
2
10
33.986508
20
39.232234
11
33.741229
21
38.753399
0
LINE
8
boundary
62
5
39
2
10
33.741229
20
38.753399
11
33.303586
21
38.300816
0
LINE
8
boundary
62
5
39
2
10
33.303586
20
38.300816
11
33.333048
21
37.719360
0
LINE
8
annotation
62
1
39
211
10
184.967238
20
105.131258
11
184.967238
21
106.560007
0
LINE
8
annotation
62
1
39
211
10
25.295276
20
105.131258
11
26.724026
21
105.131257
0
LINE
8
annotation
62
1
39
211
10
105.131257
20
183.902263
11
105.131257
21
185.331013
0
LINE
8
annotation
62
1
39
211
10
105.131257
20
183.902263
11
105.131257
21
185.331013
0
LINE
8
annotation
62
1
39
211
10
105.131257
20
185.331013
11
105.131257
21
183.902263
0
LINE
8
annotation
62
1
39
211
10
105.131257
20
183.902263
11
106.560007
21
183.902263
0
LINE
8
annotation
62
1
39
211
10
105.131257
20
26.360251
11
105.131257
21
24.931502
0
LINE
8
annotation
62
1
39
211
10
156.290632
20
69.212376
11
121.652922
21
69.212376
0
LINE
8
annotation
62
1
39
211
10
121.652922
20
69.212376
11
153.659301
21
120.738538
0
LINE
8
annotation
62
1
39
211
10
153.659301
20
120.738538
11
153.659301
21
120.738538
0
LINE
8
annotation
62
1
39
211
10
153.659301
20
120.738538
11
153.697563
21
120.785885
0
LINE
8
annotation
62
1
39
211
10
153.697563
20
120.785885
11
153.734255
21
120.833633
0
LINE
8
annotation
62
1
39
211
10
153.734255
20
120.833633
11
153.769619
21
120.882187
0
LINE
8
annotation
62
1
39
211
10
153.769619
20
120.882187
11
153.803896
21
120.931949
0
LINE
8
annotation
62
1
39
211
10
153.803896
20
120.931949
11
153.837327
21
120.983321
0
LINE
8
annotation
62
1
39
211
10
153.837327
20
120.983321
11
153.870155
21
121.036705
0
LINE
8
annotation
62
1
39
211
10
153.870155
20
121.036705
11
153.902620
21
121.092505
0
LINE
8
annotation
62
1
39
211
10
153.902620
20
121.092505
11
153.934965
21
121.151123
0
LINE
8
annotation
62
1
39
211
10
153.934965
20
121.151123
11
153.967431
21
121.212960
0
LINE
8
annotation
62
1
39
211
10
153.967431
20
121.212960
11
153.967431
21
121.212960
0
LINE
8
annotation
62
1
39
211
10
153.967431
20
121.212960
11
155.288967
21
124.050409
0
LINE
8
annotation
62
1
39
211
10
155.288967
20
124.050409
11
156.060985
21
126.991675
0
LINE
8
annotation
62
1
39
211
10
156.060985
20
126.991675
11
156.302407
21
129.970298
0
LINE
8
annotation
62
1
39
211
10
156.302407
20
129.970298
11
156.032150
21
132.919816
0
LINE
8
annotation
62
1
39
211
10
156.032150
20
132.919816
11
155.269135
21
135.773769
0
LINE
8
annotation
62
1
39
211
10
155.269135
20
135.773769
11
154.032281
21
138.465697
0
LINE
8
annotation
62
1
39
211
10
154.032281
20
138.465697
11
152.340509
21
140.929139
0
LINE
8
annotation
62
1
39
211
10
152.340509
20
140.929139
11
150.212737
21
143.097635
0
LINE
8
annotation
62
1
39
211
10
150.212737
20
143.097635
11
147.667887
21
144.904724
0
LINE
8
annotation
62
1
39
211
10
147.667887
20
144.904724
11
147.667887
21
144.904724
0
LINE
8
annotation
62
1
39
211
10
147.667887
20
144.904724
11
144.822548
21
146.207481
0
LINE
8
annotation
62
1
39
211
10
144.822548
20
146.207481
11
141.876773
21
146.967605
0
LINE
8
annotation
62
1
39
211
10
141.876773
20
146.967605
11
138.896420
21
147.202203
0
LINE
8
annotation
62
1
39
211
10
138.896420
20
147.202203
11
135.947345
21
146.928383
0
LINE
8
annotation
62
1
39
211
10
135.947345
20
146.928383
11
133.095404
21
146.163255
0
LINE
8
annotation
62
1
39
211
10
133.095404
20
146.163255
11
130.406455
21
144.923925
0
LINE
8
annotation
62
1
39
211
10
130.406455
20
144.923925
11
127.946354
21
143.227504
0
LINE
8
annotation
62
1
39
211
10
127.946354
20
143.227504
11
125.780958
21
141.091098
0
LINE
8
annotation
62
1
39
211
10
125.780958
20
141.091098
11
123.976123
21
138.531816
0
LINE
8
annotation
62
1
39
211
10
123.976123
20
138.531816
11
121.701831
21
134.169088
0
LINE
8
frame
62
5
39
2
10
0.000000
20
0.000000
11
215.900000
21
0.000000
0
LINE
8
frame
62
5
39
2
10
215.900000
20
0.000000
11
215.900000
21
279.400000
0
LINE
8
frame
62
5
39
2
10
215.900000
20
279.400000
11
0.000000
21
279.400000
0
LINE
8
frame
62
5
39
2
10
0.000000
20
279.400000
11
0.000000
21
0.000000
0
ENDSEC
0
EOF
