0
SECTION
2
HEADER
9
$ACADVER
1
AC1009
0
ENDSEC
0
SECTION
2
TABLES
0
TABLE
2
VPORT
70
1
0
VPORT
2
ACTIVE
70
0
10
0.0
20
0.0
11
0.0
21
0.0
12
0.0
22
0.0
13
0.0
23
0.0
14
0.0
24
0.0
15
0.0
25
0.0
16
0.0
26
0.0
36
0.0
17
0.0
27
0.0
37
0.0
40
0.0
41
0.0
42
0.0
43
0.0
44
0.0
50
0.0
51
0.0
71
0
72
1000
73
1
74
3
75
0
76
0
77
0
78
0
0
ENDTAB
0
ENDSEC
0
SECTION
2
ENTITIES
0
LINE
8
hole
62
5
39
2
10
183.616513
20
104.845507
11
184.188013
21
104.845507
0
LINE
8
hole
62
5
39
2
10
184.188013
20
104.845507
11
184.188013
21
105.417007
0
LINE
8
hole
62
5
39
2
10
184.188013
20
105.417007
11
183.616513
21
105.417007
0
LINE
8
hole
62
5
39
2
10
183.616513
20
105.417007
11
183.616513
21
104.845507
0
LINE
8
hole
62
5
39
2
10
26.074501
20
104.845507
11
26.646001
21
104.845507
0
LINE
8
hole
62
5
39
2
10
26.646001
20
104.845507
11
26.646001
21
105.417007
0
LINE
8
hole
62
5
39
2
10
26.646001
20
105.417007
11
26.074501
21
105.417007
0
LINE
8
hole
62
5
39
2
10
26.074501
20
105.417007
11
26.074501
21
104.845507
0
LINE
8
hole
62
5
39
2
10
98.422928
20
97.559123
11
97.835385
21
98.123476
0
LINE
8
hole
62
5
39
2
10
97.835385
20
98.123476
11
97.488846
21
98.514633
0
LINE
8
hole
62
5
39
2
10
97.488846
20
98.514633
11
96.981212
21
99.151047
0
LINE
8
hole
62
5
39
2
10
96.981212
20
99.151047
11
96.526430
21
99.826244
0
LINE
8
hole
62
5
39
2
10
96.526430
20
99.826244
11
96.127458
21
100.535848
0
LINE
8
hole
62
5
39
2
10
96.127458
20
100.535848
11
95.786877
21
101.275252
0
LINE
8
hole
62
5
39
2
10
95.786877
20
101.275252
11
95.506899
21
102.039666
0
LINE
8
hole
62
5
39
2
10
95.506899
20
102.039666
11
95.289338
21
102.824131
0
LINE
8
hole
62
5
39
2
10
95.289338
20
102.824131
11
95.135606
21
103.623560
0
LINE
8
hole
62
5
39
2
10
95.135606
20
103.623560
11
95.046701
21
104.432764
0
LINE
8
hole
62
5
39
2
10
95.046701
20
104.432764
11
95.023197
21
105.246497
0
LINE
8
hole
62
5
39
2
10
95.023197
20
105.246497
11
95.065247
21
106.059483
0
LINE
8
hole
62
5
39
2
10
95.065247
20
106.059483
11
95.172577
21
106.866451
0
LINE
8
hole
62
5
39
2
10
95.172577
20
106.866451
11
95.344495
21
107.662166
0
LINE
8
hole
62
5
39
2
10
95.344495
20
107.662166
11
95.579884
21
108.441468
0
LINE
8
hole
62
5
39
2
10
95.579884
20
108.441468
11
95.877219
21
109.199298
0
LINE
8
hole
62
5
39
2
10
95.877219
20
109.199298
11
96.234566
21
109.930748
0
LINE
8
hole
62
5
39
2
10
96.234566
20
109.930748
11
96.649616
21
110.631071
0
LINE
8
hole
62
5
39
2
10
96.649616
20
110.631071
11
97.119669
21
111.295724
0
LINE
8
hole
62
5
39
2
10
97.119669
20
111.295724
11
97.641684
21
111.920398
0
LINE
8
hole
62
5
39
2
10
97.641684
20
111.920398
11
98.046046
21
112.341385
0
LINE
8
hole
62
5
39
2
10
98.046046
20
112.341385
11
98.422928
21
112.703392
0
LINE
8
hole
62
5
39
2
10
98.422928
20
112.703392
11
99.053985
21
113.218637
0
LINE
8
hole
62
5
39
2
10
99.053985
20
113.218637
11
99.724460
21
113.681422
0
LINE
8
hole
62
5
39
2
10
99.724460
20
113.681422
11
100.429994
21
114.088771
0
LINE
8
hole
62
5
39
2
10
100.429994
20
114.088771
11
101.166023
21
114.438015
0
LINE
8
hole
62
5
39
2
10
101.166023
20
114.438015
11
101.927762
21
114.726905
0
LINE
8
hole
62
5
39
2
10
101.927762
20
114.726905
11
102.710274
21
114.953561
0
LINE
8
hole
62
5
39
2
10
102.710274
20
114.953561
11
103.508494
21
115.116521
0
LINE
8
hole
62
5
39
2
10
103.508494
20
115.116521
11
104.317236
21
115.214716
0
LINE
8
hole
62
5
39
2
10
104.317236
20
115.214716
11
105.131257
21
115.247525
0
LINE
8
hole
62
5
39
2
10
105.131257
20
115.247525
11
105.945279
21
115.214717
0
LINE
8
hole
62
5
39
2
10
105.945279
20
115.214717
11
106.754021
21
115.116521
0
LINE
8
hole
62
5
39
2
10
106.754021
20
115.116521
11
107.552241
21
114.953561
0
LINE
8
hole
62
5
39
2
10
107.552241
20
114.953561
11
108.334752
21
114.726905
0
LINE
8
hole
62
5
39
2
10
108.334752
20
114.726905
11
109.096491
21
114.438015
0
LINE
8
hole
62
5
39
2
10
109.096491
20
114.438015
11
109.832520
21
114.088771
0
LINE
8
hole
62
5
39
2
10
109.832520
20
114.088771
11
110.538054
21
113.681422
0
LINE
8
hole
62
5
39
2
10
110.538054
20
113.681422
11
111.208529
21
113.218637
0
LINE
8
hole
62
5
39
2
10
111.208529
20
113.218637
11
111.839587
21
112.703392
0
LINE
8
hole
62
5
39
2
10
111.839587
20
112.703392
11
112.427130
21
112.139039
0
LINE
8
hole
62
5
39
2
10
112.427130
20
112.139039
11
112.773669
21
111.747882
0
LINE
8
hole
62
5
39
2
10
112.773669
20
111.747882
11
113.281303
21
111.111468
0
LINE
8
hole
62
5
39
2
10
113.281303
20
111.111468
11
113.736084
21
110.436272
0
LINE
8
hole
62
5
39
2
10
113.736084
20
110.436272
11
114.135056
21
109.726667
0
LINE
8
hole
62
5
39
2
10
114.135056
20
109.726667
11
114.475638
21
108.987263
0
LINE
8
hole
62
5
39
2
10
114.475638
20
108.987263
11
114.755616
21
108.222849
0
LINE
8
hole
62
5
39
2
10
114.755616
20
108.222849
11
114.973177
21
107.438384
0
LINE
8
hole
62
5
39
2
10
114.973177
20
107.438384
11
115.126909
21
106.638955
0
LINE
8
hole
62
5
39
2
10
115.126909
20
106.638955
11
115.215813
21
105.829751
0
LINE
8
hole
62
5
39
2
10
115.215813
20
105.829751
11
115.239317
21
105.016018
0
LINE
8
hole
62
5
39
2
10
115.239317
20
105.016018
11
115.197268
21
104.203032
0
LINE
8
hole
62
5
39
2
10
115.197268
20
104.203032
11
115.089938
21
103.396064
0
LINE
8
hole
62
5
39
2
10
115.089938
20
103.396064
11
114.918019
21
102.600349
0
LINE
8
hole
62
5
39
2
10
114.918019
20
102.600349
11
114.682631
21
101.821047
0
LINE
8
hole
62
5
39
2
10
114.682631
20
101.821047
11
114.385296
21
101.063217
0
LINE
8
hole
62
5
39
2
10
114.385296
20
101.063217
11
114.027949
21
100.331768
0
LINE
8
hole
62
5
39
2
10
114.027949
20
100.331768
11
113.612899
21
99.631444
0
LINE
8
hole
62
5
39
2
10
113.612899
20
99.631444
11
113.142845
21
98.966792
0
LINE
8
hole
62
5
39
2
10
113.142845
20
98.966792
11
112.620831
21
98.342117
0
LINE
8
hole
62
5
39
2
10
112.620831
20
98.342117
11
112.216469
21
97.921130
0
LINE
8
hole
62
5
39
2
10
112.216469
20
97.921130
11
111.839587
21
97.559123
0
LINE
8
hole
62
5
39
2
10
111.839587
20
97.559123
11
111.208530
21
97.043878
0
LINE
8
hole
62
5
39
2
10
111.208530
20
97.043878
11
110.538054
21
96.581093
0
LINE
8
hole
62
5
39
2
10
110.538054
20
96.581093
11
109.832520
21
96.173744
0
LINE
8
hole
62
5
39
2
10
109.832520
20
96.173744
11
109.096492
21
95.824500
0
LINE
8
hole
62
5
39
2
10
109.096492
20
95.824500
11
108.334752
21
95.535610
0
LINE
8
hole
62
5
39
2
10
108.334752
20
95.535610
11
107.552241
21
95.308954
0
LINE
8
hole
62
5
39
2
10
107.552241
20
95.308954
11
106.754021
21
95.145994
0
LINE
8
hole
62
5
39
2
10
106.754021
20
95.145994
11
105.945279
21
95.047799
0
LINE
8
hole
62
5
39
2
10
105.945279
20
95.047799
11
105.131257
21
95.014990
0
LINE
8
hole
62
5
39
2
10
105.131257
20
95.014990
11
104.317236
21
95.047798
0
LINE
8
hole
62
5
39
2
10
104.317236
20
95.047798
11
103.508494
21
95.145994
0
LINE
8
hole
62
5
39
2
10
103.508494
20
95.145994
11
102.710274
21
95.308954
0
LINE
8
hole
62
5
39
2
10
102.710274
20
95.308954
11
101.927762
21
95.535610
0
LINE
8
hole
62
5
39
2
10
101.927762
20
95.535610
11
101.166023
21
95.824500
0
LINE
8
hole
62
5
39
2
10
101.166023
20
95.824500
11
100.429994
21
96.173744
0
LINE
8
hole
62
5
39
2
10
100.429994
20
96.173744
11
99.724461
21
96.581093
0
LINE
8
hole
62
5
39
2
10
99.724461
20
96.581093
11
99.053985
21
97.043878
0
LINE
8
hole
62
5
39
2
10
99.053985
20
97.043878
11
98.422928
21
97.559123
0
LINE
8
boundary
62
5
39
2
10
33.333048
20
37.719360
11
33.683760
21
37.344975
0
LINE
8
boundary
62
5
39
2
10
33.683760
20
37.344975
11
34.046699
21
36.967310
0
LINE
8
boundary
62
5
39
2
10
34.046699
20
36.967310
11
34.633223
21
36.899685
0
LINE
8
boundary
62
5
39
2
10
34.633223
20
36.899685
11
35.108121
21
37.313050
0
LINE
8
boundary
62
5
39
2
10
35.108121
20
37.313050
11
35.599091
21
37.533221
0
LINE
8
boundary
62
5
39
2
10
35.599091
20
37.533221
11
36.129498
21
37.571095
0
LINE
8
boundary
62
5
39
2
10
36.129498
20
37.571095
11
36.651910
21
37.431332
0
LINE
8
boundary
62
5
39
2
10
36.651910
20
37.431332
11
37.118609
21
37.118403
0
LINE
8
boundary
62
5
39
2
10
37.118609
20
37.118403
11
37.429851
21
36.654349
0
LINE
8
boundary
62
5
39
2
10
37.429851
20
36.654349
11
37.570400
21
36.132235
0
LINE
8
boundary
62
5
39
2
10
37.570400
20
36.132235
11
37.533448
21
35.601881
0
LINE
8
boundary
62
5
39
2
10
37.533448
20
35.601881
11
37.314533
21
35.110515
0
LINE
8
boundary
62
5
39
2
10
37.314533
20
35.110515
11
36.908178
21
34.642980
0
LINE
8
boundary
62
5
39
2
10
36.908178
20
34.642980
11
36.957715
21
34.056746
0
LINE
8
boundary
62
5
39
2
10
36.957715
20
34.056746
11
37.337121
21
33.691117
0
LINE
8
boundary
62
5
39
2
10
37.337121
20
33.691117
11
37.719359
21
33.333048
0
LINE
8
boundary
62
5
39
2
10
37.719359
20
33.333048
11
38.300816
21
33.303586
0
LINE
8
boundary
62
5
39
2
10
38.300816
20
33.303586
11
38.753399
21
33.741229
0
LINE
8
boundary
62
5
39
2
10
38.753399
20
33.741229
11
39.232234
21
33.986818
0
LINE
8
boundary
62
5
39
2
10
39.232234
20
33.986818
11
39.759939
21
34.052396
0
LINE
8
boundary
62
5
39
2
10
39.759939
20
34.052396
11
40.288892
21
33.940127
0
LINE
8
boundary
62
5
39
2
10
40.288892
20
33.940127
11
40.771359
21
33.652105
0
LINE
8
boundary
62
5
39
2
10
40.771359
20
33.652105
11
41.106439
21
33.204896
0
LINE
8
boundary
62
5
39
2
10
41.106439
20
33.204896
11
41.274061
21
32.690918
0
LINE
8
boundary
62
5
39
2
10
41.274061
20
32.690918
11
41.265018
21
32.159370
0
LINE
8
boundary
62
5
39
2
10
41.265018
20
32.159370
11
41.072057
21
31.657256
0
LINE
8
boundary
62
5
39
2
10
41.072057
20
31.657256
11
40.690722
21
31.169025
0
LINE
8
boundary
62
5
39
2
10
40.690722
20
31.169025
11
40.770944
21
30.586197
0
LINE
8
boundary
62
5
39
2
10
40.770944
20
30.586197
11
41.168852
21
30.241001
0
LINE
8
boundary
62
5
39
2
10
41.168852
20
30.241001
11
41.569349
21
29.903382
0
LINE
8
boundary
62
5
39
2
10
41.569349
20
29.903382
11
42.151526
21
29.904418
0
LINE
8
boundary
62
5
39
2
10
42.151526
20
29.904418
11
42.571849
21
30.355631
0
LINE
8
boundary
62
5
39
2
10
42.571849
20
30.355631
11
43.045912
21
30.635381
0
LINE
8
boundary
62
5
39
2
10
43.045912
20
30.635381
11
43.569469
21
30.728550
0
LINE
8
boundary
62
5
39
2
10
43.569469
20
30.728550
11
44.103605
21
30.644095
0
LINE
8
boundary
62
5
39
2
10
44.103605
20
30.644095
11
44.600499
21
30.381696
0
LINE
8
boundary
62
5
39
2
10
44.600499
20
30.381696
11
44.958583
21
29.952668
0
LINE
8
boundary
62
5
39
2
10
44.958583
20
29.952668
11
45.152860
21
29.448176
0
LINE
8
boundary
62
5
39
2
10
45.152860
20
29.448176
11
45.171519
21
28.916782
0
LINE
8
boundary
62
5
39
2
10
45.171519
20
28.916782
11
45.005130
21
28.405284
0
LINE
8
boundary
62
5
39
2
10
45.005130
20
28.405284
11
44.649945
21
27.897871
0
LINE
8
boundary
62
5
39
2
10
44.649945
20
27.897871
11
44.760467
21
27.319937
0
LINE
8
boundary
62
5
39
2
10
44.760467
20
27.319937
11
45.176032
21
26.996013
0
LINE
8
boundary
62
5
39
2
10
45.176032
20
26.996013
11
45.593655
21
26.679972
0
LINE
8
boundary
62
5
39
2
10
45.593655
20
26.679972
11
46.174900
21
26.711413
0
LINE
8
boundary
62
5
39
2
10
46.174900
20
26.711413
11
46.571035
21
27.184063
0
LINE
8
boundary
62
5
39
2
10
46.571035
20
27.184063
11
47.029856
21
27.488232
0
LINE
8
boundary
62
5
39
2
10
47.029856
20
27.488232
11
47.547805
21
27.608597
0
LINE
8
boundary
62
5
39
2
10
47.547805
20
27.608597
11
48.085575
21
27.552248
0
LINE
8
boundary
62
5
39
2
10
48.085575
20
27.552248
11
48.595543
21
27.316203
0
LINE
8
boundary
62
5
39
2
10
48.595543
20
27.316203
11
48.975501
21
26.906502
0
LINE
8
boundary
62
5
39
2
10
48.975501
20
26.906502
11
49.196004
21
26.412846
0
LINE
8
boundary
62
5
39
2
10
49.196004
20
26.412846
11
49.242475
21
25.883261
0
LINE
8
boundary
62
5
39
2
10
49.242475
20
25.883261
11
49.103074
21
25.363711
0
LINE
8
boundary
62
5
39
2
10
49.103074
20
25.363711
11
48.774952
21
24.838362
0
LINE
8
boundary
62
5
39
2
10
48.774952
20
24.838362
11
48.915591
21
24.267101
0
LINE
8
boundary
62
5
39
2
10
48.915591
20
24.267101
11
49.347465
21
23.965281
0
LINE
8
boundary
62
5
39
2
10
49.347465
20
23.965281
11
49.781063
21
23.671446
0
LINE
8
boundary
62
5
39
2
10
49.781063
20
23.671446
11
50.359922
21
23.733391
0
LINE
8
boundary
62
5
39
2
10
50.359922
20
23.733391
11
50.730747
21
24.226060
0
LINE
8
boundary
62
5
39
2
10
50.730747
20
24.226060
11
51.172959
21
24.553890
0
LINE
8
boundary
62
5
39
2
10
51.172959
20
24.553890
11
51.683956
21
24.701228
0
LINE
8
boundary
62
5
39
2
10
51.683956
20
24.701228
11
52.223906
21
24.673111
0
LINE
8
boundary
62
5
39
2
10
52.223906
20
24.673111
11
52.745598
21
24.464046
0
LINE
8
boundary
62
5
39
2
10
52.745598
20
24.464046
11
53.146497
21
24.074788
0
LINE
8
boundary
62
5
39
2
10
53.146497
20
24.074788
11
53.392410
21
23.593321
0
LINE
8
boundary
62
5
39
2
10
53.392410
20
23.593321
11
53.466572
21
23.066794
0
LINE
8
boundary
62
5
39
2
10
53.466572
20
23.066794
11
53.354565
21
22.540765
0
LINE
8
boundary
62
5
39
2
10
53.354565
20
22.540765
11
53.054329
21
21.998892
0
LINE
8
boundary
62
5
39
2
10
53.054329
20
21.998892
11
53.227025
21
21.433623
0
LINE
8
boundary
62
5
39
2
10
53.227025
20
21.433623
11
53.671832
21
21.157011
0
LINE
8
boundary
62
5
39
2
10
53.671832
20
21.157011
11
54.120163
21
20.886303
0
LINE
8
boundary
62
5
39
2
10
54.120163
20
20.886303
11
54.694976
21
20.978339
0
LINE
8
boundary
62
5
39
2
10
54.694976
20
20.978339
11
55.039585
21
21.489816
0
LINE
8
boundary
62
5
39
2
10
55.039585
20
21.489816
11
55.464019
21
21.840351
0
LINE
8
boundary
62
5
39
2
10
55.464019
20
21.840351
11
55.966511
21
22.014250
0
LINE
8
boundary
62
5
39
2
10
55.966511
20
22.014250
11
56.507293
21
22.014353
0
LINE
8
boundary
62
5
39
2
10
56.507293
20
22.014353
11
57.039150
21
21.832878
0
LINE
8
boundary
62
5
39
2
10
57.039150
20
21.832878
11
57.459858
21
21.465216
0
LINE
8
boundary
62
5
39
2
10
57.459858
20
21.465216
11
57.730751
21
20.997278
0
LINE
8
boundary
62
5
39
2
10
57.730751
20
20.997278
11
57.832297
21
20.475364
0
LINE
8
boundary
62
5
39
2
10
57.832297
20
20.475364
11
57.747999
21
19.944197
0
LINE
8
boundary
62
5
39
2
10
57.747999
20
19.944197
11
57.476556
21
19.387337
0
LINE
8
boundary
62
5
39
2
10
57.476556
20
19.387337
11
57.678600
21
18.831825
0
LINE
8
boundary
62
5
39
2
10
57.678600
20
18.831825
11
58.137205
21
18.578964
0
LINE
8
boundary
62
5
39
2
10
58.137205
20
18.578964
11
58.599126
21
18.332026
0
LINE
8
boundary
62
5
39
2
10
58.599126
20
18.332026
11
59.168335
21
18.454045
0
LINE
8
boundary
62
5
39
2
10
59.168335
20
18.454045
11
59.485609
21
18.982901
0
LINE
8
boundary
62
5
39
2
10
59.485609
20
18.982901
11
59.891207
21
19.355067
0
LINE
8
boundary
62
5
39
2
10
59.891207
20
19.355067
11
60.383946
21
19.555007
0
LINE
8
boundary
62
5
39
2
10
60.383946
20
19.555007
11
60.923896
21
19.583536
0
LINE
8
boundary
62
5
39
2
10
60.923896
20
19.583536
11
61.464573
21
19.430087
0
LINE
8
boundary
62
5
39
2
10
61.464573
20
19.430087
11
61.903953
21
19.084936
0
LINE
8
boundary
62
5
39
2
10
61.903953
20
19.084936
11
62.198896
21
18.631880
0
LINE
8
boundary
62
5
39
2
10
62.198896
20
18.631880
11
62.327716
21
18.115926
0
LINE
8
boundary
62
5
39
2
10
62.327716
20
18.115926
11
62.271330
21
17.581070
0
LINE
8
boundary
62
5
39
2
10
62.271330
20
17.581070
11
62.029301
21
17.010764
0
LINE
8
boundary
62
5
39
2
10
62.029301
20
17.010764
11
62.260176
21
16.466690
0
LINE
8
boundary
62
5
39
2
10
62.260176
20
16.466690
11
62.731441
21
16.238119
0
LINE
8
boundary
62
5
39
2
10
62.731441
20
16.238119
11
63.205610
21
16.015767
0
LINE
8
boundary
62
5
39
2
10
63.205610
20
16.015767
11
63.767658
21
16.167356
0
LINE
8
boundary
62
5
39
2
10
63.767658
20
16.167356
11
64.056879
21
16.712061
0
LINE
8
boundary
62
5
39
2
10
64.056879
20
16.712061
11
64.442389
21
17.104999
0
LINE
8
boundary
62
5
39
2
10
64.442389
20
17.104999
11
64.924024
21
17.330464
0
LINE
8
boundary
62
5
39
2
10
64.924024
20
17.330464
11
65.461692
21
17.387116
0
LINE
8
boundary
62
5
39
2
10
65.461692
20
17.387116
11
66.009629
21
17.262299
0
LINE
8
boundary
62
5
39
2
10
66.009629
20
17.262299
11
66.468652
21
16.938573
0
LINE
8
boundary
62
5
39
2
10
66.468652
20
16.938573
11
66.784810
21
16.503452
0
LINE
8
boundary
62
5
39
2
10
66.784810
20
16.503452
11
66.940386
21
15.995022
0
LINE
8
boundary
62
5
39
2
10
66.940386
20
15.995022
11
66.912016
21
15.457939
0
LINE
8
boundary
62
5
39
2
10
66.912016
20
15.457939
11
66.700306
21
14.875811
0
LINE
8
boundary
62
5
39
2
10
66.700306
20
14.875811
11
66.959311
21
14.344454
0
LINE
8
boundary
62
5
39
2
10
66.959311
20
14.344454
11
67.441779
21
14.140887
0
LINE
8
boundary
62
5
39
2
10
67.441779
20
14.140887
11
67.926948
21
13.943643
0
LINE
8
boundary
62
5
39
2
10
67.926948
20
13.943643
11
68.478211
21
14.122075
0
LINE
8
boundary
62
5
39
2
10
68.478211
20
14.122075
11
68.740649
21
14.683529
0
LINE
8
boundary
62
5
39
2
10
68.740649
20
14.683529
11
69.105101
21
15.096067
0
LINE
8
boundary
62
5
39
2
10
69.105101
20
15.096067
11
69.574189
21
15.346428
0
LINE
8
boundary
62
5
39
2
10
69.574189
20
15.346428
11
70.108222
21
15.431203
0
LINE
8
boundary
62
5
39
2
10
70.108222
20
15.431203
11
70.661974
21
15.335225
0
LINE
8
boundary
62
5
39
2
10
70.661974
20
15.335225
11
71.137281
21
15.035994
0
LINE
8
boundary
62
5
39
2
10
71.137281
20
15.035994
11
71.475728
21
14.618016
0
LINE
8
boundary
62
5
39
2
10
71.475728
20
14.618016
11
71.657744
21
14.118449
0
LINE
8
boundary
62
5
39
2
10
71.657744
20
14.118449
11
71.657588
21
13.580588
0
LINE
8
boundary
62
5
39
2
10
71.657588
20
13.580588
11
71.476516
21
12.988169
0
LINE
8
boundary
62
5
39
2
10
71.476516
20
12.988169
11
71.763036
21
12.471131
0
LINE
8
boundary
62
5
39
2
10
71.763036
20
12.471131
11
72.255569
21
12.293083
0
LINE
8
boundary
62
5
39
2
10
72.255569
20
12.293083
11
72.750385
21
12.121467
0
LINE
8
boundary
62
5
39
2
10
72.750385
20
12.121467
11
73.291504
21
12.328538
0
LINE
8
boundary
62
5
39
2
10
73.291504
20
12.328538
11
73.524238
21
12.902900
0
LINE
8
boundary
62
5
39
2
10
73.524238
20
12.902900
11
73.866596
21
13.334069
0
LINE
8
boundary
62
5
39
2
10
73.866596
20
13.334069
11
74.321882
21
13.608616
0
LINE
8
boundary
62
5
39
2
10
74.321882
20
13.608616
11
74.850832
21
13.721188
0
LINE
8
boundary
62
5
39
2
10
74.850832
20
13.721188
11
75.408732
21
13.654265
0
LINE
8
boundary
62
5
39
2
10
75.408732
20
13.654265
11
75.899085
21
13.380347
0
LINE
8
boundary
62
5
39
2
10
75.899085
20
13.380347
11
76.258993
21
12.980664
0
LINE
8
boundary
62
5
39
2
10
76.258993
20
12.980664
11
76.466831
21
12.491302
0
LINE
8
boundary
62
5
39
2
10
76.466831
20
12.491302
11
76.494885
21
11.954118
0
LINE
8
boundary
62
5
39
2
10
76.494885
20
11.954118
11
76.345055
21
11.353045
0
LINE
8
boundary
62
5
39
2
10
76.345055
20
11.353045
11
76.658168
21
10.851801
0
LINE
8
boundary
62
5
39
2
10
76.658168
20
10.851801
11
77.159312
21
10.699691
0
LINE
8
boundary
62
5
39
2
10
77.159312
20
10.699691
11
77.662534
21
10.554224
0
LINE
8
boundary
62
5
39
2
10
77.662534
20
10.554224
11
78.192060
21
10.789307
0
LINE
8
boundary
62
5
39
2
10
78.192060
20
10.789307
11
78.394377
21
11.375157
0
LINE
8
boundary
62
5
39
2
10
78.394377
20
11.375157
11
78.711795
21
11.821596
0
LINE
8
boundary
62
5
39
2
10
78.711795
20
11.821596
11
79.154034
21
12.121576
0
LINE
8
boundary
62
5
39
2
10
79.154034
20
12.121576
11
79.676343
21
12.261744
0
LINE
8
boundary
62
5
39
2
10
79.676343
20
12.261744
11
80.237043
21
12.224083
0
LINE
8
boundary
62
5
39
2
10
80.237043
20
12.224083
11
80.740990
21
11.976206
0
LINE
8
boundary
62
5
39
2
10
80.740990
20
11.976206
11
81.121325
21
11.595941
0
LINE
8
boundary
62
5
39
2
10
81.121325
20
11.595941
11
81.354562
21
11.118148
0
LINE
8
boundary
62
5
39
2
10
81.354562
20
11.118148
11
81.410620
21
10.583187
0
LINE
8
boundary
62
5
39
2
10
81.410620
20
10.583187
11
81.292444
21
9.975097
0
LINE
8
boundary
62
5
39
2
10
81.292444
20
9.975097
11
81.631429
21
9.490832
0
LINE
8
boundary
62
5
39
2
10
81.631429
20
9.490832
11
82.139836
21
9.365179
0
LINE
8
boundary
62
5
39
2
10
82.139836
20
9.365179
11
82.649904
21
9.246273
0
LINE
8
boundary
62
5
39
2
10
82.649904
20
9.246273
11
83.166396
21
9.508754
0
LINE
8
boundary
62
5
39
2
10
83.166396
20
9.508754
11
83.337779
21
10.104350
0
LINE
8
boundary
62
5
39
2
10
83.337779
20
10.104350
11
83.631417
21
10.566768
0
LINE
8
boundary
62
5
39
2
10
83.631417
20
10.566768
11
84.057465
21
10.889469
0
LINE
8
boundary
62
5
39
2
10
84.057465
20
10.889469
11
84.571682
21
11.056822
0
LINE
8
boundary
62
5
39
2
10
84.571682
20
11.056822
11
85.133524
21
11.048525
0
LINE
8
boundary
62
5
39
2
10
85.133524
20
11.048525
11
85.649817
21
10.827415
0
LINE
8
boundary
62
5
39
2
10
85.649817
20
10.827415
11
86.049444
21
10.467498
0
LINE
8
boundary
62
5
39
2
10
86.049444
20
10.467498
11
86.307454
21
10.002614
0
LINE
8
boundary
62
5
39
2
10
86.307454
20
10.002614
11
86.391411
21
9.471330
0
LINE
8
boundary
62
5
39
2
10
86.391411
20
9.471330
11
86.305293
21
8.857854
0
LINE
8
boundary
62
5
39
2
10
86.305293
20
8.857854
11
86.669018
21
8.391941
0
LINE
8
boundary
62
5
39
2
10
86.669018
20
8.391941
11
87.183340
21
8.293164
0
LINE
8
boundary
62
5
39
2
10
87.183340
20
8.293164
11
87.699011
21
8.201133
0
LINE
8
boundary
62
5
39
2
10
87.699011
20
8.201133
11
88.201018
21
8.490191
0
LINE
8
boundary
62
5
39
2
10
88.201018
20
8.490191
11
88.341056
21
9.094012
0
LINE
8
boundary
62
5
39
2
10
88.341056
20
9.094012
11
88.610079
21
9.571135
0
LINE
8
boundary
62
5
39
2
10
88.610079
20
9.571135
11
89.018587
21
9.915703
0
LINE
8
boundary
62
5
39
2
10
89.018587
20
9.915703
11
89.523258
21
10.109732
0
LINE
8
boundary
62
5
39
2
10
89.523258
20
10.109732
11
90.084892
21
10.130903
0
LINE
8
boundary
62
5
39
2
10
90.084892
20
10.130903
11
90.611977
21
9.937086
0
LINE
8
boundary
62
5
39
2
10
90.611977
20
9.937086
11
91.029964
21
9.598546
0
LINE
8
boundary
62
5
39
2
10
91.029964
20
9.598546
11
91.311815
21
9.147808
0
LINE
8
boundary
62
5
39
2
10
91.311815
20
9.147808
11
91.423459
21
8.621559
0
LINE
8
boundary
62
5
39
2
10
91.423459
20
8.621559
11
91.369601
21
8.004535
0
LINE
8
boundary
62
5
39
2
10
91.369601
20
8.004535
11
91.757242
21
7.558361
0
LINE
8
boundary
62
5
39
2
10
91.757242
20
7.558361
11
92.276128
21
7.486564
0
LINE
8
boundary
62
5
39
2
10
92.276128
20
7.486564
11
92.795845
21
7.421609
0
LINE
8
boundary
62
5
39
2
10
92.795845
20
7.421609
11
93.282022
21
7.736623
0
LINE
8
boundary
62
5
39
2
10
93.282022
20
7.736623
11
93.390207
21
8.346832
0
LINE
8
boundary
62
5
39
2
10
93.390207
20
8.346832
11
93.633885
21
8.837489
0
LINE
8
boundary
62
5
39
2
10
93.633885
20
8.837489
11
94.023803
21
9.203004
0
LINE
8
boundary
62
5
39
2
10
94.023803
20
9.203004
11
94.517686
21
9.423073
0
LINE
8
boundary
62
5
39
2
10
94.517686
20
9.423073
11
95.077421
21
9.473603
0
LINE
8
boundary
62
5
39
2
10
95.077421
20
9.473603
11
95.613935
21
9.307588
0
LINE
8
boundary
62
5
39
2
10
95.613935
20
9.307588
11
96.051104
21
8.989579
0
LINE
8
boundary
62
5
39
2
10
96.051104
20
8.989579
11
96.354183
21
8.556019
0
LINE
8
boundary
62
5
39
2
10
96.354183
20
8.556019
11
96.493222
21
8.036461
0
LINE
8
boundary
62
5
39
2
10
96.493222
20
8.036461
11
96.471693
21
7.417416
0
LINE
8
boundary
62
5
39
2
10
96.471693
20
7.417416
11
96.882194
21
6.992056
0
LINE
8
boundary
62
5
39
2
10
96.882194
20
6.992056
11
97.404038
21
6.947546
0
LINE
8
boundary
62
5
39
2
10
97.404038
20
6.947546
11
97.926431
21
6.909879
0
LINE
8
boundary
62
5
39
2
10
97.926431
20
6.909879
11
98.395498
21
7.249934
0
LINE
8
boundary
62
5
39
2
10
98.395498
20
7.249934
11
98.471618
21
7.864985
0
LINE
8
boundary
62
5
39
2
10
98.471618
20
7.864985
11
98.689305
21
8.367708
0
LINE
8
boundary
62
5
39
2
10
98.689305
20
8.367708
11
99.059547
21
8.753111
0
LINE
8
boundary
62
5
39
2
10
99.059547
20
8.753111
11
99.541247
21
8.998705
0
LINE
8
boundary
62
5
39
2
10
99.541247
20
8.998705
11
100.097528
21
9.078490
0
LINE
8
boundary
62
5
39
2
10
100.097528
20
9.078490
11
100.642001
21
8.940811
0
LINE
8
boundary
62
5
39
2
10
100.642001
20
8.940811
11
101.095209
21
8.646146
0
LINE
8
boundary
62
5
39
2
10
101.095209
20
8.646146
11
101.420564
21
8.229013
0
LINE
8
boundary
62
5
39
2
10
101.420564
20
8.229013
11
101.586612
21
7.717489
0
LINE
8
boundary
62
5
39
2
10
101.586612
20
7.717489
11
101.597515
21
7.098059
0
LINE
8
boundary
62
5
39
2
10
101.597515
20
7.098059
11
102.029704
21
6.694897
0
LINE
8
boundary
62
5
39
2
10
102.029704
20
6.694897
11
102.553165
21
6.677777
0
LINE
8
boundary
62
5
39
2
10
102.553165
20
6.677777
11
103.076815
21
6.667500
0
LINE
8
boundary
62
5
39
2
10
103.076815
20
6.667500
11
103.527436
21
7.031567
0
LINE
8
boundary
62
5
39
2
10
103.527436
20
7.031567
11
103.571274
21
7.649834
0
LINE
8
boundary
62
5
39
2
10
103.571274
20
7.649834
11
103.762348
21
8.163132
0
LINE
8
boundary
62
5
39
2
10
103.762348
20
8.163132
11
104.111904
21
8.567390
0
LINE
8
boundary
62
5
39
2
10
104.111904
20
8.567390
11
104.580099
21
8.837989
0
LINE
8
boundary
62
5
39
2
10
104.580099
20
8.837989
11
105.131441
21
8.946721
0
LINE
8
boundary
62
5
39
2
10
105.131441
20
8.946721
11
105.682366
21
8.837783
0
LINE
8
boundary
62
5
39
2
10
105.682366
20
8.837783
11
106.150377
21
8.567184
0
LINE
8
boundary
62
5
39
2
10
106.150377
20
8.567184
11
106.497117
21
8.167621
0
LINE
8
boundary
62
5
39
2
10
106.497117
20
8.167621
11
106.689703
21
7.665482
0
LINE
8
boundary
62
5
39
2
10
106.689703
20
7.665482
11
106.733018
21
7.047505
0
LINE
8
boundary
62
5
39
2
10
106.733018
20
7.047505
11
107.185721
21
6.667500
0
LINE
8
boundary
62
5
39
2
10
107.185721
20
6.667500
11
107.709349
21
6.677777
0
LINE
8
boundary
62
5
39
2
10
107.709349
20
6.677777
11
108.232822
21
6.694897
0
LINE
8
boundary
62
5
39
2
10
108.232822
20
6.694897
11
108.663775
21
7.082036
0
LINE
8
boundary
62
5
39
2
10
108.663775
20
7.082036
11
108.675187
21
7.701781
0
LINE
8
boundary
62
5
39
2
10
108.675187
20
7.701781
11
108.839140
21
8.224388
0
LINE
8
boundary
62
5
39
2
10
108.839140
20
8.224388
11
109.167056
21
8.646455
0
LINE
8
boundary
62
5
39
2
10
109.167056
20
8.646455
11
109.620452
21
8.941017
0
LINE
8
boundary
62
5
39
2
10
109.620452
20
8.941017
11
110.165350
21
9.078605
0
LINE
8
boundary
62
5
39
2
10
110.165350
20
9.078605
11
110.721226
21
8.998499
0
LINE
8
boundary
62
5
39
2
10
110.721226
20
8.998499
11
111.202750
21
8.752802
0
LINE
8
boundary
62
5
39
2
10
111.202750
20
8.752802
11
111.569929
21
8.372037
0
LINE
8
boundary
62
5
39
2
10
111.569929
20
8.372037
11
111.788543
21
7.880530
0
LINE
8
boundary
62
5
39
2
10
111.788543
20
7.880530
11
111.864124
21
7.265739
0
LINE
8
boundary
62
5
39
2
10
111.864124
20
7.265739
11
112.336105
21
6.909879
0
LINE
8
boundary
62
5
39
2
10
112.336105
20
6.909879
11
112.858477
21
6.947546
0
LINE
8
boundary
62
5
39
2
10
112.858477
20
6.947546
11
113.380341
21
6.992056
0
LINE
8
boundary
62
5
39
2
10
113.380341
20
6.992056
11
113.790437
21
7.401351
0
LINE
8
boundary
62
5
39
2
10
113.790437
20
7.401351
11
113.769400
21
8.020738
0
LINE
8
boundary
62
5
39
2
10
113.769400
20
8.020738
11
113.905768
21
8.551258
0
LINE
8
boundary
62
5
39
2
10
113.905768
20
8.551258
11
114.209306
21
8.987847
0
LINE
8
boundary
62
5
39
2
10
114.209306
20
8.987847
11
114.648506
21
9.307794
0
LINE
8
boundary
62
5
39
2
10
114.648506
20
9.307794
11
115.185457
21
9.473706
0
LINE
8
boundary
62
5
39
2
10
115.185457
20
9.473706
11
115.744726
21
9.422861
0
LINE
8
boundary
62
5
39
2
10
115.744726
20
9.422861
11
116.238503
21
9.202695
0
LINE
8
boundary
62
5
39
2
10
116.238503
20
9.202695
11
116.625116
21
8.841656
0
LINE
8
boundary
62
5
39
2
10
116.625116
20
8.841656
11
116.869144
21
8.362233
0
LINE
8
boundary
62
5
39
2
10
116.869144
20
8.362233
11
116.976777
21
7.752256
0
LINE
8
boundary
62
5
39
2
10
116.976777
20
7.752256
11
117.466774
21
7.421609
0
LINE
8
boundary
62
5
39
2
10
117.466774
20
7.421609
11
117.986387
21
7.486563
0
LINE
8
boundary
62
5
39
2
10
117.986387
20
7.486563
11
118.505273
21
7.558362
0
LINE
8
boundary
62
5
39
2
10
118.505273
20
7.558362
11
118.893370
21
7.988474
0
LINE
8
boundary
62
5
39
2
10
118.893370
20
7.988474
11
118.839985
21
8.605865
0
LINE
8
boundary
62
5
39
2
10
118.839985
20
8.605865
11
118.948328
21
9.142831
0
LINE
8
boundary
62
5
39
2
10
118.948328
20
9.142831
11
119.228589
21
9.594730
0
LINE
8
boundary
62
5
39
2
10
119.228589
20
9.594730
11
119.650435
21
9.937292
0
LINE
8
boundary
62
5
39
2
10
119.650435
20
9.937292
11
120.178037
21
10.131006
0
LINE
8
boundary
62
5
39
2
10
120.178037
20
10.131006
11
120.739257
21
10.109526
0
LINE
8
boundary
62
5
39
2
10
120.739257
20
10.109526
11
121.243825
21
9.915497
0
LINE
8
boundary
62
5
39
2
10
121.243825
20
9.915497
11
121.648797
21
9.575123
0
LINE
8
boundary
62
5
39
2
10
121.648797
20
9.575123
11
121.917493
21
9.109227
0
LINE
8
boundary
62
5
39
2
10
121.917493
20
9.109227
11
122.056967
21
8.505608
0
LINE
8
boundary
62
5
39
2
10
122.056967
20
8.505608
11
122.563610
21
8.201134
0
LINE
8
boundary
62
5
39
2
10
122.563610
20
8.201134
11
123.079175
21
8.293164
0
LINE
8
boundary
62
5
39
2
10
123.079175
20
8.293164
11
123.593496
21
8.391941
0
LINE
8
boundary
62
5
39
2
10
123.593496
20
8.391941
11
123.958520
21
8.841836
0
LINE
8
boundary
62
5
39
2
10
123.958520
20
8.841836
11
123.872854
21
9.455706
0
LINE
8
boundary
62
5
39
2
10
123.872854
20
9.455706
11
123.953058
21
9.997537
0
LINE
8
boundary
62
5
39
2
10
123.953058
20
9.997537
11
124.209330
21
10.463400
0
LINE
8
boundary
62
5
39
2
10
124.209330
20
10.463400
11
124.612697
21
10.827627
0
LINE
8
boundary
62
5
39
2
10
124.612697
20
10.827627
11
125.129301
21
11.048628
0
LINE
8
boundary
62
5
39
2
10
125.129301
20
11.048628
11
125.690832
21
11.056513
0
LINE
8
boundary
62
5
39
2
10
125.690832
20
11.056513
11
126.204945
21
10.889251
0
LINE
8
boundary
62
5
39
2
10
126.204945
20
10.889251
11
126.629102
21
10.568649
0
LINE
8
boundary
62
5
39
2
10
126.629102
20
10.568649
11
126.919980
21
10.119336
0
LINE
8
boundary
62
5
39
2
10
126.919980
20
10.119336
11
127.090789
21
9.523913
0
LINE
8
boundary
62
5
39
2
10
127.090789
20
9.523913
11
127.612611
21
9.246273
0
LINE
8
boundary
62
5
39
2
10
127.612611
20
9.246273
11
128.122679
21
9.365180
0
LINE
8
boundary
62
5
39
2
10
128.122679
20
9.365180
11
128.631086
21
9.490832
0
LINE
8
boundary
62
5
39
2
10
128.631086
20
9.490832
11
128.972205
21
9.959170
0
LINE
8
boundary
62
5
39
2
10
128.972205
20
9.959170
11
128.854461
21
10.567676
0
LINE
8
boundary
62
5
39
2
10
128.854461
20
10.567676
11
128.906226
21
11.112983
0
LINE
8
boundary
62
5
39
2
10
128.906226
20
11.112983
11
129.137677
21
11.591663
0
LINE
8
boundary
62
5
39
2
10
129.137677
20
11.591663
11
129.521420
21
11.976424
0
LINE
8
boundary
62
5
39
2
10
129.521420
20
11.976424
11
130.025782
21
12.224192
0
LINE
8
boundary
62
5
39
2
10
130.025782
20
12.224192
11
130.586172
21
12.261539
0
LINE
8
boundary
62
5
39
2
10
130.586172
20
12.261539
11
131.108275
21
12.121261
0
LINE
8
boundary
62
5
39
2
10
131.108275
20
12.121261
11
131.548616
21
11.823272
0
LINE
8
boundary
62
5
39
2
10
131.548616
20
11.823272
11
131.862604
21
11.389875
0
LINE
8
boundary
62
5
39
2
10
131.862604
20
11.389875
11
132.064338
21
10.804168
0
LINE
8
boundary
62
5
39
2
10
132.064338
20
10.804168
11
132.599981
21
10.554224
0
LINE
8
boundary
62
5
39
2
10
132.599981
20
10.554224
11
133.103203
21
10.699691
0
LINE
8
boundary
62
5
39
2
10
133.103203
20
10.699691
11
133.604347
21
10.851801
0
LINE
8
boundary
62
5
39
2
10
133.604347
20
10.851801
11
133.920425
21
11.337253
0
LINE
8
boundary
62
5
39
2
10
133.920425
20
11.337253
11
133.771004
21
11.938760
0
LINE
8
boundary
62
5
39
2
10
133.771004
20
11.938760
11
133.794131
21
12.486064
0
LINE
8
boundary
62
5
39
2
10
133.794131
20
12.486064
11
134.000249
21
12.976224
0
LINE
8
boundary
62
5
39
2
10
134.000249
20
12.976224
11
134.363327
21
13.380553
0
LINE
8
boundary
62
5
39
2
10
134.363327
20
13.380553
11
134.854095
21
13.654368
0
LINE
8
boundary
62
5
39
2
10
134.854095
20
13.654368
11
135.411683
21
13.720982
0
LINE
8
boundary
62
5
39
2
10
135.411683
20
13.720982
11
135.940426
21
13.608307
0
LINE
8
boundary
62
5
39
2
10
135.940426
20
13.608307
11
136.395816
21
13.333760
0
LINE
8
boundary
62
5
39
2
10
136.395816
20
13.333760
11
136.731981
21
12.917307
0
LINE
8
boundary
62
5
39
2
10
136.731981
20
12.917307
11
136.964125
21
12.343055
0
LINE
8
boundary
62
5
39
2
10
136.964125
20
12.343055
11
137.512130
21
12.121467
0
LINE
8
boundary
62
5
39
2
10
137.512130
20
12.121467
11
138.006946
21
12.293083
0
LINE
8
boundary
62
5
39
2
10
138.006946
20
12.293083
11
138.499581
21
12.471131
0
LINE
8
boundary
62
5
39
2
10
138.499581
20
12.471131
11
138.789785
21
12.972551
0
LINE
8
boundary
62
5
39
2
10
138.789785
20
12.972551
11
138.609101
21
13.565429
0
LINE
8
boundary
62
5
39
2
10
138.609101
20
13.565429
11
138.603495
21
14.113152
0
LINE
8
boundary
62
5
39
2
10
138.603495
20
14.113152
11
138.783758
21
14.613435
0
LINE
8
boundary
62
5
39
2
10
138.783758
20
14.613435
11
139.125131
21
15.036199
0
LINE
8
boundary
62
5
39
2
10
139.125131
20
15.036199
11
139.600853
21
15.335327
0
LINE
8
boundary
62
5
39
2
10
139.600853
20
15.335327
11
140.154292
21
15.430998
0
LINE
8
boundary
62
5
39
2
10
140.154292
20
15.430998
11
140.688120
21
15.346119
0
LINE
8
boundary
62
5
39
2
10
140.688120
20
15.346119
11
141.157304
21
15.095862
0
LINE
8
boundary
62
5
39
2
10
141.157304
20
15.095862
11
141.514824
21
14.697586
0
LINE
8
boundary
62
5
39
2
10
141.514824
20
14.697586
11
141.776668
21
14.136215
0
LINE
8
boundary
62
5
39
2
10
141.776668
20
14.136215
11
142.335567
21
13.943643
0
LINE
8
boundary
62
5
39
2
10
142.335567
20
13.943643
11
142.820736
21
14.140887
0
LINE
8
boundary
62
5
39
2
10
142.820736
20
14.140887
11
143.303307
21
14.344454
0
LINE
8
boundary
62
5
39
2
10
143.303307
20
14.344454
11
143.566807
21
14.860412
0
LINE
8
boundary
62
5
39
2
10
143.566807
20
14.860412
11
143.355459
21
15.443019
0
LINE
8
boundary
62
5
39
2
10
143.355459
20
15.443019
11
143.321140
21
15.989682
0
LINE
8
boundary
62
5
39
2
10
143.321140
20
15.989682
11
143.474936
21
16.498733
0
LINE
8
boundary
62
5
39
2
10
143.474936
20
16.498733
11
143.791842
21
16.936721
0
LINE
8
boundary
62
5
39
2
10
143.791842
20
16.936721
11
144.253197
21
17.262402
0
LINE
8
boundary
62
5
39
2
10
144.253197
20
17.262402
11
144.800823
21
17.386910
0
LINE
8
boundary
62
5
39
2
10
144.800823
20
17.386910
11
145.338387
21
17.330052
0
LINE
8
boundary
62
5
39
2
10
145.338387
20
17.330052
11
145.820022
21
17.104690
0
LINE
8
boundary
62
5
39
2
10
145.820022
20
17.104690
11
146.197868
21
16.725730
0
LINE
8
boundary
62
5
39
2
10
146.197868
20
16.725730
11
146.488790
21
16.178783
0
LINE
8
boundary
62
5
39
2
10
146.488790
20
16.178783
11
147.056905
21
16.015767
0
LINE
8
boundary
62
5
39
2
10
147.056905
20
16.015767
11
147.531074
21
16.238119
0
LINE
8
boundary
62
5
39
2
10
147.531074
20
16.238119
11
148.002338
21
16.466690
0
LINE
8
boundary
62
5
39
2
10
148.002338
20
16.466690
11
148.238614
21
16.995629
0
LINE
8
boundary
62
5
39
2
10
148.238614
20
16.995629
11
147.996919
21
17.566429
0
LINE
8
boundary
62
5
39
2
10
147.996919
20
17.566429
11
147.934093
21
18.110561
0
LINE
8
boundary
62
5
39
2
10
147.934093
20
18.110561
11
148.061107
21
18.626928
0
LINE
8
boundary
62
5
39
2
10
148.061107
20
18.626928
11
148.354644
21
19.080856
0
LINE
8
boundary
62
5
39
2
10
148.354644
20
19.080856
11
148.798250
21
19.430293
0
LINE
8
boundary
62
5
39
2
10
148.798250
20
19.430293
11
149.338618
21
19.583330
0
LINE
8
boundary
62
5
39
2
10
149.338618
20
19.583330
11
149.878459
21
19.554692
0
LINE
8
boundary
62
5
39
2
10
149.878459
20
19.554692
11
150.371204
21
19.354758
0
LINE
8
boundary
62
5
39
2
10
150.371204
20
19.354758
11
150.768432
21
18.996146
0
LINE
8
boundary
62
5
39
2
10
150.768432
20
18.996146
11
151.087524
21
18.465139
0
LINE
8
boundary
62
5
39
2
10
151.087524
20
18.465139
11
151.663389
21
18.332025
0
LINE
8
boundary
62
5
39
2
10
151.663389
20
18.332025
11
152.125309
21
18.578964
0
LINE
8
boundary
62
5
39
2
10
152.125309
20
18.578964
11
152.583915
21
18.831928
0
LINE
8
boundary
62
5
39
2
10
152.583915
20
18.831928
11
152.792141
21
19.372503
0
LINE
8
boundary
62
5
39
2
10
152.792141
20
19.372503
11
152.521009
21
19.929877
0
LINE
8
boundary
62
5
39
2
10
152.521009
20
19.929877
11
152.429801
21
20.469984
0
LINE
8
boundary
62
5
39
2
10
152.429801
20
20.469984
11
152.529518
21
20.992222
0
LINE
8
boundary
62
5
39
2
10
152.529518
20
20.992222
11
152.798867
21
21.460942
0
LINE
8
boundary
62
5
39
2
10
152.798867
20
21.460942
11
153.223680
21
21.833084
0
LINE
8
boundary
62
5
39
2
10
153.223680
20
21.833084
11
153.755330
21
22.014135
0
LINE
8
boundary
62
5
39
2
10
153.755330
20
22.014135
11
154.295901
21
22.013826
0
LINE
8
boundary
62
5
39
2
10
154.295901
20
22.013826
11
154.798393
21
21.840042
0
LINE
8
boundary
62
5
39
2
10
154.798393
20
21.840042
11
155.213775
21
21.502601
0
LINE
8
boundary
62
5
39
2
10
155.213775
20
21.502601
11
155.560309
21
20.989069
0
LINE
8
boundary
62
5
39
2
10
155.560309
20
20.989069
11
156.142351
21
20.886303
0
LINE
8
boundary
62
5
39
2
10
156.142351
20
20.886303
11
156.590683
21
21.157011
0
LINE
8
boundary
62
5
39
2
10
156.590683
20
21.157011
11
157.035490
21
21.433623
0
LINE
8
boundary
62
5
39
2
10
157.035490
20
21.433623
11
157.215135
21
21.984404
0
LINE
8
boundary
62
5
39
2
10
157.215135
20
21.984404
11
156.915183
21
22.526804
0
LINE
8
boundary
62
5
39
2
10
156.915183
20
22.526804
11
156.795817
21
23.061416
0
LINE
8
boundary
62
5
39
2
10
156.795817
20
23.061416
11
156.868030
21
23.588171
0
LINE
8
boundary
62
5
39
2
10
156.868030
20
23.588171
11
157.112561
21
24.070333
0
LINE
8
boundary
62
5
39
2
10
157.112561
20
24.070333
11
157.517231
21
24.464252
0
LINE
8
boundary
62
5
39
2
10
157.517231
20
24.464252
11
158.038711
21
24.672900
0
LINE
8
boundary
62
5
39
2
10
158.038711
20
24.672900
11
158.578558
21
24.700811
0
LINE
8
boundary
62
5
39
2
10
158.578558
20
24.700811
11
159.089452
21
24.553581
0
LINE
8
boundary
62
5
39
2
10
159.089452
20
24.553581
11
159.523989
21
24.236395
0
LINE
8
boundary
62
5
39
2
10
159.523989
20
24.236395
11
159.894814
21
23.743727
0
LINE
8
boundary
62
5
39
2
10
159.894814
20
23.743727
11
160.481452
21
23.671549
0
LINE
8
boundary
62
5
39
2
10
160.481452
20
23.671549
11
160.915050
21
23.965282
0
LINE
8
boundary
62
5
39
2
10
160.915050
20
23.965282
11
161.344705
21
24.264833
0
LINE
8
boundary
62
5
39
2
10
161.344705
20
24.264833
11
161.495261
21
24.824258
0
LINE
8
boundary
62
5
39
2
10
161.495261
20
24.824258
11
161.167395
21
25.350148
0
LINE
8
boundary
62
5
39
2
10
161.167395
20
25.350148
11
161.020200
21
25.877799
0
LINE
8
boundary
62
5
39
2
10
161.020200
20
25.877799
11
161.064812
21
26.407623
0
LINE
8
boundary
62
5
39
2
10
161.064812
20
26.407623
11
161.283700
21
26.901977
0
LINE
8
boundary
62
5
39
2
10
161.283700
20
26.901977
11
161.667287
21
27.316415
0
LINE
8
boundary
62
5
39
2
10
161.667287
20
27.316415
11
162.177043
21
27.552042
0
LINE
8
boundary
62
5
39
2
10
162.177043
20
27.552042
11
162.714710
21
27.608276
0
LINE
8
boundary
62
5
39
2
10
162.714710
20
27.608276
11
163.232556
21
27.487923
0
LINE
8
boundary
62
5
39
2
10
163.232556
20
27.487923
11
163.683170
21
27.193979
0
LINE
8
boundary
62
5
39
2
10
163.683170
20
27.193979
11
164.079305
21
26.721328
0
LINE
8
boundary
62
5
39
2
10
164.079305
20
26.721328
11
164.668963
21
26.679971
0
LINE
8
boundary
62
5
39
2
10
164.668963
20
26.679971
11
165.086482
21
26.996013
0
LINE
8
boundary
62
5
39
2
10
165.086482
20
26.996013
11
165.499950
21
27.317655
0
LINE
8
boundary
62
5
39
2
10
165.499950
20
27.317655
11
165.620997
21
27.884189
0
LINE
8
boundary
62
5
39
2
10
165.620997
20
27.884189
11
165.266038
21
28.392156
0
LINE
8
boundary
62
5
39
2
10
165.266038
20
28.392156
11
165.091436
21
28.911453
0
LINE
8
boundary
62
5
39
2
10
165.091436
20
28.911453
11
165.108244
21
29.442887
0
LINE
8
boundary
62
5
39
2
10
165.108244
20
29.442887
11
165.300970
21
29.947988
0
LINE
8
boundary
62
5
39
2
10
165.300970
20
29.947988
11
165.662331
21
30.382004
0
LINE
8
boundary
62
5
39
2
10
165.662331
20
30.382004
11
166.159012
21
30.643992
0
LINE
8
boundary
62
5
39
2
10
166.159012
20
30.643992
11
166.693046
21
30.728241
0
LINE
8
boundary
62
5
39
2
10
166.693046
20
30.728241
11
167.216500
21
30.635175
0
LINE
8
boundary
62
5
39
2
10
167.216500
20
30.635175
11
167.681848
21
30.365097
0
LINE
8
boundary
62
5
39
2
10
167.681848
20
30.365097
11
168.102171
21
29.913883
0
LINE
8
boundary
62
5
39
2
10
168.102171
20
29.913883
11
168.693166
21
29.903382
0
LINE
8
boundary
62
5
39
2
10
168.693166
20
29.903382
11
169.093663
21
30.241001
0
LINE
8
boundary
62
5
39
2
10
169.093663
20
30.241001
11
169.489599
21
30.583706
0
LINE
8
boundary
62
5
39
2
10
169.489599
20
30.583706
11
169.580926
21
31.155803
0
LINE
8
boundary
62
5
39
2
10
169.580926
20
31.155803
11
169.199786
21
31.644599
0
LINE
8
boundary
62
5
39
2
10
169.199786
20
31.644599
11
168.998327
21
32.153987
0
LINE
8
boundary
62
5
39
2
10
168.998327
20
32.153987
11
168.987228
21
32.685572
0
LINE
8
boundary
62
5
39
2
10
168.987228
20
32.685572
11
169.153274
21
33.200073
0
LINE
8
boundary
62
5
39
2
10
169.153274
20
33.200073
11
169.489313
21
33.650180
0
LINE
8
boundary
62
5
39
2
10
169.489313
20
33.650180
11
169.973726
21
33.940024
0
LINE
8
boundary
62
5
39
2
10
169.973726
20
33.940024
11
170.502576
21
34.052087
0
LINE
8
boundary
62
5
39
2
10
170.502576
20
34.052087
11
171.030281
21
33.986508
0
LINE
8
boundary
62
5
39
2
10
171.030281
20
33.986508
11
171.509116
21
33.741229
0
LINE
8
boundary
62
5
39
2
10
171.509116
20
33.741229
11
171.961699
21
33.303586
0
LINE
8
boundary
62
5
39
2
10
171.961699
20
33.303586
11
172.543155
21
33.333048
0
LINE
8
boundary
62
5
39
2
10
172.543155
20
33.333048
11
172.925393
21
33.691117
0
LINE
8
boundary
62
5
39
2
10
172.925393
20
33.691117
11
173.302962
21
34.054158
0
LINE
8
boundary
62
5
39
2
10
173.302962
20
34.054158
11
173.364150
21
34.630255
0
LINE
8
boundary
62
5
39
2
10
173.364150
20
34.630255
11
172.957958
21
35.098364
0
LINE
8
boundary
62
5
39
2
10
172.957958
20
35.098364
11
172.730069
21
35.596457
0
LINE
8
boundary
62
5
39
2
10
172.730069
20
35.596457
11
172.691269
21
36.126752
0
LINE
8
boundary
62
5
39
2
10
172.691269
20
36.126752
11
172.830128
21
36.649295
0
LINE
8
boundary
62
5
39
2
10
172.830128
20
36.649295
11
173.142176
21
37.116373
0
LINE
8
boundary
62
5
39
2
10
173.142176
20
37.116373
11
173.610708
21
37.431126
0
LINE
8
boundary
62
5
39
2
10
173.610708
20
37.431126
11
174.133017
21
37.570780
0
LINE
8
boundary
62
5
39
2
10
174.133017
20
37.570780
11
174.663320
21
37.532907
0
LINE
8
boundary
62
5
39
2
10
174.663320
20
37.532907
11
175.154394
21
37.313050
0
LINE
8
boundary
62
5
39
2
10
175.154394
20
37.313050
11
175.629292
21
36.899685
0
LINE
8
boundary
62
5
39
2
10
175.629292
20
36.899685
11
176.208357
21
36.959552
0
LINE
8
boundary
62
5
39
2
10
176.208357
20
36.959552
11
176.563938
21
37.329364
0
LINE
8
boundary
62
5
39
2
10
176.563938
20
37.329364
11
176.922110
21
37.711506
0
LINE
8
boundary
62
5
39
2
10
176.922110
20
37.711506
11
176.960399
21
38.297921
0
LINE
8
boundary
62
5
39
2
10
176.960399
20
38.297921
11
176.530278
21
38.744100
0
LINE
8
boundary
62
5
39
2
10
176.530278
20
38.744100
11
176.276612
21
39.229641
0
LINE
8
boundary
62
5
39
2
10
176.276612
20
39.229641
11
176.210110
21
39.757187
0
LINE
8
boundary
62
5
39
2
10
176.210110
20
39.757187
11
176.321469
21
40.286225
0
LINE
8
boundary
62
5
39
2
10
176.321469
20
40.286225
11
176.608593
21
40.769025
0
LINE
8
boundary
62
5
39
2
10
176.608593
20
40.769025
11
177.060091
21
41.107846
0
LINE
8
boundary
62
5
39
2
10
177.060091
20
41.107846
11
177.574310
21
41.274581
0
LINE
8
boundary
62
5
39
2
10
177.574310
20
41.274581
11
178.105855
21
41.264619
0
LINE
8
boundary
62
5
39
2
10
178.105855
20
41.264619
11
178.607726
21
41.070699
0
LINE
8
boundary
62
5
39
2
10
178.607726
20
41.070699
11
179.103680
21
40.682751
0
LINE
8
boundary
62
5
39
2
10
179.103680
20
40.682751
11
179.678809
21
40.772916
0
LINE
8
boundary
62
5
39
2
10
179.678809
20
40.772916
11
180.014473
21
41.160717
0
LINE
8
boundary
62
5
39
2
10
180.014473
20
41.160717
11
180.352196
21
41.561120
0
LINE
8
boundary
62
5
39
2
10
180.352196
20
41.561120
11
180.359720
21
42.148712
0
LINE
8
boundary
62
5
39
2
10
180.359720
20
42.148712
11
179.897418
21
42.580667
0
LINE
8
boundary
62
5
39
2
10
179.897418
20
42.580667
11
179.628181
21
43.043373
0
LINE
8
boundary
62
5
39
2
10
179.628181
20
43.043373
11
179.534102
21
43.566721
0
LINE
8
boundary
62
5
39
2
10
179.534102
20
43.566721
11
179.617642
21
44.100893
0
LINE
8
boundary
62
5
39
2
10
179.617642
20
44.100893
11
179.879126
21
44.598073
0
LINE
8
boundary
62
5
39
2
10
179.879126
20
44.598073
11
180.312243
21
44.960118
0
LINE
8
boundary
62
5
39
2
10
180.312243
20
44.960118
11
180.817020
21
45.153523
0
LINE
8
boundary
62
5
39
2
10
180.817020
20
45.153523
11
181.348462
21
45.171260
0
LINE
8
boundary
62
5
39
2
10
181.348462
20
45.171260
11
181.859768
21
45.003902
0
LINE
8
boundary
62
5
39
2
10
181.859768
20
45.003902
11
182.375234
21
44.642520
0
LINE
8
boundary
62
5
39
2
10
182.375234
20
44.642520
11
182.944961
21
44.762565
0
LINE
8
boundary
62
5
39
2
10
182.944961
20
44.762565
11
183.259895
21
45.167537
0
LINE
8
boundary
62
5
39
2
10
183.259895
20
45.167537
11
183.576049
21
45.584973
0
LINE
8
boundary
62
5
39
2
10
183.576049
20
45.584973
11
183.552869
21
46.172175
0
LINE
8
boundary
62
5
39
2
10
183.552869
20
46.172175
11
183.068536
21
46.579344
0
LINE
8
boundary
62
5
39
2
10
183.068536
20
46.579344
11
182.775462
21
47.027374
0
LINE
8
boundary
62
5
39
2
10
182.775462
20
47.027374
11
182.654197
21
47.545068
0
LINE
8
boundary
62
5
39
2
10
182.654197
20
47.545068
11
182.709634
21
48.082827
0
LINE
8
boundary
62
5
39
2
10
182.709634
20
48.082827
11
182.944749
21
48.593031
0
LINE
8
boundary
62
5
39
2
10
182.944749
20
48.593031
11
183.358326
21
48.977157
0
LINE
8
boundary
62
5
39
2
10
183.358326
20
48.977157
11
183.852312
21
49.196808
0
LINE
8
boundary
62
5
39
2
10
183.852312
20
49.196808
11
184.381992
21
49.242360
0
LINE
8
boundary
62
5
39
2
10
184.381992
20
49.242360
11
184.901401
21
49.101980
0
LINE
8
boundary
62
5
39
2
10
184.901401
20
49.101980
11
185.435119
21
48.768092
0
LINE
8
boundary
62
5
39
2
10
185.435119
20
48.768092
11
185.997682
21
48.917810
0
LINE
8
boundary
62
5
39
2
10
185.997682
20
48.917810
11
186.291079
21
49.338637
0
LINE
8
boundary
62
5
39
2
10
186.291079
20
49.338637
11
186.584930
21
49.772154
0
LINE
8
boundary
62
5
39
2
10
186.584930
20
49.772154
11
186.531031
21
50.357293
0
LINE
8
boundary
62
5
39
2
10
186.531031
20
50.357293
11
186.026120
21
50.738526
0
LINE
8
boundary
62
5
39
2
10
186.026120
20
50.738526
11
185.709933
21
51.170544
0
LINE
8
boundary
62
5
39
2
10
185.709933
20
51.170544
11
185.561711
21
51.681238
0
LINE
8
boundary
62
5
39
2
10
185.561711
20
51.681238
11
185.588915
21
52.221131
0
LINE
8
boundary
62
5
39
2
10
185.588915
20
52.221131
11
185.797041
21
52.743006
0
LINE
8
boundary
62
5
39
2
10
185.797041
20
52.743006
11
186.189948
21
53.148275
0
LINE
8
boundary
62
5
39
2
10
186.189948
20
53.148275
11
186.671792
21
53.393348
0
LINE
8
boundary
62
5
39
2
10
186.671792
20
53.393348
11
187.198462
21
53.466600
0
LINE
8
boundary
62
5
39
2
10
187.198462
20
53.466600
11
187.724399
21
53.353610
0
LINE
8
boundary
62
5
39
2
10
187.724399
20
53.353610
11
188.274935
21
53.048051
0
LINE
8
boundary
62
5
39
2
10
188.274935
20
53.048051
11
188.826741
21
53.224691
0
LINE
8
boundary
62
5
39
2
10
188.826741
20
53.224691
11
189.099821
21
53.662692
0
LINE
8
boundary
62
5
39
2
10
189.099821
20
53.662692
11
189.370650
21
54.110951
0
LINE
8
boundary
62
5
39
2
10
189.370650
20
54.110951
11
189.286216
21
54.692450
0
LINE
8
boundary
62
5
39
2
10
189.286216
20
54.692450
11
188.761969
21
55.046815
0
LINE
8
boundary
62
5
39
2
10
188.761969
20
55.046815
11
188.423597
21
55.461674
0
LINE
8
boundary
62
5
39
2
10
188.423597
20
55.461674
11
188.248830
21
55.963820
0
LINE
8
boundary
62
5
39
2
10
188.248830
20
55.963820
11
188.247819
21
56.504494
0
LINE
8
boundary
62
5
39
2
10
188.247819
20
56.504494
11
188.428345
21
57.036487
0
LINE
8
boundary
62
5
39
2
10
188.428345
20
57.036487
11
188.799424
21
57.461747
0
LINE
8
boundary
62
5
39
2
10
188.799424
20
57.461747
11
189.267782
21
57.731825
0
LINE
8
boundary
62
5
39
2
10
189.267782
20
57.731825
11
189.789886
21
57.832470
0
LINE
8
boundary
62
5
39
2
10
189.789886
20
57.832470
11
190.321013
21
57.747183
0
LINE
8
boundary
62
5
39
2
10
190.321013
20
57.747183
11
190.886803
21
57.470879
0
LINE
8
boundary
62
5
39
2
10
190.886803
20
57.470879
11
191.428662
21
57.676155
0
LINE
8
boundary
62
5
39
2
10
191.428662
20
57.676155
11
191.678355
21
58.127783
0
LINE
8
boundary
62
5
39
2
10
191.678355
20
58.127783
11
191.925415
21
58.589636
0
LINE
8
boundary
62
5
39
2
10
191.925415
20
58.589636
11
191.810640
21
59.165920
0
LINE
8
boundary
62
5
39
2
10
191.810640
20
59.165920
11
191.268520
21
59.492264
0
LINE
8
boundary
62
5
39
2
10
191.268520
20
59.492264
11
190.908999
21
59.888942
0
LINE
8
boundary
62
5
39
2
10
190.908999
20
59.888942
11
190.708212
21
60.381288
0
LINE
8
boundary
62
5
39
2
10
190.708212
20
60.381288
11
190.678785
21
60.921085
0
LINE
8
boundary
62
5
39
2
10
190.678785
20
60.921085
11
190.831277
21
61.461846
0
LINE
8
boundary
62
5
39
2
10
190.831277
20
61.461846
11
191.179602
21
61.905953
0
LINE
8
boundary
62
5
39
2
10
191.179602
20
61.905953
11
191.633118
21
62.200103
0
LINE
8
boundary
62
5
39
2
10
191.633118
20
62.200103
11
192.149311
21
62.328032
0
LINE
8
boundary
62
5
39
2
10
192.149311
20
62.328032
11
192.684180
21
62.270659
0
LINE
8
boundary
62
5
39
2
10
192.684180
20
62.270659
11
193.263656
21
62.024238
0
LINE
8
boundary
62
5
39
2
10
193.263656
20
62.024238
11
193.793932
21
62.257629
0
LINE
8
boundary
62
5
39
2
10
193.793932
20
62.257629
11
194.019700
21
62.721758
0
LINE
8
boundary
62
5
39
2
10
194.019700
20
62.721758
11
194.242179
21
63.195867
0
LINE
8
boundary
62
5
39
2
10
194.242179
20
63.195867
11
194.097453
21
63.765360
0
LINE
8
boundary
62
5
39
2
10
194.097453
20
63.765360
11
193.539027
21
64.062946
0
LINE
8
boundary
62
5
39
2
10
193.539027
20
64.062946
11
193.159187
21
64.440206
0
LINE
8
boundary
62
5
39
2
10
193.159187
20
64.440206
11
192.932895
21
64.921405
0
LINE
8
boundary
62
5
39
2
10
192.932895
20
64.921405
11
192.875350
21
65.458874
0
LINE
8
boundary
62
5
39
2
10
192.875350
20
65.458874
11
192.999212
21
66.006848
0
LINE
8
boundary
62
5
39
2
10
192.999212
20
66.006848
11
193.322026
21
66.466550
0
LINE
8
boundary
62
5
39
2
10
193.322026
20
66.466550
11
193.761482
21
66.786145
0
LINE
8
boundary
62
5
39
2
10
193.761482
20
66.786145
11
194.270196
21
66.940844
0
LINE
8
boundary
62
5
39
2
10
194.270196
20
66.940844
11
194.807343
21
66.911485
0
LINE
8
boundary
62
5
39
2
10
194.807343
20
66.911485
11
195.398858
21
66.695876
0
LINE
8
boundary
62
5
39
2
10
195.398858
20
66.695876
11
195.916302
21
66.956567
0
LINE
8
boundary
62
5
39
2
10
195.916302
20
66.956567
11
196.117445
21
67.431866
0
LINE
8
boundary
62
5
39
2
10
196.117445
20
67.431866
11
196.314819
21
67.916980
0
LINE
8
boundary
62
5
39
2
10
196.314819
20
67.916980
11
196.138027
21
68.480388
0
LINE
8
boundary
62
5
39
2
10
196.138027
20
68.480388
11
195.567258
21
68.746109
0
LINE
8
boundary
62
5
39
2
10
195.567258
20
68.746109
11
195.168228
21
69.103010
0
LINE
8
boundary
62
5
39
2
10
195.168228
20
69.103010
11
194.917065
21
69.571618
0
LINE
8
boundary
62
5
39
2
10
194.917065
20
69.571618
11
194.831410
21
70.105406
0
LINE
8
boundary
62
5
39
2
10
194.831410
20
70.105406
11
194.926433
21
70.659143
0
LINE
8
boundary
62
5
39
2
10
194.926433
20
70.659143
11
195.224718
21
71.135081
0
LINE
8
boundary
62
5
39
2
10
195.224718
20
71.135081
11
195.646844
21
71.477186
0
LINE
8
boundary
62
5
39
2
10
195.646844
20
71.477186
11
196.146741
21
71.658343
0
LINE
8
boundary
62
5
39
2
10
196.146741
20
71.658343
11
196.684717
21
71.657205
0
LINE
8
boundary
62
5
39
2
10
196.684717
20
71.657205
11
197.286715
21
71.472726
0
LINE
8
boundary
62
5
39
2
10
197.286715
20
71.472726
11
197.789766
21
71.760202
0
LINE
8
boundary
62
5
39
2
10
197.789766
20
71.760202
11
197.965773
21
72.245449
0
LINE
8
boundary
62
5
39
2
10
197.965773
20
72.245449
11
198.137522
21
72.740219
0
LINE
8
boundary
62
5
39
2
10
198.137522
20
72.740219
11
197.931455
21
73.293551
0
LINE
8
boundary
62
5
39
2
10
197.931455
20
73.293551
11
197.347619
21
73.529077
0
LINE
8
boundary
62
5
39
2
10
197.347619
20
73.529077
11
196.930335
21
73.864598
0
LINE
8
boundary
62
5
39
2
10
196.930335
20
73.864598
11
196.655012
21
74.319367
0
LINE
8
boundary
62
5
39
2
10
196.655012
20
74.319367
11
196.541574
21
74.848023
0
LINE
8
boundary
62
5
39
2
10
196.541574
20
74.848023
11
196.607540
21
75.405860
0
LINE
8
boundary
62
5
39
2
10
196.607540
20
75.405860
11
196.880481
21
75.896793
0
LINE
8
boundary
62
5
39
2
10
196.880481
20
75.896793
11
197.284117
21
76.260572
0
LINE
8
boundary
62
5
39
2
10
197.284117
20
76.260572
11
197.773852
21
76.467567
0
LINE
8
boundary
62
5
39
2
10
197.773852
20
76.467567
11
198.311204
21
76.494648
0
LINE
8
boundary
62
5
39
2
10
198.311204
20
76.494648
11
198.922020
21
76.341917
0
LINE
8
boundary
62
5
39
2
10
198.922020
20
76.341917
11
199.409242
21
76.655356
0
LINE
8
boundary
62
5
39
2
10
199.409242
20
76.655356
11
199.559698
21
77.149015
0
LINE
8
boundary
62
5
39
2
10
199.559698
20
77.149015
11
199.705302
21
77.652194
0
LINE
8
boundary
62
5
39
2
10
199.705302
20
77.652194
11
199.470581
21
78.193973
0
LINE
8
boundary
62
5
39
2
10
199.470581
20
78.193973
11
198.875123
21
78.398581
0
LINE
8
boundary
62
5
39
2
10
198.875123
20
78.398581
11
198.438928
21
78.713690
0
LINE
8
boundary
62
5
39
2
10
198.438928
20
78.713690
11
198.142181
21
79.151580
0
LINE
8
boundary
62
5
39
2
10
198.142181
20
79.151580
11
198.001164
21
79.673550
0
LINE
8
boundary
62
5
39
2
10
198.001164
20
79.673550
11
198.037873
21
80.234138
0
LINE
8
boundary
62
5
39
2
10
198.037873
20
80.234138
11
198.284744
21
80.738615
0
LINE
8
boundary
62
5
39
2
10
198.284744
20
80.738615
11
198.668753
21
81.123022
0
LINE
8
boundary
62
5
39
2
10
198.668753
20
81.123022
11
199.146964
21
81.355436
0
LINE
8
boundary
62
5
39
2
10
199.146964
20
81.355436
11
199.682142
21
81.410531
0
LINE
8
boundary
62
5
39
2
10
199.682142
20
81.410531
11
200.300115
21
81.289966
0
LINE
8
boundary
62
5
39
2
10
200.300115
20
81.289966
11
200.770359
21
81.628543
0
LINE
8
boundary
62
5
39
2
10
200.770359
20
81.628543
11
200.894754
21
82.129390
0
LINE
8
boundary
62
5
39
2
10
200.894754
20
82.129390
11
201.013799
21
82.639423
0
LINE
8
boundary
62
5
39
2
10
201.013799
20
82.639423
11
200.751038
21
83.168168
0
LINE
8
boundary
62
5
39
2
10
200.751038
20
83.168168
11
200.145728
21
83.341337
0
LINE
8
boundary
62
5
39
2
10
200.145728
20
83.341337
11
199.693660
21
83.633204
0
LINE
8
boundary
62
5
39
2
10
199.693660
20
83.633204
11
199.374415
21
84.055077
0
LINE
8
boundary
62
5
39
2
10
199.374415
20
84.055077
11
199.206232
21
84.568913
0
LINE
8
boundary
62
5
39
2
10
199.206232
20
84.568913
11
199.213585
21
85.130595
0
LINE
8
boundary
62
5
39
2
10
199.213585
20
85.130595
11
199.433663
21
85.647361
0
LINE
8
boundary
62
5
39
2
10
199.433663
20
85.647361
11
199.797106
21
86.051252
0
LINE
8
boundary
62
5
39
2
10
199.797106
20
86.051252
11
200.262448
21
86.308465
0
LINE
8
boundary
62
5
39
2
10
200.262448
20
86.308465
11
200.793999
21
86.391469
0
LINE
8
boundary
62
5
39
2
10
200.793999
20
86.391469
11
201.417471
21
86.303485
0
LINE
8
boundary
62
5
39
2
10
201.417471
20
86.303485
11
201.869402
21
86.666068
0
LINE
8
boundary
62
5
39
2
10
201.869402
20
86.666068
11
201.967321
21
87.172773
0
LINE
8
boundary
62
5
39
2
10
201.967321
20
87.172773
11
202.059491
21
87.688312
0
LINE
8
boundary
62
5
39
2
10
202.059491
20
87.688312
11
201.769514
21
88.202644
0
LINE
8
boundary
62
5
39
2
10
201.769514
20
88.202644
11
201.155895
21
88.343960
0
LINE
8
boundary
62
5
39
2
10
201.155895
20
88.343960
11
200.689202
21
88.611757
0
LINE
8
boundary
62
5
39
2
10
200.689202
20
88.611757
11
200.348304
21
89.016276
0
LINE
8
boundary
62
5
39
2
10
200.348304
20
89.016276
11
200.153467
21
89.520522
0
LINE
8
boundary
62
5
39
2
10
200.153467
20
89.520522
11
200.131360
21
90.081944
0
LINE
8
boundary
62
5
39
2
10
200.131360
20
90.081944
11
200.324122
21
90.609450
0
LINE
8
boundary
62
5
39
2
10
200.324122
20
90.609450
11
200.665960
21
91.031879
0
LINE
8
boundary
62
5
39
2
10
200.665960
20
91.031879
11
201.117198
21
91.312956
0
LINE
8
boundary
62
5
39
2
10
201.117198
20
91.312956
11
201.643765
21
91.423664
0
LINE
8
boundary
62
5
39
2
10
201.643765
20
91.423664
11
202.270865
21
91.368466
0
LINE
8
boundary
62
5
39
2
10
202.270865
20
91.368466
11
202.703139
21
91.754234
0
LINE
8
boundary
62
5
39
2
10
202.703139
20
91.754234
11
202.774476
21
92.265467
0
LINE
8
boundary
62
5
39
2
10
202.774476
20
92.265467
11
202.839571
21
92.785065
0
LINE
8
boundary
62
5
39
2
10
202.839571
20
92.785065
11
202.522999
21
93.283500
0
LINE
8
boundary
62
5
39
2
10
202.522999
20
93.283500
11
201.902943
21
93.392445
0
LINE
8
boundary
62
5
39
2
10
201.902943
20
93.392445
11
201.422764
21
93.635443
0
LINE
8
boundary
62
5
39
2
10
201.422764
20
93.635443
11
201.061122
21
94.021574
0
LINE
8
boundary
62
5
39
2
10
201.061122
20
94.021574
11
200.840267
21
94.514991
0
LINE
8
boundary
62
5
39
2
10
200.840267
20
94.514991
11
200.788816
21
95.074464
0
LINE
8
boundary
62
5
39
2
10
200.788816
20
95.074464
11
200.953751
21
95.611344
0
LINE
8
boundary
62
5
39
2
10
200.953751
20
95.611344
11
201.271047
21
96.049087
0
LINE
8
boundary
62
5
39
2
10
201.271047
20
96.049087
11
201.708926
21
96.355453
0
LINE
8
boundary
62
5
39
2
10
201.708926
20
96.355453
11
202.228849
21
96.493574
0
LINE
8
boundary
62
5
39
2
10
202.228849
20
96.493574
11
202.858026
21
96.471235
0
LINE
8
boundary
62
5
39
2
10
202.858026
20
96.471235
11
203.269601
21
96.879117
0
LINE
8
boundary
62
5
39
2
10
203.269601
20
96.879117
11
203.314054
21
97.393316
0
LINE
8
boundary
62
5
39
2
10
203.314054
20
97.393316
11
203.351862
21
97.915677
0
LINE
8
boundary
62
5
39
2
10
203.351862
20
97.915677
11
203.009615
21
98.396822
0
LINE
8
boundary
62
5
39
2
10
203.009615
20
98.396822
11
202.384690
21
98.473187
0
LINE
8
boundary
62
5
39
2
10
202.384690
20
98.473187
11
201.892466
21
98.690744
0
LINE
8
boundary
62
5
39
2
10
201.892466
20
98.690744
11
201.511129
21
99.057404
0
LINE
8
boundary
62
5
39
2
10
201.511129
20
99.057404
11
201.264774
21
99.538598
0
LINE
8
boundary
62
5
39
2
10
201.264774
20
99.538598
11
201.184082
21
100.094570
0
LINE
8
boundary
62
5
39
2
10
201.184082
20
100.094570
11
201.320668
21
100.639352
0
LINE
8
boundary
62
5
39
2
10
201.320668
20
100.639352
11
201.614589
21
101.093097
0
LINE
8
boundary
62
5
39
2
10
201.614589
20
101.093097
11
202.035862
21
101.421960
0
LINE
8
boundary
62
5
39
2
10
202.035862
20
101.421960
11
202.547798
21
101.587109
0
LINE
8
boundary
62
5
39
2
10
202.547798
20
101.587109
11
203.177393
21
101.597734
0
LINE
8
boundary
62
5
39
2
10
203.177393
20
101.597734
11
203.566923
21
102.026596
0
LINE
8
boundary
62
5
39
2
10
203.566923
20
102.026596
11
203.584386
21
102.542410
0
LINE
8
boundary
62
5
39
2
10
203.584386
20
102.542410
11
203.594804
21
103.066035
0
LINE
8
boundary
62
5
39
2
10
203.594804
20
103.066035
11
203.227916
21
103.528602
0
LINE
8
boundary
62
5
39
2
10
203.227916
20
103.528602
11
202.599775
21
103.572169
0
LINE
8
boundary
62
5
39
2
10
202.599775
20
103.572169
11
202.096971
21
103.763663
0
LINE
8
boundary
62
5
39
2
10
202.096971
20
103.763663
11
201.696958
21
104.109855
0
LINE
8
boundary
62
5
39
2
10
201.696958
20
104.109855
11
201.425630
21
104.577505
0
LINE
8
boundary
62
5
39
2
10
201.425630
20
104.577505
11
201.316006
21
105.128490
0
LINE
8
boundary
62
5
39
2
10
201.316006
20
105.128490
11
201.423837
21
105.679666
0
LINE
8
boundary
62
5
39
2
10
201.423837
20
105.679666
11
201.693663
21
106.148175
0
LINE
8
boundary
62
5
39
2
10
201.693663
20
106.148175
11
202.097177
21
106.498635
0
LINE
8
boundary
62
5
39
2
10
202.097177
20
106.498635
11
202.599775
21
106.690345
0
LINE
8
boundary
62
5
39
2
10
202.599775
20
106.690345
11
203.227916
21
106.733913
0
LINE
8
boundary
62
5
39
2
10
203.227916
20
106.733913
11
203.594484
21
107.182571
0
LINE
8
boundary
62
5
39
2
10
203.594484
20
107.182571
11
203.584949
21
107.698591
0
LINE
8
boundary
62
5
39
2
10
203.584949
20
107.698591
11
203.567970
21
108.222056
0
LINE
8
boundary
62
5
39
2
10
203.567970
20
108.222056
11
203.177393
21
108.664781
0
LINE
8
boundary
62
5
39
2
10
203.177393
20
108.664781
11
202.547798
21
108.675406
0
LINE
8
boundary
62
5
39
2
10
202.547798
20
108.675406
11
202.035650
21
108.840327
0
LINE
8
boundary
62
5
39
2
10
202.035650
20
108.840327
11
201.618000
21
109.165106
0
LINE
8
boundary
62
5
39
2
10
201.618000
20
109.165106
11
201.322734
21
109.617919
0
LINE
8
boundary
62
5
39
2
10
201.322734
20
109.617919
11
201.184278
21
110.162415
0
LINE
8
boundary
62
5
39
2
10
201.184278
20
110.162415
11
201.263261
21
110.718484
0
LINE
8
boundary
62
5
39
2
10
201.263261
20
110.718484
11
201.508163
21
111.200463
0
LINE
8
boundary
62
5
39
2
10
201.508163
20
111.200463
11
201.892678
21
111.571563
0
LINE
8
boundary
62
5
39
2
10
201.892678
20
111.571563
11
202.384690
21
111.789327
0
LINE
8
boundary
62
5
39
2
10
202.384690
20
111.789327
11
203.009615
21
111.865693
0
LINE
8
boundary
62
5
39
2
10
203.009615
20
111.865693
11
203.352267
21
112.332930
0
LINE
8
boundary
62
5
39
2
10
203.352267
20
112.332930
11
203.315743
21
112.847744
0
LINE
8
boundary
62
5
39
2
10
203.315743
20
112.847744
11
203.271373
21
113.369599
0
LINE
8
boundary
62
5
39
2
10
203.271373
20
113.369599
11
202.858026
21
113.791280
0
LINE
8
boundary
62
5
39
2
10
202.858026
20
113.791280
11
202.228849
21
113.768941
0
LINE
8
boundary
62
5
39
2
10
202.228849
20
113.768941
11
201.708720
21
113.906823
0
LINE
8
boundary
62
5
39
2
10
201.708720
20
113.906823
11
201.272627
21
114.211152
0
LINE
8
boundary
62
5
39
2
10
201.272627
20
114.211152
11
200.956087
21
114.646041
0
LINE
8
boundary
62
5
39
2
10
200.956087
20
114.646041
11
200.789331
21
115.182545
0
LINE
8
boundary
62
5
39
2
10
200.789331
20
115.182545
11
200.839046
21
115.741949
0
LINE
8
boundary
62
5
39
2
10
200.839046
20
115.741949
11
201.058393
21
116.236137
0
LINE
8
boundary
62
5
39
2
10
201.058393
20
116.236137
11
201.422969
21
116.626864
0
LINE
8
boundary
62
5
39
2
10
201.422969
20
116.626864
11
201.902942
21
116.870070
0
LINE
8
boundary
62
5
39
2
10
201.902942
20
116.870070
11
202.522999
21
116.979015
0
LINE
8
boundary
62
5
39
2
10
202.522999
20
116.979015
11
202.840704
21
117.463502
0
LINE
8
boundary
62
5
39
2
10
202.840704
20
117.463502
11
202.777286
21
117.975710
0
LINE
8
boundary
62
5
39
2
10
202.777286
20
117.975710
11
202.705629
21
118.494612
0
LINE
8
boundary
62
5
39
2
10
202.705629
20
118.494612
11
202.270865
21
118.894048
0
LINE
8
boundary
62
5
39
2
10
202.270865
20
118.894048
11
201.643765
21
118.838851
0
LINE
8
boundary
62
5
39
2
10
201.643765
20
118.838851
11
201.117096
21
118.949249
0
LINE
8
boundary
62
5
39
2
10
201.117096
20
118.949249
11
200.665651
21
119.230324
0
LINE
8
boundary
62
5
39
2
10
200.665651
20
119.230324
11
200.326719
21
119.648046
0
LINE
8
boundary
62
5
39
2
10
200.326719
20
119.648046
11
200.132183
21
120.175156
0
LINE
8
boundary
62
5
39
2
10
200.132183
20
120.175156
11
200.152528
21
120.736450
0
LINE
8
boundary
62
5
39
2
10
200.152528
20
120.736450
11
200.345717
21
121.241388
0
LINE
8
boundary
62
5
39
2
10
200.345717
20
121.241388
11
200.689408
21
121.650654
0
LINE
8
boundary
62
5
39
2
10
200.689408
20
121.650654
11
201.155895
21
121.918555
0
LINE
8
boundary
62
5
39
2
10
201.155895
20
121.918555
11
201.769515
21
122.059871
0
LINE
8
boundary
62
5
39
2
10
201.769515
20
122.059871
11
202.061347
21
122.560330
0
LINE
8
boundary
62
5
39
2
10
202.061347
20
122.560330
11
201.971242
21
123.068582
0
LINE
8
boundary
62
5
39
2
10
201.971242
20
123.068582
11
201.872604
21
123.582929
0
LINE
8
boundary
62
5
39
2
10
201.872604
20
123.582929
11
201.417471
21
123.959030
0
LINE
8
boundary
62
5
39
2
10
201.417471
20
123.959030
11
200.793999
21
123.871046
0
LINE
8
boundary
62
5
39
2
10
200.793999
20
123.871046
11
200.262345
21
123.953843
0
LINE
8
boundary
62
5
39
2
10
200.262345
20
123.953843
11
199.796894
21
124.210952
0
LINE
8
boundary
62
5
39
2
10
199.796894
20
124.210952
11
199.436507
21
124.610389
0
LINE
8
boundary
62
5
39
2
10
199.436507
20
124.610389
11
199.214710
21
125.126459
0
LINE
8
boundary
62
5
39
2
10
199.214710
20
125.126459
11
199.205687
21
125.688006
0
LINE
8
boundary
62
5
39
2
10
199.205687
20
125.688006
11
199.372094
21
126.202442
0
LINE
8
boundary
62
5
39
2
10
199.372094
20
126.202442
11
199.691949
21
126.627143
0
LINE
8
boundary
62
5
39
2
10
199.691949
20
126.627143
11
200.145728
21
126.921178
0
LINE
8
boundary
62
5
39
2
10
200.145728
20
126.921178
11
200.751039
21
127.094347
0
LINE
8
boundary
62
5
39
2
10
200.751039
20
127.094347
11
201.016372
21
127.609439
0
LINE
8
boundary
62
5
39
2
10
201.016372
20
127.609439
11
200.899779
21
128.112199
0
LINE
8
boundary
62
5
39
2
10
200.899779
20
128.112199
11
200.774265
21
128.620640
0
LINE
8
boundary
62
5
39
2
10
200.774265
20
128.620640
11
200.300115
21
128.972548
0
LINE
8
boundary
62
5
39
2
10
200.300115
20
128.972548
11
199.682142
21
128.851984
0
LINE
8
boundary
62
5
39
2
10
199.682142
20
128.851984
11
199.146861
21
128.906871
0
LINE
8
boundary
62
5
39
2
10
199.146861
20
128.906871
11
198.668547
21
129.139182
0
LINE
8
boundary
62
5
39
2
10
198.668547
20
129.139182
11
198.287828
21
129.519199
0
LINE
8
boundary
62
5
39
2
10
198.287828
20
129.519199
11
198.039293
21
130.022987
0
LINE
8
boundary
62
5
39
2
10
198.039293
20
130.022987
11
198.000810
21
130.583332
0
LINE
8
boundary
62
5
39
2
10
198.000810
20
130.583332
11
198.140213
21
131.105717
0
LINE
8
boundary
62
5
39
2
10
198.140213
20
131.105717
11
198.437431
21
131.546561
0
LINE
8
boundary
62
5
39
2
10
198.437431
20
131.546561
11
198.875123
21
131.863934
0
LINE
8
boundary
62
5
39
2
10
198.875123
20
131.863934
11
199.470582
21
132.068543
0
LINE
8
boundary
62
5
39
2
10
199.470582
20
132.068543
11
199.708587
21
132.596822
0
LINE
8
boundary
62
5
39
2
10
199.708587
20
132.596822
11
199.565813
21
133.092863
0
LINE
8
boundary
62
5
39
2
10
199.565813
20
133.092863
11
199.413839
21
133.594050
0
LINE
8
boundary
62
5
39
2
10
199.413839
20
133.594050
11
198.922020
21
133.920598
0
LINE
8
boundary
62
5
39
2
10
198.922020
20
133.920598
11
198.311205
21
133.767866
0
LINE
8
boundary
62
5
39
2
10
198.311205
20
133.767866
11
197.773749
21
133.794636
0
LINE
8
boundary
62
5
39
2
10
197.773749
20
133.794636
11
197.283911
21
134.001631
0
LINE
8
boundary
62
5
39
2
10
197.283911
20
134.001631
11
196.883812
21
134.361200
0
LINE
8
boundary
62
5
39
2
10
196.883812
20
134.361200
11
196.609262
21
134.851353
0
LINE
8
boundary
62
5
39
2
10
196.609262
20
134.851353
11
196.541516
21
135.408839
0
LINE
8
boundary
62
5
39
2
10
196.541516
20
135.408839
11
196.653304
21
135.937817
0
LINE
8
boundary
62
5
39
2
10
196.653304
20
135.937817
11
196.927054
21
136.393667
0
LINE
8
boundary
62
5
39
2
10
196.927054
20
136.393667
11
197.347619
21
136.733438
0
LINE
8
boundary
62
5
39
2
10
197.347619
20
136.733438
11
197.931455
21
136.968964
0
LINE
8
boundary
62
5
39
2
10
197.931455
20
136.968964
11
198.141508
21
137.508989
0
LINE
8
boundary
62
5
39
2
10
198.141508
20
137.508989
11
197.972958
21
137.996779
0
LINE
8
boundary
62
5
39
2
10
197.972958
20
137.996779
11
197.795042
21
138.489359
0
LINE
8
boundary
62
5
39
2
10
197.795042
20
138.489359
11
197.286715
21
138.789789
0
LINE
8
boundary
62
5
39
2
10
197.286715
20
138.789789
11
196.684717
21
138.605311
0
LINE
8
boundary
62
5
39
2
10
196.684717
20
138.605311
11
196.146638
21
138.603857
0
LINE
8
boundary
62
5
39
2
10
196.146638
20
138.603857
11
195.646632
21
138.785014
0
LINE
8
boundary
62
5
39
2
10
195.646632
20
138.785014
11
195.228275
21
139.123103
0
LINE
8
boundary
62
5
39
2
10
195.228275
20
139.123103
11
194.928443
21
139.598175
0
LINE
8
boundary
62
5
39
2
10
194.928443
20
139.598175
11
194.831647
21
140.151450
0
LINE
8
boundary
62
5
39
2
10
194.831647
20
140.151450
11
194.915628
21
140.685468
0
LINE
8
boundary
62
5
39
2
10
194.915628
20
140.685468
11
195.165067
21
141.155070
0
LINE
8
boundary
62
5
39
2
10
195.165067
20
141.155070
11
195.567259
21
141.516406
0
LINE
8
boundary
62
5
39
2
10
195.567259
20
141.516406
11
196.138027
21
141.782127
0
LINE
8
boundary
62
5
39
2
10
196.138027
20
141.782127
11
196.319497
21
142.332454
0
LINE
8
boundary
62
5
39
2
10
196.319497
20
142.332454
11
196.125680
21
142.810767
0
LINE
8
boundary
62
5
39
2
10
196.125680
20
142.810767
11
195.922244
21
143.293291
0
LINE
8
boundary
62
5
39
2
10
195.922244
20
143.293291
11
195.398858
21
143.566639
0
LINE
8
boundary
62
5
39
2
10
195.398858
20
143.566639
11
194.807343
21
143.351029
0
LINE
8
boundary
62
5
39
2
10
194.807343
20
143.351029
11
194.270093
21
143.321359
0
LINE
8
boundary
62
5
39
2
10
194.270093
20
143.321359
11
193.761270
21
143.476061
0
LINE
8
boundary
62
5
39
2
10
193.761270
20
143.476061
11
193.323730
21
143.793762
0
LINE
8
boundary
62
5
39
2
10
193.323730
20
143.793762
11
193.001507
21
144.250588
0
LINE
8
boundary
62
5
39
2
10
193.001507
20
144.250588
11
192.875884
21
144.797992
0
LINE
8
boundary
62
5
39
2
10
192.875884
20
144.797992
11
192.931836
21
145.335697
0
LINE
8
boundary
62
5
39
2
10
192.931836
20
145.335697
11
193.156356
21
145.817708
0
LINE
8
boundary
62
5
39
2
10
193.156356
20
145.817708
11
193.539027
21
146.199569
0
LINE
8
boundary
62
5
39
2
10
193.539027
20
146.199569
11
194.095158
21
146.494857
0
LINE
8
boundary
62
5
39
2
10
194.095158
20
146.494857
11
194.247537
21
147.053831
0
LINE
8
boundary
62
5
39
2
10
194.247537
20
147.053831
11
194.028965
21
147.521331
0
LINE
8
boundary
62
5
39
2
10
194.028965
20
147.521331
11
193.800521
21
147.992656
0
LINE
8
boundary
62
5
39
2
10
193.800521
20
147.992656
11
193.263657
21
148.238277
0
LINE
8
boundary
62
5
39
2
10
193.263657
20
148.238277
11
192.684180
21
147.991856
0
LINE
8
boundary
62
5
39
2
10
192.684180
20
147.991856
11
192.149208
21
147.934168
0
LINE
8
boundary
62
5
39
2
10
192.149208
20
147.934168
11
191.633021
21
148.062101
0
LINE
8
boundary
62
5
39
2
10
191.633021
20
148.062101
11
191.179500
21
148.356456
0
LINE
8
boundary
62
5
39
2
10
191.179500
20
148.356456
11
190.833750
21
148.795718
0
LINE
8
boundary
62
5
39
2
10
190.833750
20
148.795718
11
190.679613
21
149.335806
0
LINE
8
boundary
62
5
39
2
10
190.679613
20
149.335806
11
190.707339
21
149.875739
0
LINE
8
boundary
62
5
39
2
10
190.707339
20
149.875739
11
190.906411
21
150.368817
0
LINE
8
boundary
62
5
39
2
10
190.906411
20
150.368817
11
191.268520
21
150.770250
0
LINE
8
boundary
62
5
39
2
10
191.268520
20
150.770250
11
191.808470
21
151.094180
0
LINE
8
boundary
62
5
39
2
10
191.808470
20
151.094180
11
191.931436
21
151.660359
0
LINE
8
boundary
62
5
39
2
10
191.931436
20
151.660359
11
191.688624
21
152.115818
0
LINE
8
boundary
62
5
39
2
10
191.688624
20
152.115818
11
191.435885
21
152.574492
0
LINE
8
boundary
62
5
39
2
10
191.435885
20
152.574492
11
190.886803
21
152.791636
0
LINE
8
boundary
62
5
39
2
10
190.886803
20
152.791636
11
190.321013
21
152.515332
0
LINE
8
boundary
62
5
39
2
10
190.321013
20
152.515332
11
189.789783
21
152.429733
0
LINE
8
boundary
62
5
39
2
10
189.789783
20
152.429733
11
189.267679
21
152.530375
0
LINE
8
boundary
62
5
39
2
10
189.267679
20
152.530375
11
188.799322
21
152.800562
0
LINE
8
boundary
62
5
39
2
10
188.799322
20
152.800562
11
188.431092
21
153.221231
0
LINE
8
boundary
62
5
39
2
10
188.431092
20
153.221231
11
188.248953
21
153.752544
0
LINE
8
boundary
62
5
39
2
10
188.248953
20
153.752544
11
188.248346
21
154.293160
0
LINE
8
boundary
62
5
39
2
10
188.248346
20
154.293160
11
188.421256
21
154.795937
0
LINE
8
boundary
62
5
39
2
10
188.421256
20
154.795937
11
188.761969
21
155.215700
0
LINE
8
boundary
62
5
39
2
10
188.761969
20
155.215700
11
189.284176
21
155.567538
0
LINE
8
boundary
62
5
39
2
10
189.284176
20
155.567538
11
189.377316
21
156.139376
0
LINE
8
boundary
62
5
39
2
10
189.377316
20
156.139376
11
189.111066
21
156.581472
0
LINE
8
boundary
62
5
39
2
10
189.111066
20
156.581472
11
188.834575
21
157.026351
0
LINE
8
boundary
62
5
39
2
10
188.834575
20
157.026351
11
188.274935
21
157.214464
0
LINE
8
boundary
62
5
39
2
10
188.274935
20
157.214464
11
187.724399
21
156.908905
0
LINE
8
boundary
62
5
39
2
10
187.724399
20
156.908905
11
187.198359
21
156.795606
0
LINE
8
boundary
62
5
39
2
10
187.198359
20
156.795606
11
186.671689
21
156.868749
0
LINE
8
boundary
62
5
39
2
10
186.671689
20
156.868749
11
186.189845
21
157.114137
0
LINE
8
boundary
62
5
39
2
10
186.189845
20
157.114137
11
185.800050
21
157.514874
0
LINE
8
boundary
62
5
39
2
10
185.800050
20
157.514874
11
185.590336
21
158.035959
0
LINE
8
boundary
62
5
39
2
10
185.590336
20
158.035959
11
185.561506
21
158.575802
0
LINE
8
boundary
62
5
39
2
10
185.561506
20
158.575802
11
185.707846
21
159.086937
0
LINE
8
boundary
62
5
39
2
10
185.707846
20
159.086937
11
186.024169
21
159.521957
0
LINE
8
boundary
62
5
39
2
10
186.024169
20
159.521957
11
186.529123
21
159.902593
0
LINE
8
boundary
62
5
39
2
10
186.529123
20
159.902593
11
186.592326
21
160.478538
0
LINE
8
boundary
62
5
39
2
10
186.592326
20
160.478538
11
186.303269
21
160.906141
0
LINE
8
boundary
62
5
39
2
10
186.303269
20
160.906141
11
186.003836
21
161.335877
0
LINE
8
boundary
62
5
39
2
10
186.003836
20
161.335877
11
185.435119
21
161.494423
0
LINE
8
boundary
62
5
39
2
10
185.435119
20
161.494423
11
184.901400
21
161.160535
0
LINE
8
boundary
62
5
39
2
10
184.901400
20
161.160535
11
184.381992
21
161.019846
0
LINE
8
boundary
62
5
39
2
10
184.381992
20
161.019846
11
183.852203
21
161.065392
0
LINE
8
boundary
62
5
39
2
10
183.852203
20
161.065392
11
183.358120
21
161.285152
0
LINE
8
boundary
62
5
39
2
10
183.358120
20
161.285152
11
182.948005
21
161.665025
0
LINE
8
boundary
62
5
39
2
10
182.948005
20
161.665025
11
182.711334
21
162.174331
0
LINE
8
boundary
62
5
39
2
10
182.711334
20
162.174331
11
182.654185
21
162.711947
0
LINE
8
boundary
62
5
39
2
10
182.654185
20
162.711947
11
182.773637
21
163.229987
0
LINE
8
boundary
62
5
39
2
10
182.773637
20
163.229987
11
183.066696
21
163.681039
0
LINE
8
boundary
62
5
39
2
10
183.066696
20
163.681039
11
183.551101
21
164.087615
0
LINE
8
boundary
62
5
39
2
10
183.551101
20
164.087615
11
183.583952
21
164.666016
0
LINE
8
boundary
62
5
39
2
10
183.583952
20
164.666016
11
183.272995
21
165.077904
0
LINE
8
boundary
62
5
39
2
10
183.272995
20
165.077904
11
182.951567
21
165.491455
0
LINE
8
boundary
62
5
39
2
10
182.951567
20
165.491455
11
182.375235
21
165.619995
0
LINE
8
boundary
62
5
39
2
10
182.375235
20
165.619995
11
181.859768
21
165.258613
0
LINE
8
boundary
62
5
39
2
10
181.859768
20
165.258613
11
181.348359
21
165.090939
0
LINE
8
boundary
62
5
39
2
10
181.348359
20
165.090939
11
180.816911
21
165.108683
0
LINE
8
boundary
62
5
39
2
10
180.816911
20
165.108683
11
180.312037
21
165.302294
0
LINE
8
boundary
62
5
39
2
10
180.312037
20
165.302294
11
179.882533
21
165.660172
0
LINE
8
boundary
62
5
39
2
10
179.882533
20
165.660172
11
179.619527
21
166.156352
0
LINE
8
boundary
62
5
39
2
10
179.619527
20
166.156352
11
179.534366
21
166.690285
0
LINE
8
boundary
62
5
39
2
10
179.534366
20
166.690285
11
179.626522
21
167.213884
0
LINE
8
boundary
62
5
39
2
10
179.626522
20
167.213884
11
179.895689
21
167.679623
0
LINE
8
boundary
62
5
39
2
10
179.895689
20
167.679623
11
180.358097
21
168.110989
0
LINE
8
boundary
62
5
39
2
10
180.358097
20
168.110989
11
180.360689
21
168.690399
0
LINE
8
boundary
62
5
39
2
10
180.360689
20
168.690399
11
180.028451
21
169.085434
0
LINE
8
boundary
62
5
39
2
10
180.028451
20
169.085434
11
179.685850
21
169.481464
0
LINE
8
boundary
62
5
39
2
10
179.685850
20
169.481464
11
179.103680
21
169.579764
0
LINE
8
boundary
62
5
39
2
10
179.103680
20
169.579764
11
178.607726
21
169.191815
0
LINE
8
boundary
62
5
39
2
10
178.607726
20
169.191815
11
178.105855
21
168.997690
0
LINE
8
boundary
62
5
39
2
10
178.105855
20
168.997690
11
177.574207
21
168.987522
0
LINE
8
boundary
62
5
39
2
10
177.574207
20
168.987522
11
177.059885
21
169.154463
0
LINE
8
boundary
62
5
39
2
10
177.059885
20
169.154463
11
176.610203
21
169.491361
0
LINE
8
boundary
62
5
39
2
10
176.610203
20
169.491361
11
176.323634
21
169.971121
0
LINE
8
boundary
62
5
39
2
10
176.323634
20
169.971121
11
176.210664
21
170.499824
0
LINE
8
boundary
62
5
39
2
10
176.210664
20
170.499824
11
176.275324
21
171.027625
0
LINE
8
boundary
62
5
39
2
10
176.275324
20
171.027625
11
176.519676
21
171.506803
0
LINE
8
boundary
62
5
39
2
10
176.519676
20
171.506803
11
176.949937
21
171.952400
0
LINE
8
boundary
62
5
39
2
10
176.949937
20
171.952400
11
176.931166
21
172.540474
0
LINE
8
boundary
62
5
39
2
10
176.931166
20
172.540474
11
176.578755
21
172.917540
0
LINE
8
boundary
62
5
39
2
10
176.578755
20
172.917540
11
176.215816
21
173.295204
0
LINE
8
boundary
62
5
39
2
10
176.215816
20
173.295204
11
175.629292
21
173.362830
0
LINE
8
boundary
62
5
39
2
10
175.629292
20
173.362830
11
175.154394
21
172.949465
0
LINE
8
boundary
62
5
39
2
10
175.154394
20
172.949465
11
174.663423
21
172.729293
0
LINE
8
boundary
62
5
39
2
10
174.663423
20
172.729293
11
174.133017
21
172.691420
0
LINE
8
boundary
62
5
39
2
10
174.133017
20
172.691420
11
173.610605
21
172.831183
0
LINE
8
boundary
62
5
39
2
10
173.610605
20
172.831183
11
173.143906
21
173.144112
0
LINE
8
boundary
62
5
39
2
10
173.143906
20
173.144112
11
172.832663
21
173.608166
0
LINE
8
boundary
62
5
39
2
10
172.832663
20
173.608166
11
172.692114
21
174.130280
0
LINE
8
boundary
62
5
39
2
10
172.692114
20
174.130280
11
172.729067
21
174.660634
0
LINE
8
boundary
62
5
39
2
10
172.729067
20
174.660634
11
172.947982
21
175.152000
0
LINE
8
boundary
62
5
39
2
10
172.947982
20
175.152000
11
173.354337
21
175.619535
0
LINE
8
boundary
62
5
39
2
10
173.354337
20
175.619535
11
173.304800
21
176.205769
0
LINE
8
boundary
62
5
39
2
10
173.304800
20
176.205769
11
172.925393
21
176.571398
0
LINE
8
boundary
62
5
39
2
10
172.925393
20
176.571398
11
172.543155
21
176.929467
0
LINE
8
boundary
62
5
39
2
10
172.543155
20
176.929467
11
171.961698
21
176.958928
0
LINE
8
boundary
62
5
39
2
10
171.961698
20
176.958928
11
171.509116
21
176.521286
0
LINE
8
boundary
62
5
39
2
10
171.509116
20
176.521286
11
171.030281
21
176.275698
0
LINE
8
boundary
62
5
39
2
10
171.030281
20
176.275698
11
170.502576
21
176.210119
0
LINE
8
boundary
62
5
39
2
10
170.502576
20
176.210119
11
169.973624
21
176.322388
0
LINE
8
boundary
62
5
39
2
10
169.973624
20
176.322388
11
169.491155
21
176.610410
0
LINE
8
boundary
62
5
39
2
10
169.491155
20
176.610410
11
169.156076
21
177.057619
0
LINE
8
boundary
62
5
39
2
10
169.156076
20
177.057619
11
168.988454
21
177.571596
0
LINE
8
boundary
62
5
39
2
10
168.988454
20
177.571596
11
168.997497
21
178.103145
0
LINE
8
boundary
62
5
39
2
10
168.997497
20
178.103145
11
169.190457
21
178.605259
0
LINE
8
boundary
62
5
39
2
10
169.190457
20
178.605259
11
169.571793
21
179.093490
0
LINE
8
boundary
62
5
39
2
10
169.571793
20
179.093490
11
169.491571
21
179.676318
0
LINE
8
boundary
62
5
39
2
10
169.491571
20
179.676318
11
169.093662
21
180.021514
0
LINE
8
boundary
62
5
39
2
10
169.093662
20
180.021514
11
168.693166
21
180.359133
0
LINE
8
boundary
62
5
39
2
10
168.693166
20
180.359133
11
168.110989
21
180.358097
0
LINE
8
boundary
62
5
39
2
10
168.110989
20
180.358097
11
167.690665
21
179.906883
0
LINE
8
boundary
62
5
39
2
10
167.690665
20
179.906883
11
167.216603
21
179.627134
0
LINE
8
boundary
62
5
39
2
10
167.216603
20
179.627134
11
166.693046
21
179.533965
0
LINE
8
boundary
62
5
39
2
10
166.693046
20
179.533965
11
166.158910
21
179.618420
0
LINE
8
boundary
62
5
39
2
10
166.158910
20
179.618420
11
165.662016
21
179.880819
0
LINE
8
boundary
62
5
39
2
10
165.662016
20
179.880819
11
165.303932
21
180.309847
0
LINE
8
boundary
62
5
39
2
10
165.303932
20
180.309847
11
165.109655
21
180.814339
0
LINE
8
boundary
62
5
39
2
10
165.109655
20
180.814339
11
165.090996
21
181.345733
0
LINE
8
boundary
62
5
39
2
10
165.090996
20
181.345733
11
165.257385
21
181.857231
0
LINE
8
boundary
62
5
39
2
10
165.257385
20
181.857231
11
165.612570
21
182.364643
0
LINE
8
boundary
62
5
39
2
10
165.612570
20
182.364643
11
165.502048
21
182.942578
0
LINE
8
boundary
62
5
39
2
10
165.502048
20
182.942578
11
165.086482
21
183.266502
0
LINE
8
boundary
62
5
39
2
10
165.086482
20
183.266502
11
164.668860
21
183.582543
0
LINE
8
boundary
62
5
39
2
10
164.668860
20
183.582543
11
164.087615
21
183.551101
0
LINE
8
boundary
62
5
39
2
10
164.087615
20
183.551101
11
163.691480
21
183.078451
0
LINE
8
boundary
62
5
39
2
10
163.691480
20
183.078451
11
163.232659
21
182.774283
0
LINE
8
boundary
62
5
39
2
10
163.232659
20
182.774283
11
162.714710
21
182.653918
0
LINE
8
boundary
62
5
39
2
10
162.714710
20
182.653918
11
162.176940
21
182.710267
0
LINE
8
boundary
62
5
39
2
10
162.176940
20
182.710267
11
161.666972
21
182.946311
0
LINE
8
boundary
62
5
39
2
10
161.666972
20
182.946311
11
161.287014
21
183.356013
0
LINE
8
boundary
62
5
39
2
10
161.287014
20
183.356013
11
161.066510
21
183.849669
0
LINE
8
boundary
62
5
39
2
10
161.066510
20
183.849669
11
161.020040
21
184.379254
0
LINE
8
boundary
62
5
39
2
10
161.020040
20
184.379254
11
161.159442
21
184.898804
0
LINE
8
boundary
62
5
39
2
10
161.159442
20
184.898804
11
161.487563
21
185.424153
0
LINE
8
boundary
62
5
39
2
10
161.487563
20
185.424153
11
161.346924
21
185.995414
0
LINE
8
boundary
62
5
39
2
10
161.346924
20
185.995414
11
160.915050
21
186.297233
0
LINE
8
boundary
62
5
39
2
10
160.915050
20
186.297233
11
160.481452
21
186.591069
0
LINE
8
boundary
62
5
39
2
10
160.481452
20
186.591069
11
159.902593
21
186.529123
0
LINE
8
boundary
62
5
39
2
10
159.902593
20
186.529123
11
159.531767
21
186.036455
0
LINE
8
boundary
62
5
39
2
10
159.531767
20
186.036455
11
159.089555
21
185.708625
0
LINE
8
boundary
62
5
39
2
10
159.089555
20
185.708625
11
158.578558
21
185.561286
0
LINE
8
boundary
62
5
39
2
10
158.578558
20
185.561286
11
158.038608
21
185.589403
0
LINE
8
boundary
62
5
39
2
10
158.038608
20
185.589403
11
157.516916
21
185.798469
0
LINE
8
boundary
62
5
39
2
10
157.516916
20
185.798469
11
157.116018
21
186.187727
0
LINE
8
boundary
62
5
39
2
10
157.116018
20
186.187727
11
156.870104
21
186.669194
0
LINE
8
boundary
62
5
39
2
10
156.870104
20
186.669194
11
156.795943
21
187.195721
0
LINE
8
boundary
62
5
39
2
10
156.795943
20
187.195721
11
156.907950
21
187.721749
0
LINE
8
boundary
62
5
39
2
10
156.907950
20
187.721749
11
157.208186
21
188.263623
0
LINE
8
boundary
62
5
39
2
10
157.208186
20
188.263623
11
157.035490
21
188.828892
0
LINE
8
boundary
62
5
39
2
10
157.035490
20
188.828892
11
156.590683
21
189.105504
0
LINE
8
boundary
62
5
39
2
10
156.590683
20
189.105504
11
156.142352
21
189.376212
0
LINE
8
boundary
62
5
39
2
10
156.142352
20
189.376212
11
155.567538
21
189.284176
0
LINE
8
boundary
62
5
39
2
10
155.567538
20
189.284176
11
155.222929
21
188.772699
0
LINE
8
boundary
62
5
39
2
10
155.222929
20
188.772699
11
154.798496
21
188.422164
0
LINE
8
boundary
62
5
39
2
10
154.798496
20
188.422164
11
154.296004
21
188.248265
0
LINE
8
boundary
62
5
39
2
10
154.296004
20
188.248265
11
153.755221
21
188.248162
0
LINE
8
boundary
62
5
39
2
10
153.755221
20
188.248162
11
153.223365
21
188.429637
0
LINE
8
boundary
62
5
39
2
10
153.223365
20
188.429637
11
152.802656
21
188.797299
0
LINE
8
boundary
62
5
39
2
10
152.802656
20
188.797299
11
152.531764
21
189.265237
0
LINE
8
boundary
62
5
39
2
10
152.531764
20
189.265237
11
152.430217
21
189.787151
0
LINE
8
boundary
62
5
39
2
10
152.430217
20
189.787151
11
152.514515
21
190.318318
0
LINE
8
boundary
62
5
39
2
10
152.514515
20
190.318318
11
152.785958
21
190.875178
0
LINE
8
boundary
62
5
39
2
10
152.785958
20
190.875178
11
152.583914
21
191.430690
0
LINE
8
boundary
62
5
39
2
10
152.583914
20
191.430690
11
152.125309
21
191.683551
0
LINE
8
boundary
62
5
39
2
10
152.125309
20
191.683551
11
151.663389
21
191.930490
0
LINE
8
boundary
62
5
39
2
10
151.663389
20
191.930490
11
151.094180
21
191.808471
0
LINE
8
boundary
62
5
39
2
10
151.094180
20
191.808471
11
150.776906
21
191.279614
0
LINE
8
boundary
62
5
39
2
10
150.776906
20
191.279614
11
150.371307
21
190.907447
0
LINE
8
boundary
62
5
39
2
10
150.371307
20
190.907447
11
149.878568
21
190.707508
0
LINE
8
boundary
62
5
39
2
10
149.878568
20
190.707508
11
149.338618
21
190.678979
0
LINE
8
boundary
62
5
39
2
10
149.338618
20
190.678979
11
148.797942
21
190.832428
0
LINE
8
boundary
62
5
39
2
10
148.797942
20
190.832428
11
148.358562
21
191.177579
0
LINE
8
boundary
62
5
39
2
10
148.358562
20
191.177579
11
148.063619
21
191.630634
0
LINE
8
boundary
62
5
39
2
10
148.063619
20
191.630634
11
147.934798
21
192.146589
0
LINE
8
boundary
62
5
39
2
10
147.934798
20
192.146589
11
147.991184
21
192.681445
0
LINE
8
boundary
62
5
39
2
10
147.991184
20
192.681445
11
148.233214
21
193.251750
0
LINE
8
boundary
62
5
39
2
10
148.233214
20
193.251750
11
148.002338
21
193.795825
0
LINE
8
boundary
62
5
39
2
10
148.002338
20
193.795825
11
147.531074
21
194.024396
0
LINE
8
boundary
62
5
39
2
10
147.531074
20
194.024396
11
147.056905
21
194.246748
0
LINE
8
boundary
62
5
39
2
10
147.056905
20
194.246748
11
146.494857
21
194.095159
0
LINE
8
boundary
62
5
39
2
10
146.494857
20
194.095159
11
146.205636
21
193.550454
0
LINE
8
boundary
62
5
39
2
10
146.205636
20
193.550454
11
145.820125
21
193.157516
0
LINE
8
boundary
62
5
39
2
10
145.820125
20
193.157516
11
145.338490
21
192.932051
0
LINE
8
boundary
62
5
39
2
10
145.338490
20
192.932051
11
144.800823
21
192.875399
0
LINE
8
boundary
62
5
39
2
10
144.800823
20
192.875399
11
144.252885
21
193.000216
0
LINE
8
boundary
62
5
39
2
10
144.252885
20
193.000216
11
143.793862
21
193.323943
0
LINE
8
boundary
62
5
39
2
10
143.793862
20
193.323943
11
143.477705
21
193.759062
0
LINE
8
boundary
62
5
39
2
10
143.477705
20
193.759062
11
143.322129
21
194.267493
0
LINE
8
boundary
62
5
39
2
10
143.322129
20
194.267493
11
143.350499
21
194.804575
0
LINE
8
boundary
62
5
39
2
10
143.350499
20
194.804575
11
143.562208
21
195.386705
0
LINE
8
boundary
62
5
39
2
10
143.562208
20
195.386705
11
143.303204
21
195.918061
0
LINE
8
boundary
62
5
39
2
10
143.303204
20
195.918061
11
142.820736
21
196.121628
0
LINE
8
boundary
62
5
39
2
10
142.820736
20
196.121628
11
142.335567
21
196.318872
0
LINE
8
boundary
62
5
39
2
10
142.335567
20
196.318872
11
141.784304
21
196.140440
0
LINE
8
boundary
62
5
39
2
10
141.784304
20
196.140440
11
141.521866
21
195.578986
0
LINE
8
boundary
62
5
39
2
10
141.521866
20
195.578986
11
141.157414
21
195.166447
0
LINE
8
boundary
62
5
39
2
10
141.157414
20
195.166447
11
140.688326
21
194.916087
0
LINE
8
boundary
62
5
39
2
10
140.688326
20
194.916087
11
140.154292
21
194.831311
0
LINE
8
boundary
62
5
39
2
10
140.154292
20
194.831311
11
139.600541
21
194.927291
0
LINE
8
boundary
62
5
39
2
10
139.600541
20
194.927291
11
139.125234
21
195.226521
0
LINE
8
boundary
62
5
39
2
10
139.125234
20
195.226521
11
138.786787
21
195.644499
0
LINE
8
boundary
62
5
39
2
10
138.786787
20
195.644499
11
138.604771
21
196.144066
0
LINE
8
boundary
62
5
39
2
10
138.604771
20
196.144066
11
138.604926
21
196.681926
0
LINE
8
boundary
62
5
39
2
10
138.604926
20
196.681926
11
138.785999
21
197.274346
0
LINE
8
boundary
62
5
39
2
10
138.785999
20
197.274346
11
138.499479
21
197.791384
0
LINE
8
boundary
62
5
39
2
10
138.499479
20
197.791384
11
138.006946
21
197.969432
0
LINE
8
boundary
62
5
39
2
10
138.006946
20
197.969432
11
137.512130
21
198.141048
0
LINE
8
boundary
62
5
39
2
10
137.512130
20
198.141048
11
136.971011
21
197.933978
0
LINE
8
boundary
62
5
39
2
10
136.971011
20
197.933978
11
136.738277
21
197.359615
0
LINE
8
boundary
62
5
39
2
10
136.738277
20
197.359615
11
136.395919
21
196.928446
0
LINE
8
boundary
62
5
39
2
10
136.395919
20
196.928446
11
135.940632
21
196.653899
0
LINE
8
boundary
62
5
39
2
10
135.940632
20
196.653899
11
135.411682
21
196.541327
0
LINE
8
boundary
62
5
39
2
10
135.411682
20
196.541327
11
134.853783
21
196.608250
0
LINE
8
boundary
62
5
39
2
10
134.853783
20
196.608250
11
134.363430
21
196.882167
0
LINE
8
boundary
62
5
39
2
10
134.363430
20
196.882167
11
134.003522
21
197.281851
0
LINE
8
boundary
62
5
39
2
10
134.003522
20
197.281851
11
133.795683
21
197.771213
0
LINE
8
boundary
62
5
39
2
10
133.795683
20
197.771213
11
133.767630
21
198.308397
0
LINE
8
boundary
62
5
39
2
10
133.767630
20
198.308397
11
133.917460
21
198.909470
0
LINE
8
boundary
62
5
39
2
10
133.917460
20
198.909470
11
133.604347
21
199.410713
0
LINE
8
boundary
62
5
39
2
10
133.604347
20
199.410713
11
133.103202
21
199.562824
0
LINE
8
boundary
62
5
39
2
10
133.103202
20
199.562824
11
132.599981
21
199.708291
0
LINE
8
boundary
62
5
39
2
10
132.599981
20
199.708291
11
132.070455
21
199.473208
0
LINE
8
boundary
62
5
39
2
10
132.070455
20
199.473208
11
131.868138
21
198.887358
0
LINE
8
boundary
62
5
39
2
10
131.868138
20
198.887358
11
131.550720
21
198.440919
0
LINE
8
boundary
62
5
39
2
10
131.550720
20
198.440919
11
131.108481
21
198.140939
0
LINE
8
boundary
62
5
39
2
10
131.108481
20
198.140939
11
130.586172
21
198.000770
0
LINE
8
boundary
62
5
39
2
10
130.586172
20
198.000770
11
130.025471
21
198.038432
0
LINE
8
boundary
62
5
39
2
10
130.025471
20
198.038432
11
129.521524
21
198.286309
0
LINE
8
boundary
62
5
39
2
10
129.521524
20
198.286309
11
129.141189
21
198.666574
0
LINE
8
boundary
62
5
39
2
10
129.141189
20
198.666574
11
128.907953
21
199.144367
0
LINE
8
boundary
62
5
39
2
10
128.907953
20
199.144367
11
128.851894
21
199.679328
0
LINE
8
boundary
62
5
39
2
10
128.851894
20
199.679328
11
128.970071
21
200.287418
0
LINE
8
boundary
62
5
39
2
10
128.970071
20
200.287418
11
128.631086
21
200.771683
0
LINE
8
boundary
62
5
39
2
10
128.631086
20
200.771683
11
128.122679
21
200.897336
0
LINE
8
boundary
62
5
39
2
10
128.122679
20
200.897336
11
127.612611
21
201.016242
0
LINE
8
boundary
62
5
39
2
10
127.612611
20
201.016242
11
127.096119
21
200.753761
0
LINE
8
boundary
62
5
39
2
10
127.096119
20
200.753761
11
126.924736
21
200.158165
0
LINE
8
boundary
62
5
39
2
10
126.924736
20
200.158165
11
126.631097
21
199.695747
0
LINE
8
boundary
62
5
39
2
10
126.631097
20
199.695747
11
126.205050
21
199.373046
0
LINE
8
boundary
62
5
39
2
10
126.205050
20
199.373046
11
125.690833
21
199.205693
0
LINE
8
boundary
62
5
39
2
10
125.690833
20
199.205693
11
125.128991
21
199.213990
0
LINE
8
boundary
62
5
39
2
10
125.128991
20
199.213990
11
124.612697
21
199.435100
0
LINE
8
boundary
62
5
39
2
10
124.612697
20
199.435100
11
124.213070
21
199.795017
0
LINE
8
boundary
62
5
39
2
10
124.213070
20
199.795017
11
123.955061
21
200.259900
0
LINE
8
boundary
62
5
39
2
10
123.955061
20
200.259900
11
123.871103
21
200.791185
0
LINE
8
boundary
62
5
39
2
10
123.871103
20
200.791185
11
123.957222
21
201.404661
0
LINE
8
boundary
62
5
39
2
10
123.957222
20
201.404661
11
123.593496
21
201.870574
0
LINE
8
boundary
62
5
39
2
10
123.593496
20
201.870574
11
123.079175
21
201.969351
0
LINE
8
boundary
62
5
39
2
10
123.079175
20
201.969351
11
122.563504
21
202.061381
0
LINE
8
boundary
62
5
39
2
10
122.563504
20
202.061381
11
122.061497
21
201.772324
0
LINE
8
boundary
62
5
39
2
10
122.061497
20
201.772324
11
121.921459
21
201.168503
0
LINE
8
boundary
62
5
39
2
10
121.921459
20
201.168503
11
121.652436
21
200.691379
0
LINE
8
boundary
62
5
39
2
10
121.652436
20
200.691379
11
121.243928
21
200.346812
0
LINE
8
boundary
62
5
39
2
10
121.243928
20
200.346812
11
120.739257
21
200.152783
0
LINE
8
boundary
62
5
39
2
10
120.739257
20
200.152783
11
120.177623
21
200.131612
0
LINE
8
boundary
62
5
39
2
10
120.177623
20
200.131612
11
119.650538
21
200.325429
0
LINE
8
boundary
62
5
39
2
10
119.650538
20
200.325429
11
119.232550
21
200.663969
0
LINE
8
boundary
62
5
39
2
10
119.232550
20
200.663969
11
118.950700
21
201.114707
0
LINE
8
boundary
62
5
39
2
10
118.950700
20
201.114707
11
118.839055
21
201.640955
0
LINE
8
boundary
62
5
39
2
10
118.839055
20
201.640955
11
118.892914
21
202.257980
0
LINE
8
boundary
62
5
39
2
10
118.892914
20
202.257980
11
118.505273
21
202.704153
0
LINE
8
boundary
62
5
39
2
10
118.505273
20
202.704153
11
117.986387
21
202.775952
0
LINE
8
boundary
62
5
39
2
10
117.986387
20
202.775952
11
117.466670
21
202.840906
0
LINE
8
boundary
62
5
39
2
10
117.466670
20
202.840906
11
116.980492
21
202.525892
0
LINE
8
boundary
62
5
39
2
10
116.980492
20
202.525892
11
116.872308
21
201.915683
0
LINE
8
boundary
62
5
39
2
10
116.872308
20
201.915683
11
116.628630
21
201.425025
0
LINE
8
boundary
62
5
39
2
10
116.628630
20
201.425025
11
116.238711
21
201.059511
0
LINE
8
boundary
62
5
39
2
10
116.238711
20
201.059511
11
115.744829
21
200.839442
0
LINE
8
boundary
62
5
39
2
10
115.744829
20
200.839442
11
115.185093
21
200.788912
0
LINE
8
boundary
62
5
39
2
10
115.185093
20
200.788912
11
114.648579
21
200.954927
0
LINE
8
boundary
62
5
39
2
10
114.648579
20
200.954927
11
114.211411
21
201.272936
0
LINE
8
boundary
62
5
39
2
10
114.211411
20
201.272936
11
113.908332
21
201.706496
0
LINE
8
boundary
62
5
39
2
10
113.908332
20
201.706496
11
113.769293
21
202.226054
0
LINE
8
boundary
62
5
39
2
10
113.769293
20
202.226054
11
113.790821
21
202.845099
0
LINE
8
boundary
62
5
39
2
10
113.790821
20
202.845099
11
113.380321
21
203.270458
0
LINE
8
boundary
62
5
39
2
10
113.380321
20
203.270458
11
112.858477
21
203.314969
0
LINE
8
boundary
62
5
39
2
10
112.858477
20
203.314969
11
112.336083
21
203.352636
0
LINE
8
boundary
62
5
39
2
10
112.336083
20
203.352636
11
111.867016
21
203.012581
0
LINE
8
boundary
62
5
39
2
10
111.867016
20
203.012581
11
111.790896
21
202.397530
0
LINE
8
boundary
62
5
39
2
10
111.790896
20
202.397530
11
111.573210
21
201.894807
0
LINE
8
boundary
62
5
39
2
10
111.573210
20
201.894807
11
111.202968
21
201.509405
0
LINE
8
boundary
62
5
39
2
10
111.202968
20
201.509405
11
110.721268
21
201.263810
0
LINE
8
boundary
62
5
39
2
10
110.721268
20
201.263810
11
110.164987
21
201.184025
0
LINE
8
boundary
62
5
39
2
10
110.164987
20
201.184025
11
109.620514
21
201.321704
0
LINE
8
boundary
62
5
39
2
10
109.620514
20
201.321704
11
109.167306
21
201.616369
0
LINE
8
boundary
62
5
39
2
10
109.167306
20
201.616369
11
108.841950
21
202.033502
0
LINE
8
boundary
62
5
39
2
10
108.841950
20
202.033502
11
108.675903
21
202.545027
0
LINE
8
boundary
62
5
39
2
10
108.675903
20
202.545027
11
108.664999
21
203.164456
0
LINE
8
boundary
62
5
39
2
10
108.664999
20
203.164456
11
108.232811
21
203.567618
0
LINE
8
boundary
62
5
39
2
10
108.232811
20
203.567618
11
107.709349
21
203.584738
0
LINE
8
boundary
62
5
39
2
10
107.709349
20
203.584738
11
107.185700
21
203.595015
0
LINE
8
boundary
62
5
39
2
10
107.185700
20
203.595015
11
106.735079
21
203.230948
0
LINE
8
boundary
62
5
39
2
10
106.735079
20
203.230948
11
106.691241
21
202.612681
0
LINE
8
boundary
62
5
39
2
10
106.691241
20
202.612681
11
106.500167
21
202.099383
0
LINE
8
boundary
62
5
39
2
10
106.500167
20
202.099383
11
106.150611
21
201.695125
0
LINE
8
boundary
62
5
39
2
10
106.150611
20
201.695125
11
105.682415
21
201.424526
0
LINE
8
boundary
62
5
39
2
10
105.682415
20
201.424526
11
105.131074
21
201.315793
0
LINE
8
boundary
62
5
39
2
10
105.131074
20
201.315793
11
104.580149
21
201.424732
0
LINE
8
boundary
62
5
39
2
10
104.580149
20
201.424732
11
104.112137
21
201.695330
0
LINE
8
boundary
62
5
39
2
10
104.112137
20
201.695330
11
103.765397
21
202.094894
0
LINE
8
boundary
62
5
39
2
10
103.765397
20
202.094894
11
103.572811
21
202.597034
0
LINE
8
boundary
62
5
39
2
10
103.572811
20
202.597034
11
103.529497
21
203.215010
0
LINE
8
boundary
62
5
39
2
10
103.529497
20
203.215010
11
103.076794
21
203.595015
0
LINE
8
boundary
62
5
39
2
10
103.076794
20
203.595015
11
102.553166
21
203.584738
0
LINE
8
boundary
62
5
39
2
10
102.553166
20
203.584738
11
102.029693
21
203.567618
0
LINE
8
boundary
62
5
39
2
10
102.029693
20
203.567618
11
101.598739
21
203.180479
0
LINE
8
boundary
62
5
39
2
10
101.598739
20
203.180479
11
101.587327
21
202.560734
0
LINE
8
boundary
62
5
39
2
10
101.587327
20
202.560734
11
101.423375
21
202.038127
0
LINE
8
boundary
62
5
39
2
10
101.423375
20
202.038127
11
101.095458
21
201.616060
0
LINE
8
boundary
62
5
39
2
10
101.095458
20
201.616060
11
100.642063
21
201.321498
0
LINE
8
boundary
62
5
39
2
10
100.642063
20
201.321498
11
100.097164
21
201.183909
0
LINE
8
boundary
62
5
39
2
10
100.097164
20
201.183909
11
99.541288
21
201.264016
0
LINE
8
boundary
62
5
39
2
10
99.541288
20
201.264016
11
99.059765
21
201.509713
0
LINE
8
boundary
62
5
39
2
10
99.059765
20
201.509713
11
98.692585
21
201.890478
0
LINE
8
boundary
62
5
39
2
10
98.692585
20
201.890478
11
98.473972
21
202.381985
0
LINE
8
boundary
62
5
39
2
10
98.473972
20
202.381985
11
98.398391
21
202.996775
0
LINE
8
boundary
62
5
39
2
10
98.398391
20
202.996775
11
97.926410
21
203.352636
0
LINE
8
boundary
62
5
39
2
10
97.926410
20
203.352636
11
97.404038
21
203.314969
0
LINE
8
boundary
62
5
39
2
10
97.404038
20
203.314969
11
96.882174
21
203.270458
0
LINE
8
boundary
62
5
39
2
10
96.882174
20
203.270458
11
96.472077
21
202.861164
0
LINE
8
boundary
62
5
39
2
10
96.472077
20
202.861164
11
96.493115
21
202.241777
0
LINE
8
boundary
62
5
39
2
10
96.493115
20
202.241777
11
96.356747
21
201.711257
0
LINE
8
boundary
62
5
39
2
10
96.356747
20
201.711257
11
96.053209
21
201.274668
0
LINE
8
boundary
62
5
39
2
10
96.053209
20
201.274668
11
95.614008
21
200.954721
0
LINE
8
boundary
62
5
39
2
10
95.614008
20
200.954721
11
95.077058
21
200.788809
0
LINE
8
boundary
62
5
39
2
10
95.077058
20
200.788809
11
94.517788
21
200.839653
0
LINE
8
boundary
62
5
39
2
10
94.517788
20
200.839653
11
94.024011
21
201.059820
0
LINE
8
boundary
62
5
39
2
10
94.024011
20
201.059820
11
93.637398
21
201.420859
0
LINE
8
boundary
62
5
39
2
10
93.637398
20
201.420859
11
93.393370
21
201.900282
0
LINE
8
boundary
62
5
39
2
10
93.393370
20
201.900282
11
93.285738
21
202.510259
0
LINE
8
boundary
62
5
39
2
10
93.285738
20
202.510259
11
92.795741
21
202.840906
0
LINE
8
boundary
62
5
39
2
10
92.795741
20
202.840906
11
92.276128
21
202.775951
0
LINE
8
boundary
62
5
39
2
10
92.276128
20
202.775951
11
91.757242
21
202.704154
0
LINE
8
boundary
62
5
39
2
10
91.757242
20
202.704154
11
91.369144
21
202.274041
0
LINE
8
boundary
62
5
39
2
10
91.369144
20
202.274041
11
91.422530
21
201.656650
0
LINE
8
boundary
62
5
39
2
10
91.422530
20
201.656650
11
91.314187
21
201.119683
0
LINE
8
boundary
62
5
39
2
10
91.314187
20
201.119683
11
91.033926
21
200.667785
0
LINE
8
boundary
62
5
39
2
10
91.033926
20
200.667785
11
90.612079
21
200.325223
0
LINE
8
boundary
62
5
39
2
10
90.612079
20
200.325223
11
90.084477
21
200.131509
0
LINE
8
boundary
62
5
39
2
10
90.084477
20
200.131509
11
89.523257
21
200.152989
0
LINE
8
boundary
62
5
39
2
10
89.523257
20
200.152989
11
89.018690
21
200.347018
0
LINE
8
boundary
62
5
39
2
10
89.018690
20
200.347018
11
88.613718
21
200.687392
0
LINE
8
boundary
62
5
39
2
10
88.613718
20
200.687392
11
88.345022
21
201.153288
0
LINE
8
boundary
62
5
39
2
10
88.345022
20
201.153288
11
88.205548
21
201.756907
0
LINE
8
boundary
62
5
39
2
10
88.205548
20
201.756907
11
87.698905
21
202.061381
0
LINE
8
boundary
62
5
39
2
10
87.698905
20
202.061381
11
87.183340
21
201.969351
0
LINE
8
boundary
62
5
39
2
10
87.183340
20
201.969351
11
86.669018
21
201.870574
0
LINE
8
boundary
62
5
39
2
10
86.669018
20
201.870574
11
86.303995
21
201.420679
0
LINE
8
boundary
62
5
39
2
10
86.303995
20
201.420679
11
86.389661
21
200.806809
0
LINE
8
boundary
62
5
39
2
10
86.389661
20
200.806809
11
86.309456
21
200.264978
0
LINE
8
boundary
62
5
39
2
10
86.309456
20
200.264978
11
86.053185
21
199.799115
0
LINE
8
boundary
62
5
39
2
10
86.053185
20
199.799115
11
85.649817
21
199.434888
0
LINE
8
boundary
62
5
39
2
10
85.649817
20
199.434888
11
85.133214
21
199.213887
0
LINE
8
boundary
62
5
39
2
10
85.133214
20
199.213887
11
84.571682
21
199.206002
0
LINE
8
boundary
62
5
39
2
10
84.571682
20
199.206002
11
84.057570
21
199.373264
0
LINE
8
boundary
62
5
39
2
10
84.057570
20
199.373264
11
83.633413
21
199.693866
0
LINE
8
boundary
62
5
39
2
10
83.633413
20
199.693866
11
83.342535
21
200.143178
0
LINE
8
boundary
62
5
39
2
10
83.342535
20
200.143178
11
83.171726
21
200.738602
0
LINE
8
boundary
62
5
39
2
10
83.171726
20
200.738602
11
82.649903
21
201.016242
0
LINE
8
boundary
62
5
39
2
10
82.649903
20
201.016242
11
82.139836
21
200.897335
0
LINE
8
boundary
62
5
39
2
10
82.139836
20
200.897335
11
81.631429
21
200.771683
0
LINE
8
boundary
62
5
39
2
10
81.631429
20
200.771683
11
81.290310
21
200.303345
0
LINE
8
boundary
62
5
39
2
10
81.290310
20
200.303345
11
81.408053
21
199.694839
0
LINE
8
boundary
62
5
39
2
10
81.408053
20
199.694839
11
81.356289
21
199.149532
0
LINE
8
boundary
62
5
39
2
10
81.356289
20
199.149532
11
81.124838
21
198.670851
0
LINE
8
boundary
62
5
39
2
10
81.124838
20
198.670851
11
80.741095
21
198.286091
0
LINE
8
boundary
62
5
39
2
10
80.741095
20
198.286091
11
80.236733
21
198.038323
0
LINE
8
boundary
62
5
39
2
10
80.236733
20
198.038323
11
79.676343
21
198.000976
0
LINE
8
boundary
62
5
39
2
10
79.676343
20
198.000976
11
79.154240
21
198.141254
0
LINE
8
boundary
62
5
39
2
10
79.154240
20
198.141254
11
78.713899
21
198.439243
0
LINE
8
boundary
62
5
39
2
10
78.713899
20
198.439243
11
78.399911
21
198.872640
0
LINE
8
boundary
62
5
39
2
10
78.399911
20
198.872640
11
78.198176
21
199.458347
0
LINE
8
boundary
62
5
39
2
10
78.198176
20
199.458347
11
77.662534
21
199.708291
0
LINE
8
boundary
62
5
39
2
10
77.662534
20
199.708291
11
77.159312
21
199.562824
0
LINE
8
boundary
62
5
39
2
10
77.159312
20
199.562824
11
76.658168
21
199.410713
0
LINE
8
boundary
62
5
39
2
10
76.658168
20
199.410713
11
76.342090
21
198.925262
0
LINE
8
boundary
62
5
39
2
10
76.342090
20
198.925262
11
76.491510
21
198.323755
0
LINE
8
boundary
62
5
39
2
10
76.491510
20
198.323755
11
76.468384
21
197.776450
0
LINE
8
boundary
62
5
39
2
10
76.468384
20
197.776450
11
76.262266
21
197.286290
0
LINE
8
boundary
62
5
39
2
10
76.262266
20
197.286290
11
75.899188
21
196.881962
0
LINE
8
boundary
62
5
39
2
10
75.899188
20
196.881962
11
75.408420
21
196.608147
0
LINE
8
boundary
62
5
39
2
10
75.408420
20
196.608147
11
74.850832
21
196.541533
0
LINE
8
boundary
62
5
39
2
10
74.850832
20
196.541533
11
74.322089
21
196.654208
0
LINE
8
boundary
62
5
39
2
10
74.322089
20
196.654208
11
73.866699
21
196.928755
0
LINE
8
boundary
62
5
39
2
10
73.866699
20
196.928755
11
73.530533
21
197.345208
0
LINE
8
boundary
62
5
39
2
10
73.530533
20
197.345208
11
73.298390
21
197.919460
0
LINE
8
boundary
62
5
39
2
10
73.298390
20
197.919460
11
72.750385
21
198.141048
0
LINE
8
boundary
62
5
39
2
10
72.750385
20
198.141048
11
72.255569
21
197.969432
0
LINE
8
boundary
62
5
39
2
10
72.255569
20
197.969432
11
71.762933
21
197.791384
0
LINE
8
boundary
62
5
39
2
10
71.762933
20
197.791384
11
71.472730
21
197.289964
0
LINE
8
boundary
62
5
39
2
10
71.472730
20
197.289964
11
71.653414
21
196.697086
0
LINE
8
boundary
62
5
39
2
10
71.653414
20
196.697086
11
71.659020
21
196.149363
0
LINE
8
boundary
62
5
39
2
10
71.659020
20
196.149363
11
71.478756
21
195.649080
0
LINE
8
boundary
62
5
39
2
10
71.478756
20
195.649080
11
71.137384
21
195.226315
0
LINE
8
boundary
62
5
39
2
10
71.137384
20
195.226315
11
70.661662
21
194.927187
0
LINE
8
boundary
62
5
39
2
10
70.661662
20
194.927187
11
70.108223
21
194.831518
0
LINE
8
boundary
62
5
39
2
10
70.108223
20
194.831518
11
69.574395
21
194.916396
0
LINE
8
boundary
62
5
39
2
10
69.574395
20
194.916396
11
69.105210
21
195.166653
0
LINE
8
boundary
62
5
39
2
10
69.105210
20
195.166653
11
68.747690
21
195.564928
0
LINE
8
boundary
62
5
39
2
10
68.747690
20
195.564928
11
68.485847
21
196.126299
0
LINE
8
boundary
62
5
39
2
10
68.485847
20
196.126299
11
67.926948
21
196.318872
0
LINE
8
boundary
62
5
39
2
10
67.926948
20
196.318872
11
67.441779
21
196.121628
0
LINE
8
boundary
62
5
39
2
10
67.441779
20
196.121628
11
66.959208
21
195.918061
0
LINE
8
boundary
62
5
39
2
10
66.959208
20
195.918061
11
66.695708
21
195.402103
0
LINE
8
boundary
62
5
39
2
10
66.695708
20
195.402103
11
66.907055
21
194.819496
0
LINE
8
boundary
62
5
39
2
10
66.907055
20
194.819496
11
66.941375
21
194.272833
0
LINE
8
boundary
62
5
39
2
10
66.941375
20
194.272833
11
66.787579
21
193.763782
0
LINE
8
boundary
62
5
39
2
10
66.787579
20
193.763782
11
66.470673
21
193.325794
0
LINE
8
boundary
62
5
39
2
10
66.470673
20
193.325794
11
66.009318
21
193.000113
0
LINE
8
boundary
62
5
39
2
10
66.009318
20
193.000113
11
65.461692
21
192.875605
0
LINE
8
boundary
62
5
39
2
10
65.461692
20
192.875605
11
64.924127
21
192.932463
0
LINE
8
boundary
62
5
39
2
10
64.924127
20
192.932463
11
64.442492
21
193.157825
0
LINE
8
boundary
62
5
39
2
10
64.442492
20
193.157825
11
64.064647
21
193.536785
0
LINE
8
boundary
62
5
39
2
10
64.064647
20
193.536785
11
63.773725
21
194.083732
0
LINE
8
boundary
62
5
39
2
10
63.773725
20
194.083732
11
63.205610
21
194.246748
0
LINE
8
boundary
62
5
39
2
10
63.205610
20
194.246748
11
62.731441
21
194.024396
0
LINE
8
boundary
62
5
39
2
10
62.731441
20
194.024396
11
62.260176
21
193.795825
0
LINE
8
boundary
62
5
39
2
10
62.260176
20
193.795825
11
62.023901
21
193.266886
0
LINE
8
boundary
62
5
39
2
10
62.023901
20
193.266886
11
62.265596
21
192.696086
0
LINE
8
boundary
62
5
39
2
10
62.265596
20
192.696086
11
62.328422
21
192.151954
0
LINE
8
boundary
62
5
39
2
10
62.328422
20
192.151954
11
62.201408
21
191.635588
0
LINE
8
boundary
62
5
39
2
10
62.201408
20
191.635588
11
61.907870
21
191.181659
0
LINE
8
boundary
62
5
39
2
10
61.907870
20
191.181659
11
61.464264
21
190.832222
0
LINE
8
boundary
62
5
39
2
10
61.464264
20
190.832222
11
60.923896
21
190.679185
0
LINE
8
boundary
62
5
39
2
10
60.923896
20
190.679185
11
60.384055
21
190.707823
0
LINE
8
boundary
62
5
39
2
10
60.384055
20
190.707823
11
59.891311
21
190.907756
0
LINE
8
boundary
62
5
39
2
10
59.891311
20
190.907756
11
59.494083
21
191.266369
0
LINE
8
boundary
62
5
39
2
10
59.494083
20
191.266369
11
59.174991
21
191.797376
0
LINE
8
boundary
62
5
39
2
10
59.174991
20
191.797376
11
58.599126
21
191.930490
0
LINE
8
boundary
62
5
39
2
10
58.599126
20
191.930490
11
58.137205
21
191.683551
0
LINE
8
boundary
62
5
39
2
10
58.137205
20
191.683551
11
57.678600
21
191.430586
0
LINE
8
boundary
62
5
39
2
10
57.678600
20
191.430586
11
57.470374
21
190.890011
0
LINE
8
boundary
62
5
39
2
10
57.470374
20
190.890011
11
57.741505
21
190.332638
0
LINE
8
boundary
62
5
39
2
10
57.741505
20
190.332638
11
57.832714
21
189.792531
0
LINE
8
boundary
62
5
39
2
10
57.832714
20
189.792531
11
57.732997
21
189.270293
0
LINE
8
boundary
62
5
39
2
10
57.732997
20
189.270293
11
57.463648
21
188.801573
0
LINE
8
boundary
62
5
39
2
10
57.463648
20
188.801573
11
57.038835
21
188.429431
0
LINE
8
boundary
62
5
39
2
10
57.038835
20
188.429431
11
56.507184
21
188.248380
0
LINE
8
boundary
62
5
39
2
10
56.507184
20
188.248380
11
55.966614
21
188.248689
0
LINE
8
boundary
62
5
39
2
10
55.966614
20
188.248689
11
55.464122
21
188.422473
0
LINE
8
boundary
62
5
39
2
10
55.464122
20
188.422473
11
55.048739
21
188.759914
0
LINE
8
boundary
62
5
39
2
10
55.048739
20
188.759914
11
54.702206
21
189.273446
0
LINE
8
boundary
62
5
39
2
10
54.702206
20
189.273446
11
54.120163
21
189.376212
0
LINE
8
boundary
62
5
39
2
10
54.120163
20
189.376212
11
53.671832
21
189.105504
0
LINE
8
boundary
62
5
39
2
10
53.671832
20
189.105504
11
53.227025
21
188.828892
0
LINE
8
boundary
62
5
39
2
10
53.227025
20
188.828892
11
53.047379
21
188.278111
0
LINE
8
boundary
62
5
39
2
10
53.047379
20
188.278111
11
53.347332
21
187.735711
0
LINE
8
boundary
62
5
39
2
10
53.347332
20
187.735711
11
53.466698
21
187.201099
0
LINE
8
boundary
62
5
39
2
10
53.466698
20
187.201099
11
53.394485
21
186.674344
0
LINE
8
boundary
62
5
39
2
10
53.394485
20
186.674344
11
53.149953
21
186.192182
0
LINE
8
boundary
62
5
39
2
10
53.149953
20
186.192182
11
52.745283
21
185.798263
0
LINE
8
boundary
62
5
39
2
10
52.745283
20
185.798263
11
52.223804
21
185.589616
0
LINE
8
boundary
62
5
39
2
10
52.223804
20
185.589616
11
51.683956
21
185.561704
0
LINE
8
boundary
62
5
39
2
10
51.683956
20
185.561704
11
51.173062
21
185.708934
0
LINE
8
boundary
62
5
39
2
10
51.173062
20
185.708934
11
50.738526
21
186.026120
0
LINE
8
boundary
62
5
39
2
10
50.738526
20
186.026120
11
50.367701
21
186.518789
0
LINE
8
boundary
62
5
39
2
10
50.367701
20
186.518789
11
49.781063
21
186.590965
0
LINE
8
boundary
62
5
39
2
10
49.781063
20
186.590965
11
49.347465
21
186.297234
0
LINE
8
boundary
62
5
39
2
10
49.347465
20
186.297234
11
48.917810
21
185.997682
0
LINE
8
boundary
62
5
39
2
10
48.917810
20
185.997682
11
48.767254
21
185.438257
0
LINE
8
boundary
62
5
39
2
10
48.767254
20
185.438257
11
49.095120
21
184.912367
0
LINE
8
boundary
62
5
39
2
10
49.095120
20
184.912367
11
49.242315
21
184.384716
0
LINE
8
boundary
62
5
39
2
10
49.242315
20
184.384716
11
49.197703
21
183.854892
0
LINE
8
boundary
62
5
39
2
10
49.197703
20
183.854892
11
48.978815
21
183.360538
0
LINE
8
boundary
62
5
39
2
10
48.978815
20
183.360538
11
48.595228
21
182.946099
0
LINE
8
boundary
62
5
39
2
10
48.595228
20
182.946099
11
48.085472
21
182.710473
0
LINE
8
boundary
62
5
39
2
10
48.085472
20
182.710473
11
47.547805
21
182.654239
0
LINE
8
boundary
62
5
39
2
10
47.547805
20
182.654239
11
47.029959
21
182.774592
0
LINE
8
boundary
62
5
39
2
10
47.029959
20
182.774592
11
46.579344
21
183.068536
0
LINE
8
boundary
62
5
39
2
10
46.579344
20
183.068536
11
46.183210
21
183.541186
0
LINE
8
boundary
62
5
39
2
10
46.183210
20
183.541186
11
45.593552
21
183.582543
0
LINE
8
boundary
62
5
39
2
10
45.593552
20
183.582543
11
45.176033
21
183.266501
0
LINE
8
boundary
62
5
39
2
10
45.176033
20
183.266501
11
44.762564
21
182.944860
0
LINE
8
boundary
62
5
39
2
10
44.762564
20
182.944860
11
44.641518
21
182.378326
0
LINE
8
boundary
62
5
39
2
10
44.641518
20
182.378326
11
44.996476
21
181.870359
0
LINE
8
boundary
62
5
39
2
10
44.996476
20
181.870359
11
45.171079
21
181.351062
0
LINE
8
boundary
62
5
39
2
10
45.171079
20
181.351062
11
45.154271
21
180.819627
0
LINE
8
boundary
62
5
39
2
10
45.154271
20
180.819627
11
44.961545
21
180.314527
0
LINE
8
boundary
62
5
39
2
10
44.961545
20
180.314527
11
44.600183
21
179.880510
0
LINE
8
boundary
62
5
39
2
10
44.600183
20
179.880510
11
44.103502
21
179.618523
0
LINE
8
boundary
62
5
39
2
10
44.103502
20
179.618523
11
43.569469
21
179.534274
0
LINE
8
boundary
62
5
39
2
10
43.569469
20
179.534274
11
43.046015
21
179.627340
0
LINE
8
boundary
62
5
39
2
10
43.046015
20
179.627340
11
42.580667
21
179.897418
0
LINE
8
boundary
62
5
39
2
10
42.580667
20
179.897418
11
42.160343
21
180.348632
0
LINE
8
boundary
62
5
39
2
10
42.160343
20
180.348632
11
41.569349
21
180.359133
0
LINE
8
boundary
62
5
39
2
10
41.569349
20
180.359133
11
41.168852
21
180.021514
0
LINE
8
boundary
62
5
39
2
10
41.168852
20
180.021514
11
40.772916
21
179.678809
0
LINE
8
boundary
62
5
39
2
10
40.772916
20
179.678809
11
40.681589
21
179.106712
0
LINE
8
boundary
62
5
39
2
10
40.681589
20
179.106712
11
41.062728
21
178.617916
0
LINE
8
boundary
62
5
39
2
10
41.062728
20
178.617916
11
41.264188
21
178.108528
0
LINE
8
boundary
62
5
39
2
10
41.264188
20
178.108528
11
41.275287
21
177.576942
0
LINE
8
boundary
62
5
39
2
10
41.275287
20
177.576942
11
41.109241
21
177.062441
0
LINE
8
boundary
62
5
39
2
10
41.109241
20
177.062441
11
40.773202
21
176.612335
0
LINE
8
boundary
62
5
39
2
10
40.773202
20
176.612335
11
40.288788
21
176.322491
0
LINE
8
boundary
62
5
39
2
10
40.288788
20
176.322491
11
39.759939
21
176.210428
0
LINE
8
boundary
62
5
39
2
10
39.759939
20
176.210428
11
39.232234
21
176.276006
0
LINE
8
boundary
62
5
39
2
10
39.232234
20
176.276006
11
38.753399
21
176.521286
0
LINE
8
boundary
62
5
39
2
10
38.753399
20
176.521286
11
38.300816
21
176.958928
0
LINE
8
boundary
62
5
39
2
10
38.300816
20
176.958928
11
37.719359
21
176.929467
0
LINE
8
boundary
62
5
39
2
10
37.719359
20
176.929467
11
37.337121
21
176.571398
0
LINE
8
boundary
62
5
39
2
10
37.337121
20
176.571398
11
36.959553
21
176.208357
0
LINE
8
boundary
62
5
39
2
10
36.959553
20
176.208357
11
36.898365
21
175.632260
0
LINE
8
boundary
62
5
39
2
10
36.898365
20
175.632260
11
37.304556
21
175.164151
0
LINE
8
boundary
62
5
39
2
10
37.304556
20
175.164151
11
37.532446
21
174.666058
0
LINE
8
boundary
62
5
39
2
10
37.532446
20
174.666058
11
37.571246
21
174.135763
0
LINE
8
boundary
62
5
39
2
10
37.571246
20
174.135763
11
37.432387
21
173.613221
0
LINE
8
boundary
62
5
39
2
10
37.432387
20
173.613221
11
37.120339
21
173.146142
0
LINE
8
boundary
62
5
39
2
10
37.120339
20
173.146142
11
36.651807
21
172.831389
0
LINE
8
boundary
62
5
39
2
10
36.651807
20
172.831389
11
36.129498
21
172.691735
0
LINE
8
boundary
62
5
39
2
10
36.129498
20
172.691735
11
35.599195
21
172.729608
0
LINE
8
boundary
62
5
39
2
10
35.599195
20
172.729608
11
35.108121
21
172.949465
0
LINE
8
boundary
62
5
39
2
10
35.108121
20
172.949465
11
34.633223
21
173.362830
0
LINE
8
boundary
62
5
39
2
10
34.633223
20
173.362830
11
34.054158
21
173.302962
0
LINE
8
boundary
62
5
39
2
10
34.054158
20
173.302962
11
33.698576
21
172.933151
0
LINE
8
boundary
62
5
39
2
10
33.698576
20
172.933151
11
33.340405
21
172.551009
0
LINE
8
boundary
62
5
39
2
10
33.340405
20
172.551009
11
33.302115
21
171.964594
0
LINE
8
boundary
62
5
39
2
10
33.302115
20
171.964594
11
33.732237
21
171.518415
0
LINE
8
boundary
62
5
39
2
10
33.732237
20
171.518415
11
33.985903
21
171.032874
0
LINE
8
boundary
62
5
39
2
10
33.985903
20
171.032874
11
34.052404
21
170.505328
0
LINE
8
boundary
62
5
39
2
10
34.052404
20
170.505328
11
33.941046
21
169.976290
0
LINE
8
boundary
62
5
39
2
10
33.941046
20
169.976290
11
33.653922
21
169.493490
0
LINE
8
boundary
62
5
39
2
10
33.653922
20
169.493490
11
33.202424
21
169.154669
0
LINE
8
boundary
62
5
39
2
10
33.202424
20
169.154669
11
32.688205
21
168.987934
0
LINE
8
boundary
62
5
39
2
10
32.688205
20
168.987934
11
32.156660
21
168.997896
0
LINE
8
boundary
62
5
39
2
10
32.156660
20
168.997896
11
31.654789
21
169.191815
0
LINE
8
boundary
62
5
39
2
10
31.654789
20
169.191815
11
31.158835
21
169.579764
0
LINE
8
boundary
62
5
39
2
10
31.158835
20
169.579764
11
30.583706
21
169.489599
0
LINE
8
boundary
62
5
39
2
10
30.583706
20
169.489599
11
30.248042
21
169.101798
0
LINE
8
boundary
62
5
39
2
10
30.248042
20
169.101798
11
29.910319
21
168.701395
0
LINE
8
boundary
62
5
39
2
10
29.910319
20
168.701395
11
29.902795
21
168.113803
0
LINE
8
boundary
62
5
39
2
10
29.902795
20
168.113803
11
30.365097
21
167.681848
0
LINE
8
boundary
62
5
39
2
10
30.365097
20
167.681848
11
30.634334
21
167.219142
0
LINE
8
boundary
62
5
39
2
10
30.634334
20
167.219142
11
30.728413
21
166.695794
0
LINE
8
boundary
62
5
39
2
10
30.728413
20
166.695794
11
30.644873
21
166.161621
0
LINE
8
boundary
62
5
39
2
10
30.644873
20
166.161621
11
30.383389
21
165.664443
0
LINE
8
boundary
62
5
39
2
10
30.383389
20
165.664443
11
29.950272
21
165.302397
0
LINE
8
boundary
62
5
39
2
10
29.950272
20
165.302397
11
29.445494
21
165.108992
0
LINE
8
boundary
62
5
39
2
10
29.445494
20
165.108992
11
28.914053
21
165.091254
0
LINE
8
boundary
62
5
39
2
10
28.914053
20
165.091254
11
28.402747
21
165.258613
0
LINE
8
boundary
62
5
39
2
10
28.402747
20
165.258613
11
27.887280
21
165.619995
0
LINE
8
boundary
62
5
39
2
10
27.887280
20
165.619995
11
27.317554
21
165.499950
0
LINE
8
boundary
62
5
39
2
10
27.317554
20
165.499950
11
27.002620
21
165.094978
0
LINE
8
boundary
62
5
39
2
10
27.002620
20
165.094978
11
26.686465
21
164.677541
0
LINE
8
boundary
62
5
39
2
10
26.686465
20
164.677541
11
26.709646
21
164.090340
0
LINE
8
boundary
62
5
39
2
10
26.709646
20
164.090340
11
27.193979
21
163.683170
0
LINE
8
boundary
62
5
39
2
10
27.193979
20
163.683170
11
27.487053
21
163.235141
0
LINE
8
boundary
62
5
39
2
10
27.487053
20
163.235141
11
27.608318
21
162.717447
0
LINE
8
boundary
62
5
39
2
10
27.608318
20
162.717447
11
27.552881
21
162.179688
0
LINE
8
boundary
62
5
39
2
10
27.552881
20
162.179688
11
27.317766
21
161.669483
0
LINE
8
boundary
62
5
39
2
10
27.317766
20
161.669483
11
26.904189
21
161.285358
0
LINE
8
boundary
62
5
39
2
10
26.904189
20
161.285358
11
26.410202
21
161.065707
0
LINE
8
boundary
62
5
39
2
10
26.410202
20
161.065707
11
25.880523
21
161.020155
0
LINE
8
boundary
62
5
39
2
10
25.880523
20
161.020155
11
25.361114
21
161.160535
0
LINE
8
boundary
62
5
39
2
10
25.361114
20
161.160535
11
24.827396
21
161.494423
0
LINE
8
boundary
62
5
39
2
10
24.827396
20
161.494423
11
24.264833
21
161.344705
0
LINE
8
boundary
62
5
39
2
10
24.264833
20
161.344705
11
23.971436
21
160.923878
0
LINE
8
boundary
62
5
39
2
10
23.971436
20
160.923878
11
23.677585
21
160.490361
0
LINE
8
boundary
62
5
39
2
10
23.677585
20
160.490361
11
23.731483
21
159.905222
0
LINE
8
boundary
62
5
39
2
10
23.731483
20
159.905222
11
24.236395
21
159.523989
0
LINE
8
boundary
62
5
39
2
10
24.236395
20
159.523989
11
24.552581
21
159.091971
0
LINE
8
boundary
62
5
39
2
10
24.552581
20
159.091971
11
24.700804
21
158.581277
0
LINE
8
boundary
62
5
39
2
10
24.700804
20
158.581277
11
24.673599
21
158.041384
0
LINE
8
boundary
62
5
39
2
10
24.673599
20
158.041384
11
24.465474
21
157.519509
0
LINE
8
boundary
62
5
39
2
10
24.465474
20
157.519509
11
24.072566
21
157.114240
0
LINE
8
boundary
62
5
39
2
10
24.072566
20
157.114240
11
23.590722
21
156.869167
0
LINE
8
boundary
62
5
39
2
10
23.590722
20
156.869167
11
23.064052
21
156.795915
0
LINE
8
boundary
62
5
39
2
10
23.064052
20
156.795915
11
22.538116
21
156.908905
0
LINE
8
boundary
62
5
39
2
10
22.538116
20
156.908905
11
21.987580
21
157.214464
0
LINE
8
boundary
62
5
39
2
10
21.987580
20
157.214464
11
21.435774
21
157.037824
0
LINE
8
boundary
62
5
39
2
10
21.435774
20
157.037824
11
21.162694
21
156.599822
0
LINE
8
boundary
62
5
39
2
10
21.162694
20
156.599822
11
20.891865
21
156.151563
0
LINE
8
boundary
62
5
39
2
10
20.891865
20
156.151563
11
20.976299
21
155.570064
0
LINE
8
boundary
62
5
39
2
10
20.976299
20
155.570064
11
21.500546
21
155.215700
0
LINE
8
boundary
62
5
39
2
10
21.500546
20
155.215700
11
21.838918
21
154.800841
0
LINE
8
boundary
62
5
39
2
10
21.838918
20
154.800841
11
22.013685
21
154.298695
0
LINE
8
boundary
62
5
39
2
10
22.013685
20
154.298695
11
22.014696
21
153.758021
0
LINE
8
boundary
62
5
39
2
10
22.014696
20
153.758021
11
21.834170
21
153.226027
0
LINE
8
boundary
62
5
39
2
10
21.834170
20
153.226027
11
21.463091
21
152.800768
0
LINE
8
boundary
62
5
39
2
10
21.463091
20
152.800768
11
20.994732
21
152.530690
0
LINE
8
boundary
62
5
39
2
10
20.994732
20
152.530690
11
20.472629
21
152.430045
0
LINE
8
boundary
62
5
39
2
10
20.472629
20
152.430045
11
19.941502
21
152.515332
0
LINE
8
boundary
62
5
39
2
10
19.941502
20
152.515332
11
19.375712
21
152.791636
0
LINE
8
boundary
62
5
39
2
10
19.375712
20
152.791636
11
18.833853
21
152.586360
0
LINE
8
boundary
62
5
39
2
10
18.833853
20
152.586360
11
18.584160
21
152.134732
0
LINE
8
boundary
62
5
39
2
10
18.584160
20
152.134732
11
18.337099
21
151.672880
0
LINE
8
boundary
62
5
39
2
10
18.337099
20
151.672880
11
18.451874
21
151.096595
0
LINE
8
boundary
62
5
39
2
10
18.451874
20
151.096595
11
18.993994
21
150.770250
0
LINE
8
boundary
62
5
39
2
10
18.993994
20
150.770250
11
19.353515
21
150.373574
0
LINE
8
boundary
62
5
39
2
10
19.353515
20
150.373574
11
19.554303
21
149.881227
0
LINE
8
boundary
62
5
39
2
10
19.554303
20
149.881227
11
19.583730
21
149.341430
0
LINE
8
boundary
62
5
39
2
10
19.583730
20
149.341430
11
19.431238
21
148.800668
0
LINE
8
boundary
62
5
39
2
10
19.431238
20
148.800668
11
19.082912
21
148.356562
0
LINE
8
boundary
62
5
39
2
10
19.082912
20
148.356562
11
18.629397
21
148.062413
0
LINE
8
boundary
62
5
39
2
10
18.629397
20
148.062413
11
18.113204
21
147.934483
0
LINE
8
boundary
62
5
39
2
10
18.113204
20
147.934483
11
17.578335
21
147.991856
0
LINE
8
boundary
62
5
39
2
10
17.578335
20
147.991856
11
16.998858
21
148.238277
0
LINE
8
boundary
62
5
39
2
10
16.998858
20
148.238277
11
16.468583
21
148.004886
0
LINE
8
boundary
62
5
39
2
10
16.468583
20
148.004886
11
16.242815
21
147.540757
0
LINE
8
boundary
62
5
39
2
10
16.242815
20
147.540757
11
16.020335
21
147.066647
0
LINE
8
boundary
62
5
39
2
10
16.020335
20
147.066647
11
16.165062
21
146.497155
0
LINE
8
boundary
62
5
39
2
10
16.165062
20
146.497155
11
16.723488
21
146.199569
0
LINE
8
boundary
62
5
39
2
10
16.723488
20
146.199569
11
17.103328
21
145.822309
0
LINE
8
boundary
62
5
39
2
10
17.103328
20
145.822309
11
17.329619
21
145.341110
0
LINE
8
boundary
62
5
39
2
10
17.329619
20
145.341110
11
17.387165
21
144.803642
0
LINE
8
boundary
62
5
39
2
10
17.387165
20
144.803642
11
17.263303
21
144.255667
0
LINE
8
boundary
62
5
39
2
10
17.263303
20
144.255667
11
16.940489
21
143.795964
0
LINE
8
boundary
62
5
39
2
10
16.940489
20
143.795964
11
16.501033
21
143.476370
0
LINE
8
boundary
62
5
39
2
10
16.501033
20
143.476370
11
15.992319
21
143.321671
0
LINE
8
boundary
62
5
39
2
10
15.992319
20
143.321671
11
15.455172
21
143.351030
0
LINE
8
boundary
62
5
39
2
10
15.455172
20
143.351030
11
14.863657
21
143.566638
0
LINE
8
boundary
62
5
39
2
10
14.863657
20
143.566638
11
14.346213
21
143.305948
0
LINE
8
boundary
62
5
39
2
10
14.346213
20
143.305948
11
14.145070
21
142.830649
0
LINE
8
boundary
62
5
39
2
10
14.145070
20
142.830649
11
13.947695
21
142.345535
0
LINE
8
boundary
62
5
39
2
10
13.947695
20
142.345535
11
14.124488
21
141.782127
0
LINE
8
boundary
62
5
39
2
10
14.124488
20
141.782127
11
14.695256
21
141.516406
0
LINE
8
boundary
62
5
39
2
10
14.695256
20
141.516406
11
15.094287
21
141.159505
0
LINE
8
boundary
62
5
39
2
10
15.094287
20
141.159505
11
15.345449
21
140.690897
0
LINE
8
boundary
62
5
39
2
10
15.345449
20
140.690897
11
15.431105
21
140.157108
0
LINE
8
boundary
62
5
39
2
10
15.431105
20
140.157108
11
15.336081
21
139.603372
0
LINE
8
boundary
62
5
39
2
10
15.336081
20
139.603372
11
15.037797
21
139.127434
0
LINE
8
boundary
62
5
39
2
10
15.037797
20
139.127434
11
14.615670
21
138.785329
0
LINE
8
boundary
62
5
39
2
10
14.615670
20
138.785329
11
14.115774
21
138.604172
0
LINE
8
boundary
62
5
39
2
10
14.115774
20
138.604172
11
13.577798
21
138.605310
0
LINE
8
boundary
62
5
39
2
10
13.577798
20
138.605310
11
12.975800
21
138.789789
0
LINE
8
boundary
62
5
39
2
10
12.975800
20
138.789789
11
12.472749
21
138.502313
0
LINE
8
boundary
62
5
39
2
10
12.472749
20
138.502313
11
12.296741
21
138.017065
0
LINE
8
boundary
62
5
39
2
10
12.296741
20
138.017065
11
12.124993
21
137.522297
0
LINE
8
boundary
62
5
39
2
10
12.124993
20
137.522297
11
12.331060
21
136.968964
0
LINE
8
boundary
62
5
39
2
10
12.331060
20
136.968964
11
12.914896
21
136.733438
0
LINE
8
boundary
62
5
39
2
10
12.914896
20
136.733438
11
13.332180
21
136.397917
0
LINE
8
boundary
62
5
39
2
10
13.332180
20
136.397917
11
13.607503
21
135.943148
0
LINE
8
boundary
62
5
39
2
10
13.607503
20
135.943148
11
13.720940
21
135.414493
0
LINE
8
boundary
62
5
39
2
10
13.720940
20
135.414493
11
13.654974
21
134.856655
0
LINE
8
boundary
62
5
39
2
10
13.654974
20
134.856655
11
13.382034
21
134.365722
0
LINE
8
boundary
62
5
39
2
10
13.382034
20
134.365722
11
12.978397
21
134.001943
0
LINE
8
boundary
62
5
39
2
10
12.978397
20
134.001943
11
12.488662
21
133.794948
0
LINE
8
boundary
62
5
39
2
10
12.488662
20
133.794948
11
11.951310
21
133.767866
0
LINE
8
boundary
62
5
39
2
10
11.951310
20
133.767866
11
11.340495
21
133.920598
0
LINE
8
boundary
62
5
39
2
10
11.340495
20
133.920598
11
10.853272
21
133.607159
0
LINE
8
boundary
62
5
39
2
10
10.853272
20
133.607159
11
10.702816
21
133.113500
0
LINE
8
boundary
62
5
39
2
10
10.702816
20
133.113500
11
10.557212
21
132.610320
0
LINE
8
boundary
62
5
39
2
10
10.557212
20
132.610320
11
10.791933
21
132.068543
0
LINE
8
boundary
62
5
39
2
10
10.791933
20
132.068543
11
11.387391
21
131.863934
0
LINE
8
boundary
62
5
39
2
10
11.387391
20
131.863934
11
11.823587
21
131.548825
0
LINE
8
boundary
62
5
39
2
10
11.823587
20
131.548825
11
12.120333
21
131.110935
0
LINE
8
boundary
62
5
39
2
10
12.120333
20
131.110935
11
12.261350
21
130.588965
0
LINE
8
boundary
62
5
39
2
10
12.261350
20
130.588965
11
12.224642
21
130.028377
0
LINE
8
boundary
62
5
39
2
10
12.224642
20
130.028377
11
11.977771
21
129.523900
0
LINE
8
boundary
62
5
39
2
10
11.977771
20
129.523900
11
11.593762
21
129.139493
0
LINE
8
boundary
62
5
39
2
10
11.593762
20
129.139493
11
11.115551
21
128.907079
0
LINE
8
boundary
62
5
39
2
10
11.115551
20
128.907079
11
10.580373
21
128.851984
0
LINE
8
boundary
62
5
39
2
10
10.580373
20
128.851984
11
9.962399
21
128.972548
0
LINE
8
boundary
62
5
39
2
10
9.962399
20
128.972548
11
9.492155
21
128.633972
0
LINE
8
boundary
62
5
39
2
10
9.492155
20
128.633972
11
9.367761
21
128.133125
0
LINE
8
boundary
62
5
39
2
10
9.367761
20
128.133125
11
9.248716
21
127.623091
0
LINE
8
boundary
62
5
39
2
10
9.248716
20
127.623091
11
9.511476
21
127.094347
0
LINE
8
boundary
62
5
39
2
10
9.511476
20
127.094347
11
10.116787
21
126.921178
0
LINE
8
boundary
62
5
39
2
10
10.116787
20
126.921178
11
10.568855
21
126.629311
0
LINE
8
boundary
62
5
39
2
10
10.568855
20
126.629311
11
10.888100
21
126.207438
0
LINE
8
boundary
62
5
39
2
10
10.888100
20
126.207438
11
11.056282
21
125.693602
0
LINE
8
boundary
62
5
39
2
10
11.056282
20
125.693602
11
11.048930
21
125.131920
0
LINE
8
boundary
62
5
39
2
10
11.048930
20
125.131920
11
10.828852
21
124.615153
0
LINE
8
boundary
62
5
39
2
10
10.828852
20
124.615153
11
10.465409
21
124.211263
0
LINE
8
boundary
62
5
39
2
10
10.465409
20
124.211263
11
10.000067
21
123.954050
0
LINE
8
boundary
62
5
39
2
10
10.000067
20
123.954050
11
9.468516
21
123.871046
0
LINE
8
boundary
62
5
39
2
10
9.468516
20
123.871046
11
8.845044
21
123.959030
0
LINE
8
boundary
62
5
39
2
10
8.845044
20
123.959030
11
8.393113
21
123.596447
0
LINE
8
boundary
62
5
39
2
10
8.393113
20
123.596447
11
8.295193
21
123.089742
0
LINE
8
boundary
62
5
39
2
10
8.295193
20
123.089742
11
8.203024
21
122.574203
0
LINE
8
boundary
62
5
39
2
10
8.203024
20
122.574203
11
8.493000
21
122.059871
0
LINE
8
boundary
62
5
39
2
10
8.493000
20
122.059871
11
9.106619
21
121.918555
0
LINE
8
boundary
62
5
39
2
10
9.106619
20
121.918555
11
9.573312
21
121.650758
0
LINE
8
boundary
62
5
39
2
10
9.573312
20
121.650758
11
9.914211
21
121.246239
0
LINE
8
boundary
62
5
39
2
10
9.914211
20
121.246239
11
10.109047
21
120.741992
0
LINE
8
boundary
62
5
39
2
10
10.109047
20
120.741992
11
10.131154
21
120.180571
0
LINE
8
boundary
62
5
39
2
10
10.131154
20
120.180571
11
9.938393
21
119.653065
0
LINE
8
boundary
62
5
39
2
10
9.938393
20
119.653065
11
9.596554
21
119.230636
0
LINE
8
boundary
62
5
39
2
10
9.596554
20
119.230636
11
9.145316
21
118.949559
0
LINE
8
boundary
62
5
39
2
10
9.145316
20
118.949559
11
8.618750
21
118.838851
0
LINE
8
boundary
62
5
39
2
10
8.618750
20
118.838851
11
7.991650
21
118.894048
0
LINE
8
boundary
62
5
39
2
10
7.991650
20
118.894048
11
7.559376
21
118.508281
0
LINE
8
boundary
62
5
39
2
10
7.559376
20
118.508281
11
7.488039
21
117.997048
0
LINE
8
boundary
62
5
39
2
10
7.488039
20
117.997048
11
7.422943
21
117.477450
0
LINE
8
boundary
62
5
39
2
10
7.422943
20
117.477450
11
7.739516
21
116.979015
0
LINE
8
boundary
62
5
39
2
10
7.739516
20
116.979015
11
8.359572
21
116.870070
0
LINE
8
boundary
62
5
39
2
10
8.359572
20
116.870070
11
8.839751
21
116.627072
0
LINE
8
boundary
62
5
39
2
10
8.839751
20
116.627072
11
9.201392
21
116.240941
0
LINE
8
boundary
62
5
39
2
10
9.201392
20
116.240941
11
9.422248
21
115.747523
0
LINE
8
boundary
62
5
39
2
10
9.422248
20
115.747523
11
9.473699
21
115.188050
0
LINE
8
boundary
62
5
39
2
10
9.473699
20
115.188050
11
9.308763
21
114.651171
0
LINE
8
boundary
62
5
39
2
10
9.308763
20
114.651171
11
8.991467
21
114.213428
0
LINE
8
boundary
62
5
39
2
10
8.991467
20
114.213428
11
8.553589
21
113.907062
0
LINE
8
boundary
62
5
39
2
10
8.553589
20
113.907062
11
8.033665
21
113.768941
0
LINE
8
boundary
62
5
39
2
10
8.033665
20
113.768941
11
7.404489
21
113.791280
0
LINE
8
boundary
62
5
39
2
10
7.404489
20
113.791280
11
6.992913
21
113.383398
0
LINE
8
boundary
62
5
39
2
10
6.992913
20
113.383398
11
6.948460
21
112.869199
0
LINE
8
boundary
62
5
39
2
10
6.948460
20
112.869199
11
6.910653
21
112.346838
0
LINE
8
boundary
62
5
39
2
10
6.910653
20
112.346838
11
7.252899
21
111.865693
0
LINE
8
boundary
62
5
39
2
10
7.252899
20
111.865693
11
7.877825
21
111.789327
0
LINE
8
boundary
62
5
39
2
10
7.877825
20
111.789327
11
8.370049
21
111.571771
0
LINE
8
boundary
62
5
39
2
10
8.370049
20
111.571771
11
8.751386
21
111.205110
0
LINE
8
boundary
62
5
39
2
10
8.751386
20
111.205110
11
8.997741
21
110.723917
0
LINE
8
boundary
62
5
39
2
10
8.997741
20
110.723917
11
9.078433
21
110.167945
0
LINE
8
boundary
62
5
39
2
10
9.078433
20
110.167945
11
8.941847
21
109.623163
0
LINE
8
boundary
62
5
39
2
10
8.941847
20
109.623163
11
8.647926
21
109.169418
0
LINE
8
boundary
62
5
39
2
10
8.647926
20
109.169418
11
8.226653
21
108.840555
0
LINE
8
boundary
62
5
39
2
10
8.226653
20
108.840555
11
7.714717
21
108.675406
0
LINE
8
boundary
62
5
39
2
10
7.714717
20
108.675406
11
7.085122
21
108.664781
0
LINE
8
boundary
62
5
39
2
10
7.085122
20
108.664781
11
6.695592
21
108.235919
0
LINE
8
boundary
62
5
39
2
10
6.695592
20
108.235919
11
6.678129
21
107.720105
0
LINE
8
boundary
62
5
39
2
10
6.678129
20
107.720105
11
6.667711
21
107.196480
0
LINE
8
boundary
62
5
39
2
10
6.667711
20
107.196480
11
7.034599
21
106.733913
0
LINE
8
boundary
62
5
39
2
10
7.034599
20
106.733913
11
7.662740
21
106.690345
0
LINE
8
boundary
62
5
39
2
10
7.662740
20
106.690345
11
8.165543
21
106.498852
0
LINE
8
boundary
62
5
39
2
10
8.165543
20
106.498852
11
8.565557
21
106.152660
0
LINE
8
boundary
62
5
39
2
10
8.565557
20
106.152660
11
8.836885
21
105.685010
0
LINE
8
boundary
62
5
39
2
10
8.836885
20
105.685010
11
8.946508
21
105.134025
0
LINE
8
boundary
62
5
39
2
10
8.946508
20
105.134025
11
8.838679
21
104.582849
0
LINE
8
boundary
62
5
39
2
10
8.838679
20
104.582849
11
8.568851
21
104.114340
0
LINE
8
boundary
62
5
39
2
10
8.568851
20
104.114340
11
8.165337
21
103.763880
0
LINE
8
boundary
62
5
39
2
10
8.165337
20
103.763880
11
7.662740
21
103.572169
0
LINE
8
boundary
62
5
39
2
10
7.662740
20
103.572169
11
7.034598
21
103.528602
0
LINE
8
boundary
62
5
39
2
10
7.034598
20
103.528602
11
6.668031
21
103.079944
0
LINE
8
boundary
62
5
39
2
10
6.668031
20
103.079944
11
6.677565
21
102.563925
0
LINE
8
boundary
62
5
39
2
10
6.677565
20
102.563925
11
6.694545
21
102.040459
0
LINE
8
boundary
62
5
39
2
10
6.694545
20
102.040459
11
7.085122
21
101.597734
0
LINE
8
boundary
62
5
39
2
10
7.085122
20
101.597734
11
7.714717
21
101.587109
0
LINE
8
boundary
62
5
39
2
10
7.714717
20
101.587109
11
8.226864
21
101.422188
0
LINE
8
boundary
62
5
39
2
10
8.226864
20
101.422188
11
8.644515
21
101.097409
0
LINE
8
boundary
62
5
39
2
10
8.644515
20
101.097409
11
8.939780
21
100.644596
0
LINE
8
boundary
62
5
39
2
10
8.939780
20
100.644596
11
9.078237
21
100.100100
0
LINE
8
boundary
62
5
39
2
10
9.078237
20
100.100100
11
8.999254
21
99.544031
0
LINE
8
boundary
62
5
39
2
10
8.999254
20
99.544031
11
8.754352
21
99.062052
0
LINE
8
boundary
62
5
39
2
10
8.754352
20
99.062052
11
8.369837
21
98.690951
0
LINE
8
boundary
62
5
39
2
10
8.369837
20
98.690951
11
7.877825
21
98.473187
0
LINE
8
boundary
62
5
39
2
10
7.877825
20
98.473187
11
7.252899
21
98.396822
0
LINE
8
boundary
62
5
39
2
10
7.252899
20
98.396822
11
6.910247
21
97.929584
0
LINE
8
boundary
62
5
39
2
10
6.910247
20
97.929584
11
6.946772
21
97.414771
0
LINE
8
boundary
62
5
39
2
10
6.946772
20
97.414771
11
6.991142
21
96.892916
0
LINE
8
boundary
62
5
39
2
10
6.991142
20
96.892916
11
7.404489
21
96.471235
0
LINE
8
boundary
62
5
39
2
10
7.404489
20
96.471235
11
8.033665
21
96.493574
0
LINE
8
boundary
62
5
39
2
10
8.033665
20
96.493574
11
8.553795
21
96.355692
0
LINE
8
boundary
62
5
39
2
10
8.553795
20
96.355692
11
8.989888
21
96.051364
0
LINE
8
boundary
62
5
39
2
10
8.989888
20
96.051364
11
9.306428
21
95.616473
0
LINE
8
boundary
62
5
39
2
10
9.306428
20
95.616473
11
9.473184
21
95.079970
0
LINE
8
boundary
62
5
39
2
10
9.473184
20
95.079970
11
9.423469
21
94.520566
0
LINE
8
boundary
62
5
39
2
10
9.423469
20
94.520566
11
9.204122
21
94.026378
0
LINE
8
boundary
62
5
39
2
10
9.204122
20
94.026378
11
8.839545
21
93.635650
0
LINE
8
boundary
62
5
39
2
10
8.839545
20
93.635650
11
8.359572
21
93.392445
0
LINE
8
boundary
62
5
39
2
10
8.359572
20
93.392445
11
7.739515
21
93.283500
0
LINE
8
boundary
62
5
39
2
10
7.739515
20
93.283500
11
7.421811
21
92.799013
0
LINE
8
boundary
62
5
39
2
10
7.421811
20
92.799013
11
7.485229
21
92.286804
0
LINE
8
boundary
62
5
39
2
10
7.485229
20
92.286804
11
7.556886
21
91.767903
0
LINE
8
boundary
62
5
39
2
10
7.556886
20
91.767903
11
7.991650
21
91.368466
0
LINE
8
boundary
62
5
39
2
10
7.991650
20
91.368466
11
8.618750
21
91.423664
0
LINE
8
boundary
62
5
39
2
10
8.618750
20
91.423664
11
9.145419
21
91.313266
0
LINE
8
boundary
62
5
39
2
10
9.145419
20
91.313266
11
9.596863
21
91.032191
0
LINE
8
boundary
62
5
39
2
10
9.596863
20
91.032191
11
9.935795
21
90.614469
0
LINE
8
boundary
62
5
39
2
10
9.935795
20
90.614469
11
10.130332
21
90.087360
0
LINE
8
boundary
62
5
39
2
10
10.130332
20
90.087360
11
10.109986
21
89.526065
0
LINE
8
boundary
62
5
39
2
10
10.109986
20
89.526065
11
9.916798
21
89.021127
0
LINE
8
boundary
62
5
39
2
10
9.916798
20
89.021127
11
9.573106
21
88.611861
0
LINE
8
boundary
62
5
39
2
10
9.573106
20
88.611861
11
9.106620
21
88.343960
0
LINE
8
boundary
62
5
39
2
10
9.106620
20
88.343960
11
8.493000
21
88.202644
0
LINE
8
boundary
62
5
39
2
10
8.493000
20
88.202644
11
8.201168
21
87.702185
0
LINE
8
boundary
62
5
39
2
10
8.201168
20
87.702185
11
8.291273
21
87.193933
0
LINE
8
boundary
62
5
39
2
10
8.291273
20
87.193933
11
8.389911
21
86.679586
0
LINE
8
boundary
62
5
39
2
10
8.389911
20
86.679586
11
8.845044
21
86.303485
0
LINE
8
boundary
62
5
39
2
10
8.845044
20
86.303485
11
9.468516
21
86.391469
0
LINE
8
boundary
62
5
39
2
10
9.468516
20
86.391469
11
10.000169
21
86.308672
0
LINE
8
boundary
62
5
39
2
10
10.000169
20
86.308672
11
10.465621
21
86.051563
0
LINE
8
boundary
62
5
39
2
10
10.465621
20
86.051563
11
10.826008
21
85.652126
0
LINE
8
boundary
62
5
39
2
10
10.826008
20
85.652126
11
11.047805
21
85.136056
0
LINE
8
boundary
62
5
39
2
10
11.047805
20
85.136056
11
11.056828
21
84.574509
0
LINE
8
boundary
62
5
39
2
10
11.056828
20
84.574509
11
10.890421
21
84.060072
0
LINE
8
boundary
62
5
39
2
10
10.890421
20
84.060072
11
10.570565
21
83.635372
0
LINE
8
boundary
62
5
39
2
10
10.570565
20
83.635372
11
10.116787
21
83.341337
0
LINE
8
boundary
62
5
39
2
10
10.116787
20
83.341337
11
9.511476
21
83.168168
0
LINE
8
boundary
62
5
39
2
10
9.511476
20
83.168168
11
9.246143
21
82.653076
0
LINE
8
boundary
62
5
39
2
10
9.246143
20
82.653076
11
9.362736
21
82.150316
0
LINE
8
boundary
62
5
39
2
10
9.362736
20
82.150316
11
9.488250
21
81.641875
0
LINE
8
boundary
62
5
39
2
10
9.488250
20
81.641875
11
9.962400
21
81.289966
0
LINE
8
boundary
62
5
39
2
10
9.962400
20
81.289966
11
10.580373
21
81.410531
0
LINE
8
boundary
62
5
39
2
10
10.580373
20
81.410531
11
11.115654
21
81.355644
0
LINE
8
boundary
62
5
39
2
10
11.115654
20
81.355644
11
11.593968
21
81.123333
0
LINE
8
boundary
62
5
39
2
10
11.593968
20
81.123333
11
11.974686
21
80.743316
0
LINE
8
boundary
62
5
39
2
10
11.974686
20
80.743316
11
12.223222
21
80.239528
0
LINE
8
boundary
62
5
39
2
10
12.223222
20
80.239528
11
12.261705
21
79.679183
0
LINE
8
boundary
62
5
39
2
10
12.261705
20
79.679183
11
12.122301
21
79.156798
0
LINE
8
boundary
62
5
39
2
10
12.122301
20
79.156798
11
11.825084
21
78.715954
0
LINE
8
boundary
62
5
39
2
10
11.825084
20
78.715954
11
11.387391
21
78.398581
0
LINE
8
boundary
62
5
39
2
10
11.387391
20
78.398581
11
10.791934
21
78.193972
0
LINE
8
boundary
62
5
39
2
10
10.791934
20
78.193972
11
10.553928
21
77.665693
0
LINE
8
boundary
62
5
39
2
10
10.553928
20
77.665693
11
10.696702
21
77.169652
0
LINE
8
boundary
62
5
39
2
10
10.696702
20
77.169652
11
10.848676
21
76.668465
0
LINE
8
boundary
62
5
39
2
10
10.848676
20
76.668465
11
11.340495
21
76.341917
0
LINE
8
boundary
62
5
39
2
10
11.340495
20
76.341917
11
11.951310
21
76.494648
0
LINE
8
boundary
62
5
39
2
10
11.951310
20
76.494648
11
12.488765
21
76.467879
0
LINE
8
boundary
62
5
39
2
10
12.488765
20
76.467879
11
12.978603
21
76.260884
0
LINE
8
boundary
62
5
39
2
10
12.978603
20
76.260884
11
13.378703
21
75.901315
0
LINE
8
boundary
62
5
39
2
10
13.378703
20
75.901315
11
13.653253
21
75.411162
0
LINE
8
boundary
62
5
39
2
10
13.653253
20
75.411162
11
13.720999
21
74.853676
0
LINE
8
boundary
62
5
39
2
10
13.720999
20
74.853676
11
13.609211
21
74.324698
0
LINE
8
boundary
62
5
39
2
10
13.609211
20
74.324698
11
13.335461
21
73.868848
0
LINE
8
boundary
62
5
39
2
10
13.335461
20
73.868848
11
12.914896
21
73.529077
0
LINE
8
boundary
62
5
39
2
10
12.914896
20
73.529077
11
12.331059
21
73.293551
0
LINE
8
boundary
62
5
39
2
10
12.331059
20
73.293551
11
12.121007
21
72.753525
0
LINE
8
boundary
62
5
39
2
10
12.121007
20
72.753525
11
12.289557
21
72.265736
0
LINE
8
boundary
62
5
39
2
10
12.289557
20
72.265736
11
12.467473
21
71.773156
0
LINE
8
boundary
62
5
39
2
10
12.467473
20
71.773156
11
12.975800
21
71.472726
0
LINE
8
boundary
62
5
39
2
10
12.975800
20
71.472726
11
13.577798
21
71.657205
0
LINE
8
boundary
62
5
39
2
10
13.577798
20
71.657205
11
14.115876
21
71.658658
0
LINE
8
boundary
62
5
39
2
10
14.115876
20
71.658658
11
14.615882
21
71.477501
0
LINE
8
boundary
62
5
39
2
10
14.615882
20
71.477501
11
15.034240
21
71.139411
0
LINE
8
boundary
62
5
39
2
10
15.034240
20
71.139411
11
15.334072
21
70.664340
0
LINE
8
boundary
62
5
39
2
10
15.334072
20
70.664340
11
15.430867
21
70.111064
0
LINE
8
boundary
62
5
39
2
10
15.430867
20
70.111064
11
15.346886
21
69.577047
0
LINE
8
boundary
62
5
39
2
10
15.346886
20
69.577047
11
15.097447
21
69.107444
0
LINE
8
boundary
62
5
39
2
10
15.097447
20
69.107444
11
14.695256
21
68.746109
0
LINE
8
boundary
62
5
39
2
10
14.695256
20
68.746109
11
14.124488
21
68.480388
0
LINE
8
boundary
62
5
39
2
10
14.124488
20
68.480388
11
13.943018
21
67.930061
0
LINE
8
boundary
62
5
39
2
10
13.943018
20
67.930061
11
14.136834
21
67.451748
0
LINE
8
boundary
62
5
39
2
10
14.136834
20
67.451748
11
14.340271
21
66.969224
0
LINE
8
boundary
62
5
39
2
10
14.340271
20
66.969224
11
14.863657
21
66.695876
0
LINE
8
boundary
62
5
39
2
10
14.863657
20
66.695876
11
15.455172
21
66.911485
0
LINE
8
boundary
62
5
39
2
10
15.455172
20
66.911485
11
15.992422
21
66.941156
0
LINE
8
boundary
62
5
39
2
10
15.992422
20
66.941156
11
16.501244
21
66.786454
0
LINE
8
boundary
62
5
39
2
10
16.501244
20
66.786454
11
16.938784
21
66.468752
0
LINE
8
boundary
62
5
39
2
10
16.938784
20
66.468752
11
17.261008
21
66.011927
0
LINE
8
boundary
62
5
39
2
10
17.261008
20
66.011927
11
17.386631
21
65.464523
0
LINE
8
boundary
62
5
39
2
10
17.386631
20
65.464523
11
17.330678
21
64.926818
0
LINE
8
boundary
62
5
39
2
10
17.330678
20
64.926818
11
17.106159
21
64.444807
0
LINE
8
boundary
62
5
39
2
10
17.106159
20
64.444807
11
16.723488
21
64.062946
0
LINE
8
boundary
62
5
39
2
10
16.723488
20
64.062946
11
16.167356
21
63.767658
0
LINE
8
boundary
62
5
39
2
10
16.167356
20
63.767658
11
16.014978
21
63.208684
0
LINE
8
boundary
62
5
39
2
10
16.014978
20
63.208684
11
16.233550
21
62.741184
0
LINE
8
boundary
62
5
39
2
10
16.233550
20
62.741184
11
16.461994
21
62.269859
0
LINE
8
boundary
62
5
39
2
10
16.461994
20
62.269859
11
16.998858
21
62.024238
0
LINE
8
boundary
62
5
39
2
10
16.998858
20
62.024238
11
17.578335
21
62.270659
0
LINE
8
boundary
62
5
39
2
10
17.578335
20
62.270659
11
18.113307
21
62.328347
0
LINE
8
boundary
62
5
39
2
10
18.113307
20
62.328347
11
18.629494
21
62.200414
0
LINE
8
boundary
62
5
39
2
10
18.629494
20
62.200414
11
19.083015
21
61.906058
0
LINE
8
boundary
62
5
39
2
10
19.083015
20
61.906058
11
19.428765
21
61.466797
0
LINE
8
boundary
62
5
39
2
10
19.428765
20
61.466797
11
19.582901
21
60.926708
0
LINE
8
boundary
62
5
39
2
10
19.582901
20
60.926708
11
19.555176
21
60.386776
0
LINE
8
boundary
62
5
39
2
10
19.555176
20
60.386776
11
19.356104
21
59.893698
0
LINE
8
boundary
62
5
39
2
10
19.356104
20
59.893698
11
18.993994
21
59.492265
0
LINE
8
boundary
62
5
39
2
10
18.993994
20
59.492265
11
18.454045
21
59.168335
0
LINE
8
boundary
62
5
39
2
10
18.454045
20
59.168335
11
18.331079
21
58.602156
0
LINE
8
boundary
62
5
39
2
10
18.331079
20
58.602156
11
18.573890
21
58.146696
0
LINE
8
boundary
62
5
39
2
10
18.573890
20
58.146696
11
18.826630
21
57.688023
0
LINE
8
boundary
62
5
39
2
10
18.826630
20
57.688023
11
19.375712
21
57.470879
0
LINE
8
boundary
62
5
39
2
10
19.375712
20
57.470879
11
19.941502
21
57.747183
0
LINE
8
boundary
62
5
39
2
10
19.941502
20
57.747183
11
20.472732
21
57.832782
0
LINE
8
boundary
62
5
39
2
10
20.472732
20
57.832782
11
20.994835
21
57.732140
0
LINE
8
boundary
62
5
39
2
10
20.994835
20
57.732140
11
21.463193
21
57.461953
0
LINE
8
boundary
62
5
39
2
10
21.463193
20
57.461953
11
21.831423
21
57.041285
0
LINE
8
boundary
62
5
39
2
10
21.831423
20
57.041285
11
22.013561
21
56.509971
0
LINE
8
boundary
62
5
39
2
10
22.013561
20
56.509971
11
22.014169
21
55.969355
0
LINE
8
boundary
62
5
39
2
10
22.014169
20
55.969355
11
21.841259
21
55.466578
0
LINE
8
boundary
62
5
39
2
10
21.841259
20
55.466578
11
21.500546
21
55.046814
0
LINE
8
boundary
62
5
39
2
10
21.500546
20
55.046814
11
20.978339
21
54.694977
0
LINE
8
boundary
62
5
39
2
10
20.978339
20
54.694977
11
20.885198
21
54.123139
0
LINE
8
boundary
62
5
39
2
10
20.885198
20
54.123139
11
21.151448
21
53.681044
0
LINE
8
boundary
62
5
39
2
10
21.151448
20
53.681044
11
21.427939
21
53.236164
0
LINE
8
boundary
62
5
39
2
10
21.427939
20
53.236164
11
21.987580
21
53.048051
0
LINE
8
boundary
62
5
39
2
10
21.987580
20
53.048051
11
22.538115
21
53.353610
0
LINE
8
boundary
62
5
39
2
10
22.538115
20
53.353610
11
23.064156
21
53.466909
0
LINE
8
boundary
62
5
39
2
10
23.064156
20
53.466909
11
23.590825
21
53.393766
0
LINE
8
boundary
62
5
39
2
10
23.590825
20
53.393766
11
24.072670
21
53.148378
0
LINE
8
boundary
62
5
39
2
10
24.072670
20
53.148378
11
24.462465
21
52.747641
0
LINE
8
boundary
62
5
39
2
10
24.462465
20
52.747641
11
24.672179
21
52.226556
0
LINE
8
boundary
62
5
39
2
10
24.672179
20
52.226556
11
24.701009
21
51.686713
0
LINE
8
boundary
62
5
39
2
10
24.701009
20
51.686713
11
24.554669
21
51.175578
0
LINE
8
boundary
62
5
39
2
10
24.554669
20
51.175578
11
24.238346
21
50.740558
0
LINE
8
boundary
62
5
39
2
10
24.238346
20
50.740558
11
23.733391
21
50.359922
0
LINE
8
boundary
62
5
39
2
10
23.733391
20
50.359922
11
23.670188
21
49.783977
0
LINE
8
boundary
62
5
39
2
10
23.670188
20
49.783977
11
23.959246
21
49.356374
0
LINE
8
boundary
62
5
39
2
10
23.959246
20
49.356374
11
24.258678
21
48.926638
0
LINE
8
boundary
62
5
39
2
10
24.258678
20
48.926638
11
24.827396
21
48.768092
0
LINE
8
boundary
62
5
39
2
10
24.827396
20
48.768092
11
25.361114
21
49.101980
0
LINE
8
boundary
62
5
39
2
10
25.361114
20
49.101980
11
25.880523
21
49.242669
0
LINE
8
boundary
62
5
39
2
10
25.880523
20
49.242669
11
26.410312
21
49.197123
0
LINE
8
boundary
62
5
39
2
10
26.410312
20
49.197123
11
26.904395
21
48.977363
0
LINE
8
boundary
62
5
39
2
10
26.904395
20
48.977363
11
27.314510
21
48.597490
0
LINE
8
boundary
62
5
39
2
10
27.314510
20
48.597490
11
27.551180
21
48.088184
0
LINE
8
boundary
62
5
39
2
10
27.551180
20
48.088184
11
27.608329
21
47.550568
0
LINE
8
boundary
62
5
39
2
10
27.608329
20
47.550568
11
27.488877
21
47.032528
0
LINE
8
boundary
62
5
39
2
10
27.488877
20
47.032528
11
27.195818
21
46.581476
0
LINE
8
boundary
62
5
39
2
10
27.195818
20
46.581476
11
26.711414
21
46.174900
0
LINE
8
boundary
62
5
39
2
10
26.711414
20
46.174900
11
26.678562
21
45.596499
0
LINE
8
boundary
62
5
39
2
10
26.678562
20
45.596499
11
26.989520
21
45.184611
0
LINE
8
boundary
62
5
39
2
10
26.989520
20
45.184611
11
27.310947
21
44.771060
0
LINE
8
boundary
62
5
39
2
10
27.310947
20
44.771060
11
27.887280
21
44.642520
0
LINE
8
boundary
62
5
39
2
10
27.887280
20
44.642520
11
28.402747
21
45.003902
0
LINE
8
boundary
62
5
39
2
10
28.402747
20
45.003902
11
28.914156
21
45.171576
0
LINE
8
boundary
62
5
39
2
10
28.914156
20
45.171576
11
29.445603
21
45.153832
0
LINE
8
boundary
62
5
39
2
10
29.445603
20
45.153832
11
29.950478
21
44.960221
0
LINE
8
boundary
62
5
39
2
10
29.950478
20
44.960221
11
30.379981
21
44.602343
0
LINE
8
boundary
62
5
39
2
10
30.379981
20
44.602343
11
30.642988
21
44.106163
0
LINE
8
boundary
62
5
39
2
10
30.642988
20
44.106163
11
30.728149
21
43.572230
0
LINE
8
boundary
62
5
39
2
10
30.728149
20
43.572230
11
30.635993
21
43.048631
0
LINE
8
boundary
62
5
39
2
10
30.635993
20
43.048631
11
30.366825
21
42.582892
0
LINE
8
boundary
62
5
39
2
10
30.366825
20
42.582892
11
29.904417
21
42.151526
0
LINE
8
boundary
62
5
39
2
10
29.904417
20
42.151526
11
29.901826
21
41.572116
0
LINE
8
boundary
62
5
39
2
10
29.901826
20
41.572116
11
30.234064
21
41.177081
0
LINE
8
boundary
62
5
39
2
10
30.234064
20
41.177081
11
30.576665
21
40.781051
0
LINE
8
boundary
62
5
39
2
10
30.576665
20
40.781051
11
31.158835
21
40.682751
0
LINE
8
boundary
62
5
39
2
10
31.158835
20
40.682751
11
31.654789
21
41.070699
0
LINE
8
boundary
62
5
39
2
10
31.654789
20
41.070699
11
32.156660
21
41.264825
0
LINE
8
boundary
62
5
39
2
10
32.156660
20
41.264825
11
32.688307
21
41.274993
0
LINE
8
boundary
62
5
39
2
10
32.688307
20
41.274993
11
33.202629
21
41.108052
0
LINE
8
boundary
62
5
39
2
10
33.202629
20
41.108052
11
33.652311
21
40.771154
0
LINE
8
boundary
62
5
39
2
10
33.652311
20
40.771154
11
33.938881
21
40.291394
0
LINE
8
boundary
62
5
39
2
10
33.938881
20
40.291394
11
34.051850
21
39.762691
0
LINE
8
boundary
62
5
39
2
10
34.051850
20
39.762691
11
33.987190
21
39.234890
0
LINE
8
boundary
62
5
39
2
10
33.987190
20
39.234890
11
33.742839
21
38.755712
0
LINE
8
boundary
62
5
39
2
10
33.742839
20
38.755712
11
33.312578
21
38.310115
0
LINE
8
boundary
62
5
39
2
10
33.312578
20
38.310115
11
33.331349
21
37.722041
0
LINE
8
boundary
62
5
39
2
10
33.331349
20
37.722041
11
33.333048
21
37.719360
0
LINE
8
annotation
62
1
39
211
10
183.902263
20
105.131257
11
183.902263
21
106.560007
0
LINE
8
annotation
62
1
39
211
10
183.902263
20
105.131257
11
183.902263
21
106.560007
0
LINE
8
annotation
62
1
39
211
10
183.902263
20
106.560007
11
183.902263
21
105.131257
0
LINE
8
annotation
62
1
39
211
10
183.902263
20
105.131257
11
183.902263
21
103.702507
0
LINE
8
annotation
62
1
39
211
10
26.360251
20
105.131257
11
27.789001
21
105.131257
0
LINE
8
annotation
62
1
39
211
10
26.360251
20
105.131257
11
27.789001
21
105.131257
0
LINE
8
annotation
62
1
39
211
10
27.789001
20
105.131257
11
26.360251
21
105.131257
0
LINE
8
annotation
62
1
39
211
10
26.360251
20
105.131257
11
26.360251
21
103.702507
0
LINE
8
annotation
62
1
39
211
10
84.801315
20
88.520259
11
45.433611
21
88.520259
0
LINE
8
annotation
62
1
39
211
10
45.433611
20
88.520259
11
61.155793
21
143.659055
0
LINE
8
annotation
62
1
39
211
10
73.000786
20
72.758060
11
73.000786
21
104.246888
0
LINE
8
frame
62
5
39
2
10
0.000000
20
0.000000
11
215.900000
21
0.000000
0
LINE
8
frame
62
5
39
2
10
215.900000
20
0.000000
11
215.900000
21
279.400000
0
LINE
8
frame
62
5
39
2
10
215.900000
20
279.400000
11
0.000000
21
279.400000
0
LINE
8
frame
62
5
39
2
10
0.000000
20
279.400000
11
0.000000
21
0.000000
0
ENDSEC
0
EOF
